<svg width="1520" height="150" viewBox="0 0 1520 150" fill="none" xmlns="http://www.w3.org/2000/svg">
<path d="M0 0H1520V134C1520 142.837 1512.84 150 1504 150H16C7.16342 150 0 142.837 0 134V0Z" fill="#FFF6F2"/>
<path d="M54.9731 46.6423V48.0097H51.3246V53.4917H49.634V48.0097H45.8674V53.4917H44.1519V48.0097H40.5594V46.6423H54.9731ZM42.1319 41.8191C42.1319 39.6934 44.4006 38.3446 47.732 38.3322C51.0635 38.3446 53.3508 39.6934 53.3508 41.8191C53.3508 43.9199 51.0635 45.25 47.732 45.2376C44.4006 45.25 42.1319 43.9199 42.1319 41.8191ZM43.8474 41.8191C43.8349 43.1119 45.395 43.9075 47.732 43.9137C50.0753 43.9075 51.6291 43.1119 51.6291 41.8191C51.6291 40.4952 50.0753 39.6872 47.732 39.6872C45.395 39.6872 43.8349 40.4952 43.8474 41.8191ZM68.1624 38.3757V39.364C68.1499 40.3522 68.1499 41.5704 67.864 43.1119L66.2107 42.9627C66.4655 41.614 66.4904 40.6008 66.4966 39.7058H57.2915V38.3757H68.1624ZM55.6195 45.2314V43.9075H61.3626V41.3094H63.0035V43.9075H69.94V45.2314H55.6195ZM57.2853 47.8854V46.5366H68.1997V50.4399H58.9697V52.0062H68.6037V53.3301H57.3039V49.2714H66.5463V47.8854H57.2853ZM79.9603 42.3909C79.9479 44.8709 81.5888 47.6492 83.9755 48.7742L83.0308 50.0919C81.2594 49.2403 79.8609 47.4627 79.1461 45.4054C78.4251 47.6492 76.952 49.5946 75.162 50.4834L74.1737 49.1657C76.5605 48.0221 78.2946 45.0511 78.307 42.3909V40.7065H74.758V39.3267H83.3788V40.7065H79.9603V42.3909ZM85.0694 53.4917V37.7417H86.7414V43.9883H89.2649V45.3992H86.7414V53.4917H85.0694ZM94.2 42.5711C94.2 45.0573 95.3437 47.5808 97.5191 48.7493L96.5806 49.9862C95.0578 49.172 94.0011 47.6678 93.4293 45.884C92.8637 47.7921 91.8071 49.4392 90.2843 50.3467L89.3022 49.0912C91.4901 47.8108 92.6151 45.1195 92.6275 42.5711V41.9372H89.787V40.576H92.6275V38.3073H94.2V40.576H96.997V41.9372H94.2V42.5711ZM95.959 45.2624V43.8764H98.2277V38.0773H99.8002V52.6961H98.2277V45.2624H95.959ZM101.41 53.4917V37.7417H102.995V53.4917H101.41ZM117.253 42.3536V43.6899H106.401V38.3135H108.054V42.3536H117.253ZM104.48 47.009V45.6727H118.894V47.009H104.48ZM106.283 53.1188V48.5069H107.943V51.7576H117.353V53.1188H106.283ZM137.765 46.7852V48.134H131.339V53.4793H129.698V48.134H123.352V46.7852H137.765ZM125.16 44.7838V38.5808H135.95V44.7838H125.16ZM126.801 43.4786H134.297V39.9296H126.801V43.4786ZM151.483 37.7417V53.4917H149.805V37.7417H151.483ZM138.542 49.2714C142.732 47.2825 144.77 44.442 145.1 40.7686H139.307V39.4385H146.803C146.79 44.0442 144.832 48.0407 139.425 50.6202L138.542 49.2714ZM167.768 44.2617V45.5919H161.403V46.9717H165.946V50.6637H156.785V52.0497H166.4V53.3425H155.15V49.4517H164.306V48.2459H155.119V46.9717H159.731V45.5919H153.41V44.2617H167.768ZM155.243 43.0994V38.2452H165.915V43.0994H155.243ZM156.878 41.788H164.25V39.5628H156.878V41.788ZM182.84 50.2162V51.6022H168.426V50.2162H174.766V47.4441H170.179V42.4344H179.428V40.2217H170.148V38.8605H181.075V43.7769H171.839V46.0767H181.442V47.4441H176.42V50.2162H182.84ZM201.686 47.0028V48.3329H195.26V53.4917H193.619V48.3329H187.273V47.0028H201.686ZM189.069 45.2189V38.3819H190.722V40.433H198.218V38.3819H199.884V45.2189H189.069ZM190.722 43.8764H198.218V41.7693H190.722V43.8764ZM215.858 37.7417V53.4917H214.254V45.3743H212.402V52.6837H210.817V38.0649H212.402V44.0007H214.254V37.7417H215.858ZM202.14 48.2956C202.606 48.2956 203.141 48.2956 203.719 48.2831V41.0297H202.463V39.6685H209.773V41.0297H208.53V48.0843C209.058 48.0407 209.568 47.9848 210.04 47.9227L210.133 49.1409C207.653 49.6257 204.359 49.6941 202.333 49.6941L202.14 48.2956ZM205.248 48.2583C205.82 48.2396 206.416 48.2148 207.001 48.1837V41.0297H205.248V48.2583ZM229.6 37.7417V44.125H232.124V45.511H229.6V53.4917H227.947V37.7417H229.6ZM217.244 41.5704V40.2093H221.129V37.9468H222.794V40.2093H226.573V41.5704H217.244ZM218.052 46.3999C218.046 44.2493 219.699 42.7327 221.974 42.7327C224.224 42.7327 225.877 44.2493 225.883 46.3999C225.877 48.5566 224.224 50.0546 221.974 50.0608C219.699 50.0546 218.046 48.5566 218.052 46.3999ZM219.649 46.3999C219.637 47.761 220.625 48.6747 221.974 48.6685C223.304 48.6747 224.28 47.761 224.292 46.3999C224.28 45.0449 223.304 44.1126 221.974 44.1126C220.625 44.1126 219.637 45.0449 219.649 46.3999ZM238.14 42.3909C238.14 45.02 239.868 47.7424 242.292 48.7742L241.379 50.0919C239.52 49.2714 238.053 47.5311 237.32 45.4427C236.586 47.6802 235.107 49.5946 233.28 50.4834L232.304 49.1657C234.678 48.0594 236.437 45.0946 236.45 42.3909V40.7065H232.857V39.3267H241.733V40.7065H238.14V42.3909ZM243.716 53.4917V37.7417H245.394V53.4917H243.716ZM255.594 38.5932C257.975 38.5932 259.728 40.1098 259.728 42.2417C259.728 44.3923 257.975 45.8964 255.594 45.9026C253.22 45.8964 251.442 44.3923 251.455 42.2417C251.442 40.1098 253.22 38.5932 255.594 38.5932ZM252.804 53.0691V47.2203H254.432V51.7017C255.352 51.6519 256.415 51.5214 257.416 51.1858L257.67 52.5035C256.204 53.0069 254.786 53.0691 253.599 53.0691H252.804ZM253.083 42.2417C253.071 43.5905 254.165 44.529 255.594 44.529C257.024 44.529 258.105 43.5905 258.105 42.2417C258.105 40.9116 257.024 39.9793 255.594 39.9793C254.165 39.9793 253.071 40.9116 253.083 42.2417ZM257.117 48.5442V47.2762H260.3V45.9834H261.928V47.2762H265.073V48.5442H257.117ZM258.118 51.2541C258.105 49.8867 259.324 49.0228 261.089 49.0166C262.835 49.0228 264.06 49.8867 264.072 51.2541C264.06 52.6153 262.835 53.4669 261.089 53.4669C259.324 53.4669 258.105 52.6153 258.118 51.2541ZM259.603 51.2541C259.603 51.9006 260.225 52.2921 261.089 52.2921C261.947 52.2921 262.562 51.9006 262.568 51.2541C262.562 50.614 261.947 50.2099 261.089 50.1975C260.225 50.2099 259.603 50.614 259.603 51.2541ZM261.922 45.5794V37.7417H263.594V41.1975H265.875V42.5836H263.594V45.5794H261.922ZM272.028 42.3909C272.028 45.02 273.756 47.7424 276.18 48.7742L275.266 50.0919C273.408 49.2714 271.941 47.5311 271.208 45.4427C270.474 47.6802 268.995 49.5946 267.168 50.4834L266.192 49.1657C268.566 48.0594 270.325 45.0946 270.338 42.3909V40.7065H266.745V39.3267H275.621V40.7065H272.028V42.3909ZM277.603 53.4917V37.7417H279.282V53.4917H277.603ZM289.233 39.1278V46.4869H281.855V39.1278H289.233ZM283.49 45.1568H287.598V40.4765H283.49V45.1568ZM283.645 53.1685V48.1588H285.304V51.8011H294.298V53.1685H283.645ZM291.955 49.2652V37.7355H293.627V42.4468H295.908V43.8391H293.627V49.2652H291.955ZM299.097 50.7693L297.686 55.6298H296.194L297.133 50.7693H299.097ZM312.952 38.9351V39.8239C312.94 40.8743 312.94 42.4406 312.555 44.4669L310.901 44.3239C311.243 42.5711 311.299 41.3032 311.312 40.3149H305.009V38.9351H312.952ZM304.058 45.828C305.028 45.8218 306.128 45.8156 307.284 45.7907V42.4779H308.937V45.7348C310.628 45.6664 312.362 45.5421 313.947 45.3184L314.046 46.5366C310.758 47.1146 306.998 47.1768 304.213 47.183L304.058 45.828ZM306.451 53.1685V48.5069H308.117V51.8011H317.148V53.1685H306.451ZM314.948 49.576V37.7417H316.644V42.7576H318.814V44.1685H316.644V49.576H314.948ZM332.27 37.7417V53.5228H330.617V37.7417H332.27ZM320.075 40.5262V39.1588H327.453V44.9206H321.81V48.364C324.358 48.3515 326.589 48.2334 329.225 47.7983L329.38 49.1782C326.589 49.6381 324.215 49.7438 321.443 49.7438H320.094V43.578H325.763V40.5262H320.075ZM342.346 38.9227C343.782 38.9289 344.957 39.7431 345.653 41.1664H349.556V37.7417H351.21V53.5228H349.556V47.4814H345.771C345.1 49.0663 343.869 49.9862 342.346 49.9862C339.991 49.9862 338.337 47.8419 338.35 44.4482C338.337 41.0732 339.991 38.9289 342.346 38.9227ZM339.941 44.4482C339.941 46.9468 340.917 48.4883 342.346 48.4883C343.764 48.4883 344.746 46.9468 344.746 44.4482C344.746 41.9682 343.764 40.4268 342.346 40.4144C340.917 40.4268 339.941 41.9682 339.941 44.4482ZM346.125 42.5401C346.256 43.1181 346.324 43.7583 346.324 44.4482C346.324 45.0449 346.268 45.6043 346.175 46.1202H349.556V42.5401H346.125ZM365.362 37.7417V44.125H367.886V45.511H365.362V53.4917H363.709V37.7417H365.362ZM353.006 41.5704V40.2093H356.891V37.9468H358.556V40.2093H362.335V41.5704H353.006ZM353.814 46.3999C353.808 44.2493 355.461 42.7327 357.736 42.7327C359.986 42.7327 361.639 44.2493 361.646 46.3999C361.639 48.5566 359.986 50.0546 357.736 50.0608C355.461 50.0546 353.808 48.5566 353.814 46.3999ZM355.411 46.3999C355.399 47.761 356.387 48.6747 357.736 48.6685C359.066 48.6747 360.042 47.761 360.054 46.3999C360.042 45.0449 359.066 44.1126 357.736 44.1126C356.387 44.1126 355.399 45.0449 355.411 46.3999ZM381.653 37.7417V53.4917H380.05V37.7417H381.653ZM368.284 44.5414C368.284 41.1354 369.62 39.0035 371.671 39.0035C373.586 39.0035 374.885 40.8184 375.083 43.7769H376.861V38.0463H378.452V52.7148H376.861V45.1319H375.09C374.934 48.2086 373.623 50.1105 371.671 50.1043C369.62 50.1105 368.284 47.9662 368.284 44.5414ZM369.838 44.5414C369.825 47.0525 370.54 48.5256 371.671 48.5131C372.833 48.5256 373.554 47.0525 373.554 44.5414C373.554 42.0366 372.833 40.5698 371.671 40.5698C370.54 40.5698 369.825 42.0366 369.838 44.5414ZM399.53 37.7106V43.8329H401.699V45.2376H399.53V53.4917H397.864V37.7106H399.53ZM387.397 49.4454V39.3702H391.437V40.7314H389.063V48.047C389.815 48.0221 390.648 47.9475 391.574 47.7548L391.723 49.1347C390.3 49.4268 389.169 49.4454 388.125 49.4454H387.397ZM392.314 49.4454V39.3702H396.528V40.7314H393.961V48.0594C395.117 48.0345 395.981 47.9599 396.944 47.7175L397.093 49.0974C395.819 49.4144 394.781 49.4454 393.091 49.4454H392.314ZM414.267 37.7417V43.9012H416.79V45.2997H414.267V53.5228H412.614V37.7417H414.267ZM402.619 40.5262V39.1588H409.823V44.9517H404.303V48.364C407.007 48.3577 409.002 48.2521 411.302 47.8356L411.457 49.1968C409.002 49.6443 406.877 49.75 403.924 49.7624H402.65V43.6029H408.157V40.5262H402.619ZM424.293 47.1892V48.8612H431.696V47.1892H433.368V53.2928H422.646V47.1892H424.293ZM420.869 46.1885V44.8211H435.226V46.1885H420.869ZM421.639 42.5338C424.691 42.1298 427.19 40.4579 427.19 38.5808V37.9095H428.905V38.5808C428.905 40.4019 431.416 42.1547 434.437 42.5338L433.834 43.8453C431.286 43.4848 429.061 42.279 428.054 40.6008C427.034 42.2852 424.797 43.4848 422.261 43.8453L421.639 42.5338ZM424.293 51.9565H431.696V50.154H424.293V51.9565ZM448.975 37.7417V53.4917H447.297V37.7417H448.975ZM436.035 49.2714C440.224 47.2825 442.262 44.442 442.592 40.7686H436.799V39.4385H444.295C444.282 44.0442 442.325 48.0407 436.917 50.6202L436.035 49.2714ZM453.73 50.7693L452.319 55.6298H450.827L451.766 50.7693H453.73ZM471.949 37.7417V45.7597H470.283V44.2493H466.281V42.9503H470.283V41.2348H466.492C465.51 43.6775 463.136 45.2997 459.642 46.1077L459.058 44.7403C462.843 43.9012 464.882 42.1547 465.149 39.8363H459.891V38.4751H466.995C466.995 38.9848 466.952 39.4696 466.865 39.9296H470.283V37.7417H471.949ZM461.65 47.7548V46.4185H471.949V50.4151H463.341V51.9938H472.421V53.3425H461.681V49.1595H470.277V47.7548H461.65ZM488.252 50.2162V51.6022H473.839V50.2162H480.178V47.4441H475.591V42.4344H484.84V40.2217H475.56V38.8605H486.487V43.7769H477.251V46.0767H486.854V47.4441H481.832V50.2162H488.252ZM507.086 45.1381V46.518H492.71V45.1381H507.086ZM494.407 50.6077C494.407 48.7804 496.458 47.7486 499.87 47.7486C503.264 47.7486 505.302 48.7804 505.315 50.6077C505.302 52.4413 503.264 53.4669 499.87 53.4669C496.458 53.4669 494.407 52.4413 494.407 50.6077ZM494.5 43.7707V38.3073H505.315V39.6685H496.153V42.422H505.408V43.7707H494.5ZM496.103 50.6077C496.091 51.6209 497.465 52.1678 499.87 52.1678C502.251 52.1678 503.637 51.6209 503.649 50.6077C503.637 49.607 502.251 49.0477 499.87 49.0352C497.465 49.0477 496.091 49.607 496.103 50.6077ZM514.893 38.6865C518.2 38.6927 520.717 40.4392 520.717 43.087C520.717 45.7472 518.2 47.4938 514.893 47.4814C511.599 47.4938 509.088 45.7472 509.088 43.087C509.088 40.4392 511.599 38.6927 514.893 38.6865ZM507.726 51.453V50.0732H522.14V51.453H507.726ZM510.691 43.087C510.685 44.9268 512.481 46.114 514.893 46.114C517.304 46.114 519.088 44.9268 519.088 43.087C519.088 41.2659 517.304 40.0352 514.893 40.0477C512.481 40.0352 510.685 41.2659 510.691 43.087ZM537.157 50.2162V51.6022H522.743V50.2162H529.083V47.4441H524.496V42.4344H533.744V40.2217H524.465V38.8605H535.392V43.7769H526.155V46.0767H535.758V47.4441H530.736V50.2162H537.157ZM554.679 37.7541V49.203H553.007V37.7541H554.679ZM541.931 42.7203C541.931 40.4392 543.752 38.8232 546.127 38.8232C548.501 38.8232 550.31 40.4392 550.31 42.7203C550.31 45.0325 548.501 46.6423 546.127 46.636C543.752 46.6423 541.931 45.0325 541.931 42.7203ZM543.566 42.7203C543.553 44.1996 544.66 45.1816 546.127 45.1816C547.569 45.1816 548.675 44.1996 548.675 42.7203C548.675 41.2659 547.569 40.2776 546.127 40.2776C544.66 40.2776 543.553 41.2659 543.566 42.7203ZM544.374 53.1685V48.0407H546.052V51.8011H555.139V53.1685H544.374ZM569.006 37.7541V42.8198H571.287V44.212H569.006V49.5449H567.334V37.7541H569.006ZM556.65 40.9365V39.5939H560.516V37.7479H562.175V39.5939H566.022V40.9365H556.65ZM557.507 44.6782C557.501 42.8695 559.055 41.6948 561.342 41.6948C563.598 41.6948 565.152 42.8695 565.159 44.6782C565.152 46.4558 563.598 47.6181 561.342 47.6181C559.055 47.6181 557.501 46.4558 557.507 44.6782ZM559.024 53.1685V48.6064H560.683V51.8011H569.677V53.1685H559.024ZM559.117 44.6782C559.105 45.6975 560 46.3253 561.342 46.3191C562.672 46.3253 563.567 45.6975 563.58 44.6782C563.567 43.634 562.672 42.9876 561.342 42.9876C560 42.9876 559.105 43.634 559.117 44.6782ZM588.244 51.8011V53.1685H577.311V48.625H578.989V51.8011H588.244ZM575.502 47.4627V46.0953H581.848V43.5718H583.489V46.0953H589.885V47.4627H575.502ZM576.378 43.2673C579.374 42.7949 581.817 40.8992 581.817 38.8046V38.1644H583.508V38.8046C583.508 40.9427 585.925 42.826 588.952 43.2673L588.3 44.5725C585.814 44.1312 583.651 42.8633 582.662 41.0483C581.674 42.857 579.517 44.1499 577.043 44.5725L576.378 43.2673ZM595.939 40.2652C595.939 42.3287 597.393 44.2493 599.742 45.02L598.854 46.3315C597.126 45.7224 595.833 44.4979 595.143 42.9441C594.466 44.7093 593.129 46.0953 591.296 46.7728L590.394 45.4489C592.85 44.5725 594.273 42.4655 594.285 40.1222V38.5622H595.939V40.2652ZM592.52 50.5331C592.52 48.6996 594.534 47.6181 597.803 47.6181C601.048 47.6181 603.037 48.6996 603.037 50.5331C603.037 52.404 601.048 53.4669 597.803 53.4669C594.534 53.4669 592.52 52.404 592.52 50.5331ZM594.192 50.5331C594.18 51.5773 595.528 52.143 597.803 52.1554C600.072 52.143 601.402 51.5773 601.402 50.5331C601.402 49.5325 600.072 48.942 597.803 48.942C595.528 48.942 594.18 49.5325 594.192 50.5331ZM601.222 47.2452V37.7417H602.894V41.7072H605.175V43.0994H602.894V47.2452H601.222ZM618.582 37.7417V53.5228H616.903V37.7417H618.582ZM606.076 44.4482C606.076 41.0732 607.773 38.9289 610.147 38.9227C612.497 38.9289 614.212 41.0732 614.212 44.4482C614.212 47.8419 612.497 49.9862 610.147 49.9862C607.773 49.9862 606.076 47.8419 606.076 44.4482ZM607.686 44.4482C607.686 46.9468 608.693 48.4883 610.147 48.4883C611.602 48.4883 612.596 46.9468 612.596 44.4482C612.596 41.9682 611.602 40.4268 610.147 40.4144C608.693 40.4268 607.686 41.9682 607.686 44.4482ZM629.217 40.7686C629.217 42.4903 630.317 44.2307 632.369 44.9952L631.48 46.2818C630.019 45.7224 628.994 44.6471 628.428 43.3543C627.85 44.8149 626.775 46.0891 625.246 46.7417L624.338 45.4489C626.464 44.5166 627.601 42.5214 627.601 40.7686V38.7238H629.217V40.7686ZM627.222 50.614C627.21 48.8115 629.267 47.7548 632.567 47.7548C635.843 47.7548 637.913 48.8115 637.913 50.614C637.913 52.404 635.843 53.4669 632.567 53.4669C629.267 53.4669 627.21 52.404 627.222 50.614ZM628.882 50.614C628.869 51.6146 630.268 52.1927 632.567 52.1802C634.842 52.1927 636.241 51.6146 636.247 50.614C636.241 49.607 634.842 49.0228 632.567 49.0228C630.268 49.0228 628.869 49.607 628.882 50.614ZM632.853 46.9468V38.0463H634.407V41.8564H636.247V37.7541H637.826V47.4503H636.247V43.23H634.407V46.9468H632.853ZM652.488 37.7417V45.7597H650.816V37.7417H652.488ZM639.672 44.7155C643.606 43.895 645.664 42.1298 645.906 39.8115H640.492V38.4503H647.752C647.739 42.5773 645.042 45.0262 640.275 46.0829L639.672 44.7155ZM642.127 47.7797V46.4558H652.488V50.4151H643.836V52.0249H653.004V53.3425H642.177V49.1782H650.81V47.7797H642.127ZM666.35 39.1278C666.35 41.2224 668.904 43.1865 672.006 43.6029L671.341 44.9641C668.767 44.5539 666.511 43.2113 665.486 41.3591C664.46 43.2238 662.204 44.5539 659.643 44.9641L658.972 43.6029C662.061 43.1865 664.609 41.2472 664.609 39.1278V38.27H666.35V39.1278ZM658.294 47.8916V46.5117H672.652V47.8916H666.256V53.4917H664.615V47.8916H658.294ZM682.623 48.1464C682.623 49.5014 683.3 50.9309 684.724 51.7887C686.165 50.8564 686.88 49.3522 686.88 48.1464V47.3943H688.521V48.1464C688.509 49.7873 689.59 51.366 691.641 52.0435L690.815 53.2617C689.261 52.7272 688.204 51.6768 687.657 50.384C687.16 51.6457 686.215 52.808 684.773 53.4047C683.257 52.8391 682.299 51.7265 681.815 50.4337C681.249 51.6768 680.205 52.721 678.719 53.2617L677.886 52.0435C679.907 51.3101 681 49.6754 681.013 48.1464V47.3943H682.623V48.1464ZM677.482 42.3474C677.482 40.1471 679.26 38.6305 681.678 38.6305C684.09 38.6305 685.861 40.1471 685.861 42.3474C685.861 44.529 684.09 46.0456 681.678 46.0456C679.26 46.0456 677.482 44.529 677.482 42.3474ZM679.117 42.3474C679.105 43.721 680.18 44.6533 681.678 44.6595C683.157 44.6533 684.226 43.721 684.226 42.3474C684.226 40.9675 683.157 40.0352 681.678 40.0477C680.18 40.0352 679.105 40.9675 679.117 42.3474ZM688.558 46.7169V37.7541H690.23V46.7169H688.558ZM699.349 38.6865C702.655 38.6927 705.172 40.4392 705.172 43.087C705.172 45.7472 702.655 47.4938 699.349 47.4814C696.054 47.4938 693.543 45.7472 693.543 43.087C693.543 40.4392 696.054 38.6927 699.349 38.6865ZM692.182 51.453V50.0732H706.596V51.453H692.182ZM695.147 43.087C695.141 44.9268 696.937 46.114 699.349 46.114C701.76 46.114 703.544 44.9268 703.544 43.087C703.544 41.2659 701.76 40.0352 699.349 40.0477C696.937 40.0352 695.141 41.2659 695.147 43.087ZM715.117 39.2521V41.4523H718.679V37.7417H720.332V53.5228H718.679V47.1209H715.117V49.5573H707.814V39.2521H715.117ZM709.467 48.2272H713.489V40.5635H709.467V48.2272ZM715.117 45.7721H718.679V42.8135H715.117V45.7721ZM725.043 50.7693L723.633 55.6298H722.141L723.079 50.7693H725.043ZM735.611 40.4765C735.599 42.4468 737.003 44.2555 739.428 45.02L738.62 46.3439C736.811 45.7535 735.481 44.5601 734.778 43.0497C734.095 44.7155 732.721 46.0269 730.838 46.6733L729.986 45.3494C732.46 44.5352 733.921 42.6022 733.933 40.4703V40.1844H730.477V38.8294H738.999V40.1844H735.611V40.4765ZM731.658 52.1492C734.337 51.7638 736.332 50.4523 736.612 48.9358H732.292V47.6057H742.759V48.9358H738.433C738.719 50.4213 740.751 51.7638 743.399 52.1554L742.784 53.4482C740.391 53.0753 738.427 51.9751 737.519 50.4772C736.618 51.9814 734.66 53.0628 732.274 53.4171L731.658 52.1492ZM740.838 46.8039V37.7417H742.51V41.4834H744.791V42.857H742.51V46.8039H740.838ZM759.51 45.9648V47.3011H745.152V45.9648H759.51ZM746.687 41.4213C746.687 39.4448 748.894 38.2576 752.319 38.27C755.731 38.2576 757.937 39.4448 757.937 41.4213C757.937 43.4102 755.731 44.6098 752.319 44.6098C748.894 44.6098 746.687 43.4102 746.687 41.4213ZM746.961 53.1685V48.5815H748.639V51.8011H757.894V53.1685H746.961ZM748.421 41.4213C748.409 42.5836 749.907 43.2486 752.319 43.2486C754.73 43.2486 756.228 42.5836 756.228 41.4213C756.228 40.2901 754.73 39.6064 752.319 39.6064C749.907 39.6064 748.409 40.2901 748.421 41.4213ZM777.511 37.7417V53.4917H775.895V45.3246H773.956V52.7334H772.395V38.1644H773.956V43.9634H775.895V37.7417H777.511ZM763.961 48.9855C767.473 46.9965 768.94 44.3177 769.194 41.1105H764.632V39.7493H770.823C770.811 43.8888 769.437 47.6119 764.931 50.1602L763.961 48.9855ZM792.658 37.7417V53.4917H791.054V37.7417H792.658ZM778.866 48.3453C779.326 48.3453 779.848 48.3453 780.407 48.3329V41.0235H779.189V39.6561H786.418V41.0235H785.199V48.1464C785.734 48.1091 786.25 48.0594 786.722 48.0035L786.834 49.2528C784.391 49.6754 781.122 49.7314 779.059 49.7438L778.866 48.3453ZM781.911 48.308C782.496 48.2894 783.092 48.2707 783.683 48.2396V41.0235H781.911V48.308ZM786.051 46.8287V45.4551H787.996V43.5656H786.051V42.192H787.996V38.1022H789.556V52.6837H787.996V46.8287H786.051ZM803.691 41.7507C803.679 44.6285 805.413 47.5249 807.856 48.6001L806.849 49.9302C805.04 49.0663 803.611 47.2949 802.871 45.1381C802.144 47.4441 800.696 49.3522 798.812 50.2659L797.781 48.8736C800.26 47.7673 802.001 44.759 802.013 41.7507V39.0532H803.691V41.7507ZM809.279 53.5228V37.7417H810.957V53.5228H809.279ZM829.828 37.7417V53.5228H828.15V37.7417H829.828ZM817.323 44.4482C817.323 41.0732 819.02 38.9289 821.394 38.9227C823.744 38.9289 825.459 41.0732 825.459 44.4482C825.459 47.8419 823.744 49.9862 821.394 49.9862C819.02 49.9862 817.323 47.8419 817.323 44.4482ZM818.933 44.4482C818.933 46.9468 819.94 48.4883 821.394 48.4883C822.848 48.4883 823.843 46.9468 823.843 44.4482C823.843 41.9682 822.848 40.4268 821.394 40.4144C819.94 40.4268 818.933 41.9682 818.933 44.4482ZM846.157 44.2617V45.5919H839.792V46.9717H844.335V50.6637H835.174V52.0497H844.789V53.3425H833.539V49.4517H842.695V48.2459H833.508V46.9717H838.12V45.5919H831.799V44.2617H846.157ZM833.632 43.0994V38.2452H844.304V43.0994H833.632ZM835.267 41.788H842.639V39.5628H835.267V41.788ZM859.856 37.7417V45.8902H858.208V37.7417H859.856ZM846.983 44.6409C849.432 43.8764 850.949 41.9744 850.961 39.942H847.418V38.587H856.114V39.942H852.646C852.646 41.8626 854.15 43.6402 856.599 44.3363L855.791 45.6229C853.932 45.0698 852.54 43.8826 851.831 42.366C851.129 44.038 849.693 45.3494 847.754 45.9586L846.983 44.6409ZM849.519 47.8978V46.6112H859.88V50.5083H851.191V52.0249H860.396V53.3425H849.569V49.2901H858.221V47.8978H849.519ZM874.878 37.7417V53.5228H873.2V37.7417H874.878ZM862.373 44.4482C862.373 41.0732 864.07 38.9289 866.444 38.9227C868.793 38.9289 870.509 41.0732 870.509 44.4482C870.509 47.8419 868.793 49.9862 866.444 49.9862C864.07 49.9862 862.373 47.8419 862.373 44.4482ZM863.983 44.4482C863.983 46.9468 864.99 48.4883 866.444 48.4883C867.898 48.4883 868.893 46.9468 868.893 44.4482C868.893 41.9682 867.898 40.4268 866.444 40.4144C864.99 40.4268 863.983 41.9682 863.983 44.4482ZM895.092 46.6423V48.0097H891.444V53.4917H889.753V48.0097H885.986V53.4917H884.271V48.0097H880.678V46.6423H895.092ZM882.251 41.8191C882.251 39.6934 884.52 38.3446 887.851 38.3322C891.183 38.3446 893.47 39.6934 893.47 41.8191C893.47 43.9199 891.183 45.25 887.851 45.2376C884.52 45.25 882.251 43.9199 882.251 41.8191ZM883.966 41.8191C883.954 43.1119 885.514 43.9075 887.851 43.9137C890.194 43.9075 891.748 43.1119 891.748 41.8191C891.748 40.4952 890.194 39.6872 887.851 39.6872C885.514 39.6872 883.954 40.4952 883.966 41.8191ZM908.785 37.7417V46.1948H907.113V37.7417H908.785ZM896.037 42.1298C896.037 39.9544 897.815 38.4565 900.232 38.4689C902.644 38.4565 904.415 39.9544 904.415 42.1298C904.415 44.2742 902.644 45.7721 900.232 45.7659C897.815 45.7721 896.037 44.2742 896.037 42.1298ZM897.672 42.1298C897.659 43.4786 898.734 44.386 900.232 44.3923C901.712 44.386 902.781 43.4786 902.781 42.1298C902.781 40.7749 901.712 39.8612 900.232 39.8736C898.734 39.8612 897.659 40.7749 897.672 42.1298ZM898.473 53.2928V46.9593H900.108V48.7244H907.125V46.9593H908.785V53.2928H898.473ZM900.108 51.9316H907.125V50.0421H900.108V51.9316ZM919.904 41.7383V43.0311H916.859V44.4358C918.282 44.3736 919.699 44.2742 921.029 44.125L921.11 45.2749C917.76 45.7783 914.025 45.8715 911.029 45.8715L910.824 44.5601C912.172 44.5601 913.652 44.5477 915.174 44.5041V43.0311H912.253V38.4192H919.737V39.6872H913.969V41.7383H919.904ZM913.266 48.1464V46.8287H923.82V50.6512H914.938V52H924.33V53.3425H913.291V49.4019H922.179V48.1464H913.266ZM922.167 46.1699V37.7541H923.82V46.1699H922.167ZM937.663 39.1278C937.663 41.2224 940.218 43.1865 943.319 43.6029L942.654 44.9641C940.081 44.5539 937.825 43.2113 936.799 41.3591C935.773 43.2238 933.517 44.5539 930.957 44.9641L930.285 43.6029C933.374 43.1865 935.923 41.2472 935.923 39.1278V38.27H937.663V39.1278ZM929.608 47.8916V46.5117H943.965V47.8916H937.57V53.4917H935.929V47.8916H929.608ZM953.936 48.1464C953.936 49.5014 954.614 50.9309 956.037 51.7887C957.479 50.8564 958.194 49.3522 958.194 48.1464V47.3943H959.835V48.1464C959.822 49.7873 960.904 51.366 962.955 52.0435L962.128 53.2617C960.574 52.7272 959.518 51.6768 958.971 50.384C958.473 51.6457 957.529 52.808 956.087 53.4047C954.57 52.8391 953.613 51.7265 953.128 50.4337C952.563 51.6768 951.518 52.721 950.033 53.2617L949.2 52.0435C951.22 51.3101 952.314 49.6754 952.326 48.1464V47.3943H953.936V48.1464ZM948.796 42.3474C948.796 40.1471 950.574 38.6305 952.991 38.6305C955.403 38.6305 957.174 40.1471 957.174 42.3474C957.174 44.529 955.403 46.0456 952.991 46.0456C950.574 46.0456 948.796 44.529 948.796 42.3474ZM950.431 42.3474C950.418 43.721 951.493 44.6533 952.991 44.6595C954.471 44.6533 955.54 43.721 955.54 42.3474C955.54 40.9675 954.471 40.0352 952.991 40.0477C951.493 40.0352 950.418 40.9675 950.431 42.3474ZM959.872 46.7169V37.7541H961.544V46.7169H959.872ZM966.92 47.1892V48.8612H974.323V47.1892H975.995V53.2928H965.273V47.1892H966.92ZM963.496 46.1885V44.8211H977.853V46.1885H963.496ZM964.266 42.5338C967.318 42.1298 969.817 40.4579 969.817 38.5808V37.9095H971.532V38.5808C971.532 40.4019 974.043 42.1547 977.064 42.5338L976.461 43.8453C973.913 43.4848 971.688 42.279 970.681 40.6008C969.661 42.2852 967.424 43.4848 964.888 43.8453L964.266 42.5338ZM966.92 51.9565H974.323V50.154H966.92V51.9565ZM991.577 37.7417V53.4917H989.924V37.7417H991.577ZM979.476 49.489V39.2769H981.117V48.0532C983.422 48.0345 985.84 47.8419 988.376 47.3198L988.594 48.7244C985.809 49.3025 983.279 49.4952 980.793 49.489H979.476ZM1005.8 37.7417V43.8391H1008.32V45.2251H1005.8V53.5228H1004.13V37.7417H1005.8ZM994.194 49.6133V39.2583H1001.56V40.6133H995.86V48.221C998.501 48.2086 1000.48 48.0967 1002.74 47.6865L1002.94 49.1098C1000.48 49.5387 998.383 49.6195 995.462 49.6133H994.194ZM1010.34 52.1181C1009.65 52.1181 1009.07 51.5587 1009.09 50.875C1009.07 50.1913 1009.65 49.6319 1010.34 49.6319C1011.01 49.6319 1011.58 50.1913 1011.58 50.875C1011.58 51.5587 1011.01 52.1181 1010.34 52.1181ZM54.9979 80.1602V81.5401H40.5843V80.1602H46.924V76.9282H42.2251V68.817H43.8971V71.5331H51.6291V68.817H53.2887V76.9282H48.5773V80.1602H54.9979ZM43.8971 75.5732H51.6291V72.8757H43.8971V75.5732ZM67.8702 67.7417V73.8391H70.3937V75.2251H67.8702V83.5228H66.1983V67.7417H67.8702ZM56.266 79.6133V69.2583H63.6313V70.6133H57.9317V78.221C60.5733 78.2086 62.556 78.0967 64.8122 77.6865L65.0111 79.1098C62.5498 79.5387 60.4552 79.6195 57.5339 79.6133H56.266ZM86.8471 67.7355V72.4406H89.1281V73.8329H86.8471V79.3087H85.1751V67.7355H86.8471ZM74.7083 72.739C74.6958 70.4392 76.5232 68.8232 78.9037 68.8232C81.278 68.8232 83.0805 70.4392 83.0929 72.739C83.0805 75.0325 81.278 76.6609 78.9037 76.6609C76.5232 76.6609 74.6958 75.0325 74.7083 72.739ZM76.3429 72.739C76.3305 74.1996 77.4617 75.2003 78.9037 75.2003C80.3581 75.2003 81.4583 74.1996 81.4707 72.739C81.4583 71.2659 80.3581 70.2776 78.9037 70.2776C77.4617 70.2776 76.3305 71.2659 76.3429 72.739ZM76.865 83.1685V78.1029H78.5246V81.8011H87.5183V83.1685H76.865ZM102.616 67.7541V79.2901H100.95V73.3791H97.9293V72.018H100.95V67.7541H102.616ZM89.4949 76.0021C91.919 75.1878 93.4293 73.1119 93.4293 70.9427V70.3211H90.0108V68.9599H98.5136V70.3211H95.1199V70.9427C95.1199 72.9068 96.5433 74.8771 98.9176 75.6727L98.0661 77.0028C96.2884 76.3874 94.9894 75.1195 94.3057 73.5656C93.6096 75.2997 92.2359 76.692 90.3589 77.3633L89.4949 76.0021ZM92.3913 83.1685V78.2645H94.0571V81.8011H103.032V83.1685H92.3913ZM116.88 67.7541V72.8198H119.161V74.212H116.88V79.5449H115.208V67.7541H116.88ZM104.524 70.9365V69.5939H108.39V67.7479H110.05V69.5939H113.897V70.9365H104.524ZM105.382 74.6782C105.376 72.8695 106.929 71.6948 109.217 71.6948C111.473 71.6948 113.027 72.8695 113.033 74.6782C113.027 76.4558 111.473 77.6181 109.217 77.6181C106.929 77.6181 105.376 76.4558 105.382 74.6782ZM106.898 83.1685V78.6064H108.558V81.8011H117.552V83.1685H106.898ZM106.992 74.6782C106.979 75.6975 107.874 76.3253 109.217 76.3191C110.547 76.3253 111.442 75.6975 111.454 74.6782C111.442 73.634 110.547 72.9876 109.217 72.9876C107.874 72.9876 106.979 73.634 106.992 74.6782ZM137.79 80.1602V81.5401H123.377V80.1602H129.716V76.9282H125.017V68.817H126.689V71.5331H134.421V68.817H136.081V76.9282H131.37V80.1602H137.79ZM126.689 75.5732H134.421V72.8757H126.689V75.5732ZM147.157 68.9351V69.8239C147.145 70.8743 147.145 72.4406 146.759 74.4669L145.106 74.3239C145.448 72.5711 145.504 71.3032 145.516 70.3149H139.214V68.9351H147.157ZM138.263 75.828C139.232 75.8218 140.332 75.8156 141.488 75.7907V72.4779H143.142V75.7348C144.832 75.6664 146.567 75.5421 148.151 75.3184L148.251 76.5366C144.963 77.1146 141.203 77.1768 138.418 77.183L138.263 75.828ZM140.656 83.1685V78.5069H142.321V81.8011H151.352V83.1685H140.656ZM149.152 79.576V67.7417H150.849V72.7576H153.018V74.1685H150.849V79.576H149.152ZM160.576 68.0028C164.125 68.0028 166.195 68.9599 166.195 70.7065C166.195 72.4779 164.125 73.4351 160.576 73.4475C157.027 73.4351 154.945 72.4779 154.945 70.7065C154.945 68.9599 157.027 68.0028 160.576 68.0028ZM153.41 75.741V74.4047H167.768V75.741H153.41ZM155.119 78.2023V76.953H165.946V80.6388H156.785V82.0497H166.4V83.3425H155.15V79.4392H164.306V78.2023H155.119ZM156.692 70.7065C156.679 71.6885 158.071 72.192 160.576 72.192C163.1 72.192 164.486 71.6885 164.486 70.7065C164.486 69.7866 163.1 69.2396 160.576 69.2459C158.071 69.2396 156.679 69.7866 156.692 70.7065ZM177.446 68.4689C179.82 68.4565 181.53 69.7866 181.53 71.732C181.53 73.6651 179.82 75.0076 177.446 74.9952C175.078 75.0076 173.375 73.6651 173.381 71.732C173.375 69.7866 175.078 68.4565 177.446 68.4689ZM172.262 76.2134C175.165 76.2134 179.18 76.1512 182.63 75.6416L182.748 76.8847C181.312 77.1519 179.827 77.3198 178.378 77.4254V83.0131H176.706V77.5186C175.177 77.587 173.729 77.5994 172.48 77.6057L172.262 76.2134ZM174.997 71.732C174.985 72.8757 176.016 73.634 177.446 73.6215C178.913 73.634 179.945 72.8757 179.945 71.732C179.945 70.5822 178.913 69.8115 177.446 69.8239C176.016 69.8115 174.985 70.5822 174.997 71.732ZM183.724 83.4979V67.7541H185.365V83.4979H183.724ZM195.073 70.3522V71.701H187.26V70.3522H190.356V68.2079H192.009V70.3522H195.073ZM187.77 76.2693C187.758 74.1499 189.2 72.6457 191.182 72.6457C193.171 72.6457 194.595 74.1499 194.607 76.2693C194.595 78.4199 193.171 79.9302 191.182 79.9302C189.2 79.9302 187.758 78.4199 187.77 76.2693ZM189.237 76.2693C189.237 77.6057 190.045 78.5069 191.182 78.4945C192.314 78.5069 193.128 77.6057 193.128 76.2693C193.128 74.9579 192.314 74.0442 191.182 74.038C190.045 74.0442 189.237 74.9579 189.237 76.2693ZM195.807 82.7521V68.096H197.379V74.3052H199.194V67.7417H200.785V83.4917H199.194V75.6664H197.379V82.7521H195.807ZM209.594 77.1892V78.8612H216.996V77.1892H218.668V83.2928H207.946V77.1892H209.594ZM206.169 76.1885V74.8211H220.527V76.1885H206.169ZM206.94 72.5338C209.991 72.1298 212.49 70.4579 212.49 68.5808V67.9095H214.205V68.5808C214.205 70.4019 216.716 72.1547 219.737 72.5338L219.134 73.8453C216.586 73.4848 214.361 72.279 213.354 70.6008C212.335 72.2852 210.097 73.4848 207.561 73.8453L206.94 72.5338ZM209.594 81.9565H216.996V80.154H209.594V81.9565ZM222.975 77.674C222.286 77.674 221.714 77.1146 221.726 76.4309C221.714 75.7472 222.286 75.1878 222.975 75.1878C223.647 75.1878 224.219 75.7472 224.219 76.4309C224.219 77.1146 223.647 77.674 222.975 77.674ZM239.749 76.0456V77.4068H225.392V76.0456H231.731V74.5228C228.785 74.3425 226.927 73.1927 226.927 71.3467C226.927 69.395 229.133 68.1954 232.558 68.1892C235.97 68.1954 238.177 69.395 238.177 71.3467C238.177 73.1927 236.325 74.3425 233.391 74.5228V76.0456H239.749ZM227.2 83.1685V78.5815H228.878V81.8011H238.133V83.1685H227.2ZM228.661 71.3467C228.648 72.5338 230.146 73.1865 232.558 73.1927C234.97 73.1865 236.467 72.5338 236.467 71.3467C236.467 70.2217 234.97 69.5318 232.558 69.5318C230.146 69.5318 228.648 70.2217 228.661 71.3467ZM253.162 75.0138V76.3501H248.401V80.1851H254.822V81.5649H240.408V80.1851H246.748V76.3501H242.198V68.9662H253.026V70.3149H243.864V75.0138H253.162ZM273.693 80.154V81.5276H259.279V80.154H265.638V76.4247H267.31V80.154H273.693ZM259.944 75.7099C262.872 75.2127 265.588 73.0249 265.588 70.6195V70.4765H260.473V69.0905H272.444V70.4765H267.328V70.6195C267.328 73.0249 270.057 75.1692 273.059 75.6354L272.382 76.953C269.839 76.4744 267.496 75.0014 266.471 72.9316C265.451 75.0262 263.127 76.5366 260.622 77.0276L259.944 75.7099ZM279.884 70.1222C279.884 71.8999 281.319 73.6837 283.65 74.3985L282.861 75.7162C281.071 75.1568 279.747 73.9883 279.057 72.5401C278.355 74.1436 276.962 75.4675 275.116 76.0767L274.284 74.7652C276.67 73.9634 278.212 72.0242 278.212 70.0974V69.855H274.781V68.4938H283.284V69.855H279.884V70.1222ZM277.112 77.9102V76.5615H287.411V80.5021H278.802V82.0062H287.97V83.3239H277.143V79.2465H285.757V77.9102H277.112ZM282.811 72.5214V71.1664H285.757V67.7417H287.411V75.8467H285.757V72.5214H282.811ZM306.257 67.7417V83.4917H304.579V67.7417H306.257ZM293.316 79.2714C297.506 77.2825 299.544 74.442 299.874 70.7686H294.081V69.4385H301.577C301.564 74.0442 299.606 78.0407 294.199 80.6202L293.316 79.2714ZM320.913 71.9931V73.3481H310.098V68.0338H311.751V71.9931H320.913ZM308.184 76.3936V75.0262H322.56V76.3936H308.184ZM309.881 80.5456C309.881 78.7058 311.932 77.6678 315.344 77.6678C318.738 77.6678 320.776 78.7058 320.789 80.5456C320.776 82.3916 318.738 83.4233 315.344 83.4233C311.932 83.4233 309.881 82.3916 309.881 80.5456ZM311.577 80.5456C311.565 81.5525 312.939 82.1367 315.344 82.1305C317.725 82.1367 319.111 81.5525 319.123 80.5456C319.111 79.5262 317.725 78.9855 315.344 78.9793C312.939 78.9855 311.565 79.5262 311.577 80.5456ZM328.794 70.1098C328.782 72.3039 330.211 74.2742 332.598 75.0511L331.691 76.3564C329.957 75.7286 328.682 74.5166 327.999 72.9378C327.315 74.7403 325.941 76.145 324.033 76.8349L323.138 75.4924C325.656 74.6347 327.116 72.5401 327.129 70.1782V68.6181H328.794V70.1098ZM325.73 80.4896C325.718 78.5815 327.744 77.4751 331.051 77.4751C334.351 77.4751 336.371 78.5815 336.377 80.4896C336.371 82.3916 334.351 83.4669 331.051 83.4669C327.744 83.4669 325.718 82.3916 325.73 80.4896ZM327.383 80.4896C327.371 81.5401 328.745 82.1492 331.051 82.1492C333.35 82.1492 334.718 81.5401 334.724 80.4896C334.718 79.4019 333.35 78.7866 331.051 78.7866C328.745 78.7866 327.371 79.4019 327.383 80.4896ZM331.343 72.3225V70.9489H334.662V67.7417H336.328V77.0401H334.662V72.3225H331.343ZM356.46 76.6423V78.0097H352.812V83.4917H351.121V78.0097H347.355V83.4917H345.639V78.0097H342.047V76.6423H356.46ZM343.619 71.8191C343.619 69.6934 345.888 68.3446 349.219 68.3322C352.551 68.3446 354.838 69.6934 354.838 71.8191C354.838 73.9199 352.551 75.25 349.219 75.2376C345.888 75.25 343.619 73.9199 343.619 71.8191ZM345.335 71.8191C345.322 73.1119 346.882 73.9075 349.219 73.9137C351.563 73.9075 353.116 73.1119 353.116 71.8191C353.116 70.4952 351.563 69.6872 349.219 69.6872C346.882 69.6872 345.322 70.4952 345.335 71.8191ZM369.65 68.3757V69.364C369.637 70.3522 369.637 71.5704 369.351 73.1119L367.698 72.9627C367.953 71.614 367.978 70.6008 367.984 69.7058H358.779V68.3757H369.65ZM357.107 75.2314V73.9075H362.85V71.3094H364.491V73.9075H371.427V75.2314H357.107ZM358.773 77.8854V76.5366H369.687V80.4399H360.457V82.0062H370.091V83.3301H358.791V79.2714H368.034V77.8854H358.773ZM384.48 67.7417V71.8253H386.761V73.2424H384.48V77.2327H382.808V67.7417H384.48ZM372.124 70.6816V69.3329H375.99V67.6298H377.649V69.3329H381.496V70.6816H372.124ZM372.981 74.1809C372.975 72.4965 374.516 71.3653 376.816 71.3653C379.085 71.3653 380.626 72.4965 380.633 74.1809C380.626 75.884 379.085 76.9965 376.816 77.0028C374.516 76.9965 372.975 75.884 372.981 74.1809ZM374.411 83.2928V78.0594H384.48V83.2928H374.411ZM374.591 74.1809C374.579 75.1506 375.474 75.7348 376.816 75.741C378.146 75.7348 379.041 75.1506 379.054 74.1809C379.041 73.2362 378.146 72.6395 376.816 72.6395C375.474 72.6395 374.579 73.2362 374.591 74.1809ZM376.052 81.9378H382.827V79.3895H376.052V81.9378ZM394.288 68.0028C397.837 68.0028 399.907 68.9599 399.907 70.7065C399.907 72.4779 397.837 73.4351 394.288 73.4475C390.739 73.4351 388.657 72.4779 388.657 70.7065C388.657 68.9599 390.739 68.0028 394.288 68.0028ZM387.122 75.741V74.4047H401.479V75.741H387.122ZM388.831 78.2023V76.953H399.658V80.6388H390.497V82.0497H400.112V83.3425H388.862V79.4392H398.017V78.2023H388.831ZM390.403 70.7065C390.391 71.6885 391.783 72.192 394.288 72.192C396.811 72.192 398.197 71.6885 398.197 70.7065C398.197 69.7866 396.811 69.2396 394.288 69.2459C391.783 69.2396 390.391 69.7866 390.403 70.7065ZM420.35 77.2327V78.6126H413.98V83.5166H412.339V78.6126H405.993V77.2327H420.35ZM406.832 74.8149C409.821 74.4358 412.227 72.7638 412.332 70.9924H407.348V69.6499H412.339V67.7417H413.98V69.6499H418.983V70.9924H414.004C414.098 72.7514 416.478 74.4358 419.48 74.8149L418.871 76.145C416.341 75.797 414.191 74.6098 413.172 73C412.146 74.6285 409.977 75.7907 407.441 76.145L406.832 74.8149ZM426.529 71.4834C426.529 73.4724 428.008 75.2997 430.426 76.0518L429.612 77.3695C427.803 76.8039 426.442 75.6105 425.727 74.0753C425.037 75.7224 423.676 77.009 421.824 77.6305L421.003 76.3253C423.409 75.5483 424.869 73.6091 424.869 71.4834V71.1105H421.444V69.768H424.869V67.8412H426.554V69.768H429.947V71.1105H426.529V71.4834ZM423.912 83.1685V78.451H425.578V81.8011H434.553V83.1685H423.912ZM429.413 73.8826V72.5214H432.471V67.7541H434.136V79.489H432.471V73.8826H429.413ZM448.78 75.2189V76.5801H437.816V69.1588H448.643V70.5262H439.463V75.2189H448.78ZM436.026 81.4157V80.0297H450.44V81.4157H436.026ZM464.108 67.7417V83.5228H462.454V67.7417H464.108ZM451.913 70.5262V69.1588H459.291V74.9206H453.647V78.364C456.195 78.3515 458.427 78.2334 461.062 77.7983L461.217 79.1782C458.427 79.6381 456.052 79.7438 453.28 79.7438H451.931V73.578H457.6V70.5262H451.913ZM473.978 69.2521V71.4523H477.539V67.7417H479.193V83.5228H477.539V77.1209H473.978V79.5573H466.675V69.2521H473.978ZM468.328 78.2272H472.349V70.5635H468.328V78.2272ZM473.978 75.7721H477.539V72.8135H473.978V75.7721ZM483.904 80.7693L482.493 85.6298H481.001L481.94 80.7693H483.904ZM502.483 67.7417V83.4917H500.867V75.3246H498.928V82.7334H497.368V68.1644H498.928V73.9634H500.867V67.7417H502.483ZM488.934 78.9855C492.445 76.9965 493.912 74.3177 494.167 71.1105H489.605V69.7493H495.796C495.783 73.8888 494.41 77.6119 489.903 80.1602L488.934 78.9855ZM517.077 67.7541V79.203H515.405V67.7541H517.077ZM504.33 72.7203C504.33 70.4392 506.151 68.8232 508.525 68.8232C510.899 68.8232 512.708 70.4392 512.708 72.7203C512.708 75.0325 510.899 76.6423 508.525 76.636C506.151 76.6423 504.33 75.0325 504.33 72.7203ZM505.964 72.7203C505.952 74.1996 507.058 75.1816 508.525 75.1816C509.967 75.1816 511.073 74.1996 511.073 72.7203C511.073 71.2659 509.967 70.2776 508.525 70.2776C507.058 70.2776 505.952 71.2659 505.964 72.7203ZM506.772 83.1685V78.0407H508.45V81.8011H517.537V83.1685H506.772ZM524.66 70.5449C524.66 72.5276 526.084 74.4731 528.458 75.2811L527.607 76.5801C525.835 75.9772 524.53 74.7155 523.846 73.1616C523.156 74.8895 521.776 76.2818 519.899 76.9406L519.035 75.6167C521.459 74.7901 522.97 72.6892 522.97 70.5573V70.1098H519.551V68.761H528.054V70.1098H524.66V70.5449ZM521.478 79.3025V77.9475H532.156V83.4917H530.49V79.3025H521.478ZM527.569 73.1305V71.7507H530.49V67.7417H532.156V77.1581H530.49V73.1305H527.569ZM541.212 68.6865C544.519 68.6927 547.036 70.4392 547.036 73.087C547.036 75.7472 544.519 77.4938 541.212 77.4814C537.918 77.4938 535.407 75.7472 535.407 73.087C535.407 70.4392 537.918 68.6927 541.212 68.6865ZM534.046 81.453V80.0732H548.459V81.453H534.046ZM537.011 73.087C537.004 74.9268 538.801 76.114 541.212 76.114C543.624 76.114 545.408 74.9268 545.408 73.087C545.408 71.2659 543.624 70.0352 541.212 70.0477C538.801 70.0352 537.004 71.2659 537.011 73.087ZM563.476 80.2162V81.6022H549.062V80.2162H555.402V77.4441H550.815V72.4344H560.064V70.2217H550.784V68.8605H561.711V73.7769H552.475V76.0767H562.078V77.4441H557.056V80.2162H563.476ZM582.347 80.1602V81.5401H567.934V80.1602H574.273V76.9282H569.575V68.817H571.246V71.5331H578.979V68.817H580.638V76.9282H575.927V80.1602H582.347ZM571.246 75.5732H578.979V72.8757H571.246V75.5732ZM591.714 68.9351V69.8239C591.702 70.8743 591.702 72.4406 591.316 74.4669L589.663 74.3239C590.005 72.5711 590.061 71.3032 590.073 70.3149H583.771V68.9351H591.714ZM582.82 75.828C583.789 75.8218 584.89 75.8156 586.046 75.7907V72.4779H587.699V75.7348C589.39 75.6664 591.124 75.5421 592.709 75.3184L592.808 76.5366C589.52 77.1146 585.76 77.1768 582.975 77.183L582.82 75.828ZM585.213 83.1685V78.5069H586.878V81.8011H595.91V83.1685H585.213ZM593.709 79.576V67.7417H595.406V72.7576H597.575V74.1685H595.406V79.576H593.709ZM611.013 67.7417V83.5228H609.335V67.7417H611.013ZM598.508 74.4482C598.508 71.0732 600.204 68.9289 602.579 68.9227C604.928 68.9289 606.644 71.0732 606.644 74.4482C606.644 77.8419 604.928 79.9862 602.579 79.9862C600.204 79.9862 598.508 77.8419 598.508 74.4482ZM600.117 74.4482C600.117 76.9468 601.124 78.4883 602.579 78.4883C604.033 78.4883 605.028 76.9468 605.028 74.4482C605.028 71.9682 604.033 70.4268 602.579 70.4144C601.124 70.4268 600.117 71.9682 600.117 74.4482ZM621.108 68.9227C622.544 68.9289 623.719 69.7431 624.415 71.1664H628.318V67.7417H629.971V83.5228H628.318V77.4814H624.533C623.862 79.0663 622.631 79.9862 621.108 79.9862C618.752 79.9862 617.099 77.8419 617.112 74.4482C617.099 71.0732 618.752 68.9289 621.108 68.9227ZM618.703 74.4482C618.703 76.9468 619.679 78.4883 621.108 78.4883C622.525 78.4883 623.507 76.9468 623.507 74.4482C623.507 71.9682 622.525 70.4268 621.108 70.4144C619.679 70.4268 618.703 71.9682 618.703 74.4482ZM624.887 72.5401C625.018 73.1181 625.086 73.7583 625.086 74.4482C625.086 75.0449 625.03 75.6043 624.937 76.1202H628.318V72.5401H624.887ZM636.982 68.8605C639.475 68.8605 641.259 70.4019 641.271 72.6146C641.259 74.8336 639.475 76.3688 636.982 76.3688C634.502 76.3688 632.681 74.8336 632.694 72.6146C632.681 70.4019 634.502 68.8605 636.982 68.8605ZM631.936 78.7431C634.807 78.7493 638.779 78.7182 642.222 78.221L642.353 79.4392C638.785 80.1167 634.956 80.1354 632.141 80.1354L631.936 78.7431ZM634.341 72.6146C634.328 74.0069 635.453 74.9206 636.982 74.9206C638.511 74.9206 639.636 74.0069 639.643 72.6146C639.636 71.2286 638.511 70.3087 636.982 70.3087C635.453 70.3087 634.328 71.2286 634.341 72.6146ZM643.21 83.5228V67.7417H644.876V83.5228H643.21ZM659.911 67.7417V83.4917H658.239V67.7417H659.911ZM647.101 79.1906C649.532 78.0967 651.148 75.4489 651.154 72.8011V71.7693H647.561V70.4268H651.141V68.0525H652.795V70.4268H656.325V71.7693H652.801V72.8011C652.801 75.3246 654.454 77.8854 656.909 78.9171L655.989 80.2099C654.175 79.4206 652.733 77.7797 651.999 75.797C651.284 77.8978 649.855 79.6443 648.027 80.4772L647.101 79.1906ZM670.118 68.5932C672.499 68.5932 674.251 70.1098 674.251 72.2417C674.251 74.3923 672.499 75.8964 670.118 75.9026C667.744 75.8964 665.966 74.3923 665.979 72.2417C665.966 70.1098 667.744 68.5932 670.118 68.5932ZM667.327 83.0691V77.2203H668.956V81.7017C669.876 81.6519 670.939 81.5214 671.939 81.1858L672.194 82.5035C670.727 83.0069 669.31 83.0691 668.123 83.0691H667.327ZM667.607 72.2417C667.595 73.5905 668.689 74.529 670.118 74.529C671.548 74.529 672.629 73.5905 672.629 72.2417C672.629 70.9116 671.548 69.9793 670.118 69.9793C668.689 69.9793 667.595 70.9116 667.607 72.2417ZM671.641 78.5442V77.2762H674.823V75.9834H676.452V77.2762H679.597V78.5442H671.641ZM672.642 81.2541C672.629 79.8867 673.847 79.0228 675.613 79.0166C677.359 79.0228 678.584 79.8867 678.596 81.2541C678.584 82.6153 677.359 83.4669 675.613 83.4669C673.847 83.4669 672.629 82.6153 672.642 81.2541ZM674.127 81.2541C674.127 81.9006 674.749 82.2921 675.613 82.2921C676.47 82.2921 677.086 81.9006 677.092 81.2541C677.086 80.614 676.47 80.2099 675.613 80.1975C674.749 80.2099 674.127 80.614 674.127 81.2541ZM676.446 75.5794V67.7417H678.118V71.1975H680.399V72.5836H678.118V75.5794H676.446ZM687.926 68.0028C691.475 68.0028 693.544 68.9599 693.544 70.7065C693.544 72.4779 691.475 73.4351 687.926 73.4475C684.377 73.4351 682.294 72.4779 682.294 70.7065C682.294 68.9599 684.377 68.0028 687.926 68.0028ZM680.759 75.741V74.4047H695.117V75.741H680.759ZM682.468 78.2023V76.953H693.296V80.6388H684.134V82.0497H693.75V83.3425H682.5V79.4392H691.655V78.2023H682.468ZM684.041 70.7065C684.029 71.6885 685.421 72.192 687.926 72.192C690.449 72.192 691.835 71.6885 691.835 70.7065C691.835 69.7866 690.449 69.2396 687.926 69.2459C685.421 69.2396 684.029 69.7866 684.041 70.7065ZM712.757 67.7541V77.0898H711.092V75.1568H707.12V73.7894H711.092V71.875H707.282C706.262 74.4047 703.9 76.1948 700.488 77.1768L699.817 75.8591C703.559 74.7963 705.728 72.7887 706.02 70.2528H700.631V68.8854H707.835C707.835 69.4696 707.779 70.0228 707.673 70.5511H711.092V67.7541H712.757ZM702.259 80.328C702.259 78.4199 704.342 77.2576 707.574 77.2576C710.762 77.2576 712.851 78.4199 712.857 80.328C712.851 82.2424 710.762 83.4171 707.574 83.4171C704.342 83.4171 702.259 82.2424 702.259 80.328ZM703.919 80.328C703.919 81.4406 705.324 82.0808 707.574 82.0808C709.78 82.0808 711.185 81.4406 711.191 80.328C711.185 79.2093 709.78 78.5691 707.574 78.5753C705.324 78.5691 703.919 79.2093 703.919 80.328ZM729.036 76.692V78.078H722.609V83.4979H720.968V78.078H714.622V76.692H729.036ZM716.195 71.8377C716.195 69.6934 718.463 68.3446 721.795 68.3322C725.126 68.3446 727.414 69.6934 727.414 71.8377C727.414 73.9572 725.126 75.2997 721.795 75.2997C718.463 75.2997 716.195 73.9572 716.195 71.8377ZM717.91 71.8377C717.898 73.1492 719.458 73.9634 721.795 73.9634C724.138 73.9634 725.692 73.1492 725.692 71.8377C725.692 70.5138 724.138 69.6872 721.795 69.6872C719.458 69.6872 717.898 70.5138 717.91 71.8377ZM739.013 70.6506C739.013 72.6457 740.405 74.4731 742.798 75.2376L742.002 76.5428C740.206 75.9648 738.901 74.7776 738.211 73.2797C737.527 75.0014 736.141 76.3688 734.245 77.0276L733.394 75.6975C735.849 74.8833 737.334 72.8446 737.347 70.663V70.2279H733.879V68.8729H742.412V70.2279H739.013V70.6506ZM735.52 80.5083C735.52 78.6561 737.527 77.5808 740.803 77.5808C744.053 77.5808 746.036 78.6561 746.036 80.5083C746.036 82.3791 744.053 83.4669 740.803 83.4669C737.527 83.4669 735.52 82.3791 735.52 80.5083ZM737.191 80.5083C737.179 81.5587 738.528 82.1492 740.803 82.1492C743.071 82.1492 744.401 81.5587 744.401 80.5083C744.401 79.4765 743.071 78.8985 740.803 78.9047C738.528 78.8985 737.179 79.4765 737.191 80.5083ZM744.221 77.1954V67.7417H745.893V71.6388H748.174V73.0186H745.893V77.1954H744.221ZM754.464 69.4137V75.0635H750.642V78.3702C752.183 78.3515 753.687 78.2583 755.484 77.9662L755.614 79.3336C753.544 79.6816 751.897 79.75 750.051 79.7562H749.032V73.7272H752.848V70.7624H749.007V69.4137H754.464ZM755.297 77.0525V75.6913H757.274V73.1367H755.297V71.7818H757.274V68.0401H758.859V82.6837H757.274V77.0525H755.297ZM760.456 83.4917V67.7417H762.041V83.4917H760.456ZM46.2652 101.751C46.259 104.635 47.875 107.506 50.2804 108.588L49.2735 109.93C47.4772 109.029 46.1222 107.251 45.4323 105.095C44.7362 107.363 43.3626 109.278 41.5539 110.216L40.4972 108.874C42.9337 107.705 44.5622 104.666 44.5746 101.751V99.0532H46.2652V101.751ZM48.5525 104.33V102.975H52.0642V97.7417H53.7175V113.523H52.0642V104.33H48.5525ZM68.6472 97.7417V113.523H66.969V97.7417H68.6472ZM56.4711 109.756V99.0532H58.1368V103.099H62.3882V99.0532H64.0353V109.756H56.4711ZM58.1368 108.376H62.3882V104.423H58.1368V108.376ZM78.6168 99.9793C78.6168 102.54 81.3454 104.97 84.3662 105.511L83.6079 106.903C81.0844 106.356 78.7722 104.709 77.7467 102.497C76.7087 104.697 74.4028 106.35 71.8793 106.903L71.1334 105.511C74.1293 104.952 76.8454 102.54 76.8579 99.9793V98.7921H78.6168V99.9793ZM70.6175 111.422V110.036H85.0312V111.422H70.6175ZM90.7619 98.8605C93.2543 98.8605 95.0382 100.402 95.0506 102.615C95.0382 104.834 93.2543 106.369 90.7619 106.369C88.282 106.369 86.4608 104.834 86.4733 102.615C86.4608 100.402 88.282 98.8605 90.7619 98.8605ZM85.715 108.743C88.5865 108.749 92.5582 108.718 96.0016 108.221L96.1321 109.439C92.5644 110.117 88.7357 110.135 85.9201 110.135L85.715 108.743ZM88.1204 102.615C88.1079 104.007 89.2329 104.921 90.7619 104.921C92.2909 104.921 93.4159 104.007 93.4222 102.615C93.4159 101.229 92.2909 100.309 90.7619 100.309C89.2329 100.309 88.1079 101.229 88.1204 102.615ZM96.9898 113.523V97.7417H98.6556V113.523H96.9898ZM118.863 105.542V106.897H104.505V105.542H110.845V104.007H106.382V98.1644H108.042V99.8052H115.339V98.1644H116.998V104.007H112.505V105.542H118.863ZM106.215 110.701C106.215 108.923 108.241 107.923 111.666 107.923C115.059 107.923 117.104 108.923 117.117 110.701C117.104 112.485 115.059 113.467 111.666 113.467C108.241 113.467 106.215 112.485 106.215 110.701ZM107.893 110.701C107.893 111.664 109.26 112.193 111.666 112.18C114.046 112.193 115.42 111.664 115.42 110.701C115.42 109.725 114.046 109.215 111.666 109.209C109.26 109.215 107.893 109.725 107.893 110.701ZM108.042 102.689H115.339V101.092H108.042V102.689ZM131.897 97.7355V102.441H134.178V103.833H131.897V109.309H130.225V97.7355H131.897ZM119.758 102.739C119.746 100.439 121.573 98.8232 123.954 98.8232C126.328 98.8232 128.13 100.439 128.143 102.739C128.13 105.032 126.328 106.661 123.954 106.661C121.573 106.661 119.746 105.032 119.758 102.739ZM121.393 102.739C121.38 104.2 122.512 105.2 123.954 105.2C125.408 105.2 126.508 104.2 126.521 102.739C126.508 101.266 125.408 100.278 123.954 100.278C122.512 100.278 121.38 101.266 121.393 102.739ZM121.915 113.169V108.103H123.574V111.801H132.568V113.169H121.915ZM146.932 97.7417V101.726H149.195V103.106H146.932V107.046H145.242V97.7417H146.932ZM135.204 105.903V98.8978H142.227V100.259H136.851V104.548C139.959 104.535 141.705 104.436 143.694 104.026L143.856 105.387C141.742 105.822 139.859 105.903 136.453 105.903H135.204ZM136.54 110.396C136.54 108.476 138.579 107.345 141.823 107.338C145.043 107.345 147.057 108.476 147.057 110.396C147.057 112.342 145.043 113.467 141.823 113.467C138.579 113.467 136.54 112.342 136.54 110.396ZM138.181 110.396C138.181 111.49 139.548 112.131 141.823 112.131C144.061 112.131 145.441 111.49 145.441 110.396C145.441 109.309 144.061 108.681 141.823 108.693C139.548 108.681 138.181 109.309 138.181 110.396ZM162.602 97.7417V113.523H160.923V97.7417H162.602ZM150.096 104.448C150.096 101.073 151.793 98.9289 154.167 98.9227C156.517 98.9289 158.232 101.073 158.232 104.448C158.232 107.842 156.517 109.986 154.167 109.986C151.793 109.986 150.096 107.842 150.096 104.448ZM151.706 104.448C151.706 106.947 152.713 108.488 154.167 108.488C155.622 108.488 156.616 106.947 156.616 104.448C156.616 101.968 155.622 100.427 154.167 100.414C152.713 100.427 151.706 101.968 151.706 104.448ZM179.284 103.926V105.306H176.841V113.473H175.169V97.7417H176.841V103.926H179.284ZM165.169 109.526V99.2769H166.828V108.14C169.028 108.122 171.316 107.935 173.808 107.425L174.001 108.836C171.309 109.371 168.83 109.526 166.461 109.526H165.169ZM191.498 99.1278C191.498 101.222 194.053 103.186 197.154 103.603L196.489 104.964C193.916 104.554 191.66 103.211 190.634 101.359C189.609 103.224 187.353 104.554 184.792 104.964L184.121 103.603C187.21 103.186 189.758 101.247 189.758 99.1278V98.27H191.498V99.1278ZM183.443 107.892V106.512H197.801V107.892H191.405V113.492H189.764V107.892H183.443ZM210.984 98.3943V103.796H206.459V105.629H212.817V106.978H198.46V105.629H204.8V103.796H200.287V98.3943H210.984ZM200.051 109.794V108.47H211.052V113.492H209.374V109.794H200.051ZM201.922 102.459H209.337V99.712H201.922V102.459ZM218.971 100.651C218.971 102.646 220.363 104.473 222.756 105.238L221.96 106.543C220.164 105.965 218.859 104.778 218.169 103.28C217.485 105.001 216.099 106.369 214.204 107.028L213.352 105.698C215.807 104.883 217.293 102.845 217.305 100.663V100.228H213.837V98.8729H222.371V100.228H218.971V100.651ZM215.478 110.508C215.478 108.656 217.485 107.581 220.761 107.581C224.012 107.581 225.994 108.656 225.994 110.508C225.994 112.379 224.012 113.467 220.761 113.467C217.485 113.467 215.478 112.379 215.478 110.508ZM217.15 110.508C217.137 111.559 218.486 112.149 220.761 112.149C223.03 112.149 224.36 111.559 224.36 110.508C224.36 109.477 223.03 108.898 220.761 108.905C218.486 108.898 217.137 109.477 217.15 110.508ZM224.179 107.195V97.7417H225.851V101.639H228.132V103.019H225.851V107.195H224.179ZM246.724 105.138V106.518H232.348V105.138H246.724ZM234.044 110.608C234.044 108.78 236.095 107.749 239.508 107.749C242.901 107.749 244.94 108.78 244.953 110.608C244.94 112.441 242.901 113.467 239.508 113.467C236.095 113.467 234.044 112.441 234.044 110.608ZM234.138 103.771V98.3073H244.953V99.6685H235.791V102.422H245.046V103.771H234.138ZM235.741 110.608C235.729 111.621 237.102 112.168 239.508 112.168C241.888 112.168 243.274 111.621 243.287 110.608C243.274 109.607 241.888 109.048 239.508 109.035C237.102 109.048 235.729 109.607 235.741 110.608ZM252.492 98.8605C254.984 98.8605 256.768 100.402 256.781 102.615C256.768 104.834 254.984 106.369 252.492 106.369C250.012 106.369 248.191 104.834 248.203 102.615C248.191 100.402 250.012 98.8605 252.492 98.8605ZM247.445 108.743C250.317 108.749 254.288 108.718 257.732 108.221L257.862 109.439C254.294 110.117 250.466 110.135 247.65 110.135L247.445 108.743ZM249.85 102.615C249.838 104.007 250.963 104.921 252.492 104.921C254.021 104.921 255.146 104.007 255.152 102.615C255.146 101.229 254.021 100.309 252.492 100.309C250.963 100.309 249.838 101.229 249.85 102.615ZM258.72 113.523V97.7417H260.386V113.523H258.72ZM279.362 97.7541V109.29H277.697V103.379H274.676V102.018H277.697V97.7541H279.362ZM266.242 106.002C268.666 105.188 270.176 103.112 270.176 100.943V100.321H266.757V98.9599H275.26V100.321H271.867V100.943C271.867 102.907 273.29 104.877 275.664 105.673L274.813 107.003C273.035 106.387 271.736 105.119 271.052 103.566C270.356 105.3 268.983 106.692 267.106 107.363L266.242 106.002ZM269.138 113.169V108.265H270.804V111.801H279.779V113.169H269.138ZM295.641 105.704V107.065H289.394V110.117H287.741V107.065H281.227V105.704H295.641ZM283.023 113.169V108.625H284.689V111.801H294.043V113.169H283.023ZM283.079 104.075V98.4814H293.776V104.075H283.079ZM284.714 102.758H292.129V99.799H284.714V102.758ZM309.358 97.7417V113.492H307.68V97.7417H309.358ZM296.418 109.271C300.607 107.282 302.646 104.442 302.975 100.769H297.182V99.4385H304.678C304.666 104.044 302.708 108.041 297.3 110.62L296.418 109.271ZM320.049 98.9351V99.8239C320.037 100.874 320.037 102.441 319.651 104.467L317.998 104.324C318.34 102.571 318.396 101.303 318.408 100.315H312.106V98.9351H320.049ZM311.155 105.828C312.124 105.822 313.225 105.816 314.381 105.791V102.478H316.034V105.735C317.725 105.666 319.459 105.542 321.044 105.318L321.143 106.537C317.855 107.115 314.095 107.177 311.31 107.183L311.155 105.828ZM313.548 113.169V108.507H315.213V111.801H324.245V113.169H313.548ZM322.044 109.576V97.7417H323.741V102.758H325.91V104.169H323.741V109.576H322.044ZM335.284 98.8605C337.777 98.8605 339.56 100.402 339.573 102.615C339.56 104.834 337.777 106.369 335.284 106.369C332.804 106.369 330.983 104.834 330.996 102.615C330.983 100.402 332.804 98.8605 335.284 98.8605ZM330.237 108.743C333.109 108.749 337.08 108.718 340.524 108.221L340.654 109.439C337.087 110.117 333.258 110.135 330.442 110.135L330.237 108.743ZM332.643 102.615C332.63 104.007 333.755 104.921 335.284 104.921C336.813 104.921 337.938 104.007 337.944 102.615C337.938 101.229 336.813 100.309 335.284 100.309C333.755 100.309 332.63 101.229 332.643 102.615ZM341.512 113.523V97.7417H343.178V113.523H341.512ZM353.172 98.8046V100.153H347.529V101.956H352.868V103.267H347.529V105.169C350.425 105.163 352.147 105.076 354.142 104.722L354.335 106.064C352.172 106.437 350.326 106.512 347.087 106.506H345.857V98.8046H353.172ZM347.137 109.365V108.016H357.548V113.492H355.876V109.365H347.137ZM355.876 107.282V97.7417H357.548V101.819H359.829V103.23H357.548V107.282H355.876ZM367.356 98.0028C370.905 98.0028 372.975 98.9599 372.975 100.706C372.975 102.478 370.905 103.435 367.356 103.448C363.807 103.435 361.725 102.478 361.725 100.706C361.725 98.9599 363.807 98.0028 367.356 98.0028ZM360.19 105.741V104.405H374.547V105.741H360.19ZM361.899 108.202V106.953H372.726V110.639H363.565V112.05H373.18V113.343H361.93V109.439H371.085V108.202H361.899ZM363.471 100.706C363.459 101.689 364.851 102.192 367.356 102.192C369.88 102.192 371.266 101.689 371.266 100.706C371.266 99.7866 369.88 99.2396 367.356 99.2459C364.851 99.2396 363.459 99.7866 363.471 100.706ZM393.419 107.233V108.613H387.048V113.517H385.407V108.613H379.061V107.233H393.419ZM379.9 104.815C382.89 104.436 385.295 102.764 385.401 100.992H380.416V99.6499H385.407V97.7417H387.048V99.6499H392.051V100.992H387.073C387.166 102.751 389.546 104.436 392.548 104.815L391.939 106.145C389.41 105.797 387.259 104.61 386.24 103C385.214 104.628 383.045 105.791 380.509 106.145L379.9 104.815ZM399.597 101.483C399.597 103.472 401.076 105.3 403.494 106.052L402.68 107.369C400.871 106.804 399.51 105.61 398.795 104.075C398.105 105.722 396.744 107.009 394.892 107.631L394.071 106.325C396.477 105.548 397.937 103.609 397.937 101.483V101.11H394.513V99.768H397.937V97.8412H399.622V99.768H403.015V101.11H399.597V101.483ZM396.98 113.169V108.451H398.646V111.801H407.621V113.169H396.98ZM402.481 103.883V102.521H405.539V97.7541H407.205V109.489H405.539V103.883H402.481ZM421.848 105.219V106.58H410.884V99.1588H421.712V100.526H412.531V105.219H421.848ZM409.094 111.416V110.03H423.508V111.416H409.094ZM437.176 97.7541V106.443H435.504V97.7541H437.176ZM424.906 99.8488V98.5H432.141V102.894H426.566V104.753C429.326 104.74 431.346 104.684 433.739 104.28L433.95 105.642C431.377 106.058 429.232 106.133 426.249 106.139H424.937V101.602H430.488V99.8488H424.906ZM426.827 113.293V107.189H428.499V108.892H435.516V107.189H437.176V113.293H426.827ZM428.499 111.938H435.516V110.204H428.499V111.938ZM452.192 97.7417V113.492H450.539V97.7417H452.192ZM440.091 109.489V99.2769H441.732V108.053C444.038 108.035 446.456 107.842 448.991 107.32L449.209 108.724C446.424 109.302 443.895 109.495 441.409 109.489H440.091ZM466.413 97.7417V103.839H468.937V105.225H466.413V113.523H464.741V97.7417H466.413ZM454.809 109.613V99.2583H462.174V100.613H456.475V108.221C459.116 108.209 461.099 108.097 463.355 107.686L463.554 109.11C461.093 109.539 458.998 109.619 456.077 109.613H454.809ZM470.951 112.118C470.261 112.118 469.689 111.559 469.701 110.875C469.689 110.191 470.261 109.632 470.951 109.632C471.622 109.632 472.194 110.191 472.194 110.875C472.194 111.559 471.622 112.118 470.951 112.118Z" fill="#666666"/>
</svg>
