<svg width="1520" height="305" viewBox="0 0 1520 305" fill="none" xmlns="http://www.w3.org/2000/svg">
<path d="M0 0H1520V289C1520 297.837 1512.84 305 1504 305H16C7.16342 305 0 297.837 0 289V0Z" fill="#FFF6F2"/>
<rect width="1440" height="1" transform="matrix(1 0 0 -1 40 96)" fill="#FFDFC7"/>
<path d="M54.9606 45.4054V46.7417H40.5843V45.4054H46.9551V43.7334H42.3743V38.4689H53.1892V39.7866H44.0276V42.3971H53.2825V43.7334H48.5836V45.4054H54.9606ZM42.2811 50.6326C42.2811 48.8052 44.3322 47.7735 47.7445 47.7735C51.1381 47.7735 53.1768 48.8052 53.1892 50.6326C53.1768 52.4537 51.1381 53.4793 47.7445 53.4917C44.3322 53.4793 42.2811 52.4537 42.2811 50.6326ZM43.9779 50.6326C43.9655 51.6395 45.3391 52.1927 47.7445 52.1802C50.125 52.1927 51.511 51.6395 51.5235 50.6326C51.511 49.6319 50.125 49.0601 47.7445 49.0601C45.3391 49.0601 43.9655 49.6319 43.9779 50.6326ZM69.9586 44.2617V45.5919H63.594V46.9717H68.1375V50.6637H58.9759V52.0497H68.5912V53.3425H57.3412V49.4517H66.4966V48.2459H57.3101V46.9717H61.922V45.5919H55.6009V44.2617H69.9586ZM57.4345 43.0994V38.2452H68.1064V43.0994H57.4345ZM59.0691 41.788H66.4407V39.5628H59.0691V41.788ZM84.9939 45.1381V46.518H70.6175V45.1381H84.9939ZM72.3144 50.6077C72.3144 48.7804 74.3655 47.7486 77.7778 47.7486C81.1714 47.7486 83.2101 48.7804 83.2225 50.6077C83.2101 52.4413 81.1714 53.4669 77.7778 53.4669C74.3655 53.4669 72.3144 52.4413 72.3144 50.6077ZM72.4076 43.7707V38.3073H83.2225V39.6685H74.0609V42.422H83.3157V43.7707H72.4076ZM74.0112 50.6077C73.9988 51.6209 75.3724 52.1678 77.7778 52.1678C80.1583 52.1678 81.5443 51.6209 81.5568 50.6077C81.5443 49.607 80.1583 49.0477 77.7778 49.0352C75.3724 49.0477 73.9988 49.607 74.0112 50.6077ZM100.023 46.3377V47.6989H85.6093V46.3377H91.9988V44.846H87.4615V40.837H96.5423V39.4323H87.418V38.1084H98.2081V42.0739H89.1148V43.5345H98.5313V44.846H93.6397V46.3377H100.023ZM87.2253 50.1354V48.7928H98.2951V53.3674H96.6169V50.1354H87.2253ZM113.697 37.7417V53.5228H112.019V37.7417H113.697ZM101.192 44.4482C101.192 41.0732 102.888 38.9289 105.263 38.9227C107.612 38.9289 109.328 41.0732 109.328 44.4482C109.328 47.8419 107.612 49.9862 105.263 49.9862C102.888 49.9862 101.192 47.8419 101.192 44.4482ZM102.801 44.4482C102.801 46.9468 103.808 48.4883 105.263 48.4883C106.717 48.4883 107.712 46.9468 107.712 44.4482C107.712 41.9682 106.717 40.4268 105.263 40.4144C103.808 40.4268 102.801 41.9682 102.801 44.4482ZM128.901 44.4109V45.7721H125.588V48.6934C127.043 48.6312 128.51 48.538 129.889 48.3826L130.02 49.6133C126.545 50.1291 122.81 50.1789 119.808 50.1789L119.603 48.7928C120.933 48.7928 122.406 48.7866 123.916 48.7493V45.7721H120.746V39.2086H128.833V40.5511H122.394V44.4109H128.901ZM130.878 53.5228V37.7417H132.543V53.5228H130.878ZM138.809 38.9227C140.941 38.9289 142.507 40.7376 142.755 43.6464H146.019V37.7417H147.672V53.5228H146.019V45.0076H142.768C142.594 48.078 141.003 49.9862 138.809 49.9862C136.453 49.9862 134.8 47.8419 134.812 44.4482C134.8 41.0732 136.453 38.9289 138.809 38.9227ZM136.403 44.4482C136.403 46.9468 137.379 48.4883 138.809 48.4883C140.226 48.4883 141.208 46.9468 141.208 44.4482C141.208 41.9682 140.226 40.4268 138.809 40.4144C137.379 40.4268 136.403 41.9682 136.403 44.4482ZM158.867 48.1464C158.867 49.5014 159.544 50.9309 160.968 51.7887C162.41 50.8564 163.125 49.3522 163.125 48.1464V47.3943H164.765V48.1464C164.753 49.7873 165.835 51.366 167.886 52.0435L167.059 53.2617C165.505 52.7272 164.448 51.6768 163.902 50.384C163.404 51.6457 162.46 52.808 161.018 53.4047C159.501 52.8391 158.544 51.7265 158.059 50.4337C157.493 51.6768 156.449 52.721 154.964 53.2617L154.131 52.0435C156.151 51.3101 157.245 49.6754 157.257 48.1464V47.3943H158.867V48.1464ZM153.727 42.3474C153.727 40.1471 155.504 38.6305 157.922 38.6305C160.334 38.6305 162.105 40.1471 162.105 42.3474C162.105 44.529 160.334 46.0456 157.922 46.0456C155.504 46.0456 153.727 44.529 153.727 42.3474ZM155.361 42.3474C155.349 43.721 156.424 44.6533 157.922 44.6595C159.402 44.6533 160.471 43.721 160.471 42.3474C160.471 40.9675 159.402 40.0352 157.922 40.0477C156.424 40.0352 155.349 40.9675 155.361 42.3474ZM164.803 46.7169V37.7541H166.475V46.7169H164.803ZM181.174 42.3536V43.6899H170.322V38.3135H171.975V42.3536H181.174ZM168.402 47.009V45.6727H182.815V47.009H168.402ZM170.204 53.1188V48.5069H171.864V51.7576H181.274V53.1188H170.204ZM199.673 37.7541V42.4033H201.954V43.8018H199.673V49.3336H198.001V37.7541H199.673ZM187.901 46.7231V38.8791H189.548V41.4088H193.675V38.8791H195.328V46.7231H187.901ZM189.548 45.393H193.675V42.7141H189.548V45.393ZM189.691 53.1685V48.1837H191.35V51.8011H200.344V53.1685H189.691ZM215.429 37.7417V53.5228H213.776V46.9344H210.693V45.5421H213.776V42.6333H210.78V41.2535H213.776V37.7417H215.429ZM202.849 40.489V39.134H209.829V44.8833H204.552V48.5007C206.777 48.4883 208.66 48.395 210.91 48.0532L211.053 49.433C208.586 49.8184 206.572 49.893 204.086 49.893H202.899V43.5594H208.194V40.489H202.849ZM231.707 45.4054V46.7417H217.331V45.4054H223.702V43.7334H219.121V38.4689H229.936V39.7866H220.774V42.3971H230.029V43.7334H225.33V45.4054H231.707ZM219.028 50.6326C219.028 48.8052 221.079 47.7735 224.491 47.7735C227.885 47.7735 229.923 48.8052 229.936 50.6326C229.923 52.4537 227.885 53.4793 224.491 53.4917C221.079 53.4793 219.028 52.4537 219.028 50.6326ZM220.725 50.6326C220.712 51.6395 222.086 52.1927 224.491 52.1802C226.872 52.1927 228.258 51.6395 228.27 50.6326C228.258 49.6319 226.872 49.0601 224.491 49.0601C222.086 49.0601 220.712 49.6319 220.725 50.6326ZM246.705 44.2617V45.5919H240.341V46.9717H244.884V50.6637H235.723V52.0497H245.338V53.3425H234.088V49.4517H243.243V48.2459H234.057V46.9717H238.669V45.5919H232.348V44.2617H246.705ZM234.181 43.0994V38.2452H244.853V43.0994H234.181ZM235.816 41.788H243.187V39.5628H235.816V41.788ZM260.41 37.7417V53.5228H258.732V37.7417H260.41ZM247.905 44.4482C247.905 41.0732 249.602 38.9289 251.976 38.9227C254.326 38.9289 256.041 41.0732 256.041 44.4482C256.041 47.8419 254.326 49.9862 251.976 49.9862C249.602 49.9862 247.905 47.8419 247.905 44.4482ZM249.515 44.4482C249.515 46.9468 250.522 48.4883 251.976 48.4883C253.43 48.4883 254.425 46.9468 254.425 44.4482C254.425 41.9682 253.43 40.4268 251.976 40.4144C250.522 40.4268 249.515 41.9682 249.515 44.4482ZM279.3 38.3633V39.7058H274.527C274.688 41.2721 276.945 42.5898 279.86 42.8943L279.238 44.2182C276.516 43.9012 274.26 42.7452 273.402 41.0608C272.544 42.7452 270.306 43.9012 267.59 44.2182L266.987 42.8943C269.865 42.5898 272.121 41.2659 272.289 39.7058H267.547V38.3633H279.3ZM266.235 46.462V45.1008H280.618V46.462H274.228V48.3453H278.828V53.4917H277.15V49.6941H267.827V48.3453H272.581V46.462H266.235ZM295.61 45.9648V47.3011H281.252V45.9648H295.61ZM282.787 41.4213C282.787 39.4448 284.994 38.2576 288.418 38.27C291.831 38.2576 294.037 39.4448 294.037 41.4213C294.037 43.4102 291.831 44.6098 288.418 44.6098C284.994 44.6098 282.787 43.4102 282.787 41.4213ZM283.061 53.1685V48.5815H284.739V51.8011H293.994V53.1685H283.061ZM284.521 41.4213C284.509 42.5836 286.007 43.2486 288.418 43.2486C290.83 43.2486 292.328 42.5836 292.328 41.4213C292.328 40.2901 290.83 39.6064 288.418 39.6064C286.007 39.6064 284.509 40.2901 284.521 41.4213ZM313.25 37.7541V47.0898H311.584V45.1568H307.613V43.7894H311.584V41.875H307.774C306.755 44.4047 304.393 46.1948 300.981 47.1768L300.31 45.8591C304.051 44.7963 306.221 42.7887 306.513 40.2528H301.124V38.8854H308.328C308.328 39.4696 308.272 40.0228 308.166 40.5511H311.584V37.7541H313.25ZM302.752 50.328C302.752 48.4199 304.834 47.2576 308.067 47.2576C311.255 47.2576 313.343 48.4199 313.35 50.328C313.343 52.2424 311.255 53.4171 308.067 53.4171C304.834 53.4171 302.752 52.2424 302.752 50.328ZM304.412 50.328C304.412 51.4406 305.817 52.0808 308.067 52.0808C310.273 52.0808 311.678 51.4406 311.684 50.328C311.678 49.2093 310.273 48.5691 308.067 48.5753C305.817 48.5691 304.412 49.2093 304.412 50.328ZM329.529 46.692V48.078H323.102V53.4979H321.461V48.078H315.115V46.692H329.529ZM316.687 41.8377C316.687 39.6934 318.956 38.3446 322.288 38.3322C325.619 38.3446 327.906 39.6934 327.906 41.8377C327.906 43.9572 325.619 45.2997 322.288 45.2997C318.956 45.2997 316.687 43.9572 316.687 41.8377ZM318.403 41.8377C318.39 43.1492 319.951 43.9634 322.288 43.9634C324.631 43.9634 326.185 43.1492 326.185 41.8377C326.185 40.5138 324.631 39.6872 322.288 39.6872C319.951 39.6872 318.39 40.5138 318.403 41.8377ZM343.7 37.7417V53.4917H342.096V37.7417H343.7ZM330.33 44.5414C330.33 41.1354 331.667 39.0035 333.718 39.0035C335.632 39.0035 336.931 40.8184 337.13 43.7769H338.908V38.0463H340.499V52.7148H338.908V45.1319H337.136C336.981 48.2086 335.67 50.1105 333.718 50.1043C331.667 50.1105 330.33 47.9662 330.33 44.5414ZM331.884 44.5414C331.872 47.0525 332.587 48.5256 333.718 48.5131C334.88 48.5256 335.601 47.0525 335.601 44.5414C335.601 42.0366 334.88 40.5698 333.718 40.5698C332.587 40.5698 331.872 42.0366 331.884 44.5414ZM357.921 42.3536V43.6899H347.069V38.3135H348.722V42.3536H357.921ZM345.148 47.009V45.6727H359.562V47.009H345.148ZM346.951 53.1188V48.5069H348.61V51.7576H358.02V53.1188H346.951ZM376.314 37.7417V43.8391H378.837V45.2251H376.314V53.5228H374.642V37.7417H376.314ZM364.709 49.6133V39.2583H372.075V40.6133H366.375V48.221C369.017 48.2086 370.999 48.0967 373.256 47.6865L373.454 49.1098C370.993 49.5387 368.899 49.6195 365.977 49.6133H364.709ZM386.227 38.0711C389.683 38.0711 391.846 39.1961 391.846 41.0981C391.846 42.9689 389.683 44.0815 386.227 44.0815C382.784 44.0815 380.596 42.9689 380.596 41.0981C380.596 39.1961 382.784 38.0711 386.227 38.0711ZM379.061 46.6423V45.2935H393.419V46.6423H379.061ZM380.783 53.2928V48.0532H391.666V53.2928H380.783ZM382.33 41.0981C382.318 42.1485 383.803 42.7638 386.227 42.77C388.639 42.7638 390.137 42.1485 390.137 41.0981C390.137 40.0104 388.639 39.3888 386.227 39.395C383.803 39.3888 382.318 40.0104 382.33 41.0981ZM382.43 51.9378H390.044V49.3833H382.43V51.9378ZM399.205 38.8605C401.698 38.8605 403.482 40.4019 403.494 42.6146C403.482 44.8336 401.698 46.3688 399.205 46.3688C396.725 46.3688 394.904 44.8336 394.917 42.6146C394.904 40.4019 396.725 38.8605 399.205 38.8605ZM394.158 48.7431C397.03 48.7493 401.002 48.7182 404.445 48.221L404.575 49.4392C401.008 50.1167 397.179 50.1354 394.363 50.1354L394.158 48.7431ZM396.564 42.6146C396.551 44.0069 397.676 44.9206 399.205 44.9206C400.734 44.9206 401.859 44.0069 401.866 42.6146C401.859 41.2286 400.734 40.3087 399.205 40.3087C397.676 40.3087 396.551 41.2286 396.564 42.6146ZM405.433 53.5228V37.7417H407.099V53.5228H405.433ZM418.63 41.7507C418.623 44.6347 420.239 47.5062 422.645 48.5877L421.638 49.9302C419.842 49.029 418.487 47.2514 417.797 45.0946C417.101 47.3633 415.727 49.2776 413.918 50.2162L412.862 48.8736C415.298 47.7051 416.927 44.6657 416.939 41.7507V39.0532H418.63V41.7507ZM420.917 44.3301V42.9751H424.429V37.7417H426.082V53.5228H424.429V44.3301H420.917ZM442.354 47.0898V48.4137H438.731V53.4917H437.052V48.4137H433.249V53.4917H431.583V48.4137H427.94V47.0898H442.354ZM429.656 39.6747V38.3073H440.645V42.5276H431.378V44.2617H440.993V45.6229H429.693V41.2721H438.942V39.6747H429.656ZM457.371 44.9703V46.2507H442.957V44.9703H457.371ZM444.666 48.5566V47.3508H455.599V50.8253H446.351V52.1243H456.09V53.3052H444.685V49.7127H453.946V48.5566H444.666ZM444.766 39.3267V38.1519H455.556V41.558H446.463V42.7576H455.829V43.9323H444.809V40.4579H453.89V39.3267H444.766ZM474.228 37.7231V41.645H476.509V43.0249H474.228V46.6485H472.556V37.7231H474.228ZM461.853 45.3619C465.688 44.4047 467.82 42.4593 468.087 40.0601H462.555V38.7051H469.902C469.902 42.7638 467.192 45.5235 462.475 46.7169L461.853 45.3619ZM463.388 52.143C466.154 51.7576 468.212 50.328 468.361 48.7244H464.01V47.3943H474.477V48.7244H470.132C470.281 50.2907 472.357 51.7638 475.117 52.1678L474.489 53.4544C472.096 53.0877 470.145 51.9627 469.256 50.4399C468.361 51.9627 466.403 53.0691 464.029 53.4544L463.388 52.143ZM491.228 47.2327V48.6126H484.857V53.5166H483.216V48.6126H476.87V47.2327H491.228ZM477.709 44.8149C480.699 44.4358 483.104 42.7638 483.21 40.9924H478.225V39.6499H483.216V37.7417H484.857V39.6499H489.86V40.9924H484.882C484.975 42.7514 487.355 44.4358 490.357 44.8149L489.748 46.145C487.219 45.797 485.068 44.6098 484.049 43C483.023 44.6285 480.854 45.7907 478.318 46.145L477.709 44.8149ZM496.156 38.9227C498.288 38.9289 499.855 40.7376 500.103 43.6464H503.366V37.7417H505.02V53.5228H503.366V45.0076H500.116C499.942 48.078 498.351 49.9862 496.156 49.9862C493.801 49.9862 492.147 47.8419 492.16 44.4482C492.147 41.0732 493.801 38.9289 496.156 38.9227ZM493.751 44.4482C493.751 46.9468 494.727 48.4883 496.156 48.4883C497.574 48.4883 498.556 46.9468 498.556 44.4482C498.556 41.9682 497.574 40.4268 496.156 40.4144C494.727 40.4268 493.751 41.9682 493.751 44.4482ZM512.584 41.7507C512.578 44.6347 514.194 47.5062 516.599 48.5877L515.592 49.9302C513.796 49.029 512.441 47.2514 511.751 45.0946C511.055 47.3633 509.681 49.2776 507.873 50.2162L506.816 48.8736C509.253 47.7051 510.881 44.6657 510.893 41.7507V39.0532H512.584V41.7507ZM514.871 44.3301V42.9751H518.383V37.7417H520.036V53.5228H518.383V44.3301H514.871ZM538.149 37.7541V42.4033H540.43V43.8018H538.149V49.3336H536.477V37.7541H538.149ZM526.377 46.7231V38.8791H528.024V41.4088H532.151V38.8791H533.805V46.7231H526.377ZM528.024 45.393H532.151V42.7141H528.024V45.393ZM528.167 53.1685V48.1837H529.827V51.8011H538.821V53.1685H528.167ZM553.906 37.7417V53.5228H552.252V46.9344H549.169V45.5421H552.252V42.6333H549.256V41.2535H552.252V37.7417H553.906ZM541.325 40.489V39.134H548.305V44.8833H543.028V48.5007C545.254 48.4883 547.137 48.395 549.387 48.0532L549.53 49.433C547.062 49.8184 545.048 49.893 542.562 49.893H541.375V43.5594H546.671V40.489H541.325ZM570.184 45.4054V46.7417H555.808V45.4054H562.178V43.7334H557.598V38.4689H568.412V39.7866H559.251V42.3971H568.506V43.7334H563.807V45.4054H570.184ZM557.504 50.6326C557.504 48.8052 559.555 47.7735 562.968 47.7735C566.361 47.7735 568.4 48.8052 568.412 50.6326C568.4 52.4537 566.361 53.4793 562.968 53.4917C559.555 53.4793 557.504 52.4537 557.504 50.6326ZM559.201 50.6326C559.189 51.6395 560.562 52.1927 562.968 52.1802C565.348 52.1927 566.734 51.6395 566.747 50.6326C566.734 49.6319 565.348 49.0601 562.968 49.0601C560.562 49.0601 559.189 49.6319 559.201 50.6326ZM585.182 44.2617V45.5919H578.817V46.9717H583.361V50.6637H574.199V52.0497H583.815V53.3425H572.565V49.4517H581.72V48.2459H572.533V46.9717H577.145V45.5919H570.824V44.2617H585.182ZM572.658 43.0994V38.2452H583.33V43.0994H572.658ZM574.292 41.788H581.664V39.5628H574.292V41.788ZM598.887 37.7417V53.5228H597.209V37.7417H598.887ZM586.382 44.4482C586.382 41.0732 588.078 38.9289 590.453 38.9227C592.802 38.9289 594.518 41.0732 594.518 44.4482C594.518 47.8419 592.802 49.9862 590.453 49.9862C588.078 49.9862 586.382 47.8419 586.382 44.4482ZM587.991 44.4482C587.991 46.9468 588.998 48.4883 590.453 48.4883C591.907 48.4883 592.902 46.9468 592.902 44.4482C592.902 41.9682 591.907 40.4268 590.453 40.4144C588.998 40.4268 587.991 41.9682 587.991 44.4482ZM617.777 38.3633V39.7058H613.003C613.165 41.2721 615.421 42.5898 618.336 42.8943L617.715 44.2182C614.992 43.9012 612.736 42.7452 611.878 41.0608C611.021 42.7452 608.783 43.9012 606.067 44.2182L605.464 42.8943C608.342 42.5898 610.598 41.2659 610.766 39.7058H606.023V38.3633H617.777ZM604.712 46.462V45.1008H619.095V46.462H612.705V48.3453H617.305V53.4917H615.626V49.6941H606.303V48.3453H611.058V46.462H604.712ZM634.086 45.9648V47.3011H619.729V45.9648H634.086ZM621.264 41.4213C621.264 39.4448 623.47 38.2576 626.895 38.27C630.307 38.2576 632.514 39.4448 632.514 41.4213C632.514 43.4102 630.307 44.6098 626.895 44.6098C623.47 44.6098 621.264 43.4102 621.264 41.4213ZM621.537 53.1685V48.5815H623.215V51.8011H632.47V53.1685H621.537ZM622.998 41.4213C622.986 42.5836 624.483 43.2486 626.895 43.2486C629.307 43.2486 630.805 42.5836 630.805 41.4213C630.805 40.2901 629.307 39.6064 626.895 39.6064C624.483 39.6064 622.986 40.2901 622.998 41.4213ZM650.975 37.7417V40.9116H653.256V42.3039H650.975V45.6416H649.303V37.7417H650.975ZM639.315 44.9765V38.4378H640.993V43.5718C643.106 43.5656 645.331 43.3916 647.755 42.913L647.96 44.2928C645.306 44.8336 642.926 44.9765 640.601 44.9765H639.315ZM640.788 47.6802V46.3564H650.975V50.3715H642.484V51.9378H651.509V53.2928H640.825V49.0849H649.297V47.6802H640.788ZM668.005 47.0028V48.3329H661.578V53.4917H659.938V48.3329H653.592V47.0028H668.005ZM655.388 45.2189V38.3819H657.041V40.433H664.537V38.3819H666.203V45.2189H655.388ZM657.041 43.8764H664.537V41.7693H657.041V43.8764ZM681.766 37.7417V53.5228H680.113V44.9268H676.974V43.5656H680.113V37.7417H681.766ZM669.354 49.7997V39.1402H676.713V40.5076H671.032V43.5656H676.054V44.8957H671.032V48.4199C673.668 48.4137 675.495 48.3329 677.59 47.9724L677.77 49.3336C675.476 49.7003 673.5 49.7935 670.572 49.7997H669.354ZM692.557 52.174C689.928 52.174 688.051 50.7569 687.983 48.6747H689.941C690.009 49.7935 691.122 50.5083 692.539 50.5083C694.08 50.5083 695.199 49.6692 695.193 48.4385C695.199 47.1768 694.155 46.2756 692.327 46.2756H691.246V44.6968H692.327C693.782 44.6968 694.795 43.8888 694.795 42.6706C694.795 41.5021 693.925 40.7189 692.582 40.7189C691.302 40.7189 690.164 41.4275 690.115 42.5773H688.25C688.312 40.5076 690.22 39.0967 692.601 39.0967C695.1 39.0967 696.678 40.6816 696.666 42.5711C696.678 44.0069 695.783 45.0511 694.416 45.3805V45.48C696.144 45.7224 697.157 46.8909 697.144 48.5069C697.157 50.6264 695.199 52.174 692.557 52.174ZM703.163 52.2051C700.223 52.2051 698.489 49.8122 698.495 45.6416C698.495 41.4959 700.242 39.0967 703.163 39.0967C706.09 39.0967 707.837 41.5021 707.837 45.6416C707.837 49.8122 706.109 52.2051 703.163 52.2051ZM700.422 45.6416C700.416 48.8177 701.447 50.5394 703.163 50.5394C704.885 50.5394 705.91 48.8177 705.91 45.6416C705.91 42.4717 704.872 40.7438 703.163 40.7438C701.46 40.7438 700.422 42.4717 700.422 45.6416ZM713.229 38.2825C715.597 38.2887 717.343 39.7431 717.356 41.8128C717.343 43.8764 715.597 45.3184 713.229 45.3184C710.83 45.3184 709.083 43.8764 709.083 41.8128C709.083 39.7431 710.83 38.2887 713.229 38.2825ZM710.712 41.8128C710.699 43.1057 711.774 43.9634 713.229 43.9634C714.671 43.9634 715.74 43.1057 715.74 41.8128C715.74 40.5262 714.671 39.6623 713.229 39.6685C711.774 39.6623 710.699 40.5262 710.712 41.8128ZM711.47 47.8108V46.4869H721.831V50.4461H713.142V51.9565H722.347V53.2928H711.52V49.203H720.171V47.8108H711.47ZM720.159 45.7597V37.7417H721.831V45.7597H720.159ZM740.684 37.7417V53.5228H739.005V37.7417H740.684ZM728.178 44.4482C728.178 41.0732 729.875 38.9289 732.249 38.9227C734.599 38.9289 736.314 41.0732 736.314 44.4482C736.314 47.8419 734.599 49.9862 732.249 49.9862C729.875 49.9862 728.178 47.8419 728.178 44.4482ZM729.788 44.4482C729.788 46.9468 730.795 48.4883 732.249 48.4883C733.704 48.4883 734.698 46.9468 734.698 44.4482C734.698 41.9682 733.704 40.4268 732.249 40.4144C730.795 40.4268 729.788 41.9682 729.788 44.4482ZM756.141 37.7417V53.4917H754.525V45.4302H752.518V52.6837H750.951V38.0649H752.518V44.0442H754.525V37.7417H756.141ZM743.387 49.489V39.6001H745.059V48.0221C746.514 47.9972 748.099 47.8854 749.882 47.5373L750.069 48.9917C747.906 49.3833 746.103 49.489 744.407 49.489H743.387ZM771.214 37.7417V53.4917H769.61V37.7417H771.214ZM757.845 44.5414C757.845 41.1354 759.181 39.0035 761.232 39.0035C763.146 39.0035 764.445 40.8184 764.644 43.7769H766.422V38.0463H768.013V52.7148H766.422V45.1319H764.65C764.495 48.2086 763.184 50.1105 761.232 50.1043C759.181 50.1105 757.845 47.9662 757.845 44.5414ZM759.398 44.5414C759.386 47.0525 760.101 48.5256 761.232 48.5131C762.394 48.5256 763.115 47.0525 763.115 44.5414C763.115 42.0366 762.394 40.5698 761.232 40.5698C760.101 40.5698 759.386 42.0366 759.398 44.5414ZM790.918 45.4054V46.7417H776.542V45.4054H782.913V43.7334H778.332V38.4689H789.147V39.7866H779.985V42.3971H789.24V43.7334H784.541V45.4054H790.918ZM778.238 50.6326C778.238 48.8052 780.29 47.7735 783.702 47.7735C787.096 47.7735 789.134 48.8052 789.147 50.6326C789.134 52.4537 787.096 53.4793 783.702 53.4917C780.29 53.4793 778.238 52.4537 778.238 50.6326ZM779.935 50.6326C779.923 51.6395 781.296 52.1927 783.702 52.1802C786.082 52.1927 787.468 51.6395 787.481 50.6326C787.468 49.6319 786.082 49.0601 783.702 49.0601C781.296 49.0601 779.923 49.6319 779.935 50.6326ZM805.916 44.2617V45.5919H799.551V46.9717H804.095V50.6637H794.933V52.0497H804.549V53.3425H793.299V49.4517H802.454V48.2459H793.268V46.9717H797.879V45.5919H791.558V44.2617H805.916ZM793.392 43.0994V38.2452H804.064V43.0994H793.392ZM795.027 41.788H802.398V39.5628H795.027V41.788ZM820.951 45.1381V46.518H806.575V45.1381H820.951ZM808.272 50.6077C808.272 48.7804 810.323 47.7486 813.735 47.7486C817.129 47.7486 819.168 48.7804 819.18 50.6077C819.168 52.4413 817.129 53.4669 813.735 53.4669C810.323 53.4669 808.272 52.4413 808.272 50.6077ZM808.365 43.7707V38.3073H819.18V39.6685H810.018V42.422H819.273V43.7707H808.365ZM809.969 50.6077C809.956 51.6209 811.33 52.1678 813.735 52.1678C816.116 52.1678 817.502 51.6209 817.514 50.6077C817.502 49.607 816.116 49.0477 813.735 49.0352C811.33 49.0477 809.956 49.607 809.969 50.6077ZM835.98 46.3377V47.6989H821.567V46.3377H827.956V44.846H823.419V40.837H832.5V39.4323H823.375V38.1084H834.165V42.0739H825.072V43.5345H834.489V44.846H829.597V46.3377H835.98ZM823.183 50.1354V48.7928H834.252V53.3674H832.574V50.1354H823.183ZM852.838 37.7417V41.0359H855.119V42.422H852.838V45.7099H851.166V37.7417H852.838ZM841.066 44.9641V38.587H848.443V44.9641H841.066ZM842.651 47.7362V46.4185H852.838V50.4088H844.329V51.9565H853.372V53.2928H842.688V49.172H851.178V47.7362H842.651ZM842.7 43.6402H846.809V39.9233H842.7V43.6402ZM869.893 50.1291V51.4903H855.479V50.1291H861.788V46.375H863.429V50.1291H869.893ZM855.964 45.2749C858.997 44.7776 861.707 42.4406 861.72 39.9358V38.7548H863.479V39.9358C863.479 42.4406 866.22 44.7776 869.265 45.2749L868.532 46.6609C865.984 46.1575 863.64 44.5787 862.602 42.4157C861.558 44.5663 859.24 46.1637 856.698 46.6609L855.964 45.2749ZM883.561 37.7541V49.2901H881.889V37.7541H883.561ZM870.583 45.741C873.051 44.8273 874.511 42.5649 874.511 40.1844V38.6305H876.221V40.1844C876.208 42.4841 877.675 44.6036 880.099 45.4427L879.241 46.7728C877.426 46.1077 876.084 44.7714 875.381 43.0622C874.685 44.8895 873.324 46.3501 871.478 47.0525L870.583 45.741ZM873.256 53.1685V48.2086H874.934V51.8011H884.021V53.1685H873.256ZM898.254 39.2583V40.7997C898.248 42.7514 898.248 44.9268 897.651 48.1588L895.973 47.9724C896.576 44.9268 896.576 42.6954 896.589 40.7997V40.6133H887.023V39.2583H898.254ZM885.513 51.366V49.9862H890.97V44.4296H892.623V49.9862H899.87V51.366H885.513ZM914.918 44.9703V46.2507H900.504V44.9703H914.918ZM902.214 48.5566V47.3508H913.147V50.8253H903.898V52.1243H913.638V53.3052H902.232V49.7127H911.493V48.5566H902.214ZM902.313 39.3267V38.1519H913.103V41.558H904.01V42.7576H913.377V43.9323H902.357V40.4579H911.437V39.3267H902.313ZM927.176 40.3522V41.701H919.363V40.3522H922.458V38.2079H924.112V40.3522H927.176ZM919.873 46.2693C919.86 44.1499 921.302 42.6457 923.285 42.6457C925.274 42.6457 926.697 44.1499 926.71 46.2693C926.697 48.4199 925.274 49.9302 923.285 49.9302C921.302 49.9302 919.86 48.4199 919.873 46.2693ZM921.34 46.2693C921.34 47.6057 922.148 48.5069 923.285 48.4945C924.416 48.5069 925.231 47.6057 925.231 46.2693C925.231 44.9579 924.416 44.0442 923.285 44.038C922.148 44.0442 921.34 44.9579 921.34 46.2693ZM927.909 52.7521V38.096H929.482V44.3052H931.297V37.7417H932.888V53.4917H931.297V45.6664H929.482V52.7521H927.909ZM938.631 38.9227C940.987 38.9289 942.665 41.0732 942.677 44.4482C942.665 47.8419 940.987 49.9862 938.631 49.9862C936.276 49.9862 934.597 47.8419 934.61 44.4482C934.597 41.0732 936.276 38.9289 938.631 38.9227ZM936.201 44.4482C936.201 46.9468 937.195 48.4883 938.631 48.4883C940.098 48.4883 941.068 46.9468 941.074 44.4482C941.068 41.9682 940.098 40.4268 938.631 40.4144C937.195 40.4268 936.201 41.9682 936.201 44.4482ZM945.015 53.4917V37.7417H946.686V41.6015H949.129V43.0124H946.686V46.2818H949.129V47.6616H946.686V53.4917H945.015ZM961.809 37.7417V41.6948H964.09V43.0994H961.809V46.9157H960.137V37.7417H961.809ZM949.452 40.6319V39.2894H953.318V37.605H954.978V39.2894H958.825V40.6319H949.452ZM950.31 44.038C950.304 42.3598 951.845 41.2721 954.145 41.2721C956.414 41.2721 957.955 42.3598 957.961 44.038C957.955 45.7162 956.414 46.8101 954.145 46.8039C951.845 46.8101 950.304 45.7162 950.31 44.038ZM951.727 53.2928V47.5746H953.381V49.1036H960.137V47.5746H961.809V53.2928H951.727ZM951.92 44.038C951.908 44.9765 952.803 45.5608 954.145 45.5608C955.475 45.5608 956.37 44.9765 956.383 44.038C956.37 43.1181 955.475 42.5152 954.145 42.5214C952.803 42.5152 951.908 43.1181 951.92 44.038ZM953.381 51.9565H960.137V50.4026H953.381V51.9565ZM977.515 37.7417V53.4917H975.862V37.7417H977.515ZM965.414 49.489V39.2769H967.055V48.0532C969.361 48.0345 971.778 47.8419 974.314 47.3198L974.532 48.7244C971.747 49.3025 969.218 49.4952 966.731 49.489H965.414ZM991.736 37.7417V43.8391H994.26V45.2251H991.736V53.5228H990.064V37.7417H991.736ZM980.132 49.6133V39.2583H987.497V40.6133H981.798V48.221C984.439 48.2086 986.422 48.0967 988.678 47.6865L988.877 49.1098C986.416 49.5387 984.321 49.6195 981.4 49.6133H980.132ZM996.274 52.1181C995.584 52.1181 995.012 51.5587 995.024 50.875C995.012 50.1913 995.584 49.6319 996.274 49.6319C996.945 49.6319 997.517 50.1913 997.517 50.875C997.517 51.5587 996.945 52.1181 996.274 52.1181Z" fill="#666666"/>
<path d="M41.3101 71.8957C41.3101 69.4689 41.9579 67.453 43.1906 65.732H44.5297C43.5773 67.0083 42.8232 69.5994 42.8232 71.8957C42.8232 74.192 43.5773 76.788 44.5297 78.0642H43.1906C41.9579 76.3432 41.3101 74.3225 41.3101 71.8957ZM56.22 70.8709V71.9102H45.0383V70.8709H49.9934V69.5704H46.4306V65.4758H54.8422V66.5007H47.7165V68.5311H54.9147V69.5704H51.26V70.8709H56.22ZM46.3581 74.9365C46.3581 73.5152 47.9534 72.7127 50.6074 72.7127C53.2469 72.7127 54.8325 73.5152 54.8422 74.9365C54.8325 76.3529 53.2469 77.1506 50.6074 77.1602C47.9534 77.1506 46.3581 76.3529 46.3581 74.9365ZM47.6778 74.9365C47.6682 75.7196 48.7365 76.1499 50.6074 76.1402C52.4589 76.1499 53.5369 75.7196 53.5466 74.9365C53.5369 74.1581 52.4589 73.7134 50.6074 73.7134C48.7365 73.7134 47.6682 74.1581 47.6778 74.9365ZM67.8851 69.9814V71.0159H62.9348V72.0891H66.4686V74.9606H59.3429V76.0387H66.8215V77.0442H58.0715V74.018H65.1924V73.0801H58.0474V72.0891H61.6344V71.0159H56.7179V69.9814H67.8851ZM58.144 69.0773V65.3018H66.4445V69.0773H58.144ZM59.4154 68.0573H65.1489V66.3267H59.4154V68.0573ZM79.6082 74.5691V75.6423H68.3975V74.5691H73.3285V72.0552H69.6738V65.7465H70.9742V67.8591H76.988V65.7465H78.2788V72.0552H74.6144V74.5691H79.6082ZM70.9742 71.0014H76.988V68.9033H70.9742V71.0014ZM90.6883 66.6312V67.6899H80.6041V66.6312H85.0129V65.0891H86.2892V66.6312H90.6883ZM80.0772 75.7873V74.7238H85.0129V73.114C82.8617 72.9738 81.5564 72.1229 81.5661 70.7597C81.5564 69.2901 83.1227 68.4199 85.6462 68.4247C88.1455 68.4199 89.7312 69.2901 89.7312 70.7597C89.7312 72.1229 88.4162 72.9689 86.2892 73.114V74.7238H91.2878V75.7873H80.0772ZM82.8859 70.7597C82.881 71.6153 83.9059 72.0843 85.6462 72.0891C87.372 72.0843 88.4017 71.6153 88.4066 70.7597C88.4017 69.9137 87.372 69.4496 85.6462 69.4496C83.9059 69.4496 82.881 69.9137 82.8859 70.7597ZM93.6373 65.5435V67.3273H96.707V65.5435H97.993V67.8494H100.671V64.9102H101.967V71.6008H100.671V68.9323H97.993V71.1851H92.3369V65.5435H93.6373ZM93.6373 70.136H96.707V68.3425H93.6373V70.136ZM93.9805 76.991V72.1761H95.2713V73.549H100.671V72.1761H101.957V76.991H93.9805ZM95.2713 75.9323H100.671V74.5642H95.2713V75.9323ZM116.939 64.9102V77.1602H115.706V64.9102H116.939ZM106.251 73.7907C107.986 72.7369 108.871 70.5083 108.871 68.328V67.3467H106.628V66.288H112.235V67.3467H110.123V68.328C110.123 70.4261 110.969 72.5193 112.69 73.5104L111.916 74.4675C110.742 73.7666 109.939 72.5193 109.514 71.0401C109.079 72.6402 108.247 74.0083 107.053 74.7528L106.251 73.7907ZM111.322 70.3052V69.2514H113.231V65.1713H114.454V76.5414H113.231V70.3052H111.322ZM122.291 66.0994V76H120.782V67.6077H120.724L118.36 69.1499V67.7141L120.821 66.0994H122.291ZM124.39 76L124.385 74.9075L127.817 71.4413C128.905 70.3149 129.447 69.6913 129.451 68.8211C129.447 67.8446 128.654 67.2258 127.614 67.2258C126.517 67.2258 125.816 67.9171 125.816 68.9758H124.385C124.38 67.163 125.758 65.9641 127.643 65.9641C129.553 65.9641 130.873 67.1727 130.882 68.7776C130.873 69.8847 130.351 70.7693 128.494 72.5919L126.483 74.6367V74.7093H131.042V76H124.39ZM143.086 74.5642V75.6326H131.876V74.5642H136.821V71.6637H138.121V74.5642H143.086ZM132.393 71.1077C134.67 70.721 136.782 69.0193 136.782 67.1485V67.0373H132.804V65.9593H142.114V67.0373H138.136V67.1485C138.136 69.0193 140.258 70.6872 142.593 71.0497L142.066 72.0746C140.089 71.7023 138.266 70.5566 137.469 68.9468C136.676 70.576 134.868 71.7507 132.92 72.1326L132.393 71.1077ZM157.058 64.9102V77.1602H155.825V64.9102H157.058ZM146.369 73.7907C148.105 72.7369 148.99 70.5083 148.99 68.328V67.3467H146.746V66.288H152.354V67.3467H150.242V68.328C150.242 70.4261 151.088 72.5193 152.809 73.5104L152.035 74.4675C150.86 73.7666 150.058 72.5193 149.633 71.0401C149.197 72.6402 148.366 74.0083 147.172 74.7528L146.369 73.7907ZM151.441 70.3052V69.2514H153.35V65.1713H154.573V76.5414H153.35V70.3052H151.441ZM158.653 76L158.648 74.9075L162.081 71.4413C163.168 70.3149 163.71 69.6913 163.715 68.8211C163.71 67.8446 162.917 67.2258 161.878 67.2258C160.78 67.2258 160.079 67.9171 160.079 68.9758H158.648C158.644 67.163 160.021 65.9641 161.907 65.9641C163.816 65.9641 165.136 67.1727 165.146 68.7776C165.136 69.8847 164.614 70.7693 162.758 72.5919L160.747 74.6367V74.7093H165.305V76H158.653ZM175.764 64.9102V68.2265H177.538V69.3239H175.764V72.7707H174.463V64.9102H175.764ZM166.153 67.2548V66.23H169.16V64.8232H170.451V66.23H173.443V67.2548H166.153ZM166.821 69.991C166.816 68.6809 168.015 67.8156 169.803 67.8156C171.568 67.8156 172.767 68.6809 172.771 69.991C172.767 71.3108 171.568 72.1664 169.803 72.1616C168.015 72.1664 166.816 71.3108 166.821 69.991ZM167.787 75.0138C167.778 73.6602 169.32 72.8674 171.848 72.8674C174.347 72.8674 175.899 73.6602 175.899 75.0138C175.899 76.3481 174.347 77.1409 171.848 77.1409C169.32 77.1409 167.778 76.3481 167.787 75.0138ZM168.073 69.991C168.063 70.7258 168.759 71.1754 169.803 71.1754C170.838 71.1754 171.534 70.7258 171.544 69.991C171.534 69.2514 170.838 68.7825 169.803 68.7728C168.759 68.7825 168.063 69.2514 168.073 69.991ZM169.073 75.0138C169.064 75.7293 170.088 76.1547 171.848 76.145C173.584 76.1547 174.604 75.7293 174.604 75.0138C174.604 74.2693 173.584 73.8729 171.848 73.8729C170.088 73.8729 169.064 74.2693 169.073 75.0138ZM191.321 64.9102V77.1602H190.089V64.9102H191.321ZM180.633 73.7907C182.368 72.7369 183.253 70.5083 183.253 68.328V67.3467H181.01V66.288H186.618V67.3467H184.505V68.328C184.505 70.4261 185.351 72.5193 187.072 73.5104L186.298 74.4675C185.124 73.7666 184.321 72.5193 183.896 71.0401C183.461 72.6402 182.629 74.0083 181.435 74.7528L180.633 73.7907ZM185.704 70.3052V69.2514H187.613V65.1713H188.836V76.5414H187.613V70.3052H185.704ZM192.917 76L192.912 74.9075L196.344 71.4413C197.432 70.3149 197.973 69.6913 197.978 68.8211C197.973 67.8446 197.18 67.2258 196.141 67.2258C195.044 67.2258 194.343 67.9171 194.343 68.9758H192.912C192.907 67.163 194.285 65.9641 196.17 65.9641C198.08 65.9641 199.399 67.1727 199.409 68.7776C199.399 69.8847 198.877 70.7693 197.021 72.5919L195.01 74.6367V74.7093H199.569V76H192.917ZM211.013 66.6312V67.6899H200.929V66.6312H205.338V65.0891H206.614V66.6312H211.013ZM200.402 75.7873V74.7238H205.338V73.114C203.187 72.9738 201.882 72.1229 201.891 70.7597C201.882 69.2901 203.448 68.4199 205.971 68.4247C208.471 68.4199 210.056 69.2901 210.056 70.7597C210.056 72.1229 208.741 72.9689 206.614 73.114V74.7238H211.613V75.7873H200.402ZM203.211 70.7597C203.206 71.6153 204.231 72.0843 205.971 72.0891C207.697 72.0843 208.727 71.6153 208.732 70.7597C208.727 69.9137 207.697 69.4496 205.971 69.4496C204.231 69.4496 203.206 69.9137 203.211 70.7597ZM214.281 75.0428L213.184 78.8232H212.024L212.754 75.0428H214.281ZM229.423 70.8709V71.9102H218.242V70.8709H223.197V69.5704H219.634V65.4758H228.046V66.5007H220.92V68.5311H228.118V69.5704H224.464V70.8709H229.423ZM219.562 74.9365C219.562 73.5152 221.157 72.7127 223.811 72.7127C226.45 72.7127 228.036 73.5152 228.046 74.9365C228.036 76.3529 226.45 77.1506 223.811 77.1602C221.157 77.1506 219.562 76.3529 219.562 74.9365ZM220.881 74.9365C220.872 75.7196 221.94 76.1499 223.811 76.1402C225.662 76.1499 226.74 75.7196 226.75 74.9365C226.74 74.1581 225.662 73.7134 223.811 73.7134C221.94 73.7134 220.872 74.1581 220.881 74.9365ZM241.089 69.9814V71.0159H236.138V72.0891H239.672V74.9606H232.546V76.0387H240.025V77.0442H231.275V74.018H238.396V73.0801H231.251V72.0891H234.838V71.0159H229.921V69.9814H241.089ZM231.348 69.0773V65.3018H239.648V69.0773H231.348ZM232.619 68.0573H238.352V66.3267H232.619V68.0573ZM252.812 74.5691V75.6423H241.601V74.5691H246.532V72.0552H242.877V65.7465H244.178V67.8591H250.192V65.7465H251.482V72.0552H247.818V74.5691H252.812ZM244.178 71.0014H250.192V68.9033H244.178V71.0014ZM263.892 66.6312V67.6899H253.808V66.6312H258.216V65.0891H259.493V66.6312H263.892ZM253.281 75.7873V74.7238H258.216V73.114C256.065 72.9738 254.76 72.1229 254.77 70.7597C254.76 69.2901 256.326 68.4199 258.85 68.4247C261.349 68.4199 262.935 69.2901 262.935 70.7597C262.935 72.1229 261.62 72.9689 259.493 73.114V74.7238H264.491V75.7873H253.281ZM256.089 70.7597C256.085 71.6153 257.109 72.0843 258.85 72.0891C260.576 72.0843 261.605 71.6153 261.61 70.7597C261.605 69.9137 260.576 69.4496 258.85 69.4496C257.109 69.4496 256.085 69.9137 256.089 70.7597ZM266.841 65.5435V67.3273H269.911V65.5435H271.196V67.8494H273.875V64.9102H275.17V71.6008H273.875V68.9323H271.196V71.1851H265.54V65.5435H266.841ZM266.841 70.136H269.911V68.3425H266.841V70.136ZM267.184 76.991V72.1761H268.475V73.549H273.875V72.1761H275.161V76.991H267.184ZM268.475 75.9323H273.875V74.5642H268.475V75.9323ZM284.134 68.0283C284.124 70.2666 285.473 72.5193 287.373 73.3557L286.59 74.3902C285.183 73.7182 284.071 72.3405 283.496 70.663C282.93 72.4565 281.804 73.9406 280.339 74.6512L279.536 73.5684C281.465 72.7079 282.819 70.3681 282.828 68.0283V65.9302H284.134V68.0283ZM288.48 77.1844V64.9102H289.785V77.1844H288.48ZM301.755 64.9102V72.6402H300.527V69.2175H299.105V72.2148H297.892V65.1471H299.105V68.1492H300.527V64.9102H301.755ZM291.25 67.337V66.3122H293.715V65.0069H295.001V66.3122H297.442V67.337H291.25ZM291.728 70.02C291.724 68.739 292.816 67.9075 294.353 67.9075C295.915 67.9075 296.998 68.739 297.007 70.02C296.998 71.2866 295.915 72.1133 294.353 72.1133C292.816 72.1133 291.724 71.2866 291.728 70.02ZM292.884 70.02C292.884 70.7113 293.483 71.1706 294.353 71.1657C295.233 71.1706 295.828 70.7113 295.833 70.02C295.828 69.3142 295.233 68.8598 294.353 68.8598C293.483 68.8598 292.884 69.3142 292.884 70.02ZM293.507 74.9896C293.498 73.6022 295.064 72.8191 297.665 72.8191C300.261 72.8191 301.822 73.6022 301.822 74.9896C301.822 76.3577 300.261 77.1409 297.665 77.1409C295.064 77.1409 293.498 76.3577 293.507 74.9896ZM294.798 74.9896C294.788 75.7293 295.837 76.1499 297.665 76.1402C299.487 76.1499 300.522 75.7293 300.527 74.9896C300.522 74.2162 299.487 73.8052 297.665 73.8149C295.837 73.8052 294.788 74.2162 294.798 74.9896ZM312.651 65.6595V66.5587C312.651 67.6367 312.651 69.0193 312.313 70.9869H314.164V72.0504H311.307V77.1554H310.016V72.0504H307.082V77.1554H305.782V72.0504H302.997V70.9869H310.993C311.365 69.1354 311.385 67.7769 311.389 66.7327H304.394V65.6595H312.651ZM319.226 67.6029C319.221 69.1015 320.434 70.489 322.32 71.0352L321.701 72.0456C320.255 71.6202 319.168 70.7162 318.607 69.5511C318.061 70.8225 316.973 71.8135 315.508 72.2825L314.87 71.2624C316.775 70.6533 317.93 69.1934 317.93 67.6029V67.3854H315.213V66.3412H317.93V64.857H319.24V66.3412H321.938V67.3854H319.226V67.6029ZM316.533 74.0808V73.0269H324.838V77.1602H323.538V74.0808H316.533ZM323.538 72.4323V64.9102H324.838V72.4323H323.538ZM339.859 64.9102V77.1602H338.626V64.9102H339.859ZM329.171 73.7907C330.906 72.7369 331.791 70.5083 331.791 68.328V67.3467H329.548V66.288H335.155V67.3467H333.043V68.328C333.043 70.4261 333.889 72.5193 335.61 73.5104L334.836 74.4675C333.662 73.7666 332.859 72.5193 332.434 71.0401C331.999 72.6402 331.167 74.0083 329.973 74.7528L329.171 73.7907ZM334.242 70.3052V69.2514H336.151V65.1713H337.374V76.5414H336.151V70.3052H334.242ZM344.863 65.9641C346.675 65.9786 348.585 67.0711 348.59 70.6968C348.59 74.1678 347.096 76.1354 344.722 76.1354C342.9 76.1354 341.624 75.009 341.392 73.404H342.876C343.084 74.2355 343.722 74.8204 344.722 74.8204C346.245 74.8204 347.144 73.4862 347.154 71.2238H347.033C346.497 72.0649 345.568 72.5677 344.5 72.5677C342.726 72.5677 341.305 71.2093 341.305 69.3191C341.305 67.4289 342.707 65.9496 344.863 65.9641ZM342.769 69.2949C342.774 70.4406 343.63 71.3446 344.834 71.3446C346.023 71.3446 346.951 70.3681 346.951 69.2756C346.951 68.2023 346.071 67.2258 344.863 67.2258C343.664 67.2258 342.76 68.154 342.769 69.2949ZM360.547 74.5642V75.6326H349.337V74.5642H354.282V71.6637H355.582V74.5642H360.547ZM349.854 71.1077C352.131 70.721 354.243 69.0193 354.243 67.1485V67.0373H350.265V65.9593H359.575V67.0373H355.597V67.1485C355.597 69.0193 357.719 70.6872 360.054 71.0497L359.527 72.0746C357.55 71.7023 355.727 70.5566 354.93 68.9468C354.137 70.576 352.329 71.7507 350.381 72.1326L349.854 71.1077ZM374.519 64.9102V77.1602H373.286V64.9102H374.519ZM363.83 73.7907C365.566 72.7369 366.451 70.5083 366.451 68.328V67.3467H364.207V66.288H369.815V67.3467H367.703V68.328C367.703 70.4261 368.549 72.5193 370.27 73.5104L369.496 74.4675C368.321 73.7666 367.519 72.5193 367.094 71.0401C366.658 72.6402 365.827 74.0083 364.633 74.7528L363.83 73.7907ZM368.902 70.3052V69.2514H370.811V65.1713H372.034V76.5414H370.811V70.3052H368.902ZM379.871 66.0994V76H378.362V67.6077H378.304L375.94 69.1499V67.7141L378.401 66.0994H379.871ZM391.174 64.9102V68.2265H392.948V69.3239H391.174V72.7707H389.874V64.9102H391.174ZM381.564 67.2548V66.23H384.571V64.8232H385.861V66.23H388.854V67.2548H381.564ZM382.231 69.991C382.226 68.6809 383.425 67.8156 385.213 67.8156C386.978 67.8156 388.177 68.6809 388.182 69.991C388.177 71.3108 386.978 72.1664 385.213 72.1616C383.425 72.1664 382.226 71.3108 382.231 69.991ZM383.198 75.0138C383.188 73.6602 384.73 72.8674 387.258 72.8674C389.758 72.8674 391.309 73.6602 391.309 75.0138C391.309 76.3481 389.758 77.1409 387.258 77.1409C384.73 77.1409 383.188 76.3481 383.198 75.0138ZM383.483 69.991C383.473 70.7258 384.169 71.1754 385.213 71.1754C386.248 71.1754 386.944 70.7258 386.954 69.991C386.944 69.2514 386.248 68.7825 385.213 68.7728C384.169 68.7825 383.473 69.2514 383.483 69.991ZM384.484 75.0138C384.474 75.7293 385.499 76.1547 387.258 76.145C388.994 76.1547 390.014 75.7293 390.014 75.0138C390.014 74.2693 388.994 73.8729 387.258 73.8729C385.499 73.8729 384.474 74.2693 384.484 75.0138ZM406.732 64.9102V77.1602H405.499V64.9102H406.732ZM396.043 73.7907C397.778 72.7369 398.663 70.5083 398.663 68.328V67.3467H396.42V66.288H402.028V67.3467H399.915V68.328C399.915 70.4261 400.761 72.5193 402.482 73.5104L401.709 74.4675C400.534 73.7666 399.732 72.5193 399.306 71.0401C398.871 72.6402 398.04 74.0083 396.845 74.7528L396.043 73.7907ZM401.114 70.3052V69.2514H403.024V65.1713H404.247V76.5414H403.024V70.3052H401.114ZM408.114 74.0663V72.8529L412.484 66.0994H414.35V72.7949H415.694V74.0663H414.35V76H412.915V74.0663H408.114ZM409.69 72.7949H412.924V67.8881H412.818L409.69 72.7175V72.7949ZM426.984 66.6312V67.6899H416.9V66.6312H421.309V65.0891H422.585V66.6312H426.984ZM416.373 75.7873V74.7238H421.309V73.114C419.158 72.9738 417.852 72.1229 417.862 70.7597C417.852 69.2901 419.419 68.4199 421.942 68.4247C424.441 68.4199 426.027 69.2901 426.027 70.7597C426.027 72.1229 424.712 72.9689 422.585 73.114V74.7238H427.584V75.7873H416.373ZM419.182 70.7597C419.177 71.6153 420.202 72.0843 421.942 72.0891C423.668 72.0843 424.698 71.6153 424.702 70.7597C424.698 69.9137 423.668 69.4496 421.942 69.4496C420.202 69.4496 419.177 69.9137 419.182 70.7597ZM437.514 65.6885V70.7307H431.684V65.6885H437.514ZM432.491 76.1257C434.734 75.9033 436.479 74.7818 436.552 73.6844H432.994V72.6982H436.581V71.5622H437.877V72.6982H441.478V73.6844H437.901C437.973 74.7576 439.685 75.8695 441.923 76.1257L441.478 77.1264C439.559 76.8943 437.973 76.0677 437.234 74.9896C436.484 76.0822 434.874 76.8895 432.946 77.1264L432.491 76.1257ZM432.96 69.7058H436.233V66.7231H432.96V69.7058ZM439.912 71.9151V64.9102H441.193V71.9151H439.912ZM456.233 64.9102V77.1602H455V64.9102H456.233ZM445.544 73.7907C447.28 72.7369 448.165 70.5083 448.165 68.328V67.3467H445.922V66.288H451.529V67.3467H449.417V68.328C449.417 70.4261 450.263 72.5193 451.984 73.5104L451.21 74.4675C450.035 73.7666 449.233 72.5193 448.808 71.0401C448.372 72.6402 447.541 74.0083 446.347 74.7528L445.544 73.7907ZM450.616 70.3052V69.2514H452.525V65.1713H453.748V76.5414H452.525V70.3052H450.616ZM457.828 76L457.824 74.9075L461.256 71.4413C462.344 70.3149 462.885 69.6913 462.89 68.8211C462.885 67.8446 462.092 67.2258 461.053 67.2258C459.955 67.2258 459.254 67.9171 459.254 68.9758H457.824C457.819 67.163 459.196 65.9641 461.082 65.9641C462.991 65.9641 464.311 67.1727 464.321 68.7776C464.311 69.8847 463.789 70.7693 461.933 72.5919L459.922 74.6367V74.7093H464.48V76H457.828ZM474.939 64.9102V68.2265H476.713V69.3239H474.939V72.7707H473.639V64.9102H474.939ZM465.328 67.2548V66.23H468.335V64.8232H469.626V66.23H472.619V67.2548H465.328ZM465.996 69.991C465.991 68.6809 467.19 67.8156 468.978 67.8156C470.743 67.8156 471.942 68.6809 471.947 69.991C471.942 71.3108 470.743 72.1664 468.978 72.1616C467.19 72.1664 465.991 71.3108 465.996 69.991ZM466.962 75.0138C466.953 73.6602 468.495 72.8674 471.023 72.8674C473.523 72.8674 475.074 73.6602 475.074 75.0138C475.074 76.3481 473.523 77.1409 471.023 77.1409C468.495 77.1409 466.953 76.3481 466.962 75.0138ZM467.248 69.991C467.238 70.7258 467.934 71.1754 468.978 71.1754C470.013 71.1754 470.709 70.7258 470.719 69.991C470.709 69.2514 470.013 68.7825 468.978 68.7728C467.934 68.7825 467.238 69.2514 467.248 69.991ZM468.248 75.0138C468.239 75.7293 469.264 76.1547 471.023 76.145C472.759 76.1547 473.779 75.7293 473.779 75.0138C473.779 74.2693 472.759 73.8729 471.023 73.8729C469.264 73.8729 468.239 74.2693 468.248 75.0138ZM480.228 71.8957C480.228 74.3225 479.58 76.3384 478.347 78.0594H477.008C477.96 76.7831 478.715 74.192 478.715 71.8957C478.715 69.5994 477.96 67.0035 477.008 65.7272H478.347C479.58 67.4482 480.228 69.4689 480.228 71.8957Z" fill="#9D9D9D"/>
<path d="M53.6305 229.742V245.523H51.9523V229.742H53.6305ZM41.125 236.448C41.125 233.073 42.8218 230.929 45.1961 230.923C47.5456 230.929 49.261 233.073 49.261 236.448C49.261 239.842 47.5456 241.986 45.1961 241.986C42.8218 241.986 41.125 239.842 41.125 236.448ZM42.7348 236.448C42.7348 238.947 43.7417 240.488 45.1961 240.488C46.6506 240.488 47.645 238.947 47.645 236.448C47.645 233.968 46.6506 232.427 45.1961 232.414C43.7417 232.427 42.7348 233.968 42.7348 236.448ZM69.9897 236.97V238.251H55.576V236.97H69.9897ZM57.2853 240.557V239.351H68.2183V242.825H58.9697V244.124H68.7093V245.305H57.3039V241.713H66.565V240.557H57.2853ZM57.3847 231.327V230.152H68.1748V233.558H59.0816V234.758H68.4483V235.932H57.4282V232.458H66.509V231.327H57.3847ZM79.6371 230.469C82.0114 230.456 83.7207 231.787 83.7207 233.732C83.7207 235.665 82.0114 237.008 79.6371 236.995C77.269 237.008 75.566 235.665 75.5722 233.732C75.566 231.787 77.269 230.456 79.6371 230.469ZM74.4534 238.213C77.356 238.213 81.3712 238.151 84.8208 237.642L84.9389 238.885C83.5031 239.152 82.0176 239.32 80.5694 239.425V245.013H78.8975V239.519C77.3685 239.587 75.9203 239.599 74.671 239.606L74.4534 238.213ZM77.1882 233.732C77.1758 234.876 78.2076 235.634 79.6371 235.622C81.104 235.634 82.1357 234.876 82.1357 233.732C82.1357 232.582 81.104 231.811 79.6371 231.824C78.2076 231.811 77.1758 232.582 77.1882 233.732ZM85.9147 245.498V229.754H87.5556V245.498H85.9147ZM101.864 229.754V234.403H104.145V235.802H101.864V241.334H100.192V229.754H101.864ZM90.0916 238.723V230.879H91.7387V233.409H95.8658V230.879H97.5191V238.723H90.0916ZM91.7387 237.393H95.8658V234.714H91.7387V237.393ZM91.8817 245.169V240.184H93.5412V243.801H102.535V245.169H91.8817ZM116.775 229.742V236.125H119.298V237.511H116.775V245.492H115.121V229.742H116.775ZM104.418 233.57V232.209H108.303V229.947H109.969V232.209H113.748V233.57H104.418ZM105.226 238.4C105.22 236.249 106.873 234.733 109.148 234.733C111.398 234.733 113.052 236.249 113.058 238.4C113.052 240.557 111.398 242.055 109.148 242.061C106.873 242.055 105.22 240.557 105.226 238.4ZM106.824 238.4C106.811 239.761 107.8 240.675 109.148 240.669C110.478 240.675 111.454 239.761 111.467 238.4C111.454 237.045 110.478 236.113 109.148 236.113C107.8 236.113 106.811 237.045 106.824 238.4ZM123.792 230.923C125.228 230.929 126.403 231.743 127.099 233.166H131.002V229.742H132.655V245.523H131.002V239.481H127.217C126.545 241.066 125.315 241.986 123.792 241.986C121.436 241.986 119.783 239.842 119.795 236.448C119.783 233.073 121.436 230.929 123.792 230.923ZM121.387 236.448C121.387 238.947 122.362 240.488 123.792 240.488C125.209 240.488 126.191 238.947 126.191 236.448C126.191 233.968 125.209 232.427 123.792 232.414C122.362 232.427 121.387 233.968 121.387 236.448ZM127.571 234.54C127.702 235.118 127.77 235.758 127.77 236.448C127.77 237.045 127.714 237.604 127.621 238.12H131.002V234.54H127.571ZM151.52 229.742V239.115H149.854V235.131H146.915V233.757H149.854V229.742H151.52ZM138.399 237.698C140.836 236.84 142.334 234.714 142.334 232.539V232.191H138.915V230.829H147.418V232.191H144.024V232.526C144.024 234.521 145.448 236.461 147.822 237.262L146.971 238.593C145.199 237.977 143.9 236.715 143.216 235.162C142.526 236.921 141.147 238.331 139.263 239.021L138.399 237.698ZM140.923 242.527C140.91 240.65 142.937 239.556 146.243 239.556C149.544 239.556 151.564 240.65 151.57 242.527C151.564 244.398 149.544 245.479 146.243 245.492C142.937 245.479 140.91 244.398 140.923 242.527ZM142.576 242.527C142.564 243.584 143.937 244.193 146.243 244.18C148.543 244.193 149.91 243.584 149.917 242.527C149.91 241.458 148.543 240.849 146.243 240.849C143.937 240.849 142.564 241.458 142.576 242.527ZM161.185 232.352V233.701H153.373V232.352H156.468V230.208H158.121V232.352H161.185ZM153.882 238.269C153.87 236.15 155.312 234.646 157.294 234.646C159.283 234.646 160.707 236.15 160.719 238.269C160.707 240.42 159.283 241.93 157.294 241.93C155.312 241.93 153.87 240.42 153.882 238.269ZM155.349 238.269C155.349 239.606 156.157 240.507 157.294 240.494C158.426 240.507 159.24 239.606 159.24 238.269C159.24 236.958 158.426 236.044 157.294 236.038C156.157 236.044 155.349 236.958 155.349 238.269ZM161.919 244.752V230.096H163.491V236.305H165.306V229.742H166.897V245.492H165.306V237.666H163.491V244.752H161.919ZM174.257 233.023C174.257 235.075 175.761 236.989 178.197 237.753L177.346 239.065C175.531 238.468 174.157 237.225 173.442 235.646C172.734 237.362 171.335 238.717 169.458 239.382L168.594 238.058C171.049 237.225 172.56 235.186 172.572 233.023V232.346H169.029V230.997H177.725V232.346H174.257V233.023ZM171.186 245.169V240.171H172.864V243.801H181.951V245.169H171.186ZM179.819 241.253V229.754H181.491V241.253H179.819ZM200.387 229.742V245.492H198.709V229.742H200.387ZM187.447 241.271C191.636 239.282 193.675 236.442 194.004 232.769H188.211V231.439H195.707C195.695 236.044 193.737 240.041 188.329 242.62L187.447 241.271ZM214.689 229.742V234.397H216.97V235.796H214.689V241.191H212.999V229.742H214.689ZM202.296 238.126C205.988 237.02 208.275 234.919 208.598 232.327H202.954V230.941H210.413C210.413 235.075 207.604 238.07 203.004 239.456L202.296 238.126ZM204.689 245.169V240.016H206.367V243.801H215.342V245.169H204.689ZM234.673 229.742V245.492H233.057V237.43H231.049V244.684H229.483V230.065H231.049V236.044H233.057V229.742H234.673ZM221.919 241.489V231.6H223.591V240.022C225.045 239.997 226.63 239.885 228.414 239.537L228.6 240.992C226.437 241.383 224.635 241.489 222.938 241.489H221.919ZM249.746 229.742V245.492H248.142V229.742H249.746ZM236.376 236.541C236.376 233.135 237.712 231.003 239.764 231.003C241.678 231.003 242.977 232.818 243.176 235.777H244.953V230.046H246.545V244.715H244.953V237.132H243.182C243.027 240.209 241.715 242.11 239.764 242.104C237.712 242.11 236.376 239.966 236.376 236.541ZM237.93 236.541C237.918 239.052 238.632 240.526 239.764 240.513C240.926 240.526 241.647 239.052 241.647 236.541C241.647 234.037 240.926 232.57 239.764 232.57C238.632 232.57 237.918 234.037 237.93 236.541ZM268.138 229.754V241.29H266.466V229.754H268.138ZM255.16 237.741C257.628 236.827 259.088 234.565 259.088 232.184V230.631H260.798V232.184C260.785 234.484 262.252 236.604 264.676 237.443L263.818 238.773C262.003 238.108 260.661 236.771 259.959 235.062C259.262 236.89 257.901 238.35 256.055 239.052L255.16 237.741ZM257.833 245.169V240.209H259.511V243.801H268.598V245.169H257.833ZM282.832 231.258V232.8C282.825 234.751 282.825 236.927 282.229 240.159L280.551 239.972C281.153 236.927 281.153 234.695 281.166 232.8V232.613H271.6V231.258H282.832ZM270.09 243.366V241.986H275.547V236.43H277.2V241.986H284.448V243.366H270.09ZM299.495 236.97V238.251H285.082V236.97H299.495ZM286.791 240.557V239.351H297.724V242.825H288.475V244.124H298.215V245.305H286.81V241.713H296.071V240.557H286.791ZM286.89 231.327V230.152H297.68V233.558H288.587V234.758H297.954V235.932H286.934V232.458H296.015V231.327H286.89ZM316.247 229.742V236.125H318.771V237.511H316.247V245.492H314.594V229.742H316.247ZM303.891 233.57V232.209H307.775V229.947H309.441V232.209H313.22V233.57H303.891ZM304.699 238.4C304.692 236.249 306.346 234.733 308.621 234.733C310.871 234.733 312.524 236.249 312.53 238.4C312.524 240.557 310.871 242.055 308.621 242.061C306.346 242.055 304.692 240.557 304.699 238.4ZM306.296 238.4C306.284 239.761 307.272 240.675 308.621 240.669C309.951 240.675 310.927 239.761 310.939 238.4C310.927 237.045 309.951 236.113 308.621 236.113C307.272 236.113 306.284 237.045 306.296 238.4ZM324.787 234.391C324.787 237.02 326.515 239.742 328.939 240.774L328.025 242.092C326.167 241.271 324.7 239.531 323.967 237.443C323.233 239.68 321.754 241.595 319.927 242.483L318.951 241.166C321.325 240.059 323.084 237.095 323.097 234.391V232.706H319.504V231.327H328.38V232.706H324.787V234.391ZM330.362 245.492V229.742H332.041V245.492H330.362ZM342.241 230.593C344.622 230.593 346.374 232.11 346.374 234.242C346.374 236.392 344.622 237.896 342.241 237.903C339.867 237.896 338.089 236.392 338.102 234.242C338.089 232.11 339.867 230.593 342.241 230.593ZM339.45 245.069V239.22H341.079V243.702C341.999 243.652 343.062 243.521 344.062 243.186L344.317 244.503C342.85 245.007 341.433 245.069 340.246 245.069H339.45ZM339.73 234.242C339.718 235.59 340.812 236.529 342.241 236.529C343.671 236.529 344.752 235.59 344.752 234.242C344.752 232.912 343.671 231.979 342.241 231.979C340.812 231.979 339.718 232.912 339.73 234.242ZM343.764 240.544V239.276H346.946V237.983H348.575V239.276H351.72V240.544H343.764ZM344.765 243.254C344.752 241.887 345.97 241.023 347.736 241.017C349.482 241.023 350.707 241.887 350.719 243.254C350.707 244.615 349.482 245.467 347.736 245.467C345.97 245.467 344.752 244.615 344.765 243.254ZM346.25 243.254C346.25 243.901 346.872 244.292 347.736 244.292C348.593 244.292 349.209 243.901 349.215 243.254C349.209 242.614 348.593 242.21 347.736 242.198C346.872 242.21 346.25 242.614 346.25 243.254ZM348.569 237.579V229.742H350.241V233.198H352.522V234.584H350.241V237.579H348.569ZM367.24 237.965V239.301H352.882V237.965H367.24ZM354.417 233.421C354.417 231.445 356.624 230.258 360.049 230.27C363.461 230.258 365.667 231.445 365.667 233.421C365.667 235.41 363.461 236.61 360.049 236.61C356.624 236.61 354.417 235.41 354.417 233.421ZM354.691 245.169V240.581H356.369V243.801H365.624V245.169H354.691ZM356.151 233.421C356.139 234.584 357.637 235.249 360.049 235.249C362.46 235.249 363.958 234.584 363.958 233.421C363.958 232.29 362.46 231.606 360.049 231.606C357.637 231.606 356.139 232.29 356.151 233.421ZM386.167 242.129V243.49H371.753V242.129H378.062V238.375H379.703V242.129H386.167ZM372.238 237.275C375.271 236.778 377.981 234.441 377.994 231.936V230.755H379.753V231.936C379.753 234.441 382.494 236.778 385.539 237.275L384.806 238.661C382.257 238.157 379.914 236.579 378.876 234.416C377.832 236.566 375.514 238.164 372.972 238.661L372.238 237.275ZM401.159 238.642V240.01H397.51V245.492H395.82V240.01H392.053V245.492H390.338V240.01H386.745V238.642H401.159ZM388.318 233.819C388.318 231.693 390.586 230.345 393.918 230.332C397.249 230.345 399.537 231.693 399.537 233.819C399.537 235.92 397.249 237.25 393.918 237.238C390.586 237.25 388.318 235.92 388.318 233.819ZM390.033 233.819C390.021 235.112 391.581 235.907 393.918 235.914C396.261 235.907 397.815 235.112 397.815 233.819C397.815 232.495 396.261 231.687 393.918 231.687C391.581 231.687 390.021 232.495 390.033 233.819ZM407.275 234.391C407.262 236.871 408.903 239.649 411.29 240.774L410.345 242.092C408.574 241.24 407.175 239.463 406.461 237.405C405.74 239.649 404.267 241.595 402.477 242.483L401.488 241.166C403.875 240.022 405.609 237.051 405.622 234.391V232.706H402.072V231.327H410.693V232.706H407.275V234.391ZM412.384 245.492V229.742H414.056V235.988H416.579V237.399H414.056V245.492H412.384ZM429.551 234.354V235.69H418.699V230.314H420.352V234.354H429.551ZM416.778 239.009V237.673H431.192V239.009H416.778ZM418.581 245.119V240.507H420.24V243.758H429.651V245.119H418.581ZM440.547 244.174C438.13 244.174 436.321 242.707 436.24 240.675H438.123C438.217 241.762 439.255 242.552 440.547 242.552C442.089 242.552 443.195 241.439 443.195 239.923C443.195 238.375 442.051 237.25 440.46 237.238C439.429 237.231 438.652 237.573 438.21 238.356H436.389L437.222 231.271H444.432V232.93H438.826L438.391 236.485H438.515C439.049 235.988 439.938 235.64 440.908 235.64C443.307 235.64 445.078 237.412 445.072 239.879C445.078 242.378 443.189 244.174 440.547 244.174ZM451.017 244.205C448.077 244.205 446.343 241.812 446.349 237.642C446.349 233.496 448.095 231.097 451.017 231.097C453.944 231.097 455.691 233.502 455.691 237.642C455.691 241.812 453.963 244.205 451.017 244.205ZM448.276 237.642C448.269 240.818 449.301 242.539 451.017 242.539C452.738 242.539 453.764 240.818 453.764 237.642C453.764 234.472 452.726 232.744 451.017 232.744C449.314 232.744 448.276 234.472 448.276 237.642ZM464.6 231.128V238.487H457.223V231.128H464.6ZM458.857 237.157H462.966V232.477H458.857V237.157ZM459.013 245.169V240.159H460.672V243.801H469.666V245.169H459.013ZM467.323 241.265V229.735H468.995V234.447H471.276V235.839H468.995V241.265H467.323ZM484.739 229.754V241.7H483.06V240.19H479.891V239.009H483.06V229.754H484.739ZM471.556 236.945C474.471 236.927 478.399 236.896 481.755 236.473L481.867 237.679C480.512 237.903 479.101 238.046 477.709 238.133V241.209H476.043V238.226C474.514 238.282 473.047 238.294 471.767 238.288L471.556 236.945ZM472.786 233.129C472.786 231.47 474.377 230.357 476.714 230.357C479.014 230.357 480.612 231.47 480.624 233.129C480.612 234.814 479.014 235.876 476.714 235.876C474.377 235.876 472.786 234.814 472.786 233.129ZM473.737 245.169V240.532H475.403V243.801H485.112V245.169H473.737ZM474.371 233.129C474.365 234.068 475.316 234.652 476.714 234.652C478.057 234.652 479.02 234.068 479.033 233.129C479.02 232.197 478.057 231.594 476.714 231.6C475.316 231.594 474.365 232.197 474.371 233.129ZM503.554 229.742V245.523H501.876V229.742H503.554ZM491.048 236.448C491.048 233.073 492.745 230.929 495.12 230.923C497.469 230.929 499.184 233.073 499.184 236.448C499.184 239.842 497.469 241.986 495.12 241.986C492.745 241.986 491.048 239.842 491.048 236.448ZM492.658 236.448C492.658 238.947 493.665 240.488 495.12 240.488C496.574 240.488 497.568 238.947 497.568 236.448C497.568 233.968 496.574 232.427 495.12 232.414C493.665 232.427 492.658 233.968 492.658 236.448ZM517.794 229.742V236.125H520.317V237.511H517.794V245.492H516.14V229.742H517.794ZM505.437 233.57V232.209H509.322V229.947H510.988V232.209H514.767V233.57H505.437ZM506.245 238.4C506.239 236.249 507.892 234.733 510.167 234.733C512.417 234.733 514.071 236.249 514.077 238.4C514.071 240.557 512.417 242.055 510.167 242.061C507.892 242.055 506.239 240.557 506.245 238.4ZM507.843 238.4C507.83 239.761 508.818 240.675 510.167 240.669C511.497 240.675 512.473 239.761 512.486 238.4C512.473 237.045 511.497 236.113 510.167 236.113C508.818 236.113 507.83 237.045 507.843 238.4ZM525.669 230.86C528.161 230.86 529.945 232.402 529.957 234.615C529.945 236.834 528.161 238.369 525.669 238.369C523.189 238.369 521.368 236.834 521.38 234.615C521.368 232.402 523.189 230.86 525.669 230.86ZM520.622 240.743C523.493 240.749 527.465 240.718 530.908 240.221L531.039 241.439C527.471 242.117 523.642 242.135 520.827 242.135L520.622 240.743ZM523.027 234.615C523.015 236.007 524.14 236.921 525.669 236.921C527.198 236.921 528.323 236.007 528.329 234.615C528.323 233.229 527.198 232.309 525.669 232.309C524.14 232.309 523.015 233.229 523.027 234.615ZM531.897 245.523V229.742H533.562V245.523H531.897ZM548.182 231.426V232.402C548.17 233.726 548.17 235.758 547.728 238.574L546.075 238.443C546.479 235.926 546.51 234.086 546.516 232.775H540.121V231.426H548.182ZM539.257 240.743C540.239 240.737 541.339 240.724 542.483 240.7V235.932H544.13V240.65C545.802 240.581 547.517 240.47 549.09 240.277L549.183 241.526C545.901 242.055 542.24 242.123 539.443 242.11L539.257 240.743ZM549.997 245.492V229.742H551.669V236.243H554.087V237.666H551.669V245.492H549.997ZM561.328 231.501V232.843H556.623V235.646H561.067V236.97H556.623V240.283C558.755 240.271 560.159 240.202 561.819 239.916L561.968 241.296C560.122 241.626 558.593 241.694 556.076 241.694H555.032V231.501H561.328ZM562.882 244.715V230.046H564.479V235.994H566.369V229.742H567.972V245.492H566.369V237.356H564.479V244.715H562.882ZM583.859 242.216V243.602H569.445V242.216H573.38V239.425H571.198V234.416H580.447V232.222H571.167V230.86H582.094V235.777H572.858V238.058H582.461V239.425H580.074V242.216H583.859ZM575.002 242.216H578.433V239.425H575.002V242.216ZM598.851 236.97V238.251H584.437V236.97H598.851ZM586.146 240.557V239.351H597.079V242.825H587.831V244.124H597.57V245.305H586.165V241.713H595.426V240.557H586.146ZM586.246 231.327V230.152H597.036V233.558H587.943V234.758H597.309V235.932H586.289V232.458H595.37V231.327H586.246ZM617.722 239.003V240.333H611.295V245.492H609.654V240.333H603.308V239.003H617.722ZM605.105 237.219V230.382H606.758V232.433H614.254V230.382H615.919V237.219H605.105ZM606.758 235.876H614.254V233.769H606.758V235.876ZM627.12 231.426V232.402C627.107 233.726 627.107 235.758 626.666 238.574L625.013 238.443C625.417 235.926 625.448 234.086 625.454 232.775H619.058V231.426H627.12ZM618.194 240.743C619.176 240.737 620.277 240.724 621.42 240.7V235.932H623.067V240.65C624.739 240.581 626.455 240.47 628.027 240.277L628.121 241.526C624.839 242.055 621.178 242.123 618.381 242.11L618.194 240.743ZM628.935 245.492V229.742H630.607V236.243H633.025V237.666H630.607V245.492H628.935ZM645.741 229.742V233.471H648.022V234.857H645.741V238.941H644.069V229.742H645.741ZM633.969 238.027V230.643H635.616V232.924H639.743V230.643H641.397V238.027H633.969ZM635.616 236.697H639.743V234.242H635.616V236.697ZM635.703 245.274V239.761H645.853V241.091H637.375V243.938H646.152V245.274H635.703ZM651.808 239.189V240.861H659.21V239.189H660.882V245.293H650.161V239.189H651.808ZM648.383 238.189V236.821H662.741V238.189H648.383ZM649.154 234.534C652.206 234.13 654.704 232.458 654.704 230.581V229.91H656.42V230.581C656.42 232.402 658.931 234.155 661.951 234.534L661.349 235.845C658.8 235.485 656.575 234.279 655.568 232.601C654.549 234.285 652.311 235.485 649.775 235.845L649.154 234.534ZM651.808 243.956H659.21V242.154H651.808V243.956ZM676.465 229.742V245.492H674.811V229.742H676.465ZM664.363 241.489V231.277H666.004V240.053C668.31 240.035 670.728 239.842 673.264 239.32L673.481 240.724C670.697 241.302 668.167 241.495 665.681 241.489H664.363ZM690.686 229.742V235.839H693.209V237.225H690.686V245.523H689.014V229.742H690.686ZM679.081 241.613V231.258H686.447V232.613H680.747V240.221C683.389 240.209 685.371 240.097 687.628 239.686L687.827 241.11C685.365 241.539 683.271 241.619 680.349 241.613H679.081ZM695.223 244.118C694.533 244.118 693.961 243.559 693.974 242.875C693.961 242.191 694.533 241.632 695.223 241.632C695.894 241.632 696.466 242.191 696.466 242.875C696.466 243.559 695.894 244.118 695.223 244.118Z" fill="#666666"/>
<path d="M41.3101 263.896C41.3101 261.469 41.9579 259.453 43.1906 257.732H44.5297C43.5773 259.008 42.8232 261.599 42.8232 263.896C42.8232 266.192 43.5773 268.788 44.5297 270.064H43.1906C41.9579 268.343 41.3101 266.323 41.3101 263.896ZM56.22 262.871V263.91H45.0383V262.871H49.9934V261.57H46.4306V257.476H54.8422V258.501H47.7165V260.531H54.9147V261.57H51.26V262.871H56.22ZM46.3581 266.936C46.3581 265.515 47.9534 264.713 50.6074 264.713C53.2469 264.713 54.8325 265.515 54.8422 266.936C54.8325 268.353 53.2469 269.151 50.6074 269.16C47.9534 269.151 46.3581 268.353 46.3581 266.936ZM47.6778 266.936C47.6682 267.72 48.7365 268.15 50.6074 268.14C52.4589 268.15 53.5369 267.72 53.5466 266.936C53.5369 266.158 52.4589 265.713 50.6074 265.713C48.7365 265.713 47.6682 266.158 47.6778 266.936ZM67.8851 261.981V263.016H62.9348V264.089H66.4686V266.961H59.3429V268.039H66.8215V269.044H58.0715V266.018H65.1924V265.08H58.0474V264.089H61.6344V263.016H56.7179V261.981H67.8851ZM58.144 261.077V257.302H66.4445V261.077H58.144ZM59.4154 260.057H65.1489V258.327H59.4154V260.057ZM79.6082 266.569V267.642H68.3975V266.569H73.3285V264.055H69.6738V257.747H70.9742V259.859H76.988V257.747H78.2788V264.055H74.6144V266.569H79.6082ZM70.9742 263.001H76.988V260.903H70.9742V263.001ZM90.6883 258.631V259.69H80.6041V258.631H85.0129V257.089H86.2892V258.631H90.6883ZM80.0772 267.787V266.724H85.0129V265.114C82.8617 264.974 81.5564 264.123 81.5661 262.76C81.5564 261.29 83.1227 260.42 85.6462 260.425C88.1455 260.42 89.7312 261.29 89.7312 262.76C89.7312 264.123 88.4162 264.969 86.2892 265.114V266.724H91.2878V267.787H80.0772ZM82.8859 262.76C82.881 263.615 83.9059 264.084 85.6462 264.089C87.372 264.084 88.4017 263.615 88.4066 262.76C88.4017 261.914 87.372 261.45 85.6462 261.45C83.9059 261.45 82.881 261.914 82.8859 262.76ZM93.6373 257.544V259.327H96.707V257.544H97.993V259.849H100.671V256.91H101.967V263.601H100.671V260.932H97.993V263.185H92.3369V257.544H93.6373ZM93.6373 262.136H96.707V260.343H93.6373V262.136ZM93.9805 268.991V264.176H95.2713V265.549H100.671V264.176H101.957V268.991H93.9805ZM95.2713 267.932H100.671V266.564H95.2713V267.932ZM116.939 256.91V269.16H115.706V256.91H116.939ZM106.251 265.791C107.986 264.737 108.871 262.508 108.871 260.328V259.347H106.628V258.288H112.235V259.347H110.123V260.328C110.123 262.426 110.969 264.519 112.69 265.51L111.916 266.468C110.742 265.767 109.939 264.519 109.514 263.04C109.079 264.64 108.247 266.008 107.053 266.753L106.251 265.791ZM111.322 262.305V261.251H113.231V257.171H114.454V268.541H113.231V262.305H111.322ZM118.322 266.066V264.853L122.692 258.099H124.558V264.795H125.902V266.066H124.558V268H123.122V266.066H118.322ZM119.898 264.795H123.132V259.888H123.026L119.898 264.718V264.795ZM127.34 268L131.758 259.463V259.39H126.653V258.099H133.32V259.439L128.911 268H127.34ZM145.205 266.564V267.633H133.995V266.564H138.94V263.664H140.241V266.564H145.205ZM134.512 263.108C136.789 262.721 138.901 261.019 138.901 259.148V259.037H134.923V257.959H144.234V259.037H140.255V259.148C140.255 261.019 142.377 262.687 144.712 263.05L144.185 264.075C142.208 263.702 140.386 262.557 139.588 260.947C138.795 262.576 136.987 263.751 135.039 264.133L134.512 263.108ZM156.179 256.91V269.16H154.946V256.91H156.179ZM145.491 265.791C147.226 264.737 148.111 262.508 148.111 260.328V259.347H145.868V258.288H151.475V259.347H149.363V260.328C149.363 262.426 150.209 264.519 151.93 265.51L151.156 266.468C149.982 265.767 149.179 264.519 148.754 263.04C148.319 264.64 147.487 266.008 146.293 266.753L145.491 265.791ZM150.562 262.305V261.251H152.471V257.171H153.694V268.541H152.471V262.305H150.562ZM161.284 268.135C159.239 268.135 157.779 267.033 157.726 265.414H159.249C159.302 266.284 160.167 266.84 161.27 266.84C162.469 266.84 163.339 266.187 163.334 265.23C163.339 264.249 162.527 263.548 161.105 263.548H160.264V262.32H161.105C162.236 262.32 163.024 261.691 163.024 260.744C163.024 259.835 162.348 259.226 161.303 259.226C160.308 259.226 159.423 259.777 159.384 260.671H157.934C157.982 259.061 159.466 257.964 161.318 257.964C163.261 257.964 164.489 259.197 164.48 260.666C164.489 261.783 163.793 262.595 162.73 262.852V262.929C164.073 263.117 164.861 264.026 164.852 265.283C164.861 266.932 163.339 268.135 161.284 268.135ZM175.295 256.91V260.227H177.069V261.324H175.295V264.771H173.995V256.91H175.295ZM165.685 259.255V258.23H168.692V256.823H169.982V258.23H172.975V259.255H165.685ZM166.352 261.991C166.347 260.681 167.546 259.816 169.335 259.816C171.099 259.816 172.298 260.681 172.303 261.991C172.298 263.311 171.099 264.166 169.335 264.162C167.546 264.166 166.347 263.311 166.352 261.991ZM167.319 267.014C167.309 265.66 168.851 264.867 171.379 264.867C173.879 264.867 175.431 265.66 175.431 267.014C175.431 268.348 173.879 269.141 171.379 269.141C168.851 269.141 167.309 268.348 167.319 267.014ZM167.604 261.991C167.594 262.726 168.29 263.175 169.335 263.175C170.369 263.175 171.065 262.726 171.075 261.991C171.065 261.251 170.369 260.782 169.335 260.773C168.29 260.782 167.594 261.251 167.604 261.991ZM168.605 267.014C168.595 267.729 169.62 268.155 171.379 268.145C173.115 268.155 174.135 267.729 174.135 267.014C174.135 266.269 173.115 265.873 171.379 265.873C169.62 265.873 168.595 266.269 168.605 267.014ZM187.855 256.91V269.16H186.622V256.91H187.855ZM177.166 265.791C178.902 264.737 179.786 262.508 179.786 260.328V259.347H177.543V258.288H183.151V259.347H181.038V260.328C181.038 262.426 181.884 264.519 183.605 265.51L182.832 266.468C181.657 265.767 180.855 264.519 180.429 263.04C179.994 264.64 179.163 266.008 177.969 266.753L177.166 265.791ZM182.237 262.305V261.251H184.147V257.171H185.37V268.541H184.147V262.305H182.237ZM193.206 258.099V268H191.698V259.608H191.64L189.276 261.15V259.714L191.737 258.099H193.206ZM205.496 258.631V259.69H195.412V258.631H199.821V257.089H201.097V258.631H205.496ZM194.885 267.787V266.724H199.821V265.114C197.669 264.974 196.364 264.123 196.374 262.76C196.364 261.29 197.93 260.42 200.454 260.425C202.953 260.42 204.539 261.29 204.539 262.76C204.539 264.123 203.224 264.969 201.097 265.114V266.724H206.095V267.787H194.885ZM197.694 262.76C197.689 263.615 198.714 264.084 200.454 264.089C202.18 264.084 203.209 263.615 203.214 262.76C203.209 261.914 202.18 261.45 200.454 261.45C198.714 261.45 197.689 261.914 197.694 262.76ZM208.764 267.043L207.667 270.823H206.506L207.236 267.043H208.764ZM223.906 262.871V263.91H212.724V262.871H217.68V261.57H214.117V257.476H222.528V258.501H215.403V260.531H222.601V261.57H218.946V262.871H223.906ZM214.044 266.936C214.044 265.515 215.639 264.713 218.293 264.713C220.933 264.713 222.519 265.515 222.528 266.936C222.519 268.353 220.933 269.151 218.293 269.16C215.639 269.151 214.044 268.353 214.044 266.936ZM215.364 266.936C215.354 267.72 216.423 268.15 218.293 268.14C220.145 268.15 221.223 267.72 221.233 266.936C221.223 266.158 220.145 265.713 218.293 265.713C216.423 265.713 215.354 266.158 215.364 266.936ZM235.571 261.981V263.016H230.621V264.089H234.155V266.961H227.029V268.039H234.508V269.044H225.758V266.018H232.878V265.08H225.733V264.089H229.32V263.016H224.404V261.981H235.571ZM225.83 261.077V257.302H234.131V261.077H225.83ZM227.102 260.057H232.835V258.327H227.102V260.057ZM247.294 266.569V267.642H236.084V266.569H241.015V264.055H237.36V257.747H238.66V259.859H244.674V257.747H245.965V264.055H242.3V266.569H247.294ZM238.66 263.001H244.674V260.903H238.66V263.001ZM258.374 258.631V259.69H248.29V258.631H252.699V257.089H253.975V258.631H258.374ZM247.763 267.787V266.724H252.699V265.114C250.548 264.974 249.243 264.123 249.252 262.76C249.243 261.29 250.809 260.42 253.332 260.425C255.832 260.42 257.417 261.29 257.417 262.76C257.417 264.123 256.102 264.969 253.975 265.114V266.724H258.974V267.787H247.763ZM250.572 262.76C250.567 263.615 251.592 264.084 253.332 264.089C255.058 264.084 256.088 263.615 256.093 262.76C256.088 261.914 255.058 261.45 253.332 261.45C251.592 261.45 250.567 261.914 250.572 262.76ZM261.323 257.544V259.327H264.393V257.544H265.679V259.849H268.357V256.91H269.653V263.601H268.357V260.932H265.679V263.185H260.023V257.544H261.323ZM261.323 262.136H264.393V260.343H261.323V262.136ZM261.667 268.991V264.176H262.957V265.549H268.357V264.176H269.643V268.991H261.667ZM262.957 267.932H268.357V266.564H262.957V267.932ZM278.616 260.028C278.607 262.267 279.955 264.519 281.855 265.356L281.072 266.39C279.665 265.718 278.553 264.34 277.978 262.663C277.413 264.456 276.286 265.941 274.821 266.651L274.019 265.568C275.948 264.708 277.301 262.368 277.311 260.028V257.93H278.616V260.028ZM282.962 269.184V256.91H284.268V269.184H282.962ZM296.237 256.91V264.64H295.009V261.218H293.588V264.215H292.375V257.147H293.588V260.149H295.009V256.91H296.237ZM285.732 259.337V258.312H288.198V257.007H289.484V258.312H291.925V259.337H285.732ZM286.211 262.02C286.206 260.739 287.299 259.907 288.836 259.907C290.397 259.907 291.48 260.739 291.49 262.02C291.48 263.287 290.397 264.113 288.836 264.113C287.299 264.113 286.206 263.287 286.211 262.02ZM287.366 262.02C287.366 262.711 287.966 263.171 288.836 263.166C289.716 263.171 290.31 262.711 290.315 262.02C290.31 261.314 289.716 260.86 288.836 260.86C287.966 260.86 287.366 261.314 287.366 262.02ZM287.99 266.99C287.98 265.602 289.547 264.819 292.147 264.819C294.743 264.819 296.305 265.602 296.305 266.99C296.305 268.358 294.743 269.141 292.147 269.141C289.547 269.141 287.98 268.358 287.99 266.99ZM289.281 266.99C289.271 267.729 290.32 268.15 292.147 268.14C293.97 268.15 295.004 267.729 295.009 266.99C295.004 266.216 293.97 265.805 292.147 265.815C290.32 265.805 289.271 266.216 289.281 266.99ZM303.31 257.592V261.14H299.273V262.803C301.405 262.798 302.565 262.745 303.938 262.499L304.064 263.557C302.57 263.818 301.313 263.867 298.872 263.862H297.987V260.135H302.024V258.646H297.963V257.592H303.31ZM299.447 266.951C299.438 265.506 301.013 264.66 303.6 264.66C306.176 264.66 307.738 265.506 307.743 266.951C307.738 268.396 306.176 269.218 303.6 269.218C301.013 269.218 299.438 268.396 299.447 266.951ZM300.757 266.951C300.748 267.768 301.792 268.208 303.6 268.208C305.388 268.208 306.462 267.768 306.462 266.951C306.462 266.124 305.388 265.67 303.6 265.67C301.792 265.67 300.748 266.124 300.757 266.951ZM304.107 262.31V261.251H306.389V259.806H304.107V258.747H306.389V256.92H307.69V264.452H306.389V262.31H304.107ZM322.662 256.91V269.16H321.429V256.91H322.662ZM311.974 265.791C313.709 264.737 314.594 262.508 314.594 260.328V259.347H312.351V258.288H317.958V259.347H315.846V260.328C315.846 262.426 316.692 264.519 318.413 265.51L317.639 266.468C316.465 265.767 315.662 264.519 315.237 263.04C314.802 264.64 313.97 266.008 312.776 266.753L311.974 265.791ZM317.045 262.305V261.251H318.954V257.171H320.177V268.541H318.954V262.305H317.045ZM324.257 268L324.253 266.907L327.685 263.441C328.773 262.315 329.314 261.691 329.319 260.821C329.314 259.845 328.521 259.226 327.482 259.226C326.384 259.226 325.684 259.917 325.684 260.976H324.253C324.248 259.163 325.626 257.964 327.511 257.964C329.42 257.964 330.74 259.173 330.75 260.778C330.74 261.885 330.218 262.769 328.362 264.592L326.351 266.637V266.709H330.909V268H324.257ZM335.606 268.16C333.319 268.16 331.97 266.298 331.975 263.055C331.975 259.83 333.333 257.964 335.606 257.964C337.883 257.964 339.241 259.835 339.241 263.055C339.241 266.298 337.897 268.16 335.606 268.16ZM333.474 263.055C333.469 265.525 334.271 266.864 335.606 266.864C336.945 266.864 337.742 265.525 337.742 263.055C337.742 260.589 336.935 259.245 335.606 259.245C334.281 259.245 333.474 260.589 333.474 263.055ZM351.174 266.564V267.633H339.964V266.564H344.909V263.664H346.209V266.564H351.174ZM340.481 263.108C342.758 262.721 344.87 261.019 344.87 259.148V259.037H340.892V257.959H350.203V259.037H346.224V259.148C346.224 261.019 348.346 262.687 350.681 263.05L350.154 264.075C348.177 263.702 346.355 262.557 345.557 260.947C344.764 262.576 342.956 263.751 341.008 264.133L340.481 263.108ZM362.148 256.91V269.16H360.915V256.91H362.148ZM351.46 265.791C353.195 264.737 354.08 262.508 354.08 260.328V259.347H351.837V258.288H357.444V259.347H355.332V260.328C355.332 262.426 356.178 264.519 357.899 265.51L357.125 266.468C355.951 265.767 355.148 264.519 354.723 263.04C354.288 264.64 353.456 266.008 352.262 266.753L351.46 265.791ZM356.531 262.305V261.251H358.44V257.171H359.663V268.541H358.44V262.305H356.531ZM367.5 258.099V268H365.991V259.608H365.933L363.569 261.15V259.714L366.03 258.099H367.5ZM378.803 256.91V260.227H380.577V261.324H378.803V264.771H377.503V256.91H378.803ZM369.193 259.255V258.23H372.2V256.823H373.49V258.23H376.483V259.255H369.193ZM369.86 261.991C369.855 260.681 371.054 259.816 372.843 259.816C374.607 259.816 375.806 260.681 375.811 261.991C375.806 263.311 374.607 264.166 372.843 264.162C371.054 264.166 369.855 263.311 369.86 261.991ZM370.827 267.014C370.817 265.66 372.359 264.867 374.887 264.867C377.387 264.867 378.939 265.66 378.939 267.014C378.939 268.348 377.387 269.141 374.887 269.141C372.359 269.141 370.817 268.348 370.827 267.014ZM371.112 261.991C371.102 262.726 371.798 263.175 372.843 263.175C373.877 263.175 374.573 262.726 374.583 261.991C374.573 261.251 373.877 260.782 372.843 260.773C371.798 260.782 371.102 261.251 371.112 261.991ZM372.113 267.014C372.103 267.729 373.128 268.155 374.887 268.145C376.623 268.155 377.643 267.729 377.643 267.014C377.643 266.269 376.623 265.873 374.887 265.873C373.128 265.873 372.103 266.269 372.113 267.014ZM390.319 257.689V262.731H384.489V257.689H390.319ZM385.296 268.126C387.54 267.903 389.285 266.782 389.357 265.684H385.799V264.698H389.386V263.562H390.682V264.698H394.283V265.684H390.706C390.778 266.758 392.49 267.869 394.728 268.126L394.283 269.126C392.364 268.894 390.778 268.068 390.039 266.99C389.29 268.082 387.68 268.89 385.751 269.126L385.296 268.126ZM385.765 261.706H389.038V258.723H385.765V261.706ZM392.717 263.915V256.91H393.998V263.915H392.717ZM408.734 256.91V263.282H407.448V261.827H404.77V262.832H399.114V257.466H400.414V259.119H403.484V257.466H404.77V258.597H407.448V256.91H408.734ZM400.414 261.798H403.484V260.125H400.414V261.798ZM400.723 264.848V263.828H408.734V266.845H402.038V267.966H409.169V269.006H400.747V265.868H407.448V264.848H400.723ZM404.77 260.821H407.448V259.593H404.77V260.821ZM421.424 266.651V267.71H410.213V266.651H413.22V263.93H411.194V262.866H413.022V259.057H411.165V257.998H420.399V259.057H418.523V262.866H420.36V263.93H418.344V266.651H421.424ZM414.312 262.866H417.247V259.057H414.312V262.866ZM414.52 266.651H417.044V263.93H414.52V266.651ZM435.395 256.91V269.16H434.163V256.91H435.395ZM424.707 265.791C426.442 264.737 427.327 262.508 427.327 260.328V259.347H425.084V258.288H430.692V259.347H428.579V260.328C428.579 262.426 429.425 264.519 431.146 265.51L430.373 266.468C429.198 265.767 428.395 264.519 427.97 263.04C427.535 264.64 426.703 266.008 425.509 266.753L424.707 265.791ZM429.778 262.305V261.251H431.688V257.171H432.911V268.541H431.688V262.305H429.778ZM436.991 268L436.986 266.907L440.418 263.441C441.506 262.315 442.047 261.691 442.052 260.821C442.047 259.845 441.255 259.226 440.215 259.226C439.118 259.226 438.417 259.917 438.417 260.976H436.986C436.981 259.163 438.359 257.964 440.244 257.964C442.154 257.964 443.474 259.173 443.483 260.778C443.474 261.885 442.951 262.769 441.095 264.592L439.084 266.637V266.709H443.643V268H436.991ZM455.088 258.631V259.69H445.003V258.631H449.412V257.089H450.688V258.631H455.088ZM444.476 267.787V266.724H449.412V265.114C447.261 264.974 445.956 264.123 445.965 262.76C445.956 261.29 447.522 260.42 450.045 260.425C452.545 260.42 454.13 261.29 454.13 262.76C454.13 264.123 452.815 264.969 450.688 265.114V266.724H455.687V267.787H444.476ZM447.285 262.76C447.28 263.615 448.305 264.084 450.045 264.089C451.771 264.084 452.801 263.615 452.806 262.76C452.801 261.914 451.771 261.45 450.045 261.45C448.305 261.45 447.28 261.914 447.285 262.76ZM462.354 258.124V266.086H456.62V258.124H462.354ZM457.891 265.037H461.058V259.153H457.891V265.037ZM464.398 269.16V256.91H465.699V261.711H467.662V262.808H465.699V269.16H464.398ZM477.577 257.418V261.619H474.057V263.045H479.003V264.094H467.836V263.045H472.767V261.619H469.257V257.418H477.577ZM469.073 266.284V265.254H477.63V269.16H476.325V266.284H469.073ZM470.528 260.579H476.296V258.443H470.528V260.579ZM482.749 263.896C482.749 266.323 482.102 268.338 480.869 270.059H479.53C480.482 268.783 481.236 266.192 481.236 263.896C481.236 261.599 480.482 259.003 479.53 257.727H480.869C482.102 259.448 482.749 261.469 482.749 263.896Z" fill="#9D9D9D"/>
<path d="M52.5652 117.271V130H50.626V119.21H50.5514L47.512 121.193V119.347L50.6757 117.271H52.5652ZM58.6469 130.118C57.957 130.118 57.3852 129.559 57.3976 128.875C57.3852 128.191 57.957 127.632 58.6469 127.632C59.3182 127.632 59.89 128.191 59.89 128.875C59.89 129.559 59.3182 130.118 58.6469 130.118ZM81.9606 123.405V124.742H67.5843V123.405H73.9551V121.733H69.3743V116.469H80.1892V117.787H71.0276V120.397H80.2825V121.733H75.5836V123.405H81.9606ZM69.2811 128.633C69.2811 126.805 71.3322 125.773 74.7445 125.773C78.1381 125.773 80.1768 126.805 80.1892 128.633C80.1768 130.454 78.1381 131.479 74.7445 131.492C71.3322 131.479 69.2811 130.454 69.2811 128.633ZM70.9779 128.633C70.9655 129.64 72.3391 130.193 74.7445 130.18C77.125 130.193 78.511 129.64 78.5235 128.633C78.511 127.632 77.125 127.06 74.7445 127.06C72.3391 127.06 70.9655 127.632 70.9779 128.633ZM96.9586 122.262V123.592H90.594V124.972H95.1375V128.664H85.9759V130.05H95.5912V131.343H84.3412V127.452H93.4966V126.246H84.3101V124.972H88.922V123.592H82.6009V122.262H96.9586ZM84.4345 121.099V116.245H95.1064V121.099H84.4345ZM86.0691 119.788H93.4407V117.563H86.0691V119.788ZM111.994 123.138V124.518H97.6175V123.138H111.994ZM99.3144 128.608C99.3144 126.78 101.365 125.749 104.778 125.749C108.171 125.749 110.21 126.78 110.223 128.608C110.21 130.441 108.171 131.467 104.778 131.467C101.365 131.467 99.3144 130.441 99.3144 128.608ZM99.4076 121.771V116.307H110.223V117.669H101.061V120.422H110.316V121.771H99.4076ZM101.011 128.608C100.999 129.621 102.372 130.168 104.778 130.168C107.158 130.168 108.544 129.621 108.557 128.608C108.544 127.607 107.158 127.048 104.778 127.035C102.372 127.048 100.999 127.607 101.011 128.608ZM127.023 124.338V125.699H112.609V124.338H118.999V122.846H114.462V118.837H123.542V117.432H114.418V116.108H125.208V120.074H116.115V121.535H125.531V122.846H120.64V124.338H127.023ZM114.225 128.135V126.793H125.295V131.367H123.617V128.135H114.225ZM144.632 115.754V127.396H142.967V123.3H139.523V124.773H132.251V116.792H133.923V119.465H137.87V116.792H139.523V118.564H142.967V115.754H144.632ZM133.923 123.43H137.87V120.758H133.923V123.43ZM134.346 131.169V126.252H136.03V129.801H144.987V131.169H134.346ZM139.523 121.939H142.967V119.925H139.523V121.939ZM159.649 115.754V125.09H157.983V123.157H154.012V121.789H157.983V119.875H154.173C153.154 122.405 150.792 124.195 147.38 125.177L146.708 123.859C150.45 122.796 152.619 120.789 152.911 118.253H147.523V116.885H154.726C154.726 117.47 154.67 118.023 154.565 118.551H157.983V115.754H159.649ZM149.151 128.328C149.151 126.42 151.233 125.258 154.465 125.258C157.654 125.258 159.742 126.42 159.749 128.328C159.742 130.242 157.654 131.417 154.465 131.417C151.233 131.417 149.151 130.242 149.151 128.328ZM150.811 128.328C150.811 129.441 152.215 130.081 154.465 130.081C156.672 130.081 158.077 129.441 158.083 128.328C158.077 127.209 156.672 126.569 154.465 126.575C152.215 126.569 150.811 127.209 150.811 128.328ZM174.604 115.754V127.29H172.932V115.754H174.604ZM161.626 123.741C164.093 122.827 165.554 120.565 165.554 118.184V116.631H167.263V118.184C167.251 120.484 168.717 122.604 171.142 123.443L170.284 124.773C168.469 124.108 167.126 122.771 166.424 121.062C165.728 122.89 164.367 124.35 162.521 125.052L161.626 123.741ZM164.298 131.169V126.209H165.976V129.801H175.063V131.169H164.298ZM189.297 117.258V118.8C189.291 120.751 189.291 122.927 188.694 126.159L187.016 125.972C187.619 122.927 187.619 120.695 187.631 118.8V118.613H178.066V117.258H189.297ZM176.555 129.366V127.986H182.012V122.43H183.666V127.986H190.913V129.366H176.555ZM197.253 119.751C197.247 122.635 198.863 125.506 201.268 126.588L200.261 127.93C198.465 127.029 197.11 125.251 196.42 123.095C195.724 125.363 194.35 127.278 192.542 128.216L191.485 126.874C193.921 125.705 195.55 122.666 195.562 119.751V117.053H197.253V119.751ZM199.54 122.33V120.975H203.052V115.742H204.705V131.523H203.052V122.33H199.54ZM207.689 124.723C207.689 121.603 208.522 119.011 210.107 116.798H211.828C210.604 118.439 209.634 121.771 209.634 124.723C209.634 127.675 210.604 131.013 211.828 132.654H210.107C208.522 130.441 207.689 127.843 207.689 124.723ZM226.859 123.405V124.742H212.482V123.405H218.853V121.733H214.272V116.469H225.087V117.787H215.926V120.397H225.18V121.733H220.481V123.405H226.859ZM214.179 128.633C214.179 126.805 216.23 125.773 219.642 125.773C223.036 125.773 225.075 126.805 225.087 128.633C225.075 130.454 223.036 131.479 219.642 131.492C216.23 131.479 214.179 130.454 214.179 128.633ZM215.876 128.633C215.863 129.64 217.237 130.193 219.642 130.18C222.023 130.193 223.409 129.64 223.421 128.633C223.409 127.632 222.023 127.06 219.642 127.06C217.237 127.06 215.863 127.632 215.876 128.633ZM241.857 122.262V123.592H235.492V124.972H240.035V128.664H230.874V130.05H240.489V131.343H229.239V127.452H238.395V126.246H229.208V124.972H233.82V123.592H227.499V122.262H241.857ZM229.332 121.099V116.245H240.004V121.099H229.332ZM230.967 119.788H238.339V117.563H230.967V119.788ZM256.929 128.16V129.54H242.515V128.16H248.855V124.928H244.156V116.817H245.828V119.533H253.56V116.817H255.22V124.928H250.509V128.16H256.929ZM245.828 123.573H253.56V120.876H245.828V123.573ZM271.175 117.954V119.316H258.21V117.954H263.878V115.972H265.519V117.954H271.175ZM257.532 129.727V128.359H263.878V126.289C261.112 126.109 259.434 125.015 259.446 123.262C259.434 121.373 261.448 120.254 264.692 120.26C267.906 120.254 269.944 121.373 269.944 123.262C269.944 125.015 268.254 126.103 265.519 126.289V128.359H271.946V129.727H257.532ZM261.143 123.262C261.137 124.363 262.455 124.965 264.692 124.972C266.911 124.965 268.235 124.363 268.241 123.262C268.235 122.175 266.911 121.578 264.692 121.578C262.455 121.578 261.137 122.175 261.143 123.262ZM274.967 116.556V118.849H278.913V116.556H280.567V119.521H284.01V115.742H285.676V124.344H284.01V120.913H280.567V123.809H273.295V116.556H274.967ZM274.967 122.461H278.913V120.155H274.967V122.461ZM275.408 131.274V125.084H277.067V126.849H284.01V125.084H285.663V131.274H275.408ZM277.067 129.913H284.01V128.154H277.067V129.913ZM297.2 119.751C297.188 122.628 298.922 125.525 301.365 126.6L300.358 127.93C298.549 127.066 297.119 125.295 296.38 123.138C295.653 125.444 294.204 127.352 292.321 128.266L291.289 126.874C293.769 125.767 295.51 122.759 295.522 119.751V117.053H297.2V119.751ZM302.788 131.523V115.742H304.466V131.523H302.788ZM319.856 115.742V125.68H318.277V121.28H316.45V125.133H314.89V116.046H316.45V119.906H318.277V115.742H319.856ZM306.35 118.862V117.544H309.519V115.866H311.173V117.544H314.312V118.862H306.35ZM306.965 122.311C306.959 120.664 308.363 119.595 310.34 119.595C312.347 119.595 313.74 120.664 313.752 122.311C313.74 123.94 312.347 125.003 310.34 125.003C308.363 125.003 306.959 123.94 306.965 122.311ZM308.45 122.311C308.45 123.2 309.221 123.791 310.34 123.785C311.471 123.791 312.236 123.2 312.242 122.311C312.236 121.404 311.471 120.82 310.34 120.82C309.221 120.82 308.45 121.404 308.45 122.311ZM309.252 128.701C309.24 126.917 311.254 125.91 314.597 125.91C317.935 125.91 319.943 126.917 319.943 128.701C319.943 130.46 317.935 131.467 314.597 131.467C311.254 131.467 309.24 130.46 309.252 128.701ZM310.912 128.701C310.899 129.652 312.248 130.193 314.597 130.18C316.941 130.193 318.271 129.652 318.277 128.701C318.271 127.706 316.941 127.178 314.597 127.191C312.248 127.178 310.899 127.706 310.912 128.701ZM333.865 116.705V117.861C333.865 119.247 333.865 121.025 333.43 123.555H335.811V124.922H332.138V131.485H330.478V124.922H326.705V131.485H325.033V124.922H321.453V123.555H331.734C332.212 121.174 332.237 119.427 332.243 118.085H323.249V116.705H333.865ZM342.319 119.204C342.312 121.131 343.872 122.914 346.296 123.617L345.501 124.916C343.642 124.369 342.244 123.206 341.523 121.709C340.821 123.343 339.422 124.617 337.539 125.22L336.718 123.909C339.167 123.126 340.653 121.249 340.653 119.204V118.924H337.16V117.581H340.653V115.673H342.337V117.581H345.805V118.924H342.319V119.204ZM338.857 127.532V126.177H349.535V131.492H347.863V127.532H338.857ZM347.863 125.413V115.742H349.535V125.413H347.863ZM368.456 115.742V123.934H366.802V122.063H363.359V123.356H356.087V116.456H357.759V118.582H361.706V116.456H363.359V117.911H366.802V115.742H368.456ZM357.759 122.026H361.706V119.875H357.759V122.026ZM358.157 125.948V124.636H368.456V128.515H359.847V129.956H369.015V131.293H358.188V127.259H366.802V125.948H358.157ZM363.359 120.77H366.802V119.191H363.359V120.77ZM376.15 120.391C376.15 123.02 377.878 125.742 380.302 126.774L379.389 128.092C377.53 127.271 376.063 125.531 375.33 123.443C374.597 125.68 373.117 127.595 371.29 128.483L370.314 127.166C372.688 126.059 374.447 123.095 374.46 120.391V118.706H370.867V117.327H379.743V118.706H376.15V120.391ZM381.726 131.492V115.742H383.404V131.492H381.726ZM402.735 115.742V131.492H401.15V115.742H402.735ZM388.993 127.16C391.224 125.805 392.361 122.939 392.361 120.136V118.874H389.477V117.513H396.687V118.874H393.971V120.136C393.971 122.834 395.059 125.525 397.272 126.799L396.277 128.03C394.767 127.128 393.735 125.525 393.188 123.623C392.629 125.68 391.56 127.439 390.024 128.396L388.993 127.16ZM395.513 122.678V121.323H397.968V116.077H399.54V130.696H397.968V122.678H395.513ZM409.616 117.271V130H407.676V119.21H407.602L404.562 121.193V119.347L407.726 117.271H409.616ZM425.417 117.954V119.316H412.451V117.954H418.12V115.972H419.761V117.954H425.417ZM411.774 129.727V128.359H418.12V126.289C415.354 126.109 413.676 125.015 413.688 123.262C413.676 121.373 415.69 120.254 418.934 120.26C422.147 120.254 424.186 121.373 424.186 123.262C424.186 125.015 422.495 126.103 419.761 126.289V128.359H426.187V129.727H411.774ZM415.385 123.262C415.379 124.363 416.696 124.965 418.934 124.972C421.153 124.965 422.477 124.363 422.483 123.262C422.477 122.175 421.153 121.578 418.934 121.578C416.696 121.578 415.379 122.175 415.385 123.262ZM432.471 119.751C432.465 122.635 434.081 125.506 436.487 126.588L435.48 127.93C433.683 127.029 432.328 125.251 431.638 123.095C430.942 125.363 429.569 127.278 427.76 128.216L426.703 126.874C429.14 125.705 430.768 122.666 430.781 119.751V117.053H432.471V119.751ZM434.759 122.33V120.975H438.27V115.742H439.924V131.523H438.27V122.33H434.759ZM447.532 118.004C447.519 120.186 449.005 122.187 451.429 122.989L450.59 124.307C448.768 123.666 447.401 122.392 446.692 120.745C445.99 122.51 444.604 123.903 442.739 124.574L441.882 123.262C444.343 122.398 445.822 120.26 445.822 118.004V116.494H447.532V118.004ZM444.194 127.302V125.948H454.872V131.492H453.2V127.302H444.194ZM453.2 125.195V115.742H454.872V125.195H453.2ZM460.982 124.723C460.982 127.843 460.149 130.435 458.564 132.648H456.842C458.067 131.007 459.036 127.675 459.036 124.723C459.036 121.771 458.067 118.433 456.842 116.792H458.564C460.149 119.005 460.982 121.603 460.982 124.723ZM46.4678 160L46.4616 158.595L50.8746 154.139C52.2731 152.691 52.9692 151.889 52.9754 150.77C52.9692 149.515 51.9499 148.719 50.6135 148.719C49.2026 148.719 48.3014 149.608 48.3014 150.969H46.4616C46.4554 148.638 48.2268 147.097 50.6508 147.097C53.1059 147.097 54.8028 148.651 54.8152 150.714C54.8028 152.137 54.1315 153.275 51.7447 155.618L49.1591 158.247V158.34H55.0203V160H46.4678ZM58.6469 160.118C57.957 160.118 57.3852 159.559 57.3976 158.875C57.3852 158.191 57.957 157.632 58.6469 157.632C59.3182 157.632 59.89 158.191 59.89 158.875C59.89 159.559 59.3182 160.118 58.6469 160.118ZM81.9606 153.405V154.742H67.5843V153.405H73.9551V151.733H69.3743V146.469H80.1892V147.787H71.0276V150.397H80.2825V151.733H75.5836V153.405H81.9606ZM69.2811 158.633C69.2811 156.805 71.3322 155.773 74.7445 155.773C78.1381 155.773 80.1768 156.805 80.1892 158.633C80.1768 160.454 78.1381 161.479 74.7445 161.492C71.3322 161.479 69.2811 160.454 69.2811 158.633ZM70.9779 158.633C70.9655 159.64 72.3391 160.193 74.7445 160.18C77.125 160.193 78.511 159.64 78.5235 158.633C78.511 157.632 77.125 157.06 74.7445 157.06C72.3391 157.06 70.9655 157.632 70.9779 158.633ZM96.9586 152.262V153.592H90.594V154.972H95.1375V158.664H85.9759V160.05H95.5912V161.343H84.3412V157.452H93.4966V156.246H84.3101V154.972H88.922V153.592H82.6009V152.262H96.9586ZM84.4345 151.099V146.245H95.1064V151.099H84.4345ZM86.0691 149.788H93.4407V147.563H86.0691V149.788ZM111.994 153.138V154.518H97.6175V153.138H111.994ZM99.3144 158.608C99.3144 156.78 101.365 155.749 104.778 155.749C108.171 155.749 110.21 156.78 110.223 158.608C110.21 160.441 108.171 161.467 104.778 161.467C101.365 161.467 99.3144 160.441 99.3144 158.608ZM99.4076 151.771V146.307H110.223V147.669H101.061V150.422H110.316V151.771H99.4076ZM101.011 158.608C100.999 159.621 102.372 160.168 104.778 160.168C107.158 160.168 108.544 159.621 108.557 158.608C108.544 157.607 107.158 157.048 104.778 157.035C102.372 157.048 100.999 157.607 101.011 158.608ZM127.023 154.338V155.699H112.609V154.338H118.999V152.846H114.462V148.837H123.542V147.432H114.418V146.108H125.208V150.074H116.115V151.535H125.531V152.846H120.64V154.338H127.023ZM114.225 158.135V156.793H125.295V161.367H123.617V158.135H114.225ZM142.009 153.157V154.518H127.651V153.157H142.009ZM128.403 151.019C131.256 150.708 133.506 149.434 133.705 147.892H128.962V146.519H140.716V147.892H135.948C136.135 149.421 138.366 150.708 141.275 151.019L140.672 152.33C137.937 152.019 135.681 150.876 134.817 149.198C133.96 150.869 131.716 152.019 128.981 152.33L128.403 151.019ZM129.348 158.608C129.348 156.78 131.399 155.73 134.811 155.73C138.205 155.73 140.243 156.78 140.256 158.608C140.243 160.441 138.205 161.467 134.811 161.467C131.399 161.467 129.348 160.441 129.348 158.608ZM131.044 158.608C131.032 159.608 132.406 160.149 134.811 160.149C137.192 160.149 138.578 159.608 138.59 158.608C138.578 157.595 137.192 157.048 134.811 157.035C132.406 157.048 131.032 157.595 131.044 158.608ZM50.713 190.174C48.0838 190.174 46.2068 188.757 46.1384 186.675H48.0963C48.1646 187.794 49.2772 188.508 50.6943 188.508C52.2358 188.508 53.3545 187.669 53.3483 186.439C53.3545 185.177 52.3103 184.276 50.483 184.276H49.4015V182.697H50.483C51.9374 182.697 52.9505 181.889 52.9505 180.671C52.9505 179.502 52.0804 178.719 50.7378 178.719C49.4574 178.719 48.32 179.427 48.2703 180.577H46.4057C46.4678 178.508 48.376 177.097 50.7565 177.097C53.2551 177.097 54.8338 178.682 54.8214 180.571C54.8338 182.007 53.9388 183.051 52.5714 183.381V183.48C54.2993 183.722 55.3124 184.891 55.3 186.507C55.3124 188.626 53.3545 190.174 50.713 190.174ZM58.6469 190.118C57.957 190.118 57.3852 189.559 57.3976 188.875C57.3852 188.191 57.957 187.632 58.6469 187.632C59.3182 187.632 59.89 188.191 59.89 188.875C59.89 189.559 59.3182 190.118 58.6469 190.118ZM81.9606 183.138V184.518H67.5843V183.138H81.9606ZM69.2811 188.608C69.2811 186.78 71.3322 185.749 74.7445 185.749C78.1381 185.749 80.1768 186.78 80.1892 188.608C80.1768 190.441 78.1381 191.467 74.7445 191.467C71.3322 191.467 69.2811 190.441 69.2811 188.608ZM69.3743 181.771V176.307H80.1892V177.669H71.0276V180.422H80.2825V181.771H69.3743ZM70.9779 188.608C70.9655 189.621 72.3391 190.168 74.7445 190.168C77.125 190.168 78.511 189.621 78.5235 188.608C78.511 187.607 77.125 187.048 74.7445 187.035C72.3391 187.048 70.9655 187.607 70.9779 188.608ZM96.9897 184.338V185.699H82.576V184.338H88.9655V182.846H84.4282V178.837H93.509V177.432H84.3847V176.108H95.1748V180.074H86.0816V181.535H95.498V182.846H90.6064V184.338H96.9897ZM84.1921 188.135V186.793H95.2618V191.367H93.5836V188.135H84.1921ZM111.994 183.405V184.742H97.6175V183.405H103.988V181.733H99.4076V176.469H110.223V177.787H101.061V180.397H110.316V181.733H105.617V183.405H111.994ZM99.3144 188.633C99.3144 186.805 101.365 185.773 104.778 185.773C108.171 185.773 110.21 186.805 110.223 188.633C110.21 190.454 108.171 191.479 104.778 191.492C101.365 191.479 99.3144 190.454 99.3144 188.633ZM101.011 188.633C100.999 189.64 102.372 190.193 104.778 190.18C107.158 190.193 108.544 189.64 108.557 188.633C108.544 187.632 107.158 187.06 104.778 187.06C102.372 187.06 100.999 187.632 101.011 188.633ZM126.992 182.262V183.592H120.627V184.972H125.171V188.664H116.009V190.05H125.625V191.343H114.375V187.452H123.53V186.246H114.343V184.972H118.955V183.592H112.634V182.262H126.992ZM114.468 181.099V176.245H125.14V181.099H114.468ZM116.102 179.788H123.474V177.563H116.102V179.788ZM132.779 176.86C135.271 176.86 137.055 178.402 137.067 180.615C137.055 182.834 135.271 184.369 132.779 184.369C130.299 184.369 128.477 182.834 128.49 180.615C128.477 178.402 130.299 176.86 132.779 176.86ZM127.732 186.743C130.603 186.749 134.575 186.718 138.018 186.221L138.149 187.439C134.581 188.117 130.752 188.135 127.937 188.135L127.732 186.743ZM130.137 180.615C130.125 182.007 131.25 182.921 132.779 182.921C134.308 182.921 135.433 182.007 135.439 180.615C135.433 179.229 134.308 178.309 132.779 178.309C131.25 178.309 130.125 179.229 130.137 180.615ZM139.006 191.523V175.742H140.672V191.523H139.006ZM160.14 175.742V191.492H158.536V175.742H160.14ZM146.348 186.345C146.808 186.345 147.33 186.345 147.889 186.333V179.023H146.671V177.656H153.9V179.023H152.682V186.146C153.216 186.109 153.732 186.059 154.204 186.003L154.316 187.253C151.874 187.675 148.604 187.731 146.541 187.744L146.348 186.345ZM149.394 186.308C149.978 186.289 150.574 186.271 151.165 186.24V179.023H149.394V186.308ZM153.533 184.829V183.455H155.478V181.566H153.533V180.192H155.478V176.102H157.039V190.684H155.478V184.829H153.533ZM166.996 179.751C166.983 182.535 168.612 185.388 170.949 186.532L169.923 187.868C168.202 186.979 166.872 185.214 166.182 183.113C165.479 185.351 164.099 187.234 162.309 188.166L161.271 186.824C163.689 185.655 165.324 182.641 165.336 179.751V177.053H166.996V179.751ZM172.136 191.492V175.742H173.808V182.026H176.331V183.449H173.808V191.492H172.136ZM194.768 183.157V184.518H180.41V183.157H194.768ZM181.162 181.019C184.015 180.708 186.265 179.434 186.464 177.892H181.721V176.519H193.475V177.892H188.707C188.894 179.421 191.125 180.708 194.034 181.019L193.431 182.33C190.696 182.019 188.44 180.876 187.576 179.198C186.719 180.869 184.475 182.019 181.74 182.33L181.162 181.019ZM182.107 188.608C182.107 186.78 184.158 185.73 187.57 185.73C190.964 185.73 193.002 186.78 193.015 188.608C193.002 190.441 190.964 191.467 187.57 191.467C184.158 191.467 182.107 190.441 182.107 188.608ZM183.803 188.608C183.791 189.608 185.165 190.149 187.57 190.149C189.951 190.149 191.337 189.608 191.349 188.608C191.337 187.595 189.951 187.048 187.57 187.035C185.165 187.048 183.791 187.595 183.803 188.608ZM208.554 175.742V185.04H206.888V182.709H203.451V183.996H196.135V176.929H203.451V178.222H206.888V175.742H208.554ZM197.788 182.647H201.816V178.265H197.788V182.647ZM197.956 188.49C197.944 186.581 199.97 185.475 203.277 185.475C206.577 185.475 208.597 186.581 208.603 188.49C208.597 190.392 206.577 191.467 203.277 191.467C199.97 191.467 197.944 190.392 197.956 188.49ZM199.609 188.49C199.597 189.546 200.971 190.168 203.277 190.168C205.576 190.168 206.944 189.546 206.95 188.49C206.944 187.383 205.576 186.78 203.277 186.768C200.971 186.78 199.597 187.383 199.609 188.49ZM203.451 181.342H206.888V179.564H203.451V181.342ZM219.979 179.751C219.972 182.635 221.588 185.506 223.994 186.588L222.987 187.93C221.191 187.029 219.836 185.251 219.146 183.095C218.45 185.363 217.076 187.278 215.267 188.216L214.211 186.874C216.647 185.705 218.276 182.666 218.288 179.751V177.053H219.979V179.751ZM222.266 182.33V180.975H225.778V175.742H227.431V191.523H225.778V182.33H222.266ZM243.703 185.09V186.414H240.079V191.492H238.401V186.414H234.597V191.492H232.932V186.414H229.289V185.09H243.703ZM231.005 177.675V176.307H241.994V180.528H232.727V182.262H242.342V183.623H231.042V179.272H240.291V177.675H231.005Z" fill="#666666"/>
</svg>
