<svg width="1520" height="120" viewBox="0 0 1520 120" fill="none" xmlns="http://www.w3.org/2000/svg">
<path d="M0 0H1520V104C1520 112.837 1512.84 120 1504 120H16C7.16342 120 0 112.837 0 104V0Z" fill="#FFF6F2"/>
<path d="M53.3508 37.7417V43.7831H55.3087V45.1941H53.3508V53.4917H51.6975V37.7417H53.3508ZM40.8329 49.7376V39.1899H42.2376V43.1243H43.8971V39.1899H45.2831V49.7376H40.8329ZM42.2376 48.3515H43.8971V44.4544H42.2376V48.3515ZM46.0725 49.7376V39.1899H47.4523V43.1243H49.087V39.1899H50.4793V49.7376H46.0725ZM47.4523 48.3515H49.087V44.4544H47.4523V48.3515ZM69.9897 46.3999V47.7548H55.576V46.3999H69.9897ZM57.3847 39.538V38.2203H68.1748V42.2666H59.0816V43.808H68.498V45.0884H57.4282V41.0421H66.509V39.538H57.3847ZM57.4593 53.1685V48.8674H59.1375V51.8011H68.5166V53.1685H57.4593ZM80.2525 41.7507C80.24 44.6285 81.9741 47.5249 84.4168 48.6001L83.4099 49.9302C81.6012 49.0663 80.1717 47.2949 79.432 45.1381C78.7048 47.4441 77.2566 49.3522 75.3733 50.2659L74.3415 48.8736C76.8215 47.7673 78.5618 44.759 78.5743 41.7507V39.0532H80.2525V41.7507ZM85.8402 53.5228V37.7417H87.5183V53.5228H85.8402ZM93.9514 38.2825C96.3195 38.2887 98.0661 39.7431 98.0785 41.8128C98.0661 43.8764 96.3195 45.3184 93.9514 45.3184C91.5522 45.3184 89.8057 43.8764 89.8057 41.8128C89.8057 39.7431 91.5522 38.2887 93.9514 38.2825ZM91.4341 41.8128C91.4217 43.1057 92.497 43.9634 93.9514 43.9634C95.3934 43.9634 96.4625 43.1057 96.4625 41.8128C96.4625 40.5262 95.3934 39.6623 93.9514 39.6685C92.497 39.6623 91.4217 40.5262 91.4341 41.8128ZM92.1924 47.8108V46.4869H102.554V50.4461H93.8644V51.9565H103.07V53.2928H92.2422V49.203H100.894V47.8108H92.1924ZM100.882 45.7597V37.7417H102.554V45.7597H100.882ZM121.847 37.7417V53.4917H120.231V45.4302H118.224V52.6837H116.658V38.0649H118.224V44.0442H120.231V37.7417H121.847ZM109.093 49.489V39.6001H110.765V48.0221C112.22 47.9972 113.805 47.8854 115.588 47.5373L115.775 48.9917C113.612 49.3833 111.809 49.489 110.113 49.489H109.093ZM136.92 37.7417V53.4917H135.316V37.7417H136.92ZM123.551 44.5414C123.551 41.1354 124.887 39.0035 126.938 39.0035C128.852 39.0035 130.151 40.8184 130.35 43.7769H132.128V38.0463H133.719V52.7148H132.128V45.1319H130.356C130.201 48.2086 128.89 50.1105 126.938 50.1043C124.887 50.1105 123.551 47.9662 123.551 44.5414ZM125.104 44.5414C125.092 47.0525 125.807 48.5256 126.938 48.5131C128.1 48.5256 128.821 47.0525 128.821 44.5414C128.821 42.0366 128.1 40.5698 126.938 40.5698C125.807 40.5698 125.092 42.0366 125.104 44.5414ZM147.742 40.6506C147.742 42.6457 149.134 44.4731 151.527 45.2376L150.732 46.5428C148.936 45.9648 147.63 44.7776 146.94 43.2797C146.257 45.0014 144.871 46.3688 142.975 47.0276L142.123 45.6975C144.578 44.8833 146.064 42.8446 146.076 40.663V40.2279H142.608V38.8729H151.142V40.2279H147.742V40.6506ZM144.249 50.5083C144.249 48.6561 146.257 47.5808 149.532 47.5808C152.783 47.5808 154.766 48.6561 154.766 50.5083C154.766 52.3791 152.783 53.4669 149.532 53.4669C146.257 53.4669 144.249 52.3791 144.249 50.5083ZM145.921 50.5083C145.909 51.5587 147.257 52.1492 149.532 52.1492C151.801 52.1492 153.131 51.5587 153.131 50.5083C153.131 49.4765 151.801 48.8985 149.532 48.9047C147.257 48.8985 145.909 49.4765 145.921 50.5083ZM152.951 47.1954V37.7417H154.623V41.6388H156.904V43.0186H154.623V47.1954H152.951ZM163.194 39.4137V45.0635H159.371V48.3702C160.913 48.3515 162.417 48.2583 164.213 47.9662L164.344 49.3336C162.274 49.6816 160.627 49.75 158.781 49.7562H157.762V43.7272H161.578V40.7624H157.737V39.4137H163.194ZM164.027 47.0525V45.6913H166.003V43.1367H164.027V41.7818H166.003V38.0401H167.588V52.6837H166.003V47.0525H164.027ZM169.186 53.4917V37.7417H170.771V53.4917H169.186ZM186.67 44.9703V46.2507H172.256V44.9703H186.67ZM173.965 48.5566V47.3508H184.898V50.8253H175.65V52.1243H185.389V53.3052H173.984V49.7127H183.245V48.5566H173.965ZM174.065 39.3267V38.1519H184.855V41.558H175.762V42.7576H185.128V43.9323H174.108V40.4579H183.189V39.3267H174.065ZM196.982 41.0235C196.982 43.0746 198.486 44.989 200.923 45.7535L200.071 47.0649C198.256 46.4682 196.883 45.2251 196.168 43.6464C195.459 45.3619 194.061 46.7169 192.184 47.3819L191.32 46.058C193.775 45.2251 195.285 43.1865 195.298 41.0235V40.346H191.755V38.9972H200.45V40.346H196.982V41.0235ZM193.912 53.1685V48.1713H195.59V51.8011H204.677V53.1685H193.912ZM202.545 49.2528V37.7541H204.217V49.2528H202.545ZM219.588 37.7417V47.6802H218.009V43.2797H216.182V47.1333H214.622V38.0463H216.182V41.9061H218.009V37.7417H219.588ZM206.082 40.8619V39.5442H209.252V37.866H210.905V39.5442H214.044V40.8619H206.082ZM206.697 44.3115C206.691 42.6644 208.096 41.5953 210.072 41.5953C212.08 41.5953 213.472 42.6644 213.484 44.3115C213.472 45.9399 212.08 47.0028 210.072 47.0028C208.096 47.0028 206.691 45.9399 206.697 44.3115ZM208.183 44.3115C208.183 45.2003 208.953 45.7907 210.072 45.7845C211.203 45.7907 211.968 45.2003 211.974 44.3115C211.968 43.404 211.203 42.8198 210.072 42.8198C208.953 42.8198 208.183 43.404 208.183 44.3115ZM208.984 50.701C208.972 48.9171 210.986 47.9102 214.33 47.9102C217.667 47.9102 219.675 48.9171 219.675 50.701C219.675 52.4599 217.667 53.4669 214.33 53.4669C210.986 53.4669 208.972 52.4599 208.984 50.701ZM210.644 50.701C210.631 51.6519 211.98 52.1927 214.33 52.1802C216.673 52.1927 218.003 51.6519 218.009 50.701C218.003 49.7065 216.673 49.1782 214.33 49.1906C211.98 49.1782 210.631 49.7065 210.644 50.701ZM233.455 37.7417V44.125H235.978V45.511H233.455V53.4917H231.801V37.7417H233.455ZM221.098 41.5704V40.2093H224.983V37.9468H226.649V40.2093H230.428V41.5704H221.098ZM221.906 46.3999C221.9 44.2493 223.554 42.7327 225.828 42.7327C228.078 42.7327 229.732 44.2493 229.738 46.3999C229.732 48.5566 228.078 50.0546 225.828 50.0608C223.554 50.0546 221.9 48.5566 221.906 46.3999ZM223.504 46.3999C223.491 47.761 224.48 48.6747 225.828 48.6685C227.158 48.6747 228.134 47.761 228.147 46.3999C228.134 45.0449 227.158 44.1126 225.828 44.1126C224.48 44.1126 223.491 45.0449 223.504 46.3999ZM248.95 42.3536V43.6899H238.098V38.3135H239.751V42.3536H248.95ZM236.177 47.009V45.6727H250.591V47.009H236.177ZM237.98 53.1188V48.5069H239.639V51.7576H249.049V53.1188H237.98ZM268.2 37.7541V48.3453H266.535V43.4786H263.303V42.0925H266.535V37.7541H268.2ZM255.303 46.1077C259.001 44.989 261.115 42.9565 261.425 40.3273H256.105V38.9786H263.216C263.203 43.0932 260.649 45.971 256.03 47.4316L255.303 46.1077ZM256.963 52.1119C259.934 51.6333 262.178 49.8432 262.184 47.6989V47.0338H263.843V47.6989C263.837 49.8246 266.068 51.5773 269.033 52.0808L268.343 53.4109C265.957 52.9758 263.961 51.7825 263.01 50.0546C262.047 51.7887 260.033 52.9883 257.628 53.442L256.963 52.1119ZM277.256 38.0028C280.805 38.0028 282.875 38.9599 282.875 40.7065C282.875 42.4779 280.805 43.4351 277.256 43.4475C273.707 43.4351 271.625 42.4779 271.625 40.7065C271.625 38.9599 273.707 38.0028 277.256 38.0028ZM270.09 45.741V44.4047H284.448V45.741H270.09ZM271.799 48.2023V46.953H282.626V50.6388H273.465V52.0497H283.08V53.3425H271.83V49.4392H280.986V48.2023H271.799ZM273.372 40.7065C273.359 41.6885 274.751 42.192 277.256 42.192C279.78 42.192 281.166 41.6885 281.166 40.7065C281.166 39.7866 279.78 39.2396 277.256 39.2459C274.751 39.2396 273.359 39.7866 273.372 40.7065ZM302.144 37.7541V49.6443H300.447V47.587H297.11V46.2569H300.447V37.7541H302.144ZM288.849 43.895C290.826 43.8888 293.287 43.8639 295.73 43.7086C295.991 42.105 296.053 40.8681 296.072 39.9917H290.279V38.6492H297.737V39.2583C297.737 40.1036 297.737 41.5704 297.408 43.5718C297.986 43.5159 298.558 43.4475 299.117 43.3729L299.235 44.5787C297.824 44.8211 296.351 44.9765 294.909 45.076V48.6188H293.256V45.1692C291.752 45.2314 290.316 45.2438 289.073 45.2438L288.849 43.895ZM291.155 53.1685V48.3515H292.821V51.8011H302.523V53.1685H291.155ZM309.472 40.6506C309.472 42.6457 310.864 44.4731 313.257 45.2376L312.462 46.5428C310.666 45.9648 309.36 44.7776 308.67 43.2797C307.987 45.0014 306.601 46.3688 304.705 47.0276L303.853 45.6975C306.308 44.8833 307.794 42.8446 307.806 40.663V40.2279H304.338V38.8729H312.872V40.2279H309.472V40.6506ZM305.979 50.5083C305.979 48.6561 307.987 47.5808 311.262 47.5808C314.513 47.5808 316.496 48.6561 316.496 50.5083C316.496 52.3791 314.513 53.4669 311.262 53.4669C307.987 53.4669 305.979 52.3791 305.979 50.5083ZM307.651 50.5083C307.639 51.5587 308.987 52.1492 311.262 52.1492C313.531 52.1492 314.861 51.5587 314.861 50.5083C314.861 49.4765 313.531 48.8985 311.262 48.9047C308.987 48.8985 307.639 49.4765 307.651 50.5083ZM314.681 47.1954V37.7417H316.353V41.6388H318.634V43.0186H316.353V47.1954H314.681ZM331.748 45.2189V46.5801H320.784V39.1588H331.612V40.5262H322.431V45.2189H331.748ZM318.994 51.4157V50.0297H333.408V51.4157H318.994ZM347.076 37.7541V46.4434H345.404V37.7541H347.076ZM334.807 39.8488V38.5H342.041V42.8943H336.466V44.7528C339.226 44.7403 341.246 44.6844 343.639 44.2804L343.85 45.6416C341.277 46.058 339.133 46.1326 336.149 46.1388H334.838V41.6015H340.388V39.8488H334.807ZM336.727 53.2928V47.1892H338.399V48.8923H345.416V47.1892H347.076V53.2928H336.727ZM338.399 51.9378H345.416V50.2037H338.399V51.9378ZM362.093 37.7417V53.4917H360.439V37.7417H362.093ZM349.991 49.489V39.2769H351.632V48.0532C353.938 48.0345 356.356 47.8419 358.892 47.3198L359.109 48.7244C356.325 49.3025 353.795 49.4952 351.309 49.489H349.991ZM376.314 37.7417V43.8391H378.837V45.2251H376.314V53.5228H374.642V37.7417H376.314ZM364.709 49.6133V39.2583H372.075V40.6133H366.375V48.221C369.017 48.2086 370.999 48.0967 373.256 47.6865L373.454 49.1098C370.993 49.5387 368.899 49.6195 365.977 49.6133H364.709ZM380.851 52.1181C380.161 52.1181 379.589 51.5587 379.602 50.875C379.589 50.1913 380.161 49.6319 380.851 49.6319C381.522 49.6319 382.094 50.1913 382.094 50.875C382.094 51.5587 381.522 52.1181 380.851 52.1181ZM392.368 41.7507C392.355 44.5352 393.984 47.3881 396.321 48.5318L395.295 49.8681C393.574 48.9793 392.243 47.2141 391.554 45.1133C390.851 47.3508 389.471 49.2341 387.681 50.1664L386.643 48.8239C389.061 47.6554 390.696 44.6409 390.708 41.7507V39.0532H392.368V41.7507ZM397.508 53.4917V37.7417H399.18V44.0256H401.703V45.4489H399.18V53.4917H397.508ZM415.054 37.7417V47.1146H413.389V43.1305H410.449V41.7569H413.389V37.7417H415.054ZM401.933 45.6975C404.37 44.8398 405.868 42.7141 405.868 40.5387V40.1906H402.449V38.8294H410.952V40.1906H407.558V40.5262C407.558 42.5214 408.982 44.4606 411.356 45.2624L410.505 46.5925C408.733 45.9772 407.434 44.7155 406.75 43.1616C406.06 44.9206 404.681 46.3315 402.797 47.0214L401.933 45.6975ZM404.457 50.5269C404.444 48.6499 406.471 47.5559 409.777 47.5559C413.078 47.5559 415.098 48.6499 415.104 50.5269C415.098 52.3978 413.078 53.4793 409.777 53.4917C406.471 53.4793 404.444 52.3978 404.457 50.5269ZM406.11 50.5269C406.098 51.5836 407.471 52.1927 409.777 52.1802C412.077 52.1927 413.444 51.5836 413.451 50.5269C413.444 49.4579 412.077 48.8488 409.777 48.8488C407.471 48.8488 406.098 49.4579 406.11 50.5269ZM422.364 40.2652C422.364 42.3287 423.818 44.2493 426.168 45.02L425.279 46.3315C423.551 45.7224 422.258 44.4979 421.568 42.9441C420.891 44.7093 419.554 46.0953 417.721 46.7728L416.82 45.4489C419.275 44.5725 420.698 42.4655 420.71 40.1222V38.5622H422.364V40.2652ZM418.945 50.5331C418.945 48.6996 420.959 47.6181 424.228 47.6181C427.473 47.6181 429.462 48.6996 429.462 50.5331C429.462 52.404 427.473 53.4669 424.228 53.4669C420.959 53.4669 418.945 52.404 418.945 50.5331ZM420.617 50.5331C420.605 51.5773 421.954 52.143 424.228 52.1554C426.497 52.143 427.827 51.5773 427.827 50.5331C427.827 49.5325 426.497 48.942 424.228 48.942C421.954 48.942 420.605 49.5325 420.617 50.5331ZM427.647 47.2452V37.7417H429.319V41.7072H431.6V43.0994H429.319V47.2452H427.647ZM441.31 40.6506C441.31 42.6457 442.702 44.4731 445.095 45.2376L444.299 46.5428C442.503 45.9648 441.198 44.7776 440.508 43.2797C439.824 45.0014 438.438 46.3688 436.542 47.0276L435.691 45.6975C438.146 44.8833 439.631 42.8446 439.644 40.663V40.2279H436.176V38.8729H444.709V40.2279H441.31V40.6506ZM437.816 50.5083C437.816 48.6561 439.824 47.5808 443.1 47.5808C446.35 47.5808 448.333 48.6561 448.333 50.5083C448.333 52.3791 446.35 53.4669 443.1 53.4669C439.824 53.4669 437.816 52.3791 437.816 50.5083ZM439.488 50.5083C439.476 51.5587 440.825 52.1492 443.1 52.1492C445.368 52.1492 446.698 51.5587 446.698 50.5083C446.698 49.4765 445.368 48.8985 443.1 48.9047C440.825 48.8985 439.476 49.4765 439.488 50.5083ZM446.518 47.1954V37.7417H448.19V41.6388H450.471V43.0186H448.19V47.1954H446.518ZM456.761 39.4137V45.0635H452.939V48.3702C454.48 48.3515 455.984 48.2583 457.781 47.9662L457.911 49.3336C455.841 49.6816 454.194 49.75 452.348 49.7562H451.329V43.7272H455.145V40.7624H451.304V39.4137H456.761ZM457.594 47.0525V45.6913H459.571V43.1367H457.594V41.7818H459.571V38.0401H461.156V52.6837H459.571V47.0525H457.594ZM462.753 53.4917V37.7417H464.338V53.4917H462.753ZM480.237 44.9703V46.2507H465.823V44.9703H480.237ZM467.533 48.5566V47.3508H478.466V50.8253H469.217V52.1243H478.957V53.3052H467.551V49.7127H476.812V48.5566H467.533ZM467.632 39.3267V38.1519H478.422V41.558H469.329V42.7576H478.696V43.9323H467.676V40.4579H476.756V39.3267H467.632ZM492.98 39.2521V49.6008H485.59V39.2521H492.98ZM487.243 48.2583H491.358V40.576H487.243V48.2583ZM496.088 53.5228V37.7417H497.766V53.5228H496.088ZM512.919 37.7541V53.4979H511.253V50.1105H507.767V48.8052H511.253V37.7541H512.919ZM499.68 46.4993C502.875 46.5055 506.716 46.4744 510.11 46.1575L510.228 47.4006C508.705 47.5932 507.151 47.7175 505.622 47.7921V52.9883H503.956V47.8605C502.539 47.904 501.166 47.9164 499.885 47.9164L499.68 46.4993ZM500.923 39.8612V38.5932H508.91V42.4282H502.645V43.7956H509.19V45.0884H500.961V41.2037H507.226V39.8612H500.923ZM518.967 38.9227C521.323 38.9289 523.001 41.0732 523.013 44.4482C523.001 47.8419 521.323 49.9862 518.967 49.9862C516.611 49.9862 514.933 47.8419 514.945 44.4482C514.933 41.0732 516.611 38.9289 518.967 38.9227ZM516.537 44.4482C516.537 46.9468 517.531 48.4883 518.967 48.4883C520.434 48.4883 521.403 46.9468 521.41 44.4482C521.403 41.9682 520.434 40.4268 518.967 40.4144C517.531 40.4268 516.537 41.9682 516.537 44.4482ZM525.35 53.4917V37.7417H527.022V41.6015H529.465V43.0124H527.022V46.2818H529.465V47.6616H527.022V53.4917H525.35ZM545.999 37.7541V42.8198H548.28V44.212H545.999V49.5449H544.327V37.7541H545.999ZM533.643 40.9365V39.5939H537.509V37.7479H539.168V39.5939H543.016V40.9365H533.643ZM534.5 44.6782C534.494 42.8695 536.048 41.6948 538.335 41.6948C540.591 41.6948 542.145 42.8695 542.152 44.6782C542.145 46.4558 540.591 47.6181 538.335 47.6181C536.048 47.6181 534.494 46.4558 534.5 44.6782ZM536.017 53.1685V48.6064H537.676V51.8011H546.67V53.1685H536.017ZM536.11 44.6782C536.098 45.6975 536.993 46.3253 538.335 46.3191C539.665 46.3253 540.56 45.6975 540.573 44.6782C540.56 43.634 539.665 42.9876 538.335 42.9876C536.993 42.9876 536.098 43.634 536.11 44.6782ZM560.91 37.7417V43.8391H563.433V45.2251H560.91V53.5228H559.238V37.7417H560.91ZM549.306 49.6133V39.2583H556.671V40.6133H550.971V48.221C553.613 48.2086 555.596 48.0967 557.852 47.6865L558.051 49.1098C555.589 49.5387 553.495 49.6195 550.574 49.6133H549.306ZM571.681 39.0843V40.4206H575.119V37.7541H576.784V49.2341H575.119V45.1568H571.681V46.5428H564.366V39.0843H571.681ZM566.019 45.2189H570.047V40.433H566.019V45.2189ZM566.498 53.1685V48.1899H568.182V51.8011H577.139V53.1685H566.498ZM571.681 43.8018H575.119V41.7942H571.681V43.8018ZM594.903 37.7541V42.4033H597.184V43.8018H594.903V49.3336H593.231V37.7541H594.903ZM583.131 46.7231V38.8791H584.778V41.4088H588.905V38.8791H590.559V46.7231H583.131ZM584.778 45.393H588.905V42.7141H584.778V45.393ZM584.921 53.1685V48.1837H586.581V51.8011H595.575V53.1685H584.921ZM610.66 37.7417V53.5228H609.006V46.9344H605.923V45.5421H609.006V42.6333H606.01V41.2535H609.006V37.7417H610.66ZM598.08 40.489V39.134H605.06V44.8833H599.783V48.5007C602.008 48.4883 603.891 48.395 606.141 48.0532L606.284 49.433C603.816 49.8184 601.803 49.893 599.316 49.893H598.129V43.5594H603.425V40.489H598.08ZM626.938 45.4054V46.7417H612.562V45.4054H618.933V43.7334H614.352V38.4689H625.167V39.7866H616.005V42.3971H625.26V43.7334H620.561V45.4054H626.938ZM614.258 50.6326C614.258 48.8052 616.31 47.7735 619.722 47.7735C623.116 47.7735 625.154 48.8052 625.167 50.6326C625.154 52.4537 623.116 53.4793 619.722 53.4917C616.31 53.4793 614.258 52.4537 614.258 50.6326ZM615.955 50.6326C615.943 51.6395 617.317 52.1927 619.722 52.1802C622.102 52.1927 623.488 51.6395 623.501 50.6326C623.488 49.6319 622.102 49.0601 619.722 49.0601C617.317 49.0601 615.943 49.6319 615.955 50.6326ZM641.936 44.2617V45.5919H635.571V46.9717H640.115V50.6637H630.953V52.0497H640.569V53.3425H629.319V49.4517H638.474V48.2459H629.288V46.9717H633.899V45.5919H627.578V44.2617H641.936ZM629.412 43.0994V38.2452H640.084V43.0994H629.412ZM631.047 41.788H638.418V39.5628H631.047V41.788ZM647.723 38.8605C650.215 38.8605 651.999 40.4019 652.011 42.6146C651.999 44.8336 650.215 46.3688 647.723 46.3688C645.243 46.3688 643.422 44.8336 643.434 42.6146C643.422 40.4019 645.243 38.8605 647.723 38.8605ZM642.676 48.7431C645.547 48.7493 649.519 48.7182 652.962 48.221L653.093 49.4392C649.525 50.1167 645.696 50.1354 642.881 50.1354L642.676 48.7431ZM645.081 42.6146C645.069 44.0069 646.194 44.9206 647.723 44.9206C649.252 44.9206 650.377 44.0069 650.383 42.6146C650.377 41.2286 649.252 40.3087 647.723 40.3087C646.194 40.3087 645.069 41.2286 645.081 42.6146ZM653.951 53.5228V37.7417H655.616V53.5228H653.951ZM674.531 37.7541V49.2901H672.859V37.7541H674.531ZM661.553 45.741C664.021 44.8273 665.481 42.5649 665.481 40.1844V38.6305H667.191V40.1844C667.178 42.4841 668.645 44.6036 671.069 45.4427L670.211 46.7728C668.396 46.1077 667.054 44.7714 666.352 43.0622C665.655 44.8895 664.294 46.3501 662.448 47.0525L661.553 45.741ZM664.226 53.1685V48.2086H665.904V51.8011H674.991V53.1685H664.226ZM681.194 42.5711C681.194 45.0573 682.338 47.5808 684.513 48.7493L683.575 49.9862C682.052 49.172 680.995 47.6678 680.423 45.884C679.858 47.7921 678.801 49.4392 677.278 50.3467L676.296 49.0912C678.484 47.8108 679.609 45.1195 679.622 42.5711V41.9372H676.781V40.576H679.622V38.3073H681.194V40.576H683.991V41.9372H681.194V42.5711ZM682.953 45.2624V43.8764H685.222V38.0773H686.794V52.6961H685.222V45.2624H682.953ZM688.404 53.4917V37.7417H689.989V53.4917H688.404ZM700.482 38.7362C702.974 38.7486 704.758 40.2776 704.77 42.4903C704.758 44.4544 703.359 45.8715 701.308 46.1761V48.6561C702.794 48.5815 704.304 48.4572 705.721 48.2459L705.852 49.4641C702.284 50.1291 698.455 50.1478 695.64 50.1478L695.435 48.7742C696.678 48.7742 698.12 48.768 699.643 48.7244V46.1699C697.604 45.8653 696.181 44.4482 696.193 42.4903C696.181 40.2776 698.002 38.7486 700.482 38.7362ZM697.84 42.4903C697.828 43.8764 698.953 44.8087 700.482 44.7963C702.011 44.8087 703.136 43.8764 703.142 42.4903C703.136 41.0856 702.011 40.1844 700.482 40.1844C698.953 40.1844 697.828 41.0856 697.84 42.4903ZM706.71 53.5228V37.7417H708.375V53.5228H706.71ZM724.759 47.0028V48.3329H718.333V53.4917H716.692V48.3329H710.346V47.0028H724.759ZM712.142 45.2189V38.3819H713.795V40.433H721.291V38.3819H722.957V45.2189H712.142ZM713.795 43.8764H721.291V41.7693H713.795V43.8764ZM738.931 37.7417V53.4917H737.327V37.7417H738.931ZM725.561 44.5414C725.561 41.1354 726.898 39.0035 728.949 39.0035C730.863 39.0035 732.162 40.8184 732.361 43.7769H734.139V38.0463H735.73V52.7148H734.139V45.1319H732.367C732.212 48.2086 730.9 50.1105 728.949 50.1043C726.898 50.1105 725.561 47.9662 725.561 44.5414ZM727.115 44.5414C727.103 47.0525 727.817 48.5256 728.949 48.5131C730.111 48.5256 730.832 47.0525 730.832 44.5414C730.832 42.0366 730.111 40.5698 728.949 40.5698C727.817 40.5698 727.103 42.0366 727.115 44.5414ZM749.678 40.2652C749.678 42.3287 751.133 44.2493 753.482 45.02L752.593 46.3315C750.865 45.7224 749.573 44.4979 748.883 42.9441C748.205 44.7093 746.869 46.0953 745.035 46.7728L744.134 45.4489C746.589 44.5725 748.013 42.4655 748.025 40.1222V38.5622H749.678V40.2652ZM746.26 50.5331C746.26 48.6996 748.274 47.6181 751.543 47.6181C754.787 47.6181 756.776 48.6996 756.776 50.5331C756.776 52.404 754.787 53.4669 751.543 53.4669C748.274 53.4669 746.26 52.404 746.26 50.5331ZM747.932 50.5331C747.919 51.5773 749.268 52.143 751.543 52.1554C753.812 52.143 755.142 51.5773 755.142 50.5331C755.142 49.5325 753.812 48.942 751.543 48.942C749.268 48.942 747.919 49.5325 747.932 50.5331ZM754.961 47.2452V37.7417H756.633V41.7072H758.914V43.0994H756.633V47.2452H754.961ZM772.415 37.7417V53.5228H770.743V45.337H767.492V43.9758H770.743V37.7417H772.415ZM759.269 49.1906C761.656 48.0905 763.216 45.3992 763.216 42.8011V41.7693H759.716V40.4268H763.222V38.0525H764.888V40.4268H768.312V41.7693H764.863V42.8011C764.863 45.2997 766.466 47.8481 768.878 48.9171L767.958 50.2099C766.156 49.4144 764.763 47.761 764.061 45.7845C763.377 47.8791 761.997 49.6381 760.189 50.4772L759.269 49.1906ZM786.561 37.7417V44.0193H789.004V45.4178H786.561V53.4731H784.889V37.7417H786.561ZM774.298 49.2776C778.251 47.3073 780.389 44.4606 780.743 40.7873H775.087V39.4075H782.44C782.428 43.951 780.42 48.0159 775.23 50.5704L774.298 49.2776ZM796.513 46.9717V48.799H798.987V46.9717H800.528V53.2928H794.953V46.9717H796.513ZM793.393 42.0552C793.38 39.8985 795.108 38.4068 797.514 38.4068C799.59 38.4068 801.193 39.5753 801.548 41.3405H804.624V37.7417H806.29V46.0829H804.624V42.7203H801.554C801.224 44.5228 799.608 45.7162 797.514 45.7162C795.108 45.7162 793.38 44.2244 793.393 42.0552ZM794.978 42.0552C794.978 43.4102 796.028 44.3425 797.514 44.355C798.974 44.3425 800.019 43.4102 800.019 42.0552C800.019 40.7065 798.974 39.7928 797.514 39.7928C796.028 39.7928 794.978 40.7065 794.978 42.0552ZM796.513 52H798.987V50.0608H796.513V52ZM800.609 52.1616C802.505 51.3785 803.437 49.7189 803.449 48.1588V46.8598H805.103V48.1588C805.09 49.8059 806.016 51.4717 807.956 52.1616L807.092 53.4171C805.668 52.8764 804.749 51.8446 804.257 50.5953C803.742 51.8198 802.815 52.8577 801.461 53.4171L800.609 52.1616ZM815.346 38.0028C818.895 38.0028 820.965 38.9599 820.965 40.7065C820.965 42.4779 818.895 43.4351 815.346 43.4475C811.797 43.4351 809.715 42.4779 809.715 40.7065C809.715 38.9599 811.797 38.0028 815.346 38.0028ZM808.179 45.741V44.4047H822.537V45.741H808.179ZM809.889 48.2023V46.953H820.716V50.6388H811.554V52.0497H821.17V53.3425H809.92V49.4392H819.075V48.2023H809.889ZM811.461 40.7065C811.449 41.6885 812.841 42.192 815.346 42.192C817.869 42.192 819.255 41.6885 819.255 40.7065C819.255 39.7866 817.869 39.2396 815.346 39.2459C812.841 39.2396 811.449 39.7866 811.461 40.7065ZM840.178 37.7541V47.0898H838.512V45.1568H834.54V43.7894H838.512V41.875H834.702C833.683 44.4047 831.321 46.1948 827.908 47.1768L827.237 45.8591C830.979 44.7963 833.148 42.7887 833.44 40.2528H828.051V38.8854H835.255C835.255 39.4696 835.199 40.0228 835.094 40.5511H838.512V37.7541H840.178ZM829.68 50.328C829.68 48.4199 831.762 47.2576 834.994 47.2576C838.183 47.2576 840.271 48.4199 840.277 50.328C840.271 52.2424 838.183 53.4171 834.994 53.4171C831.762 53.4171 829.68 52.2424 829.68 50.328ZM831.339 50.328C831.339 51.4406 832.744 52.0808 834.994 52.0808C837.201 52.0808 838.605 51.4406 838.611 50.328C838.605 49.2093 837.201 48.5691 834.994 48.5753C832.744 48.5691 831.339 49.2093 831.339 50.328ZM856.456 46.692V48.078H850.029V53.4979H848.388V48.078H842.042V46.692H856.456ZM843.615 41.8377C843.615 39.6934 845.884 38.3446 849.215 38.3322C852.547 38.3446 854.834 39.6934 854.834 41.8377C854.834 43.9572 852.547 45.2997 849.215 45.2997C845.884 45.2997 843.615 43.9572 843.615 41.8377ZM845.33 41.8377C845.318 43.1492 846.878 43.9634 849.215 43.9634C851.558 43.9634 853.112 43.1492 853.112 41.8377C853.112 40.5138 851.558 39.6872 849.215 39.6872C846.878 39.6872 845.318 40.5138 845.33 41.8377ZM859.912 50.7693L858.501 55.6298H857.009L857.948 50.7693H859.912ZM46.2652 71.7507C46.259 74.6347 47.875 77.5062 50.2804 78.5877L49.2735 79.9302C47.4772 79.029 46.1222 77.2514 45.4323 75.0946C44.7362 77.3633 43.3626 79.2776 41.5539 80.2162L40.4972 78.8736C42.9337 77.7051 44.5622 74.6657 44.5746 71.7507V69.0532H46.2652V71.7507ZM48.5525 74.3301V72.9751H52.0642V67.7417H53.7175V83.5228H52.0642V74.3301H48.5525ZM68.3115 71.328V72.683H57.4966V67.9717H59.1313V71.328H68.3115ZM55.576 75.4116V74.0628H69.9897V75.4116H55.576ZM57.335 77.9724V76.6671H68.181V80.5207H59.038V81.9751H68.7218V83.2928H57.3661V79.2901H66.5401V77.9724H57.335ZM82.9925 67.7541V72.8198H85.2736V74.212H82.9925V79.5449H81.3206V67.7541H82.9925ZM70.6362 70.9365V69.5939H74.5022V67.7479H76.1617V69.5939H80.0091V70.9365H70.6362ZM71.4939 74.6782C71.4877 72.8695 73.0416 71.6948 75.3289 71.6948C77.5851 71.6948 79.1389 72.8695 79.1452 74.6782C79.1389 76.4558 77.5851 77.6181 75.3289 77.6181C73.0416 77.6181 71.4877 76.4558 71.4939 74.6782ZM73.0105 83.1685V78.6064H74.67V81.8011H83.6638V83.1685H73.0105ZM73.1037 74.6782C73.0913 75.6975 73.9863 76.3253 75.3289 76.3191C76.659 76.3253 77.554 75.6975 77.5664 74.6782C77.554 73.634 76.659 72.9876 75.3289 72.9876C73.9863 72.9876 73.0913 73.634 73.1037 74.6782ZM94.9832 70.6506C94.9832 72.6457 96.3754 74.4731 98.7684 75.2376L97.9728 76.5428C96.1766 75.9648 94.8713 74.7776 94.1814 73.2797C93.4977 75.0014 92.1116 76.3688 90.2159 77.0276L89.3644 75.6975C91.8195 74.8833 93.305 72.8446 93.3174 70.663V70.2279H89.8492V68.8729H98.383V70.2279H94.9832V70.6506ZM91.4901 80.5083C91.4901 78.6561 93.4977 77.5808 96.7732 77.5808C100.024 77.5808 102.007 78.6561 102.007 80.5083C102.007 82.3791 100.024 83.4669 96.7732 83.4669C93.4977 83.4669 91.4901 82.3791 91.4901 80.5083ZM93.1621 80.5083C93.1496 81.5587 94.4984 82.1492 96.7732 82.1492C99.0419 82.1492 100.372 81.5587 100.372 80.5083C100.372 79.4765 99.0419 78.8985 96.7732 78.9047C94.4984 78.8985 93.1496 79.4765 93.1621 80.5083ZM100.192 77.1954V67.7417H101.864V71.6388H104.145V73.0186H101.864V77.1954H100.192ZM118.919 80.1291V81.4903H104.505V80.1291H110.814V76.375H112.455V80.1291H118.919ZM104.99 75.2749C108.023 74.7776 110.733 72.4406 110.746 69.9358V68.7548H112.505V69.9358C112.505 72.4406 115.246 74.7776 118.291 75.2749L117.558 76.6609C115.009 76.1575 112.666 74.5787 111.628 72.4157C110.584 74.5663 108.266 76.1637 105.724 76.6609L104.99 75.2749ZM133.066 67.7417V83.4917H131.462V67.7417H133.066ZM119.696 74.5414C119.696 71.1354 121.032 69.0035 123.083 69.0035C124.998 69.0035 126.297 70.8184 126.496 73.7769H128.273V68.0463H129.865V82.7148H128.273V75.1319H126.502C126.347 78.2086 125.035 80.1105 123.083 80.1043C121.032 80.1105 119.696 77.9662 119.696 74.5414ZM121.25 74.5414C121.237 77.0525 121.952 78.5256 123.083 78.5131C124.246 78.5256 124.967 77.0525 124.967 74.5414C124.967 72.0366 124.246 70.5698 123.083 70.5698C121.952 70.5698 121.237 72.0366 121.25 74.5414ZM140.22 71.7507C140.213 74.6347 141.829 77.5062 144.235 78.5877L143.228 79.9302C141.432 79.029 140.077 77.2514 139.387 75.0946C138.691 77.3633 137.317 79.2776 135.508 80.2162L134.452 78.8736C136.888 77.7051 138.517 74.6657 138.529 71.7507V69.0532H140.22V71.7507ZM142.507 74.3301V72.9751H146.019V67.7417H147.672V83.5228H146.019V74.3301H142.507ZM159.501 76.1077V78.8363C160.943 78.7555 162.404 78.6312 163.777 78.4261L163.908 79.663C160.34 80.3156 156.511 80.3467 153.696 80.3467L153.491 78.9731C154.759 78.9669 156.263 78.9606 157.841 78.9109V76.1077H159.501ZM153.907 75.3557C156.263 74.6844 157.73 73.0435 157.804 71.1043H154.336V69.7431H157.841V67.866H159.501V69.7431H163.044V71.1043H159.507C159.588 72.9565 161.086 74.5414 163.442 75.1754L162.671 76.4807C160.788 75.9461 159.383 74.8025 158.668 73.3046C157.984 74.8833 156.592 76.0829 154.709 76.6236L153.907 75.3557ZM164.765 83.5228V67.7417H166.431V83.5228H164.765ZM181.933 67.7417V83.4917H180.348V75.3494H178.309V82.6837H176.768V68.0649H178.309V73.9883H180.348V67.7417H181.933ZM168.955 79.7065V69.6374H174.847V70.9924H170.627V78.2956C172.56 78.2769 174.014 78.1899 175.692 77.8667L175.829 79.2465C173.927 79.6381 172.299 79.6941 169.999 79.7065H168.955ZM187.838 82L187.832 80.5953L192.245 76.1388C193.644 74.6906 194.34 73.8888 194.346 72.77C194.34 71.5145 193.32 70.7189 191.984 70.7189C190.573 70.7189 189.672 71.6077 189.672 72.9689H187.832C187.826 70.6381 189.597 69.0967 192.021 69.0967C194.476 69.0967 196.173 70.6506 196.186 72.7141C196.173 74.1374 195.502 75.2749 193.115 77.6181L190.53 80.2472V80.3405H196.391V82H187.838ZM198.177 78.3391C198.128 76.1761 199.296 75.2127 200.707 75.2127C201.534 75.2127 202.149 75.5359 203.063 76.3253C203.628 76.8163 203.908 77.0214 204.349 77.0214C205.014 77.0214 205.462 76.5242 205.437 75.5297H207.028C207.078 77.6927 205.885 78.6685 204.486 78.6685C203.647 78.6685 203.026 78.3267 202.131 77.5435C201.546 77.0463 201.285 76.8474 200.85 76.8474C200.21 76.8474 199.731 77.27 199.756 78.3391H198.177ZM213.261 82.174C210.632 82.174 208.755 80.7569 208.686 78.6747H210.644C210.713 79.7935 211.825 80.5083 213.242 80.5083C214.784 80.5083 215.903 79.6692 215.896 78.4385C215.903 77.1768 214.858 76.2756 213.031 76.2756H211.95V74.6968H213.031C214.485 74.6968 215.499 73.8888 215.499 72.6706C215.499 71.5021 214.628 70.7189 213.286 70.7189C212.006 70.7189 210.868 71.4275 210.818 72.5773H208.954C209.016 70.5076 210.924 69.0967 213.305 69.0967C215.803 69.0967 217.382 70.6816 217.369 72.5711C217.382 74.0069 216.487 75.0511 215.119 75.3805V75.48C216.847 75.7224 217.86 76.8909 217.848 78.5069C217.86 80.6264 215.903 82.174 213.261 82.174ZM223.363 68.2825C225.731 68.2887 227.478 69.7431 227.49 71.8128C227.478 73.8764 225.731 75.3184 223.363 75.3184C220.964 75.3184 219.217 73.8764 219.217 71.8128C219.217 69.7431 220.964 68.2887 223.363 68.2825ZM220.846 71.8128C220.833 73.1057 221.909 73.9634 223.363 73.9634C224.805 73.9634 225.874 73.1057 225.874 71.8128C225.874 70.5262 224.805 69.6623 223.363 69.6685C221.909 69.6623 220.833 70.5262 220.846 71.8128ZM221.604 77.8108V76.4869H231.965V80.4461H223.276V81.9565H232.481V83.2928H221.654V79.203H230.306V77.8108H221.604ZM230.293 75.7597V67.7417H231.965V75.7597H230.293ZM252.185 80.1602V81.5401H237.771V80.1602H244.111V76.9282H239.412V68.817H241.084V71.5331H248.816V68.817H250.476V76.9282H245.765V80.1602H252.185ZM241.084 75.5732H248.816V72.8757H241.084V75.5732ZM265.853 68.4814V69.8425H261.073C261.154 71.5704 263.423 73.0932 266.356 73.4475L265.722 74.7901C263.025 74.4109 260.806 73.1492 259.955 71.3715C259.103 73.1492 256.897 74.4109 254.199 74.7901L253.584 73.4475C256.517 73.0932 258.761 71.5642 258.854 69.8425H254.1V68.4814H265.853ZM252.788 77.5062V76.1388H259.134V73.6588H260.775V76.1388H267.171V77.5062H252.788ZM254.597 83.1685V78.6747H256.275V81.8011H265.53V83.1685H254.597ZM280.851 67.7417V83.5228H279.173V67.7417H280.851ZM268.345 74.4482C268.345 71.0732 270.042 68.9289 272.417 68.9227C274.766 68.9289 276.482 71.0732 276.482 74.4482C276.482 77.8419 274.766 79.9862 272.417 79.9862C270.042 79.9862 268.345 77.8419 268.345 74.4482ZM269.955 74.4482C269.955 76.9468 270.962 78.4883 272.417 78.4883C273.871 78.4883 274.866 76.9468 274.866 74.4482C274.866 71.9682 273.871 70.4268 272.417 70.4144C270.962 70.4268 269.955 71.9682 269.955 74.4482ZM298.945 67.7417V74.0193H301.388V75.4178H298.945V83.4731H297.273V67.7417H298.945ZM286.682 79.2776C290.635 77.3073 292.773 74.4606 293.128 70.7873H287.471V69.4075H294.824C294.812 73.951 292.804 78.0159 287.614 80.5704L286.682 79.2776ZM314.422 71.9931V73.3481H303.607V68.0338H305.26V71.9931H314.422ZM301.693 76.3936V75.0262H316.069V76.3936H301.693ZM303.389 80.5456C303.389 78.7058 305.44 77.6678 308.853 77.6678C312.246 77.6678 314.285 78.7058 314.298 80.5456C314.285 82.3916 312.246 83.4233 308.853 83.4233C305.44 83.4233 303.389 82.3916 303.389 80.5456ZM305.086 80.5456C305.074 81.5525 306.447 82.1367 308.853 82.1305C311.233 82.1367 312.619 81.5525 312.632 80.5456C312.619 79.5262 311.233 78.9855 308.853 78.9793C306.447 78.9855 305.074 79.5262 305.086 80.5456ZM329.084 67.7417V71.6948H331.365V73.0994H329.084V76.9157H327.412V67.7417H329.084ZM316.728 70.6319V69.2894H320.594V67.605H322.253V69.2894H326.101V70.6319H316.728ZM317.586 74.038C317.579 72.3598 319.121 71.2721 321.42 71.2721C323.689 71.2721 325.231 72.3598 325.237 74.038C325.231 75.7162 323.689 76.8101 321.42 76.8039C319.121 76.8101 317.579 75.7162 317.586 74.038ZM319.003 83.2928V77.5746H320.656V79.1036H327.412V77.5746H329.084V83.2928H319.003ZM319.195 74.038C319.183 74.9765 320.078 75.5608 321.42 75.5608C322.751 75.5608 323.646 74.9765 323.658 74.038C323.646 73.1181 322.751 72.5152 321.42 72.5214C320.078 72.5152 319.183 73.1181 319.195 74.038ZM320.656 81.9565H327.412V80.4026H320.656V81.9565ZM344.791 67.7417V83.4917H343.137V67.7417H344.791ZM332.689 79.489V69.2769H334.33V78.0532C336.636 78.0345 339.054 77.8419 341.59 77.3198L341.807 78.7244C339.023 79.3025 336.493 79.4952 334.007 79.489H332.689ZM359.012 67.7417V73.8391H361.535V75.2251H359.012V83.5228H357.34V67.7417H359.012ZM347.408 79.6133V69.2583H354.773V70.6133H349.073V78.221C351.715 78.2086 353.698 78.0967 355.954 77.6865L356.153 79.1098C353.691 79.5387 351.597 79.6195 348.675 79.6133H347.408ZM363.549 82.1181C362.859 82.1181 362.287 81.5587 362.3 80.875C362.287 80.1913 362.859 79.6319 363.549 79.6319C364.22 79.6319 364.792 80.1913 364.792 80.875C364.792 81.5587 364.22 82.1181 363.549 82.1181ZM381.984 67.7355V72.2977H384.277V73.6837H381.984V79.1409H380.312V67.7355H381.984ZM370.311 76.4061V69.0718H377.347V70.433H371.964V75.0325C375.029 75.0325 376.75 74.9392 378.733 74.529L378.926 75.8902C376.788 76.3066 374.929 76.4123 371.56 76.4061H370.311ZM372.002 83.1685V77.9662H373.661V81.8011H382.655V83.1685H372.002ZM387.453 80.7693L386.043 85.6298H384.551L385.489 80.7693H387.453ZM406.959 80.1602V81.5401H392.545V80.1602H398.885V76.9282H394.186V68.817H395.858V71.5331H403.59V68.817H405.25V76.9282H400.539V80.1602H406.959ZM395.858 75.5732H403.59V72.8757H395.858V75.5732ZM420.627 68.4814V69.8425H415.847C415.928 71.5704 418.197 73.0932 421.13 73.4475L420.496 74.7901C417.799 74.4109 415.58 73.1492 414.729 71.3715C413.877 73.1492 411.67 74.4109 408.973 74.7901L408.358 73.4475C411.291 73.0932 413.535 71.5642 413.628 69.8425H408.874V68.4814H420.627ZM407.562 77.5062V76.1388H413.908V73.6588H415.549V76.1388H421.945V77.5062H407.562ZM409.371 83.1685V78.6747H411.049V81.8011H420.304V83.1685H409.371ZM428.359 71.7507C428.347 74.6285 430.081 77.5249 432.523 78.6001L431.517 79.9302C429.708 79.0663 428.278 77.2949 427.539 75.1381C426.811 77.4441 425.363 79.3522 423.48 80.2659L422.448 78.8736C424.928 77.7673 426.668 74.759 426.681 71.7507V69.0532H428.359V71.7507ZM433.947 83.5228V67.7417H435.625V83.5228H433.947ZM449.97 67.7417V72.3971H452.251V73.7956H449.97V79.1906H448.28V67.7417H449.97ZM437.577 76.1264C441.269 75.02 443.556 72.9192 443.879 70.3273H438.236V68.9413H445.694C445.694 73.0746 442.885 76.0704 438.285 77.4565L437.577 76.1264ZM439.97 83.1685V78.0159H441.648V81.8011H450.623V83.1685H439.97ZM466.97 75.9648V77.3011H452.612V75.9648H466.97ZM454.147 71.4213C454.147 69.4448 456.354 68.2576 459.778 68.27C463.191 68.2576 465.397 69.4448 465.397 71.4213C465.397 73.4102 463.191 74.6098 459.778 74.6098C456.354 74.6098 454.147 73.4102 454.147 71.4213ZM454.421 83.1685V78.5815H456.099V81.8011H465.354V83.1685H454.421ZM455.881 71.4213C455.869 72.5836 457.367 73.2486 459.778 73.2486C462.19 73.2486 463.688 72.5836 463.688 71.4213C463.688 70.2901 462.19 69.6064 459.778 69.6064C457.367 69.6064 455.869 70.2901 455.881 71.4213ZM483.858 67.7541V72.4033H486.139V73.8018H483.858V79.3336H482.186V67.7541H483.858ZM472.086 76.7231V68.8791H473.733V71.4088H477.86V68.8791H479.514V76.7231H472.086ZM473.733 75.393H477.86V72.7141H473.733V75.393ZM473.876 83.1685V78.1837H475.536V81.8011H484.529V83.1685H473.876ZM499.614 67.7417V83.5228H497.961V76.9344H494.878V75.5421H497.961V72.6333H494.965V71.2535H497.961V67.7417H499.614ZM487.034 70.489V69.134H494.014V74.8833H488.737V78.5007C490.963 78.4883 492.846 78.395 495.096 78.0532L495.239 79.433C492.771 79.8184 490.757 79.893 488.271 79.893H487.084V73.5594H492.38V70.489H487.034ZM515.893 75.4054V76.7417H501.516V75.4054H507.887V73.7334H503.306V68.4689H514.121V69.7866H504.96V72.3971H514.215V73.7334H509.516V75.4054H515.893ZM503.213 80.6326C503.213 78.8052 505.264 77.7735 508.677 77.7735C512.07 77.7735 514.109 78.8052 514.121 80.6326C514.109 82.4537 512.07 83.4793 508.677 83.4917C505.264 83.4793 503.213 82.4537 503.213 80.6326ZM504.91 80.6326C504.898 81.6395 506.271 82.1927 508.677 82.1802C511.057 82.1927 512.443 81.6395 512.456 80.6326C512.443 79.6319 511.057 79.0601 508.677 79.0601C506.271 79.0601 504.898 79.6319 504.91 80.6326ZM530.891 74.2617V75.5919H524.526V76.9717H529.07V80.6637H519.908V82.0497H529.523V83.3425H518.273V79.4517H527.429V78.2459H518.242V76.9717H522.854V75.5919H516.533V74.2617H530.891ZM518.367 73.0994V68.2452H529.039V73.0994H518.367ZM520.001 71.788H527.373V69.5628H520.001V71.788ZM539.518 69.3018V79.5387H532.146V69.3018H539.518ZM533.781 78.1899H537.852V70.6257H533.781V78.1899ZM542.147 83.4917V67.7417H543.819V73.9137H546.343V75.3246H543.819V83.4917H542.147ZM558.836 67.7417V73.8391H561.359V75.2251H558.836V83.5228H557.164V67.7417H558.836ZM547.231 79.6133V69.2583H554.597V70.6133H548.897V78.221C551.539 78.2086 553.521 78.0967 555.778 77.6865L555.977 79.1098C553.515 79.5387 551.421 79.6195 548.499 79.6133H547.231ZM578.925 67.7417V83.4917H577.309V75.3246H575.37V82.7334H573.81V68.1644H575.37V73.9634H577.309V67.7417H578.925ZM565.375 78.9855C568.887 76.9965 570.354 74.3177 570.609 71.1105H566.047V69.7493H572.237C572.225 73.8888 570.851 77.6119 566.345 80.1602L565.375 78.9855ZM593.519 67.7541V79.203H591.847V67.7541H593.519ZM580.771 72.7203C580.771 70.4392 582.592 68.8232 584.967 68.8232C587.341 68.8232 589.15 70.4392 589.15 72.7203C589.15 75.0325 587.341 76.6423 584.967 76.636C582.592 76.6423 580.771 75.0325 580.771 72.7203ZM582.406 72.7203C582.393 74.1996 583.5 75.1816 584.967 75.1816C586.409 75.1816 587.515 74.1996 587.515 72.7203C587.515 71.2659 586.409 70.2776 584.967 70.2776C583.5 70.2776 582.393 71.2659 582.406 72.7203ZM583.214 83.1685V78.0407H584.892V81.8011H593.979V83.1685H583.214ZM600.866 72.8011C600.866 75.2376 602.345 77.7983 604.701 78.9296L603.75 80.1975C602.028 79.3771 600.735 77.7362 600.07 75.797C599.38 77.8854 598.007 79.6381 596.204 80.4772L595.266 79.1906C597.671 78.0905 599.219 75.3992 599.231 72.8011V71.7693H595.744V70.4268H599.219V68.0525H600.891V70.4268H604.322V71.7693H600.866V72.8011ZM606.068 83.4917V67.7417H607.74V74.0877H610.264V75.5048H607.74V83.4917H606.068ZM622.757 67.7417V74.0193H625.199V75.4178H622.757V83.4731H621.085V67.7417H622.757ZM610.494 79.2776C614.447 77.3073 616.585 74.4606 616.939 70.7873H611.283V69.4075H618.636C618.624 73.951 616.616 78.0159 611.426 80.5704L610.494 79.2776ZM634.816 78.1464C634.816 79.5014 635.493 80.9309 636.917 81.7887C638.359 80.8564 639.073 79.3522 639.073 78.1464V77.3943H640.714V78.1464C640.702 79.7873 641.783 81.366 643.834 82.0435L643.008 83.2617C641.454 82.7272 640.397 81.6768 639.85 80.384C639.353 81.6457 638.408 82.808 636.966 83.4047C635.45 82.8391 634.493 81.7265 634.008 80.4337C633.442 81.6768 632.398 82.721 630.912 83.2617L630.08 82.0435C632.1 81.3101 633.194 79.6754 633.206 78.1464V77.3943H634.816V78.1464ZM629.676 72.3474C629.676 70.1471 631.453 68.6305 633.871 68.6305C636.283 68.6305 638.054 70.1471 638.054 72.3474C638.054 74.529 636.283 76.0456 633.871 76.0456C631.453 76.0456 629.676 74.529 629.676 72.3474ZM631.31 72.3474C631.298 73.721 632.373 74.6533 633.871 74.6595C635.35 74.6533 636.419 73.721 636.419 72.3474C636.419 70.9675 635.35 70.0352 633.871 70.0477C632.373 70.0352 631.298 70.9675 631.31 72.3474ZM640.752 76.7169V67.7541H642.424V76.7169H640.752ZM651.542 68.0028C655.091 68.0028 657.16 68.9599 657.16 70.7065C657.16 72.4779 655.091 73.4351 651.542 73.4475C647.993 73.4351 645.91 72.4779 645.91 70.7065C645.91 68.9599 647.993 68.0028 651.542 68.0028ZM644.375 75.741V74.4047H658.733V75.741H644.375ZM646.085 78.2023V76.953H656.912V80.6388H647.75V82.0497H657.366V83.3425H646.116V79.4392H655.271V78.2023H646.085ZM647.657 70.7065C647.645 71.6885 649.037 72.192 651.542 72.192C654.065 72.192 655.451 71.6885 655.451 70.7065C655.451 69.7866 654.065 69.2396 651.542 69.2459C649.037 69.2396 647.645 69.7866 647.657 70.7065ZM671.302 69.1278C671.302 71.2224 673.856 73.1865 676.958 73.6029L676.293 74.9641C673.719 74.5539 671.463 73.2113 670.438 71.3591C669.412 73.2238 667.156 74.5539 664.595 74.9641L663.924 73.6029C667.013 73.1865 669.561 71.2472 669.561 69.1278V68.27H671.302V69.1278ZM663.246 77.8916V76.5117H677.604V77.8916H671.208V83.4917H669.568V77.8916H663.246ZM687.575 78.1464C687.575 79.5014 688.252 80.9309 689.676 81.7887C691.118 80.8564 691.832 79.3522 691.832 78.1464V77.3943H693.473V78.1464C693.461 79.7873 694.542 81.366 696.593 82.0435L695.767 83.2617C694.213 82.7272 693.156 81.6768 692.609 80.384C692.112 81.6457 691.167 82.808 689.725 83.4047C688.209 82.8391 687.252 81.7265 686.767 80.4337C686.201 81.6768 685.157 82.721 683.672 83.2617L682.839 82.0435C684.859 81.3101 685.953 79.6754 685.965 78.1464V77.3943H687.575V78.1464ZM682.435 72.3474C682.435 70.1471 684.212 68.6305 686.63 68.6305C689.042 68.6305 690.813 70.1471 690.813 72.3474C690.813 74.529 689.042 76.0456 686.63 76.0456C684.212 76.0456 682.435 74.529 682.435 72.3474ZM684.069 72.3474C684.057 73.721 685.132 74.6533 686.63 74.6595C688.109 74.6533 689.178 73.721 689.178 72.3474C689.178 70.9675 688.109 70.0352 686.63 70.0477C685.132 70.0352 684.057 70.9675 684.069 72.3474ZM693.511 76.7169V67.7541H695.183V76.7169H693.511ZM700.559 77.1892V78.8612H707.962V77.1892H709.634V83.2928H698.912V77.1892H700.559ZM697.134 76.1885V74.8211H711.492V76.1885H697.134ZM697.905 72.5338C700.957 72.1298 703.455 70.4579 703.455 68.5808V67.9095H705.171V68.5808C705.171 70.4019 707.682 72.1547 710.703 72.5338L710.1 73.8453C707.551 73.4848 705.326 72.279 704.319 70.6008C703.3 72.2852 701.062 73.4848 698.527 73.8453L697.905 72.5338ZM700.559 81.9565H707.962V80.154H700.559V81.9565ZM725.216 67.7417V83.4917H723.563V67.7417H725.216ZM713.114 79.489V69.2769H714.755V78.0532C717.061 78.0345 719.479 77.8419 722.015 77.3198L722.232 78.7244C719.448 79.3025 716.918 79.4952 714.432 79.489H713.114ZM739.437 67.7417V73.8391H741.96V75.2251H739.437V83.5228H737.765V67.7417H739.437ZM727.833 79.6133V69.2583H735.198V70.6133H729.498V78.221C732.14 78.2086 734.123 78.0967 736.379 77.6865L736.578 79.1098C734.116 79.5387 732.022 79.6195 729.101 79.6133H727.833ZM743.974 82.1181C743.284 82.1181 742.712 81.5587 742.725 80.875C742.712 80.1913 743.284 79.6319 743.974 79.6319C744.645 79.6319 745.217 80.1913 745.217 80.875C745.217 81.5587 744.645 82.1181 743.974 82.1181Z" fill="#666666"/>
</svg>
