<svg width="1520" height="307" viewBox="0 0 1520 307" fill="none" xmlns="http://www.w3.org/2000/svg">
<path d="M0 0H1520V291C1520 299.837 1512.84 307 1504 307H16C7.16342 307 0 299.837 0 291V0Z" fill="#FFF6F2"/>
<rect width="1440" height="1" transform="matrix(1 0 0 -1 40 133)" fill="#FFDFC7"/>
<path d="M54.942 47.2327V48.6126H48.5711V53.5166H46.9302V48.6126H40.5843V47.2327H54.942ZM41.4233 44.8149C44.413 44.4358 46.8184 42.7638 46.924 40.9924H41.9392V39.6499H46.9302V37.7417H48.5711V39.6499H53.5746V40.9924H48.596C48.6892 42.7514 51.0698 44.4358 54.0718 44.8149L53.4627 46.145C50.933 45.797 48.7825 44.6098 47.7631 43C46.7376 44.6285 44.5684 45.7907 42.0325 46.145L41.4233 44.8149ZM70.0146 50.1478V51.5276H55.6009V50.1478H61.9407V46.5055H57.2418V39.0035H68.2867V46.5055H63.594V50.1478H70.0146ZM58.8764 45.1816H66.652V40.3522H58.8764V45.1816ZM88.0156 37.7417V53.4917H86.412V37.7417H88.0156ZM74.6461 44.5414C74.6461 41.1354 75.9824 39.0035 78.0335 39.0035C79.3761 39.0035 80.4141 39.8985 80.9859 41.4523H83.2732V38.0463H84.8519V52.7148H83.2732V47.643H80.9859C80.4203 49.2093 79.3761 50.1105 78.0335 50.1043C75.9824 50.1105 74.6461 47.9662 74.6461 44.5414ZM76.1813 44.5414C76.1689 47.0525 76.8712 48.5256 78.0335 48.5131C79.202 48.5256 79.9355 47.0525 79.9355 44.5414C79.9355 42.0366 79.1958 40.5698 78.0335 40.5698C76.8712 40.5698 76.1689 42.0366 76.1813 44.5414ZM81.3339 42.8135C81.421 43.3419 81.4707 43.9199 81.4707 44.5414C81.4707 45.1568 81.421 45.7348 81.3402 46.2631H83.2732V42.8135H81.3339ZM95.2132 40.0041C95.2007 42.1858 96.6862 44.1872 99.1103 44.989L98.2712 46.3066C96.45 45.6664 95.0826 44.3923 94.3741 42.7452C93.6717 44.5104 92.2857 45.9026 90.421 46.5739L89.5633 45.2624C92.0246 44.3985 93.5039 42.2604 93.5039 40.0041V38.4938H95.2132V40.0041ZM91.8754 49.3025V47.9475H102.554V53.4917H100.882V49.3025H91.8754ZM100.882 47.1954V37.7417H102.554V47.1954H100.882ZM110.286 41.7507C110.273 44.6285 112.007 47.5249 114.45 48.6001L113.443 49.9302C111.634 49.0663 110.205 47.2949 109.465 45.1381C108.738 47.4441 107.29 49.3522 105.407 50.2659L104.375 48.8736C106.855 47.7673 108.595 44.759 108.608 41.7507V39.0532H110.286V41.7507ZM115.873 53.5228V37.7417H117.552V53.5228H115.873ZM131.897 37.7417V42.3971H134.178V43.7956H131.897V49.1906H130.206V37.7417H131.897ZM119.503 46.1264C123.195 45.02 125.483 42.9192 125.806 40.3273H120.162V38.9413H127.621C127.621 43.0746 124.811 46.0704 120.212 47.4565L119.503 46.1264ZM121.896 53.1685V48.0159H123.574V51.8011H132.55V53.1685H121.896ZM148.082 37.7417V53.4917H146.479V37.7417H148.082ZM134.713 44.5414C134.713 41.1354 136.049 39.0035 138.1 39.0035C140.014 39.0035 141.313 40.8184 141.512 43.7769H143.29V38.0463H144.881V52.7148H143.29V45.1319H141.519C141.363 48.2086 140.052 50.1105 138.1 50.1043C136.049 50.1105 134.713 47.9662 134.713 44.5414ZM136.267 44.5414C136.254 47.0525 136.969 48.5256 138.1 48.5131C139.262 48.5256 139.983 47.0525 139.983 44.5414C139.983 42.0366 139.262 40.5698 138.1 40.5698C136.969 40.5698 136.254 42.0366 136.267 44.5414ZM158.867 41.7507C158.855 44.5352 160.483 47.3881 162.82 48.5318L161.794 49.8681C160.073 48.9793 158.743 47.2141 158.053 45.1133C157.35 47.3508 155.971 49.2341 154.181 50.1664L153.143 48.8239C155.56 47.6554 157.195 44.6409 157.207 41.7507V39.0532H158.867V41.7507ZM164.007 53.4917V37.7417H165.679V44.0256H168.203V45.4489H165.679V53.4917H164.007ZM182.784 45.424V46.779H168.426V45.424H171.87V43.3108C170.652 42.8198 169.962 42.0242 169.962 40.98C169.962 39.1091 172.131 38.0214 175.593 38.0152C179.042 38.0214 181.212 39.1091 181.212 40.98C181.212 42.0242 180.522 42.8198 179.304 43.317V45.424H182.784ZM170.123 50.6512C170.123 48.8488 172.168 47.8481 175.587 47.8605C178.98 47.8481 181.019 48.8488 181.031 50.6512C181.019 52.4662 178.98 53.4606 175.587 53.4606C172.168 53.4606 170.123 52.4662 170.123 50.6512ZM171.696 40.98C171.683 42.0366 173.144 42.6209 175.593 42.6209C178.029 42.6209 179.502 42.0366 179.502 40.98C179.502 39.9233 178.029 39.3142 175.593 39.3142C173.144 39.3142 171.683 39.9233 171.696 40.98ZM171.82 50.6512C171.808 51.6333 173.181 52.1927 175.587 52.1802C177.967 52.1927 179.353 51.6333 179.366 50.6512C179.353 49.6754 177.967 49.1409 175.587 49.1285C173.181 49.1409 171.808 49.6754 171.82 50.6512ZM173.548 45.424H177.644V43.7521C177.029 43.8515 176.339 43.9012 175.593 43.9012C174.847 43.9012 174.163 43.8515 173.548 43.7583V45.424ZM195.818 37.692V41.384H198.112V42.7452H195.818V46.3501H194.146V37.692H195.818ZM183.462 40.3895V39.0843H187.328V37.5988H188.987V39.0843H192.835V40.3895H183.462ZM184.319 43.5718C184.313 41.9869 185.836 40.9924 188.154 40.9924C190.46 40.9924 191.964 41.9869 191.971 43.5718C191.964 45.1816 190.46 46.1512 188.154 46.1512C185.836 46.1512 184.313 45.1816 184.319 43.5718ZM185.631 48.3329V47.1022H195.818V50.7569H187.309V52.0746H196.353V53.3425H185.668V49.5698H194.159V48.3329H185.631ZM185.929 43.5718C185.917 44.4296 186.793 44.9268 188.154 44.933C189.503 44.9268 190.38 44.4296 190.392 43.5718C190.38 42.7265 189.503 42.1982 188.154 42.1982C186.793 42.1982 185.917 42.7265 185.929 43.5718ZM206.665 38.6616C207.97 38.6554 209.089 39.1402 209.829 39.9544H213.776V37.7417H215.441V47.0401H213.776V44.9144H209.823C209.083 45.7224 207.964 46.2072 206.665 46.201C204.297 46.2072 202.532 44.6409 202.544 42.4344C202.532 40.2155 204.297 38.6492 206.665 38.6616ZM204.129 42.4344C204.129 43.8142 205.186 44.7901 206.665 44.7776C208.107 44.7901 209.17 43.8142 209.17 42.4344C209.17 41.0235 208.107 40.0849 206.665 40.0974C205.186 40.0849 204.129 41.0235 204.129 42.4344ZM204.844 50.4275C204.832 48.5069 206.87 47.3881 210.164 47.3881C213.446 47.3881 215.485 48.5069 215.491 50.4275C215.485 52.3481 213.446 53.4669 210.164 53.4669C206.87 53.4669 204.832 52.3481 204.844 50.4275ZM206.479 50.4275C206.466 51.5214 207.858 52.1492 210.164 52.1492C212.483 52.1492 213.863 51.5214 213.863 50.4275C213.863 49.3149 212.483 48.6809 210.164 48.6809C207.858 48.6809 206.466 49.3149 206.479 50.4275ZM210.599 41.3032C210.705 41.6575 210.767 42.0366 210.767 42.4344C210.767 42.8322 210.705 43.2051 210.599 43.5532H213.776V41.3032H210.599ZM230.458 37.7417V47.1146H228.792V43.1305H225.852V41.7569H228.792V37.7417H230.458ZM217.337 45.6975C219.774 44.8398 221.272 42.7141 221.272 40.5387V40.1906H217.853V38.8294H226.356V40.1906H222.962V40.5262C222.962 42.5214 224.385 44.4606 226.76 45.2624L225.908 46.5925C224.137 45.9772 222.838 44.7155 222.154 43.1616C221.464 44.9206 220.084 46.3315 218.201 47.0214L217.337 45.6975ZM219.861 50.5269C219.848 48.6499 221.874 47.5559 225.181 47.5559C228.481 47.5559 230.501 48.6499 230.508 50.5269C230.501 52.3978 228.481 53.4793 225.181 53.4917C221.874 53.4793 219.848 52.3978 219.861 50.5269ZM221.514 50.5269C221.501 51.5836 222.875 52.1927 225.181 52.1802C227.481 52.1927 228.848 51.5836 228.854 50.5269C228.848 49.4579 227.481 48.8488 225.181 48.8488C222.875 48.8488 221.501 49.4579 221.514 50.5269ZM237.805 41.7507C237.792 44.5352 239.421 47.3881 241.758 48.5318L240.732 49.8681C239.011 48.9793 237.68 47.2141 236.99 45.1133C236.288 47.3508 234.908 49.2341 233.118 50.1664L232.08 48.8239C234.498 47.6554 236.133 44.6409 236.145 41.7507V39.0532H237.805V41.7507ZM242.945 53.4917V37.7417H244.617V44.0256H247.14V45.4489H244.617V53.4917H242.945ZM253.194 41.0235C253.194 43.0746 254.698 44.989 257.135 45.7535L256.283 47.0649C254.468 46.4682 253.095 45.2251 252.38 43.6464C251.671 45.3619 250.273 46.7169 248.396 47.3819L247.532 46.058C249.987 45.2251 251.497 43.1865 251.51 41.0235V40.346H247.967V38.9972H256.663V40.346H253.194V41.0235ZM250.124 53.1685V48.1713H251.802V51.8011H260.889V53.1685H250.124ZM258.757 49.2528V37.7541H260.429V49.2528H258.757ZM276.739 45.9648V47.3011H262.381V45.9648H276.739ZM263.916 41.4213C263.916 39.4448 266.123 38.2576 269.547 38.27C272.96 38.2576 275.166 39.4448 275.166 41.4213C275.166 43.4102 272.96 44.6098 269.547 44.6098C266.123 44.6098 263.916 43.4102 263.916 41.4213ZM264.19 53.1685V48.5815H265.868V51.8011H275.123V53.1685H264.19ZM265.65 41.4213C265.638 42.5836 267.136 43.2486 269.547 43.2486C271.959 43.2486 273.457 42.5836 273.457 41.4213C273.457 40.2901 271.959 39.6064 269.547 39.6064C267.136 39.6064 265.638 40.2901 265.65 41.4213ZM289.512 39.2521V49.6008H282.122V39.2521H289.512ZM283.775 48.2583H287.89V40.576H283.775V48.2583ZM292.62 53.5228V37.7417H294.298V53.5228H292.62ZM309.334 37.7417V53.5228H307.68V37.7417H309.334ZM297.139 40.5262V39.1588H304.517V44.9206H298.873V48.364C301.421 48.3515 303.653 48.2334 306.288 47.7983L306.443 49.1782C303.653 49.6381 301.278 49.7438 298.506 49.7438H297.157V43.578H302.826V40.5262H297.139ZM320.696 40.6195C320.696 42.7638 322.12 44.8211 324.494 45.654L323.574 46.9593C321.859 46.2942 320.572 45.0014 319.895 43.3729C319.217 45.1878 317.862 46.6174 316.01 47.3322L315.121 45.9959C317.57 45.1319 319.031 42.9441 319.037 40.5822V38.7051H320.696V40.6195ZM317.98 53.1685V48.1961H319.665V51.8011H328.621V53.1685H317.98ZM323.282 42.7203V41.3405H326.601V37.7541H328.267V49.5014H326.601V42.7203H323.282ZM336.956 38.8605V40.2217H332.406V41.9744H336.788V43.2673H332.406V45.1816C334.507 45.163 335.893 45.0884 337.509 44.7776L337.683 46.1388C335.831 46.4931 334.327 46.5615 331.822 46.5615H330.803V38.8605H336.956ZM332.873 49.433V48.0843H343.576V53.4917H341.929V49.433H332.873ZM338.51 47.2079V38.0463H340.07V41.7756H341.997V37.7541H343.576V47.3198H341.997V43.1305H340.07V47.2079H338.51ZM357.442 37.7417V44.125H359.966V45.511H357.442V53.4917H355.789V37.7417H357.442ZM345.086 41.5704V40.2093H348.971V37.9468H350.636V40.2093H354.415V41.5704H345.086ZM345.894 46.3999C345.888 44.2493 347.541 42.7327 349.816 42.7327C352.066 42.7327 353.719 44.2493 353.726 46.3999C353.719 48.5566 352.066 50.0546 349.816 50.0608C347.541 50.0546 345.888 48.5566 345.894 46.3999ZM347.491 46.3999C347.479 47.761 348.467 48.6747 349.816 48.6685C351.146 48.6747 352.122 47.761 352.134 46.3999C352.122 45.0449 351.146 44.1126 349.816 44.1126C348.467 44.1126 347.479 45.0449 347.491 46.3999ZM364.46 38.9227C365.896 38.9289 367.07 39.7431 367.766 41.1664H371.67V37.7417H373.323V53.5228H371.67V47.4814H367.884C367.213 49.0663 365.983 49.9862 364.46 49.9862C362.104 49.9862 360.451 47.8419 360.463 44.4482C360.451 41.0732 362.104 38.9289 364.46 38.9227ZM362.054 44.4482C362.054 46.9468 363.03 48.4883 364.46 48.4883C365.877 48.4883 366.859 46.9468 366.859 44.4482C366.859 41.9682 365.877 40.4268 364.46 40.4144C363.03 40.4268 362.054 41.9682 362.054 44.4482ZM368.239 42.5401C368.369 43.1181 368.438 43.7583 368.438 44.4482C368.438 45.0449 368.382 45.6043 368.288 46.1202H371.67V42.5401H368.239ZM392.126 38.4938V39.8363H387.346C387.421 41.5456 389.689 43.0559 392.629 43.4289L391.995 44.7465C389.298 44.386 387.079 43.1305 386.227 41.3591C385.376 43.1305 383.169 44.386 380.472 44.7465L379.856 43.4289C382.796 43.0559 385.04 41.5456 385.127 39.8363H380.372V38.4938H392.126ZM379.036 47.1209V45.7597H393.45V47.1209H387.203V50.1664H385.55V47.1209H379.036ZM380.832 53.1685V48.6623H382.498V51.8011H391.852V53.1685H380.832ZM407.124 37.7417V53.5228H405.446V37.7417H407.124ZM394.948 49.7562V39.0532H396.613V43.0994H400.865V39.0532H402.512V49.7562H394.948ZM396.613 48.3764H400.865V44.4233H396.613V48.3764ZM416.87 40.3522V41.701H409.057V40.3522H412.152V38.2079H413.805V40.3522H416.87ZM409.567 46.2693C409.554 44.1499 410.996 42.6457 412.979 42.6457C414.968 42.6457 416.391 44.1499 416.404 46.2693C416.391 48.4199 414.968 49.9302 412.979 49.9302C410.996 49.9302 409.554 48.4199 409.567 46.2693ZM411.033 46.2693C411.033 47.6057 411.841 48.5069 412.979 48.4945C414.11 48.5069 414.924 47.6057 414.924 46.2693C414.924 44.9579 414.11 44.0442 412.979 44.038C411.841 44.0442 411.033 44.9579 411.033 46.2693ZM417.603 52.7521V38.096H419.176V44.3052H420.991V37.7417H422.582V53.4917H420.991V45.6664H419.176V52.7521H417.603ZM438.469 46.6174V47.9786H432.073V53.4855H430.432V47.9786H424.111V46.6174H438.469ZM424.913 44.1064C427.853 43.7086 430.289 41.9496 430.345 40.0104H425.441V38.6802H437.12V40.0104H432.234C432.272 41.9496 434.702 43.7086 437.673 44.1064L437.058 45.424C434.478 45.02 432.247 43.7459 431.283 41.9496C430.32 43.7459 428.089 45.02 425.54 45.424L424.913 44.1064ZM444.908 41.7507C444.895 44.6285 446.63 47.5249 449.072 48.6001L448.065 49.9302C446.257 49.0663 444.827 47.2949 444.087 45.1381C443.36 47.4441 441.912 49.3522 440.029 50.2659L438.997 48.8736C441.477 47.7673 443.217 44.759 443.23 41.7507V39.0532H444.908V41.7507ZM450.496 53.5228V37.7417H452.174V53.5228H450.496ZM466.892 42.3536V43.6899H456.04V38.3135H457.693V42.3536H466.892ZM454.119 47.009V45.6727H468.533V47.009H454.119ZM455.922 53.1188V48.5069H457.581V51.7576H466.991V53.1188H455.922ZM486.553 37.7417V53.4917H484.968V37.7417H486.553ZM472.953 48.942C476.297 46.9593 477.901 44.3052 478.18 41.0732H473.699V39.6996H479.846C479.84 41.241 479.622 42.7079 479.144 44.0753H481.649V38.1457H483.227V52.7272H481.649V45.4116H478.566C477.627 47.2327 476.129 48.8363 473.916 50.1291L472.953 48.942ZM499.873 42.4344V44.1561H506.275V45.5048H491.862V44.1561H498.232V42.4344H499.873ZM492.595 42.1174C495.398 41.9185 497.636 40.8494 497.922 39.4945H493.198V38.1954H504.951V39.4945H500.197C500.47 40.8557 502.683 41.9185 505.529 42.1174L504.982 43.3729C502.204 43.1305 499.898 42.1174 499.065 40.5449C498.226 42.1174 495.92 43.1305 493.142 43.3729L492.595 42.1174ZM493.21 48.7244V47.4441H498.226V46.0642H499.886V47.4441H504.914V48.7244H493.21ZM494.267 51.4779C494.267 50.1167 495.976 49.4019 499.04 49.3957C502.092 49.4019 503.845 50.1167 503.845 51.4779C503.845 52.8515 502.092 53.5663 499.04 53.5663C495.976 53.5663 494.267 52.8515 494.267 51.4779ZM495.976 51.4779C495.964 52.1057 497.07 52.4413 499.04 52.4289C501.042 52.4413 502.117 52.1057 502.13 51.4779C502.117 50.8439 501.042 50.5456 499.04 50.5394C497.07 50.5456 495.964 50.8439 495.976 51.4779ZM510.328 47.1892V48.8612H517.73V47.1892H519.402V53.2928H508.681V47.1892H510.328ZM506.903 46.1885V44.8211H521.261V46.1885H506.903ZM507.674 42.5338C510.726 42.1298 513.224 40.4579 513.224 38.5808V37.9095H514.94V38.5808C514.94 40.4019 517.451 42.1547 520.471 42.5338L519.869 43.8453C517.32 43.4848 515.095 42.279 514.088 40.6008C513.069 42.2852 510.831 43.4848 508.295 43.8453L507.674 42.5338ZM510.328 51.9565H517.73V50.154H510.328V51.9565ZM534.985 37.7417V53.4917H533.331V37.7417H534.985ZM522.883 49.489V39.2769H524.524V48.0532C526.83 48.0345 529.248 47.8419 531.784 47.3198L532.001 48.7244C529.217 49.3025 526.687 49.4952 524.201 49.489H522.883ZM549.206 37.7417V43.8391H551.729V45.2251H549.206V53.5228H547.534V37.7417H549.206ZM537.601 49.6133V39.2583H544.967V40.6133H539.267V48.221C541.909 48.2086 543.891 48.0967 546.148 47.6865L546.347 49.1098C543.885 49.5387 541.791 49.6195 538.869 49.6133H537.601ZM553.743 52.1181C553.053 52.1181 552.481 51.5587 552.494 50.875C552.481 50.1913 553.053 49.6319 553.743 49.6319C554.414 49.6319 554.986 50.1913 554.986 50.875C554.986 51.5587 554.414 52.1181 553.743 52.1181ZM53.6492 68.4938V69.8363H48.8695C48.9441 71.5456 51.2127 73.0559 54.1526 73.4289L53.5186 74.7465C50.8211 74.386 48.6022 73.1305 47.7507 71.3591C46.8992 73.1305 44.6927 74.386 41.9952 74.7465L41.3798 73.4289C44.3198 73.0559 46.5635 71.5456 46.6506 69.8363H41.8957V68.4938H53.6492ZM40.5594 77.1209V75.7597H54.9731V77.1209H48.7265V80.1664H47.0732V77.1209H40.5594ZM42.3557 83.1685V78.6623H44.0214V81.8011H53.3757V83.1685H42.3557ZM68.6472 67.7417V83.5228H66.969V67.7417H68.6472ZM56.4711 79.7562V69.0532H58.1368V73.0994H62.3882V69.0532H64.0353V79.7562H56.4711ZM58.1368 78.3764H62.3882V74.4233H58.1368V78.3764ZM77.9021 77.5559C81.1528 77.5559 83.1355 78.6374 83.1355 80.5083C83.1355 82.3916 81.1528 83.4793 77.9021 83.4917C74.6265 83.4793 72.6189 82.3916 72.6189 80.5083C72.6189 78.6374 74.6265 77.5559 77.9021 77.5559ZM71.2204 76.0331V68.7238H72.8675V70.9986H76.9946V68.7238H78.6479V76.0331H71.2204ZM72.8675 74.703H76.9946V72.3039H72.8675V74.703ZM74.2909 80.5083C74.2784 81.5587 75.6272 82.1616 77.9021 82.1616C80.1707 82.1616 81.5008 81.5587 81.5008 80.5083C81.5008 79.4579 80.1707 78.8736 77.9021 78.8612C75.6272 78.8736 74.2784 79.4579 74.2909 80.5083ZM81.3206 77.1519V67.7417H82.9925V71.6015H85.2736V73.0124H82.9925V77.1519H81.3206ZM88.052 68.5559V70.8494H91.9988V68.5559H93.6521V71.5207H97.0955V67.7417H98.7612V76.3439H97.0955V72.913H93.6521V75.8094H86.38V68.5559H88.052ZM88.052 74.4606H91.9988V72.1547H88.052V74.4606ZM88.4933 83.2742V77.0836H90.1528V78.8488H97.0955V77.0836H98.7488V83.2742H88.4933ZM90.1528 81.913H97.0955V80.154H90.1528V81.913ZM115.009 75.9648V77.3011H100.651V75.9648H115.009ZM102.186 71.4213C102.186 69.4448 104.393 68.2576 107.817 68.27C111.23 68.2576 113.436 69.4448 113.436 71.4213C113.436 73.4102 111.23 74.6098 107.817 74.6098C104.393 74.6098 102.186 73.4102 102.186 71.4213ZM102.46 83.1685V78.5815H104.138V81.8011H113.393V83.1685H102.46ZM103.92 71.4213C103.908 72.5836 105.406 73.2486 107.817 73.2486C110.229 73.2486 111.727 72.5836 111.727 71.4213C111.727 70.2901 110.229 69.6064 107.817 69.6064C105.406 69.6064 103.908 70.2901 103.92 71.4213ZM131.897 67.7417V71.6326H134.178V73.0435H131.897V76.9593H130.225V67.7417H131.897ZM119.429 75.5421C123.202 74.5414 125.445 72.5401 125.744 70.0601H120.181V68.7051H127.534C127.528 72.7638 124.793 75.6105 120.119 76.8225L119.429 75.5421ZM121.486 78.9917V77.643H131.897V83.4917H130.225V78.9917H121.486ZM143.888 70.6506C143.888 72.6457 145.28 74.4731 147.673 75.2376L146.877 76.5428C145.081 75.9648 143.776 74.7776 143.086 73.2797C142.402 75.0014 141.016 76.3688 139.12 77.0276L138.269 75.6975C140.724 74.8833 142.209 72.8446 142.222 70.663V70.2279H138.754V68.8729H147.287V70.2279H143.888V70.6506ZM140.395 80.5083C140.395 78.6561 142.402 77.5808 145.678 77.5808C148.928 77.5808 150.911 78.6561 150.911 80.5083C150.911 82.3791 148.928 83.4669 145.678 83.4669C142.402 83.4669 140.395 82.3791 140.395 80.5083ZM142.067 80.5083C142.054 81.5587 143.403 82.1492 145.678 82.1492C147.946 82.1492 149.276 81.5587 149.276 80.5083C149.276 79.4765 147.946 78.8985 145.678 78.9047C143.403 78.8985 142.054 79.4765 142.067 80.5083ZM149.096 77.1954V67.7417H150.768V71.6388H153.049V73.0186H150.768V77.1954H149.096ZM159.339 69.4137V75.0635H155.517V78.3702C157.058 78.3515 158.562 78.2583 160.359 77.9662L160.489 79.3336C158.419 79.6816 156.772 79.75 154.926 79.7562H153.907V73.7272H157.723V70.7624H153.882V69.4137H159.339ZM160.172 77.0525V75.6913H162.149V73.1367H160.172V71.7818H162.149V68.0401H163.734V82.6837H162.149V77.0525H160.172ZM165.331 83.4917V67.7417H166.916V83.4917H165.331ZM174.151 70.0041C174.138 72.1858 175.624 74.1872 178.048 74.989L177.209 76.3066C175.388 75.6664 174.02 74.3923 173.312 72.7452C172.609 74.5104 171.223 75.9026 169.359 76.5739L168.501 75.2624C170.962 74.3985 172.442 72.2604 172.442 70.0041V68.4938H174.151V70.0041ZM170.813 79.3025V77.9475H181.491V83.4917H179.819V79.3025H170.813ZM179.819 77.1954V67.7417H181.491V77.1954H179.819ZM188.938 70.6506C188.938 72.6457 190.33 74.4731 192.723 75.2376L191.927 76.5428C190.131 75.9648 188.826 74.7776 188.136 73.2797C187.452 75.0014 186.066 76.3688 184.17 77.0276L183.319 75.6975C185.774 74.8833 187.259 72.8446 187.272 70.663V70.2279H183.804V68.8729H192.337V70.2279H188.938V70.6506ZM185.444 80.5083C185.444 78.6561 187.452 77.5808 190.728 77.5808C193.978 77.5808 195.961 78.6561 195.961 80.5083C195.961 82.3791 193.978 83.4669 190.728 83.4669C187.452 83.4669 185.444 82.3791 185.444 80.5083ZM187.116 80.5083C187.104 81.5587 188.453 82.1492 190.728 82.1492C192.996 82.1492 194.326 81.5587 194.326 80.5083C194.326 79.4765 192.996 78.8985 190.728 78.9047C188.453 78.8985 187.104 79.4765 187.116 80.5083ZM194.146 77.1954V67.7417H195.818V71.6388H198.099V73.0186H195.818V77.1954H194.146ZM206.428 69.3018V79.5387H199.056V69.3018H206.428ZM200.691 78.1899H204.762V70.6257H200.691V78.1899ZM209.057 83.4917V67.7417H210.729V73.9137H213.253V75.3246H210.729V83.4917H209.057ZM225.746 67.7417V73.8391H228.269V75.2251H225.746V83.5228H224.074V67.7417H225.746ZM214.141 79.6133V69.2583H221.507V70.6133H215.807V78.221C218.449 78.2086 220.431 78.0967 222.688 77.6865L222.887 79.1098C220.425 79.5387 218.331 79.6195 215.409 79.6133H214.141ZM236.698 68.6616C238.004 68.6554 239.122 69.1402 239.862 69.9544H243.809V67.7417H245.475V77.0401H243.809V74.9144H239.856C239.116 75.7224 237.997 76.2072 236.698 76.201C234.33 76.2072 232.565 74.6409 232.578 72.4344C232.565 70.2155 234.33 68.6492 236.698 68.6616ZM234.162 72.4344C234.162 73.8142 235.219 74.7901 236.698 74.7776C238.14 74.7901 239.203 73.8142 239.203 72.4344C239.203 71.0235 238.14 70.0849 236.698 70.0974C235.219 70.0849 234.162 71.0235 234.162 72.4344ZM234.877 80.4275C234.865 78.5069 236.903 77.3881 240.198 77.3881C243.479 77.3881 245.518 78.5069 245.524 80.4275C245.518 82.3481 243.479 83.4669 240.198 83.4669C236.903 83.4669 234.865 82.3481 234.877 80.4275ZM236.512 80.4275C236.499 81.5214 237.892 82.1492 240.198 82.1492C242.516 82.1492 243.896 81.5214 243.896 80.4275C243.896 79.3149 242.516 78.6809 240.198 78.6809C237.892 78.6809 236.499 79.3149 236.512 80.4275ZM240.633 71.3032C240.738 71.6575 240.801 72.0366 240.801 72.4344C240.801 72.8322 240.738 73.2051 240.633 73.5532H243.809V71.3032H240.633ZM260.491 67.7417V77.1146H258.826V73.1305H255.886V71.7569H258.826V67.7417H260.491ZM247.37 75.6975C249.807 74.8398 251.305 72.7141 251.305 70.5387V70.1906H247.886V68.8294H256.389V70.1906H252.995V70.5262C252.995 72.5214 254.419 74.4606 256.793 75.2624L255.942 76.5925C254.17 75.9772 252.871 74.7155 252.187 73.1616C251.497 74.9206 250.118 76.3315 248.234 77.0214L247.37 75.6975ZM249.894 80.5269C249.881 78.6499 251.908 77.5559 255.214 77.5559C258.515 77.5559 260.535 78.6499 260.541 80.5269C260.535 82.3978 258.515 83.4793 255.214 83.4917C251.908 83.4793 249.881 82.3978 249.894 80.5269ZM251.547 80.5269C251.535 81.5836 252.908 82.1927 255.214 82.1802C257.514 82.1927 258.881 81.5836 258.888 80.5269C258.881 79.4579 257.514 78.8488 255.214 78.8488C252.908 78.8488 251.535 79.4579 251.547 80.5269ZM267.838 71.7507C267.826 74.5352 269.454 77.3881 271.791 78.5318L270.765 79.8681C269.044 78.9793 267.714 77.2141 267.024 75.1133C266.321 77.3508 264.942 79.2341 263.152 80.1664L262.114 78.8239C264.531 77.6554 266.166 74.6409 266.178 71.7507V69.0532H267.838V71.7507ZM272.978 83.4917V67.7417H274.65V74.0256H277.174V75.4489H274.65V83.4917H272.978ZM283.228 71.0235C283.228 73.0746 284.732 74.989 287.168 75.7535L286.317 77.0649C284.502 76.4682 283.128 75.2251 282.413 73.6464C281.705 75.3619 280.306 76.7169 278.429 77.3819L277.565 76.058C280.02 75.2251 281.531 73.1865 281.543 71.0235V70.346H278V68.9972H286.696V70.346H283.228V71.0235ZM280.157 83.1685V78.1713H281.835V81.8011H290.922V83.1685H280.157ZM288.79 79.2528V67.7541H290.462V79.2528H288.79ZM304.256 73.2673V75.4675H310.626V76.8101H296.269V75.4675H302.615V73.2673H304.256ZM297.089 72.8135C300.11 72.4157 302.584 70.6443 302.584 68.6554V67.9903H304.274V68.6554C304.274 70.6692 306.742 72.4157 309.787 72.8135L309.122 74.1312C306.63 73.7272 304.43 72.509 303.429 70.7749C302.422 72.5152 300.222 73.7272 297.704 74.1312L297.089 72.8135ZM297.965 80.732C297.965 78.9669 300.01 77.9724 303.429 77.9724C306.841 77.9724 308.861 78.9669 308.874 80.732C308.861 82.491 306.841 83.4669 303.429 83.4669C300.01 83.4669 297.965 82.491 297.965 80.732ZM299.662 80.732C299.65 81.6768 301.005 82.1989 303.429 82.1865C305.834 82.1989 307.195 81.6768 307.208 80.732C307.195 79.7749 305.834 79.2652 303.429 79.2652C301.005 79.2652 299.65 79.7749 299.662 80.732ZM325.624 74.6533V75.9026H319.278V77.2203H323.822V80.7756H314.66V82.0746H324.276V83.3425H313.026V79.6195H322.181V78.4385H312.995V77.2203H317.625V75.9026H311.304V74.6533H325.624ZM312 72.7762C315.021 72.6084 317.146 71.6823 317.482 70.346H312.727V69.0718H317.631V67.6796H319.272V69.0718H324.201V70.346H319.415C319.745 71.6823 321.87 72.6084 324.916 72.7762L324.412 74.0318C321.671 73.8329 319.434 73.0373 318.452 71.6575C317.47 73.0373 315.232 73.8329 312.479 74.0318L312 72.7762ZM333.586 77.5559C336.837 77.5559 338.82 78.6374 338.82 80.5083C338.82 82.3916 336.837 83.4793 333.586 83.4917C330.311 83.4793 328.303 82.3916 328.303 80.5083C328.303 78.6374 330.311 77.5559 333.586 77.5559ZM326.905 76.0331V68.7238H328.552V70.9986H332.679V68.7238H334.332V76.0331H326.905ZM328.552 74.703H332.679V72.3039H328.552V74.703ZM329.975 80.5083C329.963 81.5587 331.312 82.1616 333.586 82.1616C335.855 82.1616 337.185 81.5587 337.185 80.5083C337.185 79.4579 335.855 78.8736 333.586 78.8612C331.312 78.8736 329.963 79.4579 329.975 80.5083ZM337.005 77.1519V67.7417H338.677V71.6015H340.958V73.0124H338.677V77.1519H337.005ZM347.043 70.0041C347.031 72.1858 348.516 74.1872 350.94 74.989L350.101 76.3066C348.28 75.6664 346.912 74.3923 346.204 72.7452C345.502 74.5104 344.115 75.9026 342.251 76.5739L341.393 75.2624C343.854 74.3985 345.334 72.2604 345.334 70.0041V68.4938H347.043V70.0041ZM343.705 79.3025V77.9475H354.383V83.4917H352.711V79.3025H343.705ZM352.711 77.1954V67.7417H354.383V77.1954H352.711ZM369.879 67.7417V83.4917H368.275V67.7417H369.879ZM356.509 74.5414C356.509 71.1354 357.846 69.0035 359.897 69.0035C361.811 69.0035 363.11 70.8184 363.309 73.7769H365.087V68.0463H366.678V82.7148H365.087V75.1319H363.315C363.16 78.2086 361.848 80.1105 359.897 80.1043C357.846 80.1105 356.509 77.9662 356.509 74.5414ZM358.063 74.5414C358.051 77.0525 358.765 78.5256 359.897 78.5131C361.059 78.5256 361.78 77.0525 361.78 74.5414C361.78 72.0366 361.059 70.5698 359.897 70.5698C358.765 70.5698 358.051 72.0366 358.063 74.5414ZM387.755 67.7106V73.8329H389.925V75.2376H387.755V83.4917H386.09V67.7106H387.755ZM375.623 79.4454V69.3702H379.663V70.7314H377.289V78.047C378.041 78.0221 378.873 77.9475 379.8 77.7548L379.949 79.1347C378.525 79.4268 377.394 79.4454 376.35 79.4454H375.623ZM380.539 79.4454V69.3702H384.753V70.7314H382.186V78.0594C383.342 78.0345 384.206 77.9599 385.17 77.7175L385.319 79.0974C384.045 79.4144 383.007 79.4454 381.316 79.4454H380.539ZM402.492 67.7417V73.9012H405.016V75.2997H402.492V83.5228H400.839V67.7417H402.492ZM390.845 70.5262V69.1588H398.048V74.9517H392.529V78.364C395.233 78.3577 397.228 78.2521 399.528 77.8356L399.683 79.1968C397.228 79.6443 395.102 79.75 392.15 79.7624H390.876V73.6029H396.383V70.5262H390.845ZM421.364 67.7417V73.8391H423.887V75.2251H421.364V83.5228H419.692V67.7417H421.364ZM409.759 79.6133V69.2583H417.125V70.6133H411.425V78.221C414.067 78.2086 416.049 78.0967 418.305 77.6865L418.504 79.1098C416.043 79.5387 413.948 79.6195 411.027 79.6133H409.759ZM438.524 80.1851V81.5649H424.111V80.1851H438.524ZM425.832 70.259V68.8978H436.759V73.8204H427.523V76.1388H437.126V77.4689H425.864V72.4717H435.112V70.259H425.832ZM453.541 80.0794V81.453H439.127V80.0794H453.541ZM440.768 76.6236V69.0718H451.813V76.6236H440.768ZM442.403 75.3059H450.179V70.4268H442.403V75.3059ZM468.558 80.2162V81.6022H454.144V80.2162H460.484V77.4441H455.897V72.4344H465.145V70.2217H455.866V68.8605H466.793V73.7769H457.556V76.0767H467.159V77.4441H462.137V80.2162H468.558ZM471.989 80.7693L470.578 85.6298H469.086L470.025 80.7693H471.989ZM46.0787 100.651C46.0787 102.646 47.471 104.473 49.864 105.238L49.0684 106.543C47.2721 105.965 45.9669 104.778 45.2769 103.28C44.5932 105.001 43.2072 106.369 41.3115 107.028L40.4599 105.698C42.9151 104.883 44.4006 102.845 44.413 100.663V100.228H40.9448V98.8729H49.4786V100.228H46.0787V100.651ZM42.5856 110.508C42.5856 108.656 44.5932 107.581 47.8688 107.581C51.1195 107.581 53.1022 108.656 53.1022 110.508C53.1022 112.379 51.1195 113.467 47.8688 113.467C44.5932 113.467 42.5856 112.379 42.5856 110.508ZM44.2576 110.508C44.2452 111.559 45.5939 112.149 47.8688 112.149C50.1374 112.149 51.4675 111.559 51.4675 110.508C51.4675 109.477 50.1374 108.898 47.8688 108.905C45.5939 108.898 44.2452 109.477 44.2576 110.508ZM51.2873 107.195V97.7417H52.9593V101.639H55.2403V103.019H52.9593V107.195H51.2873ZM61.5305 99.4137V105.064H57.7079V108.37C59.2494 108.352 60.7535 108.258 62.5498 107.966L62.6803 109.334C60.6106 109.682 58.9635 109.75 57.1175 109.756H56.0981V103.727H59.9144V100.762H56.0733V99.4137H61.5305ZM62.3633 107.052V105.691H64.3398V103.137H62.3633V101.782H64.3398V98.0401H65.9248V112.684H64.3398V107.052H62.3633ZM67.5222 113.492V97.7417H69.1071V113.492H67.5222ZM76.342 100.004C76.3296 102.186 77.815 104.187 80.2391 104.989L79.4 106.307C77.5789 105.666 76.2115 104.392 75.5029 102.745C74.8005 104.51 73.4145 105.903 71.5499 106.574L70.6921 105.262C73.1534 104.398 74.6327 102.26 74.6327 100.004V98.4938H76.342V100.004ZM73.0043 109.302V107.948H83.6825V113.492H82.0105V109.302H73.0043ZM82.0105 107.195V97.7417H83.6825V107.195H82.0105ZM91.1287 100.651C91.1287 102.646 92.5209 104.473 94.9139 105.238L94.1183 106.543C92.322 105.965 91.0168 104.778 90.3269 103.28C89.6432 105.001 88.2571 106.369 86.3614 107.028L85.5099 105.698C87.965 104.883 89.4505 102.845 89.4629 100.663V100.228H85.9947V98.8729H94.5285V100.228H91.1287V100.651ZM87.6356 110.508C87.6356 108.656 89.6432 107.581 92.9187 107.581C96.1694 107.581 98.1521 108.656 98.1521 110.508C98.1521 112.379 96.1694 113.467 92.9187 113.467C89.6432 113.467 87.6356 112.379 87.6356 110.508ZM89.3075 110.508C89.2951 111.559 90.6438 112.149 92.9187 112.149C95.1874 112.149 96.5175 111.559 96.5175 110.508C96.5175 109.477 95.1874 108.898 92.9187 108.905C90.6438 108.898 89.2951 109.477 89.3075 110.508ZM96.3372 107.195V97.7417H98.0092V101.639H100.29V103.019H98.0092V107.195H96.3372ZM114.194 97.7417V113.492H112.591V97.7417H114.194ZM100.825 104.541C100.825 101.135 102.161 99.0035 104.212 99.0035C106.127 99.0035 107.426 100.818 107.625 103.777H109.402V98.0463H110.993V112.715H109.402V105.132H107.631C107.475 108.209 106.164 110.11 104.212 110.104C102.161 110.11 100.825 107.966 100.825 104.541ZM102.379 104.541C102.366 107.052 103.081 108.526 104.212 108.513C105.375 108.526 106.096 107.052 106.096 104.541C106.096 102.037 105.375 100.57 104.212 100.57C103.081 100.57 102.366 102.037 102.379 104.541ZM127.782 99.2521V109.601H120.392V99.2521H127.782ZM122.045 108.258H126.16V100.576H122.045V108.258ZM130.89 113.523V97.7417H132.568V113.523H130.89ZM147.604 97.7417V113.523H145.95V97.7417H147.604ZM135.409 100.526V99.1588H142.787V104.921H137.143V108.364C139.691 108.352 141.923 108.233 144.558 107.798L144.713 109.178C141.923 109.638 139.548 109.744 136.776 109.744H135.427V103.578H141.096V100.526H135.409ZM157.761 98.6616C159.066 98.6554 160.185 99.1402 160.924 99.9544H164.871V97.7417H166.537V107.04H164.871V104.914H160.918C160.178 105.722 159.06 106.207 157.761 106.201C155.393 106.207 153.627 104.641 153.64 102.434C153.627 100.215 155.393 98.6492 157.761 98.6616ZM155.225 102.434C155.225 103.814 156.281 104.79 157.761 104.778C159.203 104.79 160.265 103.814 160.265 102.434C160.265 101.023 159.203 100.085 157.761 100.097C156.281 100.085 155.225 101.023 155.225 102.434ZM155.939 110.427C155.927 108.507 157.966 107.388 161.26 107.388C164.542 107.388 166.58 108.507 166.587 110.427C166.58 112.348 164.542 113.467 161.26 113.467C157.966 113.467 155.927 112.348 155.939 110.427ZM157.574 110.427C157.562 111.521 158.954 112.149 161.26 112.149C163.578 112.149 164.958 111.521 164.958 110.427C164.958 109.315 163.578 108.681 161.26 108.681C158.954 108.681 157.562 109.315 157.574 110.427ZM161.695 101.303C161.801 101.657 161.863 102.037 161.863 102.434C161.863 102.832 161.801 103.205 161.695 103.553H164.871V101.303H161.695ZM181.554 97.7417V107.115H179.888V103.131H176.948V101.757H179.888V97.7417H181.554ZM168.433 105.698C170.869 104.84 172.367 102.714 172.367 100.539V100.191H168.949V98.8294H177.451V100.191H174.058V100.526C174.058 102.521 175.481 104.461 177.855 105.262L177.004 106.593C175.232 105.977 173.933 104.715 173.25 103.162C172.56 104.921 171.18 106.331 169.297 107.021L168.433 105.698ZM170.956 110.527C170.944 108.65 172.97 107.556 176.277 107.556C179.577 107.556 181.597 108.65 181.603 110.527C181.597 112.398 179.577 113.479 176.277 113.492C172.97 113.479 170.944 112.398 170.956 110.527ZM172.609 110.527C172.597 111.584 173.971 112.193 176.277 112.18C178.576 112.193 179.944 111.584 179.95 110.527C179.944 109.458 178.576 108.849 176.277 108.849C173.971 108.849 172.597 109.458 172.609 110.527ZM188.9 101.751C188.888 104.535 190.516 107.388 192.853 108.532L191.828 109.868C190.106 108.979 188.776 107.214 188.086 105.113C187.384 107.351 186.004 109.234 184.214 110.166L183.176 108.824C185.594 107.655 187.228 104.641 187.241 101.751V99.0532H188.9V101.751ZM194.04 113.492V97.7417H195.712V104.026H198.236V105.449H195.712V113.492H194.04ZM204.29 101.023C204.29 103.075 205.794 104.989 208.23 105.753L207.379 107.065C205.564 106.468 204.19 105.225 203.476 103.646C202.767 105.362 201.369 106.717 199.491 107.382L198.628 106.058C201.083 105.225 202.593 103.186 202.605 101.023V100.346H199.063V98.9972H207.758V100.346H204.29V101.023ZM201.219 113.169V108.171H202.898V111.801H211.985V113.169H201.219ZM209.853 109.253V97.7541H211.525V109.253H209.853ZM230.396 98.4938V99.8363H225.616C225.691 101.546 227.959 103.056 230.899 103.429L230.265 104.747C227.568 104.386 225.349 103.131 224.497 101.359C223.646 103.131 221.439 104.386 218.742 104.747L218.126 103.429C221.066 103.056 223.31 101.546 223.397 99.8363H218.642V98.4938H230.396ZM217.306 107.121V105.76H231.72V107.121H225.473V110.166H223.82V107.121H217.306ZM219.102 113.169V108.662H220.768V111.801H230.122V113.169H219.102ZM245.394 97.7417V113.523H243.716V97.7417H245.394ZM233.218 109.756V99.0532H234.883V103.099H239.135V99.0532H240.782V109.756H233.218ZM234.883 108.376H239.135V104.423H234.883V108.376ZM258.503 107.556C261.754 107.556 263.737 108.637 263.737 110.508C263.737 112.392 261.754 113.479 258.503 113.492C255.228 113.479 253.22 112.392 253.22 110.508C253.22 108.637 255.228 107.556 258.503 107.556ZM251.822 106.033V98.7238H253.469V100.999H257.596V98.7238H259.249V106.033H251.822ZM253.469 104.703H257.596V102.304H253.469V104.703ZM254.892 110.508C254.88 111.559 256.228 112.162 258.503 112.162C260.772 112.162 262.102 111.559 262.102 110.508C262.102 109.458 260.772 108.874 258.503 108.861C256.228 108.874 254.88 109.458 254.892 110.508ZM261.922 107.152V97.7417H263.594V101.602H265.875V103.012H263.594V107.152H261.922ZM268.653 98.5559V100.849H272.6V98.5559H274.253V101.521H277.697V97.7417H279.362V106.344H277.697V102.913H274.253V105.809H266.981V98.5559H268.653ZM268.653 104.461H272.6V102.155H268.653V104.461ZM269.094 113.274V107.084H270.754V108.849H277.697V107.084H279.35V113.274H269.094ZM270.754 111.913H277.697V110.154H270.754V111.913ZM288.418 98.0028C291.967 98.0028 294.037 98.9599 294.037 100.706C294.037 102.478 291.967 103.435 288.418 103.448C284.869 103.435 282.787 102.478 282.787 100.706C282.787 98.9599 284.869 98.0028 288.418 98.0028ZM281.252 105.741V104.405H295.61V105.741H281.252ZM282.961 108.202V106.953H293.789V110.639H284.627V112.05H294.242V113.343H282.992V109.439H292.148V108.202H282.961ZM284.534 100.706C284.521 101.689 285.914 102.192 288.418 102.192C290.942 102.192 292.328 101.689 292.328 100.706C292.328 99.7866 290.942 99.2396 288.418 99.2459C285.914 99.2396 284.521 99.7866 284.534 100.706ZM312.511 97.7541V102.428H314.754V103.814H312.511V108.358H310.845V97.7541H312.511ZM300.011 106.611C301.236 106.611 302.653 106.605 304.132 106.568V105.499C302.336 105.306 301.192 104.467 301.205 103.193C301.192 101.751 302.69 100.856 304.946 100.868C307.209 100.856 308.688 101.751 308.701 103.193C308.688 104.454 307.576 105.3 305.798 105.499V106.506C307.209 106.431 308.626 106.319 309.95 106.133L310.08 107.32C306.699 107.916 302.97 107.941 300.198 107.948L300.011 106.611ZM300.415 100.34V99.0905H304.132V97.6174H305.798V99.0905H309.502V100.34H300.415ZM301.975 110.409V109.091H312.511V113.492H310.845V110.409H301.975ZM302.796 103.193C302.79 103.926 303.61 104.417 304.946 104.405C306.283 104.417 307.103 103.926 307.103 103.193C307.103 102.434 306.283 101.999 304.946 102.012C303.61 101.999 302.79 102.434 302.796 103.193ZM328.205 97.7541V109.203H326.533V97.7541H328.205ZM315.457 102.72C315.457 100.439 317.278 98.8232 319.652 98.8232C322.027 98.8232 323.835 100.439 323.835 102.72C323.835 105.032 322.027 106.642 319.652 106.636C317.278 106.642 315.457 105.032 315.457 102.72ZM317.091 102.72C317.079 104.2 318.185 105.182 319.652 105.182C321.094 105.182 322.201 104.2 322.201 102.72C322.201 101.266 321.094 100.278 319.652 100.278C318.185 100.278 317.079 101.266 317.091 102.72ZM317.899 113.169V108.041H319.578V111.801H328.665V113.169H317.899ZM337.932 100.352V101.701H330.119V100.352H333.214V98.2079H334.868V100.352H337.932ZM330.629 106.269C330.616 104.15 332.058 102.646 334.041 102.646C336.03 102.646 337.453 104.15 337.466 106.269C337.453 108.42 336.03 109.93 334.041 109.93C332.058 109.93 330.616 108.42 330.629 106.269ZM332.096 106.269C332.096 107.606 332.904 108.507 334.041 108.494C335.172 108.507 335.987 107.606 335.987 106.269C335.987 104.958 335.172 104.044 334.041 104.038C332.904 104.044 332.096 104.958 332.096 106.269ZM338.665 112.752V98.096H340.238V104.305H342.053V97.7417H343.644V113.492H342.053V105.666H340.238V112.752H338.665ZM359.531 106.617V107.979H353.135V113.485H351.494V107.979H345.173V106.617H359.531ZM345.975 104.106C348.915 103.709 351.351 101.95 351.407 100.01H346.503V98.6802H358.182V100.01H353.297C353.334 101.95 355.764 103.709 358.735 104.106L358.12 105.424C355.54 105.02 353.309 103.746 352.346 101.95C351.382 103.746 349.151 105.02 346.603 105.424L345.975 104.106ZM365.97 101.751C365.958 104.628 367.692 107.525 370.134 108.6L369.128 109.93C367.319 109.066 365.889 107.295 365.15 105.138C364.422 107.444 362.974 109.352 361.091 110.266L360.059 108.874C362.539 107.767 364.28 104.759 364.292 101.751V99.0532H365.97V101.751ZM371.558 113.523V97.7417H373.236V113.523H371.558ZM388.296 97.7417V113.492H386.618V97.7417H388.296ZM375.356 109.271C379.545 107.282 381.583 104.442 381.913 100.769H376.12V99.4385H383.616C383.603 104.044 381.646 108.041 376.238 110.62L375.356 109.271ZM406.347 97.7417V103.839H408.87V105.256H406.347V113.492H404.675V97.7417H406.347ZM394.674 109.756V99.0532H396.334V103.099H400.492V99.0532H402.145V109.756H394.674ZM396.334 108.376H400.492V104.423H396.334V108.376ZM421.469 97.7541V101.434H423.763V102.832H421.469V106.443H419.797V97.7541H421.469ZM409.716 99.8674V98.5062H416.895V102.863H411.406V104.753C414.141 104.734 416.08 104.653 418.374 104.224L418.548 105.604C416.111 106.021 414.029 106.126 411.009 106.133H409.747V101.57H415.26V99.8674H409.716ZM411.388 113.293V107.121H413.041V108.892H419.797V107.121H421.469V113.293H411.388ZM413.041 111.938H419.797V110.21H413.041V111.938ZM437.176 97.7417V113.492H435.522V97.7417H437.176ZM425.074 109.489V99.2769H426.715V108.053C429.021 108.035 431.439 107.842 433.975 107.32L434.192 108.724C431.408 109.302 428.878 109.495 426.392 109.489H425.074ZM451.397 97.7417V103.839H453.92V105.225H451.397V113.523H449.725V97.7417H451.397ZM439.793 109.613V99.2583H447.158V100.613H441.458V108.221C444.1 108.209 446.083 108.097 448.339 107.686L448.538 109.11C446.076 109.539 443.982 109.619 441.06 109.613H439.793ZM455.934 112.118C455.244 112.118 454.672 111.559 454.685 110.875C454.672 110.191 455.244 109.632 455.934 109.632C456.605 109.632 457.177 110.191 457.177 110.875C457.177 111.559 456.605 112.118 455.934 112.118Z" fill="#666666"/>
<path d="M53.5253 164.663C52.0087 164.663 50.7905 163.432 50.7905 161.928C50.7905 160.412 52.0087 159.193 53.5253 159.193C55.0294 159.193 56.2601 160.412 56.2601 161.928C56.2601 163.432 55.0294 164.663 53.5253 164.663ZM80.6492 153.494V154.836H75.8695C75.9441 156.546 78.2127 158.056 81.1526 158.429L80.5186 159.747C77.8211 159.386 75.6022 158.131 74.7507 156.359C73.8992 158.131 71.6927 159.386 68.9952 159.747L68.3798 158.429C71.3198 158.056 73.5635 156.546 73.6506 154.836H68.8957V153.494H80.6492ZM67.5594 162.121V160.76H81.9731V162.121H75.7265V165.166H74.0732V162.121H67.5594ZM69.3557 168.169V163.662H71.0214V166.801H80.3757V168.169H69.3557ZM95.6472 152.742V168.523H93.969V152.742H95.6472ZM83.4711 164.756V154.053H85.1368V158.099H89.3882V154.053H91.0353V164.756H83.4711ZM85.1368 163.376H89.3882V159.423H85.1368V163.376ZM104.902 162.556C108.153 162.556 110.135 163.637 110.135 165.508C110.135 167.392 108.153 168.479 104.902 168.492C101.627 168.479 99.6189 167.392 99.6189 165.508C99.6189 163.637 101.627 162.556 104.902 162.556ZM98.2204 161.033V153.724H99.8675V155.999H103.995V153.724H105.648V161.033H98.2204ZM99.8675 159.703H103.995V157.304H99.8675V159.703ZM101.291 165.508C101.278 166.559 102.627 167.162 104.902 167.162C107.171 167.162 108.501 166.559 108.501 165.508C108.501 164.458 107.171 163.874 104.902 163.861C102.627 163.874 101.278 164.458 101.291 165.508ZM108.321 162.152V152.742H109.993V156.602H112.274V158.012H109.993V162.152H108.321ZM115.052 153.556V155.849H118.999V153.556H120.652V156.521H124.095V152.742H125.761V161.344H124.095V157.913H120.652V160.809H113.38V153.556H115.052ZM115.052 159.461H118.999V157.155H115.052V159.461ZM115.493 168.274V162.084H117.153V163.849H124.095V162.084H125.749V168.274H115.493ZM117.153 166.913H124.095V165.154H117.153V166.913ZM133.295 167.118C132.605 167.118 132.034 166.559 132.046 165.875C132.034 165.191 132.605 164.632 133.295 164.632C133.967 164.632 134.539 165.191 134.539 165.875C134.539 166.559 133.967 167.118 133.295 167.118ZM132.059 158.926C132.046 158.242 132.618 157.683 133.308 157.683C133.979 157.683 134.551 158.242 134.551 158.926C134.551 159.61 133.979 160.169 133.308 160.169C132.618 160.169 132.046 159.61 132.059 158.926ZM152.985 152.754V164.595H151.406V159.193H149.623V164.271H148.056V153.046H149.623V157.814H151.406V152.754H152.985ZM139.479 155.936V154.6H142.649V152.878H144.302V154.6H147.441V155.936H139.479ZM140.094 159.548C140.088 157.814 141.493 156.651 143.469 156.664C145.458 156.651 146.869 157.814 146.882 159.548C146.869 161.288 145.458 162.456 143.469 162.456C141.493 162.456 140.088 161.288 140.094 159.548ZM141.58 159.548C141.58 160.523 142.351 161.176 143.469 161.17C144.601 161.176 145.365 160.523 145.371 159.548C145.365 158.553 144.601 157.925 143.469 157.925C142.351 157.925 141.58 158.553 141.58 159.548ZM142.543 168.169V163.532H144.209V166.801H153.445V168.169H142.543ZM167.337 160.219V161.58H156.373V154.159H167.2V155.526H158.02V160.219H167.337ZM154.583 166.416V165.03H168.996V166.416H154.583ZM182.608 153.419V154.78H180.315V158.087H182.54V159.405H177.599V161.182H183.957V162.525H169.599V161.182H175.939V159.405H170.979V158.087H173.21V154.78H170.911V153.419H182.608ZM171.408 168.169V163.78H173.086V166.801H182.341V168.169H171.408ZM174.87 158.087H178.643V154.78H174.87V158.087ZM198.159 152.742V168.492H196.556V152.742H198.159ZM184.79 159.541C184.79 156.135 186.126 154.003 188.177 154.003C190.092 154.003 191.391 155.818 191.59 158.777H193.367V153.046H194.958V167.715H193.367V160.132H191.596C191.44 163.209 190.129 165.11 188.177 165.104C186.126 165.11 184.79 162.966 184.79 159.541ZM186.344 159.541C186.331 162.052 187.046 163.526 188.177 163.513C189.34 163.526 190.061 162.052 190.061 159.541C190.061 157.037 189.34 155.57 188.177 155.57C187.046 155.57 186.331 157.037 186.344 159.541ZM215.862 152.742V156.496H218.143V157.882H215.862V161.642H214.19V152.742H215.862ZM204.189 160.834V153.78H211.176V155.128H205.843V159.473C208.907 159.473 210.629 159.355 212.611 158.963L212.804 160.306C210.666 160.753 208.808 160.834 205.439 160.834H204.189ZM205.793 168.28V162.419H215.862V168.28H205.793ZM207.434 166.944H214.209V163.756H207.434V166.944ZM222.718 153.923C225.073 153.929 226.752 156.073 226.764 159.448C226.752 162.842 225.073 164.986 222.718 164.986C220.362 164.986 218.684 162.842 218.696 159.448C218.684 156.073 220.362 153.929 222.718 153.923ZM220.288 159.448C220.288 161.947 221.282 163.488 222.718 163.488C224.185 163.488 225.154 161.947 225.16 159.448C225.154 156.968 224.185 155.427 222.718 155.414C221.282 155.427 220.288 156.968 220.288 159.448ZM229.101 168.492V152.742H230.773V158.914H233.297V160.325H230.773V168.492H229.101ZM245.79 152.742V159.019H248.232V160.418H245.79V168.473H244.118V152.742H245.79ZM233.527 164.278C237.48 162.307 239.618 159.461 239.972 155.787H234.316V154.407H241.669C241.656 158.951 239.649 163.016 234.459 165.57L233.527 164.278ZM261.627 152.742V168.492H259.949V152.742H261.627ZM248.686 164.271C252.875 162.282 254.914 159.442 255.243 155.769H249.451V154.439H256.947C256.934 159.044 254.976 163.041 249.569 165.62L248.686 164.271ZM272.828 153.674L268.726 168.914H267.054L271.156 153.674H272.828ZM285.851 154.271H287.796V162.637C287.796 165.316 285.783 167.211 282.731 167.211C279.673 167.211 277.671 165.316 277.671 162.637V154.271H279.605V162.481C279.605 164.209 280.804 165.446 282.731 165.446C284.664 165.446 285.851 164.209 285.851 162.481V154.271ZM296.777 157.621C296.653 156.446 295.615 155.769 294.16 155.769C292.6 155.769 291.612 156.564 291.612 157.646C291.606 158.852 292.917 159.324 293.924 159.573L295.161 159.896C296.789 160.294 298.822 161.189 298.822 163.476C298.822 165.639 297.106 167.211 294.104 167.211C291.251 167.211 289.461 165.788 289.337 163.476H291.276C291.388 164.856 292.619 165.515 294.098 165.515C295.727 165.515 296.901 164.694 296.907 163.457C296.901 162.338 295.857 161.891 294.496 161.53L292.998 161.126C290.947 160.567 289.679 159.535 289.679 157.758C289.679 155.551 291.637 154.097 294.204 154.097C296.789 154.097 298.598 155.576 298.648 157.621H296.777ZM300.357 167V154.271H305.031C307.741 154.271 309.046 155.725 309.046 157.615C309.046 159.2 308.077 160.001 306.896 160.3V160.424C308.164 160.492 309.544 161.605 309.544 163.575C309.544 165.527 308.201 167 305.242 167H300.357ZM302.29 165.34H305.056C306.89 165.34 307.623 164.539 307.623 163.482C307.623 162.264 306.66 161.282 305.124 161.282H302.29V165.34ZM302.29 159.771H304.857C306.15 159.771 307.144 158.994 307.144 157.764C307.144 156.72 306.423 155.924 304.907 155.924H302.29V159.771ZM323.902 152.742V168.492H322.298V152.742H323.902ZM310.533 159.541C310.533 156.135 311.869 154.003 313.92 154.003C315.834 154.003 317.133 155.818 317.332 158.777H319.11V153.046H320.701V167.715H319.11V160.132H317.339C317.183 163.209 315.872 165.11 313.92 165.104C311.869 165.11 310.533 162.966 310.533 159.541ZM312.086 159.541C312.074 162.052 312.789 163.526 313.92 163.513C315.082 163.526 315.803 162.052 315.803 159.541C315.803 157.037 315.082 155.57 313.92 155.57C312.789 155.57 312.074 157.037 312.086 159.541ZM342.295 153.494V154.836H337.515C337.59 156.546 339.858 158.056 342.798 158.429L342.164 159.747C339.467 159.386 337.248 158.131 336.396 156.359C335.545 158.131 333.338 159.386 330.641 159.747L330.025 158.429C332.965 158.056 335.209 156.546 335.296 154.836H330.541V153.494H342.295ZM329.205 162.121V160.76H343.619V162.121H337.372V165.166H335.719V162.121H329.205ZM331.001 168.169V163.662H332.667V166.801H342.021V168.169H331.001ZM357.293 152.742V168.523H355.614V152.742H357.293ZM345.117 164.756V154.053H346.782V158.099H351.034V154.053H352.681V164.756H345.117ZM346.782 163.376H351.034V159.423H346.782V163.376ZM371.532 152.742V159.125H374.056V160.511H371.532V168.492H369.879V152.742H371.532ZM359.176 156.57V155.209H363.061V152.947H364.726V155.209H368.505V156.57H359.176ZM359.984 161.4C359.978 159.249 361.631 157.733 363.906 157.733C366.156 157.733 367.809 159.249 367.815 161.4C367.809 163.557 366.156 165.055 363.906 165.061C361.631 165.055 359.978 163.557 359.984 161.4ZM361.581 161.4C361.569 162.761 362.557 163.675 363.906 163.669C365.236 163.675 366.212 162.761 366.224 161.4C366.212 160.045 365.236 159.113 363.906 159.113C362.557 159.113 361.569 160.045 361.581 161.4ZM387.369 152.742V168.492H385.691V152.742H387.369ZM374.429 164.271C378.618 162.282 380.657 159.442 380.986 155.769H375.193V154.439H382.689C382.677 159.044 380.719 163.041 375.311 165.62L374.429 164.271ZM407.527 160.138V161.518H393.151V160.138H407.527ZM394.848 165.608C394.848 163.78 396.899 162.749 400.311 162.749C403.705 162.749 405.743 163.78 405.756 165.608C405.743 167.441 403.705 168.467 400.311 168.467C396.899 168.467 394.848 167.441 394.848 165.608ZM394.941 158.771V153.307H405.756V154.669H396.594V157.422H405.849V158.771H394.941ZM396.544 165.608C396.532 166.621 397.906 167.168 400.311 167.168C402.692 167.168 404.078 166.621 404.09 165.608C404.078 164.607 402.692 164.048 400.311 164.035C397.906 164.048 396.532 164.607 396.544 165.608ZM53.5253 194.663C52.0087 194.663 50.7905 193.432 50.7905 191.928C50.7905 190.412 52.0087 189.193 53.5253 189.193C55.0294 189.193 56.2601 190.412 56.2601 191.928C56.2601 193.432 55.0294 194.663 53.5253 194.663ZM75.5711 188.267V190.468H81.942V191.81H67.5843V190.468H73.9302V188.267H75.5711ZM68.4047 187.814C71.4254 187.416 73.8992 185.644 73.8992 183.655V182.99H75.5898V183.655C75.5898 185.669 78.0573 187.416 81.1029 187.814L80.4378 189.131C77.9454 188.727 75.7452 187.509 74.7445 185.775C73.7376 187.515 71.5373 188.727 69.02 189.131L68.4047 187.814ZM69.2811 195.732C69.2811 193.967 71.326 192.972 74.7445 192.972C78.1568 192.972 80.1768 193.967 80.1892 195.732C80.1768 197.491 78.1568 198.467 74.7445 198.467C71.326 198.467 69.2811 197.491 69.2811 195.732ZM70.9779 195.732C70.9655 196.677 72.3204 197.199 74.7445 197.186C77.1499 197.199 78.511 196.677 78.5235 195.732C78.511 194.775 77.1499 194.265 74.7445 194.265C72.3204 194.265 70.9655 194.775 70.9779 195.732ZM96.94 189.653V190.903H90.594V192.22H95.1375V195.776H85.9759V197.075H95.5912V198.343H84.3412V194.619H93.4966V193.439H84.3101V192.22H88.9407V190.903H82.6195V189.653H96.94ZM83.3157 187.776C86.3364 187.608 88.4621 186.682 88.7977 185.346H84.0429V184.072H88.9469V182.68H90.5878V184.072H95.5166V185.346H90.7307C91.0601 186.682 93.1858 187.608 96.2314 187.776L95.728 189.032C92.9869 188.833 90.7494 188.037 89.7673 186.657C88.7853 188.037 86.5477 188.833 83.7943 189.032L83.3157 187.776ZM104.902 192.556C108.153 192.556 110.135 193.637 110.135 195.508C110.135 197.392 108.153 198.479 104.902 198.492C101.627 198.479 99.6189 197.392 99.6189 195.508C99.6189 193.637 101.627 192.556 104.902 192.556ZM98.2204 191.033V183.724H99.8675V185.999H103.995V183.724H105.648V191.033H98.2204ZM99.8675 189.703H103.995V187.304H99.8675V189.703ZM101.291 195.508C101.278 196.559 102.627 197.162 104.902 197.162C107.171 197.162 108.501 196.559 108.501 195.508C108.501 194.458 107.171 193.874 104.902 193.861C102.627 193.874 101.278 194.458 101.291 195.508ZM108.321 192.152V182.742H109.993V186.602H112.274V188.012H109.993V192.152H108.321ZM118.359 185.004C118.346 187.186 119.832 189.187 122.256 189.989L121.417 191.307C119.595 190.666 118.228 189.392 117.52 187.745C116.817 189.51 115.431 190.903 113.566 191.574L112.709 190.262C115.17 189.398 116.649 187.26 116.649 185.004V183.494H118.359V185.004ZM115.021 194.302V192.948H125.699V198.492H124.027V194.302H115.021ZM124.027 192.195V182.742H125.699V192.195H124.027ZM133.295 197.118C132.605 197.118 132.034 196.559 132.046 195.875C132.034 195.191 132.605 194.632 133.295 194.632C133.967 194.632 134.539 195.191 134.539 195.875C134.539 196.559 133.967 197.118 133.295 197.118ZM132.059 188.926C132.046 188.242 132.618 187.683 133.308 187.683C133.979 187.683 134.551 188.242 134.551 188.926C134.551 189.61 133.979 190.169 133.308 190.169C132.618 190.169 132.046 189.61 132.059 188.926ZM153.98 195.148V196.528H139.566V195.148H145.906V191.506H141.207V184.003H152.252V191.506H147.559V195.148H153.98ZM142.842 190.182H150.617V185.352H142.842V190.182ZM167.648 182.742V198.492H165.994V182.742H167.648ZM155.546 194.489V184.277H157.187V193.053C159.493 193.035 161.911 192.842 164.447 192.32L164.664 193.724C161.88 194.302 159.35 194.495 156.864 194.489H155.546ZM182.733 182.742V198.523H181.079V189.927H177.94V188.566H181.079V182.742H182.733ZM170.32 194.8V184.14H177.679V185.508H171.998V188.566H177.021V189.896H171.998V193.42C174.634 193.414 176.461 193.333 178.556 192.972L178.736 194.334C176.442 194.7 174.466 194.794 171.538 194.8H170.32ZM193.89 183.674L189.788 198.914H188.116L192.218 183.674H193.89ZM203.482 186.751C203.47 189.535 205.098 192.388 207.435 193.532L206.41 194.868C204.688 193.979 203.358 192.214 202.668 190.113C201.966 192.351 200.586 194.234 198.796 195.166L197.758 193.824C200.176 192.655 201.81 189.641 201.823 186.751V184.053H203.482V186.751ZM208.623 198.492V182.742H210.295V189.026H212.818V190.449H210.295V198.492H208.623ZM218.872 186.023C218.872 188.075 220.376 189.989 222.813 190.753L221.961 192.065C220.146 191.468 218.772 190.225 218.058 188.646C217.349 190.362 215.951 191.717 214.074 192.382L213.21 191.058C215.665 190.225 217.175 188.186 217.188 186.023V185.346H213.645V183.997H222.34V185.346H218.872V186.023ZM215.802 198.169V193.171H217.48V196.801H226.567V198.169H215.802ZM224.435 194.253V182.754H226.107V194.253H224.435ZM241.123 182.754V194.203H239.451V182.754H241.123ZM228.375 187.72C228.375 185.439 230.197 183.823 232.571 183.823C234.945 183.823 236.754 185.439 236.754 187.72C236.754 190.032 234.945 191.642 232.571 191.636C230.197 191.642 228.375 190.032 228.375 187.72ZM230.01 187.72C229.998 189.2 231.104 190.182 232.571 190.182C234.013 190.182 235.119 189.2 235.119 187.72C235.119 186.266 234.013 185.278 232.571 185.278C231.104 185.278 229.998 186.266 230.01 187.72ZM230.818 198.169V193.041H232.496V196.801H241.583V198.169H230.818ZM255.419 182.742V189.343H257.781V190.741H255.419V198.492H253.741V182.742H255.419ZM242.876 194.209C244.119 194.209 245.561 194.203 247.065 194.16V192.562C245.288 192.301 244.126 191.226 244.138 189.703C244.126 187.925 245.661 186.757 247.911 186.757C250.136 186.757 251.69 187.925 251.702 189.703C251.69 191.232 250.509 192.307 248.737 192.562V194.097C250.13 194.029 251.534 193.917 252.84 193.731L252.958 194.968C249.539 195.57 245.853 195.602 243.131 195.602L242.876 194.209ZM243.168 185.943V184.613H247.065V182.785H248.737V184.613H252.616V185.943H243.168ZM245.71 189.703C245.71 190.704 246.587 191.325 247.911 191.319C249.222 191.325 250.099 190.704 250.099 189.703C250.099 188.696 249.222 188.05 247.911 188.05C246.587 188.05 245.71 188.696 245.71 189.703ZM276.323 190.138V191.518H261.946V190.138H276.323ZM263.643 195.608C263.643 193.78 265.694 192.749 269.107 192.749C272.5 192.749 274.539 193.78 274.551 195.608C274.539 197.441 272.5 198.467 269.107 198.467C265.694 198.467 263.643 197.441 263.643 195.608ZM263.736 188.771V183.307H274.551V184.669H265.39V187.422H274.644V188.771H263.736ZM265.34 195.608C265.327 196.621 266.701 197.168 269.107 197.168C271.487 197.168 272.873 196.621 272.886 195.608C272.873 194.607 271.487 194.048 269.107 194.035C266.701 194.048 265.327 194.607 265.34 195.608Z" fill="#666666"/>
</svg>
