<svg width="169" height="49" viewBox="0 0 169 49" fill="none" xmlns="http://www.w3.org/2000/svg">
<rect width="169" height="49" rx="8" fill="#FFE2AA"/>
<path d="M34.942 26.2327H20.5843V27.6126H26.9302V32.5166H28.5711V27.6126H34.942V26.2327ZM21.4233 23.8149L22.0325 25.145C24.5684 24.7907 26.7376 23.6285 27.7631 22C28.7825 23.6098 30.933 24.797 33.4627 25.145L34.0718 23.8149C31.0698 23.4358 28.6892 21.7514 28.596 19.9924H33.5746V18.6499H28.5711V16.7417H26.9302V18.6499H21.9392V19.9924H26.924C26.8184 21.7638 24.413 23.4358 21.4233 23.8149ZM48.728 26.8667H38.0498V28.1968H47.0622V32.5166H48.728V26.8667ZM35.8309 21.4157C35.8184 23.6657 37.5836 25.2445 39.9517 25.2383C42.0401 25.2445 43.6624 23.9827 43.9918 22.1119H47.0622V26.0276H48.728V16.7417H47.0622V20.7258H43.9918C43.6624 18.8736 42.0401 17.6119 39.9517 17.6243C37.5836 17.6119 35.8184 19.1968 35.8309 21.4157ZM37.4158 21.4157C37.4158 20.011 38.5035 19.0352 39.9517 19.0352C41.3751 19.0352 42.4566 20.011 42.4566 21.4157C42.4566 22.8639 41.3751 23.8211 39.9517 23.8211C38.5035 23.8211 37.4158 22.8639 37.4158 21.4157ZM64.0367 16.7541H62.458V20.1167H60.6182V17.0463H59.0644V24.7845H60.6182V21.4779H62.458V24.9586H64.0367V16.7541ZM50.7543 20.9558C50.7418 23.0007 52.2398 24.4302 54.3592 24.424C56.4663 24.4302 57.9767 23.0007 57.9767 20.9558C57.9767 18.8612 56.4663 17.4814 54.3592 17.4938C52.2398 17.4814 50.7418 18.8612 50.7543 20.9558ZM52.2522 20.9558C52.2398 19.6692 53.1348 18.7866 54.3592 18.7866C55.565 18.7866 56.4539 19.6692 56.4601 20.9558C56.4539 22.2238 55.565 23.0815 54.3592 23.0939C53.1348 23.0815 52.2398 22.2238 52.2522 20.9558ZM53.4767 26.9351H62.3834V28.2217H53.5077V32.2928H64.6396V30.9565H55.1797V29.4834H64.0367V25.5988H53.4767V26.9351ZM68.052 17.6367H66.38V25.0642H73.6521V22.0311H77.0955V25.8722H78.7612V16.7417H77.0955V20.6512H73.6521V17.6367H71.9988V20.011H68.052V17.6367ZM68.052 23.7155V21.3287H71.9988V23.7155H68.052ZM68.3628 32.2928H78.7612V26.6057H68.3628V32.2928ZM70.0347 30.9378V27.9358H77.1266V30.9378H70.0347ZM96.7747 16.7417H95.1027V32.4917H96.7747V24.2562H99.2982V22.8391H96.7747V16.7417ZM85.102 28.7562H92.573V18.0532H90.9197V22.0994H86.7616V18.0532H85.102V28.7562ZM86.7616 27.3764V23.4233H90.9197V27.3764H86.7616ZM113.936 29.2162H107.515V26.4441H112.537V25.0767H102.934V22.7769H112.17V17.8605H101.244V19.2217H110.523V21.4344H101.275V26.4441H105.862V29.2162H99.522V30.6022H113.936V29.2162ZM130.662 16.7417H128.991V32.4731H130.662V24.4178H133.105V23.0193H130.662V16.7417ZM118.399 28.2776L119.332 29.5704C124.522 27.0159 126.529 22.951 126.542 18.4075H119.189V19.7873H124.845C124.491 23.4606 122.352 26.3073 118.399 28.2776ZM146.5 16.7417H144.821V32.4917H146.5V16.7417ZM133.559 28.2714L134.442 29.6202C139.849 27.0407 141.807 23.0442 141.819 18.4385H134.323V19.7686H140.116C139.787 23.442 137.748 26.2825 133.559 28.2714Z" fill="#2C2827"/>
</svg>
