<svg width="169" height="49" viewBox="0 0 169 49" fill="none" xmlns="http://www.w3.org/2000/svg">
<rect width="169" height="49" rx="8" fill="#AAE7F5"/>
<path d="M33.73 16.7417H32.0642V21.8322H27.3591V23.1996H32.0642V32.5228H33.73V16.7417ZM21.4296 28.7376H22.6789C25.1651 28.7376 27.4461 28.607 29.9758 28.0849L29.7831 26.7113C27.4834 27.1651 25.364 27.308 23.1077 27.3329V18.482H21.4296V28.7376ZM40.7287 17.8605C38.2487 17.8605 36.4276 19.4019 36.44 21.6146C36.4276 23.8336 38.2487 25.3688 40.7287 25.3688C43.2211 25.3688 45.0049 23.8336 45.0173 21.6146C45.0049 19.4019 43.2211 17.8605 40.7287 17.8605ZM35.6817 27.7431L35.8868 29.1354C38.7024 29.1354 42.5311 29.1167 46.0988 28.4392L45.9683 27.221C42.5249 27.7182 38.5532 27.7493 35.6817 27.7431ZM38.0871 21.6146C38.0747 20.2286 39.1997 19.3087 40.7287 19.3087C42.2577 19.3087 43.3827 20.2286 43.3889 21.6146C43.3827 23.0069 42.2577 23.9206 40.7287 23.9206C39.1997 23.9206 38.0747 23.0069 38.0871 21.6146ZM46.9566 32.5228H48.6223V16.7417H46.9566V32.5228ZM59.5998 17.8605C57.1199 17.8605 55.2987 19.4019 55.3112 21.6146C55.2987 23.8336 57.1199 25.3688 59.5998 25.3688C62.0922 25.3688 63.8761 23.8336 63.8885 21.6146C63.8761 19.4019 62.0922 17.8605 59.5998 17.8605ZM54.5529 27.7431L54.758 29.1354C57.5736 29.1354 61.4023 29.1167 64.97 28.4392L64.8395 27.221C61.3961 27.7182 57.4244 27.7493 54.5529 27.7431ZM56.9583 21.6146C56.9458 20.2286 58.0708 19.3087 59.5998 19.3087C61.1288 19.3087 62.2538 20.2286 62.2601 21.6146C62.2538 23.0069 61.1288 23.9206 59.5998 23.9206C58.0708 23.9206 56.9458 23.0069 56.9583 21.6146ZM65.8277 32.5228H67.4935V16.7417H65.8277V32.5228ZM77.7491 18.2521H70.3589V28.6008H77.7491V18.2521ZM72.0122 27.2583V19.576H76.1268V27.2583H72.0122ZM80.8568 32.5228H82.535V16.7417H80.8568V32.5228ZM100.629 16.7417H98.9573V32.4917H100.629V24.2562H103.153V22.8391H100.629V16.7417ZM88.9566 28.7562H96.4276V18.0532H94.7742V22.0994H90.6161V18.0532H88.9566V28.7562ZM90.6161 27.3764V23.4233H94.7742V27.3764H90.6161ZM117.79 29.2162H111.37V26.4441H116.392V25.0767H106.789V22.7769H116.025V17.8605H105.098V19.2217H114.378V21.4344H105.129V26.4441H109.716V29.2162H103.377V30.6022H117.79V29.2162ZM130.662 16.7417H128.991V32.4731H130.662V24.4178H133.105V23.0193H130.662V16.7417ZM118.399 28.2776L119.332 29.5704C124.522 27.0159 126.529 22.951 126.542 18.4075H119.189V19.7873H124.845C124.491 23.4606 122.352 26.3073 118.399 28.2776ZM146.5 16.7417H144.821V32.4917H146.5V16.7417ZM133.559 28.2714L134.442 29.6202C139.849 27.0407 141.807 23.0442 141.819 18.4385H134.323V19.7686H140.116C139.787 23.442 137.748 26.2825 133.559 28.2714Z" fill="#2C2827"/>
</svg>
