<svg width="176" height="60" viewBox="0 0 176 60" fill="none" xmlns="http://www.w3.org/2000/svg">
<g clip-path="url(#clip0_745_403)">
<path d="M39.2021 12.7417C38.6034 13.2392 38.696 14.3464 39.4088 15.2169C40.1216 16.0875 41.186 16.3888 41.7823 15.8913C42.3787 15.3939 42.2884 14.2866 41.5756 13.4161C40.8628 12.5456 39.7985 12.2443 39.2021 12.7417Z" fill="white"/>
<path d="M14.1816 18.2421C14.0795 18.2469 13.9773 18.2612 13.8799 18.278L10.4634 14.9777C10.1165 14.6429 9.56529 14.6548 9.23029 15.004C8.89766 15.3531 8.90954 15.908 9.25642 16.2452L12.4401 19.3206C12.2572 19.6507 12.155 20.0333 12.1716 20.4399C12.1859 20.7843 12.2833 21.1071 12.4401 21.3869L10.9243 23.0729C10.6036 23.434 10.6321 23.9889 10.9908 24.3117C11.1738 24.4767 11.4066 24.5509 11.6347 24.5341C11.8509 24.5174 12.0647 24.4217 12.2215 24.2448L13.8585 22.4224C14.0177 22.4535 14.184 22.4703 14.3527 22.4631C15.5098 22.4153 16.4102 21.4324 16.3627 20.2677C16.3152 19.103 15.3387 18.1966 14.1816 18.2445V18.2421Z" fill="white"/>
<path d="M57.3848 20.7269C57.3563 20.1386 57.0355 14.9251 54.2154 13.0191C53.4432 12.4978 52.1578 12.0099 50.4092 12.6341C50.0623 12.7584 49.7891 12.8828 49.5705 12.9832C49.5087 13.0119 49.4375 13.043 49.3781 13.0693C49.2997 13.0048 49.1785 12.8947 49.005 12.7106C48.7009 12.3901 48.442 11.9597 48.1664 11.5053C47.8599 10.9959 47.5154 10.4195 47.0402 9.90058C46.1255 8.89375 45.0943 8.04476 43.9777 7.37753C41.1931 5.71065 38.0451 5.5552 35.1204 6.9375C34.4765 7.24122 33.8279 7.53059 33.2006 7.81279C30.8152 8.8794 28.5605 9.88862 26.6931 11.5435L26.3652 11.2135C20.3423 5.14625 10.5418 5.14625 4.51655 11.2087C-1.50633 17.2712 -1.50633 27.1362 4.51655 33.1987L24.7971 53.6126C25.0513 53.8685 25.3863 53.9976 25.7213 53.9976C26.0563 53.9976 26.3842 53.8709 26.6408 53.6174L42.1672 38.1874C42.4666 37.9052 43.1414 37.2858 43.9919 36.5085C47.2516 33.5263 53.3149 27.978 55.7597 25.2828C57.0664 23.8407 57.4751 22.6904 57.3848 20.7246V20.7269ZM6.36736 13.0693C8.86917 10.5511 12.155 9.29074 15.4409 9.29074C18.7267 9.29074 22.0126 10.5511 24.5168 13.0693L24.8755 13.4304C24.8945 13.4496 24.9159 13.4711 24.9373 13.4878C23.7874 15.1117 23.0413 17.0703 22.6755 19.4188C22.4711 20.7293 22.3927 22.0279 22.4355 23.293C16.023 26.2298 11.965 32.7634 10.4919 35.4897L6.36736 31.3381C1.36374 26.3015 1.36374 18.1058 6.36736 13.0693ZM53.8305 23.5107C51.4712 26.115 45.465 31.6107 42.2361 34.5642C41.3309 35.3917 40.6752 35.9919 40.3663 36.2861C40.3592 36.2933 40.3521 36.3005 40.3426 36.3076L25.7285 50.8289L12.4283 37.4412C13.2551 35.8078 16.8878 29.1738 22.7277 26.0767C23.1839 28.5567 24.139 30.7856 25.5384 32.5075C27.3512 34.7364 29.777 35.9752 32.5473 36.0924C32.6447 36.0972 32.7421 36.0996 32.8395 36.0996C36.0279 36.0996 38.8339 33.9066 39.8793 30.5584C40.5303 28.4707 40.4257 26.1389 39.5823 23.9985C38.6414 21.6046 36.8025 19.4786 34.265 17.8523C33.6568 17.4625 32.849 17.6419 32.4594 18.2541C32.0721 18.8663 32.2503 19.6795 32.8585 20.0717C37.4962 23.0467 38.2351 27.031 37.3822 29.7692C36.6528 32.1034 34.7972 33.5478 32.6542 33.4617C30.6489 33.378 28.886 32.4716 27.5579 30.8382C25.4434 28.2387 24.5809 24.1229 25.2509 19.8277C26.1894 13.8203 29.7485 12.2275 34.2555 10.2115C34.8946 9.92449 35.5551 9.63034 36.2228 9.31466C38.3397 8.315 40.6182 8.4298 42.6353 9.63512C43.5334 10.1708 44.3626 10.8572 45.1062 11.6727C45.4056 12.0003 45.6574 12.4212 45.9235 12.8637C46.2443 13.397 46.6054 13.9996 47.1115 14.5281C48.3968 15.8794 49.2593 15.9463 50.3926 15.4848C50.4211 16.1018 50.9414 16.7738 51.7492 17.1397C52.6116 17.5319 53.5169 17.4458 53.9706 16.9842C54.4292 18.1322 54.7095 19.5862 54.7689 20.8465C54.8283 22.1116 54.6597 22.5851 53.8233 23.5083L53.8305 23.5107Z" fill="white"/>
<path d="M85.0605 30.0945C85.013 25.8089 87.9947 22.6904 92.2499 22.6736C96.3079 22.6593 99.5439 26.005 99.5059 30.0897C99.5035 30.4006 99.4845 30.7402 99.4417 31.1061C99.4251 31.2448 99.3111 31.35 99.1733 31.35H89.5961C89.4131 31.35 89.2872 31.527 89.3395 31.704C89.7529 33.1054 90.8149 33.9018 92.2832 33.9018C93.4212 33.9018 94.3692 33.5215 94.7731 32.9189C94.8206 32.8471 94.9038 32.8041 94.9917 32.8041H98.7147C98.9 32.8041 99.0307 32.9882 98.9713 33.1628C98.1208 35.6356 95.4954 37.3097 92.2856 37.3097C88.306 37.3097 85.108 34.1003 85.0629 30.0945H85.0605ZM95.0392 28.6094C95.2174 28.6094 95.3505 28.4372 95.3006 28.265C94.8753 26.8157 93.8251 26.0337 92.2856 26.0337C90.746 26.0337 89.7362 26.8157 89.3157 28.265C89.2658 28.4372 89.3989 28.607 89.5771 28.607H95.0416L95.0392 28.6094Z" fill="white"/>
<path d="M175.981 23.2811L168.471 41.9014C168.43 41.9994 168.335 42.0664 168.228 42.0664H164.783C164.598 42.0664 164.472 41.8775 164.541 41.7053L166.784 36.1689C166.81 36.1044 166.81 36.035 166.784 35.9704L161.676 23.2835C161.607 23.1113 161.733 22.9224 161.918 22.9224H165.86C165.971 22.9224 166.069 22.9917 166.107 23.0993L168.711 30.5704C168.792 30.8048 169.122 30.8048 169.203 30.5704L171.828 23.0993C171.866 22.9941 171.963 22.9248 172.075 22.9248H175.741C175.926 22.9248 176.052 23.1137 175.983 23.2859L175.981 23.2811Z" fill="white"/>
<path d="M149.088 29.9917C149.088 34.227 146.016 37.2953 141.737 37.2953C137.458 37.2953 134.386 34.227 134.386 29.9917C134.386 25.7563 137.458 22.688 141.737 22.688C146.016 22.688 149.088 25.7563 149.088 29.9917ZM138.454 29.9917C138.454 32.1321 139.753 33.6794 141.74 33.6794C143.726 33.6794 145.026 32.1321 145.026 29.9917C145.026 27.8513 143.726 26.304 141.74 26.304C139.753 26.304 138.454 27.8489 138.454 29.9917Z" fill="white"/>
<path d="M69.3298 18.1991C69.3298 18.0532 69.4462 17.936 69.5911 17.936H76.6261C81.568 17.936 84.457 20.7054 84.457 24.9288C84.457 29.1522 81.568 31.967 76.6261 31.967H73.8345C73.6895 31.967 73.5731 32.0842 73.5731 32.2301V36.7955C73.5731 36.9414 73.4567 37.0585 73.3118 37.0585H69.5911C69.4462 37.0585 69.3298 36.9414 69.3298 36.7955V18.1991ZM76.4384 28.1884C78.7929 28.1884 80.2137 27.062 80.2137 24.9264C80.2137 22.7908 78.7929 21.7122 76.4384 21.7122H73.8321C73.6872 21.7122 73.5707 21.8294 73.5707 21.9753V27.9254C73.5707 28.0713 73.6872 28.1884 73.8321 28.1884H76.4384Z" fill="white"/>
<path d="M109.489 23.5561H107.353C107.209 23.5561 107.092 23.4389 107.092 23.293V22.2599V20.7126C107.092 20.5691 106.976 20.4519 106.831 20.4519H103.274C103.129 20.4519 103.013 20.5691 103.013 20.715V22.2599V23.3624C103.013 23.4676 102.927 23.5537 102.823 23.5537H100.615C100.471 23.5537 100.354 23.6709 100.354 23.8168V26.8205C100.354 26.9664 100.471 27.0836 100.615 27.0836H102.751C102.896 27.0836 103.013 27.2007 103.013 27.3466V36.7931C103.013 36.939 103.129 37.0562 103.274 37.0562H106.831C106.976 37.0562 107.092 36.939 107.092 36.7931V27.3466C107.092 27.2007 107.209 27.0836 107.353 27.0836H109.489C109.634 27.0836 109.751 26.9664 109.751 26.8205V23.8168C109.751 23.6709 109.634 23.5537 109.489 23.5537V23.5561Z" fill="white"/>
<path d="M127.496 23.2332C125.591 23.2332 124.225 23.7976 123.229 24.9264C123.122 25.0484 122.935 25.0436 122.832 24.9192C121.937 23.8335 120.616 23.2332 119.038 23.2332C117.812 23.2332 116.912 23.5919 116.185 24.3261C116.021 24.4911 115.74 24.3764 115.74 24.142V23.6637V23.183C115.74 23.0371 115.624 22.9199 115.479 22.9199H111.922C111.777 22.9199 111.661 23.0371 111.661 23.183V36.7955C111.661 36.9413 111.777 37.0585 111.922 37.0585H115.479C115.624 37.0585 115.74 36.9413 115.74 36.7955V29.7405C115.809 27.8249 116.52 26.7655 117.848 26.7655C119.337 26.7655 120.117 27.8967 120.117 29.9486V36.7955C120.117 36.9413 120.233 37.0585 120.378 37.0585H123.935C124.08 37.0585 124.196 36.9413 124.196 36.7955V29.7405C124.265 27.8249 124.975 26.7655 126.304 26.7655C127.793 26.7655 128.573 27.8967 128.573 29.9486V36.7955C128.573 36.9413 128.689 37.0585 128.834 37.0585H132.391C132.535 37.0585 132.652 36.9413 132.652 36.7955V29.255C132.652 25.4956 130.59 23.2356 127.496 23.2356V23.2332Z" fill="white"/>
<path d="M160.307 23.6374C160.307 23.5226 160.229 23.4197 160.12 23.3862C159.661 23.2523 159.207 23.2164 158.542 23.2164C157.112 23.2164 156.014 23.6469 155.225 24.417C155.061 24.5772 154.786 24.4576 154.786 24.2281V23.4628V22.7023C154.786 22.5564 154.669 22.4392 154.524 22.4392H150.968C150.823 22.4392 150.706 22.5564 150.706 22.7023V36.7931C150.706 36.9389 150.823 37.0561 150.968 37.0561H154.524C154.669 37.0561 154.786 36.9389 154.786 36.7931V30.1351C154.786 28.0832 156.092 26.8372 158.269 26.8372C158.91 26.8372 159.495 26.94 159.996 27.1361C160.167 27.2031 160.352 27.074 160.35 26.8874L160.312 23.635L160.307 23.6374Z" fill="white"/>
</g>
<defs>
<clipPath id="clip0_745_403">
<rect width="176" height="48" fill="white" transform="translate(0 6)"/>
</clipPath>
</defs>
</svg>
