<svg width="176" height="60" viewBox="0 0 176 60" fill="none" xmlns="http://www.w3.org/2000/svg">
<g clip-path="url(#clip0_749_536)">
<path d="M39.2022 12.7417C38.6035 13.2392 38.6962 14.3464 39.4089 15.2169C40.1217 16.0875 41.1861 16.3888 41.7824 15.8913C42.3788 15.3939 42.2885 14.2866 41.5757 13.4161C40.863 12.5456 39.7986 12.2443 39.2022 12.7417Z" fill="#FF8A33"/>
<path d="M14.1818 18.2421C14.0797 18.2469 13.9775 18.2612 13.8801 18.278L10.4636 14.9777C10.1167 14.6429 9.56547 14.6548 9.23047 15.004C8.89785 15.3531 8.90973 15.908 9.25661 16.2452L12.4403 19.3206C12.2574 19.6507 12.1552 20.0333 12.1718 20.4399C12.1861 20.7843 12.2835 21.1071 12.4403 21.3869L10.9245 23.0729C10.6037 23.434 10.6322 23.9889 10.991 24.3117C11.1739 24.4767 11.4068 24.5509 11.6349 24.5341C11.8511 24.5174 12.0649 24.4217 12.2217 24.2448L13.8587 22.4224C14.0179 22.4535 14.1842 22.4703 14.3529 22.4631C15.5099 22.4153 16.4104 21.4324 16.3629 20.2677C16.3154 19.103 15.3389 18.1966 14.1818 18.2445V18.2421Z" fill="#FF8A33"/>
<path d="M57.3849 20.7269C57.3564 20.1386 57.0357 14.9251 54.2155 13.0191C53.4433 12.4978 52.158 12.0099 50.4093 12.6341C50.0624 12.7584 49.7892 12.8828 49.5706 12.9832C49.5089 13.0119 49.4376 13.043 49.3782 13.0693C49.2998 13.0048 49.1786 12.8947 49.0052 12.7106C48.701 12.3901 48.4421 11.9597 48.1665 11.5053C47.86 10.9959 47.5155 10.4195 47.0403 9.90058C46.1256 8.89375 45.0945 8.04476 43.9778 7.37753C41.1932 5.71065 38.0452 5.5552 35.1205 6.9375C34.4766 7.24122 33.828 7.53059 33.2008 7.81279C30.8154 8.8794 28.5607 9.88862 26.6932 11.5435L26.3653 11.2135C20.3425 5.14625 10.5419 5.14625 4.51667 11.2087C-1.50621 17.2712 -1.50621 27.1362 4.51667 33.1987L24.7972 53.6126C25.0515 53.8685 25.3865 53.9976 25.7215 53.9976C26.0565 53.9976 26.3843 53.8709 26.6409 53.6174L42.1674 38.1874C42.4667 37.9052 43.1415 37.2858 43.992 36.5085C47.2518 33.5263 53.315 27.978 55.7598 25.2828C57.0666 23.8407 57.4752 22.6904 57.3849 20.7246V20.7269ZM6.36748 13.0693C8.86929 10.5511 12.1551 9.29074 15.441 9.29074C18.7269 9.29074 22.0127 10.5511 24.5169 13.0693L24.8756 13.4304C24.8947 13.4496 24.916 13.4711 24.9374 13.4878C23.7875 15.1117 23.0415 17.0703 22.6756 19.4188C22.4713 20.7293 22.3928 22.0279 22.4356 23.293C16.0231 26.2298 11.9651 32.7634 10.492 35.4897L6.36748 31.3381C1.36387 26.3015 1.36387 18.1058 6.36748 13.0693ZM53.8306 23.5107C51.4713 26.115 45.4651 31.6107 42.2363 34.5642C41.331 35.3917 40.6753 35.9919 40.3664 36.2861C40.3593 36.2933 40.3522 36.3005 40.3427 36.3076L25.7286 50.8289L12.4284 37.4412C13.2552 35.8078 16.8879 29.1738 22.7278 26.0767C23.184 28.5567 24.1391 30.7856 25.5385 32.5075C27.3513 34.7364 29.7771 35.9752 32.5474 36.0924C32.6448 36.0972 32.7422 36.0996 32.8396 36.0996C36.0281 36.0996 38.834 33.9066 39.8794 30.5584C40.5304 28.4707 40.4258 26.1389 39.5824 23.9985C38.6415 21.6046 36.8026 19.4786 34.2652 17.8523C33.6569 17.4625 32.8491 17.6419 32.4595 18.2541C32.0722 18.8663 32.2504 19.6795 32.8586 20.0717C37.4964 23.0467 38.2353 27.031 37.3823 29.7692C36.6529 32.1034 34.7974 33.5478 32.6543 33.4617C30.6491 33.378 28.8861 32.4716 27.558 30.8382C25.4435 28.2387 24.581 24.1229 25.251 19.8277C26.1895 13.8203 29.7486 12.2275 34.2557 10.2115C34.8948 9.92449 35.5553 9.63034 36.2229 9.31466C38.3398 8.315 40.6183 8.4298 42.6354 9.63512C43.5335 10.1708 44.3627 10.8572 45.1063 11.6727C45.4057 12.0003 45.6575 12.4212 45.9236 12.8637C46.2444 13.397 46.6055 13.9996 47.1116 14.5281C48.3969 15.8794 49.2594 15.9463 50.3927 15.4848C50.4212 16.1018 50.9415 16.7738 51.7493 17.1397C52.6118 17.5319 53.517 17.4458 53.9708 16.9842C54.4293 18.1322 54.7097 19.5862 54.7691 20.8465C54.8285 22.1116 54.6598 22.5851 53.8235 23.5083L53.8306 23.5107Z" fill="#FF8A33"/>
<path d="M85.0606 30.0945C85.0131 25.8089 87.9948 22.6904 92.2501 22.6736C96.3081 22.6593 99.544 26.005 99.506 30.0897C99.5036 30.4006 99.4846 30.7402 99.4419 31.1061C99.4252 31.2448 99.3112 31.35 99.1734 31.35H89.5962C89.4132 31.35 89.2873 31.527 89.3396 31.704C89.753 33.1054 90.815 33.9018 92.2833 33.9018C93.4214 33.9018 94.3693 33.5215 94.7732 32.9189C94.8208 32.8471 94.9039 32.8041 94.9918 32.8041H98.7148C98.9002 32.8041 99.0308 32.9882 98.9714 33.1628C98.1209 35.6356 95.4955 37.3097 92.2857 37.3097C88.3061 37.3097 85.1081 34.1003 85.063 30.0945H85.0606ZM95.0393 28.6094C95.2175 28.6094 95.3506 28.4372 95.3007 28.265C94.8754 26.8157 93.8253 26.0337 92.2857 26.0337C90.7461 26.0337 89.7364 26.8157 89.3158 28.265C89.2659 28.4372 89.399 28.607 89.5772 28.607H95.0417L95.0393 28.6094Z" fill="#FF8A33"/>
<path d="M175.981 23.2811L168.471 41.9014C168.43 41.9994 168.335 42.0664 168.229 42.0664H164.783C164.598 42.0664 164.472 41.8775 164.541 41.7053L166.784 36.1689C166.81 36.1044 166.81 36.035 166.784 35.9704L161.676 23.2835C161.607 23.1113 161.733 22.9224 161.918 22.9224H165.86C165.971 22.9224 166.069 22.9917 166.107 23.0993L168.711 30.5704C168.792 30.8048 169.122 30.8048 169.203 30.5704L171.828 23.0993C171.866 22.9941 171.963 22.9248 172.075 22.9248H175.741C175.926 22.9248 176.052 23.1137 175.983 23.2859L175.981 23.2811Z" fill="#FF8A33"/>
<path d="M149.088 29.9917C149.088 34.227 146.016 37.2953 141.737 37.2953C137.458 37.2953 134.386 34.227 134.386 29.9917C134.386 25.7563 137.458 22.688 141.737 22.688C146.016 22.688 149.088 25.7563 149.088 29.9917ZM138.454 29.9917C138.454 32.1321 139.754 33.6794 141.74 33.6794C143.726 33.6794 145.026 32.1321 145.026 29.9917C145.026 27.8513 143.726 26.304 141.74 26.304C139.754 26.304 138.454 27.8489 138.454 29.9917Z" fill="#FF8A33"/>
<path d="M69.3298 18.1991C69.3298 18.0532 69.4463 17.936 69.5912 17.936H76.6262C81.568 17.936 84.4571 20.7054 84.4571 24.9288C84.4571 29.1522 81.568 31.967 76.6262 31.967H73.8345C73.6896 31.967 73.5732 32.0842 73.5732 32.2301V36.7955C73.5732 36.9414 73.4568 37.0585 73.3118 37.0585H69.5912C69.4463 37.0585 69.3298 36.9414 69.3298 36.7955V18.1991ZM76.4385 28.1884C78.793 28.1884 80.2138 27.062 80.2138 24.9264C80.2138 22.7908 78.793 21.7122 76.4385 21.7122H73.8321C73.6872 21.7122 73.5708 21.8294 73.5708 21.9753V27.9254C73.5708 28.0713 73.6872 28.1884 73.8321 28.1884H76.4385Z" fill="#FF8A33"/>
<path d="M109.49 23.5561H107.354C107.209 23.5561 107.092 23.4389 107.092 23.293V22.2599V20.7126C107.092 20.5691 106.976 20.4519 106.831 20.4519H103.274C103.129 20.4519 103.013 20.5691 103.013 20.715V22.2599V23.3624C103.013 23.4676 102.927 23.5537 102.823 23.5537H100.616C100.471 23.5537 100.354 23.6709 100.354 23.8168V26.8205C100.354 26.9664 100.471 27.0836 100.616 27.0836H102.752C102.896 27.0836 103.013 27.2007 103.013 27.3466V36.7931C103.013 36.939 103.129 37.0562 103.274 37.0562H106.831C106.976 37.0562 107.092 36.939 107.092 36.7931V27.3466C107.092 27.2007 107.209 27.0836 107.354 27.0836H109.49C109.634 27.0836 109.751 26.9664 109.751 26.8205V23.8168C109.751 23.6709 109.634 23.5537 109.49 23.5537V23.5561Z" fill="#FF8A33"/>
<path d="M127.496 23.2332C125.591 23.2332 124.225 23.7976 123.229 24.9264C123.122 25.0484 122.935 25.0436 122.833 24.9192C121.937 23.8335 120.616 23.2332 119.038 23.2332C117.812 23.2332 116.912 23.5919 116.185 24.3261C116.021 24.4911 115.741 24.3764 115.741 24.142V23.6637V23.183C115.741 23.0371 115.624 22.9199 115.479 22.9199H111.922C111.778 22.9199 111.661 23.0371 111.661 23.183V36.7955C111.661 36.9413 111.778 37.0585 111.922 37.0585H115.479C115.624 37.0585 115.741 36.9413 115.741 36.7955V29.7405C115.809 27.8249 116.52 26.7655 117.848 26.7655C119.338 26.7655 120.117 27.8967 120.117 29.9486V36.7955C120.117 36.9413 120.233 37.0585 120.378 37.0585H123.935C124.08 37.0585 124.196 36.9413 124.196 36.7955V29.7405C124.265 27.8249 124.976 26.7655 126.304 26.7655C127.793 26.7655 128.573 27.8967 128.573 29.9486V36.7955C128.573 36.9413 128.689 37.0585 128.834 37.0585H132.391C132.536 37.0585 132.652 36.9413 132.652 36.7955V29.255C132.652 25.4956 130.59 23.2356 127.496 23.2356V23.2332Z" fill="#FF8A33"/>
<path d="M160.307 23.6374C160.307 23.5226 160.229 23.4197 160.12 23.3862C159.661 23.2523 159.207 23.2164 158.542 23.2164C157.112 23.2164 156.014 23.6469 155.225 24.417C155.061 24.5772 154.786 24.4576 154.786 24.2281V23.4628V22.7023C154.786 22.5564 154.669 22.4392 154.524 22.4392H150.968C150.823 22.4392 150.706 22.5564 150.706 22.7023V36.7931C150.706 36.9389 150.823 37.0561 150.968 37.0561H154.524C154.669 37.0561 154.786 36.9389 154.786 36.7931V30.1351C154.786 28.0832 156.092 26.8372 158.269 26.8372C158.91 26.8372 159.495 26.94 159.996 27.1361C160.167 27.2031 160.352 27.074 160.35 26.8874L160.312 23.635L160.307 23.6374Z" fill="#FF8A33"/>
</g>
<defs>
<clipPath id="clip0_749_536">
<rect width="176" height="48" fill="white" transform="translate(0 6)"/>
</clipPath>
</defs>
</svg>
