<svg width="540" height="382" viewBox="0 0 540 382" fill="none" xmlns="http://www.w3.org/2000/svg">
<rect width="540" height="382" rx="8" fill="white"/>
<path d="M0 8C0 3.58172 3.58172 0 8 0H532C536.418 0 540 3.58172 540 8V152H0V8Z" fill="#FFF6F2"/>
<circle cx="301" cy="87" r="50" fill="#FFE2D5"/>
<ellipse cx="264" cy="201" rx="60" ry="6" fill="#EFEFEF"/>
<g clip-path="url(#clip0_1201_7400)">
<path d="M292.075 165.23C291.785 167.6 291.599 170.094 291.517 172.732C291.269 183.162 293.149 192.127 295.36 199.073C295.526 198.95 296.559 198.208 297.737 198.517C299.018 198.867 299.948 200.31 299.762 202H288.396C286.867 198.62 285.4 194.766 284.181 190.479C280.688 178.112 280.771 167.085 281.618 159.191C285.11 161.211 288.582 163.21 292.075 165.23Z" fill="#B88872"/>
<path d="M238.222 180.977C232.87 177.864 230.907 174.031 230.183 172.299C226.608 163.746 230.845 152.039 241.26 144.124C238.408 145.278 230.989 148.741 226.257 156.923C225.079 158.943 218.942 169.558 223.86 180.338C226.588 186.294 231.382 189.468 233.634 190.746C235.163 187.49 236.672 184.233 238.201 180.997L238.222 180.977Z" fill="#B88872"/>
<path d="M293.893 131.18C293.852 133.262 293.852 135.406 293.893 137.59C293.996 143.609 294.389 149.298 294.988 154.615C294.389 157.192 293.728 159.83 292.963 162.489C288.727 177.617 282.879 190.788 276.638 202.021H232.808C231.981 200.805 231.051 199.279 230.245 197.445C229.563 195.899 229.109 194.477 228.778 193.24C228.985 191.406 229.398 188.706 230.245 185.552C232.27 178.071 237.292 166.302 241.983 166.714C242.872 166.796 244.194 167.353 245.661 169.826C247.19 167.518 248.74 164.962 250.249 162.138C252.935 157.089 254.878 152.307 256.304 148.04C255.952 145.979 255.684 143.712 255.56 141.28C255.27 134.911 256.138 129.408 257.213 125.183L293.914 131.222L293.893 131.18Z" fill="#CFA591"/>
<path d="M285.235 165.23C284.945 167.6 284.759 170.094 284.677 172.732C284.429 183.162 286.309 192.127 288.52 199.073C288.686 198.95 289.719 198.208 290.897 198.517C292.178 198.867 293.108 200.31 292.922 202H281.556C280.027 198.62 278.56 194.766 277.341 190.479C273.848 178.112 273.931 167.085 274.778 159.191C278.27 161.211 281.742 163.21 285.235 165.23Z" fill="#CFA591"/>
<path d="M305.837 81.6931C301.332 79.0549 293.604 75.2624 283.251 73.7372C272.753 72.1708 264.136 73.593 259.031 74.8296C255.787 78.8694 252.439 83.3214 249.092 88.2062C245.703 93.1528 242.747 97.9346 240.123 102.469C240.392 105.808 241.094 108.673 241.962 111.064C248.678 129.634 270.604 135.921 274.799 137.054C280.606 136.972 295.629 135.921 308.379 124.976C312.491 121.431 315.446 117.659 317.554 114.362C317.244 110.178 316.459 104.777 314.455 98.7797C311.995 91.3185 308.565 85.6092 305.817 81.7137L305.837 81.6931Z" fill="#CFA591"/>
<path d="M284.739 79.8588C284.532 77.777 282.92 76.2312 281.701 75.3037C279.428 76.0869 276.659 77.4885 275.935 79.9618C275.212 82.4557 277.237 83.7542 277.465 86.578C278.064 93.8743 265.851 100.82 264.756 101.418C258.556 104.86 254.94 104.386 253.245 107.931C251.675 111.208 253.266 115.001 253.679 115.949C256.779 123.286 264.611 122.833 270.418 131.345C271.823 133.406 272.608 135.261 273.022 136.333C273.952 135.138 275.439 133.427 277.589 131.778C285.441 125.76 291.827 128.501 298.667 123.327C302.138 120.71 306.457 115.475 305.197 111.847C303.647 107.416 295.67 110.054 288.252 103.603C283.726 99.666 279.304 92.2666 281.288 87.0108C282.383 84.1459 285.069 82.7649 284.759 79.8588H284.739Z" fill="#F0D9CE"/>
<path d="M292.426 78.6635C293.087 76.2108 294.327 72.5214 296.828 68.6053C300.32 63.1228 304.143 60.4639 315.715 52.6936C331.441 42.1201 332.929 41.2751 334.438 42.0789C339.067 44.5728 336.669 58.8151 333.156 68.2549C327.639 82.9918 317.058 92.0813 310.404 96.8012C308.937 93.9157 306.437 89.8141 302.324 85.8155C298.729 82.3117 295.112 80.0651 292.426 78.6841V78.6635Z" fill="#CFA591"/>
<path d="M272.05 76.5609C271.906 74.0257 271.451 70.1508 269.839 65.8019C267.566 59.701 264.363 56.3208 254.65 46.3245C241.446 32.7418 240.164 31.6082 238.532 32.0822C233.49 33.5662 232.87 47.994 234.358 57.9491C236.693 73.5104 245.165 84.5992 250.703 90.5764C252.729 88.0618 256.035 84.558 260.871 81.5075C265.128 78.8281 269.116 77.3853 272.05 76.5609Z" fill="#CFA591"/>
<path d="M300.589 97.7288C301.27 101.171 299.576 104.386 296.786 104.943C293.996 105.499 291.186 103.15 290.504 99.7281C289.822 96.2861 291.517 93.0707 294.306 92.5142C297.096 91.9577 299.907 94.3074 300.589 97.7288Z" fill="#213049"/>
<path d="M266.181 96.9045C264.404 99.9137 261.057 101.253 258.701 99.8724C256.345 98.4915 255.89 94.9258 257.668 91.9166C259.445 88.9074 262.792 87.5676 265.148 88.9486C267.504 90.3295 267.959 93.8952 266.181 96.9045Z" fill="#213049"/>
<path d="M293.376 114.403C291.971 115.928 290.153 117.124 288.107 117.783H288.066H287.983C286.867 117.783 285.73 117.722 284.615 117.577C283.499 117.454 282.383 117.248 281.288 117C279.076 116.485 276.948 115.681 274.923 114.692L275.295 114.754C273.084 115.042 270.852 115.125 268.62 114.939C266.409 114.754 264.218 114.28 262.111 113.641H262.049L262.007 113.579C261.284 113.022 260.685 112.321 260.189 111.579C259.693 110.837 259.321 110.013 259.114 109.168C259.486 109.972 259.941 110.693 260.499 111.353C261.057 112.012 261.718 112.548 262.421 113.022L262.317 112.96C264.425 113.455 266.574 113.682 268.723 113.785C270.872 113.867 273.022 113.764 275.15 113.455H275.357L275.543 113.517C277.485 114.486 279.531 115.248 281.618 115.846C283.726 116.402 285.875 116.856 288.066 117.021H287.942C288.913 116.794 289.884 116.444 290.793 116.011C291.723 115.557 292.591 115.001 293.397 114.383L293.376 114.403Z" fill="#213049"/>
<path d="M273.869 139.363C273.931 140.764 274.137 142.825 274.737 145.216C276.266 151.255 279.345 155.172 280.606 156.923C283.333 160.736 286.474 166.837 288.004 176.875C289.471 174.67 291 172.011 292.343 168.857C294.926 162.839 295.898 157.336 296.249 153.255C295.195 146.803 292.674 143.897 290.607 142.413C286.619 139.59 281.783 140.332 280.606 137.425C279.924 135.715 280.874 133.736 281.701 132.438C280.771 132.623 278.808 133.179 276.927 134.828C274.985 136.518 274.179 138.477 273.889 139.383L273.869 139.363Z" fill="#F0D9CE"/>
<path d="M295.546 96.5743C295.546 97.7698 294.844 98.7385 293.996 98.7385C293.149 98.7385 292.447 97.7698 292.447 96.5743C292.447 95.3789 293.149 94.4102 293.996 94.4102C294.844 94.4102 295.546 95.3789 295.546 96.5743Z" fill="#455982"/>
<path d="M262.234 92.4317C262.234 93.6272 261.532 94.5959 260.685 94.5959C259.837 94.5959 259.135 93.6272 259.135 92.4317C259.135 91.2363 259.837 90.2676 260.685 90.2676C261.532 90.2676 262.234 91.2363 262.234 92.4317Z" fill="#455982"/>
<path opacity="0.15" d="M276.163 104.943C278.622 103.541 281.474 103.273 283.251 104.531C285.854 106.365 286.474 111.683 282.755 115.743C280.234 114.733 277.692 113.744 275.171 112.734C272.898 112.899 270.604 113.063 268.331 113.228C266.037 108.632 267.773 104.139 270.377 103.15C272.112 102.49 274.385 103.356 276.163 104.943Z" fill="#3E4457"/>
<path d="M283.623 101.356C282.713 100.593 280.792 99.1919 277.981 98.6147C274.303 97.8521 271.348 98.9651 270.273 99.4392C270.335 100.284 270.542 101.665 271.368 103.149C272.732 105.581 274.84 106.632 275.625 106.983C276.555 106.88 278.663 106.509 280.709 104.922C282.341 103.664 283.189 102.18 283.602 101.356H283.623Z" fill="#213049"/>
<path d="M281.577 100.656C280.544 100.903 279.242 101.109 277.733 101.089C275.109 101.068 273.022 100.408 271.699 99.8518C272.464 99.4396 273.641 98.9243 275.171 98.7801C278.456 98.4709 280.874 100.14 281.577 100.656Z" fill="#455982"/>
<path d="M311.582 93.3386C309.392 89.7935 307.201 86.2278 305.011 82.6827C305.197 82.2499 305.982 80.2918 305.176 77.9628C304.35 75.6337 302.49 74.6032 302.076 74.3765C304.804 68.8115 308.007 65.3694 310.446 63.2465C315.529 58.8357 319.518 57.7846 327.887 52.0341C330.801 50.0348 332.908 48.118 334.086 46.9844C334.355 50.6738 334.272 54.899 333.425 59.4953C330.057 77.9422 316.852 89.2576 311.582 93.318V93.3386Z" fill="#F0D9CE"/>
<path d="M250.6 88.4125C252.605 85.6918 254.609 82.9506 256.593 80.2299C256.428 79.6734 255.787 77.2619 257.089 74.7061C258.556 71.8 261.346 70.9343 261.821 70.8107C260.953 65.122 258.969 61.412 257.358 59.083C253.576 53.621 249.567 52.1164 242.314 44.8201C239.834 42.3056 238.119 40.0383 237.168 38.7192C236.217 42.285 235.494 46.469 235.473 51.1477C235.329 69.9038 246.178 83.4658 250.6 88.4331V88.4125Z" fill="#F0D9CE"/>
<path d="M274.365 201.155L273.084 200.928C273.394 199.073 273.166 197.651 272.402 196.744C271.348 195.466 269.302 195.363 262.834 195.672C259.445 195.837 255.994 196.043 252.584 196.311L251.613 196.394L251.902 195.466C252.853 192.478 253.679 187.778 252.212 182.337C250.972 177.658 248.513 174.34 246.653 172.361L247.604 171.475C249.546 173.557 252.15 177.061 253.473 181.987C254.857 187.201 254.279 191.777 253.411 194.93C256.531 194.704 259.672 194.498 262.751 194.353C269.426 194.024 271.885 194.085 273.394 195.899C274.406 197.115 274.737 198.888 274.344 201.134L274.365 201.155Z" fill="#B88872"/>
<path d="M279.097 196.373C277.898 193.302 276.741 189.839 275.832 185.964C273.621 176.566 273.559 168.218 274.096 161.891C273.538 163.169 272.608 164.9 271.058 166.652C269.178 168.775 267.194 170.053 265.851 170.774C267.111 171.516 268.93 172.794 270.418 174.896C272.877 178.379 272.588 181.533 273.683 185.738C274.365 188.396 275.811 192.148 279.118 196.352L279.097 196.373Z" fill="#B88872"/>
<path d="M299.204 89.6283C298.687 90.1848 296.786 89.1543 296.269 88.8657C294.844 88.1031 292.88 86.5161 293.232 85.6092C293.48 84.9496 294.968 84.7641 296.063 85.0733C298.481 85.7328 299.845 88.9482 299.225 89.6283H299.204Z" fill="#B88872"/>
<path d="M265.438 81.7759C265.686 82.3324 264.342 83.4866 263.474 84.0431C261.78 85.1767 259.383 85.7332 259.011 85.1355C258.68 84.579 260.023 83.0126 261.511 82.2088C263.082 81.3637 265.148 81.1988 265.417 81.7759H265.438Z" fill="#B88872"/>
</g>
<defs>
<clipPath id="clip0_1201_7400">
<rect width="115" height="170" fill="white" transform="translate(222 32)"/>
</clipPath>
</defs>
</svg>
