<svg width="360" height="68" viewBox="0 0 360 68" fill="none" xmlns="http://www.w3.org/2000/svg">
<rect x="0.5" y="0.5" width="359" height="67" rx="7.5" stroke="#9D9D9D"/>
<path d="M49 34.2475C49 33.5233 48.9374 32.8358 48.8301 32.1667H38.728V36.3008H44.5121C44.2529 37.6575 43.493 38.8033 42.3665 39.5825V42.3325H45.8174C47.8378 40.4167 49 37.5933 49 34.2475Z" fill="#4285F4"/>
<path d="M38.728 45C41.6245 45 44.0473 44.01 45.8174 42.3325L42.3665 39.5825C41.401 40.2425 40.1762 40.6458 38.728 40.6458C35.9298 40.6458 33.5607 38.7117 32.7114 36.0992H29.1533V38.9317C30.9144 42.525 34.5351 45 38.728 45Z" fill="#34A853"/>
<path d="M32.7114 36.0992C32.4879 35.4392 32.3716 34.7333 32.3716 34C32.3716 33.2667 32.4968 32.5608 32.7114 31.9008V29.0683H29.1533C28.4202 30.5533 28 32.2217 28 34C28 35.7783 28.4202 37.4467 29.1533 38.9317L32.7114 36.0992Z" fill="#FBBC05"/>
<path d="M38.728 27.3542C40.3103 27.3542 41.7229 27.9133 42.8404 29.0042L45.8978 25.8692C44.0473 24.0908 41.6245 23 38.728 23C34.5351 23 30.9144 25.475 29.1533 29.0683L32.7114 31.9008C33.5607 29.2883 35.9298 27.3542 38.728 27.3542Z" fill="#EA4335"/>
<path d="M142.926 28.2099V29.442C142.92 30.7624 142.92 32.2044 142.539 34.2044H144.55V35.4144H138.871V41.3481H137.384V35.4144H131.788V34.2044H141.031C141.451 32.2099 141.451 30.7459 141.451 29.442V29.4144H133.34V28.2099H142.926ZM156.484 27.9282V28.8398C156.484 29.7624 156.484 30.9448 156.185 32.4641H158.108V33.6519H145.296V32.4641H154.694C154.981 31.0552 155.003 29.9834 155.009 29.1105H146.898V27.9282H156.484ZM146.793 36.0884V34.9116H156.495V38.5746H148.29V40.0055H156.854V41.1823H146.81V37.4365H155.025V36.0884H146.793ZM171.616 38.4144V39.6464H158.804V38.4144H164.439V35.9503H160.362V31.4972H168.583V29.5304H160.334V28.3204H170.047V32.6906H161.837V34.7348H170.373V35.9503H165.909V38.4144H171.616ZM187.473 27.326V41.326H185.992V27.326H187.473ZM175.97 37.5193C177.125 37.5138 178.44 37.5028 179.81 37.4641V36.0608C178.18 35.8453 177.119 34.8785 177.13 33.5138C177.119 31.9337 178.495 30.895 180.528 30.895C182.572 30.895 183.965 31.9337 183.965 33.5138C183.965 34.8674 182.909 35.8287 181.291 36.0552V37.4088C182.583 37.3481 183.893 37.2486 185.125 37.0884L185.235 38.2044C182.13 38.7182 178.744 38.7569 176.18 38.7569L175.97 37.5193ZM176.263 30.1823V28.9945H179.81V27.3536H181.296V28.9945H184.81V30.1823H176.263ZM178.528 33.5138C178.517 34.4033 179.351 34.9558 180.528 34.9503C181.727 34.9558 182.55 34.4033 182.55 33.5138C182.55 32.6188 181.727 32.0442 180.528 32.0442C179.351 32.0442 178.517 32.6188 178.528 33.5138ZM201.053 27.337V37.9558H199.561V36.6133H196.744V35.5635H199.561V27.337H201.053ZM189.335 33.7293C191.926 33.7127 195.418 33.6851 198.401 33.3094L198.5 34.3812C197.296 34.5801 196.042 34.7072 194.804 34.7845V37.5193H193.324V34.8674C191.965 34.9171 190.661 34.9282 189.523 34.9227L189.335 33.7293ZM190.429 30.337C190.429 28.8619 191.843 27.8729 193.92 27.8729C195.965 27.8729 197.384 28.8619 197.395 30.337C197.384 31.8343 195.965 32.779 193.92 32.779C191.843 32.779 190.429 31.8343 190.429 30.337ZM191.274 41.0387V36.9171H192.755V39.8232H201.384V41.0387H191.274ZM191.837 30.337C191.832 31.1713 192.677 31.6906 193.92 31.6906C195.114 31.6906 195.97 31.1713 195.981 30.337C195.97 29.5083 195.114 28.9724 193.92 28.9779C192.677 28.9724 191.832 29.5083 191.837 30.337ZM213.821 27.326V32.9061H215.992V34.1492H213.821V41.3094H212.335V27.326H213.821ZM202.92 37.5801C206.434 35.8287 208.335 33.2983 208.649 30.0331H203.622V28.8066H210.158C210.147 32.8453 208.362 36.4586 203.749 38.7293L202.92 37.5801ZM228.036 27.326V34.8398H226.55V27.326H228.036ZM216.705 31.2265C216.705 29.2928 218.285 27.9613 220.434 27.9724C222.577 27.9613 224.152 29.2928 224.152 31.2265C224.152 33.1326 222.577 34.4641 220.434 34.4586C218.285 34.4641 216.705 33.1326 216.705 31.2265ZM218.158 31.2265C218.147 32.4254 219.102 33.232 220.434 33.2376C221.749 33.232 222.699 32.4254 222.699 31.2265C222.699 30.0221 221.749 29.2099 220.434 29.221C219.102 29.2099 218.147 30.0221 218.158 31.2265ZM218.87 41.1492V35.5193H220.323V37.0884H226.561V35.5193H228.036V41.1492H218.87ZM220.323 39.9392H226.561V38.2597H220.323V39.9392Z" fill="#2B2B2B"/>
</svg>
