<svg width="37" height="36" viewBox="0 0 37 36" fill="none" xmlns="http://www.w3.org/2000/svg">
<path d="M27.4175 21.4155C26.8791 19.4638 25.7152 17.7425 24.1044 16.5159C22.4936 15.2893 20.5248 14.625 18.5002 14.625C16.4755 14.625 14.5067 15.2893 12.8959 16.5159C11.2851 17.7425 10.1212 19.4638 9.58277 21.4155L8.29971 26.0667C8.06934 26.9018 8.03497 27.7789 8.19928 28.6294C8.36359 29.48 8.72214 30.2811 9.24697 30.9704C9.7718 31.6596 10.4487 32.2183 11.225 32.6028C12.0012 32.9874 12.8558 33.1875 13.7221 33.1875H23.2782C24.1445 33.1875 24.9991 32.9874 25.7753 32.6028C26.5516 32.2183 27.2285 31.6596 27.7533 30.9704C28.2782 30.2811 28.6367 29.48 28.801 28.6294C28.9653 27.7789 28.931 26.9018 28.7006 26.0667L27.4175 21.4155ZM25.9633 29.6069C25.6498 30.022 25.2439 30.3583 24.7779 30.5893C24.3118 30.8202 23.7983 30.9395 23.2782 30.9375H13.7221C13.2023 30.9375 12.6896 30.8175 12.2238 30.5867C11.7581 30.356 11.3519 30.0208 11.037 29.6072C10.7221 29.1937 10.5069 28.713 10.4084 28.2027C10.3098 27.6923 10.3304 27.1661 10.4686 26.665L11.7517 22.0139C12.1592 20.5368 13.04 19.2343 14.259 18.306C15.478 17.3777 16.9679 16.875 18.5002 16.875C20.0324 16.875 21.5223 17.3777 22.7413 18.306C23.9603 19.2343 24.8411 20.5368 25.2486 22.0139L26.5317 26.665C26.6719 27.1659 26.6935 27.6925 26.5949 28.2032C26.4962 28.7139 26.28 29.1946 25.9633 29.6072V29.6069Z" fill="white"/>
<path d="M10.7727 16.1939C10.9684 14.9704 10.7088 13.6607 10.0414 12.5051C9.374 11.3494 8.36938 10.4697 7.21224 10.0275C5.97306 9.55426 4.70912 9.62964 3.65204 10.2397C1.55061 11.453 0.997603 14.4433 2.41953 16.9057C3.08673 18.0613 4.09142 18.9412 5.24856 19.3832C5.76114 19.583 6.30599 19.6871 6.85611 19.6905C7.54148 19.693 8.21525 19.5137 8.80876 19.171C9.8652 18.5609 10.5627 17.5036 10.7727 16.1939ZM8.55078 15.8382C8.45024 16.4661 8.14227 16.9576 7.68362 17.2224C7.22497 17.4872 6.64531 17.508 6.05117 17.2813C5.37526 17.0232 4.77746 16.4902 4.36782 15.7807C3.58032 14.4166 3.76749 12.7713 4.77704 12.1882C5.03083 12.0442 5.31825 11.97 5.61003 11.9732C5.88374 11.9761 6.15463 12.0289 6.40935 12.1291C7.08526 12.3874 7.68306 12.9203 8.0927 13.6298C8.50234 14.3393 8.66497 15.1238 8.55078 15.8382Z" fill="white"/>
<path d="M11.0165 11.5324C11.8154 12.1711 12.7277 12.5037 13.6503 12.5036C13.9266 12.5035 14.2021 12.4738 14.4721 12.4149C16.8433 11.8995 18.281 9.21972 17.677 6.44133C17.3936 5.13731 16.7047 3.99326 15.7372 3.21975C14.7011 2.39147 13.4739 2.07795 12.2815 2.33726C9.91047 2.85265 8.4728 5.5324 9.07671 8.31079C9.36014 9.61488 10.0491 10.7589 11.0165 11.5324ZM12.7594 4.53593C12.8687 4.51236 12.9803 4.50057 13.0921 4.50077C13.5103 4.50077 13.9405 4.66439 14.3322 4.97756C14.8973 5.42932 15.3043 6.11902 15.4783 6.91966C15.813 8.45915 15.1334 9.96897 13.9942 10.2166C13.4766 10.3291 12.9181 10.1725 12.4215 9.7754C11.8564 9.32358 11.4494 8.63388 11.2754 7.8333C10.9407 6.29339 11.6203 4.78357 12.7594 4.53593Z" fill="white"/>
<path d="M33.3478 10.2397C32.2912 9.62964 31.0266 9.55426 29.7876 10.0275C28.6305 10.4696 27.6258 11.3494 26.9586 12.5051C26.2914 13.6607 26.0317 14.9707 26.2274 16.1939C26.437 17.5036 27.1344 18.5609 28.1913 19.171C28.7848 19.5138 29.4585 19.693 30.1439 19.6905C30.694 19.6871 31.2389 19.5829 31.7515 19.3832C32.9086 18.9412 33.9133 18.0613 34.5805 16.9056C36.0023 14.4433 35.4493 11.453 33.3478 10.2397ZM32.6321 15.7806C32.2224 16.4902 31.6246 17.0231 30.9487 17.2813C30.3548 17.5082 29.7751 17.4873 29.3164 17.2224C28.8578 16.9575 28.55 16.4661 28.4492 15.8382C28.3349 15.1238 28.4975 14.3396 28.9072 13.6304C29.3169 12.9212 29.9146 12.388 30.5905 12.1297C30.8452 12.0294 31.1161 11.9765 31.3899 11.9736C31.6816 11.9704 31.9691 12.0446 32.2228 12.1886C33.2324 12.7711 33.4198 14.4162 32.6321 15.7806Z" fill="white"/>
<path d="M22.5279 12.4148C22.7979 12.4737 23.0734 12.5034 23.3498 12.5035C24.2723 12.5035 25.1849 12.171 25.9835 11.5323C26.951 10.7589 27.6399 9.61476 27.9233 8.31075C28.5272 5.53235 27.0896 2.8526 24.7185 2.33721C23.5262 2.07804 22.2989 2.39135 21.2628 3.2197C20.2953 3.99314 19.6064 5.13726 19.3231 6.44121C18.7191 9.21961 20.1568 11.8994 22.5279 12.4148ZM21.5217 6.91919C21.6957 6.11855 22.1027 5.42857 22.6678 4.97709C23.0596 4.66392 23.4897 4.5003 23.9079 4.5003C24.0198 4.5001 24.1313 4.51189 24.2406 4.53546C25.3797 4.7831 26.0593 6.29327 25.7247 7.83241C25.5506 8.63306 25.1436 9.32304 24.5786 9.77458C24.0822 10.1716 23.5239 10.3282 23.006 10.2158C21.8667 9.9685 21.187 8.45847 21.5217 6.91919V6.91919Z" fill="white"/>
</svg>
