<svg width="26" height="22" viewBox="0 0 26 22" fill="none" xmlns="http://www.w3.org/2000/svg">
<path d="M3.9912 16.1836C-1.65304 8.88924 -0.809234 1.93239 5.94135 0.225995C8.00403 -0.29905 10.6481 0.301007 12.1107 1.61362L12.8608 2.28867L13.9671 1.63237C20.3614 -2.23047 28.2371 4.89515 24.8993 11.5145C21.8615 17.5338 11.9795 24.0031 9.95427 21.3028C9.35422 20.4965 9.65423 20.384 11.2481 20.7778C12.767 21.1528 19.7801 14.9273 21.524 11.6457C23.6242 7.7079 23.2116 5.5702 19.8551 2.86997C18.4675 1.76362 16.3111 2.25117 14.6234 4.08883C13.292 5.51395 11.9044 5.62647 10.7606 3.82631C7.51653 -1.23663 2.19105 2.77622 3.70993 9.13302C4.34748 11.7582 5.04133 13.0709 7.68531 16.5587C9.48547 18.9214 9.54167 19.0339 8.94161 19.3527C7.79776 19.9715 6.01638 18.8276 3.9912 16.1836Z" fill="white"/>
</svg>
