<svg width="651" height="113" viewBox="0 0 651 113" fill="none" xmlns="http://www.w3.org/2000/svg">
<path d="M34.9979 0.428175H30.3536V32.5932H34.9979V17.2272H41.3343V13.3425H34.9979V0.428175ZM2.29765 25.3418H22.9296V3.55318H18.337V10.5801H6.87293V3.55318H2.29765V25.3418ZM6.87293 21.6471V14.2058H18.337V21.6471H6.87293ZM7.27003 43.2459H36.8626V39.4475H11.8798V29.3992H7.27003V43.2459ZM77.7654 0.393646H73.1728V10.1485H64.851V13.9814H73.1728V22.0615H64.6093V25.9289H73.1728V44.23H77.7654V0.393646ZM42.8206 8.02486H57.6687V16.5539H42.9587V34.1471H46.2564C53.1625 34.1471 58.7564 33.9399 65.6107 32.8695L65.2136 29.0366C58.9636 29.9862 53.7322 30.2452 47.5513 30.2797V20.2314H62.2094V4.26105H42.8206V8.02486ZM121.983 21.6816H104.269V17.0373H117.322V13.3253H91.6136V6.07389H117.063V2.41367H87.0211V17.0373H99.7455V21.6816H82.0487V25.3936H121.983V21.6816ZM86.7621 36.2017C86.7621 41.2604 92.4596 44.1091 101.938 44.1436C111.365 44.1091 117.028 41.2604 117.063 36.2017C117.028 31.1257 111.365 28.2597 101.938 28.2597C92.4596 28.2597 86.7621 31.1257 86.7621 36.2017ZM91.4755 36.2017C91.441 33.422 95.2566 31.8336 101.938 31.8336C108.551 31.8336 112.401 33.422 112.435 36.2017C112.401 38.9986 108.551 40.5352 101.938 40.5007C95.2566 40.5352 91.441 38.9986 91.4755 36.2017ZM162.644 18.5048H122.762V22.1996H140.32V26.0325H127.51V29.5718H153.027V32.9213H127.596V43.7293H158.846V40.1381H132.137V36.288H157.585V26.0325H144.965V22.1996H162.644V18.5048ZM127.855 15.2762H157.499V1.79213H127.855V15.2762ZM132.396 11.6333V5.45235H152.872V11.6333H132.396ZM187.836 5.07251H165.443V8.81906H183.209C183.191 12.462 183.105 17.5725 181.983 24.5649L186.575 24.9275C187.801 17.1064 187.801 11.4606 187.836 7.78315V5.07251ZM163.043 30.953L163.561 34.7514C171.33 34.7859 181.499 34.596 190.615 33.1285L190.356 29.6581C185.988 30.1934 181.223 30.5041 176.579 30.6941V17.5898H172.003V30.8322C168.827 30.9012 165.771 30.9358 163.043 30.953ZM192.877 44.1436H197.521V22.4068H204.238V18.453H197.521V0.393646H192.877V44.1436ZM248.269 0.393646H243.625V26.7576H248.269V15.6733H254.606V11.7369H248.269V0.393646ZM213.946 8.56008H239.982V4.81353H229.295V0.0828707H224.685V4.81353H213.946V8.56008ZM216.329 18.2804C216.312 23.011 220.593 26.1015 226.981 26.1188C233.283 26.1015 237.565 23.011 237.582 18.2804C237.565 13.6015 233.283 10.4593 226.981 10.4593C220.593 10.4593 216.312 13.6015 216.329 18.2804ZM220.3 43.5912H248.269V29.0539H220.3V43.5912ZM220.8 18.2804C220.766 15.6561 223.252 13.9986 226.981 13.9986C230.676 13.9986 233.162 15.6561 233.197 18.2804C233.162 20.9738 230.676 22.5967 226.981 22.6139C223.252 22.5967 220.766 20.9738 220.8 18.2804ZM224.858 39.8273V32.7486H243.677V39.8273H224.858ZM265.415 5.59047H255.505V9.37155H261.393C261.099 17.607 259.562 25.2037 254.435 32.0407L258.078 34.0608C264.172 25.5145 265.398 15.3626 265.415 5.59047ZM264.276 34.6478L267.867 36.7196C271.251 31.9544 273.081 26.5504 274.048 21.1119H279.728V42.02H284.114V1.51588H279.728V17.3308H274.6C275.067 13.2735 275.153 9.28522 275.17 5.59047H266.779V9.37155H271.165C270.975 17.8488 269.922 27.0166 264.276 34.6478ZM287.998 44.1436H292.453V0.393646H287.998V44.1436ZM329.695 0.428175H325.051V33.1802H329.695V18.3667H336.032V14.4993H329.695V0.428175ZM295.372 9.26796H321.408V5.53867H310.721V0.410911H306.111V5.53867H295.372V9.26796ZM297.755 19.6616C297.737 24.5994 302.054 27.828 308.407 27.828C314.674 27.828 318.991 24.5994 319.008 19.6616C318.991 14.6374 314.674 11.3743 308.407 11.3743C302.054 11.3743 297.737 14.6374 297.755 19.6616ZM301.967 43.2459H331.56V39.4475H306.577V30.5732H301.967V43.2459ZM302.226 19.6616C302.192 16.761 304.678 14.9655 308.407 14.9655C312.102 14.9655 314.588 16.761 314.623 19.6616C314.588 22.4931 312.102 24.2369 308.407 24.2196C304.678 24.2369 302.192 22.4931 302.226 19.6616ZM361.797 11.5297V4.0366H357.135V11.5297C357.101 19.886 352.266 28.2424 345.378 31.3156L348.244 35.183C353.475 32.645 357.498 27.3446 359.518 20.9392C361.572 26.9302 365.543 31.8508 370.567 34.2507L373.364 30.5559C366.579 27.5691 361.762 19.5235 361.797 11.5297ZM377.318 44.23H381.98V0.393646H377.318V44.23ZM420.828 0.393646H416.132V32.1961H420.828V17.2099H427.164V13.3253H420.828V0.393646ZM386.401 23.6844L388.369 27.3791C401.146 23.529 408.95 15.2072 408.95 3.72583H388.231V7.57596H403.908C403.01 14.7756 396.657 20.6112 386.401 23.6844ZM393.048 43.2459H422.641V39.4475H397.71V28.933H393.048V43.2459ZM467.1 18.3322H427.166V22.0442H467.1V18.3322ZM431.914 29.0539H457.432V32.6623H432V43.6775H463.25V40H436.541V36.0808H461.99V25.48H431.914V29.0539ZM432.363 15.1381H462.335V11.4088H436.99V5.40055H461.921V1.68853H432.363V15.1381ZM475.734 36.5815H470.279L467.672 50.0829H471.815L475.734 36.5815ZM504.556 13.308V8.62914H514.535V4.79627H489.88V8.62914H499.86V13.308C499.825 20.8184 494.939 29.0539 488.344 32.1271L491.055 35.7873C496.13 33.3184 500.24 28.0007 502.277 21.7852C504.314 27.5863 508.389 32.4206 513.551 34.6996L516.089 31.0394C509.356 28.1733 504.556 20.6112 504.556 13.308ZM520.043 44.1436H524.704V0.393646H520.043V44.1436ZM570.044 17.5725H563.259V0.393646H558.615V44.0919H563.259V21.4054H570.044V17.5725ZM530.835 33.1285H534.426C541.004 33.1285 547.893 32.6968 555.369 31.212L554.834 27.2928C547.91 28.7086 541.557 29.2265 535.445 29.2783V4.65815H530.835V33.1285ZM603.972 0.393646H599.328V44.0919H603.972V21.7162H610.757V17.8315H603.972V0.393646ZM569.908 32.4378L572.498 36.029C586.914 28.933 592.491 17.6416 592.525 5.02072H572.1V8.85359H587.812C586.828 19.0573 580.888 26.9648 569.908 32.4378ZM646.014 13.2044H620.462V1.98204H615.869V16.9164H646.014V13.2044ZM610.534 26.136H650.572V22.424H610.534V26.136ZM615.541 43.1077H646.291V39.3267H620.151V30.297H615.541V43.1077ZM0.847376 86.1423H6.30318L8.91022 72.6409H4.76657L0.847376 86.1423ZM34.7144 71.4496V69.5159H29.9492V71.4496C29.9492 77.0608 22.9741 82.2231 14.6695 83.4834L16.4478 87.1264C23.4057 85.9869 29.5694 82.3957 32.3491 77.4061C35.146 82.3267 41.2752 85.9178 48.1985 87.0573L50.0114 83.3798C41.7241 82.1885 34.7144 76.8881 34.7144 71.4496ZM12.3214 94.1878H30.4154V102.648H35.0079V94.1878H52.3594V90.4068H12.3214V94.1878ZM17.3111 111.246H47.9223V107.448H21.9382V98.5387H17.3111V111.246ZM87.4784 68.3936H82.7823V100.196H87.4784V85.2099H93.8147V81.3253H87.4784V68.3936ZM53.0516 91.6844L55.0198 95.3791C67.7961 91.529 75.5999 83.2072 75.5999 71.7258H54.8817V75.576H70.5585C69.6607 82.7756 63.3071 88.6112 53.0516 91.6844ZM59.6987 111.246H89.2912V107.448H64.3603V96.933H59.6987V111.246ZM102.104 72.6581H96.6478L94.0407 86.1595H98.1844L102.104 72.6581ZM141.824 68.3936H137.162V112.23H141.824V68.3936ZM107.086 87.0228C107.086 96.4496 111.799 102.406 118.395 102.406C124.921 102.406 129.686 96.4496 129.686 87.0228C129.686 77.6478 124.921 71.6913 118.395 71.674C111.799 71.6913 107.086 77.6478 107.086 87.0228ZM111.558 87.0228C111.558 80.134 114.355 75.8522 118.395 75.8177C122.435 75.8522 125.197 80.134 125.197 87.0228C125.197 93.9634 122.435 98.2452 118.395 98.2452C114.355 98.2452 111.558 93.9634 111.558 87.0228ZM167.71 71.674C161.166 71.6913 156.504 77.6478 156.539 87.0228C156.504 96.4496 161.166 102.406 167.71 102.406C174.253 102.406 178.915 96.4496 178.949 87.0228C178.915 77.6478 174.253 71.6913 167.71 71.674ZM160.959 87.0228C160.959 80.134 163.721 75.8522 167.71 75.8177C171.784 75.8522 174.478 80.134 174.495 87.0228C174.478 93.9634 171.784 98.2452 167.71 98.2452C163.721 98.2452 160.959 93.9634 160.959 87.0228ZM185.441 112.144H190.085V89.4572H197.095V85.538H190.085V68.3936H185.441V112.144ZM233.008 68.4282H228.364V100.213H233.008V68.4282ZM199.376 92.047H203.001C210.719 92.047 217.331 91.5808 224.514 90.096L223.909 86.2631C217.297 87.6961 211.133 88.145 204.037 88.145V71.6568H199.376V92.047ZM204.072 111.246H234.286V107.448H208.699V96.8467H204.072V111.246ZM264.039 80.1512V77.4233H273.345V72.3301H248.259V77.4233H257.703V80.1512C257.686 87.6961 253.87 95.9316 246.515 99.2293L250.054 104.115C255.303 101.715 258.981 96.8467 260.983 90.9938C262.986 96.3805 266.594 100.8 271.843 103.01L275.193 98.1243C267.751 95.0338 264.039 87.3508 264.039 80.1512ZM277.731 112.506H284.032V68.0311H277.731V112.506ZM328.095 89.6644H310.847V83.7942H304.666V89.6644H287.556V94.654H328.095V89.6644ZM289.628 81.567L291.855 86.4358C299.348 85.3135 304.856 82.1367 307.687 77.6996C310.501 82.154 316.026 85.3135 323.502 86.4358L325.902 81.567C315.888 80.3584 310.916 75.4551 310.916 70.2583V68.7907H304.579V70.2583C304.562 75.2652 299.469 80.3584 289.628 81.567ZM292.045 102.648H316.924V112.506H323.157V97.8135H292.045V102.648ZM354.702 86.1077H337.558V76.9399H354.495V72.0021H331.377V91.1146H339.854V98.6077C335.866 98.6768 331.998 98.6941 328.459 98.6768L329.167 103.753C337.54 103.753 347.64 103.684 357.343 102.182L356.877 97.6581C353.407 98.0207 349.747 98.2624 346.087 98.4178V91.1146H354.702V86.1077ZM359.398 112.61H365.596V68.0311H359.398V112.61ZM405.066 80.1858H380.221V69.6195H374.023V85.0718H405.066V80.1858ZM368.93 94.7058H409.572V89.8198H368.93V94.7058ZM373.609 111.522H405.342V106.515H379.842V98.3488H373.609V111.522ZM419.271 86.5394H426.246L428.663 72.6409H423.483L419.271 86.5394ZM469.18 68.0311H462.878V112.506H469.18V68.0311ZM431.991 99.9199L435.237 104.875C451.121 97.3819 455.851 86.1768 455.869 72.7099H434.374V77.596H449.515C448.514 87.4717 443.455 94.4814 431.991 99.9199ZM510.014 96.3633H479.472V101.301H503.798V112.541H510.014V96.3633ZM473.118 81.308C473.084 87.7479 478.211 92.3577 484.945 92.3577C490.642 92.3577 495.2 88.9565 496.392 83.9151H503.798V94.326H510.014V68.0311H503.798V78.8046H496.409C495.235 73.8149 490.66 70.3964 484.945 70.4309C478.211 70.3964 473.084 74.9889 473.118 81.308ZM479.023 81.308C479.023 77.8377 481.595 75.6796 484.945 75.6796C488.225 75.6796 490.746 77.8377 490.781 81.308C490.746 84.9337 488.225 87.0573 484.945 87.0746C481.595 87.0573 479.023 84.9337 479.023 81.308ZM523.223 72.6581H516.248L513.831 86.5566H519.011L523.223 72.6581ZM546.648 70.3273C537.273 70.3273 529.97 75.4033 529.987 83.1036C529.97 90.8557 537.273 95.9144 546.648 95.9144C556.058 95.9144 563.395 90.8557 563.395 83.1036C563.395 75.4033 556.058 70.3273 546.648 70.3273ZM526.413 107.085H567.056V102.044H526.413V107.085ZM536.03 83.1036C536.013 78.3384 540.485 75.3343 546.648 75.3688C552.795 75.3343 557.232 78.3384 557.249 83.1036C557.232 87.9378 552.795 90.8039 546.648 90.8039C540.485 90.8039 536.013 87.9378 536.03 83.1036ZM607.769 102.441H590.434V95.7244H604.126V90.6657H578.021V85.6588H603.09V70.9316H571.736V75.9385H596.926V80.7728H571.805V95.7244H584.271V102.441H567.126V107.534H607.769V102.441ZM617.957 72.6409H610.394L611.051 97.4164H617.301L617.957 72.6409ZM610.084 104.34C610.049 106.602 611.931 108.432 614.193 108.432C616.368 108.432 618.267 106.602 618.285 104.34C618.267 102.095 616.368 100.265 614.193 100.265C611.931 100.265 610.049 102.095 610.084 104.34Z" fill="white"/>
</svg>
