<svg width="532" height="195" viewBox="0 0 532 195" fill="none" xmlns="http://www.w3.org/2000/svg">
<path d="M38.6989 1.0663H35.2376V36.4337H38.6989V18.9337H46.163V15.9751H38.6989V1.0663ZM3.3895 28.1575H25.5691V4.50829H22.1657V13.0359H6.77348V4.50829H3.3895V28.1575ZM6.77348 25.2956V15.8204H22.1657V25.2956H6.77348ZM8.8232 48.1133H41.058V45.1934H12.2265V33.0497H8.8232V48.1133ZM86.4437 1.00829H83.0404V12.2818H72.8305V15.221H83.0404V25.4696H72.4051V28.4282H83.0404V49.3315H86.4437V1.00829ZM48.4658 8.4337H66.1399V19.3204H48.6205V37.884H52.1205C59.9134 37.884 66.1205 37.5939 73.9907 36.3564L73.6426 33.4171C65.9852 34.616 59.778 34.9061 52.1205 34.9061H52.0239V22.2017H69.5239V5.49447H48.4658V8.4337ZM136.316 25.1989H115.954V19.0691H131.114V16.1878H101.374V6.11326H130.766V3.30939H97.9704V19.0691H112.628V25.1989H92.3239V28.0414H136.316V25.1989ZM97.6996 40.5331C97.6996 46.0635 103.926 49.1575 114.291 49.1961C124.617 49.1575 130.824 46.0635 130.843 40.5331C130.824 35.0608 124.617 31.9088 114.291 31.9088C103.926 31.9088 97.6996 35.0608 97.6996 40.5331ZM101.219 40.5331C101.18 36.9171 106.227 34.6934 114.291 34.6934C122.316 34.6934 127.363 36.9171 127.401 40.5331C127.363 44.1878 122.316 46.3923 114.291 46.3536C106.227 46.3923 101.18 44.1878 101.219 40.5331ZM181.895 21.7956H137.922V24.6575H158.149V29.9751H143.356V32.721H172.748V37.5939H143.491V48.6547H177.641V45.8315H146.856V40.2624H176.132V29.9751H161.572V24.6575H181.895V21.7956ZM143.743 17.232H176.132V2.69061H143.743V17.232ZM147.127 14.3895V5.49447H172.69V14.3895H147.127ZM210.148 6.5H185.803V9.40055H206.706C206.706 13.0746 206.609 19.1851 205.236 27.6547L208.698 27.9448C210.109 18.7017 210.109 12.1657 210.148 8.60773V6.5ZM182.999 35.4088L183.501 38.3867C192.184 38.4061 203.709 38.174 213.919 36.6077L213.745 33.9779C208.543 34.616 202.858 34.9641 197.327 35.1575V20.268H193.905V35.2735C190.018 35.3702 186.305 35.3895 182.999 35.4088ZM217.013 49.2735H220.435V24.5028H228.673V21.4668H220.435V1.00829H217.013V49.2735ZM277.454 1.00829H273.992V30.0718H277.454V17.1547H284.918V14.1381H277.454V1.00829ZM240.056 9.30387H268.829V6.40331H256.164V0.582872H252.741V6.40331H240.056V9.30387ZM242.918 20.5967C242.879 25.837 247.462 29.163 254.443 29.163C261.327 29.163 265.909 25.837 265.929 20.5967C265.909 15.395 261.327 12.0304 254.443 12.011C247.462 12.0304 242.879 15.395 242.918 20.5967ZM246.186 20.5967C246.147 17.1354 249.454 14.7762 254.443 14.7569C259.335 14.7762 262.641 17.1354 262.68 20.5967C262.641 24.116 259.335 26.4171 254.443 26.4365C249.454 26.4171 246.147 24.116 246.186 20.5967ZM247.307 48.5773H277.454V33.011H247.307V48.5773ZM250.672 45.6768V35.8343H274.012V45.6768H250.672ZM297.488 6.94475H286.64V9.86464H294.472C294.143 18.5276 292.267 28.0608 285.867 35.6602L288.632 37.3619C295.961 28.0608 297.45 16.4586 297.488 6.94475ZM296.676 39.0829L299.422 40.7845C303.541 35.4669 305.726 29.2403 306.867 23.1878H314.563V46.7017H317.87V2.38121H314.563V20.2486H307.35C308.046 15.3757 308.143 10.7348 308.163 6.94475H299.074V9.86464H305.107C304.933 18.547 303.773 30.4392 296.676 39.0829ZM323.4 49.2735H326.745V1.00829H323.4V49.2735ZM368.65 1.0663H365.189V37.2652H368.65V20.268H376.115V17.3094H368.65V1.0663ZM331.253 10.116H360.026V7.23481H347.36V1.0663H343.938V7.23481H331.253V10.116ZM334.115 21.9889C334.076 27.3646 338.697 30.8066 345.639 30.8066C352.465 30.8066 357.106 27.3646 357.126 21.9889C357.106 16.5552 352.465 13.0746 345.639 13.0746C338.697 13.0746 334.076 16.5552 334.115 21.9889ZM337.383 21.9889C337.344 18.3149 340.65 15.8398 345.639 15.8398C350.532 15.8398 353.838 18.3149 353.877 21.9889C353.838 25.605 350.532 28.0414 345.639 28.0028C340.65 28.0414 337.344 25.605 337.383 21.9889ZM338.775 48.1133H371.01V45.1934H342.178V34.2873H338.775V48.1133ZM404.069 14.6409V5.33978H400.647V14.6409C400.627 23.7099 394.053 32.9144 387.304 36.163L389.509 39.0249C395.02 36.163 400.163 29.8011 402.387 22.337C404.688 29.453 409.851 35.4475 415.246 38.1547L417.412 35.4282C410.663 32.2762 404.031 23.4199 404.069 14.6409ZM423.58 49.3315H427.022V1.00829H423.58V49.3315ZM470.61 1.00829H467.129V36.5497H470.61V19.0304H478.074V16.0718H470.61V1.00829ZM433.251 27.8674L434.759 30.6906C448.488 26.2624 457.577 17.0193 457.577 4.779H435.204V7.71823H453.845C453.032 16.8453 445.008 24.0967 433.251 27.8674ZM440.715 48.1133H472.95V45.1934H444.137V32.9144H440.715V48.1133ZM522.628 21.7182H478.636V24.5994H522.628V21.7182ZM484.07 32.1409H513.462V37.4006H484.206V48.6354H518.355V45.7735H487.57V40.1271H516.846V29.3564H484.07V32.1409ZM484.631 17.3674H517.368V14.4669H488.073V5.70718H516.827V2.86464H484.631V17.3674ZM531.274 41.6354H527.155L524.1 55.8094H527.29L531.274 41.6354ZM17.9309 88.4006V80.9945H29.8425V78.0552H2.71271V80.9945H14.489V88.4006C14.4503 96.7735 7.79834 105.939 1.26243 109.149L3.33149 111.895C8.72652 109.091 14.0055 102.691 16.2486 95.4586C18.4917 102.343 23.7707 108.105 29.3398 110.715L31.3122 107.97C24.5249 104.992 17.9309 96.6768 17.9309 88.4006ZM37.268 121.273H40.7099V73.0083H37.268V121.273ZM91.9935 92.616H83.8526V73.0083H80.3913V121.254H83.8526V95.5552H91.9935V92.616ZM48.8719 108.84H52.604C60.01 108.859 67.3774 108.337 75.789 106.674L75.325 103.677C67.1647 105.378 59.8747 105.92 52.604 105.92H52.2752V77.8232H48.8719V108.84ZM129.451 73.0083H125.99V121.254H129.451V95.942H137.592V93.0028H129.451V73.0083ZM92.8847 109.072L94.8184 111.779C110.404 104.122 117.056 91.6878 117.095 78.268H95.0118V81.2072H113.575C112.744 92.8481 105.725 102.71 92.8847 109.072ZM176.867 88.0912H147.475V74.7873H144.072V90.953H176.867V88.0912ZM137.845 100.834H182.03V97.9724H137.845V100.834ZM143.801 120.036H177.157V117.116H147.204V106.055H143.801V120.036ZM194.09 91.5718H198.209L201.264 77.3978H198.073L194.09 91.5718ZM229.076 76.9144V74.2265H225.557V76.9144C225.537 83.779 215.85 89.2707 208.115 90.5083L209.526 93.2735C216.526 92.0166 224.416 87.9171 227.355 81.9227C230.314 87.8011 238.164 91.9586 245.126 93.2155L246.518 90.4503C238.88 89.2514 229.076 83.5856 229.076 76.9144ZM205.253 100.757H225.866V111.141H229.289V100.757H249.438V97.8564H205.253V100.757ZM211.093 120.113H244.507V117.193H214.535V106.229H211.093V120.113ZM288.5 73.0083H285.02V108.55H288.5V91.0304H295.965V88.0718H288.5V73.0083ZM251.141 99.8674L252.65 102.691C266.379 98.2624 275.467 89.0193 275.467 76.779H253.094V79.7182H271.735C270.923 88.8453 262.898 96.0967 251.141 99.8674ZM258.605 120.113H290.84V117.193H262.028V104.914H258.605V120.113ZM303.508 77.4365H299.389L296.334 91.6105H299.524L303.508 77.4365ZM347.157 73.0083H343.715V121.331H347.157V73.0083ZM309.508 93.5442C309.508 103.715 314.535 110.213 321.69 110.213C328.787 110.213 333.872 103.715 333.872 93.5442C333.872 83.3923 328.787 76.895 321.69 76.8564C314.535 76.895 309.508 83.3923 309.508 93.5442ZM312.834 93.5442C312.834 85.4807 316.488 79.9503 321.69 79.9116C326.892 79.9503 330.508 85.4807 330.527 93.5442C330.508 101.608 326.892 107.177 321.69 107.177C316.488 107.177 312.834 101.608 312.834 93.5442ZM376.813 76.8564C369.755 76.895 364.824 83.3923 364.863 93.5442C364.824 103.715 369.755 110.213 376.813 110.213C383.871 110.213 388.802 103.715 388.841 93.5442C388.802 83.3923 383.871 76.895 376.813 76.8564ZM368.092 93.5442C368.092 85.4807 371.689 79.9503 376.813 79.9116C381.976 79.9503 385.515 85.4807 385.515 93.5442C385.515 101.608 381.976 107.177 376.813 107.177C371.689 107.177 368.092 101.608 368.092 93.5442ZM397.601 121.273H401.062V95.6326H409.416V92.6354H401.062V73.0083H397.601V121.273ZM449.213 73.0663H445.752V108.086H449.213V73.0663ZM412.666 98.5331H416.475C425.718 98.5525 432.622 97.9917 440.492 96.3674L439.97 93.3895C432.39 95.0718 425.525 95.5552 416.475 95.5359H416.127V76.6243H412.666V98.5331ZM417.848 120.113H450.779V117.193H421.29V104.721H417.848V120.113ZM19.7486 157.809V154.754H30.1713V149.05H2.07459V154.754H12.6519V157.809C12.6326 166.26 8.35912 175.483 0.121547 179.177L4.08564 184.649C9.96409 181.961 14.0829 176.508 16.326 169.953C18.5691 175.986 22.6105 180.936 28.489 183.412L32.2403 177.939C23.9061 174.478 19.7486 165.873 19.7486 157.809ZM35.0829 194.047H42.1409V144.235H35.0829V194.047ZM91.4907 168.464H72.173V161.89H65.2504V168.464H46.0874V174.052H91.4907V168.464ZM48.4078 159.395L50.9023 164.848C59.2946 163.591 65.4631 160.033 68.6344 155.064C71.7863 160.052 77.9741 163.591 86.3471 164.848L89.0349 159.395C77.8194 158.041 72.2504 152.55 72.2504 146.729V145.086H65.1537V146.729C65.1344 152.337 59.4299 158.041 48.4078 159.395ZM51.115 183.006H78.9797V194.047H85.9603V177.591H51.115V183.006ZM121.291 164.481H102.089V154.213H121.059V148.682H95.1665V170.088H104.661V178.481C100.194 178.558 95.8626 178.577 91.8985 178.558L92.6914 184.243C102.07 184.243 113.382 184.166 124.249 182.483L123.727 177.417C119.841 177.823 115.741 178.094 111.642 178.268V170.088H121.291V164.481ZM126.55 194.163H133.492V144.235H126.55V194.163ZM177.699 157.848H149.873V146.014H142.931V163.32H177.699V157.848ZM137.226 174.11H182.746V168.638H137.226V174.11ZM142.467 192.945H178.008V187.337H149.447V178.191H142.467V192.945ZM193.608 164.964H201.42L204.127 149.398H198.326L193.608 164.964ZM249.507 144.235H242.449V194.047H249.507V144.235ZM207.855 179.95L211.49 185.5C229.28 177.108 234.578 164.558 234.598 149.475H210.523V154.948H227.482C226.36 166.008 220.694 173.859 207.855 179.95ZM295.24 175.967H261.033V181.497H288.279V194.086H295.24V175.967ZM253.917 159.105C253.878 166.318 259.622 171.481 267.163 171.481C273.544 171.481 278.649 167.671 279.983 162.025H288.279V173.685H295.24V144.235H288.279V156.301H280.003C278.688 150.713 273.564 146.884 267.163 146.923C259.622 146.884 253.878 152.028 253.917 159.105ZM260.53 159.105C260.53 155.218 263.412 152.801 267.163 152.801C270.837 152.801 273.66 155.218 273.699 159.105C273.66 163.166 270.837 165.544 267.163 165.564C263.412 165.544 260.53 163.166 260.53 159.105ZM310.035 149.417H302.223L299.516 164.983H305.317L310.035 149.417ZM336.271 146.807C325.771 146.807 317.591 152.492 317.61 161.116C317.591 169.798 325.771 175.464 336.271 175.464C346.809 175.464 355.028 169.798 355.028 161.116C355.028 152.492 346.809 146.807 336.271 146.807ZM313.608 187.975H359.127V182.329H313.608V187.975ZM324.378 161.116C324.359 155.779 329.367 152.414 336.271 152.453C343.155 152.414 348.124 155.779 348.144 161.116C348.124 166.53 343.155 169.74 336.271 169.74C329.367 169.74 324.359 166.53 324.378 161.116ZM404.725 182.773H385.311V175.251H400.645V169.586H371.408V163.978H399.485V147.483H364.369V153.091H392.582V158.506H364.446V175.251H378.408V182.773H359.206V188.478H404.725V182.773ZM416.136 149.398H407.666L408.401 177.146H415.401L416.136 149.398ZM407.318 184.901C407.28 187.434 409.387 189.483 411.921 189.483C414.357 189.483 416.484 187.434 416.503 184.901C416.484 182.387 414.357 180.337 411.921 180.337C409.387 180.337 407.28 182.387 407.318 184.901Z" fill="white"/>
</svg>
