<svg width="160" height="21" viewBox="0 0 160 21" fill="none" xmlns="http://www.w3.org/2000/svg">
<path d="M0.296 15.62H3.572V11.714H5.93C9.746 11.714 11.978 9.59 11.978 6.314C11.978 3.074 9.746 0.95 5.93 0.95H0.296V15.62ZM3.572 8.816V3.848H5.786C7.604 3.848 8.702 4.694 8.702 6.314C8.702 7.952 7.604 8.816 5.786 8.816H3.572ZM18.5154 15.872C21.0714 15.872 23.1414 14.486 23.6814 12.47H20.4594C20.1894 12.974 19.4334 13.298 18.5154 13.298C17.3094 13.298 16.4634 12.596 16.2114 11.372H23.9334C23.9874 10.994 24.0054 10.652 24.0054 10.346C24.0054 7.124 21.7374 4.82 18.5154 4.82C15.2934 4.82 13.0254 7.142 13.0254 10.346C13.0254 13.568 15.2934 15.872 18.5154 15.872ZM16.1934 9.302C16.4634 8.042 17.2554 7.358 18.5154 7.358C19.7754 7.358 20.6034 8.042 20.8734 9.302H16.1934ZM32.1211 5.072H30.0331V1.94H26.8291V5.072H24.7411V7.826H26.8291V15.62H30.0331V7.826H32.1211V5.072ZM33.622 15.62H36.826V9.896C36.88 8.402 37.438 7.574 38.482 7.574C39.652 7.574 40.264 8.456 40.264 10.058V15.62H43.468V9.896C43.522 8.402 44.08 7.574 45.124 7.574C46.294 7.574 46.906 8.456 46.906 10.058V15.62H50.11V9.518C50.11 6.584 48.49 4.82 46.06 4.82C44.458 4.82 43.342 5.324 42.55 6.332C41.848 5.36 40.75 4.82 39.418 4.82C38.248 4.82 37.456 5.234 36.826 6.08V5.072H33.622V15.62ZM57.3304 4.82C54.0724 4.82 51.7324 7.142 51.7324 10.346C51.7324 13.55 54.0724 15.872 57.3304 15.872C60.5884 15.872 62.9284 13.55 62.9284 10.346C62.9284 7.142 60.5884 4.82 57.3304 4.82ZM57.3304 7.556C58.8424 7.556 59.8324 8.726 59.8324 10.346C59.8324 11.966 58.8424 13.136 57.3304 13.136C55.8184 13.136 54.8284 11.966 54.8284 10.346C54.8284 8.726 55.8184 7.556 57.3304 7.556ZM64.8056 15.62H68.0096V10.22C68.0096 8.618 69.0356 7.646 70.7456 7.646C71.3756 7.646 71.9336 7.772 72.3836 8.006L72.3476 5C71.9336 4.856 71.5556 4.82 70.9616 4.82C69.6116 4.82 68.6396 5.306 68.0096 6.152V5.072H64.8056V15.62ZM81.1609 5.072L78.8569 11.588L76.5709 5.072H73.0249L77.1829 15.332L75.2749 20.012H78.4249L84.4909 5.072H81.1609ZM96.6875 0.589999C93.3755 0.589999 90.7475 2.174 90.7475 4.82C90.7475 7.574 92.4755 8.888 95.6615 9.482C98.2715 9.968 99.2615 10.436 99.2615 11.606C99.2615 12.56 98.2715 13.226 96.9395 13.226C95.0675 13.226 93.8435 12.29 93.6635 10.886H90.2975C90.4415 14.018 93.0875 15.98 96.7055 15.98C99.9815 15.98 102.628 14.27 102.628 11.462C102.628 9.266 101.476 7.592 98.0915 6.89C95.2295 6.296 94.0955 5.918 94.0955 4.82C94.0955 3.938 94.9415 3.326 96.4715 3.326C98.0375 3.326 98.9915 4.1 99.1895 5.378H102.574C102.412 2.588 99.9635 0.589999 96.6875 0.589999ZM107.666 0.499999H104.462V15.62H107.666V0.499999ZM115.127 4.82C111.869 4.82 109.529 7.142 109.529 10.346C109.529 13.55 111.869 15.872 115.127 15.872C118.385 15.872 120.725 13.55 120.725 10.346C120.725 7.142 118.385 4.82 115.127 4.82ZM115.127 7.556C116.639 7.556 117.629 8.726 117.629 10.346C117.629 11.966 116.639 13.136 115.127 13.136C113.615 13.136 112.625 11.966 112.625 10.346C112.625 8.726 113.615 7.556 115.127 7.556ZM127.984 20.264C131.134 20.264 133.42 18.284 133.42 15.422V5.072H130.216V6.152C129.586 5.306 128.578 4.82 127.192 4.82C124.168 4.82 122.062 7.106 122.062 10.256C122.062 13.352 124.168 15.602 127.192 15.602C128.578 15.602 129.586 15.116 130.216 14.27V15.386C130.216 16.7 129.316 17.564 127.984 17.564C126.796 17.564 126.184 17.132 126.022 16.448H122.782C123.124 18.482 124.852 20.264 127.984 20.264ZM127.696 12.956C126.166 12.956 125.194 11.822 125.194 10.256C125.194 8.69 126.166 7.556 127.696 7.556C129.262 7.556 130.27 8.69 130.27 10.256C130.27 11.822 129.262 12.956 127.696 12.956ZM140.429 15.872C141.815 15.872 142.823 15.386 143.453 14.54V15.62H146.657V5.072H143.453V6.152C142.823 5.306 141.815 4.82 140.429 4.82C137.405 4.82 135.299 7.142 135.299 10.346C135.299 13.55 137.405 15.872 140.429 15.872ZM140.933 13.136C139.403 13.136 138.431 11.966 138.431 10.346C138.431 8.726 139.403 7.556 140.933 7.556C142.499 7.556 143.507 8.726 143.507 10.346C143.507 11.966 142.499 13.136 140.933 13.136ZM149.075 15.62H152.279V10.202C152.279 8.564 153.035 7.574 154.295 7.574C155.501 7.574 156.149 8.456 156.149 10.058V15.62H159.353V9.518C159.353 6.602 157.679 4.82 155.231 4.82C153.881 4.82 152.909 5.306 152.279 6.152V5.072H149.075V15.62Z" fill="#FF8A33"/>
</svg>
