<svg width="360" height="68" viewBox="0 0 360 68" fill="none" xmlns="http://www.w3.org/2000/svg">
<rect x="0.5" y="0.5" width="359" height="67" rx="7.5" stroke="#9D9D9D"/>
<path d="M41.7661 34.6562L33.6923 23H27V44.7778H34.0117V33.1216L42.0855 44.7778H48.7778V23H41.7661V34.6562Z" fill="#00C300"/>
<path d="M126.655 28.779V36.558C128.092 36.5414 129.44 36.4475 130.992 36.1215L131.202 37.3812C129.379 37.768 127.827 37.8453 126.092 37.8398H125.169V28.779H126.655ZM129.097 33.1547V31.9448H132.158V27.6409H133.567V40.6464H132.158V33.1547H129.097ZM135.158 41.326V27.326H136.567V41.326H135.158ZM149.639 27.326V41.3536H148.147V27.326H149.639ZM138.522 33.2873C138.522 30.2873 140.031 28.3812 142.141 28.3757C144.23 28.3812 145.755 30.2873 145.755 33.2873C145.755 36.3039 144.23 38.2099 142.141 38.2099C140.031 38.2099 138.522 36.3039 138.522 33.2873ZM139.953 33.2873C139.953 35.5083 140.848 36.8785 142.141 36.8785C143.434 36.8785 144.318 35.5083 144.318 33.2873C144.318 31.0829 143.434 29.7127 142.141 29.7017C140.848 29.7127 139.953 31.0829 139.953 33.2873ZM163.224 27.326V41.3536H161.754V33.663H158.649V37.884H152.097V28.4144H153.589V31.9779H157.202V28.4144H158.649V32.442H161.754V27.326H163.224ZM153.589 36.674H157.202V33.1547H153.589V36.674ZM177.87 38.4144V39.6464H165.058V38.4144H170.693V35.9503H166.616V31.4972H174.837V29.5304H166.588V28.3204H176.301V32.6906H168.091V34.7348H176.627V35.9503H172.163V38.4144H177.87ZM193.727 27.326V41.326H192.246V27.326H193.727ZM182.224 37.5193C183.379 37.5138 184.694 37.5028 186.064 37.4641V36.0608C184.434 35.8453 183.373 34.8785 183.385 33.5138C183.373 31.9337 184.749 30.895 186.782 30.895C188.826 30.895 190.219 31.9337 190.219 33.5138C190.219 34.8674 189.164 35.8287 187.545 36.0552V37.4088C188.838 37.3481 190.147 37.2486 191.379 37.0884L191.489 38.2044C188.385 38.7182 184.998 38.7569 182.434 38.7569L182.224 37.5193ZM182.517 30.1823V28.9945H186.064V27.3536H187.55V28.9945H191.064V30.1823H182.517ZM184.782 33.5138C184.771 34.4033 185.606 34.9558 186.782 34.9503C187.981 34.9558 188.804 34.4033 188.804 33.5138C188.804 32.6188 187.981 32.0442 186.782 32.0442C185.606 32.0442 184.771 32.6188 184.782 33.5138ZM207.307 27.337V37.9558H205.815V36.6133H202.998V35.5635H205.815V27.337H207.307ZM195.589 33.7293C198.18 33.7127 201.672 33.6851 204.655 33.3094L204.755 34.3812C203.55 34.5801 202.296 34.7072 201.058 34.7845V37.5193H199.578V34.8674C198.219 34.9171 196.915 34.9282 195.777 34.9227L195.589 33.7293ZM196.683 30.337C196.683 28.8619 198.097 27.8729 200.174 27.8729C202.219 27.8729 203.638 28.8619 203.65 30.337C203.638 31.8343 202.219 32.779 200.174 32.779C198.097 32.779 196.683 31.8343 196.683 30.337ZM197.528 41.0387V36.9171H199.009V39.8232H207.638V41.0387H197.528ZM198.092 30.337C198.086 31.1713 198.931 31.6906 200.174 31.6906C201.368 31.6906 202.224 31.1713 202.235 30.337C202.224 29.5083 201.368 28.9724 200.174 28.9779C198.931 28.9724 198.086 29.5083 198.092 30.337ZM220.075 27.326V32.9061H222.246V34.1492H220.075V41.3094H218.589V27.326H220.075ZM209.174 37.5801C212.688 35.8287 214.589 33.2983 214.904 30.0331H209.876V28.8066H216.412C216.401 32.8453 214.616 36.4586 210.003 38.7293L209.174 37.5801ZM234.29 27.326V34.8398H232.804V27.326H234.29ZM222.959 31.2265C222.959 29.2928 224.539 27.9613 226.688 27.9724C228.832 27.9613 230.406 29.2928 230.406 31.2265C230.406 33.1326 228.832 34.4641 226.688 34.4586C224.539 34.4641 222.959 33.1326 222.959 31.2265ZM224.412 31.2265C224.401 32.4254 225.356 33.232 226.688 33.2376C228.003 33.232 228.953 32.4254 228.953 31.2265C228.953 30.0221 228.003 29.2099 226.688 29.221C225.356 29.2099 224.401 30.0221 224.412 31.2265ZM225.124 41.1492V35.5193H226.577V37.0884H232.815V35.5193H234.29V41.1492H225.124ZM226.577 39.9392H232.815V38.2597H226.577V39.9392Z" fill="#2B2B2B"/>
</svg>
