<svg width="120" height="120" viewBox="0 0 120 120" fill="none" xmlns="http://www.w3.org/2000/svg">
<circle cx="60" cy="60" r="59" stroke="#FF8A33" stroke-opacity="0.4" stroke-width="2" stroke-dasharray="16 16"/>
<g opacity="0.4">
<path d="M70.9947 42.2082C70.3686 42.7203 70.4656 43.8632 71.2114 44.7597C71.9572 45.6562 73.0702 45.967 73.6974 45.4549C74.3235 44.9428 74.2266 43.7999 73.4808 42.9035C72.7349 42.007 71.6219 41.6961 70.9947 42.2082Z" fill="#FF8A33"/>
<path d="M44.8024 47.8798C44.6941 47.8843 44.5892 47.899 44.4865 47.9182L40.9091 44.5167C40.5454 44.1707 39.9683 44.1832 39.6194 44.5438C39.2704 44.9044 39.283 45.4764 39.6467 45.8223L42.9801 48.9922C42.7874 49.3324 42.6824 49.727 42.6995 50.1452C42.7144 50.5013 42.8159 50.8314 42.9812 51.122L41.3961 52.8595C41.0597 53.2314 41.0905 53.8023 41.4645 54.1369C41.6561 54.3076 41.9013 54.3833 42.1396 54.3664C42.3665 54.3506 42.5889 54.25 42.7531 54.0691L44.466 52.1891C44.6336 52.2219 44.8058 52.2377 44.9837 52.2309C46.1948 52.1812 47.1368 51.1683 47.0866 49.9666C47.0364 48.7661 46.0146 47.8323 44.8024 47.882V47.8798Z" fill="#FF8A33"/>
<path d="M90.0277 50.4414C89.9992 49.8344 89.6628 44.459 86.7103 42.4943C85.9029 41.9573 84.5573 41.4531 82.7258 42.0986C82.3632 42.2263 82.077 42.3541 81.8477 42.4581C81.7827 42.4875 81.7098 42.5203 81.6448 42.5474C81.5626 42.4807 81.4372 42.3676 81.2536 42.1777C80.9343 41.8476 80.664 41.4045 80.3766 40.9342C80.0562 40.4097 79.6936 39.8162 79.1986 39.2792C78.2407 38.2426 77.1619 37.3665 75.9919 36.6769C73.0759 34.9597 69.7836 34.7981 66.7194 36.2224C66.0455 36.5356 65.3669 36.8352 64.7101 37.1246C62.2126 38.2256 59.8532 39.2656 57.8986 40.9704L57.5564 40.6313C51.2513 34.3798 40.9924 34.3798 34.6884 40.629C28.3832 46.8793 28.3832 57.049 34.6884 63.2982L55.9177 84.3429C56.1846 84.6074 56.5347 84.7397 56.8859 84.7397C57.2371 84.7397 57.5804 84.6097 57.8472 84.3486L74.1 68.4429C74.4136 68.1513 75.1195 67.5148 76.0113 66.7111C79.4221 63.6373 85.7718 57.916 88.3285 55.1374C89.6959 53.6508 90.1246 52.4661 90.0288 50.4392L90.0277 50.4414ZM36.6236 42.5485C39.2419 39.953 42.6824 38.6541 46.123 38.6541C49.5635 38.6541 53.0029 39.9518 55.6224 42.5485L55.9987 42.9216C56.0192 42.9419 56.0409 42.9623 56.0637 42.9815C54.8594 44.6557 54.0794 46.6758 53.6951 49.0939C53.4807 50.4437 53.3997 51.7844 53.4431 53.0867C46.7308 56.1152 42.4829 62.8494 40.9422 65.6609L36.6247 61.3809C31.3869 56.1887 31.3869 47.7407 36.6247 42.5485H36.6236ZM86.3055 53.3117C83.8354 55.9965 77.5474 61.6624 74.1695 64.7056C73.2219 65.5603 72.5365 66.1764 72.2126 66.4793C72.2047 66.4872 72.1967 66.494 72.1887 66.5019L56.8916 81.4727L42.9698 67.672C43.8354 65.9887 47.6374 59.1494 53.751 55.957C54.2277 58.5152 55.2278 60.8123 56.6932 62.586C58.5919 64.8831 61.1293 66.1605 64.0304 66.2804C64.133 66.2849 64.2357 66.2871 64.3372 66.2871C67.6751 66.2871 70.6115 64.0262 71.7052 60.576C72.3883 58.4225 72.2776 56.0214 71.395 53.8125C70.4086 51.3447 68.4847 49.1538 65.8299 47.4773C65.1924 47.0749 64.3463 47.2603 63.9403 47.8922C63.5343 48.5242 63.7214 49.363 64.3588 49.7654C69.2134 52.8312 69.9878 56.9393 69.0926 59.7621C68.3296 62.1677 66.3864 63.6577 64.1433 63.5695C62.0427 63.4825 60.1987 62.5476 58.8086 60.8666C56.594 58.1874 55.6919 53.9447 56.3944 49.5167C57.3774 43.324 61.103 41.6826 65.8185 39.6037C66.4879 39.3086 67.1801 39.0034 67.8781 38.6789C70.095 37.648 72.4784 37.7655 74.5903 39.009C75.53 39.5618 76.399 40.2695 77.1756 41.1106C77.4881 41.4497 77.7515 41.8815 78.0309 42.3383C78.3661 42.8865 78.7448 43.5083 79.2739 44.0554C80.6195 45.4482 81.5227 45.5182 82.7076 45.0423C82.7361 45.6788 83.2835 46.3706 84.1274 46.7482C85.0294 47.1518 85.9782 47.0647 86.4537 46.5877C86.935 47.7701 87.2281 49.2703 87.2896 50.5692C87.3512 51.8737 87.1756 52.361 86.3009 53.3117H86.3055Z" fill="#FF8A33"/>
</g>
</svg>
