<svg width="444" height="564" viewBox="0 0 444 564" fill="none" xmlns="http://www.w3.org/2000/svg">
<g filter="url(#filter0_d_663_2070)">
<rect x="10" y="10" width="384" height="504" rx="8" fill="white"/>
</g>
<path d="M196.37 57.818C199.394 57.818 201.68 55.316 201.68 50.276C201.68 45.236 199.394 42.734 196.37 42.734C193.328 42.734 191.042 45.236 191.042 50.276C191.042 55.316 193.328 57.818 196.37 57.818ZM196.37 56.144C194.408 56.144 192.86 54.2 192.86 50.276C192.86 46.37 194.408 44.408 196.37 44.408C198.314 44.408 199.862 46.37 199.862 50.276C199.862 54.2 198.314 56.144 196.37 56.144ZM202.946 57.494H212.972V55.856H205.664L209.444 52.148C211.604 49.934 212.486 48.62 212.486 47.072C212.486 44.48 210.578 42.734 207.68 42.734C204.674 42.734 202.784 44.876 202.784 47.486H204.674C204.674 45.884 205.718 44.408 207.662 44.408C209.462 44.408 210.614 45.398 210.614 47.09C210.614 48.116 209.894 49.286 208.058 51.14L202.946 56.27V57.494Z" fill="#666666"/>
<path d="M161.088 74.4448V73.989H158.005V74.4448C157.997 76.5497 155.535 78.7044 150.77 79.2017L151.773 81.4392C155.461 81.0166 158.154 79.6077 159.53 77.6436C160.905 79.6077 163.624 81.0166 167.303 81.4392L168.323 79.2017C163.524 78.7044 161.079 76.5497 161.088 74.4448ZM149.817 84.663H169.276V82.268H149.817V84.663ZM152.063 88.1602H163.947V89.3702H152.079V95.0138H167.452V92.7597H155.013V91.4586H166.897V85.9475H152.063V88.1602ZM187.549 74.7265H171.546V77.0718H174.314V80.768H171.687V83.1381H187.408V80.768H184.773V77.0718H187.549V74.7265ZM169.839 87.1989H189.298V84.837H169.839V87.1989ZM172.185 94.7901H187.077V92.3785H175.185V88.6409H172.185V94.7901ZM177.298 80.768V77.0718H181.765V80.768H177.298ZM211.595 73.8149H208.595V85.7486H211.595V80.942H214.463V78.489H211.595V73.8149ZM194.432 83.8508L195.617 86.2376C202.032 84.547 205.604 80.7182 205.612 75.0746H195.485V77.453H202.347C201.874 80.2956 199.222 82.6657 194.432 83.8508ZM197.631 94.8978H211.595V86.5525H197.631V94.8978ZM200.606 92.5525V88.9641H208.637V92.5525H200.606ZM232.67 73.8149H229.687V79.0193H226.355V81.4558H229.687V86.4945H232.67V73.8149ZM214.554 84.1326L216.104 86.5028C218.631 85.6326 220.338 83.8923 221.267 81.721C222.203 83.6354 223.819 85.1768 226.173 85.9475L227.648 83.5939C224.341 82.5 222.816 79.9972 222.742 77.5193H226.993V75.116H215.424V77.5193H219.7C219.634 80.1961 218.035 82.9724 214.554 84.1326ZM218.051 91.0773C218.043 93.663 220.836 95.1796 225.377 95.1878C229.935 95.1796 232.72 93.663 232.728 91.0773C232.72 88.4917 229.935 86.9669 225.377 86.9669C220.836 86.9669 218.043 88.4917 218.051 91.0773ZM221.026 91.0773C221.018 89.8508 222.551 89.2376 225.377 89.2376C228.211 89.2376 229.753 89.8508 229.761 91.0773C229.753 92.2956 228.211 92.9088 225.377 92.9006C222.551 92.9088 221.018 92.2956 221.026 91.0773Z" fill="#FF8A33"/>
<path d="M244.43 74.1298C239.507 74.1298 236.656 75.4144 236.665 77.7597C236.656 80.1464 239.507 81.4227 244.43 81.4227C249.344 81.4227 252.178 80.1464 252.187 77.7597C252.178 75.4144 249.344 74.1298 244.43 74.1298ZM234.717 84.8039H254.176V82.4337H234.717V84.8039ZM236.963 88.2265H248.847V89.3867H236.979V95.0138H252.352V92.7597H239.913V91.4751H251.797V86.0304H236.963V88.2265ZM239.797 77.7597C239.781 76.8232 241.305 76.3094 244.43 76.3177C247.595 76.3094 249.104 76.8232 249.104 77.7597C249.104 78.8122 247.595 79.2182 244.43 79.2265C241.305 79.2182 239.781 78.8122 239.797 77.7597ZM159.264 120.083H139.806V122.428H148.019V123.953C144.223 124.202 142.027 125.445 142.027 127.533C142.027 129.878 144.803 131.163 149.494 131.155C154.176 131.163 156.911 129.878 156.927 127.533C156.911 125.453 154.756 124.202 150.994 123.953V122.428H159.264V120.083ZM140.618 117.133L141.521 119.403C145.433 119.13 148.16 117.986 149.502 116.262C150.836 117.986 153.555 119.13 157.483 119.403L158.386 117.133C153.911 116.843 151.723 115.55 151.259 114.091H157.375V111.738H150.985V109.89H148.019V111.738H141.671V114.091H147.737C147.256 115.55 145.093 116.843 140.618 117.133ZM145.077 127.533C145.06 126.555 146.519 126.116 149.494 126.116C152.419 126.116 153.919 126.555 153.927 127.533C153.919 128.511 152.419 128.95 149.494 128.942C146.519 128.95 145.06 128.511 145.077 127.533ZM179.312 120.762H159.803V123.116H168.331V126.555H171.289V123.116H179.312V120.762ZM162.091 130.79H177.165V128.378H165.057V124.881H162.091V130.79ZM162.314 119.271H176.784V110.503H173.825V112.732H165.256V110.503H162.314V119.271ZM165.256 116.917V114.953H173.825V116.917H165.256ZM197.701 109.815H194.676V131.163H197.701V109.815ZM180.298 115.434H193.044V113.039H188.187V110.105H185.154V113.039H180.298V115.434ZM181.209 121.682C181.201 124.666 183.546 126.762 186.712 126.771C189.861 126.762 192.198 124.666 192.198 121.682C192.198 118.707 189.861 116.594 186.712 116.594C183.546 116.594 181.201 118.707 181.209 121.682ZM184.06 121.682C184.052 120.05 185.154 119.039 186.712 119.022C188.254 119.039 189.339 120.05 189.339 121.682C189.339 123.34 188.254 124.326 186.712 124.318C185.154 124.326 184.052 123.34 184.06 121.682ZM222.07 119.262H209.863V111.68H206.863V121.691H222.07V119.262ZM204.684 128.635H224.192V126.133H204.684V128.635ZM242.573 109.815H239.557V131.163H242.573V109.815ZM224.573 124.74L226.861 126.439C230.598 122.378 231.402 117.746 231.419 112.011H225.584V114.456H228.56C228.336 118.657 227.341 121.674 224.573 124.74ZM230.698 126.249L233.176 127.807C236.723 123.307 237.394 118.003 237.394 112.011H232.181V114.456H234.543C234.344 119.122 233.441 122.718 230.698 126.249ZM262.645 109.815H259.62V131.163H262.645V109.815ZM244.794 125.122L246.352 127.5C253.977 123.903 256.247 118.525 256.256 112.061H245.938V114.406H253.206C252.725 119.146 250.297 122.511 244.794 125.122Z" fill="#2C2827"/>
<g clip-path="url(#clip0_663_2070)">
<path d="M239.884 471.471L239.31 468.988L238.367 464.987C238.367 464.987 253.5 461.492 256.697 451.03C258.72 444.408 258.306 435.901 257.41 428.336C256.904 423.968 256.26 419.898 255.823 416.702C254.857 409.413 260.146 405.389 263.964 417.575C264.723 420.013 265.413 423.071 266.011 426.888C266.172 428.014 266.333 429.118 266.448 430.222C268.955 451.26 263.343 464.481 239.861 471.494L239.884 471.471Z" fill="#873B07"/>
<path d="M239.884 471.471L239.31 468.988C239.31 468.988 239.402 468.988 239.448 468.988C250.395 467.585 260.422 457.583 262.285 451.513C263.849 446.432 263.435 436.269 266.448 430.222C268.955 451.26 263.343 464.481 239.861 471.494L239.884 471.471Z" fill="#EDD1AD"/>
<path d="M170.152 242.646C170.152 242.646 164.587 242.646 161.229 245.244C157.894 247.842 144.509 262.328 139.679 277.572C134.849 292.793 149.706 349.655 157.894 352.621C166.058 355.587 172.015 341.837 174.614 322.891C177.213 303.945 170.152 242.646 170.152 242.646Z" fill="#7D3706"/>
<path d="M205.524 471.471C205.524 471.471 201.431 471.655 195.635 471.885C187.792 472.161 176.868 472.505 168.795 472.436C168.312 472.436 167.829 472.436 167.346 472.436C165.53 472.413 163.897 472.368 162.54 472.276C162.011 472.253 161.551 472.207 161.114 472.161C159.136 472 157.986 471.747 158.032 471.379C158.308 469.057 159.481 451.881 168.496 450.133C177.259 448.432 184.365 457.997 184.779 458.549V458.503C184.365 457.33 180.985 441.327 187.424 436.476C196.716 429.463 210.975 435.901 205.501 471.471H205.524Z" fill="#EDD1AD"/>
<path d="M205.685 470.39C205.639 470.758 205.57 471.126 205.524 471.494C205.524 471.494 201.431 471.678 195.635 471.908C196.003 469.884 196.348 467.562 196.67 464.918C198.878 446.753 184.549 432.268 184.802 458.572V458.526C184.388 457.353 181.008 441.35 187.447 436.499C188.229 435.901 189.057 435.418 189.885 435.027C198.901 430.842 210.285 438.729 205.685 470.413V470.39Z" fill="#A14A22"/>
<path d="M177.351 416.081C175.603 425.347 171.808 440.821 168.197 453.099C165.3 462.917 162.517 470.666 160.976 471.517C158.791 472.712 151.132 472.758 145.429 472.436C144.923 472.39 144.44 472.368 143.98 472.322C141.312 472.115 139.311 471.816 138.92 471.517C137.655 470.574 137.333 461.446 140.484 458.273C143.635 455.123 152.466 454.801 152.466 454.801C152.466 454.801 152.926 447.42 153.524 437.464C153.777 433.165 154.076 428.382 154.352 423.531C154.95 413.437 155.548 402.975 155.916 395.594C156.1 391.892 156.376 388.398 156.767 385.064C158.4 371.015 161.85 359.495 166.932 345.516C166.932 345.516 180.479 399.388 177.328 416.081H177.351Z" fill="#BB6A2C"/>
<path d="M168.519 450.11C168.404 451.145 168.289 452.134 168.174 453.099C165.277 462.917 162.494 470.666 160.953 471.517C158.768 472.712 151.109 472.758 145.406 472.436C144.9 472.391 144.417 472.368 143.957 472.322C141.289 472.115 139.288 471.816 138.897 471.517C137.632 470.574 137.31 461.446 140.461 458.273C143.612 455.123 152.443 454.801 152.443 454.801C152.443 454.801 152.903 447.42 153.501 437.464C165.415 420.886 170.589 431.992 168.519 450.064V450.11Z" fill="#EDD1AD"/>
<path d="M239.884 471.471C239.884 471.471 225.855 471.103 215.115 463.469C214.218 462.825 213.321 462.136 212.47 461.377C209.825 459.032 207.502 456.158 205.823 452.617C197.222 434.429 170.428 421.875 164.495 397.388C164.104 395.824 163.805 394.215 163.552 392.605C161.551 379.959 163.184 365.979 164.978 353.057C166.541 341.837 168.243 331.398 167.806 323.328L221.715 299.53C221.715 299.53 221.393 305.807 221.393 331.26C221.393 337.813 222.566 346.528 224.406 356.299C229.052 381.132 237.884 412.655 242.115 431.9C242.69 434.521 243.173 436.935 243.564 439.051C247.865 462.848 239.908 471.448 239.908 471.448L239.884 471.471Z" fill="#BB6A2C"/>
<g style="mix-blend-mode:multiply" opacity="0.3">
<path d="M145.406 472.436C144.9 472.39 144.417 472.367 143.957 472.322C143.543 469.677 143.382 466.205 144.509 463.492L145.82 464.067C144.785 466.573 145.015 469.953 145.406 472.436Z" fill="#BB6A2C"/>
</g>
<path d="M242.069 431.923C236.918 430.245 229.305 426.612 223.831 419.024C214.816 406.516 226.154 404.194 222.382 394.008C218.726 384.213 210.262 369.566 224.36 356.322C229.006 381.155 237.838 412.678 242.069 431.923Z" fill="#873B07"/>
<path d="M257.41 428.336C256.904 423.968 256.26 419.898 255.823 416.702C254.857 409.413 260.146 405.389 263.964 417.575C264.999 426.313 260.859 434.567 257.41 428.336Z" fill="#BB6A2C"/>
<path d="M215.092 463.492C211.366 460.848 208.031 457.33 205.8 452.64C197.199 434.452 170.405 421.898 164.472 397.411C161.114 383.592 162.908 367.658 164.932 353.057C174.269 332.893 188.965 347.01 193.266 376.119C197.843 407.16 210.63 431.509 223.095 440.315C232.249 446.776 224.705 458.986 215.092 463.469V463.492Z" fill="#FFE9CC"/>
<g style="mix-blend-mode:multiply" opacity="0.3">
<path d="M212.47 461.4C209.825 459.055 207.502 456.181 205.823 452.64C197.222 434.452 170.428 421.898 164.495 397.411C164.104 395.847 163.805 394.238 163.552 392.628C166.357 399.756 170.451 407.62 175.695 411.229C185.906 418.311 192.599 386.052 193.795 371.912C200.879 391.571 220.083 393.272 216.38 405.734C212.677 418.196 210.538 446.501 217.001 438.775C224.866 429.348 231.95 431.693 235.492 438.384C238.482 444.017 222.681 459.193 212.493 461.423L212.47 461.4Z" fill="#BB6A2C"/>
</g>
<path d="M210.124 412.402C208.468 420.978 199.568 441.58 192.07 456.25C187.654 464.849 183.722 471.425 182.02 472.299C179.927 473.379 175.396 473.908 170.98 473.977C170.497 473.977 170.014 473.977 169.531 473.977C167.737 473.977 166.013 473.908 164.518 473.77C164.012 473.724 163.529 473.678 163.092 473.609C161.321 473.379 160.102 473.034 159.849 472.62C158.86 470.919 160.516 458.664 162.494 457.652C164.472 456.617 173.418 455.951 173.418 455.951C173.418 455.951 176.845 448.087 180.824 435.947C187.056 416.978 194.623 387.639 192.599 361.68C192.599 361.68 212.769 398.767 210.124 412.379V412.402Z" fill="#FFE9CC"/>
<path d="M239.884 471.471C239.884 471.471 235.791 471.655 229.995 471.885C222.152 472.161 211.228 472.505 203.155 472.436C202.673 472.436 202.19 472.436 201.707 472.436C199.89 472.413 198.257 472.368 196.9 472.276C196.371 472.253 195.911 472.207 195.474 472.161C193.496 472 192.346 471.747 192.392 471.379C192.668 469.057 193.841 451.881 202.857 450.133C211.619 448.432 218.726 457.997 219.14 458.549V458.503C218.726 457.33 215.345 441.327 221.784 436.476C231.076 429.463 245.335 435.901 239.862 471.471H239.884Z" fill="#FFE9CC"/>
<path d="M216.886 404.929C215.23 413.506 199.545 441.58 192.047 456.249C196.233 442.408 195.428 418.196 180.778 435.97C187.01 417.001 193.404 386.443 191.38 360.507C191.38 360.507 197.797 362.393 203.178 373.889C208.997 386.305 218.22 397.871 216.863 404.952L216.886 404.929Z" fill="#BB6A2C"/>
<g style="mix-blend-mode:multiply" opacity="0.3">
<path d="M196.9 472.276C196.371 472.253 195.911 472.207 195.474 472.161C195.428 469.815 195.635 466.688 196.601 463.239L197.958 463.653C197.015 466.987 196.854 469.999 196.9 472.276Z" fill="#BB6A2C"/>
<path d="M203.155 472.436C202.672 472.436 202.19 472.436 201.707 472.436C201.293 469.769 201.109 466.251 202.259 463.515L203.569 464.09C202.534 466.596 202.764 469.953 203.155 472.436Z" fill="#BB6A2C"/>
</g>
<path d="M240.045 470.39C239.999 470.758 239.93 471.126 239.884 471.494C239.884 471.494 235.791 471.678 229.995 471.908C230.363 469.884 230.708 467.562 231.03 464.918C233.238 446.753 218.91 432.268 219.163 458.572V458.526C218.749 457.353 215.368 441.35 221.807 436.499C222.589 435.901 223.417 435.418 224.245 435.027C233.261 430.842 244.645 438.729 240.045 470.413V470.39Z" fill="#BB6A2C"/>
<g style="mix-blend-mode:multiply" opacity="0.3">
<path d="M164.495 473.793C163.989 473.747 163.506 473.701 163.069 473.632C162.908 471.218 162.954 467.47 164.127 463.239L165.484 463.63C164.334 467.792 164.334 471.471 164.495 473.77V473.793Z" fill="#BB6A2C"/>
<path d="M170.957 473.977C170.474 473.977 169.991 473.977 169.508 473.977C168.956 471.31 168.381 466.803 169.761 463.469L171.072 464.044C169.784 467.125 170.428 471.494 170.957 473.954V473.977Z" fill="#BB6A2C"/>
</g>
<path d="M222.06 297.921C221.393 303.209 220.221 307.739 218.496 310.705C211.32 322.914 204.144 330.8 187.148 333.674C170.152 336.549 147.429 305.922 147.177 298.013C147.108 295.552 148.004 290.77 149.407 285.114C152.144 274.123 156.836 259.821 159.918 252.786C160.332 251.866 160.7 251.061 161.045 250.417C161.39 249.773 161.781 249.13 162.264 248.463C167.645 240.737 180.755 232 187.148 232C192.99 232 206.26 241.565 213.873 249.245C214.701 250.049 215.437 250.854 216.104 251.613C217.208 252.855 218.174 254.878 219.025 257.43C219.301 258.281 219.577 259.201 219.83 260.166C222.52 270.237 223.532 285.987 222.037 297.898L222.06 297.921Z" fill="#FFE9CC"/>
<path d="M219.853 260.189C214.31 268.996 186.389 264.006 185.676 253.705C184.894 242.347 174.568 241.841 171.992 256.028C171.992 256.028 165.644 255.131 159.941 252.786C160.355 251.866 160.723 251.061 161.068 250.417C161.413 249.773 161.804 249.13 162.287 248.463C167.645 240.737 180.755 232 187.148 232C193.542 232 209.181 243.726 216.104 251.613C217.208 252.855 218.174 254.878 219.025 257.43C219.301 258.281 219.577 259.201 219.83 260.166L219.853 260.189Z" fill="#873B07"/>
<path d="M171.946 315.763C171.831 315.625 169.301 311.969 166.081 300.634L167.346 300.289C170.497 311.371 173.004 314.981 173.027 315.027L171.969 315.786L171.946 315.763Z" fill="#876D4C"/>
<path d="M176.951 313.582C178.195 313.249 179.39 313.001 180.438 312.911L180.549 314.214C175.736 314.645 166.968 318.706 166.885 318.752L166.329 317.567C166.629 317.44 172.153 314.866 176.951 313.582Z" fill="#876D4C"/>
<path d="M171.072 274.905C170.221 276.859 156.307 278.538 149.43 285.137C152.535 272.697 158.101 256.028 161.068 250.44C161.413 249.796 161.804 249.153 162.287 248.486C165.575 248.21 169.278 248.279 170.773 249.613C173.763 252.28 171.969 272.835 171.072 274.905Z" fill="#BB6A2C"/>
<path d="M222.083 297.921C221.761 297.53 221.44 297.093 221.095 296.633C207.111 277.273 178.823 276.376 178.823 274.905C178.823 273.433 183.883 252.28 189.54 248.716C194.968 245.29 205.34 246.807 219.048 257.453C222.313 267.202 223.716 284.861 222.083 297.944V297.921Z" fill="#BB6A2C"/>
<path d="M200.626 263.454C200.626 265.914 198.648 267.892 196.187 267.892C193.726 267.892 191.748 265.914 191.748 263.454C191.748 260.994 193.726 259.017 196.187 259.017C198.648 259.017 200.626 260.994 200.626 263.454Z" fill="#471F04"/>
<g style="mix-blend-mode:multiply" opacity="0.2">
<path d="M222.06 297.921C221.393 303.209 220.221 307.739 218.496 310.705C211.32 322.914 204.144 330.8 187.148 333.674C170.152 336.549 147.429 305.922 147.177 298.013C147.177 298.013 163.851 326.616 182.066 328.317C200.281 330.019 217.07 275.388 214.218 252.349C214.08 251.199 213.965 250.141 213.873 249.222C214.701 250.026 215.437 250.831 216.104 251.59C217.208 252.832 218.174 254.855 219.025 257.407C219.301 258.258 219.577 259.178 219.83 260.143C222.52 270.214 223.532 285.964 222.037 297.875L222.06 297.921Z" fill="#BB6A2C"/>
</g>
<path d="M171.394 263.454C171.394 265.914 169.646 267.892 167.507 267.892C165.369 267.892 163.621 265.914 163.621 263.454C163.621 260.994 165.369 259.017 167.507 259.017C169.646 259.017 171.394 260.994 171.394 263.454Z" fill="#471F04"/>
<path d="M170.98 263.132C170.98 263.822 170.428 264.397 169.715 264.397C169.002 264.397 168.45 263.845 168.45 263.132C168.45 262.42 169.002 261.868 169.715 261.868C170.428 261.868 170.98 262.42 170.98 263.132Z" fill="white"/>
<path d="M198.602 261.868C199.292 261.868 199.867 262.42 199.867 263.132C199.867 263.845 199.315 264.397 198.602 264.397C197.889 264.397 197.337 263.845 197.337 263.132C197.337 262.42 197.889 261.868 198.602 261.868Z" fill="white"/>
<path d="M155.341 288.746C154.237 295.414 164.656 302.036 166.633 302.841C168.611 303.646 179.697 294.931 180.87 289.597C182.066 284.263 155.916 285.206 155.341 288.746Z" fill="#471F04"/>
<path d="M248.923 313.556C245.197 327.627 238.896 343.331 224.774 352.851C210.653 362.37 206.559 354.851 207.686 343.331C208.79 332.111 220.635 270.306 212.355 248.739C212.263 248.486 212.171 248.233 212.056 248.003C211.918 247.681 211.78 247.359 211.642 247.083C211.642 247.083 215.506 244.14 219.209 247.106C234.756 259.545 248.302 289.367 249.429 306.428C249.613 309.187 249.475 311.624 248.946 313.579L248.923 313.556Z" fill="#873B07"/>
<g style="mix-blend-mode:multiply" opacity="0.5">
<path d="M248.923 313.556C245.197 327.627 238.896 343.331 224.774 352.851C210.653 362.37 206.559 354.851 207.686 343.331C208.79 332.111 220.635 270.306 212.355 248.739C220.956 270.306 215.989 329.283 215.989 340.181C215.989 351.08 232.64 346.16 241.609 329.49C246.255 320.844 248.417 312.475 249.429 306.428C249.613 309.187 249.475 311.624 248.946 313.579L248.923 313.556Z" fill="#873B07"/>
</g>
<path d="M157.227 288.976C156.353 291.276 178.501 289.988 178.501 289.988C178.501 289.988 158.078 286.654 157.227 288.976Z" fill="#BB6A2C"/>
<path d="M240.045 470.39C231.605 462.963 240.781 448.524 234.641 445.466C229.167 442.753 222.336 440.2 224.222 435.004C233.238 430.819 244.622 438.706 240.022 470.39H240.045Z" fill="#873B07"/>
<path d="M154.352 423.554C154.95 413.46 155.548 402.998 155.916 395.617C156.1 391.915 156.376 388.421 156.767 385.087C157.963 390.72 161.252 395.847 162.816 403.872C164.541 412.747 157.434 420.565 154.329 423.554H154.352Z" fill="#873B07"/>
</g>
<path fill-rule="evenodd" clip-rule="evenodd" d="M142.501 198.991C150.26 202.659 152.749 213.098 148.633 224.568C147.325 228.195 144.213 227.866 140.771 224.987C137.14 221.9 133.188 215.937 130.691 208.655C128.025 200.768 134.711 195.284 142.501 198.991ZM138.233 201.73C133.876 203.55 134.333 207.788 139.954 216.598L143.224 221.739L143.816 218.302C145.671 207.421 143.092 199.691 138.233 201.73ZM118.474 202.365C123.63 205.703 130.524 217.849 129.874 222.476C129.448 225.501 127.293 225.089 117.116 220.03C109.077 216.033 105.245 213.861 103.745 211.364C98.7657 203.152 110.024 196.895 118.474 202.365ZM109.676 204.54C107.384 207.157 111.176 213.751 116.437 216.341C120.747 218.471 123.728 219.725 123.473 219.217C123.325 218.979 122.426 217.364 121.472 215.634C116.956 207.486 111.536 202.406 109.676 204.54ZM127.643 229.566C135.247 232.014 137.308 237.747 127.499 239.635C125.781 239.974 122.028 241.116 119.159 242.164C110.77 245.304 106.88 244.83 104.166 240.384C102.07 236.968 103.401 232.147 106.331 228.857C113.53 220.76 123.549 228.228 127.643 229.566ZM109.12 230.701C106.946 231.448 106.687 233.807 108.488 236.491C110.92 240.099 113.365 240.261 120.789 237.277L126.172 235.13C125.409 234.877 122.662 234.019 118.12 232.256C113.963 230.583 110.948 230.087 109.12 230.701Z" fill="#FFB076"/>
<defs>
<filter id="filter0_d_663_2070" x="0" y="0" width="444" height="564" filterUnits="userSpaceOnUse" color-interpolation-filters="sRGB">
<feFlood flood-opacity="0" result="BackgroundImageFix"/>
<feColorMatrix in="SourceAlpha" type="matrix" values="0 0 0 0 0 0 0 0 0 0 0 0 0 0 0 0 0 0 127 0" result="hardAlpha"/>
<feOffset dx="20" dy="20"/>
<feGaussianBlur stdDeviation="15"/>
<feComposite in2="hardAlpha" operator="out"/>
<feColorMatrix type="matrix" values="0 0 0 0 0 0 0 0 0 0 0 0 0 0 0 0 0 0 0.08 0"/>
<feBlend mode="normal" in2="BackgroundImageFix" result="effect1_dropShadow_663_2070"/>
<feBlend mode="normal" in="SourceGraphic" in2="effect1_dropShadow_663_2070" result="shape"/>
</filter>
<clipPath id="clip0_663_2070">
<rect width="129" height="242" fill="white" transform="translate(138 232)"/>
</clipPath>
</defs>
</svg>
