<svg width="320" height="476" viewBox="0 0 320 476" fill="none" xmlns="http://www.w3.org/2000/svg">
<g filter="url(#filter0_d_1914_4263)">
<rect x="8" y="8" width="288" height="444" rx="12" fill="white"/>
</g>
<g clip-path="url(#clip0_1914_4263)">
<path d="M124.308 306.384C114.322 327.922 118.537 345.941 130.604 347.176C142.689 348.394 147.936 339.123 149.172 330.714C150.39 322.305 139.71 305.148 139.71 305.148L124.291 306.367L124.308 306.384Z" fill="#7A5555"/>
<path d="M237.777 428L240.857 423.432C240.857 423.432 237.861 397.883 229.652 385.651C222.442 374.924 217.06 364.315 214.893 355.094C214.589 353.825 214.352 352.556 214.166 351.355C213.032 350.966 212.151 350.526 211.491 350.052C203.689 344.384 227.418 333.302 229.449 340.036C230.296 342.862 230.786 345.958 231.176 349.24C231.802 354.435 232.14 360.069 233.173 365.771C233.833 369.476 235.441 373.773 237.201 378.139C239.875 384.737 242.922 391.42 243.65 396.259C244.868 404.279 245.275 428.017 245.275 428.017H237.794L237.777 428Z" fill="#B38D8D"/>
<g style="mix-blend-mode:multiply" opacity="0.2">
<path d="M237.184 378.122C232.614 370.305 222.527 354.925 214.877 355.094C214.572 353.825 214.335 352.556 214.149 351.355C213.015 350.966 212.135 350.526 211.474 350.052C214.098 348.58 219.683 346.144 227.046 346.736C228.535 346.855 229.906 347.768 231.159 349.24C231.785 354.435 232.124 360.069 233.156 365.771C233.816 369.476 235.424 373.773 237.184 378.139V378.122Z" fill="#8C6161"/>
</g>
<path d="M243.734 419.845C240.536 424.345 224.338 417.916 227.977 408.137C225.641 405.362 227.825 401.03 230.77 397.816C233.732 394.584 237.438 392.469 238.081 394.127C238.809 391.708 244.327 391.42 248.203 393.095C250.843 394.212 252.705 396.242 251.825 399.102C257.63 401.217 253.399 420.725 243.734 419.862V419.845Z" fill="#825353"/>
<g style="mix-blend-mode:multiply" opacity="0.3">
<path d="M243.734 419.845C240.536 424.345 224.338 417.916 227.977 408.137C225.641 405.362 227.825 401.03 230.77 397.816C225.997 410.37 238.081 420.691 247.898 411.504C254.719 405.125 249.337 398.831 247.509 398.831C249.709 396.073 249.489 394.347 248.203 393.078C250.843 394.195 252.705 396.225 251.825 399.085C257.63 401.2 253.399 420.708 243.734 419.845Z" fill="#8C6161"/>
</g>
<path d="M187.017 364.485C200.896 365.026 211.644 346.347 226.64 351.338C228.823 361.371 235.593 373.418 244.716 385.651C253.839 397.883 258.781 423.432 258.781 423.432L256.039 428H263.52C263.52 428 261.337 404.279 259.509 396.242C257.681 388.206 249.1 375.076 246.73 365.771C244.361 356.465 243.802 347.345 241.077 340.036C238.335 332.744 231.768 331.458 220.987 331.458C210.205 331.458 200.354 334.385 189.776 333.827C179.181 333.285 187.034 364.485 187.034 364.485H187.017Z" fill="#C4A5A5"/>
<path d="M232.648 333.455C245.613 327.973 241.771 305.893 240.857 304.624C239.943 303.338 242.143 303.169 242.143 303.169C242.143 303.169 250.183 322.694 236.304 334.74C233.748 337.481 232.648 333.455 232.648 333.455Z" fill="#C4A5A5"/>
<path d="M241.416 305.351C238.014 316.078 214.538 303.744 222.984 294.032C218.786 292.56 219.7 283.813 225.353 278.517C228.789 275.303 236.203 274.321 241.703 276.081C245.241 277.214 248 279.499 248.355 283.086C253.822 284.185 252.197 310.833 241.416 305.351Z" fill="#8C6161"/>
<path d="M262.336 418.813C259.475 423.313 242.804 416.884 245.681 407.105C243.125 404.33 244.987 399.998 247.695 396.784C250.403 393.552 253.957 391.437 254.736 393.095C255.278 390.676 260.778 390.388 264.79 392.063C267.515 393.18 269.529 395.21 268.852 398.07C274.81 400.185 272.068 419.693 262.319 418.83L262.336 418.813Z" fill="#8C6161"/>
<g style="mix-blend-mode:multiply" opacity="0.3">
<path d="M262.336 418.813C259.475 423.313 242.804 416.884 245.681 407.105C243.125 404.33 244.987 399.998 247.695 396.784C243.87 409.338 256.733 419.659 265.873 410.472C272.203 404.093 266.364 397.799 264.536 397.799C266.533 395.041 266.178 393.315 264.79 392.046C267.515 393.163 269.529 395.193 268.852 398.053C274.81 400.168 272.068 419.676 262.319 418.813H262.336Z" fill="#8C6161"/>
</g>
<g style="mix-blend-mode:multiply" opacity="0.3">
<path d="M241.416 305.351C238.014 316.078 214.538 303.744 222.984 294.032C221.664 298.584 242.211 303.761 243.87 293.406C249.168 293.745 248.135 281.309 241.703 276.081C245.241 277.215 248 279.499 248.355 283.086C253.822 284.185 252.197 310.833 241.416 305.351Z" fill="#8C6161"/>
</g>
<path d="M150.339 369.408C154.114 364.671 163.135 365.212 163.135 365.212C163.135 365.212 163.457 389.847 162.526 400.066C161.595 410.285 157.567 425.614 156.788 426.9C156.28 427.729 153.877 427.712 152.235 427.594C151.507 427.543 151.203 426.748 151.677 426.088C152.455 425.022 153.505 423.55 154.114 422.501C155.18 420.674 156.331 406.072 156.043 397.494C155.756 388.916 152.455 373.773 150.323 369.391L150.339 369.408Z" fill="#B38D8D"/>
<path d="M156.263 422.873C152.167 426.342 140.116 417.222 146.159 409.016C144.957 406.005 148.139 402.502 151.643 400.151C155.146 397.799 158.972 396.598 159.056 398.239C160.41 396.175 165.251 397.021 168.094 399.322C170.024 400.878 171.039 403.095 169.431 405.531C173.798 408.627 164.354 425.597 156.28 422.856L156.263 422.873Z" fill="#825353"/>
<g style="mix-blend-mode:multiply" opacity="0.3">
<path d="M156.263 422.873C152.167 426.342 140.116 417.222 146.159 409.016C144.957 406.005 148.139 402.502 151.643 400.151C145.228 408.83 151.457 417.578 161.68 414.126C166.537 412.485 167.367 404.82 165.792 404.465C168.501 402.384 168.822 400.76 168.094 399.339C170.024 400.895 171.039 403.112 169.431 405.548C173.798 408.644 164.354 425.614 156.28 422.873H156.263Z" fill="#8C6161"/>
</g>
<path d="M184.461 371.049C181.178 377.8 154.876 383.265 145.939 373.418C143.485 372.724 140.404 369.865 138.305 365.161C137.222 362.725 136.393 359.798 136.054 356.414C135.496 350.797 136.257 343.928 139.355 336.009C139.355 336.009 155.231 322.677 160.715 320.68C165.234 319.022 180.653 319.361 188.083 328.311C189.674 330.223 190.893 332.524 191.57 335.282C192.636 336.771 193.381 338.97 193.787 341.559C195.311 351.017 192.467 365.754 184.444 371.049H184.461Z" fill="#8C6161"/>
<g style="mix-blend-mode:multiply" opacity="0.3">
<path d="M172.546 326.061C172.546 326.061 175.728 345.18 164.591 350.137C153.437 355.111 141.691 347.345 141.691 347.345C141.691 347.345 137.544 350.171 136.071 356.414C135.513 350.797 136.274 343.928 139.372 336.009C139.372 336.009 155.248 322.677 160.732 320.68C165.251 319.022 180.67 319.361 188.1 328.311C180.907 323.489 172.546 326.061 172.546 326.061Z" fill="#8C6161"/>
</g>
<g style="mix-blend-mode:multiply" opacity="0.3">
<path d="M184.461 371.049C181.178 377.8 154.875 383.265 145.939 373.418C143.485 372.724 140.404 369.865 138.305 365.161C144.297 371.083 154.689 370.745 159.801 364.265C162.187 367.649 177.319 366.447 182.904 357.497C186.831 360.576 192.839 351.897 193.804 341.559C195.327 351.017 192.484 365.754 184.461 371.049Z" fill="#8C6161"/>
</g>
<path d="M122.717 283.339C119.772 291.122 122.074 300.326 122.074 300.326C122.074 300.326 105.978 302.492 97.9211 300.834C89.8646 299.176 89.4922 307.094 100.866 308.617C112.24 310.157 123.36 306.823 129.86 310.157C136.376 313.473 138.678 322.423 138.678 322.423C138.678 322.423 148.004 296.113 145.956 286.402C143.908 276.69 122.7 283.339 122.7 283.339H122.717Z" fill="#C4A5A5"/>
<path d="M90.0001 300.716C89.8986 302.577 99.1907 303.406 100.612 301.866C102.034 300.326 90.3894 294.202 90.0001 300.716Z" fill="#5E3B3B"/>
<path d="M186.865 300.106C180.382 317.297 167.959 317.093 167.959 317.093L163.287 311.493L143.129 287.298C138.932 290.733 121.549 286.165 120.788 284.625C118.689 287.485 106.265 273.56 114.864 263.053C121.363 240.736 147.919 244.171 154.029 247.233C165.454 248.773 173.578 252.631 179.164 257.723C192.145 269.567 191.435 288.111 186.882 300.106H186.865Z" fill="#8C6161"/>
<g style="mix-blend-mode:multiply" opacity="0.3">
<path d="M186.865 300.106C180.382 317.297 167.959 317.093 167.959 317.093L163.288 311.493C162.492 301.071 162.577 286.842 162.577 286.842C167.35 290.022 169.533 295.606 170.345 299.176C170.582 299.328 170.802 299.48 171.006 299.633C175.389 302.847 181.635 301.291 183.666 296.249C185.392 291.985 186.679 286.317 186.459 279.059C186.171 269.432 182.65 262.393 179.13 257.69C192.112 269.533 191.401 288.077 186.848 300.073L186.865 300.106Z" fill="#8C6161"/>
</g>
<path d="M134.717 294.844C134.717 296.892 133.566 298.55 132.162 298.55C130.757 298.55 129.606 296.892 129.606 294.844C129.606 292.797 130.757 291.139 132.162 291.139C133.566 291.139 134.717 292.797 134.717 294.844Z" fill="#5E3B3B"/>
<path d="M134.26 294.811C134.26 295.538 133.837 296.13 133.329 296.13C132.822 296.13 132.398 295.538 132.398 294.811C132.398 294.083 132.822 293.491 133.329 293.491C133.837 293.491 134.26 294.083 134.26 294.811Z" fill="white"/>
<path d="M123.986 294.844C123.986 296.892 123.14 298.55 122.091 298.55C121.041 298.55 120.195 296.892 120.195 294.844C120.195 292.797 121.041 291.139 122.091 291.139C123.14 291.139 123.986 292.797 123.986 294.844Z" fill="#5E3B3B"/>
<path d="M123.445 294.811C123.445 295.538 123.14 296.13 122.751 296.13C122.362 296.13 122.057 295.538 122.057 294.811C122.057 294.083 122.362 293.491 122.751 293.491C123.14 293.491 123.445 294.083 123.445 294.811Z" fill="white"/>
<path d="M143.129 287.315C136.444 301.629 137.391 310.038 138.542 310.799C131.857 334.284 134.92 347.261 154.012 348.022C173.104 348.783 170.819 327.025 168.907 325.113C173.494 319.191 168.907 300.682 167.383 298.381C168.145 295.521 166.622 290.547 163.761 287.112C160.901 283.678 145.431 281.191 143.129 287.298V287.315Z" fill="#8C6161"/>
<path d="M163.101 369.408C172.292 370.609 176.032 367.682 176.032 367.682C176.032 367.682 177.268 389.847 176.845 400.083C176.439 410.302 173.172 425.631 172.461 426.917C172.004 427.746 169.584 427.729 167.942 427.611C167.197 427.56 166.859 426.765 167.316 426.105C168.044 425.039 169.008 423.567 169.567 422.518C170.532 420.691 170.955 406.089 170.244 397.511C169.533 388.933 165.454 373.79 163.101 369.408Z" fill="#C4A5A5"/>
<path d="M171.716 422.873C167.807 426.342 155.282 417.222 160.901 409.016C159.547 406.005 162.56 402.502 165.928 400.151C169.313 397.799 173.087 396.598 173.24 398.239C174.475 396.175 179.367 397.021 182.329 399.322C184.343 400.878 185.46 403.095 183.971 405.531C188.49 408.627 179.908 425.597 171.7 422.856L171.716 422.873Z" fill="#8C6161"/>
<g style="mix-blend-mode:multiply" opacity="0.3">
<path d="M171.716 422.873C167.807 426.342 155.282 417.222 160.901 409.016C159.547 406.005 162.56 402.502 165.928 400.151C159.953 408.83 166.622 417.578 176.659 414.126C181.432 412.485 181.872 404.82 180.281 404.465C182.887 402.384 183.124 400.76 182.329 399.339C184.343 400.895 185.46 403.112 183.971 405.548C188.49 408.644 179.908 425.614 171.7 422.873H171.716Z" fill="#8C6161"/>
</g>
</g>
<path d="M182.514 225.191C180.041 220.994 181.505 216.042 182.604 212.502C186.829 199.006 192.54 186.444 194.359 181.162C196.539 174.92 198.769 172.644 201.432 171.3C203.081 170.451 202.803 169.421 200.973 169.484C198.863 169.571 197.332 170.34 195.391 173.349C190.439 181.079 180.491 208.308 178.548 216.139C177.468 220.5 178.512 224.385 181.235 226.017C183.063 227.188 183.498 226.886 182.514 225.191Z" fill="#FFB076"/>
<path d="M191.387 212.029C190.394 210.361 190.339 210.432 195.691 207.844C205.734 203.013 214.284 200.592 219.114 210.725C221.057 214.8 221.415 215.948 222.544 221.25C222.819 222.551 222.608 222.99 221.91 222.479C221.283 222.022 201.173 214.947 195.36 213.096C192.782 212.268 193.163 213.786 194.905 214.506C199.258 216.307 211.095 220.533 219.193 223.804C226.276 226.695 230.993 229.012 234.864 229.501C242.174 230.421 240.104 229.165 247.473 212.141C249.576 207.258 252.433 198.174 252.283 196.947C251.43 191.107 240.61 185.151 220.236 179.281C213.109 177.219 208.584 176.354 208.361 177.001C208.036 177.944 211.332 179.229 220.814 181.892C227.465 183.76 230.545 184.881 238.092 188.263C245.405 191.535 249.402 193.845 249.931 195.112C250.82 197.257 250.803 198.005 249.819 199.987C248.569 202.48 245.69 210.14 245.172 211.469L244.809 209.987C242.021 198.387 230.754 195.743 218.39 203.814L217.419 204.444L216.132 203.368C211.001 199.009 201.979 200.002 193.304 205.937L190.672 207.714L191.004 206.05C191.345 204.359 195.312 193.276 199.234 183.112C201.574 177.015 201.929 176.685 203.887 176.515C205.249 176.411 205.464 175.611 204.116 175.147C202.203 174.489 201.115 175.109 199.518 177.121C196.844 180.51 187.501 203.005 187.878 208.651C188.018 210.869 188.493 212.118 190.107 212.945C191.747 213.871 192.238 213.497 191.387 212.029ZM219.201 206.535C219.455 206.321 229.296 202.777 230.48 202.491C233.714 201.676 237.474 202.488 239.744 204.475C241.316 205.861 242.212 207.375 243.016 209.852C244.266 213.839 244.268 213.659 242.556 217.229C241.728 218.934 240.495 221.553 239.804 223.034C237.17 228.758 236.446 228.147 224.436 223.107L223.931 220.371C223.41 217.509 221.982 213.34 220.067 209.184C219.477 207.836 219.047 206.633 219.201 206.535Z" fill="#FFB076"/>
<path d="M257.394 200.486C259.633 197.398 258.615 190.989 252.719 187.452C248.902 185.143 240.379 182.058 217.461 173.684C214.057 172.452 210.087 171.115 208.631 170.704C205.952 169.992 204.924 170 205.422 170.744C206.097 171.76 208.996 172.97 221.992 177.595C253.696 188.904 256.125 190.253 256.336 196.293C256.37 197.42 249.899 215.689 247.844 220.256C246.756 222.715 244.642 227.804 243.18 231.611C238.935 242.628 237.089 244.224 231.552 241.835C228.878 240.673 210.225 234.792 195.653 230.016C180.623 225.082 185.39 228.833 187.668 229.919C196.272 233.997 234.121 245.492 237.984 244.953C245.601 243.929 257.166 200.799 257.394 200.486Z" fill="#FFB076"/>
<path d="M212.536 182.297C204.827 182.627 203.965 193.271 211.438 195.815C216.891 197.662 222.754 191.753 220.305 187.835C219.222 186.076 218.773 186.856 218.819 188.56C218.972 193.194 213.012 196.146 209.421 192.92C205.615 189.529 211.596 183.541 216.958 185.387L217.946 185.757C218.637 186.025 219.196 185.103 218.642 184.61C217.365 183.417 214.556 182.209 212.536 182.297Z" fill="#FFB076"/>
<path d="M37.552 46.616C34.848 46.616 32.816 44.392 32.816 39.912C32.816 35.432 34.848 33.208 37.552 33.208C40.24 33.208 42.272 35.432 42.272 39.912C42.272 44.392 40.24 46.616 37.552 46.616ZM37.552 45.128C39.28 45.128 40.656 43.4 40.656 39.912C40.656 36.44 39.28 34.696 37.552 34.696C35.808 34.696 34.432 36.44 34.432 39.912C34.432 43.4 35.808 45.128 37.552 45.128ZM47.8458 46.616C45.0938 46.616 43.3978 44.952 43.3018 42.712H44.9658C45.0138 44.088 46.0378 45.16 47.8458 45.16C49.6378 45.16 50.7098 44.136 50.7098 42.856C50.7098 41.416 49.5578 40.568 47.6218 40.568H46.2138V39.176H47.6218C49.2538 39.176 50.3578 38.248 50.3578 36.92C50.3578 35.672 49.3658 34.648 47.6698 34.648C45.9418 34.648 44.9978 35.864 44.9978 37.224H43.3178C43.3178 34.968 45.0458 33.208 47.6698 33.208C50.3098 33.208 52.0218 34.856 52.0218 36.872C52.0218 38.44 50.9178 39.528 49.7338 39.816C51.0298 40.056 52.3578 41.064 52.3578 42.84C52.3578 44.984 50.5338 46.616 47.8458 46.616Z" fill="#9D9D9D"/>
<path d="M46.634 62.0401V67.0401H49.0235V69.0912H46.634V75.1271H44.134V62.0401H46.634ZM33.0566 72.2956V63.297H35.529V65.8729H39.1754V63.297H41.6616V72.2956H33.0566ZM35.1008 79.4917V73.7873H37.587V77.482H47.2693V79.4917H35.1008ZM35.529 70.3412H39.1754V67.7859H35.529V70.3412ZM64.1893 62.0124V79.8439H61.71V72.6616H58.6713V70.6243H61.71V67.8204H58.7197V65.797H61.71V62.0124H64.1893ZM49.797 65.4862V63.5041H57.7874V70.3343H52.3247V73.8149C54.5208 73.7942 56.4614 73.6837 58.699 73.3522L58.8992 75.3895C56.2404 75.8039 53.9752 75.8591 51.2404 75.8591H49.8385V68.4006H55.3426V65.4862H49.797ZM82.1452 70.4102V72.3854H65.9021V70.4102H72.8082V68.8909H67.8634V62.8066H80.1977V64.7472H70.3496V66.9365H80.2874V68.8909H75.2529V70.4102H82.1452ZM67.7529 76.5566C67.7529 74.4434 70.0941 73.2693 73.9753 73.2693C77.8358 73.2693 80.1562 74.4434 80.17 76.5566C80.1562 78.6354 77.8358 79.8163 73.9753 79.8232C70.0941 79.8163 67.7529 78.6354 67.7529 76.5566ZM70.2943 76.5566C70.2805 77.482 71.5167 77.924 73.9753 77.9171C76.3924 77.924 77.6631 77.482 77.67 76.5566C77.6631 75.6381 76.3924 75.1685 73.9753 75.1685C71.5167 75.1685 70.2805 75.6381 70.2943 76.5566ZM98.8027 69.0843V71.0387H91.9104V72.1782H96.8207V76.7293H86.9173V77.7997H97.2834V79.6782H84.4726V74.9751H94.3621V74.0566H84.4588V72.1782H89.4104V71.0387H82.5872V69.0843H98.8027ZM84.59 68.145V62.5442H96.7447V68.145H84.59ZM87.0348 66.2182H94.2516V64.471H87.0348V66.2182ZM109.259 63.7942V65.2238C109.252 66.895 109.252 69.0843 108.775 72.0401L106.323 71.8467C106.731 69.2638 106.772 67.3577 106.779 65.7831H100.046V63.7942H109.259ZM99.1136 74.1809C100.115 74.174 101.22 74.1671 102.38 74.1395V68.8909H104.832V74.0635C106.579 73.9876 108.354 73.8633 109.991 73.6561L110.136 75.5C106.489 76.1215 102.463 76.1837 99.3484 76.1699L99.1136 74.1809ZM110.826 79.8025V62.0124H113.34V69.1602H115.764V71.2459H113.34V79.8025H110.826ZM121.703 63.2072C124.535 63.2072 126.627 65.0235 126.641 67.5718C126.627 70.1271 124.535 71.9365 121.703 71.9365C118.906 71.9365 116.766 70.1271 116.772 67.5718C116.766 65.0235 118.906 63.2072 121.703 63.2072ZM116.034 74.1809C119.203 74.1809 123.596 74.1395 127.401 73.6077L127.587 75.4033C123.651 76.1699 119.431 76.2044 116.317 76.2044L116.034 74.1809ZM119.245 67.5718C119.245 68.9807 120.308 69.7818 121.703 69.7818C123.126 69.7818 124.203 68.9807 124.21 67.5718C124.203 66.1837 123.133 65.3619 121.703 65.3619C120.301 65.3619 119.245 66.1837 119.245 67.5718ZM128.409 79.8439V62.0124H130.888V79.8439H128.409Z" fill="#2B2B2B"/>
<path d="M48.7472 102.662V104.699H41.8481V109.816H39.3757V104.699H32.5318V102.662H48.7472ZM33.3467 99.768C37.0276 99.3398 39.0373 97.6064 39.3343 96.0318H33.9959V94.0704H39.3757V92.0401H41.8481V94.0704H47.2555V96.0318H41.9102C42.2072 97.5856 44.203 99.3398 47.8771 99.768L46.9793 101.722C43.9682 101.37 41.7928 100.134 40.6326 98.518C39.4724 100.148 37.2831 101.363 34.2514 101.722L33.3467 99.768ZM64.1962 103.345V109.816H61.71V105.32H51.9794V103.345H64.1962ZM49.4379 97.3232C49.4241 94.7956 51.4752 92.9586 54.1686 92.9724C56.4545 92.9586 58.2846 94.326 58.7542 96.3218H61.71V92.0124H64.1962V102.53H61.71V98.366H58.7473C58.2708 100.383 56.4476 101.743 54.1686 101.743C51.4752 101.743 49.4241 99.8992 49.4379 97.3232ZM51.7998 97.3232C51.7998 98.7735 52.8288 99.6229 54.1686 99.6298C55.4807 99.6229 56.489 98.7735 56.5028 97.3232C56.489 95.9351 55.4807 95.0718 54.1686 95.0718C52.8288 95.0718 51.7998 95.9351 51.7998 97.3232ZM73.996 92.2749C78.0913 92.2749 80.4532 93.3453 80.4601 95.2997C80.4532 97.2887 78.0913 98.3522 73.996 98.3522C69.8938 98.3522 67.5181 97.2887 67.525 95.2997C67.5181 93.3453 69.8938 92.2749 73.996 92.2749ZM65.9021 101.17V99.1948H82.1176V101.17H65.9021ZM67.7736 104.022V102.192H80.1355V106.729H70.2322V107.8H80.5982V109.678H67.7874V104.989H77.6769V104.022H67.7736ZM70.1355 95.2997C70.1217 96.1768 71.3924 96.5152 73.996 96.5221C76.6341 96.5152 77.891 96.1768 77.891 95.2997C77.891 94.5193 76.6341 94.0912 73.996 94.0981C71.3924 94.0912 70.1217 94.5193 70.1355 95.2997ZM91.5897 93.6492V95.6519H89.4557V103.318C90.1947 103.29 90.8369 103.221 91.5552 103.069L91.8038 105.106C90.5538 105.362 89.511 105.376 87.8742 105.376H87.0041V93.6492H91.5897ZM92.4392 105.376V93.6492H97.3079V95.6519H94.9322V103.338C96.0856 103.318 96.9281 103.249 97.8673 103.035L98.0607 105.023C96.6933 105.355 95.5538 105.376 93.4336 105.376H92.4392ZM96.5828 100.231V98.2348H99.3038V92.0124H101.783V109.802H99.3038V100.231H96.5828ZM111.376 92.1782C115.471 92.1851 117.833 93.2555 117.84 95.2169C117.833 96.9848 115.927 98.0276 112.57 98.221V99.25H119.497V101.218H103.282V99.25H110.105V98.221C106.79 98.0138 104.898 96.971 104.905 95.2169C104.898 93.2555 107.273 92.1851 111.376 92.1782ZM105.153 104.05V102.192H117.515V106.729H107.612V107.8H117.978V109.678H105.167V104.996H115.057V104.05H105.153ZM107.515 95.2169C107.501 96.0801 108.772 96.4323 111.376 96.4323C114.014 96.4323 115.271 96.0801 115.271 95.2169C115.271 94.4157 114.014 94.0221 111.376 94.0152C108.772 94.0221 107.501 94.4157 107.515 95.2169ZM134.856 92.0124V109.844H132.377V92.0124H134.856ZM120.906 95.5207V93.511H129.352V100.362H123.489V103.628C126.21 103.608 128.51 103.463 131.106 103.028L131.321 105.051C128.406 105.569 125.768 105.68 122.515 105.68H120.92V98.4006H126.811V95.5207H120.906ZM151.583 92.0124V109.802H149.062V92.0124H151.583ZM136.707 104.768C141.293 102.593 143.316 99.7887 143.717 95.8384H137.66V93.884H146.258C146.252 99.2707 144.359 103.753 138.006 106.75L136.707 104.768Z" fill="#FF8A33"/>
<defs>
<filter id="filter0_d_1914_4263" x="0" y="0" width="320" height="476" filterUnits="userSpaceOnUse" color-interpolation-filters="sRGB">
<feFlood flood-opacity="0" result="BackgroundImageFix"/>
<feColorMatrix in="SourceAlpha" type="matrix" values="0 0 0 0 0 0 0 0 0 0 0 0 0 0 0 0 0 0 127 0" result="hardAlpha"/>
<feOffset dx="8" dy="8"/>
<feGaussianBlur stdDeviation="8"/>
<feComposite in2="hardAlpha" operator="out"/>
<feColorMatrix type="matrix" values="0 0 0 0 0 0 0 0 0 0 0 0 0 0 0 0 0 0 0.12 0"/>
<feBlend mode="normal" in2="BackgroundImageFix" result="effect1_dropShadow_1914_4263"/>
<feBlend mode="normal" in="SourceGraphic" in2="effect1_dropShadow_1914_4263" result="shape"/>
</filter>
<clipPath id="clip0_1914_4263">
<rect width="182" height="183" fill="white" transform="matrix(-1 0 0 1 272 245)"/>
</clipPath>
</defs>
</svg>
