<svg width="320" height="476" viewBox="0 0 320 476" fill="none" xmlns="http://www.w3.org/2000/svg">
<g filter="url(#filter0_d_1281_4085)">
<rect x="8" y="8" width="288" height="444" rx="12" fill="white"/>
</g>
<path d="M37.552 46.616C34.848 46.616 32.816 44.392 32.816 39.912C32.816 35.432 34.848 33.208 37.552 33.208C40.24 33.208 42.272 35.432 42.272 39.912C42.272 44.392 40.24 46.616 37.552 46.616ZM37.552 45.128C39.28 45.128 40.656 43.4 40.656 39.912C40.656 36.44 39.28 34.696 37.552 34.696C35.808 34.696 34.432 36.44 34.432 39.912C34.432 43.4 35.808 45.128 37.552 45.128ZM49.4938 46.328V43.432H43.0298V42.008L49.1098 33.512H51.0938V42.008H53.1898V43.432H51.0938V46.328H49.4938ZM44.7578 42.008H49.4938V35.352L44.7578 42.008Z" fill="#9D9D9D"/>
<path d="M46.634 62.0401V67.0401H49.0235V69.0912H46.634V75.1271H44.134V62.0401H46.634ZM33.0566 72.2956V63.297H35.529V65.8729H39.1754V63.297H41.6616V72.2956H33.0566ZM35.1008 79.4917V73.7873H37.587V77.482H47.2693V79.4917H35.1008ZM35.529 70.3412H39.1754V67.7859H35.529V70.3412ZM64.1893 62.0124V79.8439H61.71V72.6616H58.6713V70.6243H61.71V67.8204H58.7197V65.797H61.71V62.0124H64.1893ZM49.797 65.4862V63.5041H57.7874V70.3343H52.3247V73.8149C54.5208 73.7942 56.4614 73.6837 58.699 73.3522L58.8992 75.3895C56.2404 75.8039 53.9752 75.8591 51.2404 75.8591H49.8385V68.4006H55.3426V65.4862H49.797ZM82.1452 70.4102V72.3854H65.9021V70.4102H72.8082V68.8909H67.8634V62.8066H80.1977V64.7472H70.3496V66.9365H80.2874V68.8909H75.2529V70.4102H82.1452ZM67.7529 76.5566C67.7529 74.4434 70.0941 73.2693 73.9753 73.2693C77.8358 73.2693 80.1562 74.4434 80.17 76.5566C80.1562 78.6354 77.8358 79.8163 73.9753 79.8232C70.0941 79.8163 67.7529 78.6354 67.7529 76.5566ZM70.2943 76.5566C70.2805 77.482 71.5167 77.924 73.9753 77.9171C76.3924 77.924 77.6631 77.482 77.67 76.5566C77.6631 75.6381 76.3924 75.1685 73.9753 75.1685C71.5167 75.1685 70.2805 75.6381 70.2943 76.5566ZM98.8027 69.0843V71.0387H91.9104V72.1782H96.8207V76.7293H86.9173V77.7997H97.2834V79.6782H84.4726V74.9751H94.3621V74.0566H84.4588V72.1782H89.4104V71.0387H82.5872V69.0843H98.8027ZM84.59 68.145V62.5442H96.7447V68.145H84.59ZM87.0348 66.2182H94.2516V64.471H87.0348V66.2182ZM114.148 62.0124V79.8439H111.627V62.0124H114.148ZM99.7903 69.5953C99.7834 65.7279 101.772 63.2693 104.493 63.2693C107.18 63.2693 109.169 65.7279 109.176 69.5953C109.169 73.5041 107.18 75.9489 104.493 75.9489C101.772 75.9489 99.7834 73.5041 99.7903 69.5953ZM102.201 69.5953C102.187 72.2541 103.112 73.6906 104.493 73.6906C105.847 73.6906 106.765 72.2541 106.765 69.5953C106.765 66.9641 105.847 65.5207 104.493 65.5207C103.112 65.5207 102.187 66.9641 102.201 69.5953ZM135.292 62.0124V79.8025H132.895V70.9075H131.231V78.9323H128.896V62.3232H131.231V68.8909H132.895V62.0124H135.292ZM120.678 75.4586V63.9876H123.178V73.2831C124.608 73.2417 126.175 73.1174 127.888 72.7859L128.137 74.9337C125.768 75.3481 123.731 75.4655 121.887 75.4586H120.678ZM152.053 62.0124V79.8025H149.705V62.0124H152.053ZM136.431 74.3467C140.022 72.2127 141.611 69.6229 141.942 66.1354H137.412V64.1326H144.421C144.415 65.8246 144.235 67.413 143.807 68.8771H145.934V62.4199H148.268V79.0083H145.934V70.8522H143.033C142.018 72.8826 140.368 74.6436 137.84 76.0939L136.431 74.3467Z" fill="#2B2B2B"/>
<path d="M162.243 63.2693C164.639 63.2693 166.435 65.2445 166.78 68.442H169.874V62.0124H172.34V79.8439H169.874V70.4378H166.808C166.552 73.8494 164.715 75.9489 162.243 75.9489C159.543 75.9489 157.616 73.5041 157.623 69.5953C157.616 65.7279 159.543 63.2693 162.243 63.2693ZM160.012 69.5953C160.005 72.2541 160.917 73.6906 162.243 73.6906C163.583 73.6906 164.474 72.2541 164.481 69.5953C164.474 66.9641 163.583 65.5207 162.243 65.5207C160.917 65.5207 160.005 66.9641 160.012 69.5953ZM189.64 77.482V79.4917H176.801V73.7942H179.301V77.482H189.64ZM174.322 72.3854V63.3591H178.977V65.3619H176.746V70.3757C177.533 70.3343 178.258 70.2514 179.087 70.0718L179.273 72.0884C177.865 72.3923 176.767 72.3854 175.185 72.3854H174.322ZM179.833 72.3854V63.3591H184.826V65.3619H182.298V70.3895C183.562 70.355 184.349 70.2652 185.24 70.0511L185.461 72.0677C184.177 72.3508 183.134 72.3854 180.8 72.3854H179.833ZM184.267 68.7251V66.7224H186.718V62.0401H189.17V74.8854H186.718V68.7251H184.267ZM38.2776 93.2072C41.1091 93.2072 43.2017 95.0235 43.2155 97.5718C43.2017 100.127 41.1091 101.936 38.2776 101.936C35.4807 101.936 33.3398 100.127 33.3467 97.5718C33.3398 95.0235 35.4807 93.2072 38.2776 93.2072ZM32.6077 104.181C35.7776 104.181 40.1699 104.14 43.9751 103.608L44.1616 105.403C40.2251 106.17 36.0055 106.204 32.8909 106.204L32.6077 104.181ZM35.8191 97.5718C35.8191 98.9807 36.8826 99.7818 38.2776 99.7818C39.7003 99.7818 40.7776 98.9807 40.7845 97.5718C40.7776 96.1837 39.7072 95.3619 38.2776 95.3619C36.8757 95.3619 35.8191 96.1837 35.8191 97.5718ZM44.9834 109.844V92.0124H47.4627V109.844H44.9834ZM58.6852 93.6354V105.562H50.1009V93.6354H58.6852ZM52.5802 103.587H56.268V95.576H52.5802V103.587ZM61.5719 109.844V92.0124H64.0926V109.844H61.5719ZM72.5941 103.401C72.5872 104.851 73.1811 106.343 74.6383 107.351C76.0954 106.28 76.6963 104.713 76.7101 103.401V102.62H79.1617V103.401C79.1617 105.244 80.1355 107.006 82.5595 107.738L81.2957 109.575C79.6037 108.988 78.4988 107.896 77.891 106.515C77.2971 107.89 76.2543 109.098 74.6383 109.733C73.0084 109.133 71.9656 107.972 71.3855 106.591C70.7501 107.917 69.659 108.994 68.043 109.575L66.8344 107.738C69.1756 106.964 70.1631 105.155 70.17 103.401V102.62H72.5941V103.401ZM66.1162 97.1851C66.1093 94.6851 68.1466 92.8688 70.8537 92.8688C72.2211 92.8688 73.4366 93.3591 74.2861 94.1809H78.3952V92.0124H80.8814V101.985H78.3952V100.099H74.3482C73.4919 100.949 72.2557 101.46 70.8537 101.46C68.1466 101.46 66.1093 99.6644 66.1162 97.1851ZM68.5057 97.1851C68.4988 98.5594 69.4932 99.3743 70.8537 99.3743C72.1866 99.3743 73.1742 98.5594 73.1811 97.1851C73.1742 95.8039 72.1866 94.9613 70.8537 94.9544C69.4932 94.9613 68.4988 95.8039 68.5057 97.1851ZM75.4325 96.163C75.5084 96.4876 75.5568 96.826 75.5568 97.1851C75.5568 97.5028 75.5222 97.8135 75.4532 98.1036H78.3952V96.163H75.4325ZM97.0209 96.8743V98.8287H84.6038V92.6478H87.0831V96.8743H97.0209ZM82.5665 102.682V100.728H98.8234V102.682H82.5665ZM84.4381 109.409V104.14H86.9312V107.406H97.1314V109.409H84.4381ZM106.151 96.8605C106.151 99.7403 107.636 102.814 110.612 104.05L109.272 106.004C107.173 105.12 105.73 103.352 104.928 101.198C104.127 103.539 102.656 105.486 100.557 106.446L99.1412 104.492C102.083 103.173 103.609 99.8785 103.616 96.8605V95.7693H99.8387V93.732H109.873V95.7693H106.151V96.8605ZM111.627 109.802V92.0124H114.148V109.802H111.627ZM130.54 99.2431V101.246H127.094V104.167C128.558 104.105 130.022 104.008 131.41 103.863L131.597 105.673C127.716 106.273 123.675 106.301 120.326 106.301L120.043 104.271C121.459 104.278 123.006 104.271 124.601 104.243V101.246H121.21V93.6008H130.457V95.576H123.682V99.2431H130.54ZM132.419 109.844V92.0124H134.898V109.844H132.419ZM142.426 96.4323C142.419 99.4848 143.261 102.378 145.768 103.704L144.304 105.68C142.764 104.83 141.776 103.401 141.189 101.64C140.554 103.601 139.477 105.244 137.874 106.198L136.321 104.381C138.986 102.793 139.995 99.6229 140.002 96.6119V93.5456H142.426V96.4323ZM145.782 108.981V92.2887H148.137V98.953H149.67V92.0124H152.053V109.802H149.67V100.949H148.137V108.981H145.782ZM168.268 92.0124V109.802H165.747V92.0124H168.268ZM153.392 104.768C157.978 102.593 160.002 99.7887 160.402 95.8384H154.346V93.884H162.944C162.937 99.2707 161.044 103.753 154.691 106.75L153.392 104.768ZM184.953 92.0124V109.802H182.433V92.0124H184.953ZM170.078 104.768C174.663 102.593 176.687 99.7887 177.087 95.8384H171.031V93.884H179.629C179.622 99.2707 177.73 103.753 171.376 106.75L170.078 104.768Z" fill="#FF8A33"/>
<g clip-path="url(#clip0_1281_4085)">
<path d="M180.893 253.702C190.422 245.155 197.893 249.674 198.878 263.435C199.862 277.195 196.417 279.075 196.417 279.075L180.893 253.702Z" fill="#E6A563"/>
<path d="M182.974 258.512C190.534 250.748 195.947 256.342 195.455 268.156C194.963 279.947 182.974 258.512 182.974 258.512Z" fill="#F8D3A4"/>
<path d="M271.978 319.371C271.799 324.495 269.584 329.798 263.925 333.624C263.925 333.624 232.162 303.374 226.145 300.017C220.128 296.661 216.616 289.815 224.646 288.315C219.3 283.639 220.978 275.45 239.185 284.31C234.667 278.135 242.541 273.28 256.566 283.818C254.888 279.142 270.949 287.667 266.251 304.873C269.517 307.513 272.201 313.285 271.978 319.371Z" fill="#FFE6C5"/>
<path d="M271.978 319.371C271.799 324.495 269.584 329.798 263.925 333.624C263.925 333.624 232.162 303.374 226.145 300.017C220.128 296.661 216.616 289.815 224.646 288.315C220.799 282.297 233.683 284.803 240.192 294.826C241.199 285.474 255.738 295.833 259.25 306.372C261.062 300.062 270.725 309.706 271.978 319.371Z" fill="#EFB36E"/>
<path d="M120.186 363.069C120.186 380.969 131.728 421.422 131.728 421.422C131.728 421.422 128.551 425.091 129.222 426.948C129.893 428.805 142.42 427.955 143.27 426.613C144.097 425.27 150.964 394.684 150.964 394.684L123.049 363.584L120.208 363.091L120.186 363.069Z" fill="#E6A563"/>
<path d="M225.832 383.944C226.011 384.459 232.207 404.641 232.05 407.236C231.871 409.832 224.803 425.181 223.595 426.21C222.387 427.239 208.071 427.754 207.892 426.389C207.713 425.024 212.545 421.914 213.238 420.706C213.932 419.498 215.654 412.606 215.475 408.624C215.296 404.641 200.824 389.314 200.824 389.314L225.832 383.967V383.944Z" fill="#E6A563"/>
<path d="M264.44 396.004C263.612 403.701 265.111 421.265 262.27 424.442C259.429 427.62 245.382 427.776 245.046 426.277C244.711 424.778 248.401 420.93 248.401 420.93C248.401 420.93 250.571 416.925 248.58 411.398C246.567 405.872 231.536 385.488 231.536 385.488C231.536 385.488 224.02 391.171 219.658 389.18C218.651 391.015 216.303 392.178 211.986 390.858C209.503 392.268 202.792 394.103 195.813 391.373C193.778 400.882 188.409 425.561 187.738 426.658C186.911 427.978 174.362 428.828 173.713 426.993C173.042 425.158 176.218 421.467 176.218 421.467C176.218 421.467 169.329 397.28 166.197 378.038C165.28 372.399 164.699 367.186 164.699 363.136L167.07 363.561C170.85 351.479 189.595 294.916 209.011 296.102C230.753 297.444 243.615 305.79 243.615 305.79C243.615 305.79 242.943 301.606 246.791 303.776C249.632 305.387 260.749 317.291 265.513 327.113C267.191 330.603 268.086 333.803 267.526 336.219C269.875 334.049 272.38 343.402 269.361 358.952C274.886 355.775 265.357 388.375 264.507 396.049L264.44 396.004Z" fill="#EFB36E"/>
<g style="mix-blend-mode:multiply" opacity="0.3">
<path d="M264.439 396.004C263.612 403.701 265.111 421.265 262.27 424.442C259.429 427.62 245.382 427.776 245.046 426.277C244.711 424.778 248.401 420.93 248.401 420.93C248.401 420.93 250.571 416.925 248.58 411.398C246.567 405.872 231.536 385.488 231.536 385.488C231.536 385.488 224.02 391.171 219.658 389.18C218.651 391.015 216.303 392.178 211.986 390.858C209.503 392.268 202.792 394.103 195.813 391.373C193.778 400.882 188.409 425.561 187.738 426.658C186.911 427.978 174.362 428.828 173.713 426.993C173.042 425.158 176.218 421.467 176.218 421.467C176.218 421.467 169.329 397.28 166.197 378.038L173.02 377.501C173.02 377.501 172.751 402.001 176.889 401.732C179.976 409.742 186.418 408.691 188.499 400.972C192.883 402.247 195.97 387.547 195.455 373.384C200.6 384.459 208.608 369.781 209.368 368.752C212.97 372.108 213.238 367.454 213.507 365.911C228.986 373.384 240.818 365.642 241.87 362.554C240.326 373.384 240.326 386.54 241.87 385.511C245.225 394.528 249.095 397.369 251.667 395.557C252.964 404.059 257.08 404.059 257.863 400.457C260.95 402.515 266.363 366.425 264.551 357.654C266.878 359.981 267.392 338.054 264.82 333.937C265.938 334.899 266.676 331.588 265.513 327.113C267.191 330.603 268.086 333.803 267.526 336.219C269.875 334.049 272.38 343.402 269.361 358.952C274.886 355.775 265.357 388.375 264.507 396.049L264.439 396.004Z" fill="#EFB36E"/>
</g>
<path d="M210.666 336.175C198.922 374.748 187.76 373.249 187.76 373.249C187.76 373.249 181.743 383.788 172.393 381.371C168.166 387.994 151.613 402.157 142.554 394.326C139.243 396.743 125.688 381.371 122.668 367.499C117.278 363.584 102.201 337.674 102.514 313.867C100.278 310.153 105.4 292.634 117.747 275.651C120.364 272.049 123.317 268.469 126.605 265.046C140.474 250.569 160.762 245.088 170.403 247.817C180.043 250.525 191.116 256.409 203.776 279.903C204.738 281.693 205.633 283.572 206.505 285.519C216.862 309.325 219.032 343.67 210.666 336.152V336.175Z" fill="#F8D3A4"/>
<path d="M206.505 285.519C205.879 291 202.3 295.431 195.142 289.412C185.434 281.267 146.625 282.207 136.291 284.4C127.5 286.257 116.025 287.443 117.77 275.651C120.387 272.049 123.339 268.469 126.628 265.046C140.474 250.569 160.762 245.088 170.403 247.817C180.043 250.525 191.116 256.409 203.776 279.903C204.738 281.693 205.633 283.572 206.505 285.519Z" fill="#EFB36E"/>
<path d="M144.657 280.686C124.346 284.377 117.21 298.227 118.128 304.694C114.907 318.991 121.349 344.61 125.979 348.078C127.589 364.702 140.742 380.857 145.82 382.222C153.425 390.299 174.899 376.449 179.73 364.68C194.024 361.458 203.732 328.903 204.649 320.132C209.726 319.438 207.87 300.286 195.88 287.599C195.187 271.445 183.645 271.915 180.893 282.52C176.039 281.603 171.432 281.827 171.432 281.827C171.432 281.827 170.403 269.14 161.768 269.14C155.147 269.14 149.287 273.28 144.657 280.663V280.686Z" fill="#FFE6C5"/>
<path d="M173.064 285.944C182.549 285.832 189.013 288.383 189.505 292.567C189.997 296.751 183.578 301.516 183.578 301.516C183.578 301.516 182.75 310.131 174.653 308.184C166.555 306.237 167.786 298.541 167.786 298.541C167.786 298.541 163.961 287.152 173.064 285.966V285.944Z" fill="#FFF2E0"/>
<path d="M176.107 291.381C174.653 292.589 178.455 295.968 180.289 296.035C182.124 296.102 184.293 294.446 184.718 292.947C185.166 291.47 177.18 290.486 176.107 291.381Z" fill="#614325"/>
<path d="M179.395 294.849C176.934 302.143 173.199 300.308 170.313 298.071C167.428 295.833 164.676 294.2 164.386 296.303C164.072 298.406 167.383 298.048 170.246 299.682C173.109 301.315 176.822 302.658 179.753 302.456C181.117 302.367 182.414 301.807 183.421 301.248C183.712 301.069 186.843 300.487 187.067 300.331C187.738 299.883 187.403 298.652 186.441 299.033C185.479 299.413 183.309 301.516 181.386 300.084C180.334 299.279 180.871 294.961 180.871 294.961L179.395 294.894V294.849Z" fill="#614325"/>
<path d="M165.728 279.791C165.728 282.028 163.916 283.863 161.657 283.863C159.397 283.863 157.586 282.051 157.586 279.791C157.586 277.531 159.397 275.719 161.657 275.719C163.916 275.719 165.728 277.531 165.728 279.791Z" fill="#614325"/>
<path d="M161.679 278.471C161.679 279.209 161.075 279.813 160.337 279.813C159.599 279.813 158.995 279.209 158.995 278.471C158.995 277.732 159.599 277.128 160.337 277.128C161.075 277.128 161.679 277.732 161.679 278.471Z" fill="white"/>
<path d="M191.899 283.236C191.899 285.474 190.087 287.309 187.828 287.309C185.568 287.309 183.757 285.496 183.757 283.236C183.757 280.977 185.568 279.164 187.828 279.164C190.087 279.164 191.899 280.977 191.899 283.236Z" fill="#614325"/>
<path d="M132.197 264.24C132.197 255.38 141.145 241.888 148.101 242C155.058 242.112 159.8 252.65 160.65 255.805C155.058 262.227 137.454 265.829 132.197 264.24Z" fill="#EFB36E"/>
<path d="M137.991 262.249C140.832 259.184 146.11 258.557 146.11 259.609C150.428 255.402 156.333 257.08 156.333 257.08C156.333 257.08 153.693 246.967 148.213 247.28C142.733 247.594 138.103 257.707 137.991 262.249Z" fill="#F8D3A4"/>
<path d="M187.559 282.23C187.559 282.968 186.955 283.572 186.217 283.572C185.479 283.572 184.875 282.968 184.875 282.23C184.875 281.491 185.479 280.887 186.217 280.887C186.955 280.887 187.559 281.491 187.559 282.23Z" fill="white"/>
</g>
<path fill-rule="evenodd" clip-rule="evenodd" d="M239.503 177.782C231.059 176.303 221.71 179.103 217.49 189.603C214.362 197.44 214.401 197.518 222.569 198.453C229.461 199.233 228.996 199.471 230.597 194.542C231.96 190.347 233.902 188.351 237.624 187.744C245.874 186.436 247.875 197.594 246.903 200.586C245.835 203.872 242.933 204.842 234.867 204.589C228.27 204.392 225.53 206.258 223.265 212.431C222.606 214.26 221.925 215.66 221.644 215.828C220.375 216.648 223.2 218.702 226.659 219.501C237.045 221.87 236.87 221.911 237.553 217.916C237.974 215.426 238.323 215.15 240.959 215.196C247.322 215.317 251.713 213.047 255.375 207.75C264.885 194.105 257.969 181.057 239.503 177.782ZM248.378 182.611C254.644 185.718 258.012 196.25 254.708 202.538C251.653 208.357 247.089 211.058 239.64 211.394C236.032 211.552 234.513 212.745 233.321 216.314L232.673 218.309C228.99 217.502 228.756 217.426 226.302 217.017C229.523 208.496 229.224 207.426 241.12 207.14C248.58 206.969 251.862 201.841 249.621 193.913C246.024 181.198 225.788 182.277 225.368 195.211C225.334 195.816 225.259 196.343 225.182 196.383C225.065 196.442 220.987 196.058 220.694 195.963C220.665 195.953 221.633 192.278 221.858 190.989C223.749 179.895 237.057 177.052 248.378 182.611ZM223.262 222.095C217.216 222.79 214.914 229.177 219.432 232.688C228.438 239.701 239.653 236.631 236.036 228.159C234.988 225.613 226.693 221.685 223.262 222.095ZM230.177 226.287C232.403 227.4 233.84 229.942 233.268 231.703C232.21 234.959 223.731 233.987 221.732 230.387C220.757 228.61 222.281 222.327 230.177 226.287Z" fill="#FFB076"/>
<defs>
<filter id="filter0_d_1281_4085" x="0" y="0" width="320" height="476" filterUnits="userSpaceOnUse" color-interpolation-filters="sRGB">
<feFlood flood-opacity="0" result="BackgroundImageFix"/>
<feColorMatrix in="SourceAlpha" type="matrix" values="0 0 0 0 0 0 0 0 0 0 0 0 0 0 0 0 0 0 127 0" result="hardAlpha"/>
<feOffset dx="8" dy="8"/>
<feGaussianBlur stdDeviation="8"/>
<feComposite in2="hardAlpha" operator="out"/>
<feColorMatrix type="matrix" values="0 0 0 0 0 0 0 0 0 0 0 0 0 0 0 0 0 0 0.12 0"/>
<feBlend mode="normal" in2="BackgroundImageFix" result="effect1_dropShadow_1281_4085"/>
<feBlend mode="normal" in="SourceGraphic" in2="effect1_dropShadow_1281_4085" result="shape"/>
</filter>
<clipPath id="clip0_1281_4085">
<rect width="170" height="186" fill="white" transform="translate(102 242)"/>
</clipPath>
</defs>
</svg>
