<svg width="320" height="476" viewBox="0 0 320 476" fill="none" xmlns="http://www.w3.org/2000/svg">
<g filter="url(#filter0_d_747_4434)">
<rect x="8" y="8" width="288" height="444" rx="12" fill="white"/>
</g>
<path d="M37.552 46.616C40.24 46.616 42.272 44.392 42.272 39.912C42.272 35.432 40.24 33.208 37.552 33.208C34.848 33.208 32.816 35.432 32.816 39.912C32.816 44.392 34.848 46.616 37.552 46.616ZM37.552 45.128C35.808 45.128 34.432 43.4 34.432 39.912C34.432 36.44 35.808 34.696 37.552 34.696C39.28 34.696 40.656 36.44 40.656 39.912C40.656 43.4 39.28 45.128 37.552 45.128ZM45.9898 46.328H47.6698V33.512H43.3338V34.984H45.9898V46.328Z" fill="#666666"/>
<path d="M46.634 62.0401H44.134V75.1271H46.634V69.0912H49.0235V67.0401H46.634V62.0401ZM33.0566 72.2956H41.6616V63.297H39.1754V65.8729H35.529V63.297H33.0566V72.2956ZM35.1008 79.4917H47.2693V77.482H37.587V73.7873H35.1008V79.4917ZM35.529 70.3412V67.7859H39.1754V70.3412H35.529ZM64.1893 62.0124H61.71V65.797H58.7197V67.8204H61.71V70.6243H58.6713V72.6616H61.71V79.8439H64.1893V62.0124ZM49.797 65.4862H55.3426V68.4006H49.8385V75.8591H51.2404C53.9752 75.8591 56.2404 75.8039 58.8992 75.3895L58.699 73.3522C56.4614 73.6837 54.5208 73.7942 52.3247 73.8149V70.3343H57.7874V63.5041H49.797V65.4862ZM82.1452 70.4102H75.2529V68.8909H80.2874V66.9365H70.3496V64.7472H80.1977V62.8066H67.8634V68.8909H72.8082V70.4102H65.9021V72.3854H82.1452V70.4102ZM67.7529 76.5566C67.7529 78.6354 70.0941 79.8163 73.9753 79.8232C77.8358 79.8163 80.1562 78.6354 80.17 76.5566C80.1562 74.4434 77.8358 73.2693 73.9753 73.2693C70.0941 73.2693 67.7529 74.4434 67.7529 76.5566ZM70.2943 76.5566C70.2805 75.6381 71.5167 75.1685 73.9753 75.1685C76.3924 75.1685 77.6631 75.6381 77.67 76.5566C77.6631 77.482 76.3924 77.924 73.9753 77.9171C71.5167 77.924 70.2805 77.482 70.2943 76.5566ZM98.8027 69.0843H82.5872V71.0387H89.4104V72.1782H84.4588V74.0566H94.3621V74.9751H84.4726V79.6782H97.2834V77.7997H86.9173V76.7293H96.8207V72.1782H91.9104V71.0387H98.8027V69.0843ZM84.59 68.145H96.7447V62.5442H84.59V68.145ZM87.0348 66.2182V64.471H94.2516V66.2182H87.0348ZM114.148 62.0124H111.627V79.8439H114.148V62.0124ZM99.7903 69.5953C99.7834 73.5041 101.772 75.9489 104.493 75.9489C107.18 75.9489 109.169 73.5041 109.176 69.5953C109.169 65.7279 107.18 63.2693 104.493 63.2693C101.772 63.2693 99.7834 65.7279 99.7903 69.5953ZM102.201 69.5953C102.187 66.9641 103.112 65.5207 104.493 65.5207C105.847 65.5207 106.765 66.9641 106.765 69.5953C106.765 72.2541 105.847 73.6906 104.493 73.6906C103.112 73.6906 102.187 72.2541 102.201 69.5953ZM124.242 72.4199H121.928V79.6022H128.454V78.2141L129.477 79.7472C130.913 79.1948 131.894 78.1727 132.488 76.9365C133.047 78.2141 134.035 79.2224 135.568 79.7472L136.845 77.8964C134.635 77.1851 133.758 75.4586 133.772 73.6423V72.2749H131.279V73.6423C131.272 75.2583 130.437 76.9227 128.454 77.8066V72.4199H126.148V74.1809H124.242V72.4199ZM120.188 66.8743C120.174 69.3536 122.184 71.087 124.919 71.087C127.198 71.087 129.021 69.8094 129.497 67.8757H132.46V71.4323H134.946V62.0124H132.46V65.8384H129.49C128.993 63.953 127.177 62.6961 124.919 62.6961C122.184 62.6961 120.174 64.4296 120.188 66.8743ZM122.55 66.8743C122.55 65.5552 123.53 64.7472 124.919 64.7472C126.272 64.7472 127.239 65.5552 127.253 66.8743C127.239 68.2141 126.272 69.0428 124.919 69.0566C123.53 69.0428 122.55 68.2141 122.55 66.8743ZM124.242 77.7169V76.018H126.148V77.7169H124.242ZM151.086 66.8743H141.148V62.6478H138.669V68.8287H151.086V66.8743ZM136.631 72.6823H152.888V70.7279H136.631V72.6823ZM138.503 79.4088H151.196V77.4061H140.996V74.1395H138.503V79.4088ZM172.326 62.0401H169.84V66.4599H167.429V68.4696H169.84V70.2514H167.429V72.2265H169.84V75.5829H172.326V62.0401ZM157.381 65.866H167.257V63.9047H163.686V61.9986H161.207V63.9047H157.381V65.866ZM158.258 69.9889C158.244 72.0401 160.005 73.4696 162.423 73.4696C164.86 73.4696 166.621 72.0401 166.635 69.9889C166.621 67.9448 164.86 66.4945 162.423 66.4945C160.005 66.4945 158.244 67.9448 158.258 69.9889ZM160.489 79.4917H172.706V77.482H163.01V74.4227H160.489V79.4917ZM160.579 69.9889C160.572 68.9945 161.331 68.442 162.423 68.4282C163.493 68.442 164.28 68.9945 164.294 69.9889C164.28 71.018 163.493 71.5704 162.423 71.5704C161.331 71.5704 160.572 71.018 160.579 69.9889ZM188.88 62.0124H186.407V71.018H188.88V62.0124ZM173.949 69.1188L175.185 71.0663C177.298 70.4378 178.756 69.0704 179.564 67.3439C180.365 68.9254 181.773 70.1685 183.811 70.7624L185.033 68.8425C182.119 68.0069 180.82 65.9351 180.834 63.7735V62.413H178.251V63.7735C178.244 65.9834 176.919 68.2279 173.949 69.1188ZM176.981 73.7251H186.421V74.768H177.022V79.6782H189.391V77.7169H179.453V76.605H188.907V71.7983H176.981V73.7251ZM198.811 62.2749C194.709 62.2749 192.333 63.3453 192.34 65.2997C192.333 67.2887 194.709 68.3522 198.811 68.3522C202.906 68.3522 205.268 67.2887 205.275 65.2997C205.268 63.3453 202.906 62.2749 198.811 62.2749ZM190.717 71.1699H206.932V69.1948H190.717V71.1699ZM192.588 74.0221H202.492V74.989H192.602V79.6782H205.413V77.7997H195.047V76.7293H204.95V72.192H192.588V74.0221ZM194.95 65.2997C194.937 64.5193 196.207 64.0912 198.811 64.0981C201.449 64.0912 202.706 64.5193 202.706 65.2997C202.706 66.1768 201.449 66.5152 198.811 66.5221C196.207 66.5152 194.937 66.1768 194.95 65.2997Z" fill="#2C2827"/>
<path d="M46.634 92.0124H44.134V102.385H46.634V98.1105H49.0235V96.0732H46.634V92.0124ZM33.0566 101.522H41.6616V93.0691H39.1754V95.3343H35.529V93.0691H33.0566V101.522ZM35.0041 109.568H47.0552V107.606H37.4972V105.162H46.7238V103.186H35.0041V109.568ZM35.529 99.5677V97.261H39.1754V99.5677H35.529ZM53.9959 93.2693C51.2749 93.2693 49.2929 95.7279 49.3067 99.5953C49.2929 103.504 51.2749 105.949 53.9959 105.949C56.71 105.949 58.6713 103.504 58.6852 99.5953C58.6713 95.7279 56.71 93.2693 53.9959 93.2693ZM51.7169 99.5953C51.71 96.9641 52.6354 95.5207 53.9959 95.5207C55.391 95.5207 56.2887 96.9641 56.2957 99.5953C56.2887 102.254 55.391 103.691 53.9959 103.691C52.6354 103.691 51.71 102.254 51.7169 99.5953ZM60.7432 109.802H63.2363V100.804H65.8606V98.7251H63.2363V92.0124H60.7432V109.802ZM82.1452 98.9669H65.9021V100.921H82.1452V98.9669ZM67.7736 103.843H77.6769V104.83H67.7874V109.644H80.5982V107.717H70.2322V106.605H80.1355V101.957H67.7736V103.843ZM67.9256 97.9793H80.2115V96.018H70.4117V94.3605H80.0734V92.3854H67.9256V97.9793ZM97.4629 92.0124H94.9422V109.844H97.4629V92.0124ZM83.1052 99.5953C83.0983 103.504 85.0872 105.949 87.8082 105.949C90.4947 105.949 92.4836 103.504 92.4906 99.5953C92.4836 95.7279 90.4947 93.2693 87.8082 93.2693C85.0872 93.2693 83.0983 95.7279 83.1052 99.5953ZM85.5154 99.5953C85.5016 96.9641 86.427 95.5207 87.8082 95.5207C89.1618 95.5207 90.0803 96.9641 90.0803 99.5953C90.0803 102.254 89.1618 103.691 87.8082 103.691C86.427 103.691 85.5016 102.254 85.5154 99.5953ZM114.245 92.0124H111.765V95.797H108.775V97.8204H111.765V100.624H108.727V102.662H111.765V109.844H114.245V92.0124ZM99.8525 95.4862H105.398V98.4006H99.8939V105.859H101.296C104.031 105.859 106.296 105.804 108.955 105.39L108.754 103.352C106.517 103.684 104.576 103.794 102.38 103.815V100.334H107.843V93.5041H99.8525V95.4862ZM134.456 99.692H124.325V93.3867H121.783V101.695H126.825V105.769H119.967V107.772H136.224V105.769H129.332V101.695H134.456V99.692ZM145.174 93.0552H137.315V95.0097H142.688V96.7569H137.343V102.496H138.682C142.115 102.482 143.979 102.427 146.058 102.068L145.83 100.072C144.028 100.41 142.453 100.493 139.808 100.507V98.6008H145.174V93.0552ZM139.38 105.762H149.145V109.802H151.631V103.773H139.38V105.762ZM146.203 100.251H149.145V102.986H151.631V92.0401H149.145V94.5055H146.203V96.4738H149.145V98.2762H146.203V100.251ZM167.357 92.0124H164.891V109.802H167.357V101.032H169.981V98.9807H167.357V92.0124ZM153.241 96.6671H163.689V94.6713H159.753V92.2956H157.267V94.6713H153.241V96.6671ZM153.959 101.902C153.952 104.388 155.886 106.135 158.51 106.142C161.1 106.135 163.04 104.388 163.047 101.902C163.04 99.4227 161.1 97.6616 158.51 97.6616C155.886 97.6616 153.952 99.4227 153.959 101.902ZM156.348 101.902C156.341 100.541 157.253 99.6989 158.51 99.6851C159.753 99.6989 160.651 100.541 160.665 101.902C160.651 103.283 159.753 104.105 158.51 104.098C157.253 104.105 156.341 103.283 156.348 101.902ZM184.953 92.0124H182.433V109.802H184.953V92.0124ZM170.078 104.768L171.376 106.75C177.73 103.753 179.622 99.2707 179.629 93.884H171.031V95.8384H177.087C176.687 99.7887 174.663 102.593 170.078 104.768Z" fill="#FF8A33"/>
<path d="M109.477 225.778C107.223 227.819 108.795 229.039 107.545 229.022C105.945 228.992 104.141 230.603 104.162 232.11C104.181 234.532 108.34 237.262 112.818 237.667C113.453 237.723 114.459 237.834 115.02 237.9C118.014 238.244 118.121 234.453 115.24 228.275C113.635 224.822 111.539 223.884 109.477 225.778ZM114.74 235.16L114.916 236.225C109.874 234.501 107.161 233.706 106.315 232.027C105.624 230.664 106.146 230.488 108.199 231.448C109.4 232.013 110.023 232.153 110.481 232.008C112.505 231.335 110.237 229.774 110.343 227.5C110.364 226.784 110.82 226.797 111.806 227.519C112.791 228.293 114.223 231.987 114.74 235.16Z" fill="#FFB076"/>
<path d="M142.816 195.529C141.979 196.251 141.755 196.334 141.216 196.258C140.539 196.17 139.131 196.804 138.474 197.517C136.526 199.644 138.081 205.055 141.666 208.667C144.373 211.399 145.554 210.353 146.968 204.041C148.722 196.153 146.765 192.139 142.816 195.529ZM145.585 198.336C145.718 200.938 144.025 206.732 143.326 205.948C142.409 204.879 140.736 201.721 140.322 200.276C139.576 197.554 140.312 196.463 141.404 198.702C141.96 199.843 143.011 199.775 143.324 198.576C143.392 198.281 143.583 197.535 143.74 196.935C144.222 195.053 145.459 196.018 145.585 198.336Z" fill="#FFB076"/>
<path d="M122.164 202.543C121.754 203.109 121.475 203.298 121.126 203.285C117.777 203.192 116.674 206.999 119.256 209.583C125.758 216.033 127.882 214.971 128.074 205.178C128.144 200.934 124.499 199.312 122.164 202.543ZM125.795 203.648C125.963 204.481 125.636 205.922 125.389 207.638C124.984 210.763 125.188 210.585 123.585 209.249C122.129 208.051 120.639 207.706 120.118 207.123C119.398 206.298 118.846 204.083 121.386 205.119C122.672 205.642 123.557 205.289 123.381 204.224C122.973 201.547 125.548 202.383 125.795 203.648Z" fill="#FFB076"/>
<path d="M134.734 191.419C139.004 180.995 138.1 173.671 132.906 176.727L131.612 177.489L130.687 176.946C129.036 176 127.135 176.273 125.716 177.697C123.254 180.18 123.638 183.731 126.944 189.1C131.193 195.969 132.692 196.389 134.734 191.419ZM127.339 184.331C125.49 180.161 126.009 177.215 128.459 177.85C129.758 178.184 130.697 179.295 130.378 180.104C129.113 183.362 129.917 186.473 131.795 185.557C133.332 184.807 133.878 182.188 133.056 179.635C132.303 177.387 134.063 176.607 135.103 178.74C135.639 179.839 135.548 181.007 134.67 184.678C134.129 186.929 132.27 192.49 132.07 192.404C131.711 192.265 128.326 186.517 127.339 184.331Z" fill="#FFB076"/>
<path d="M154.649 214.806C154.071 215.245 153.986 215.234 153.77 214.791C153.182 213.587 150.954 213.785 149.631 215.136C146.834 218.017 146.786 225.178 149.541 229.038C151.401 231.66 160.638 218.579 159.113 215.453C158.361 213.911 156.267 213.573 154.649 214.806ZM151.074 227.035C150.821 226.949 149.933 220.793 149.945 219.14C149.952 216.391 150.906 214.933 151.678 216.517C151.802 216.77 151.791 217.56 151.665 218.223C151.154 220.642 151.197 220.569 151.577 220.697C152.305 220.944 153.64 219.456 154.194 217.774C154.836 215.839 156.309 215.121 156.958 216.452C157.411 217.381 151.897 227.313 151.074 227.035Z" fill="#FFB076"/>
<path d="M129.607 227.988C130.317 227.223 129.692 220.468 128.745 218.473C127.55 216.022 124.806 215.87 123.131 218.178C122.893 218.503 122.729 218.87 122.77 218.955C122.822 219.061 122.212 219.436 121.433 219.79C118.808 221.018 118.902 222.619 121.779 225.374C124.958 228.425 128.154 229.507 129.607 227.988ZM122.884 221.409C124.27 222.302 125.534 221.372 124.854 219.978C124.319 218.879 124.95 217.735 125.648 218.571C126.346 219.407 127.354 225.374 126.842 225.623C126.479 225.8 123.084 223.011 122.472 222.028C121.726 220.824 121.802 220.708 122.884 221.409Z" fill="#FFB076"/>
<path d="M135.601 237.405C135.331 237.72 135.048 238.224 134.981 238.466C134.902 238.844 134.624 239.032 133.74 239.333C129.649 240.752 130.861 245.025 135.861 246.717C140.387 248.249 141.887 247.151 141.259 242.777C140.42 236.885 137.994 234.565 135.601 237.405ZM138.834 244.901C135.918 243.421 133.033 242.109 132.941 241.108C132.888 240.349 134.019 240.556 135.087 241.499C136.228 242.485 137.864 241.504 137.075 240.32C135.871 238.502 136.572 236.905 137.809 238.629C138.724 239.909 138.787 244.48 138.834 244.901Z" fill="#FFB076"/>
<path d="M106.061 197.429C105.142 198.74 105.163 198.729 104.389 198.009C103.291 196.949 101.441 197.329 100.158 198.87C97.7856 201.753 100.587 206.792 106.538 210.217C107.674 210.866 109.087 213.601 110.845 208.482C111.806 205.686 113.142 201.165 113.376 199.639C114.136 194.588 109.112 193.065 106.061 197.429ZM111.128 197.468C111.646 199.019 109.423 207.842 108.208 209.036C107.886 209.35 103.645 204.882 102.369 202.916C100.586 200.125 101.184 197.559 103.169 199.571C103.65 200.069 104.211 200.841 104.438 201.306C105.169 202.858 106.694 202.192 106.678 200.318C106.633 196.705 110.131 194.503 111.128 197.468Z" fill="#FFB076"/>
<g clip-path="url(#clip0_747_4434)">
<path d="M109.741 393.325C106.737 400.226 104.115 404.765 104.115 404.765C104.115 404.765 95.2438 407.44 88.8102 404.096C82.3765 400.752 82.3765 392.073 83.7086 388.06C84.8281 384.674 91.0208 381.117 94.6628 374.586C95.3289 373.391 95.9099 372.096 96.3492 370.687C99.2401 361.552 97.4687 346.854 97.908 338.829C98.3473 330.819 104.568 318.781 116.982 308.537C116.982 308.537 117.422 333.266 118.541 355.534C119.193 368.667 114.063 383.408 109.741 393.311V393.325Z" fill="#AD5534"/>
<path d="M109.741 393.325C106.737 400.226 104.115 404.765 104.115 404.765C104.115 404.765 95.2438 407.44 88.8102 404.096C82.3765 400.752 82.3765 392.073 83.7086 388.06C84.8281 384.674 91.0208 381.117 94.6628 374.586C101.295 367.372 103.024 370.175 99.0134 380.704C106.779 372.679 105.66 386.268 105.66 386.268C105.66 386.268 107.729 389.284 109.727 393.311L109.741 393.325Z" fill="#E8CCAE"/>
<path d="M138.551 416.261C138.012 418.709 142.49 423.988 142.292 425.965C142.094 427.943 133.818 429.138 132.627 426.364C131.451 423.589 125.74 406.671 126.123 402.716C126.194 402.047 126.392 401.208 126.704 400.24C128.206 395.573 132.769 383.536 135.376 377.303C138.537 369.777 148.768 366.575 164.753 369.962C164.059 381.814 156.038 391.689 149.009 400.183C144.049 406.159 139.599 411.452 138.537 416.29L138.551 416.261Z" fill="#AD5534"/>
<path d="M142.292 425.965C142.094 427.943 133.818 429.138 132.627 426.364C131.451 423.589 125.74 406.671 126.123 402.716C126.194 402.047 126.392 401.208 126.704 400.24C127.752 404.324 130.983 402.958 133.01 400.24C132.33 411.452 142.972 404.594 149.009 400.169C144.049 406.145 139.599 411.438 138.537 416.276C137.998 418.723 142.476 424.002 142.278 425.98L142.292 425.965Z" fill="#E8CCAE"/>
<path d="M248.504 364.199C244.21 377.73 237.323 389.668 236.317 388.089C235.495 389.839 234.574 391.646 233.653 393.624C232.123 396.854 230.535 400.525 229.302 405.063C227.304 412.405 227.148 418.879 227.588 421.185C228.013 423.49 229.6 424.343 228.594 426.364C227.588 428.37 222.004 427.075 219.992 425.069C217.994 423.063 214.111 410.243 213.247 393.41C213.247 393.311 213.247 393.211 213.247 393.126C212.736 376.379 243.36 360.016 243.36 360.016L248.518 364.199H248.504Z" fill="#AD5534"/>
<path d="M229.302 405.078C227.304 412.42 227.148 418.894 227.588 421.199C228.013 423.504 229.6 424.357 228.594 426.378C227.588 428.384 222.004 427.089 219.992 425.083C217.994 423.077 214.111 410.257 213.247 393.424C213.247 393.325 213.247 393.225 213.247 393.14C220.502 397.081 225.15 389.682 225.15 389.682C223.847 397.921 228.225 399.742 233.667 393.638C232.137 396.868 230.549 400.539 229.317 405.078H229.302Z" fill="#E8CCAE"/>
<path d="M241.079 354.509C240.285 361.239 235.169 376.279 232.718 382.426C230.266 388.558 227.078 388.16 227.078 388.16C227.035 388.26 226.993 388.345 226.95 388.43C226.029 390.55 220.148 404.509 219.978 415.28C219.822 424.713 223.464 423.603 222.543 426.705C222.274 427.616 215.84 428.555 210.908 423.603C204.475 417.144 200.578 399.287 199.061 391.048C198.58 388.43 198.339 386.78 198.339 386.78C198.339 386.78 196.893 386.04 194.427 384.902C193.946 384.674 193.421 384.432 192.854 384.162C191.097 383.365 189 382.426 186.647 381.444C185.882 381.131 185.089 380.789 184.267 380.462C180.384 378.883 175.991 377.232 171.47 375.809C170.776 375.582 170.067 375.368 169.359 375.169C164.966 373.86 160.502 372.807 156.35 372.267C155.684 372.181 155.018 372.11 154.366 372.039C151.177 371.754 148.215 371.797 145.65 372.323L144.729 374.102C144.559 374.415 144.403 374.714 144.248 374.998C138.919 384.688 138.749 379.267 138.749 379.267C138.749 379.267 127.937 392.443 121.021 398.291C120.95 398.362 120.879 398.419 120.794 398.476C113.893 404.224 105.419 413.914 105.815 418.467C106.212 423.02 109.755 425.595 108.579 426.193C107.403 426.791 100.303 427.388 98.7157 425.012C97.1428 422.636 95.9524 405.021 96.5476 401.25C96.9444 398.746 99.8778 395.089 102.953 388.359C104.384 385.243 105.844 381.472 107.091 376.848C107.19 376.478 107.289 376.094 107.388 375.71C111.328 360.272 101.281 354.922 101.082 339.085C100.799 316.704 125.329 298.69 130.657 300.882C147.011 307.569 179.349 306.815 182.509 304.837C185.655 302.859 190.785 299.103 196.709 286.625C196.709 286.625 241.858 347.793 241.064 354.523L241.079 354.509Z" fill="#BD613F"/>
<g style="mix-blend-mode:multiply" opacity="0.2">
<path d="M199.827 390.678C199.727 390.863 199.458 390.991 199.061 391.034C198.579 388.416 198.339 386.766 198.339 386.766C198.339 386.766 196.893 386.026 194.427 384.887C193.946 384.66 193.421 384.418 192.854 384.147C191.097 383.351 189 382.412 186.647 381.43C185.882 381.117 185.089 380.775 184.267 380.448C180.384 378.869 175.991 377.218 171.47 375.795C170.776 375.568 170.067 375.354 169.359 375.155C164.966 373.846 160.502 372.793 156.35 372.252C155.684 372.167 155.018 372.096 154.366 372.025C151.177 371.74 148.215 371.783 145.65 372.309L144.729 374.088C144.559 374.401 144.403 374.7 144.247 374.984C143.61 374.757 143.255 374.629 143.255 374.629C143.255 374.629 146.501 365.195 148.414 361.225C149.547 355.164 149.803 345.688 149.803 345.688C149.803 345.688 150.582 354.367 169.713 361.737C188.83 369.108 198.523 362.534 198.523 362.534C198.523 362.534 201.669 387.264 199.827 390.678Z" fill="#E07E40"/>
</g>
<path d="M235.637 233.438C236.884 227.49 233.455 221.443 233.455 221.443C233.455 221.443 240.937 221.23 244.154 226.025C247.371 230.82 245.613 236.967 245.613 236.967L235.651 233.424L235.637 233.438Z" fill="#9A443E"/>
<path d="M228.126 232.542C224.017 226.879 217.682 226.352 217.682 226.352C217.682 226.352 208.811 228.273 213.176 228.757C217.54 229.241 220.233 233.438 220.261 235.003C220.29 236.568 228.14 232.527 228.14 232.527L228.126 232.542Z" fill="#9A443E"/>
<path d="M270.895 292.159C271.816 299.814 268.301 326.479 267.394 322.794C264.489 343.468 247.257 371.968 242.978 368.738C242.368 372.11 239.435 378.854 231.527 384.062C237.791 354.808 211.702 335.656 209.718 330.762C206.671 329.908 197.701 313.901 194.541 293.127C193.747 287.891 193.322 282.342 193.464 276.665C193.52 274.16 193.69 271.784 193.974 269.536C194.158 268.028 194.385 266.562 194.668 265.168C195.306 261.853 196.199 258.836 197.262 256.118C197.262 256.118 197.262 256.118 197.262 256.104C202.618 242.431 212.68 235.942 221.324 233.808C232.718 230.991 241.008 232.229 247.385 235.999C247.767 236.213 248.136 236.44 248.504 236.696C255.76 241.463 260.479 249.602 264.645 258.623C272.581 275.782 273.034 296.144 270.895 292.174V292.159Z" fill="#F3E8D3"/>
<path d="M200.578 277.589C199.841 283.466 205.452 291.292 205.452 291.292C205.452 291.292 205.934 287.862 207.153 287.137C209.59 292.515 212.779 302.006 210.937 311.937C219.765 303.429 225.179 281.517 219.822 275.398C214.465 269.28 200.578 277.604 200.578 277.604V277.589Z" fill="#9A443E"/>
<path d="M205.453 281.004C213.984 286.881 211.787 301.308 211.787 301.308C211.787 301.308 213.743 296.656 214.465 294.465C215.202 299.843 212.609 309.76 211.022 311.866C218.688 306.388 226.893 285.173 220.559 277.589C214.224 270.006 205.453 281.018 205.453 281.018V281.004Z" fill="#C96D32"/>
<path d="M247.611 283.067C248.292 280.52 247.668 275.469 247.668 275.469C247.668 275.469 243.601 302.632 210.937 311.937C222.968 297.951 232.604 271.372 227.999 263.66C224.413 257.655 203.653 262.664 194.64 265.168C195.278 261.853 196.17 258.836 197.233 256.118C197.233 256.118 197.233 256.118 197.233 256.104C202.59 242.431 212.651 235.942 221.296 233.808C227.772 232.214 233.242 231.916 237.933 232.655C245.089 233.78 250.743 239.457 251.976 246.628C254.881 263.617 247.03 285.173 247.597 283.082L247.611 283.067Z" fill="#9A443E"/>
<path d="M219.425 240.766L218.022 248.222L195.504 269.963C195.504 269.963 194.668 270.077 193.974 269.536C194.597 264.442 195.731 259.989 197.247 256.104C197.247 256.104 197.247 256.104 197.247 256.09C205.509 241.349 221.537 235.743 219.411 240.766H219.425Z" fill="#E07E40"/>
<path d="M214.083 246.415C214.295 248.093 213.771 249.559 212.921 249.659C212.07 249.758 211.206 248.492 210.993 246.799C210.781 245.12 211.305 243.654 212.155 243.555C213.006 243.455 213.87 244.721 214.083 246.415Z" fill="#592724"/>
<path d="M186.902 267.53C187.002 266.833 198.82 260.259 206.955 253.685C215.089 247.112 218.674 241.819 220.46 239.329C222.245 236.839 227.148 239.329 226.511 242.217C226.199 243.654 220.389 249.901 212.651 255.834C207.38 259.875 202.264 265.552 196.326 267.672C193.435 268.697 189.538 267.53 186.888 267.53H186.902Z" fill="#9A443E"/>
<path d="M236.062 266.349C236.062 266.349 237.522 268.398 237.678 277.006C238.726 273.179 239.35 269.209 239.435 265.182C239.633 255.72 235.538 247.197 230.932 242.971C228.75 240.965 225.363 241.15 223.322 243.298C218.121 248.791 206.785 260.686 195.207 266.918C192.273 268.497 189.864 266.292 186.903 267.544C190.559 278.272 195.972 277.091 195.972 277.091C195.972 277.091 196.992 280.478 201.825 281.645C206.657 282.826 211.929 281.061 216.024 278.415C223.053 287.379 219.142 300.483 210.951 311.937C213.459 310.884 215.429 309.148 218.008 307.128C218.008 307.128 218.036 307.1 218.051 307.085C223.719 301.835 226.44 295.446 227.744 289.442C228.197 291.491 227.829 294.792 227.333 297.595C230.592 294.806 232.378 292.074 234.347 284.206C236.317 276.337 236.09 266.363 236.09 266.363L236.062 266.349Z" fill="#E07E40"/>
<path d="M245.217 228.06C243.544 224.061 234.362 224.474 232.718 224.061C231.074 223.649 229.827 219.892 231.598 218.427C233.37 216.961 241.291 219.01 245.217 228.06Z" fill="#E07E40"/>
<path d="M223.875 228.6C219.34 225.427 213.516 224.588 210.512 225.74C207.493 226.893 207.706 232.641 208.854 232.271C210.001 231.901 215.641 227.519 223.875 228.615V228.6Z" fill="#E07E40"/>
<path d="M227.021 247.695C227.233 249.374 226.709 250.84 225.859 250.939C225.009 251.039 224.144 249.758 223.932 248.079C223.719 246.4 224.243 244.935 225.094 244.835C225.944 244.736 226.808 246.002 227.021 247.695Z" fill="#592724"/>
<path d="M186.662 267.259C186.577 268.753 188.886 271.656 190.204 271.556C191.522 271.457 195.391 270.632 195.944 268.156C196.326 266.434 191.409 266.207 188.546 266.52C187.285 266.648 186.662 267.259 186.662 267.259Z" fill="#592724"/>
<g style="mix-blend-mode:screen" opacity="0.2">
<path d="M145.65 372.323L144.729 374.102C138.933 385.001 138.749 379.253 138.749 379.253C138.749 379.253 127.937 392.429 121.021 398.276C120.95 398.348 120.879 398.405 120.794 398.461C113.893 404.21 105.419 413.899 105.815 418.453C106.212 423.006 109.755 425.581 108.579 426.179C107.403 426.776 100.303 427.374 98.7157 424.998C97.1428 422.622 95.9524 405.007 96.5476 401.236C96.9444 398.732 99.8778 395.075 102.953 388.345C104.384 385.229 105.844 381.458 107.091 376.834C112.731 373.846 118.513 363.046 119.42 361.254C111.541 382.44 114.885 388.373 129.878 367.002C126.123 384.418 135.589 371.157 137.573 365.024C132.641 382.454 144.871 370.175 148.414 361.268C148.173 365.11 145.65 372.352 145.65 372.352V372.323Z" fill="#BD613F"/>
</g>
<path d="M121.021 398.262C120.95 398.333 120.879 398.39 120.794 398.447C113.893 404.196 105.419 413.885 105.815 418.438C106.212 422.992 109.755 425.567 108.579 426.165C107.403 426.762 100.303 427.36 98.7157 424.984C97.1428 422.607 95.9524 404.992 96.5476 401.222C96.9444 398.718 99.8778 395.061 102.953 388.331C100.728 397.508 99.977 406.885 109.174 397.465C105.56 405.86 115.693 401.933 121.021 398.262Z" fill="#F3E8D3"/>
<g style="mix-blend-mode:multiply" opacity="0.3">
<path d="M154.366 372.025C155.018 372.082 155.684 372.153 156.35 372.252C156.718 369.335 157.512 364.654 157.512 364.299C157.512 363.9 156.364 368.695 154.366 372.025Z" fill="#AD5534"/>
<path d="M171.47 375.795C172.505 371.882 173.964 365.778 173.964 365.778C173.964 365.778 171.768 371.911 169.359 375.155C170.067 375.368 170.776 375.582 171.47 375.795Z" fill="#AD5534"/>
<path d="M184.267 380.448C185.089 380.775 185.882 381.117 186.647 381.43C185.981 377.218 185.783 372.153 185.783 372.153C185.783 372.153 184.139 376.791 184.252 380.448H184.267Z" fill="#AD5534"/>
<path d="M190.615 366.034C190.275 371.754 190.913 377.787 192.869 384.147C193.435 384.404 193.946 384.66 194.442 384.887C192.429 378.598 191.182 373.277 190.615 366.049V366.034Z" fill="#AD5534"/>
</g>
<path d="M222.543 426.705C222.274 427.616 215.84 428.555 210.908 423.603C202.434 415.095 198.353 386.78 198.353 386.78C196.17 374.202 197.673 360.002 199.6 355.704C198.608 384.902 206.317 379.182 207.521 375.923C213.487 394.961 219.368 405.248 226.964 388.444C226.043 390.565 220.162 404.523 219.992 415.294C219.836 424.727 223.478 423.618 222.557 426.719L222.543 426.705Z" fill="#F3E8D3"/>
<path opacity="0.2" d="M195.972 277.077C198.466 277.219 206.005 275.882 210.965 273.15C217.002 269.835 218.433 266.135 218.816 265.524C219.482 264.428 220.616 264.883 219.482 266.776C218.348 268.668 216.506 271.115 211.135 273.819C205.793 276.508 199.954 277.333 195.972 277.063V277.077Z" fill="#592724"/>
<path d="M210.809 221.329C210.965 221.145 212.014 221.116 213.743 221.216C211.589 221.429 210.483 221.714 210.809 221.329Z" fill="#E07E40"/>
<path d="M270.895 292.16C271.816 299.814 268.301 326.479 267.394 322.794C264.489 343.468 247.257 371.968 242.978 368.738C242.368 372.11 239.435 378.854 231.527 384.062C237.791 354.808 211.702 335.656 209.718 330.762C206.671 329.908 197.701 313.901 194.541 293.127C201.881 315.11 224.087 335.229 226.397 336.297C229.076 337.52 228.594 334.575 228.594 334.575C228.594 334.575 237.366 346.555 238.585 360.016C247.838 355.377 256.61 335.073 257.829 325.526C260.507 332.128 266.601 309.376 265.141 294.948C269.038 299.601 267.083 258.267 247.838 236.497C247.682 236.326 247.526 236.156 247.385 235.985C247.767 236.198 248.136 236.426 248.504 236.682C255.76 241.449 260.479 249.588 264.645 258.608C272.581 275.768 273.034 296.129 270.895 292.16Z" fill="#E8CCAE"/>
</g>
<defs>
<filter id="filter0_d_747_4434" x="0" y="0" width="320" height="476" filterUnits="userSpaceOnUse" color-interpolation-filters="sRGB">
<feFlood flood-opacity="0" result="BackgroundImageFix"/>
<feColorMatrix in="SourceAlpha" type="matrix" values="0 0 0 0 0 0 0 0 0 0 0 0 0 0 0 0 0 0 127 0" result="hardAlpha"/>
<feOffset dx="8" dy="8"/>
<feGaussianBlur stdDeviation="8"/>
<feComposite in2="hardAlpha" operator="out"/>
<feColorMatrix type="matrix" values="0 0 0 0 0 0 0 0 0 0 0 0 0 0 0 0 0 0 0.12 0"/>
<feBlend mode="normal" in2="BackgroundImageFix" result="effect1_dropShadow_747_4434"/>
<feBlend mode="normal" in="SourceGraphic" in2="effect1_dropShadow_747_4434" result="shape"/>
</filter>
<clipPath id="clip0_747_4434">
<rect width="189" height="210" fill="white" transform="translate(83 218)"/>
</clipPath>
</defs>
</svg>
