<svg width="320" height="476" viewBox="0 0 320 476" fill="none" xmlns="http://www.w3.org/2000/svg">
<g filter="url(#filter0_d_793_1213)">
<rect x="8" y="8" width="288" height="444" rx="12" fill="white"/>
</g>
<g clip-path="url(#clip0_793_1213)">
<path d="M37.552 46.616C40.24 46.616 42.272 44.392 42.272 39.912C42.272 35.432 40.24 33.208 37.552 33.208C34.848 33.208 32.816 35.432 32.816 39.912C32.816 44.392 34.848 46.616 37.552 46.616ZM37.552 45.128C35.808 45.128 34.432 43.4 34.432 39.912C34.432 36.44 35.808 34.696 37.552 34.696C39.28 34.696 40.656 36.44 40.656 39.912C40.656 43.4 39.28 45.128 37.552 45.128ZM43.3978 46.328H52.3098V44.872H45.8138L49.1738 41.576C51.0938 39.608 51.8778 38.44 51.8778 37.064C51.8778 34.76 50.1818 33.208 47.6058 33.208C44.9338 33.208 43.2538 35.112 43.2538 37.432H44.9338C44.9338 36.008 45.8618 34.696 47.5898 34.696C49.1898 34.696 50.2138 35.576 50.2138 37.08C50.2138 37.992 49.5738 39.032 47.9418 40.68L43.3978 45.24V46.328Z" fill="#666666"/>
<path d="M41.924 62.5373V62.1575H39.355V62.5373C39.3481 64.2914 37.297 66.087 33.326 66.5014L34.1616 68.366C37.2348 68.0138 39.4793 66.8398 40.6257 65.203C41.7721 66.8398 44.0373 68.0138 47.1036 68.366L47.953 66.5014C43.9544 66.087 41.9171 64.2914 41.924 62.5373ZM32.5318 71.0525H48.7472V69.0566H32.5318V71.0525ZM34.4033 73.9669H44.3066V74.9751H34.4171V79.6782H47.2279V77.7997H36.8619V76.7155H46.7652V72.1229H34.4033V73.9669ZM63.9752 62.7721H50.6396V64.7265H52.9462V67.8066H50.757V69.7818H63.8578V67.8066H61.6617V64.7265H63.9752V62.7721ZM49.2169 73.1657H65.4324V71.1975H49.2169V73.1657ZM51.1713 79.4917H63.5816V77.482H53.6713V74.3674H51.1713V79.4917ZM55.4324 67.8066V64.7265H59.1548V67.8066H55.4324ZM84.0137 62.0124H81.5137V71.9572H84.0137V67.9517H86.4032V65.9075H84.0137V62.0124ZM69.7112 70.3757L70.6987 72.3646C76.0441 70.9558 79.0206 67.7652 79.0275 63.0622H70.5883V65.0442H76.3065C75.9128 67.413 73.7029 69.3881 69.7112 70.3757ZM72.3769 79.5815H84.0137V72.6271H72.3769V79.5815ZM74.8562 77.6271V74.6367H81.5482V77.6271H74.8562ZM101.576 62.0124H99.0897V66.3494H96.3135V68.3798H99.0897V72.5787H101.576V62.0124ZM86.4792 70.6105L87.7706 72.5856C89.877 71.8605 91.2996 70.4102 92.0731 68.6008C92.8535 70.1961 94.2002 71.4807 96.1615 72.1229L97.3908 70.1616C94.6353 69.25 93.3646 67.1644 93.3024 65.0994H96.8452V63.0967H87.2043V65.0994H90.7679C90.7126 67.3301 89.3798 69.6436 86.4792 70.6105ZM89.3936 76.3978C89.3867 78.5525 91.714 79.8163 95.4985 79.8232C99.2969 79.8163 101.617 78.5525 101.624 76.3978C101.617 74.2431 99.2969 72.9724 95.4985 72.9724C91.714 72.9724 89.3867 74.2431 89.3936 76.3978ZM91.8729 76.3978C91.8659 75.3757 93.1436 74.8646 95.4985 74.8646C97.8604 74.8646 99.145 75.3757 99.1519 76.3978C99.145 77.413 97.8604 77.924 95.4985 77.9171C93.1436 77.924 91.8659 77.413 91.8729 76.3978Z" fill="#FF8A33"/>
<path d="M111.376 62.2749C107.273 62.2749 104.898 63.3453 104.905 65.2997C104.898 67.2887 107.273 68.3522 111.376 68.3522C115.471 68.3522 117.833 67.2887 117.84 65.2997C117.833 63.3453 115.471 62.2749 111.376 62.2749ZM103.282 71.1699H119.497V69.1948H103.282V71.1699ZM105.153 74.0221H115.057V74.989H105.167V79.6782H117.978V77.7997H107.612V76.7293H117.515V72.192H105.153V74.0221ZM107.515 65.2997C107.501 64.5193 108.772 64.0912 111.376 64.0981C114.014 64.0912 115.271 64.5193 115.271 65.2997C115.271 66.1768 114.014 66.5152 111.376 66.5221C108.772 66.5152 107.501 66.1768 107.515 65.2997ZM140.192 70.5691H123.976V72.5235H130.82V73.7942C127.657 74.0014 125.827 75.0373 125.827 76.7776C125.827 78.732 128.141 79.8025 132.05 79.7956C135.951 79.8025 138.23 78.732 138.244 76.7776C138.23 75.0442 136.435 74.0014 133.3 73.7942V72.5235H140.192V70.5691ZM124.653 68.1105L125.406 70.0028C128.666 69.7749 130.938 68.8218 132.056 67.3854C133.168 68.8218 135.433 69.7749 138.707 70.0028L139.46 68.1105C135.73 67.8688 133.907 66.7914 133.521 65.576H138.617V63.6146H133.293V62.0746H130.82V63.6146H125.53V65.576H130.585C130.185 66.7914 128.382 67.8688 124.653 68.1105ZM128.369 76.7776C128.355 75.9627 129.57 75.5967 132.05 75.5967C134.487 75.5967 135.737 75.9627 135.744 76.7776C135.737 77.5925 134.487 77.9586 132.05 77.9517C129.57 77.9586 128.355 77.5925 128.369 76.7776ZM156.898 71.1354H140.641V73.0967H147.747V75.9627H150.213V73.0967H156.898V71.1354ZM142.547 79.4917H155.109V77.482H145.019V74.5677H142.547V79.4917ZM142.733 69.8923H154.791V62.5856H152.326V64.4434H145.185V62.5856H142.733V69.8923ZM145.185 67.9309V66.2942H152.326V67.9309H145.185ZM172.222 62.0124H169.702V79.8025H172.222V62.0124ZM157.72 66.6948H168.341V64.6989H164.294V62.2541H161.766V64.6989H157.72V66.6948ZM158.479 71.9019C158.472 74.3881 160.427 76.1354 163.065 76.1423C165.689 76.1354 167.637 74.3881 167.637 71.9019C167.637 69.4227 165.689 67.6616 163.065 67.6616C160.427 67.6616 158.472 69.4227 158.479 71.9019ZM160.855 71.9019C160.848 70.5414 161.766 69.6989 163.065 69.6851C164.349 69.6989 165.254 70.5414 165.254 71.9019C165.254 73.2831 164.349 74.105 163.065 74.0981C161.766 74.105 160.848 73.2831 160.855 71.9019ZM47.0207 99.8854H36.8481V93.5663H34.3481V101.909H47.0207V99.8854ZM32.5318 107.696H48.7887V105.61H32.5318V107.696ZM64.1064 92.0124H61.5926V109.802H64.1064V92.0124ZM49.1064 104.45L51.0125 105.866C54.1271 102.482 54.797 98.6215 54.8108 93.8425H49.949V95.8798H52.4283C52.2418 99.3812 51.4131 101.895 49.1064 104.45ZM54.21 105.707L56.2749 107.006C59.2307 103.256 59.7901 98.8356 59.7901 93.8425H55.4462V95.8798H57.4144C57.2487 99.768 56.4959 102.765 54.21 105.707ZM80.833 92.0124H78.3123V109.802H80.833V92.0124ZM65.9573 104.768L67.2557 106.75C73.6093 103.753 75.5015 99.2707 75.5084 93.884H66.9104V95.8384H72.967C72.5664 99.7887 70.543 102.593 65.9573 104.768Z" fill="#2C2827"/>
</g>
<g clip-path="url(#clip1_793_1213)">
<path d="M251.19 426.056L250.749 424.147L250.026 421.072C250.026 421.072 261.639 418.386 264.093 410.345C265.646 405.256 265.328 398.717 264.64 392.903C264.252 389.545 263.757 386.417 263.422 383.961C262.681 378.359 266.74 375.266 269.67 384.632C270.253 386.506 270.782 388.856 271.241 391.79C271.365 392.656 271.488 393.504 271.576 394.352C273.5 410.522 269.194 420.684 251.173 426.074L251.19 426.056Z" fill="#873B07"/>
<path d="M251.19 426.056L250.749 424.147C250.749 424.147 250.82 424.147 250.855 424.147C259.257 423.069 266.952 415.382 268.382 410.717C269.582 406.811 269.264 399 271.576 394.352C273.5 410.522 269.194 420.684 251.173 426.074L251.19 426.056Z" fill="#EDD1AD"/>
<path d="M197.675 250.182C197.675 250.182 193.404 250.182 190.827 252.179C188.267 254.176 177.995 265.31 174.288 277.026C170.582 288.725 181.984 332.429 188.267 334.708C194.533 336.988 199.105 326.42 201.099 311.858C203.094 297.296 197.675 250.182 197.675 250.182Z" fill="#7D3706"/>
<path d="M224.821 426.056C224.821 426.056 221.679 426.197 217.231 426.374C211.213 426.586 202.829 426.851 196.634 426.798C196.263 426.798 195.892 426.798 195.522 426.798C194.127 426.781 192.874 426.745 191.833 426.675C191.427 426.657 191.074 426.622 190.738 426.586C189.221 426.463 188.338 426.268 188.373 425.985C188.585 424.2 189.485 410.999 196.404 409.656C203.129 408.349 208.583 415.7 208.901 416.124V416.089C208.583 415.188 205.988 402.888 210.93 399.159C218.061 393.769 229.004 398.717 224.803 426.056H224.821Z" fill="#EDD1AD"/>
<path d="M224.945 425.225C224.909 425.508 224.856 425.791 224.821 426.074C224.821 426.074 221.679 426.215 217.231 426.392C217.514 424.837 217.779 423.052 218.026 421.019C219.72 407.058 208.724 395.925 208.918 416.142V416.107C208.601 415.205 206.006 402.905 210.948 399.177C211.548 398.717 212.184 398.346 212.819 398.046C219.738 394.829 228.475 400.891 224.945 425.243V425.225Z" fill="#A14A22"/>
<path d="M203.2 383.484C201.858 390.606 198.946 402.499 196.175 411.936C193.951 419.482 191.815 425.438 190.633 426.091C188.956 427.01 183.078 427.046 178.701 426.798C178.313 426.763 177.942 426.745 177.589 426.71C175.542 426.551 174.006 426.321 173.706 426.091C172.735 425.367 172.488 418.351 174.906 415.912C177.324 413.491 184.102 413.244 184.102 413.244C184.102 413.244 184.455 407.571 184.914 399.919C185.108 396.614 185.338 392.938 185.549 389.21C186.008 381.451 186.467 373.411 186.75 367.738C186.891 364.893 187.103 362.206 187.403 359.644C188.656 348.846 191.303 339.992 195.204 329.248C195.204 329.248 205.6 370.654 203.182 383.484H203.2Z" fill="#BB6A2C"/>
<path d="M196.422 409.639C196.334 410.434 196.245 411.194 196.157 411.936C193.933 419.482 191.797 425.438 190.615 426.091C188.938 427.01 183.061 427.046 178.683 426.798C178.295 426.763 177.924 426.745 177.571 426.71C175.524 426.551 173.988 426.321 173.688 426.091C172.718 425.367 172.471 418.351 174.889 415.912C177.307 413.491 184.084 413.244 184.084 413.244C184.084 413.244 184.437 407.571 184.896 399.919C194.039 387.177 198.01 395.713 196.422 409.603V409.639Z" fill="#EDD1AD"/>
<path d="M251.19 426.056C251.19 426.056 240.424 425.773 232.181 419.906C231.493 419.411 230.804 418.881 230.151 418.298C228.122 416.495 226.339 414.286 225.05 411.565C218.449 397.586 197.887 387.937 193.333 369.116C193.033 367.914 192.804 366.677 192.609 365.44C191.074 355.721 192.327 344.976 193.704 335.044C194.904 326.42 196.21 318.397 195.875 312.194L237.247 293.903C237.247 293.903 237 298.728 237 318.291C237 323.327 237.9 330.025 239.312 337.536C242.877 356.622 249.655 380.851 252.903 395.642C253.344 397.657 253.714 399.512 254.014 401.138C257.315 419.429 251.208 426.038 251.208 426.038L251.19 426.056Z" fill="#BB6A2C"/>
<g style="mix-blend-mode:multiply" opacity="0.3">
<path d="M178.683 426.798C178.295 426.763 177.924 426.745 177.571 426.71C177.254 424.678 177.13 422.009 177.995 419.924L179.001 420.366C178.207 422.292 178.383 424.89 178.683 426.798Z" fill="#BB6A2C"/>
</g>
<path d="M252.867 395.66C248.914 394.37 243.071 391.578 238.871 385.746C231.952 376.132 240.653 374.347 237.759 366.518C234.952 358.99 228.457 347.733 239.277 337.554C242.842 356.64 249.62 380.868 252.867 395.66Z" fill="#873B07"/>
<path d="M264.64 392.903C264.252 389.545 263.757 386.417 263.422 383.961C262.681 378.359 266.74 375.266 269.67 384.632C270.464 391.348 267.287 397.692 264.64 392.903Z" fill="#BB6A2C"/>
<path d="M232.164 419.924C229.304 417.891 226.745 415.188 225.033 411.583C218.432 397.604 197.869 387.955 193.315 369.134C190.739 358.513 192.115 346.266 193.668 335.044C200.834 319.546 212.113 330.396 215.413 352.769C218.926 376.627 228.739 395.342 238.306 402.11C245.331 407.076 239.541 416.46 232.164 419.906V419.924Z" fill="#FFE9CC"/>
<g style="mix-blend-mode:multiply" opacity="0.3">
<path d="M230.151 418.316C228.122 416.513 226.339 414.304 225.05 411.583C218.449 397.604 197.887 387.955 193.333 369.134C193.033 367.932 192.804 366.695 192.609 365.458C194.763 370.936 197.904 376.98 201.929 379.755C209.765 385.198 214.902 360.404 215.819 349.535C221.256 364.645 235.994 365.953 233.152 375.531C230.31 385.11 228.669 406.864 233.628 400.926C239.665 393.681 245.101 395.483 247.819 400.626C250.114 404.955 237.988 416.619 230.169 418.333L230.151 418.316Z" fill="#BB6A2C"/>
</g>
<path d="M228.351 380.656C227.08 387.248 220.25 403.082 214.496 414.357C211.107 420.966 208.089 426.021 206.783 426.692C205.176 427.523 201.699 427.929 198.31 427.982C197.94 427.982 197.569 427.982 197.198 427.982C195.822 427.982 194.498 427.929 193.351 427.823C192.962 427.788 192.592 427.753 192.256 427.7C190.897 427.523 189.962 427.258 189.768 426.94C189.009 425.632 190.28 416.213 191.797 415.435C193.315 414.64 200.181 414.127 200.181 414.127C200.181 414.127 202.811 408.083 205.865 398.752C210.648 384.173 216.455 361.623 214.902 341.671C214.902 341.671 230.381 370.177 228.351 380.638V380.656Z" fill="#FFE9CC"/>
<path d="M251.19 426.056C251.19 426.056 248.049 426.197 243.601 426.374C237.582 426.586 229.198 426.851 223.003 426.798C222.632 426.798 222.262 426.798 221.891 426.798C220.497 426.781 219.244 426.745 218.202 426.675C217.796 426.657 217.443 426.622 217.108 426.586C215.59 426.463 214.707 426.268 214.743 425.985C214.955 424.2 215.855 410.999 222.774 409.656C229.498 408.349 234.952 415.7 235.27 416.124V416.089C234.952 415.188 232.358 402.888 237.3 399.159C244.43 393.769 255.373 398.717 251.173 426.056H251.19Z" fill="#FFE9CC"/>
<path d="M233.54 374.913C232.269 381.504 220.232 403.082 214.478 414.357C217.69 403.718 217.073 385.11 205.829 398.77C210.613 384.191 215.519 360.704 213.966 340.77C213.966 340.77 218.89 342.219 223.021 351.055C227.486 360.598 234.564 369.487 233.523 374.93L233.54 374.913Z" fill="#BB6A2C"/>
<g style="mix-blend-mode:multiply" opacity="0.3">
<path d="M218.202 426.675C217.796 426.657 217.443 426.622 217.108 426.586C217.073 424.784 217.231 422.38 217.973 419.729L219.014 420.048C218.29 422.61 218.167 424.925 218.202 426.675Z" fill="#BB6A2C"/>
<path d="M223.003 426.798C222.632 426.798 222.262 426.798 221.891 426.798C221.573 424.748 221.432 422.044 222.315 419.941L223.321 420.383C222.526 422.31 222.703 424.89 223.003 426.798Z" fill="#BB6A2C"/>
</g>
<path d="M251.314 425.225C251.279 425.508 251.226 425.791 251.19 426.074C251.19 426.074 248.049 426.215 243.601 426.392C243.883 424.837 244.148 423.052 244.395 421.019C246.09 407.058 235.093 395.925 235.288 416.142V416.107C234.97 415.205 232.375 402.905 237.317 399.177C237.917 398.717 238.553 398.346 239.188 398.046C246.107 394.829 254.844 400.891 251.314 425.243V425.225Z" fill="#BB6A2C"/>
<g style="mix-blend-mode:multiply" opacity="0.3">
<path d="M193.333 427.841C192.945 427.806 192.574 427.77 192.239 427.717C192.115 425.862 192.15 422.981 193.051 419.729L194.092 420.03C193.209 423.228 193.209 426.056 193.333 427.823V427.841Z" fill="#BB6A2C"/>
<path d="M198.293 427.982C197.922 427.982 197.551 427.982 197.181 427.982C196.757 425.932 196.316 422.469 197.375 419.906L198.381 420.348C197.393 422.716 197.887 426.074 198.293 427.965V427.982Z" fill="#BB6A2C"/>
</g>
<path d="M237.511 292.666C237 296.731 236.099 300.212 234.776 302.492C229.269 311.876 223.762 317.937 210.718 320.147C197.675 322.356 180.237 298.816 180.042 292.737C179.989 290.846 180.678 287.17 181.754 282.823C183.855 274.375 187.455 263.383 189.821 257.976C190.138 257.269 190.421 256.65 190.685 256.155C190.95 255.661 191.25 255.166 191.621 254.653C195.751 248.715 205.812 242 210.718 242C215.202 242 225.386 249.352 231.228 255.254C231.863 255.873 232.428 256.491 232.94 257.074C233.787 258.029 234.529 259.584 235.182 261.545C235.393 262.199 235.605 262.906 235.799 263.648C237.864 271.389 238.641 283.494 237.494 292.649L237.511 292.666Z" fill="#FFE9CC"/>
<path d="M235.817 263.666C231.563 270.435 210.136 266.6 209.589 258.683C208.989 249.952 201.064 249.564 199.087 260.467C199.087 260.467 194.216 259.778 189.838 257.976C190.156 257.269 190.438 256.65 190.703 256.155C190.968 255.661 191.268 255.166 191.639 254.653C195.751 248.715 205.812 242 210.718 242C215.625 242 227.627 251.013 232.94 257.074C233.787 258.029 234.529 259.584 235.182 261.545C235.393 262.199 235.605 262.906 235.799 263.648L235.817 263.666Z" fill="#873B07"/>
<path d="M199.052 306.38C198.963 306.274 197.022 303.464 194.551 294.752L195.522 294.486C197.94 303.004 199.864 305.779 199.881 305.814L199.069 306.398L199.052 306.38Z" fill="#876D4C"/>
<path d="M202.893 304.704C203.847 304.448 204.765 304.257 205.569 304.188L205.654 305.189C201.96 305.521 195.231 308.642 195.168 308.677L194.741 307.767C194.971 307.669 199.21 305.691 202.893 304.704Z" fill="#876D4C"/>
<path d="M198.381 274.976C197.728 276.478 187.05 277.769 181.772 282.84C184.155 273.28 188.426 260.467 190.703 256.173C190.968 255.678 191.268 255.183 191.639 254.671C194.163 254.459 197.004 254.512 198.152 255.537C200.446 257.587 199.069 273.386 198.381 274.976Z" fill="#BB6A2C"/>
<path d="M237.529 292.666C237.282 292.366 237.035 292.03 236.77 291.677C226.039 276.797 204.329 276.107 204.329 274.976C204.329 273.845 208.212 257.587 212.554 254.848C216.72 252.215 224.68 253.381 235.199 261.563C237.706 269.056 238.782 282.628 237.529 292.684V292.666Z" fill="#BB6A2C"/>
<path d="M221.062 266.176C221.062 268.067 219.544 269.586 217.655 269.586C215.766 269.586 214.249 268.067 214.249 266.176C214.249 264.285 215.766 262.765 217.655 262.765C219.544 262.765 221.062 264.285 221.062 266.176Z" fill="#471F04"/>
<g style="mix-blend-mode:multiply" opacity="0.2">
<path d="M237.512 292.666C237 296.731 236.1 300.212 234.776 302.492C229.269 311.876 223.762 317.937 210.719 320.147C197.675 322.356 180.237 298.816 180.042 292.737C180.042 292.737 192.839 314.721 206.818 316.029C220.797 317.337 233.681 275.347 231.493 257.64C231.387 256.756 231.299 255.943 231.228 255.236C231.863 255.855 232.428 256.474 232.94 257.057C233.787 258.011 234.529 259.566 235.182 261.528C235.394 262.182 235.605 262.889 235.799 263.631C237.865 271.371 238.641 283.477 237.494 292.631L237.512 292.666Z" fill="#BB6A2C"/>
</g>
<path d="M198.628 266.176C198.628 268.067 197.287 269.586 195.645 269.586C194.004 269.586 192.662 268.067 192.662 266.176C192.662 264.285 194.004 262.765 195.645 262.765C197.287 262.765 198.628 264.285 198.628 266.176Z" fill="#471F04"/>
<path d="M198.31 265.928C198.31 266.458 197.887 266.9 197.34 266.9C196.793 266.9 196.369 266.476 196.369 265.928C196.369 265.38 196.793 264.956 197.34 264.956C197.887 264.956 198.31 265.38 198.31 265.928Z" fill="white"/>
<path d="M219.508 264.956C220.038 264.956 220.479 265.38 220.479 265.928C220.479 266.476 220.056 266.9 219.508 266.9C218.961 266.9 218.538 266.476 218.538 265.928C218.538 265.38 218.961 264.956 219.508 264.956Z" fill="white"/>
<path d="M186.308 285.615C185.461 290.74 193.457 295.83 194.975 296.448C196.492 297.067 205 290.369 205.9 286.269C206.818 282.169 186.75 282.893 186.308 285.615Z" fill="#471F04"/>
<path d="M258.127 304.683C255.268 315.499 250.432 327.569 239.594 334.885C228.757 342.201 225.615 336.423 226.48 327.569C227.327 318.945 236.417 271.442 230.063 254.865C229.993 254.671 229.922 254.477 229.834 254.3C229.728 254.052 229.622 253.805 229.516 253.593C229.516 253.593 232.481 251.331 235.323 253.611C247.254 263.171 257.65 286.092 258.515 299.205C258.657 301.326 258.551 303.199 258.145 304.701L258.127 304.683Z" fill="#873B07"/>
<g style="mix-blend-mode:multiply" opacity="0.5">
<path d="M258.127 304.683C255.268 315.499 250.432 327.569 239.594 334.885C228.757 342.201 225.615 336.423 226.48 327.569C227.327 318.945 236.417 271.442 230.063 254.865C236.664 271.442 232.852 316.771 232.852 325.148C232.852 333.524 245.631 329.743 252.514 316.93C256.08 310.285 257.739 303.853 258.515 299.205C258.657 301.326 258.551 303.199 258.145 304.701L258.127 304.683Z" fill="#873B07"/>
</g>
<path d="M187.756 285.792C187.085 287.559 204.082 286.569 204.082 286.569C204.082 286.569 188.409 284.007 187.756 285.792Z" fill="#BB6A2C"/>
<path d="M251.314 425.225C244.836 419.517 251.879 408.419 247.166 406.069C242.965 403.983 237.723 402.022 239.171 398.028C246.09 394.812 254.826 400.873 251.296 425.225H251.314Z" fill="#873B07"/>
<path d="M185.549 389.227C186.008 381.469 186.467 373.428 186.749 367.755C186.891 364.91 187.102 362.224 187.403 359.662C188.32 363.991 190.844 367.932 192.045 374.1C193.368 380.921 187.914 386.93 185.532 389.227H185.549Z" fill="#873B07"/>
</g>
<path fill-rule="evenodd" clip-rule="evenodd" d="M167.501 184.858C175.26 188.525 177.749 198.964 173.633 210.434C172.325 214.061 169.214 213.733 165.771 210.854C162.14 207.766 158.188 201.804 155.691 194.521C153.025 186.634 159.711 181.15 167.501 184.858ZM163.233 187.597C158.876 189.416 159.333 193.654 164.954 202.464L168.224 207.605L168.816 204.168C170.671 193.287 168.092 185.558 163.233 187.597ZM143.474 188.231C148.63 191.569 155.524 203.715 154.874 208.342C154.448 211.367 152.293 210.955 142.116 205.896C134.077 201.899 130.245 199.727 128.745 197.23C123.766 189.018 135.024 182.761 143.474 188.231ZM134.676 190.406C132.384 193.024 136.176 199.617 141.437 202.207C145.747 204.338 148.728 205.591 148.473 205.084C148.325 204.845 147.426 203.231 146.472 201.5C141.956 193.353 136.536 188.272 134.676 190.406ZM152.643 215.432C160.247 217.88 162.309 223.613 152.499 225.501C150.781 225.84 147.028 226.982 144.159 228.031C135.77 231.17 131.88 230.696 129.166 226.25C127.07 222.834 128.401 218.013 131.331 214.723C138.53 206.626 148.549 214.095 152.643 215.432ZM134.12 216.567C131.946 217.314 131.688 219.673 133.488 222.357C135.921 225.965 138.366 226.128 145.789 223.143L151.172 220.996C150.409 220.744 147.662 219.886 143.12 218.122C138.964 216.449 135.948 215.953 134.12 216.567Z" fill="#FFB076"/>
<defs>
<filter id="filter0_d_793_1213" x="0" y="0" width="320" height="476" filterUnits="userSpaceOnUse" color-interpolation-filters="sRGB">
<feFlood flood-opacity="0" result="BackgroundImageFix"/>
<feColorMatrix in="SourceAlpha" type="matrix" values="0 0 0 0 0 0 0 0 0 0 0 0 0 0 0 0 0 0 127 0" result="hardAlpha"/>
<feOffset dx="8" dy="8"/>
<feGaussianBlur stdDeviation="8"/>
<feComposite in2="hardAlpha" operator="out"/>
<feColorMatrix type="matrix" values="0 0 0 0 0 0 0 0 0 0 0 0 0 0 0 0 0 0 0.12 0"/>
<feBlend mode="normal" in2="BackgroundImageFix" result="effect1_dropShadow_793_1213"/>
<feBlend mode="normal" in="SourceGraphic" in2="effect1_dropShadow_793_1213" result="shape"/>
</filter>
<clipPath id="clip0_793_1213">
<rect width="143" height="84" fill="white" transform="translate(32 32)"/>
</clipPath>
<clipPath id="clip1_793_1213">
<rect width="99" height="186" fill="white" transform="translate(173 242)"/>
</clipPath>
</defs>
</svg>
