<svg width="1920" height="1879" viewBox="0 0 1920 1879" fill="none" xmlns="http://www.w3.org/2000/svg">
<rect y="190" width="1920" height="1689" fill="#FFF6F2"/>
<path d="M1049.4 72.1713H1047.54V85.0373H1049.4V78.8909H1051.93V77.337H1049.4V72.1713ZM1036.32 82.1367H1044.57V73.4213H1042.73V76.232H1038.15V73.4213H1036.32V82.1367ZM1038.15 80.6588V77.6823H1042.73V80.6588H1038.15ZM1038.31 89.2983H1050.15V87.779H1040.15V83.7597H1038.31V89.2983ZM1066.91 72.1575H1065.07V76.0594H1061.74V77.5925H1065.07V80.8246H1061.64V82.3715H1065.07V89.692H1066.91V72.1575ZM1052.93 75.2099H1058.87V78.6215H1052.98V85.6588H1054.3C1057.06 85.6588 1059.3 85.576 1062.04 85.1478L1061.89 83.6146C1059.39 83.9945 1057.29 84.0981 1054.82 84.1119V80.0925H1060.68V73.7044H1052.93V75.2099ZM1084.99 80.6727H1077.91V78.8149H1083.13V77.3301H1072.85V74.4296H1083.03V72.9655H1071.01V78.8149H1076.1V80.6727H1069.02V82.1575H1084.99V80.6727ZM1070.9 86.4807C1070.9 88.5041 1073.18 89.6436 1076.98 89.6575C1080.75 89.6436 1083.01 88.5041 1083.03 86.4807C1083.01 84.4503 1080.75 83.3039 1076.98 83.3039C1073.18 83.3039 1070.9 84.4503 1070.9 86.4807ZM1072.79 86.4807C1072.78 85.3688 1074.3 84.7334 1076.98 84.7334C1079.62 84.7334 1081.16 85.3688 1081.17 86.4807C1081.16 87.5994 1079.62 88.2141 1076.98 88.2003C1074.3 88.2141 1072.78 87.5994 1072.79 86.4807ZM1101.66 79.4019H1085.7V80.8798H1092.73V82.413H1087.6V83.8287H1097.81V85.1685H1087.64V89.4917H1100.14V88.0552H1089.45V86.5152H1099.63V82.413H1094.59V80.8798H1101.66V79.4019ZM1087.74 78.1105H1099.6V72.7169H1087.74V78.1105ZM1089.56 76.6533V74.1809H1097.75V76.6533H1089.56ZM1108.09 73.4006C1105.33 73.4006 1103.31 75.1133 1103.32 77.5718C1103.31 80.0373 1105.33 81.7431 1108.09 81.7431C1110.86 81.7431 1112.84 80.0373 1112.85 77.5718C1112.84 75.1133 1110.86 73.4006 1108.09 73.4006ZM1102.48 84.3812L1102.71 85.9282C1105.84 85.9282 1110.09 85.9075 1114.05 85.1547L1113.91 83.8011C1110.08 84.3536 1105.67 84.3881 1102.48 84.3812ZM1105.15 77.5718C1105.14 76.0318 1106.39 75.0097 1108.09 75.0097C1109.79 75.0097 1111.04 76.0318 1111.04 77.5718C1111.04 79.1188 1109.79 80.134 1108.09 80.134C1106.39 80.134 1105.14 79.1188 1105.15 77.5718ZM1115.01 89.692H1116.86V72.1575H1115.01V89.692ZM1129.42 76.6119V73.6146H1127.58V76.6119C1127.56 79.8232 1125.75 83.1727 1123.06 84.471L1124.21 85.9627C1126.2 84.9268 1127.74 82.8343 1128.52 80.3481C1129.28 82.6823 1130.76 84.6436 1132.67 85.6312L1133.81 84.1464C1131.22 82.8757 1129.41 79.7058 1129.42 76.6119ZM1135.13 89.6575H1136.99V80.721H1139.79V79.1395H1136.99V72.1575H1135.13V89.6575ZM1148.91 73.4696H1140.71V81.0801H1148.91V73.4696ZM1142.27 86.308C1142.27 88.4213 1144.53 89.6436 1148.14 89.6575C1151.71 89.6436 1153.95 88.4213 1153.95 86.308C1153.95 84.2293 1151.71 82.9862 1148.14 82.9724C1144.53 82.9862 1142.27 84.2293 1142.27 86.308ZM1142.53 79.5815V74.9544H1147.09V79.5815H1142.53ZM1144.12 86.308C1144.11 85.1409 1145.61 84.471 1148.14 84.471C1150.66 84.471 1152.14 85.1409 1152.14 86.308C1152.14 87.5097 1150.66 88.1588 1148.14 88.1727C1145.61 88.1588 1144.11 87.5097 1144.12 86.308ZM1151.94 82.4337H1153.79V77.9171H1156.33V76.3978H1153.79V72.1575H1151.94V82.4337ZM1164.69 72.4475C1160.75 72.4475 1158.43 73.511 1158.43 75.4517C1158.43 77.4199 1160.75 78.4834 1164.69 78.4972C1168.63 78.4834 1170.93 77.4199 1170.93 75.4517C1170.93 73.511 1168.63 72.4475 1164.69 72.4475ZM1156.73 81.0456H1172.68V79.5608H1156.73V81.0456ZM1158.63 83.7804H1168.83V85.1547H1158.66V89.4917H1171.16V88.0552H1160.48V86.4876H1170.66V82.3923H1158.63V83.7804ZM1160.37 75.4517C1160.36 74.4296 1161.91 73.8218 1164.69 73.8287C1167.49 73.8218 1169.03 74.4296 1169.03 75.4517C1169.03 76.5428 1167.49 77.1022 1164.69 77.1022C1161.91 77.1022 1160.36 76.5428 1160.37 75.4517ZM1192.74 72.1575H1190.98V89.6575H1192.74V72.1575ZM1177.59 84.6022L1178.7 85.9213C1181.99 83.9599 1183.86 81.4047 1184.7 78.4627H1187.39V81.3218H1184.4V82.8412H1187.39V88.808H1189.16V72.6064H1187.39V76.9434H1185.04C1185.18 76.1008 1185.25 75.2238 1185.25 74.3329H1178.46V75.8591H1183.41C1183.09 79.4503 1181.31 82.3992 1177.59 84.6022ZM1208.93 72.1575H1207.06V89.6575H1208.93V72.1575ZM1194.55 84.9682L1195.53 86.4669C1201.54 83.6008 1203.71 79.1602 1203.73 74.0428H1195.4V75.5207H1201.83C1201.47 79.6022 1199.2 82.7583 1194.55 84.9682ZM1227.08 86.018H1219.95V82.9378H1225.53V81.4185H1214.86V78.8633H1225.12V73.4006H1212.98V74.913H1223.29V77.3715H1213.01V82.9378H1218.11V86.018H1211.07V87.558H1227.08V86.018ZM1248.02 82.1022H1232.01V83.6423H1239.06V89.6644H1240.88V83.6423H1248.02V82.1022ZM1233.75 76.7086C1233.75 79.0635 1236.27 80.5552 1239.98 80.5552C1243.68 80.5552 1246.22 79.0635 1246.22 76.7086C1246.22 74.326 1243.68 72.8273 1239.98 72.8135C1236.27 72.8273 1233.75 74.326 1233.75 76.7086ZM1235.66 76.7086C1235.65 75.2376 1237.38 74.3191 1239.98 74.3191C1242.58 74.3191 1244.31 75.2376 1244.31 76.7086C1244.31 78.1657 1242.58 79.0704 1239.98 79.0704C1237.38 79.0704 1235.65 78.1657 1235.66 76.7086ZM1256.68 72.3508C1252.74 72.3508 1250.43 73.4282 1250.43 75.3688C1250.43 77.3232 1252.74 78.3867 1256.68 78.4006C1260.63 78.3867 1262.93 77.3232 1262.93 75.3688C1262.93 73.4282 1260.63 72.3508 1256.68 72.3508ZM1248.72 80.9006H1255.74V82.3923H1250.62V83.7804H1260.83V85.1547H1250.65V89.4917H1263.15V88.0552H1252.47V86.4876H1262.65V82.3923H1257.6V80.9006H1264.67V79.4296H1248.72V80.9006ZM1252.37 75.3688C1252.35 74.3398 1253.9 73.7528 1256.68 73.7459C1259.49 73.7528 1261.03 74.3398 1261.03 75.3688C1261.03 76.4461 1259.49 76.9986 1256.68 77.0055C1253.9 76.9986 1252.35 76.4461 1252.37 75.3688ZM1279.15 72.1575H1277.3V82.047H1279.15V77.8204H1281.69V76.2873H1279.15V72.1575ZM1265.33 80.8108L1266.07 82.2887C1271.27 80.8936 1274.31 77.7376 1274.33 73.2624H1266.14V74.768H1272.32C1271.97 77.5097 1269.51 79.7127 1265.33 80.8108ZM1267.94 89.4227H1279.15V82.7928H1267.94V89.4227ZM1269.78 87.9378V84.3191H1277.32V87.9378H1269.78ZM1285.23 86.6326H1283.05L1282.01 92.0331H1283.66L1285.23 86.6326ZM1297.59 75.3412V75.2997H1301.48V73.7942H1291.82V75.2997H1295.69V75.3412C1295.69 77.5994 1293.96 79.616 1291.19 80.3964L1292.08 81.8329C1294.25 81.1975 1295.88 79.8232 1296.68 78.0138C1297.47 79.6851 1299.05 80.9765 1301.12 81.5773L1302.02 80.1271C1299.29 79.3743 1297.57 77.4337 1297.59 75.3412ZM1290.98 84.5331L1291.21 86.0594C1294.34 86.0594 1298.59 86.0387 1302.55 85.3135L1302.41 83.9254C1300.87 84.1602 1299.23 84.3052 1297.6 84.395V81.0594H1295.72V84.4779C1294 84.5262 1292.37 84.5331 1290.98 84.5331ZM1303.51 89.692H1305.36V72.1575H1303.51V89.692ZM1312.87 76.018V75.8453H1315.86V74.3674H1312.87V72.3577H1311.11V74.3674H1308.06V75.8453H1311.11V76.018C1311.1 78.1243 1309.88 80.134 1307.66 81.0249L1308.55 82.3992C1310.25 81.7017 1311.41 80.3964 1312.03 78.8011C1312.66 80.2652 1313.81 81.4669 1315.47 82.1022L1316.34 80.6865C1314.12 79.8992 1312.87 77.9793 1312.87 76.018ZM1310.59 85.2583H1320.66V89.6575H1322.49V83.7528H1310.59V85.2583ZM1316.97 82.8066H1318.74V78.2693H1320.73V82.8757H1322.49V72.1713H1320.73V76.7569H1318.74V72.482H1316.97V82.8066ZM1338.01 72.1575H1336.15V82.047H1338.01V77.8204H1340.54V76.2873H1338.01V72.1575ZM1324.18 80.8108L1324.92 82.2887C1330.13 80.8936 1333.17 77.7376 1333.18 73.2624H1324.99V74.768H1331.17C1330.83 77.5097 1328.36 79.7127 1324.18 80.8108ZM1326.79 89.4227H1338.01V82.7928H1326.79V89.4227ZM1328.64 87.9378V84.3191H1336.17V87.9378H1328.64ZM1344.09 86.6326H1341.91L1340.86 92.0331H1342.52L1344.09 86.6326ZM1358.7 73.6975V72.7445H1356.76V73.6975C1356.76 76.0525 1353.93 78.2072 1350.5 78.6699L1351.24 80.1823C1354.09 79.7265 1356.6 78.2486 1357.74 76.1768C1358.88 78.2348 1361.38 79.7265 1364.24 80.1823L1364.98 78.6699C1361.53 78.2072 1358.7 76.0249 1358.7 73.6975ZM1349.75 83.4351H1356.77V89.6575H1358.59V83.4351H1365.7V81.9019H1349.75V83.4351ZM1375.35 73.6492H1367.22V81.9365H1375.35V80.3964H1379.17V84.9268H1381.02V72.1713H1379.17V75.134H1375.35V73.6492ZM1369.05 80.4655V75.1478H1373.53V80.4655H1369.05ZM1369.59 89.2983H1381.41V87.779H1371.46V83.7666H1369.59V89.2983ZM1375.35 78.8909V76.6602H1379.17V78.8909H1375.35ZM1389.22 75.3895V74.9199H1393V73.4144H1383.52V74.9199H1387.37V75.4033C1387.36 77.8273 1385.71 80.0925 1382.98 80.9972L1383.92 82.4751C1386.03 81.7431 1387.57 80.2238 1388.33 78.3108C1389.1 79.9751 1390.55 81.2942 1392.54 81.9365L1393.43 80.4862C1390.77 79.6367 1389.22 77.6064 1389.22 75.3895ZM1385.34 86.3425C1385.34 88.4213 1387.57 89.6298 1391.21 89.6298C1394.82 89.6298 1397.02 88.4213 1397.02 86.3425C1397.02 84.2845 1394.82 83.0898 1391.21 83.0898C1387.57 83.0898 1385.34 84.2845 1385.34 86.3425ZM1387.2 86.3425C1387.18 85.1961 1388.68 84.5539 1391.21 84.5608C1393.73 84.5539 1395.21 85.1961 1395.21 86.3425C1395.21 87.5097 1393.73 88.1657 1391.21 88.1657C1388.68 88.1657 1387.18 87.5097 1387.2 86.3425ZM1395.01 82.6616H1396.87V78.0207H1399.4V76.4876H1396.87V72.1575H1395.01V82.6616ZM1403.76 73.5594C1401.48 73.5594 1399.99 75.9282 1399.99 79.7127C1399.99 83.518 1401.48 85.9006 1403.76 85.8936C1406.06 85.9006 1407.56 83.518 1407.58 79.7127C1407.56 75.9282 1406.06 73.5594 1403.76 73.5594ZM1401.72 79.7127C1401.71 76.9296 1402.5 75.2997 1403.76 75.2997C1405.05 75.2997 1405.85 76.9296 1405.85 79.7127C1405.85 82.5028 1405.05 84.1395 1403.76 84.1257C1402.5 84.1395 1401.71 82.5028 1401.72 79.7127ZM1409.15 88.7942H1410.91V80.5414H1413.07V89.6575H1414.85V72.1575H1413.07V79.0083H1410.91V72.4959H1409.15V88.7942ZM1419.63 86.6326H1417.45L1416.4 92.0331H1418.06L1419.63 86.6326ZM1431.65 74.6713V72.9931H1429.75V74.6713C1429.75 77.1782 1428.1 79.5539 1425.37 80.5138L1426.32 81.971C1428.39 81.2251 1429.93 79.6782 1430.71 77.7169C1431.5 79.547 1433.02 80.9627 1435.04 81.674L1435.98 80.2099C1433.28 79.3191 1431.63 77.0953 1431.65 74.6713ZM1427.94 85.0028H1437.94V89.6575H1439.8V83.4972H1427.94V85.0028ZM1437.94 82.6616H1439.8V72.1575H1437.94V82.6616ZM1449.93 72.5028C1446.11 72.5097 1443.68 73.7735 1443.68 75.8798C1443.68 77.0608 1444.44 77.9793 1445.8 78.5525V80.9765H1441.97V82.4682H1457.92V80.9765H1454.06V78.5594C1455.41 77.9793 1456.18 77.0608 1456.18 75.8798C1456.18 73.7735 1453.77 72.5097 1449.93 72.5028ZM1443.74 85.4586H1454.1V89.6575H1455.96V83.9807H1443.74V85.4586ZM1445.6 75.8798C1445.59 74.6436 1447.24 73.9738 1449.93 73.9738C1452.61 73.9738 1454.28 74.6436 1454.28 75.8798C1454.28 77.0884 1452.61 77.7928 1449.93 77.7928C1447.24 77.7928 1445.59 77.0884 1445.6 75.8798ZM1447.66 80.9765V79.0704C1448.35 79.1809 1449.11 79.2431 1449.93 79.2431C1450.76 79.2431 1451.53 79.1809 1452.21 79.0704V80.9765H1447.66ZM1474.64 82.4475H1458.63V83.9254H1465.68V89.6575H1467.5V83.9254H1474.64V82.4475ZM1460.62 80.4655H1472.64V72.8688H1470.79V75.1478H1462.46V72.8688H1460.62V80.4655ZM1462.46 78.9738V76.6326H1470.79V78.9738H1462.46ZM1481.82 75.8039V75.0511H1485.67V73.5525H1476.01V75.0511H1479.95V75.8039C1479.93 78.2072 1478.26 80.4724 1475.53 81.3978L1476.49 82.8688C1478.57 82.1298 1480.13 80.6243 1480.91 78.7182C1481.71 80.4724 1483.24 81.8536 1485.25 82.5166L1486.2 81.0594C1483.49 80.2099 1481.82 78.0829 1481.82 75.8039ZM1478.41 89.2983H1490.37V87.779H1480.27V83.7459H1478.41V89.2983ZM1488 84.9475H1489.86V72.1713H1488V84.9475ZM1512.28 80.3757H1496.31V81.9088H1512.28V80.3757ZM1498.19 86.453C1498.19 88.4903 1500.47 89.6298 1504.27 89.6298C1508.04 89.6298 1510.3 88.4903 1510.31 86.453C1510.3 84.4227 1508.04 83.2762 1504.27 83.2762C1500.47 83.2762 1498.19 84.4227 1498.19 86.453ZM1498.3 78.8564H1510.42V77.3577H1500.14V74.2983H1510.31V72.7859H1498.3V78.8564ZM1500.08 86.453C1500.07 85.3412 1501.59 84.7196 1504.27 84.7058C1506.91 84.7196 1508.45 85.3412 1508.46 86.453C1508.45 87.5787 1506.91 88.1865 1504.27 88.1865C1501.59 88.1865 1500.07 87.5787 1500.08 86.453ZM1518.69 73.4006C1515.94 73.4006 1513.91 75.1133 1513.93 77.5718C1513.91 80.0373 1515.94 81.7431 1518.69 81.7431C1521.46 81.7431 1523.44 80.0373 1523.46 77.5718C1523.44 75.1133 1521.46 73.4006 1518.69 73.4006ZM1513.08 84.3812L1513.31 85.9282C1516.44 85.9282 1520.69 85.9075 1524.66 85.1547L1524.51 83.8011C1520.69 84.3536 1516.27 84.3881 1513.08 84.3812ZM1515.76 77.5718C1515.74 76.0318 1516.99 75.0097 1518.69 75.0097C1520.39 75.0097 1521.64 76.0318 1521.65 77.5718C1521.64 79.1188 1520.39 80.134 1518.69 80.134C1516.99 80.134 1515.74 79.1188 1515.76 77.5718ZM1525.61 89.692H1527.46V72.1575H1525.61V89.692ZM1051.6 114.396H1035.65V115.909H1051.6V114.396ZM1036.48 112.021L1037.13 113.478C1040.17 113.133 1042.66 111.855 1043.61 109.997C1044.57 111.862 1047.08 113.133 1050.12 113.478L1050.79 112.021C1047.56 111.675 1045.08 110.246 1044.87 108.547H1050.17V107.021H1037.11V108.547H1042.38C1042.15 110.26 1039.65 111.675 1036.48 112.021ZM1037.53 120.453C1037.53 122.49 1039.81 123.63 1043.6 123.63C1047.38 123.63 1049.64 122.49 1049.65 120.453C1049.64 118.423 1047.38 117.256 1043.6 117.256C1039.81 117.256 1037.53 118.423 1037.53 120.453ZM1039.42 120.453C1039.41 119.327 1040.93 118.72 1043.6 118.706C1046.25 118.72 1047.79 119.327 1047.8 120.453C1047.79 121.565 1046.25 122.166 1043.6 122.166C1040.93 122.166 1039.41 121.565 1039.42 120.453ZM1058.36 108.961V107.069H1056.52V108.802C1056.51 111.406 1054.92 113.747 1052.2 114.721L1053.2 116.192C1055.23 115.439 1056.72 113.899 1057.47 111.938C1058.24 113.664 1059.68 115.025 1061.6 115.702L1062.58 114.244C1059.97 113.388 1058.36 111.254 1058.36 108.961ZM1054.56 120.37C1054.56 122.449 1056.8 123.63 1060.43 123.63C1064.03 123.63 1066.24 122.449 1066.24 120.37C1066.24 118.333 1064.03 117.131 1060.43 117.131C1056.8 117.131 1054.56 118.333 1054.56 120.37ZM1056.42 120.37C1056.4 119.258 1057.9 118.602 1060.43 118.602C1062.95 118.602 1064.43 119.258 1064.43 120.37C1064.43 121.53 1062.95 122.159 1060.43 122.173C1057.9 122.159 1056.4 121.53 1056.42 120.37ZM1064.23 116.717H1066.08V112.11H1068.62V110.564H1066.08V106.157H1064.23V116.717ZM1076.98 106.448C1073.04 106.448 1070.73 107.511 1070.73 109.452C1070.73 111.42 1073.04 112.483 1076.98 112.497C1080.93 112.483 1083.23 111.42 1083.23 109.452C1083.23 107.511 1080.93 106.448 1076.98 106.448ZM1069.02 115.046H1084.97V113.561H1069.02V115.046ZM1070.92 117.78H1081.13V119.155H1070.95V123.492H1083.45V122.055H1072.77V120.488H1082.95V116.392H1070.92V117.78ZM1072.67 109.452C1072.65 108.43 1074.2 107.822 1076.98 107.829C1079.79 107.822 1081.33 108.43 1081.33 109.452C1081.33 110.543 1079.79 111.102 1076.98 111.102C1074.2 111.102 1072.65 110.543 1072.67 109.452ZM1099.24 107.262H1091.16V108.768H1097.25C1096.89 111.523 1094.37 113.727 1090.24 114.825L1090.98 116.275C1094.73 115.267 1097.4 113.312 1098.57 110.591H1102.72V112.794H1098.3V114.307H1102.72V116.289H1104.57V106.171H1102.72V109.086H1099.06C1099.17 108.506 1099.24 107.898 1099.24 107.262ZM1092.23 118.575H1096.21V123.644H1098.08V117.062H1092.23V118.575ZM1098.9 118.575H1102.72V123.644H1104.57V117.062H1098.9V118.575ZM1114.64 107.207C1110.98 107.214 1108.19 109.155 1108.19 112.097C1108.19 115.052 1110.98 116.993 1114.64 116.979C1118.31 116.993 1121.11 115.052 1121.11 112.097C1121.11 109.155 1118.31 107.214 1114.64 107.207ZM1106.67 121.392H1122.69V119.859H1106.67V121.392ZM1109.97 112.097C1109.96 110.073 1111.96 108.706 1114.64 108.72C1117.31 108.706 1119.3 110.073 1119.3 112.097C1119.3 114.141 1117.31 115.46 1114.64 115.46C1111.96 115.46 1109.96 114.141 1109.97 112.097ZM1132.27 107.649H1124.15V115.936H1132.27V114.396H1136.09V118.927H1137.94V106.171H1136.09V109.134H1132.27V107.649ZM1125.98 114.465V109.148H1130.46V114.465H1125.98ZM1126.51 123.298H1138.34V121.779H1128.39V117.767H1126.51V123.298ZM1132.27 112.891V110.66H1136.09V112.891H1132.27ZM1146.36 110.612V107.615H1144.48V110.612C1144.46 113.851 1142.65 117.228 1139.95 118.526L1141.12 120.018C1143.13 118.975 1144.66 116.848 1145.43 114.327C1146.2 116.724 1147.7 118.699 1149.7 119.7L1150.82 118.209C1148.14 117.007 1146.35 113.816 1146.36 110.612ZM1148.9 113.478H1152.8V123.692H1154.64V106.157H1152.8V111.972H1148.9V113.478ZM1165.97 106.758C1163.3 106.765 1161.36 108.381 1161.36 110.681C1161.36 112.974 1163.3 114.576 1165.97 114.576C1168.6 114.576 1170.54 112.974 1170.56 110.681C1170.54 108.381 1168.6 106.765 1165.97 106.758ZM1163.17 110.681C1163.16 109.251 1164.35 108.291 1165.97 108.298C1167.57 108.291 1168.76 109.251 1168.76 110.681C1168.76 112.117 1167.57 113.07 1165.97 113.07C1164.35 113.07 1163.16 112.117 1163.17 110.681ZM1164.02 117.345H1173.68V118.892H1164.07V123.436H1176.1V121.952H1165.87V120.273H1175.53V115.874H1164.02V117.345ZM1173.67 115.066H1175.53V106.157H1173.67V115.066ZM1183.72 108.961V107.069H1181.88V108.802C1181.87 111.406 1180.29 113.747 1177.56 114.721L1178.56 116.192C1180.6 115.439 1182.08 113.899 1182.83 111.938C1183.6 113.664 1185.04 115.025 1186.96 115.702L1187.94 114.244C1185.33 113.388 1183.72 111.254 1183.72 108.961ZM1179.92 120.37C1179.92 122.449 1182.16 123.63 1185.79 123.63C1189.39 123.63 1191.6 122.449 1191.6 120.37C1191.6 118.333 1189.39 117.131 1185.79 117.131C1182.16 117.131 1179.92 118.333 1179.92 120.37ZM1181.78 120.37C1181.76 119.258 1183.26 118.602 1185.79 118.602C1188.31 118.602 1189.79 119.258 1189.79 120.37C1189.79 121.53 1188.31 122.159 1185.79 122.173C1183.26 122.159 1181.76 121.53 1181.78 120.37ZM1189.59 116.717H1191.45V112.11H1193.98V110.564H1191.45V106.157H1189.59V116.717ZM1199.73 109.521V107.249H1197.93V109.521C1197.93 111.468 1196.67 113.685 1194.31 114.721L1195.31 116.157C1197.01 115.432 1198.21 114.017 1198.85 112.394C1199.48 113.83 1200.62 115.025 1202.24 115.646L1203.23 114.217C1200.95 113.367 1199.73 111.434 1199.73 109.521ZM1197.51 120.46C1197.5 122.449 1199.78 123.63 1203.45 123.63C1207.09 123.63 1209.39 122.449 1209.39 120.46C1209.39 118.457 1207.09 117.283 1203.45 117.283C1199.78 117.283 1197.5 118.457 1197.51 120.46ZM1199.35 120.46C1199.34 119.341 1200.89 118.692 1203.45 118.692C1205.98 118.692 1207.53 119.341 1207.54 120.46C1207.53 121.572 1205.98 122.214 1203.45 122.2C1200.89 122.214 1199.34 121.572 1199.35 120.46ZM1203.77 116.385H1205.49V112.256H1207.54V116.945H1209.29V106.171H1207.54V110.729H1205.49V106.496H1203.77V116.385ZM1224.83 106.157H1222.98V116.475H1224.83V112.09H1227.32V110.522H1224.83V106.157ZM1210.94 114.804L1211.15 116.137C1214.22 116.137 1218.37 116.116 1222.13 115.488L1221.98 114.293C1220.51 114.493 1218.94 114.617 1217.37 114.693V113.775C1219.35 113.581 1220.58 112.773 1220.6 111.475C1220.58 110.046 1218.95 109.21 1216.43 109.21C1213.9 109.21 1212.25 110.046 1212.27 111.475C1212.25 112.78 1213.51 113.595 1215.52 113.775V114.756C1213.88 114.804 1212.3 114.804 1210.94 114.804ZM1211.39 108.706H1221.49V107.414H1217.37V105.999H1215.52V107.414H1211.39V108.706ZM1213.28 118.492H1222.99V119.68H1213.31V123.492H1225.47V122.2H1215.15V120.86H1224.83V117.214H1213.28V118.492ZM1214.04 111.475C1214.03 110.798 1214.94 110.419 1216.43 110.412C1217.91 110.419 1218.82 110.798 1218.82 111.475C1218.82 112.18 1217.91 112.601 1216.43 112.601C1214.94 112.601 1214.03 112.18 1214.04 111.475ZM1242.8 106.157H1241.02V123.657H1242.8V106.157ZM1227.94 113.713C1227.94 117.518 1229.43 119.901 1231.71 119.894C1233.88 119.901 1235.33 117.787 1235.51 114.369H1237.48V122.794H1239.24V106.496H1237.48V112.863H1235.5C1235.28 109.576 1233.84 107.559 1231.71 107.559C1229.43 107.559 1227.94 109.928 1227.94 113.713ZM1229.67 113.713C1229.66 110.93 1230.45 109.3 1231.71 109.3C1233 109.3 1233.8 110.93 1233.8 113.713C1233.8 116.503 1233 118.14 1231.71 118.126C1230.45 118.14 1229.66 116.503 1229.67 113.713ZM1253.46 107.47C1250.85 107.477 1249.01 109.859 1249.02 113.609C1249.01 117.38 1250.85 119.762 1253.46 119.762C1255.9 119.762 1257.67 117.642 1257.86 114.231H1261.48V123.692H1263.31V106.157H1261.48V112.718H1257.85C1257.57 109.486 1255.83 107.477 1253.46 107.47ZM1250.79 113.609C1250.79 110.854 1251.88 109.141 1253.46 109.127C1255.04 109.141 1256.13 110.854 1256.13 113.609C1256.13 116.385 1255.04 118.098 1253.46 118.098C1251.88 118.098 1250.79 116.385 1250.79 113.609ZM1279.98 106.157H1278.14V110.059H1274.81V111.593H1278.14V114.825H1274.71V116.372H1278.14V123.692H1279.98V106.157ZM1266 109.21H1271.94V112.622H1266.05V119.659H1267.37C1270.14 119.659 1272.37 119.576 1275.11 119.148L1274.96 117.615C1272.46 117.994 1270.36 118.098 1267.89 118.112V114.093H1273.75V107.704H1266V109.21ZM1290.05 106.461C1286.23 106.461 1283.8 107.691 1283.8 109.79C1283.8 111.848 1286.23 113.077 1290.05 113.064C1293.89 113.077 1296.3 111.848 1296.3 109.79C1296.3 107.691 1293.89 106.461 1290.05 106.461ZM1282.09 115.778H1289.14V117.615H1284V123.436H1296.1V117.615H1290.97V115.778H1298.04V114.265H1282.09V115.778ZM1285.72 109.79C1285.71 108.581 1287.36 107.891 1290.05 107.898C1292.73 107.891 1294.4 108.581 1294.4 109.79C1294.4 110.964 1292.73 111.634 1290.05 111.634C1287.36 111.634 1285.71 110.964 1285.72 109.79ZM1285.83 121.931V119.093H1294.29V121.931H1285.83ZM1306.74 106.448C1302.79 106.448 1300.48 107.511 1300.48 109.452C1300.48 111.42 1302.79 112.483 1306.74 112.497C1310.68 112.483 1312.98 111.42 1312.98 109.452C1312.98 107.511 1310.68 106.448 1306.74 106.448ZM1298.77 115.046H1314.73V113.561H1298.77V115.046ZM1300.67 117.78H1310.88V119.155H1300.71V123.492H1313.21V122.055H1302.52V120.488H1312.7V116.392H1300.67V117.78ZM1302.42 109.452C1302.41 108.43 1303.95 107.822 1306.74 107.829C1309.54 107.822 1311.08 108.43 1311.08 109.452C1311.08 110.543 1309.54 111.102 1306.74 111.102C1303.95 111.102 1302.41 110.543 1302.42 109.452ZM1333.94 114.017H1323.51V107.684H1321.64V115.543H1333.94V114.017ZM1319.74 121.358H1335.76V119.797H1319.74V121.358ZM1350.94 106.157H1349.09V123.657H1350.94V106.157ZM1336.39 118.644L1337.84 119.707C1340.97 116.385 1341.88 112.352 1341.89 108.029H1337.09V109.562H1340.12C1339.92 113.05 1338.88 116.033 1336.39 118.644ZM1341.5 119.873L1343.07 120.86C1346.17 117.104 1346.79 112.407 1346.79 108.029H1342.49V109.562H1345.03C1344.87 113.291 1344.05 116.848 1341.5 119.873ZM1367.28 111.282H1357.06V106.793H1355.22V112.767H1367.28V111.282ZM1353.09 116.454H1369.1V114.97H1353.09V116.454ZM1355.09 123.243H1367.39V121.731H1356.93V118.119H1355.09V123.243ZM1390.03 114.396H1374.08V115.909H1390.03V114.396ZM1374.92 112.021L1375.56 113.478C1378.6 113.133 1381.09 111.855 1382.04 109.997C1383 111.862 1385.51 113.133 1388.55 113.478L1389.22 112.021C1385.99 111.675 1383.51 110.246 1383.3 108.547H1388.6V107.021H1375.54V108.547H1380.81C1380.59 110.26 1378.09 111.675 1374.92 112.021ZM1375.97 120.453C1375.97 122.49 1378.25 123.63 1382.04 123.63C1385.81 123.63 1388.07 122.49 1388.09 120.453C1388.07 118.423 1385.81 117.256 1382.04 117.256C1378.25 117.256 1375.97 118.423 1375.97 120.453ZM1377.85 120.453C1377.84 119.327 1379.36 118.72 1382.04 118.706C1384.68 118.72 1386.22 119.327 1386.24 120.453C1386.22 121.565 1384.68 122.166 1382.04 122.166C1379.36 122.166 1377.84 121.565 1377.85 120.453ZM1396.79 108.961V107.069H1394.95V108.802C1394.94 111.406 1393.36 113.747 1390.63 114.721L1391.63 116.192C1393.67 115.439 1395.15 113.899 1395.9 111.938C1396.67 113.664 1398.11 115.025 1400.03 115.702L1401.01 114.244C1398.4 113.388 1396.79 111.254 1396.79 108.961ZM1392.99 120.37C1392.99 122.449 1395.23 123.63 1398.86 123.63C1402.47 123.63 1404.68 122.449 1404.68 120.37C1404.68 118.333 1402.47 117.131 1398.86 117.131C1395.23 117.131 1392.99 118.333 1392.99 120.37ZM1394.85 120.37C1394.83 119.258 1396.33 118.602 1398.86 118.602C1401.38 118.602 1402.86 119.258 1402.86 120.37C1402.86 121.53 1401.38 122.159 1398.86 122.173C1396.33 122.159 1394.83 121.53 1394.85 120.37ZM1402.66 116.717H1404.52V112.11H1407.05V110.564H1404.52V106.157H1402.66V116.717ZM1423.43 113.333H1407.45V114.818H1423.43V113.333ZM1409.35 117.622H1419.56V119.065H1409.39V123.471H1421.89V122H1411.2V120.432H1421.38V116.192H1409.35V117.622ZM1409.53 112.055H1421.52V110.564H1411.38V108.16H1421.35V106.675H1409.53V112.055ZM1429.83 107.401C1427.08 107.401 1425.06 109.113 1425.07 111.572C1425.06 114.037 1427.08 115.743 1429.83 115.743C1432.6 115.743 1434.59 114.037 1434.6 111.572C1434.59 109.113 1432.6 107.401 1429.83 107.401ZM1424.23 118.381L1424.45 119.928C1427.58 119.928 1431.84 119.907 1435.8 119.155L1435.66 117.801C1431.83 118.354 1427.42 118.388 1424.23 118.381ZM1426.9 111.572C1426.89 110.032 1428.14 109.01 1429.83 109.01C1431.53 109.01 1432.78 110.032 1432.79 111.572C1432.78 113.119 1431.53 114.134 1429.83 114.134C1428.14 114.134 1426.89 113.119 1426.9 111.572ZM1436.75 123.692H1438.6V106.157H1436.75V123.692ZM1461.06 115.122H1453.98V113.105H1452.16V115.122H1445.1V116.634H1461.06V115.122ZM1445.95 112.539L1446.52 113.968C1449.53 113.692 1451.98 112.67 1453.07 111.04C1454.14 112.67 1456.6 113.692 1459.63 113.968L1460.19 112.539C1456.71 112.262 1454.31 110.985 1454.1 109.307H1459.46V107.822H1453.98V106.151H1452.16V107.822H1446.71V109.307H1452.03C1451.81 110.985 1449.41 112.262 1445.95 112.539ZM1446.99 120.709C1446.99 122.601 1449.24 123.63 1453.06 123.63C1456.87 123.63 1459.1 122.601 1459.11 120.709C1459.1 118.816 1456.87 117.787 1453.06 117.787C1449.24 117.787 1446.99 118.816 1446.99 120.709ZM1448.88 120.709C1448.86 119.707 1450.37 119.175 1453.06 119.175C1455.73 119.175 1457.25 119.707 1457.26 120.709C1457.25 121.71 1455.73 122.235 1453.06 122.221C1450.37 122.235 1448.86 121.71 1448.88 120.709ZM1468.29 109.804V109.7H1472.16V108.215H1468.31V106.157H1466.44V108.215H1462.56V109.7H1466.44V109.804C1466.44 112.062 1464.76 114.175 1462.07 114.997L1462.98 116.448C1465.08 115.785 1466.63 114.355 1467.41 112.539C1468.23 114.175 1469.79 115.446 1471.85 116.019L1472.72 114.576C1470.01 113.83 1468.28 111.89 1468.29 109.804ZM1464.47 120.398C1464.46 122.456 1466.71 123.63 1470.42 123.63C1474.1 123.63 1476.35 122.456 1476.36 120.398C1476.35 118.36 1474.1 117.173 1470.42 117.18C1466.71 117.173 1464.46 118.36 1464.47 120.398ZM1466.33 120.398C1466.33 119.286 1467.82 118.63 1470.42 118.63C1473.01 118.63 1474.52 119.286 1474.52 120.398C1474.52 121.544 1473.01 122.186 1470.42 122.186C1467.82 122.186 1466.33 121.544 1466.33 120.398ZM1474.45 116.848H1476.31V106.171H1474.45V116.848ZM1492.97 106.157H1491.11V123.692H1492.97V106.157ZM1479.08 113.609C1479.08 117.38 1480.96 119.762 1483.6 119.762C1486.21 119.762 1488.12 117.38 1488.12 113.609C1488.12 109.859 1486.21 107.477 1483.6 107.47C1480.96 107.477 1479.08 109.859 1479.08 113.609ZM1480.86 113.609C1480.86 110.854 1481.98 109.141 1483.6 109.127C1485.22 109.141 1486.32 110.854 1486.32 113.609C1486.32 116.385 1485.22 118.098 1483.6 118.098C1481.98 118.098 1480.86 116.385 1480.86 113.609ZM1503.96 107.836H1495.84V119.286H1503.96V116.579H1507.92V123.692H1509.75V106.157H1507.92V110.28H1503.96V107.836ZM1497.68 117.808V109.293H1502.15V117.808H1497.68ZM1503.96 115.08V111.793H1507.92V115.08H1503.96ZM1044.83 141.836H1036.62V153.334H1044.83V141.836ZM1038.45 151.843V143.307H1043.02V151.843H1038.45ZM1048.28 157.692H1050.15V140.157H1048.28V157.692ZM1066.32 140.979H1054.34V142.478H1064.48C1064.48 143.735 1064.45 145.192 1064.05 147.153H1052.33V148.659H1059.39V151.642H1053.97V153.134H1064.53V157.657H1066.4V151.642H1061.23V148.659H1068.35V147.153H1065.91C1066.32 145.123 1066.32 143.583 1066.32 142.285V140.979ZM1082.25 141.698V140.744H1080.32V141.698C1080.32 144.052 1077.49 146.207 1074.06 146.67L1074.8 148.182C1077.65 147.727 1080.15 146.249 1081.29 144.177C1082.43 146.235 1084.94 147.727 1087.8 148.182L1088.54 146.67C1085.09 146.207 1082.25 144.025 1082.25 141.698ZM1073.3 151.435H1080.33V157.657H1082.15V151.435H1089.26V149.902H1073.3V151.435ZM1095.68 141.401C1092.93 141.401 1090.91 143.113 1090.92 145.572C1090.91 148.037 1092.93 149.743 1095.68 149.743C1098.45 149.743 1100.44 148.037 1100.45 145.572C1100.44 143.113 1098.45 141.401 1095.68 141.401ZM1090.08 152.381L1090.31 153.928C1093.43 153.928 1097.69 153.907 1101.65 153.155L1101.51 151.801C1097.68 152.354 1093.27 152.388 1090.08 152.381ZM1092.75 145.572C1092.74 144.032 1093.99 143.01 1095.68 143.01C1097.38 143.01 1098.63 144.032 1098.64 145.572C1098.63 147.119 1097.38 148.134 1095.68 148.134C1093.99 148.134 1092.74 147.119 1092.75 145.572ZM1102.6 157.692H1104.46V140.157H1102.6V157.692ZM1112.74 144.612V141.615H1110.89V144.612C1110.88 147.823 1109.06 151.173 1106.38 152.471L1107.53 153.963C1109.52 152.927 1111.05 150.834 1111.83 148.348C1112.6 150.682 1114.08 152.644 1115.99 153.631L1117.13 152.146C1114.53 150.876 1112.72 147.706 1112.74 144.612ZM1118.45 157.657H1120.31V148.721H1123.11V147.14H1120.31V140.157H1118.45V157.657ZM1133.23 141.843H1129.31V139.999H1127.47V141.843H1123.38V143.334H1133.23V141.843ZM1124.36 147.243C1124.35 149.135 1125.99 150.385 1128.37 150.385C1130.73 150.385 1132.4 149.135 1132.42 147.243C1132.4 145.344 1130.73 144.073 1128.37 144.073C1125.99 144.073 1124.35 145.344 1124.36 147.243ZM1126.09 147.243C1126.08 146.166 1126.98 145.482 1128.37 145.482C1129.74 145.482 1130.68 146.166 1130.69 147.243C1130.68 148.314 1129.74 149.011 1128.37 149.011C1126.98 149.011 1126.08 148.314 1126.09 147.243ZM1126.42 157.436H1137.94V151.242H1136.11V152.892H1128.26V151.242H1126.42V157.436ZM1128.26 155.972V154.308H1136.11V155.972H1128.26ZM1133.26 149.066H1136.09V150.53H1137.94V140.157H1136.09V144.128H1133.28V145.641H1136.09V147.554H1133.26V149.066ZM1154.51 140.157H1152.66V157.657H1154.51V140.157ZM1140.13 152.899L1140.4 154.446C1143.6 154.446 1147.83 154.398 1151.71 153.756L1151.58 152.36C1150.04 152.561 1148.4 152.685 1146.78 152.761V151.069C1148.81 150.786 1150.13 149.584 1150.13 147.892C1150.13 145.917 1148.39 144.619 1145.83 144.619C1143.29 144.619 1141.57 145.917 1141.58 147.892C1141.57 149.598 1142.9 150.807 1144.93 151.076V152.83C1143.22 152.878 1141.58 152.892 1140.13 152.899ZM1140.5 143.728H1151.18V142.243H1146.79V140.192H1144.93V142.243H1140.5V143.728ZM1143.33 147.892C1143.32 146.773 1144.36 146.055 1145.83 146.055C1147.33 146.055 1148.36 146.773 1148.36 147.892C1148.36 149.004 1147.33 149.695 1145.83 149.688C1144.36 149.695 1143.32 149.004 1143.33 147.892ZM1170.36 140.157H1168.5V157.637H1170.36V148.686H1173.07V147.133H1170.36V140.157ZM1156.73 152.975L1157.77 154.412C1163.54 151.573 1165.77 147.057 1165.78 142.008H1157.61V143.541H1163.9C1163.5 147.623 1161.13 150.786 1156.73 152.975ZM1192.7 140.157H1190.94V157.657H1192.7V140.157ZM1177.43 152.844L1178.58 154.218C1180.29 153.155 1181.47 151.2 1182.1 148.914C1182.7 151.028 1183.85 152.809 1185.53 153.811L1186.63 152.443C1184.17 151.028 1182.97 148.037 1182.97 145.04V143.638H1185.98V142.126H1177.97V143.638H1181.18V145.04C1181.18 148.155 1179.91 151.338 1177.43 152.844ZM1184.68 147.865H1187.41V156.773H1189.15V140.53H1187.41V146.359H1184.68V147.865ZM1208.13 140.151H1206.27V153.01H1208.13V146.925H1210.67V145.378H1208.13V140.151ZM1194.64 145.71C1194.63 148.258 1196.66 150.068 1199.31 150.068C1201.94 150.068 1203.95 148.258 1203.96 145.71C1203.95 143.155 1201.94 141.359 1199.31 141.359C1196.66 141.359 1194.63 143.155 1194.64 145.71ZM1196.46 145.71C1196.45 144.073 1197.7 142.975 1199.31 142.975C1200.92 142.975 1202.14 144.073 1202.16 145.71C1202.14 147.333 1200.92 148.445 1199.31 148.445C1197.7 148.445 1196.45 147.333 1196.46 145.71ZM1197.04 157.298H1208.88V155.779H1198.88V151.67H1197.04V157.298ZM1224.7 140.157H1222.86V157.657H1224.7V148.79H1227.5V147.25H1224.7V140.157ZM1210.97 144.412H1221.34V142.899H1217.14V140.385H1215.29V142.899H1210.97V144.412ZM1211.87 149.778C1211.86 152.174 1213.7 153.838 1216.23 153.845C1218.73 153.838 1220.56 152.174 1220.57 149.778C1220.56 147.388 1218.73 145.703 1216.23 145.703C1213.7 145.703 1211.86 147.388 1211.87 149.778ZM1213.64 149.778C1213.63 148.272 1214.73 147.236 1216.23 147.236C1217.7 147.236 1218.79 148.272 1218.8 149.778C1218.79 151.29 1217.7 152.305 1216.23 152.298C1214.73 152.305 1213.63 151.29 1213.64 149.778ZM1241.92 145.282H1231.69V140.793H1229.86V146.767H1241.92V145.282ZM1227.72 150.454H1243.74V148.97H1227.72V150.454ZM1229.73 157.243H1242.03V155.731H1231.57V152.119H1229.73V157.243ZM1262.7 140.979H1250.72V142.478H1260.86C1260.86 143.735 1260.83 145.316 1260.43 147.45H1248.72V148.963H1264.73V147.45H1262.29C1262.7 145.185 1262.7 143.507 1262.7 142.202V140.979ZM1250.41 152.858H1260.95V157.699H1262.8V151.387H1250.41V152.858ZM1281.36 149.08H1274.29V147.195H1279.29V140.572H1277.44V142.457H1269.33V140.572H1267.49V147.195H1272.45V149.08H1265.4V150.593H1281.36V149.08ZM1267.17 153.631H1277.53V157.657H1279.4V152.146H1267.17V153.631ZM1269.33 145.703V143.852H1277.44V145.703H1269.33ZM1284.78 141.062H1282.92V149.122H1291V145.903H1294.82V149.715H1296.68V140.157H1294.82V144.356H1291V141.062H1289.16V143.61H1284.78V141.062ZM1284.78 147.623V145.061H1289.16V147.623H1284.78ZM1285.27 157.416H1296.66V150.537H1294.82V152.499H1287.11V150.537H1285.27V157.416ZM1287.11 155.903V153.949H1294.82V155.903H1287.11ZM1314.73 149.294H1298.77V150.779H1314.73V149.294ZM1300.48 144.246C1300.48 146.456 1302.93 147.789 1306.74 147.789C1310.53 147.789 1312.98 146.456 1312.98 144.246C1312.98 142.05 1310.53 140.731 1306.74 140.744C1302.93 140.731 1300.48 142.05 1300.48 144.246ZM1300.78 157.298H1312.93V155.779H1302.65V152.202H1300.78V157.298ZM1302.41 144.246C1302.39 142.989 1304.06 142.229 1306.74 142.229C1309.42 142.229 1311.08 142.989 1311.08 144.246C1311.08 145.537 1309.42 146.276 1306.74 146.276C1304.06 146.276 1302.39 145.537 1302.41 144.246ZM1333.38 140.157H1331.52V157.692H1333.38V148.472H1336.18V146.932H1333.38V140.157ZM1320.48 153.348H1321.89C1325.14 153.355 1327.46 153.265 1330.2 152.789L1329.98 151.207C1327.47 151.663 1325.27 151.787 1322.33 151.801V143.348H1328.67V141.843H1320.48V153.348ZM1344.39 140.523C1340.56 140.523 1338.13 141.773 1338.13 143.887C1338.13 145.965 1340.56 147.202 1344.39 147.202C1348.23 147.202 1350.63 145.965 1350.63 143.887C1350.63 141.773 1348.23 140.523 1344.39 140.523ZM1336.43 150.047H1352.38V148.548H1336.43V150.047ZM1338.34 157.436H1350.43V151.615H1338.34V157.436ZM1340.06 143.887C1340.05 142.678 1341.7 141.988 1344.39 141.994C1347.07 141.988 1348.73 142.678 1348.73 143.887C1348.73 145.054 1347.07 145.738 1344.39 145.744C1341.7 145.738 1340.05 145.054 1340.06 143.887ZM1340.17 155.931V153.093H1348.63V155.931H1340.17ZM1371.03 140.157H1369.17V157.692H1371.03V148.472H1373.83V146.932H1371.03V140.157ZM1358.14 153.348H1359.54C1362.79 153.355 1365.12 153.265 1367.85 152.789L1367.63 151.207C1365.12 151.663 1362.92 151.787 1359.99 151.801V143.348H1366.32V141.843H1358.14V153.348ZM1388.66 140.157H1386.81V143.61H1383.13V145.137H1386.81V152.264H1388.66V140.157ZM1374.05 148.728L1375.05 150.206C1377.09 149.446 1378.58 147.927 1379.34 145.986C1380.1 147.72 1381.53 149.101 1383.45 149.798L1384.43 148.369C1381.82 147.464 1380.23 145.275 1380.24 142.948V141.028H1378.39V142.823C1378.38 145.441 1376.8 147.768 1374.05 148.728ZM1376.12 156.138L1376.82 157.575C1379.56 157.14 1381.85 155.807 1382.92 153.949C1383.98 155.827 1386.27 157.133 1389.03 157.575L1389.74 156.138C1386.39 155.634 1383.87 153.79 1383.89 151.559V151.083H1381.98V151.559C1381.97 153.714 1379.39 155.634 1376.12 156.138ZM1408.68 140.157H1406.82V157.637H1408.68V148.686H1411.4V147.133H1408.68V140.157ZM1395.06 152.975L1396.09 154.412C1401.86 151.573 1404.09 147.057 1404.1 142.008H1395.93V143.541H1402.22C1401.82 147.623 1399.45 150.786 1395.06 152.975ZM1418.17 145.323V143.452H1422.16V141.919H1412.3V143.452H1416.29V145.323C1416.28 148.327 1414.32 151.622 1411.69 152.851L1412.77 154.315C1414.8 153.327 1416.44 151.2 1417.26 148.714C1418.07 151.035 1419.7 152.968 1421.77 153.88L1422.78 152.416C1420.09 151.269 1418.17 148.244 1418.17 145.323ZM1424.37 157.657H1426.23V140.157H1424.37V157.657ZM1442.05 140.157H1440.19V157.637H1442.05V148.686H1444.77V147.133H1442.05V140.157ZM1428.43 152.975L1429.46 154.412C1435.23 151.573 1437.46 147.057 1437.47 142.008H1429.3V143.541H1435.59C1435.19 147.623 1432.82 150.786 1428.43 152.975ZM1455.45 151.718V150.883H1453.66V151.718C1453.65 153.417 1452.43 155.233 1450.19 156.048L1451.11 157.402C1452.76 156.801 1453.92 155.641 1454.55 154.26C1455.09 155.696 1456.16 156.932 1457.84 157.561C1459.44 156.898 1460.49 155.606 1461.04 154.204C1461.65 155.641 1462.83 156.808 1464.55 157.402L1465.47 156.048C1463.19 155.296 1461.99 153.541 1462 151.718V150.883H1460.18V151.718C1460.18 153.058 1459.39 154.729 1457.79 155.765C1456.2 154.812 1455.45 153.224 1455.45 151.718ZM1449.74 145.275C1449.74 147.699 1451.71 149.384 1454.4 149.384C1457.08 149.384 1459.05 147.699 1459.05 145.275C1459.05 142.83 1457.08 141.145 1454.4 141.145C1451.71 141.145 1449.74 142.83 1449.74 145.275ZM1451.56 145.275C1451.54 143.742 1452.74 142.706 1454.4 142.72C1456.04 142.706 1457.23 143.742 1457.23 145.275C1457.23 146.801 1456.04 147.837 1454.4 147.844C1452.74 147.837 1451.54 146.801 1451.56 145.275ZM1462.05 150.13H1463.9V140.171H1462.05V150.13ZM1469.88 150.655H1468.05V157.436H1479.96V150.655H1478.1V152.512H1469.88V150.655ZM1466.07 149.543H1482.03V148.023H1466.07V149.543ZM1466.93 145.482L1467.62 146.939C1470.44 146.539 1472.92 145.206 1474.06 143.334C1475.17 145.199 1477.65 146.539 1480.48 146.939L1481.15 145.482C1477.79 145.061 1475 143.113 1475 141.09V140.344H1473.1V141.09C1473.1 143.175 1470.32 145.033 1466.93 145.482ZM1469.88 155.952V153.949H1478.1V155.952H1469.88ZM1497.27 140.157H1495.44V157.657H1497.27V140.157ZM1483.83 153.21H1485.29C1488.05 153.217 1490.87 153.003 1493.96 152.36L1493.72 150.8C1490.9 151.38 1488.21 151.594 1485.65 151.615V141.863H1483.83V153.21ZM1513.08 140.157H1511.22V157.692H1513.08V148.472H1515.88V146.932H1513.08V140.157ZM1500.18 153.348H1501.59C1504.84 153.355 1507.16 153.265 1509.9 152.789L1509.68 151.207C1507.17 151.663 1504.97 151.787 1502.03 151.801V143.348H1508.37V141.843H1500.18V153.348ZM1518.12 156.131C1518.86 156.131 1519.5 155.51 1519.5 154.75C1519.5 153.99 1518.86 153.369 1518.12 153.369C1517.35 153.369 1516.72 153.99 1516.73 154.75C1516.72 155.51 1517.35 156.131 1518.12 156.131Z" fill="#666666"/>
<path d="M290.891 3.01243H288.508V15.2017H290.891V3.01243ZM275.373 11.2238L275.628 13.2196C277.956 13.2196 281.54 13.1851 284.309 12.6602L284.185 10.837C283.722 10.8923 283.232 10.9475 282.721 10.9889V6.36878H283.916V4.37293H275.698V6.36878H276.816V11.2169C276.298 11.2238 275.808 11.2238 275.373 11.2238ZM277.714 18.7859L278.584 20.7196C281.499 20.3467 283.598 19.1865 284.696 17.5912C285.808 19.1865 287.914 20.3467 290.808 20.7196L291.713 18.7859C287.866 18.3646 285.925 16.5622 285.925 14.7528V14.3039H283.453V14.7528C283.446 16.5622 281.533 18.3646 277.714 18.7859ZM279.095 11.1754V6.36878H280.49V11.1271C280.021 11.1478 279.558 11.1616 279.095 11.1754ZM283.439 9.70442H285.145V13.5787H287.459V3.37845H285.145V7.69475H283.439V9.70442ZM308.274 16.7762H301.34V14.0898H306.817V12.0663H296.375V10.0635H306.402V4.17265H293.861V6.17541H303.937V8.10912H293.888V14.0898H298.875V16.7762H292.017V18.8135H308.274V16.7762ZM317.853 5.3605V4.08287H315.194V5.3605C315.18 7.94337 312.86 10.7334 308.91 11.4378L309.98 13.5097C313.06 12.8881 315.367 11.134 316.534 8.86878C317.68 11.1478 319.98 12.895 323.081 13.5097L324.179 11.4378C320.153 10.7541 317.846 7.97099 317.853 5.3605ZM308.502 18.6202H324.759V16.5691H308.502V18.6202ZM345.012 11.2099H328.797V13.2196H345.012V11.2099ZM329.508 8.61326L330.344 10.5539C333.707 10.2362 335.937 8.96547 336.877 7.25276C337.83 8.97238 340.088 10.2362 343.451 10.5539L344.321 8.61326C340.91 8.30249 339.1 7.08702 338.686 5.84392H343.548V3.83425H330.268V5.84392H335.088C334.667 7.09392 332.837 8.30249 329.508 8.61326ZM330.647 17.5083C330.647 19.6146 332.989 20.8025 336.87 20.7956C340.73 20.8025 343.051 19.6146 343.065 17.5083C343.051 15.4227 340.73 14.2141 336.87 14.2141C332.989 14.2141 330.647 15.4227 330.647 17.5083ZM333.189 17.5083C333.175 16.5829 334.411 16.1478 336.87 16.1409C339.287 16.1478 340.558 16.5829 340.565 17.5083C340.558 18.4337 339.287 18.8619 336.87 18.855C334.411 18.8619 333.175 18.4337 333.189 17.5083ZM360.648 4.86326H354.605V2.99862H352.14V4.86326H346.055V6.85912H360.648V4.86326ZM345.282 16.5276H352.14V20.8163H354.605V16.5276H361.539V14.511H345.282V16.5276ZM347.243 10.6091C347.236 12.5635 349.543 13.6409 353.376 13.6409C357.202 13.6409 359.501 12.5635 359.508 10.6091C359.501 8.62707 357.202 7.55663 353.376 7.55663C349.543 7.55663 347.236 8.62707 347.243 10.6091ZM349.833 10.6091C349.826 9.78729 351 9.40055 353.376 9.40055C355.731 9.40055 356.912 9.78729 356.925 10.6091C356.912 11.4102 355.731 11.797 353.376 11.7901C351 11.797 349.826 11.4102 349.833 10.6091ZM376.104 4.02072H363.756V6.00967H373.618C373.604 7.4116 373.563 8.91022 373.169 10.8992H361.767V12.895H378.024V10.8992H375.703C376.104 8.72376 376.104 7.03177 376.104 5.53315V4.02072ZM363.839 20.471H376.608V18.4682H366.29V14.442H363.839V20.471ZM393.128 3.01243H390.607V20.8439H393.128V3.01243ZM378.77 10.5953C378.763 14.5041 380.752 16.9489 383.473 16.9489C386.16 16.9489 388.148 14.5041 388.155 10.5953C388.148 6.7279 386.16 4.26934 383.473 4.26934C380.752 4.26934 378.763 6.7279 378.77 10.5953ZM381.18 10.5953C381.166 7.96409 382.092 6.52072 383.473 6.52072C384.827 6.52072 385.745 7.96409 385.745 10.5953C385.745 13.2541 384.827 14.6906 383.473 14.6906C382.092 14.6906 381.166 13.2541 381.18 10.5953ZM408.839 3.04005H406.339V16.1271H408.839V10.2224H411.243V8.15055H408.839V3.04005ZM395.352 6.12017H401.098V7.81906H395.38V13.5718H396.871C400.483 13.5718 402.769 13.5028 405.31 13.0331L405.048 11.0166C402.79 11.424 400.794 11.5552 397.866 11.5691V9.69061H403.529V4.1174H395.352V6.12017ZM397.362 20.4917H409.516V18.482H399.889V15.0773H397.362V20.4917ZM414.323 14.5456V14.7666H416.906V14.5456C416.913 13.1851 417.403 12.5497 418.494 11.8936C419.786 11.1202 420.615 10.0981 420.615 8.48895C420.615 6.07873 418.688 4.66298 415.96 4.66298C413.467 4.66298 411.423 5.98204 411.367 8.72376H414.144C414.192 7.58425 415.035 6.97652 415.939 6.97652C416.892 6.97652 417.652 7.61188 417.652 8.57873C417.652 9.49033 417.003 10.0981 416.153 10.6367C414.993 11.3688 414.337 12.1146 414.323 14.5456ZM414.026 17.5359C414.012 18.4406 414.765 19.1727 415.67 19.1727C416.54 19.1727 417.3 18.4406 417.307 17.5359C417.3 16.6381 416.54 15.9061 415.67 15.9061C414.765 15.9061 414.012 16.6381 414.026 17.5359Z" fill="#FF8A33"/>
<path d="M281.192 116.74H296.844V98.078H308.11C326.342 98.078 337.006 87.93 337.006 72.278C337.006 56.798 326.342 46.65 308.11 46.65H281.192V116.74ZM296.844 84.232V60.496H307.422C316.108 60.496 321.354 64.538 321.354 72.278C321.354 80.104 316.108 84.232 307.422 84.232H296.844ZM368.24 117.944C380.452 117.944 390.342 111.322 392.922 101.69H377.528C376.238 104.098 372.626 105.646 368.24 105.646C362.478 105.646 358.436 102.292 357.232 96.444H394.126C394.384 94.638 394.47 93.004 394.47 91.542C394.47 76.148 383.634 65.14 368.24 65.14C352.846 65.14 342.01 76.234 342.01 91.542C342.01 106.936 352.846 117.944 368.24 117.944ZM357.146 86.554C358.436 80.534 362.22 77.266 368.24 77.266C374.26 77.266 378.216 80.534 379.506 86.554H357.146ZM433.245 66.344H423.269V51.38H407.961V66.344H397.985V79.502H407.961V116.74H423.269V79.502H433.245V66.344ZM464.95 46.65V116.74H515.604V102.894H480.602V46.65H464.95ZM546.887 65.14C531.321 65.14 520.141 76.234 520.141 91.542C520.141 106.85 531.321 117.944 546.887 117.944C562.453 117.944 573.633 106.85 573.633 91.542C573.633 76.234 562.453 65.14 546.887 65.14ZM546.887 78.212C554.111 78.212 558.841 83.802 558.841 91.542C558.841 99.282 554.111 104.872 546.887 104.872C539.663 104.872 534.933 99.282 534.933 91.542C534.933 83.802 539.663 78.212 546.887 78.212ZM603.672 65.14C590.858 65.14 580.624 71.332 580.624 81.136C580.624 91.37 588.536 95.068 600.576 96.874C609.262 98.164 612.702 99.712 612.702 102.12C612.702 104.442 609.09 106.248 604.188 106.248C599.372 106.248 595.588 104.098 595.072 100.83H580.28C580.796 111.408 590.772 117.944 603.93 117.944C616.744 117.944 627.58 111.58 627.58 101.26C627.58 92.574 622.248 87.672 607.37 85.436C598.77 84.06 595.416 82.856 595.416 80.362C595.416 78.126 598.77 76.492 603.414 76.492C607.886 76.492 611.412 78.384 611.928 81.48H626.72C626.118 71.504 616.228 65.14 603.672 65.14ZM660.254 117.944C672.466 117.944 682.356 111.322 684.936 101.69H669.542C668.252 104.098 664.64 105.646 660.254 105.646C654.492 105.646 650.45 102.292 649.246 96.444H686.14C686.398 94.638 686.484 93.004 686.484 91.542C686.484 76.148 675.648 65.14 660.254 65.14C644.86 65.14 634.024 76.234 634.024 91.542C634.024 106.936 644.86 117.944 660.254 117.944ZM649.16 86.554C650.45 80.534 654.234 77.266 660.254 77.266C666.274 77.266 670.23 80.534 671.52 86.554H649.16ZM308.454 142.93C292.63 142.93 280.074 150.498 280.074 163.14C280.074 176.298 288.33 182.576 303.552 185.414C316.022 187.736 320.752 189.972 320.752 195.562C320.752 200.12 316.022 203.302 309.658 203.302C300.714 203.302 294.866 198.83 294.006 192.122H277.924C278.612 207.086 291.254 216.46 308.54 216.46C324.192 216.46 336.834 208.29 336.834 194.874C336.834 184.382 331.33 176.384 315.162 173.03C301.488 170.192 296.07 168.386 296.07 163.14C296.07 158.926 300.112 156.002 307.422 156.002C314.904 156.002 319.462 159.7 320.408 165.806H336.576C335.802 152.476 324.106 142.93 308.454 142.93ZM379.396 164.344L368.388 195.476L357.466 164.344H340.524L360.39 213.364L351.274 235.724H366.324L395.306 164.344H379.396ZM401.783 214.74H417.091V188.854C417.091 181.028 420.703 176.298 426.723 176.298C432.485 176.298 435.581 180.512 435.581 188.166V214.74H450.889V185.586C450.889 171.654 442.891 163.14 431.195 163.14C424.745 163.14 420.101 165.462 417.091 169.504V164.344H401.783V214.74ZM483.174 215.944C489.796 215.944 494.612 213.622 497.622 209.58V214.74H512.93V142.5H497.622V169.504C494.612 165.462 489.796 163.14 483.174 163.14C468.726 163.14 458.664 174.234 458.664 189.542C458.664 204.85 468.726 215.944 483.174 215.944ZM485.582 202.872C478.272 202.872 473.628 197.282 473.628 189.542C473.628 181.802 478.272 176.212 485.582 176.212C493.064 176.212 497.88 181.802 497.88 189.542C497.88 197.282 493.064 202.872 485.582 202.872ZM524.485 214.74H539.793V188.94C539.793 181.286 544.695 176.642 552.865 176.642C555.875 176.642 558.541 177.244 560.691 178.362L560.519 164C558.541 163.312 556.735 163.14 553.897 163.14C547.447 163.14 542.803 165.462 539.793 169.504V164.344H524.485V214.74ZM590.307 163.14C574.741 163.14 563.561 174.234 563.561 189.542C563.561 204.85 574.741 215.944 590.307 215.944C605.873 215.944 617.053 204.85 617.053 189.542C617.053 174.234 605.873 163.14 590.307 163.14ZM590.307 176.212C597.531 176.212 602.261 181.802 602.261 189.542C602.261 197.282 597.531 202.872 590.307 202.872C583.083 202.872 578.353 197.282 578.353 189.542C578.353 181.802 583.083 176.212 590.307 176.212ZM626.022 214.74H641.33V187.392C641.588 180.254 644.254 176.298 649.242 176.298C654.832 176.298 657.756 180.512 657.756 188.166V214.74H673.064V187.392C673.322 180.254 675.988 176.298 680.976 176.298C686.566 176.298 689.49 180.512 689.49 188.166V214.74H704.798V185.586C704.798 171.568 697.058 163.14 685.448 163.14C677.794 163.14 672.462 165.548 668.678 170.364C665.324 165.72 660.078 163.14 653.714 163.14C648.124 163.14 644.34 165.118 641.33 169.16V164.344H626.022V214.74ZM738.779 215.944C750.991 215.944 760.881 209.322 763.461 199.69H748.067C746.777 202.098 743.165 203.646 738.779 203.646C733.017 203.646 728.975 200.292 727.771 194.444H764.665C764.923 192.638 765.009 191.004 765.009 189.542C765.009 174.148 754.173 163.14 738.779 163.14C723.385 163.14 712.549 174.234 712.549 189.542C712.549 204.936 723.385 215.944 738.779 215.944ZM727.685 184.554C728.975 178.534 732.759 175.266 738.779 175.266C744.799 175.266 748.755 178.534 750.045 184.554H727.685Z" fill="#1C1A19"/>
<g filter="url(#filter0_d_663_2047)">
<circle cx="782" cy="207" r="9" fill="url(#paint0_linear_663_2047)"/>
</g>
<g clip-path="url(#clip0_663_2047)">
<path d="M78.7718 1662.17C53.9802 1681.38 46.6713 1698.89 44.9083 1711.95C42.3373 1731.2 51.1154 1746.54 41.0518 1768.18C37.379 1776.12 32.1636 1782.67 34.6244 1785.76C37.4892 1789.41 48.9117 1785.76 56.037 1781.9C77.5965 1770.27 84.2076 1743.96 86.448 1735.13C94.6384 1702.61 84.2076 1674.39 78.735 1662.17H78.7718Z" fill="#784746"/>
<path d="M439.357 1726.74C440.258 1735.72 440.708 1745.33 440.483 1755.44C439.206 1809.48 418.974 1852.25 402.607 1879H375.993C375.467 1874.45 377.494 1870.1 381.098 1867.88C385.528 1865.16 390.182 1867.06 390.708 1867.3C391.871 1861 392.735 1853.92 392.96 1846.22C393.711 1821.46 387.667 1801.12 382.224 1787.67C401.256 1767.37 420.287 1747.08 439.319 1726.78L439.357 1726.74Z" fill="#C99C71"/>
<path d="M495.685 1726.74C496.557 1735.72 496.993 1745.33 496.775 1755.44C495.54 1809.48 475.96 1852.25 460.121 1879H434.365C433.857 1874.45 435.818 1870.1 439.306 1867.88C443.592 1865.16 448.097 1867.06 448.605 1867.3C449.732 1861 450.567 1853.92 450.785 1846.22C451.512 1821.46 445.663 1801.12 440.396 1787.67C458.813 1767.37 477.231 1747.08 495.649 1726.78L495.685 1726.74Z" fill="#E6B88C"/>
<path d="M155.424 1798.64C149.914 1805.15 142.642 1812.55 133.313 1819.69C117.704 1831.65 102.388 1838.16 91.2594 1841.84C90.9656 1842.46 86.9989 1851.29 91.8103 1857.92C93.6834 1860.46 97.5032 1863.62 100.405 1862.59C103.527 1861.45 105.363 1855.49 103.416 1847.95C113.517 1848.2 124.792 1847.87 137.023 1846.47C160.97 1843.75 181.207 1837.86 196.89 1831.87C183.043 1820.79 169.234 1809.72 155.387 1798.6L155.424 1798.64Z" fill="#784746"/>
<path d="M482.893 1790.1C475.584 1792.28 468.275 1794.45 461.003 1796.58C448.662 1800.22 436.321 1803.9 423.981 1807.55C416.011 1815.31 402.201 1827.34 382.478 1837.46C371.239 1843.24 359.927 1847.54 348.688 1850.56C285.332 1867.74 226.126 1845.63 213.197 1840.81C197.661 1835.03 173.567 1824.1 147.637 1803.42C137.647 1802.65 124.719 1799.86 116.124 1790.1C107.897 1780.8 108.705 1770.75 104.518 1756.03C101.213 1744.52 94.5649 1728.95 79.6165 1711.95C113.737 1707.46 147.858 1702.94 182.015 1698.45C209.745 1718.72 233.875 1725.31 249.742 1727.74C303.512 1736.09 379.356 1714.75 419.83 1689.51C424.164 1686.82 434.375 1680.13 448.038 1680.38C467.026 1680.72 483.738 1694.18 492.002 1706.99C506.656 1729.65 503.204 1762.99 482.893 1790.1Z" fill="#945856"/>
<path d="M263.148 1644.99C262.34 1647.09 261.311 1649.22 260.209 1651.28C257.161 1656.87 253.672 1661.8 252.203 1663.75C233.141 1690.24 213.785 1690.47 187.083 1703.67C186.532 1703.93 185.945 1704.23 185.357 1704.52C177.167 1708.68 168.242 1714.12 158.435 1721.92C153.367 1725.97 144.772 1733.22 133.864 1734.29C132.395 1734.43 130.926 1734.51 129.383 1734.4C121.266 1733.92 117.52 1730.06 106.134 1725.27C98.7152 1722.15 87.66 1718.5 72.9319 1716.99V1692.05C69.3326 1681.27 65.7332 1670.45 62.1338 1659.63C67.3125 1653.38 74.5847 1646.09 84.5381 1639.69C111.533 1622.36 139.777 1623.61 150.906 1624.71C152.816 1627.51 155.754 1631.15 160.015 1634.69C163.981 1637.96 167.838 1640.02 170.813 1641.35C177.865 1639.76 188.846 1637.33 202.362 1634.69C215.401 1632.15 225.575 1630.45 233.581 1629.31C258.52 1625.85 262.156 1628.32 263.735 1630.56C266.27 1634.1 265.315 1639.54 263.074 1645.02L263.148 1644.99Z" fill="#945856"/>
<path d="M263.148 1644.99C262.34 1647.09 261.311 1649.22 260.209 1651.28C257.161 1656.87 253.672 1661.8 252.203 1663.75C233.141 1690.25 213.785 1690.47 187.083 1703.67C186.679 1703.71 186.275 1703.75 185.835 1703.82C185.688 1704.04 185.504 1704.3 185.357 1704.56C182.088 1709.3 177.167 1715.34 169.968 1721.01C159.868 1729.06 149.841 1732.89 143.414 1734.73C140.108 1734.88 136.913 1734.73 133.864 1734.32C117.079 1732.08 104.371 1721.92 101.433 1709.41C99.156 1699.59 103.527 1690.8 105.694 1687.08C131.734 1692.34 154.873 1685.61 163.541 1670.34C165.377 1667.17 167.287 1662.32 167.397 1655.33C176.763 1650.58 191.234 1644.66 209.818 1642.45C222.71 1640.94 233.912 1641.64 242.396 1642.89C249.301 1643.59 256.243 1644.29 263.148 1644.99Z" fill="#E6B88C"/>
<path d="M143.267 1674.02C147.747 1670.74 146.425 1663.46 146.021 1661.29C145.103 1656.25 141.761 1649.59 138.272 1649.66C132.542 1649.77 128.906 1668.21 128.318 1671.26C133.13 1675.9 139.557 1676.74 143.267 1674.02Z" fill="white"/>
<path d="M260.209 1651.28C259.769 1651.5 259.328 1651.65 258.887 1651.83C253.635 1653.78 248.75 1653.23 246.693 1652.94C242.8 1652.42 235.675 1651.5 232.333 1645.72C229.578 1641.05 230.9 1635.9 231.231 1634.65C231.745 1632.55 232.627 1630.75 233.692 1629.28C258.63 1625.82 262.266 1628.28 263.846 1630.53C267.298 1635.38 264.176 1643.96 260.209 1651.28Z" fill="#213049"/>
<path d="M192.409 1690.8C203.024 1690.8 217.494 1688.81 231.341 1680.46C234.83 1678.36 241.331 1674.42 248.163 1666.33C252.313 1661.43 255.876 1655.84 258.777 1649.62L256.463 1648.52C253.635 1654.48 250.183 1659.93 246.216 1664.64C239.642 1672.4 233.398 1676.19 230.019 1678.21C215.254 1687.12 199.681 1688.52 189.25 1688.11L189.14 1690.69C190.169 1690.72 191.27 1690.76 192.409 1690.76V1690.8Z" fill="#213049"/>
<path d="M191.454 1682.78C191.454 1682.78 190.279 1682.67 188.663 1683.18C187.047 1683.66 184.953 1684.95 183.558 1686.86C183.19 1687.34 182.896 1687.85 182.639 1688.37C182.492 1688.63 182.382 1688.88 182.272 1689.18L182.015 1689.95C181.684 1691.02 181.537 1692.01 181.574 1692.89C181.574 1694.62 182.088 1695.69 182.088 1695.69C182.088 1695.69 182.456 1694.59 183.007 1693.15C183.594 1691.72 184.439 1689.95 185.614 1688.44C186.753 1686.9 188.185 1685.54 189.397 1684.54C190.646 1683.51 191.491 1682.85 191.491 1682.85L191.454 1682.78Z" fill="#C9915A"/>
<path d="M243.388 1739.37C245.334 1746.43 246.877 1754.01 247.722 1762.07C253.305 1815.9 225.354 1859.46 210.663 1879H184.623C184.108 1874.7 186.092 1870.57 189.618 1868.48C193.952 1865.9 198.506 1867.7 199.02 1867.92C200.159 1861.96 201.003 1855.27 201.224 1847.98C201.958 1824.54 196.045 1805.3 190.72 1792.57C208.276 1774.84 225.832 1757.1 243.388 1739.37Z" fill="#945856"/>
<path d="M454.135 1693.41C459.313 1687.38 466.329 1677.37 469.634 1663.5C470.405 1660.18 477.898 1626.22 455.237 1602.53C446.275 1593.14 435.991 1588.95 429.784 1587C446.973 1588.47 457 1595.17 461.884 1599.18C485.097 1618.42 490.202 1659.48 471.838 1700.03C465.925 1697.82 460.048 1695.62 454.135 1693.37V1693.41Z" fill="#945856"/>
<path d="M201.738 1832.12C201.665 1828.44 201.334 1823.44 200.453 1817.52C199.241 1809.57 194.943 1781.35 183.741 1779.32C178.746 1778.4 178.085 1783.78 165.304 1787.49C158.068 1789.59 154.359 1789 152.008 1792.2C148.813 1796.58 151.53 1803.61 152.449 1805.93C159.794 1824.99 195.568 1831.13 201.701 1832.12H201.738Z" fill="#E6B88C"/>
<path d="M461.003 1804.31C448.662 1807.95 436.322 1811.63 423.981 1815.27C416.011 1823.04 402.201 1835.07 382.478 1845.19C371.239 1850.96 353.792 1848.87 342.554 1851.89C355.776 1845.37 371.68 1844.63 379.062 1838.16C387.069 1831.13 398.932 1818.91 419.757 1805.12C430.518 1797.98 439.884 1792.9 446.312 1789.66C451.196 1794.52 456.081 1799.45 460.966 1804.31H461.003Z" fill="#E6B88C"/>
<path d="M432.208 1789.22C435.256 1794.26 438.819 1799.63 442.933 1805.12C450.021 1814.57 457.257 1822.37 463.941 1828.74C469.157 1824.91 474.666 1820.02 479.808 1813.73C501.22 1787.27 500.376 1755.22 499.457 1743.71C477.053 1758.87 454.612 1774.03 432.208 1789.18V1789.22Z" fill="#945856"/>
<path d="M260.43 1630.86C258.373 1632.15 254.627 1634.13 249.522 1634.72C242.213 1635.53 236.63 1632.99 234.426 1631.82C236.814 1630.6 240.67 1629.06 245.665 1628.61C252.423 1627.99 257.712 1629.76 260.43 1630.86Z" fill="#455982"/>
<path d="M142.826 1673.76C139.667 1674.72 135.958 1672.58 134.048 1670.12C129.089 1663.75 133.056 1651.46 138.125 1650.36C141.614 1649.62 145.984 1654.15 147.564 1658.53C149.621 1664.3 147.637 1672.33 142.863 1673.76H142.826Z" fill="#213049"/>
<path d="M108.742 1630.42C99.9272 1633.77 86.4112 1640.13 73.1891 1652.31C66.8351 1658.12 58.1305 1666.29 52.1805 1679.35C44.688 1695.76 45.7531 1710.7 46.5978 1723.14C48.6546 1752.46 59.012 1756.81 56.8817 1781.94C56.1839 1790.07 54.6046 1795.22 57.7265 1797.83C63.8601 1802.95 82.4813 1793.64 93.7202 1780.65C103.27 1769.61 106.171 1757.47 107.42 1751.47C116.418 1708.42 110.358 1646.05 108.705 1630.45L108.742 1630.42Z" fill="#945856"/>
<path d="M105.877 1757.36C108.338 1750.59 110.578 1743.04 112.305 1734.84C118.659 1704.63 115.5 1678.14 111.35 1659.85C109.513 1692.38 107.714 1724.87 105.877 1757.39V1757.36Z" fill="#784746"/>
<path d="M248.42 1749.74C252.386 1757.14 257.528 1769.39 257.859 1784.95C258.667 1822.01 231.525 1846.25 227.007 1850.19C232.663 1839.59 238.907 1825.46 243.278 1808.13C249.228 1784.59 249.411 1764.13 248.42 1749.78V1749.74Z" fill="#784746"/>
<path d="M148.813 1632.37C150.539 1634.02 149.694 1638.73 147.307 1641.38C144.919 1644.03 142.495 1643 135.517 1645.69C130.191 1647.75 128.135 1649.66 127.363 1648.89C126.335 1647.86 128.869 1643.11 132.065 1639.65C137.353 1633.95 146.168 1629.87 148.776 1632.37H148.813Z" fill="#E6B88C"/>
<path d="M138.308 1652.53C137.39 1653.19 138.492 1656.17 138.749 1656.84C140.365 1661.21 144.515 1664.89 145.801 1664.12C146.866 1663.5 146.095 1659.93 144.736 1657.46C142.936 1654.22 139.373 1651.79 138.308 1652.53Z" fill="#455982"/>
</g>
<defs>
<filter id="filter0_d_663_2047" x="771" y="196" width="34" height="34" filterUnits="userSpaceOnUse" color-interpolation-filters="sRGB">
<feFlood flood-opacity="0" result="BackgroundImageFix"/>
<feColorMatrix in="SourceAlpha" type="matrix" values="0 0 0 0 0 0 0 0 0 0 0 0 0 0 0 0 0 0 127 0" result="hardAlpha"/>
<feOffset dx="6" dy="6"/>
<feGaussianBlur stdDeviation="4"/>
<feComposite in2="hardAlpha" operator="out"/>
<feColorMatrix type="matrix" values="0 0 0 0 1 0 0 0 0 0.513726 0 0 0 0 0.341176 0 0 0 0.32 0"/>
<feBlend mode="normal" in2="BackgroundImageFix" result="effect1_dropShadow_663_2047"/>
<feBlend mode="normal" in="SourceGraphic" in2="effect1_dropShadow_663_2047" result="shape"/>
</filter>
<linearGradient id="paint0_linear_663_2047" x1="791" y1="216" x2="769.17" y2="207.114" gradientUnits="userSpaceOnUse">
<stop stop-color="#FF8A33"/>
<stop offset="1" stop-color="#FF805F"/>
</linearGradient>
<clipPath id="clip0_663_2047">
<rect width="467" height="292" fill="white" transform="matrix(-1 0 0 1 501 1587)"/>
</clipPath>
</defs>
</svg>
