<svg width="444" height="564" viewBox="0 0 444 564" fill="none" xmlns="http://www.w3.org/2000/svg">
<g filter="url(#filter0_d_663_2090)">
<rect x="10" y="10" width="384" height="504" rx="8" fill="white"/>
</g>
<path d="M196.65 57.818C199.674 57.818 201.96 55.316 201.96 50.276C201.96 45.236 199.674 42.734 196.65 42.734C193.608 42.734 191.322 45.236 191.322 50.276C191.322 55.316 193.608 57.818 196.65 57.818ZM196.65 56.144C194.688 56.144 193.14 54.2 193.14 50.276C193.14 46.37 194.688 44.408 196.65 44.408C198.594 44.408 200.142 46.37 200.142 50.276C200.142 54.2 198.594 56.144 196.65 56.144ZM210.084 57.494H211.884V54.236H214.242V52.634H211.884V43.076H209.652L202.812 52.634V54.236H210.084V57.494ZM204.756 52.634L210.084 45.146V52.634H204.756Z" fill="#666666"/>
<path d="M124.79 73.8481H121.79V89.5525H124.79V82.3094H127.657V79.8481H124.79V73.8481ZM108.497 86.1547H118.823V75.3564H115.839V78.4475H111.464V75.3564H108.497V86.1547ZM110.95 94.7901H125.552V92.3785H113.933V87.9448H110.95V94.7901ZM111.464 83.8094V80.7431H115.839V83.8094H111.464ZM145.856 73.8149H142.881V78.3564H139.293V80.7845H142.881V84.1492H139.235V86.5939H142.881V95.2127H145.856V73.8149ZM128.585 77.9834H135.24V81.4807H128.635V90.4309H130.317C133.599 90.4309 136.317 90.3646 139.508 89.8674L139.268 87.4227C136.583 87.8204 134.254 87.953 131.618 87.9779V83.8011H138.174V75.605H128.585V77.9834ZM167.403 83.8923H159.132V82.0691H165.174V79.7238H153.248V77.0967H165.066V74.768H150.265V82.0691H156.199V83.8923H147.911V86.2624H167.403V83.8923ZM150.132 91.268C150.132 93.7624 152.942 95.1796 157.599 95.1878C162.232 95.1796 165.016 93.7624 165.033 91.268C165.016 88.732 162.232 87.3232 157.599 87.3232C152.942 87.3232 150.132 88.732 150.132 91.268ZM153.182 91.268C153.166 90.1657 154.649 89.6022 157.599 89.6022C160.5 89.6022 162.025 90.1657 162.033 91.268C162.025 92.3785 160.5 92.9088 157.599 92.9006C154.649 92.9088 153.166 92.3785 153.182 91.268ZM187.392 82.3011H167.934V84.6464H176.121V86.0138H170.179V88.268H182.063V89.3702H170.196V95.0138H185.569V92.7597H173.13V91.4751H185.014V86.0138H179.121V84.6464H187.392V82.3011ZM170.337 81.174H184.923V74.453H170.337V81.174ZM173.271 78.8619V76.7652H181.931V78.8619H173.271ZM205.807 73.8149H202.782V95.2127H205.807V73.8149ZM188.577 82.9144C188.569 87.605 190.956 90.5387 194.221 90.5387C197.445 90.5387 199.831 87.605 199.84 82.9144C199.831 78.2735 197.445 75.3232 194.221 75.3232C190.956 75.3232 188.569 78.2735 188.577 82.9144ZM191.47 82.9144C191.453 79.7569 192.564 78.0249 194.221 78.0249C195.845 78.0249 196.947 79.7569 196.947 82.9144C196.947 86.105 195.845 87.8287 194.221 87.8287C192.564 87.8287 191.453 86.105 191.47 82.9144ZM231.179 73.8149H228.303V82.0691H226.306V74.1878H223.505V94.1188H226.306V84.489H228.303V95.163H231.179V73.8149ZM213.643 89.9503H215.093C217.306 89.9586 219.751 89.8177 222.593 89.3204L222.295 86.7431C220.239 87.1409 218.358 87.2901 216.643 87.3398V76.1851H213.643V89.9503ZM251.292 73.8149H248.474V95.163H251.292V73.8149ZM232.546 88.616L234.237 90.7127C237.27 88.9724 239.251 86.8591 240.469 84.4227H243.95V94.2099H246.751V74.3039H243.95V82.0525H241.397C241.911 80.2956 242.126 78.3895 242.135 76.3591H233.723V78.7624H239.159C238.762 82.9475 236.856 86.0552 232.546 88.616Z" fill="#2C2827"/>
<path d="M263.521 75.3232C260.28 75.3232 257.968 78.2735 257.976 82.9144C257.968 87.605 260.28 90.5387 263.521 90.5387C266.487 90.5387 268.692 88.0193 268.998 83.9254H272.678V95.2127H275.637V73.8149H272.678V81.5304H268.965C268.551 77.6934 266.396 75.3232 263.521 75.3232ZM260.844 82.9144C260.835 79.7569 261.929 78.0249 263.521 78.0249C265.128 78.0249 266.197 79.7569 266.206 82.9144C266.197 86.105 265.128 87.8287 263.521 87.8287C261.929 87.8287 260.835 86.105 260.844 82.9144ZM296.396 92.3785H283.99V87.953H280.99V94.7901H296.396V92.3785ZM278.015 86.2624H279.051C280.949 86.2624 282.266 86.2707 283.957 85.9061L283.733 83.4862C282.739 83.7017 281.869 83.8011 280.924 83.8508V77.8343H283.601V75.4309H278.015V86.2624ZM284.628 86.2624H285.789C288.59 86.2624 289.841 86.221 291.382 85.8812L291.117 83.4613C290.048 83.7182 289.103 83.826 287.587 83.8674V77.8343H290.62V75.4309H284.628V86.2624ZM289.949 81.8702H292.891V89.2624H295.833V73.8481H292.891V79.4669H289.949V81.8702Z" fill="#1C1B19"/>
<path d="M117.168 111.249C113.811 111.249 111.242 113.428 111.251 116.486C111.242 119.552 113.811 121.724 117.168 121.724C120.565 121.724 123.077 119.552 123.093 116.486C123.077 113.428 120.565 111.249 117.168 111.249ZM110.364 124.417L110.704 126.845C114.441 126.845 119.505 126.804 124.228 125.884L124.005 123.729C119.438 124.367 114.168 124.417 110.364 124.417ZM114.217 116.486C114.217 114.82 115.485 113.834 117.168 113.834C118.883 113.834 120.168 114.82 120.176 116.486C120.168 118.177 118.875 119.138 117.168 119.138C115.494 119.138 114.217 118.177 114.217 116.486ZM125.215 131.213H128.19V109.815H125.215V131.213ZM141.657 111.762H131.356V126.075H141.657V111.762ZM134.331 123.704V114.091H138.756V123.704H134.331ZM145.121 131.213H148.146V109.815H145.121V131.213ZM158.347 123.481V122.544H155.439V123.481C155.43 125.586 154.245 127.757 151.436 128.685L152.886 130.89C154.825 130.193 156.135 128.901 156.897 127.309C157.593 128.967 158.845 130.359 160.8 131.08C162.74 130.318 163.991 128.867 164.704 127.218C165.433 128.876 166.759 130.185 168.789 130.89L170.306 128.685C167.397 127.807 166.229 125.693 166.229 123.481V122.544H163.287V123.481C163.27 125.055 162.549 126.936 160.8 128.221C159.052 127.011 158.339 125.221 158.347 123.481ZM150.574 116.022C150.566 118.997 153.01 121.152 156.259 121.152C157.941 121.152 159.425 120.539 160.452 119.519H165.309V121.782H168.292V109.815H165.309V112.417H160.378C159.358 111.431 157.9 110.843 156.259 110.843C153.01 110.843 150.566 113.022 150.574 116.022ZM153.441 116.022C153.433 114.365 154.626 113.354 156.259 113.345C157.858 113.354 159.044 114.365 159.052 116.022C159.044 117.671 157.858 118.649 156.259 118.649C154.626 118.649 153.433 117.671 153.441 116.022ZM161.753 114.796H165.309V117.124H161.778C161.861 116.776 161.903 116.403 161.903 116.022C161.903 115.591 161.845 115.185 161.753 114.796ZM187.66 115.649H175.734V110.577H172.759V117.994H187.66V115.649ZM170.314 122.619H189.823V120.273H170.314V122.619ZM172.56 130.691H187.792V128.287H175.552V124.367H172.56V130.691ZM198.616 115.633V114.323H203.082V111.878H191.041V114.323H195.574V115.633C195.566 119.254 193.734 123.207 190.204 124.79L191.903 127.135C194.422 125.983 196.187 123.646 197.149 120.837C198.11 123.423 199.842 125.544 202.361 126.605L203.969 124.26C200.397 122.776 198.616 119.088 198.616 115.633ZM205.187 131.163H208.212V109.815H205.187V131.163ZM227.883 118.492H219.653V114.091H227.783V111.721H216.687V120.895H220.756V124.492C218.841 124.525 216.985 124.533 215.286 124.525L215.626 126.961C219.645 126.961 224.493 126.928 229.151 126.207L228.927 124.036C227.261 124.21 225.504 124.326 223.747 124.401V120.895H227.883V118.492ZM230.137 131.213H233.112V109.815H230.137V131.213ZM242.145 115.119V111.655H239.236V115.334C239.228 118.948 238.018 122.751 234.819 124.657L236.684 126.837C238.607 125.693 239.899 123.721 240.662 121.367C241.366 123.481 242.551 125.196 244.399 126.215L246.156 123.845C243.148 122.254 242.137 118.782 242.145 115.119ZM246.173 130.177H248.999V120.539H250.839V131.163H253.698V109.815H250.839V118.144H248.999V110.146H246.173V130.177ZM273.156 109.815H270.131V131.163H273.156V109.815ZM255.306 125.122L256.864 127.5C264.488 123.903 266.759 118.525 266.767 112.061H256.449V114.406H263.717C263.236 119.146 260.808 122.511 255.306 125.122ZM293.179 109.815H290.154V131.163H293.179V109.815ZM275.328 125.122L276.886 127.5C284.51 123.903 286.781 118.525 286.789 112.061H276.471V114.406H283.739C283.259 119.146 280.83 122.511 275.328 125.122Z" fill="#FF8A33"/>
<g clip-path="url(#clip0_663_2090)">
<path d="M193.954 244.414C206.51 233.156 216.354 239.109 217.651 257.234C218.947 275.359 214.408 277.835 214.408 277.835L193.954 244.414Z" fill="#E6A563"/>
<path d="M196.695 250.75C206.657 240.524 213.79 247.891 213.141 263.453C212.493 278.984 196.695 250.75 196.695 250.75Z" fill="#F8D3A4"/>
<path d="M313.971 330.914C313.735 337.663 310.817 344.648 303.36 349.687C303.36 349.687 261.507 309.841 253.579 305.421C245.651 301 241.023 291.981 251.604 290.007C244.56 283.847 246.771 273.061 270.762 284.731C264.809 276.597 275.183 270.202 293.663 284.083C291.453 277.923 312.615 289.152 306.425 311.816C310.729 315.294 314.265 322.898 313.971 330.914Z" fill="#FFE6C5"/>
<path d="M313.971 330.914C313.735 337.663 310.817 344.648 303.36 349.687C303.36 349.687 261.507 309.841 253.579 305.421C245.651 301 241.023 291.981 251.604 290.007C246.535 282.079 263.512 285.38 272.088 298.583C273.415 286.264 292.573 299.909 297.2 313.791C299.587 305.48 312.32 318.182 313.971 330.914Z" fill="#EFB36E"/>
<path d="M113.962 388.473C113.962 412.05 129.171 465.335 129.171 465.335C129.171 465.335 124.985 470.169 125.87 472.615C126.754 475.061 143.259 473.941 144.379 472.173C145.47 470.404 154.518 430.116 154.518 430.116L117.735 389.15L113.992 388.502L113.962 388.473Z" fill="#E6A563"/>
<path d="M253.166 415.97C253.402 416.648 261.566 443.231 261.36 446.65C261.124 450.069 251.811 470.287 250.219 471.642C248.627 472.998 229.764 473.676 229.529 471.878C229.293 470.08 235.659 465.984 236.573 464.392C237.486 462.801 239.756 453.723 239.52 448.477C239.284 443.231 220.215 423.043 220.215 423.043L253.166 415.999V415.97Z" fill="#E6A563"/>
<path d="M304.038 431.855C302.947 441.994 304.922 465.129 301.179 469.314C297.436 473.499 278.926 473.705 278.484 471.731C278.042 469.756 282.905 464.687 282.905 464.687C282.905 464.687 285.764 459.411 283.141 452.132C280.488 444.852 260.682 418.003 260.682 418.003C260.682 418.003 250.779 425.489 245.032 422.866C243.705 425.283 240.611 426.815 234.922 425.077C231.651 426.933 222.808 429.35 213.613 425.755C210.931 438.28 203.857 470.788 202.973 472.232C201.882 473.971 185.347 475.09 184.493 472.674C183.608 470.257 187.794 465.394 187.794 465.394C187.794 465.394 178.716 433.535 174.589 408.189C173.381 400.762 172.615 393.895 172.615 388.561L175.739 389.121C180.72 373.206 205.419 298.701 231.002 300.263C259.651 302.031 276.598 313.024 276.598 313.024C276.598 313.024 275.714 307.513 280.783 310.372C284.526 312.494 299.175 328.173 305.453 341.111C307.663 345.709 308.842 349.923 308.105 353.106C311.2 350.247 314.501 362.567 310.522 383.05C317.802 378.865 305.246 421.805 304.126 431.914L304.038 431.855Z" fill="#EFB36E"/>
<g style="mix-blend-mode:multiply" opacity="0.3">
<path d="M304.038 431.855C302.947 441.994 304.922 465.129 301.179 469.314C297.436 473.499 278.926 473.705 278.484 471.731C278.042 469.756 282.905 464.687 282.905 464.687C282.905 464.687 285.764 459.411 283.141 452.132C280.488 444.852 260.682 418.003 260.682 418.003C260.682 418.003 250.779 425.489 245.032 422.866C243.705 425.283 240.611 426.815 234.922 425.077C231.651 426.933 222.808 429.35 213.613 425.754C210.931 438.28 203.857 470.788 202.973 472.232C201.882 473.971 185.347 475.09 184.493 472.674C183.608 470.257 187.794 465.394 187.794 465.394C187.794 465.394 178.716 433.535 174.589 408.189L183.579 407.482C183.579 407.482 183.225 439.754 188.678 439.4C192.745 449.951 201.234 448.566 203.975 438.398C209.752 440.078 213.819 420.715 213.141 402.059C219.92 416.648 230.472 397.314 231.474 395.958C236.219 400.379 236.573 394.249 236.926 392.215C257.322 402.059 272.914 391.862 274.299 387.795C272.265 402.059 272.265 419.389 274.299 418.033C278.72 429.91 283.819 433.653 287.208 431.266C288.918 442.465 294.341 442.465 295.373 437.72C299.44 440.431 306.573 392.893 304.185 381.34C307.251 384.405 307.928 355.523 304.539 350.1C306.013 351.367 306.985 347.006 305.453 341.111C307.663 345.709 308.842 349.923 308.105 353.106C311.2 350.247 314.501 362.567 310.522 383.05C317.802 378.865 305.246 421.805 304.126 431.914L304.038 431.855Z" fill="#EFB36E"/>
</g>
<path d="M233.183 353.047C217.71 403.857 203.002 401.882 203.002 401.882C203.002 401.882 195.074 415.764 182.754 412.581C177.183 421.304 155.373 439.96 143.436 429.645C139.074 432.828 121.213 412.581 117.234 394.308C110.131 389.15 90.2654 355.022 90.678 323.664C87.7306 318.771 94.4801 295.695 110.75 273.326C114.198 268.581 118.089 263.865 122.421 259.356C140.695 240.288 167.427 233.067 180.131 236.663C192.834 240.229 207.423 247.98 224.105 278.925C225.373 281.283 226.552 283.759 227.701 286.323C241.347 317.681 244.206 362.92 233.183 353.018V353.047Z" fill="#F8D3A4"/>
<path d="M227.701 286.323C226.876 293.543 222.16 299.379 212.729 291.451C199.937 280.723 148.8 281.961 135.183 284.849C123.6 287.295 108.48 288.857 110.779 273.326C114.227 268.581 118.118 263.865 122.451 259.356C140.695 240.288 167.427 233.067 180.131 236.663C192.834 240.229 207.423 247.98 224.105 278.925C225.373 281.283 226.552 283.759 227.701 286.323Z" fill="#EFB36E"/>
<path d="M146.206 279.957C119.444 284.82 110.042 303.063 111.251 311.58C107.006 330.413 115.495 364.158 121.596 368.726C123.718 390.624 141.048 411.903 147.739 413.7C157.76 424.34 186.055 406.097 192.421 390.594C211.255 386.35 224.046 343.469 225.255 331.916C231.945 331.002 229.499 305.774 213.701 289.064C212.787 267.785 197.579 268.404 193.954 282.374C187.558 281.165 181.486 281.46 181.486 281.46C181.486 281.46 180.131 264.749 168.754 264.749C160.03 264.749 152.307 270.202 146.206 279.927V279.957Z" fill="#FFE6C5"/>
<path d="M183.638 286.883C196.135 286.735 204.653 290.095 205.301 295.607C205.95 301.118 197.491 307.395 197.491 307.395C197.491 307.395 196.4 318.742 185.731 316.178C175.061 313.614 176.682 303.476 176.682 303.476C176.682 303.476 171.642 288.474 183.638 286.912V286.883Z" fill="#FFF2E0"/>
<path d="M187.646 294.045C185.731 295.636 190.741 300.086 193.158 300.175C195.575 300.263 198.434 298.082 198.994 296.108C199.583 294.162 189.061 292.866 187.646 294.045Z" fill="#614325"/>
<path d="M191.979 298.613C188.737 308.221 183.815 305.804 180.013 302.857C176.211 299.909 172.585 297.758 172.202 300.528C171.789 303.299 176.152 302.827 179.924 304.979C183.697 307.13 188.589 308.898 192.451 308.633C194.248 308.515 195.958 307.778 197.284 307.042C197.667 306.806 201.794 306.04 202.088 305.833C202.973 305.244 202.531 303.623 201.263 304.124C199.996 304.625 197.137 307.395 194.602 305.509C193.217 304.448 193.924 298.76 193.924 298.76L191.979 298.672V298.613Z" fill="#614325"/>
<path d="M173.971 278.778C173.971 281.725 171.583 284.142 168.606 284.142C165.63 284.142 163.242 281.755 163.242 278.778C163.242 275.801 165.63 273.414 168.606 273.414C171.583 273.414 173.971 275.801 173.971 278.778Z" fill="#614325"/>
<path d="M168.636 277.039C168.636 278.012 167.84 278.808 166.867 278.808C165.895 278.808 165.099 278.012 165.099 277.039C165.099 276.067 165.895 275.271 166.867 275.271C167.84 275.271 168.636 276.067 168.636 277.039Z" fill="white"/>
<path d="M208.455 283.317C208.455 286.264 206.067 288.681 203.091 288.681C200.114 288.681 197.726 286.293 197.726 283.317C197.726 280.34 200.114 277.953 203.091 277.953C206.067 277.953 208.455 280.34 208.455 283.317Z" fill="#614325"/>
<path d="M129.79 258.295C129.79 246.624 141.579 228.853 150.745 229C159.912 229.147 166.16 243.029 167.28 247.184C159.912 255.643 136.716 260.388 129.79 258.295Z" fill="#EFB36E"/>
<path d="M137.423 255.672C141.166 251.634 148.122 250.809 148.122 252.194C153.811 246.654 161.592 248.864 161.592 248.864C161.592 248.864 158.114 235.543 150.893 235.955C143.672 236.368 137.571 249.689 137.423 255.672Z" fill="#F8D3A4"/>
<path d="M202.737 281.99C202.737 282.963 201.941 283.759 200.969 283.759C199.996 283.759 199.2 282.963 199.2 281.99C199.2 281.018 199.996 280.222 200.969 280.222C201.941 280.222 202.737 281.018 202.737 281.99Z" fill="white"/>
</g>
<path fill-rule="evenodd" clip-rule="evenodd" d="M276.634 183.431C268.683 180.227 258.955 181.02 252.642 190.411C247.951 197.425 247.973 197.509 255.767 200.124C262.347 202.322 261.842 202.458 264.434 197.971C266.641 194.151 268.955 192.603 272.722 192.784C281.064 193.222 280.698 204.552 279.124 207.276C277.396 210.268 274.355 210.613 266.519 208.686C260.107 207.12 257.038 208.375 253.539 213.941C252.514 215.593 251.556 216.82 251.246 216.926C249.834 217.464 252.17 220.061 255.386 221.563C265.051 226.042 264.872 226.045 266.372 222.28C267.302 219.932 267.7 219.735 270.269 220.329C276.467 221.772 281.235 220.465 285.919 216.047C298.061 204.68 294.013 190.479 276.634 183.431ZM284.309 190.002C289.791 194.345 290.893 205.347 286.351 210.81C282.153 215.866 277.127 217.557 269.771 216.336C266.209 215.739 264.474 216.589 262.565 219.832L261.516 221.648C258.082 220.092 257.869 219.969 255.554 219.059C260.479 211.395 260.409 210.286 272.103 212.482C279.435 213.868 283.714 209.536 283.172 201.315C282.301 188.13 262.283 184.973 259.18 197.536C259.02 198.12 258.838 198.621 258.754 198.643C258.628 198.677 254.719 197.452 254.452 197.298C254.426 197.283 256.137 193.89 256.625 192.676C260.784 182.219 274.393 182.208 284.309 190.002ZM251.524 223.392C245.466 222.813 241.885 228.582 245.572 232.956C252.921 241.69 264.53 241.022 262.756 231.983C262.261 229.274 254.965 223.706 251.524 223.392ZM257.415 228.933C259.36 230.484 260.236 233.27 259.31 234.873C257.598 237.837 249.506 235.122 248.301 231.184C247.717 229.244 250.516 223.415 257.415 228.933Z" fill="#FFB076"/>
<defs>
<filter id="filter0_d_663_2090" x="0" y="0" width="444" height="564" filterUnits="userSpaceOnUse" color-interpolation-filters="sRGB">
<feFlood flood-opacity="0" result="BackgroundImageFix"/>
<feColorMatrix in="SourceAlpha" type="matrix" values="0 0 0 0 0 0 0 0 0 0 0 0 0 0 0 0 0 0 127 0" result="hardAlpha"/>
<feOffset dx="20" dy="20"/>
<feGaussianBlur stdDeviation="15"/>
<feComposite in2="hardAlpha" operator="out"/>
<feColorMatrix type="matrix" values="0 0 0 0 0 0 0 0 0 0 0 0 0 0 0 0 0 0 0.08 0"/>
<feBlend mode="normal" in2="BackgroundImageFix" result="effect1_dropShadow_663_2090"/>
<feBlend mode="normal" in="SourceGraphic" in2="effect1_dropShadow_663_2090" result="shape"/>
</filter>
<clipPath id="clip0_663_2090">
<rect width="224" height="245" fill="white" transform="translate(90 229)"/>
</clipPath>
</defs>
</svg>
