<svg width="444" height="564" viewBox="0 0 444 564" fill="none" xmlns="http://www.w3.org/2000/svg">
<g filter="url(#filter0_d_663_2055)">
<rect x="10" y="10" width="384" height="504" rx="8" fill="white"/>
</g>
<path d="M198.706 57.818C201.73 57.818 204.016 55.316 204.016 50.276C204.016 45.236 201.73 42.734 198.706 42.734C195.664 42.734 193.378 45.236 193.378 50.276C193.378 55.316 195.664 57.818 198.706 57.818ZM198.706 56.144C196.744 56.144 195.196 54.2 195.196 50.276C195.196 46.37 196.744 44.408 198.706 44.408C200.65 44.408 202.198 46.37 202.198 50.276C202.198 54.2 200.65 56.144 198.706 56.144ZM208.199 57.494H210.089V43.076H205.211V44.732H208.199V57.494Z" fill="#666666"/>
<path d="M114.779 73.8481H111.779V89.5525H114.779V82.3094H117.646V79.8481H114.779V73.8481ZM98.4858 86.1547H108.812V75.3564H105.828V78.4475H101.453V75.3564H98.4858V86.1547ZM100.939 94.7901H115.541V92.3785H103.922V87.9448H100.939V94.7901ZM101.453 83.8094V80.7431H105.828V83.8094H101.453ZM135.845 73.8149H132.87V78.3564H129.281V80.7845H132.87V84.1492H129.223V86.5939H132.87V95.2127H135.845V73.8149ZM118.574 77.9834H125.229V81.4807H118.624V90.4309H120.306C123.588 90.4309 126.306 90.3646 129.497 89.8674L129.257 87.4227C126.571 87.8204 124.243 87.953 121.607 87.9779V83.8011H128.163V75.605H118.574V77.9834ZM157.392 83.8923H149.121V82.0691H155.163V79.7238H143.237V77.0967H155.055V74.768H140.254V82.0691H146.188V83.8923H137.9V86.2624H157.392V83.8923ZM140.121 91.268C140.121 93.7624 142.931 95.1796 147.588 95.1879C152.221 95.1796 155.005 93.7624 155.022 91.268C155.005 88.7321 152.221 87.3232 147.588 87.3232C142.931 87.3232 140.121 88.7321 140.121 91.268ZM143.171 91.268C143.154 90.1658 144.638 89.6022 147.588 89.6022C150.489 89.6022 152.014 90.1658 152.022 91.268C152.014 92.3785 150.489 92.9088 147.588 92.9006C144.638 92.9088 143.154 92.3785 143.171 91.268ZM177.381 82.3011H157.922V84.6464H166.11V86.0138H160.168V88.268H172.052V89.3702H160.185V95.0138H175.558V92.7597H163.119V91.4751H175.003V86.0138H169.11V84.6464H177.381V82.3011ZM160.326 81.174H174.911V74.453H160.326V81.174ZM163.26 78.8619V76.7652H171.92V78.8619H163.26ZM195.796 73.8149H192.771V95.2127H195.796V73.8149ZM178.566 82.9144C178.558 87.605 180.945 90.5387 184.21 90.5387C187.434 90.5387 189.82 87.605 189.829 82.9144C189.82 78.2735 187.434 75.3232 184.21 75.3232C180.945 75.3232 178.558 78.2735 178.566 82.9144ZM181.458 82.9144C181.442 79.7569 182.552 78.0249 184.21 78.0249C185.834 78.0249 186.936 79.7569 186.936 82.9144C186.936 86.105 185.834 87.8287 184.21 87.8287C182.552 87.8287 181.442 86.105 181.458 82.9144ZM207.908 86.3039H205.132V94.9227H212.963V93.2569L214.19 95.0967C215.913 94.4337 217.09 93.2072 217.803 91.7238C218.474 93.2569 219.659 94.4669 221.499 95.0967L223.032 92.8757C220.38 92.0221 219.328 89.9503 219.344 87.7707V86.1298H216.353V87.7707C216.344 89.71 215.342 91.7072 212.963 92.768V86.3039H210.195V88.4171H207.908V86.3039ZM203.043 79.6492C203.027 82.6243 205.438 84.7044 208.72 84.7044C211.455 84.7044 213.643 83.1713 214.215 80.8508H217.77V85.1188H220.753V73.8149H217.77V78.4061H214.206C213.61 76.1437 211.43 74.6354 208.72 74.6354C205.438 74.6354 203.027 76.7155 203.043 79.6492ZM205.878 79.6492C205.878 78.0663 207.054 77.0967 208.72 77.0967C210.344 77.0967 211.505 78.0663 211.521 79.6492C211.505 81.2569 210.344 82.2514 208.72 82.268C207.054 82.2514 205.878 81.2569 205.878 79.6492ZM207.908 92.6602V90.6216H210.195V92.6602H207.908ZM240.121 79.6492H228.195V74.5774H225.22V81.9945H240.121V79.6492ZM222.775 86.6188H242.284V84.2735H222.775V86.6188ZM225.021 94.6906H240.253V92.2873H228.013V88.3674H225.021V94.6906ZM265.609 73.8481H262.625V79.1519H259.733V81.5635H262.625V83.7017H259.733V86.0718H262.625V90.0995H265.609V73.8481ZM247.675 78.4392H259.526V76.0856H255.241V73.7983H252.266V76.0856H247.675V78.4392ZM248.728 83.3867C248.711 85.8481 250.824 87.5635 253.725 87.5635C256.65 87.5635 258.764 85.8481 258.78 83.3867C258.764 80.9337 256.65 79.1934 253.725 79.1934C250.824 79.1934 248.711 80.9337 248.728 83.3867ZM251.404 94.7901H266.065V92.3785H254.429V88.7072H251.404V94.7901ZM251.512 83.3867C251.504 82.1934 252.416 81.5304 253.725 81.5138C255.009 81.5304 255.954 82.1934 255.971 83.3867C255.954 84.6216 255.009 85.2845 253.725 85.2845C252.416 85.2845 251.504 84.6216 251.512 83.3867ZM285.474 73.8149H282.507V84.6216H285.474V73.8149ZM267.556 82.3425L269.04 84.6796C271.576 83.9254 273.324 82.2845 274.294 80.2127C275.255 82.1105 276.946 83.6022 279.391 84.3149L280.858 82.0111C277.36 81.0083 275.802 78.5221 275.819 75.9282V74.2956H272.719V75.9282C272.711 78.5801 271.12 81.2735 267.556 82.3425ZM271.195 87.8702H282.523V89.1216H271.244V95.0138H286.087V92.6602H274.161V91.326H285.507V85.558H271.195V87.8702ZM297.391 74.1298C292.468 74.1298 289.617 75.4144 289.626 77.7597C289.617 80.1464 292.468 81.4227 297.391 81.4227C302.305 81.4227 305.139 80.1464 305.148 77.7597C305.139 75.4144 302.305 74.1298 297.391 74.1298ZM287.678 84.8039H307.137V82.4337H287.678V84.8039ZM289.924 88.2265H301.808V89.3867H289.941V95.0138H305.313V92.7597H292.874V91.4751H304.758V86.0304H289.924V88.2265ZM292.758 77.7597C292.742 76.8232 294.267 76.3094 297.391 76.3177C300.557 76.3094 302.065 76.8232 302.065 77.7597C302.065 78.8122 300.557 79.2182 297.391 79.2265C294.267 79.2182 292.742 78.8122 292.758 77.7597Z" fill="#2C2827"/>
<path d="M127.195 109.815H124.195V122.262H127.195V117.133H130.063V114.688H127.195V109.815ZM110.902 121.227H121.228V111.083H118.245V113.801H113.869V111.083H110.902V121.227ZM113.24 130.881H127.701V128.528H116.231V125.594H127.303V123.224H113.24V130.881ZM113.869 118.881V116.113H118.245V118.881H113.869ZM136.03 111.323C132.764 111.323 130.386 114.273 130.403 118.914C130.386 123.605 132.764 126.539 136.03 126.539C139.287 126.539 141.64 123.605 141.657 118.914C141.64 114.273 139.287 111.323 136.03 111.323ZM133.295 118.914C133.287 115.757 134.397 114.025 136.03 114.025C137.704 114.025 138.781 115.757 138.789 118.914C138.781 122.105 137.704 123.829 136.03 123.829C134.397 123.829 133.287 122.105 133.295 118.914ZM144.126 131.163H147.118V120.365H150.267V117.87H147.118V109.815H144.126V131.163ZM169.809 118.16H150.317V120.506H169.809V118.16ZM152.563 124.011H164.447V125.196H152.579V130.972H167.952V128.66H155.513V127.326H167.397V121.749H152.563V124.011ZM152.745 116.975H167.488V114.622H155.729V112.633H167.323V110.262H152.745V116.975ZM188.19 109.815H185.165V131.213H188.19V109.815ZM170.961 118.914C170.952 123.605 173.339 126.539 176.604 126.539C179.828 126.539 182.215 123.605 182.223 118.914C182.215 114.273 179.828 111.323 176.604 111.323C173.339 111.323 170.952 114.273 170.961 118.914ZM173.853 118.914C173.836 115.757 174.947 114.025 176.604 114.025C178.229 114.025 179.331 115.757 179.331 118.914C179.331 122.105 178.229 123.829 176.604 123.829C174.947 123.829 173.836 122.105 173.853 118.914ZM208.328 109.815H205.353V114.356H201.765V116.785H205.353V120.149H201.707V122.594H205.353V131.213H208.328V109.815ZM191.058 113.983H197.712V117.481H191.107V126.431H192.79C196.071 126.431 198.79 126.365 201.98 125.867L201.74 123.423C199.055 123.82 196.726 123.953 194.091 123.978V119.801H200.646V111.605H191.058V113.983ZM232.582 119.03H220.424V111.464H217.374V121.434H223.424V126.323H215.195V128.727H234.703V126.323H226.432V121.434H232.582V119.03ZM245.444 111.066H236.013V113.412H242.46V115.508H236.046V122.395H237.653C241.772 122.378 244.01 122.312 246.504 121.881L246.231 119.486C244.068 119.892 242.178 119.992 239.004 120.008V117.721H245.444V111.066ZM238.491 126.315H250.209V131.163H253.192V123.928H238.491V126.315ZM246.678 119.702H250.209V122.983H253.192V109.848H250.209V112.807H246.678V115.169H250.209V117.331H246.678V119.702ZM272.062 109.815H269.104V131.163H272.062V120.638H275.212V118.177H272.062V109.815ZM255.123 115.401H267.662V113.006H262.938V110.155H259.955V113.006H255.123V115.401ZM255.985 121.682C255.977 124.666 258.297 126.762 261.446 126.771C264.554 126.762 266.883 124.666 266.891 121.682C266.883 118.707 264.554 116.594 261.446 116.594C258.297 116.594 255.977 118.707 255.985 121.682ZM258.852 121.682C258.844 120.05 259.938 119.039 261.446 119.022C262.938 119.039 264.015 120.05 264.032 121.682C264.015 123.34 262.938 124.326 261.446 124.318C259.938 124.326 258.844 123.34 258.852 121.682ZM293.179 109.815H290.154V131.163H293.179V109.815ZM275.328 125.122L276.886 127.5C284.51 123.903 286.781 118.525 286.789 112.061H276.471V114.406H283.739C283.259 119.146 280.83 122.511 275.328 125.122Z" fill="#FF8A33"/>
<path d="M142.477 225.778C140.223 227.819 141.795 229.039 140.545 229.022C138.945 228.992 137.141 230.603 137.162 232.11C137.181 234.532 141.34 237.262 145.818 237.667C146.453 237.723 147.459 237.834 148.019 237.9C151.014 238.244 151.121 234.453 148.24 228.275C146.635 224.822 144.539 223.884 142.477 225.778ZM147.74 235.16L147.916 236.225C142.874 234.501 140.161 233.706 139.315 232.027C138.624 230.664 139.146 230.488 141.199 231.448C142.4 232.013 143.023 232.153 143.481 232.008C145.505 231.335 143.237 229.774 143.343 227.5C143.364 226.784 143.82 226.797 144.806 227.519C145.791 228.293 147.223 231.987 147.74 235.16Z" fill="#FFB076"/>
<path d="M175.816 195.529C174.979 196.251 174.755 196.334 174.216 196.258C173.539 196.17 172.131 196.804 171.474 197.517C169.526 199.644 171.082 205.055 174.666 208.667C177.373 211.399 178.554 210.353 179.968 204.041C181.722 196.153 179.765 192.139 175.816 195.529ZM178.586 198.336C178.718 200.938 177.026 206.732 176.326 205.948C175.409 204.879 173.736 201.721 173.322 200.276C172.576 197.554 173.312 196.463 174.404 198.702C174.96 199.843 176.011 199.775 176.324 198.576C176.392 198.281 176.583 197.535 176.74 196.935C177.222 195.053 178.459 196.018 178.586 198.336Z" fill="#FFB076"/>
<path d="M155.164 202.543C154.754 203.109 154.475 203.298 154.126 203.285C150.777 203.192 149.674 206.999 152.256 209.583C158.758 216.033 160.882 214.971 161.074 205.178C161.144 200.934 157.499 199.312 155.164 202.543ZM158.795 203.648C158.963 204.481 158.636 205.922 158.389 207.638C157.984 210.763 158.188 210.585 156.585 209.249C155.129 208.051 153.639 207.706 153.118 207.123C152.398 206.298 151.846 204.083 154.386 205.119C155.672 205.642 156.557 205.289 156.381 204.224C155.973 201.547 158.548 202.383 158.795 203.648Z" fill="#FFB076"/>
<path d="M167.734 191.419C172.004 180.995 171.1 173.671 165.906 176.727L164.612 177.489L163.687 176.946C162.036 176 160.135 176.273 158.716 177.697C156.254 180.18 156.638 183.731 159.944 189.1C164.193 195.969 165.692 196.389 167.734 191.419ZM160.339 184.331C158.49 180.161 159.009 177.215 161.459 177.85C162.758 178.184 163.697 179.295 163.378 180.104C162.113 183.362 162.917 186.473 164.795 185.557C166.332 184.807 166.878 182.188 166.056 179.635C165.303 177.387 167.063 176.607 168.103 178.74C168.639 179.839 168.548 181.007 167.67 184.678C167.129 186.929 165.27 192.49 165.07 192.404C164.711 192.265 161.326 186.517 160.339 184.331Z" fill="#FFB076"/>
<path d="M187.649 214.806C187.071 215.245 186.986 215.234 186.77 214.791C186.182 213.587 183.954 213.785 182.631 215.136C179.834 218.017 179.786 225.178 182.541 229.038C184.401 231.66 193.638 218.579 192.113 215.453C191.361 213.911 189.267 213.573 187.649 214.806ZM184.074 227.035C183.821 226.949 182.933 220.793 182.945 219.14C182.952 216.391 183.906 214.933 184.678 216.517C184.802 216.77 184.791 217.56 184.665 218.223C184.154 220.642 184.197 220.569 184.577 220.697C185.305 220.944 186.64 219.456 187.194 217.774C187.836 215.839 189.309 215.121 189.958 216.452C190.411 217.381 184.897 227.313 184.074 227.035Z" fill="#FFB076"/>
<path d="M162.607 227.988C163.317 227.223 162.692 220.468 161.745 218.473C160.55 216.022 157.806 215.87 156.131 218.178C155.893 218.503 155.729 218.87 155.77 218.955C155.822 219.061 155.212 219.436 154.433 219.79C151.808 221.018 151.902 222.619 154.779 225.374C157.958 228.425 161.154 229.507 162.607 227.988ZM155.884 221.409C157.27 222.302 158.534 221.372 157.854 219.978C157.319 218.879 157.95 217.735 158.648 218.571C159.346 219.407 160.354 225.374 159.842 225.623C159.479 225.8 156.084 223.011 155.472 222.028C154.726 220.824 154.802 220.708 155.884 221.409Z" fill="#FFB076"/>
<path d="M168.601 237.405C168.331 237.72 168.048 238.224 167.981 238.466C167.902 238.844 167.624 239.032 166.74 239.333C162.649 240.752 163.861 245.025 168.861 246.717C173.387 248.249 174.887 247.151 174.259 242.777C173.42 236.885 170.994 234.565 168.601 237.405ZM171.834 244.901C168.918 243.421 166.033 242.109 165.941 241.108C165.888 240.349 167.019 240.556 168.087 241.499C169.229 242.485 170.864 241.504 170.075 240.32C168.871 238.502 169.572 236.905 170.809 238.629C171.724 239.909 171.787 244.48 171.834 244.901Z" fill="#FFB076"/>
<path d="M139.061 197.429C138.142 198.74 138.163 198.729 137.389 198.009C136.291 196.949 134.441 197.329 133.158 198.87C130.786 201.753 133.587 206.792 139.538 210.217C140.674 210.866 142.087 213.601 143.845 208.482C144.806 205.686 146.142 201.165 146.376 199.639C147.136 194.588 142.112 193.065 139.061 197.429ZM144.128 197.468C144.646 199.019 142.423 207.842 141.208 209.036C140.886 209.35 136.645 204.882 135.369 202.916C133.586 200.125 134.184 197.559 136.169 199.571C136.65 200.069 137.211 200.841 137.438 201.306C138.169 202.858 139.694 202.192 139.678 200.318C139.633 196.705 143.131 194.503 144.128 197.468Z" fill="#FFB076"/>
<g clip-path="url(#clip0_663_2055)">
<path d="M119.542 431.729C115.886 440.142 112.695 445.675 112.695 445.675C112.695 445.675 101.9 448.936 94.0705 444.86C86.2411 440.784 86.2411 430.203 87.8622 425.312C89.2246 421.183 96.7607 416.847 101.193 408.886C102.003 407.429 102.71 405.85 103.245 404.133C106.763 392.997 104.607 375.079 105.142 365.297C105.677 355.531 113.247 340.857 128.354 328.368C128.354 328.368 128.889 358.515 130.251 385.66C131.044 401.67 124.802 419.64 119.542 431.712V431.729Z" fill="#AD5534"/>
<path d="M119.542 431.729C115.886 440.142 112.695 445.675 112.695 445.675C112.695 445.675 101.9 448.936 94.0705 444.86C86.2411 440.784 86.2411 430.203 87.8622 425.312C89.2246 421.183 96.7607 416.847 101.193 408.886C109.264 400.091 111.367 403.509 106.487 416.344C115.937 406.561 114.575 423.126 114.575 423.126C114.575 423.126 117.093 426.803 119.524 431.712L119.542 431.729Z" fill="#E8CCAE"/>
<path d="M154.601 459.69C153.946 462.673 159.396 469.109 159.154 471.52C158.913 473.931 148.841 475.388 147.393 472.005C145.962 468.623 139.012 447.999 139.477 443.177C139.564 442.362 139.805 441.339 140.184 440.159C142.012 434.47 147.565 419.796 150.738 412.199C154.584 403.023 167.035 399.12 186.488 403.248C185.643 417.697 175.882 429.735 167.328 440.09C161.293 447.375 155.878 453.827 154.584 459.725L154.601 459.69Z" fill="#AD5534"/>
<path d="M159.154 471.52C158.913 473.931 148.841 475.388 147.393 472.005C145.962 468.623 139.012 447.999 139.477 443.177C139.564 442.362 139.805 441.339 140.184 440.159C141.461 445.137 145.392 443.472 147.858 440.159C147.031 453.827 159.982 445.467 167.328 440.072C161.293 447.358 155.878 453.81 154.584 459.707C153.929 462.691 159.378 469.126 159.137 471.537L159.154 471.52Z" fill="#E8CCAE"/>
<path d="M288.407 396.223C283.182 412.719 274.801 427.272 273.576 425.346C272.576 427.48 271.455 429.683 270.334 432.094C268.472 436.031 266.54 440.506 265.04 446.039C262.608 454.99 262.419 462.882 262.953 465.692C263.471 468.502 265.402 469.542 264.178 472.005C262.953 474.451 256.159 472.873 253.71 470.427C251.278 467.981 246.553 452.353 245.501 431.833C245.501 431.712 245.501 431.591 245.501 431.487C244.88 411.071 282.147 391.124 282.147 391.124L288.425 396.223H288.407Z" fill="#AD5534"/>
<path d="M265.04 446.057C262.608 455.007 262.419 462.899 262.953 465.709C263.471 468.519 265.402 469.56 264.178 472.023C262.953 474.468 256.159 472.89 253.71 470.444C251.278 467.999 246.553 452.37 245.501 431.851C245.501 431.729 245.501 431.608 245.501 431.504C254.331 436.309 259.987 427.289 259.987 427.289C258.401 437.332 263.729 439.552 270.352 432.111C268.489 436.048 266.558 440.523 265.057 446.057H265.04Z" fill="#E8CCAE"/>
<path d="M279.371 384.411C278.405 392.616 272.18 410.95 269.196 418.443C266.213 425.919 262.332 425.433 262.332 425.433C262.281 425.554 262.229 425.659 262.177 425.763C261.056 428.347 253.9 445.363 253.693 458.493C253.503 469.993 257.935 468.64 256.814 472.422C256.486 473.532 248.657 474.676 242.656 468.64C234.826 460.766 230.084 438.997 228.239 428.954C227.652 425.763 227.359 423.751 227.359 423.751C227.359 423.751 225.6 422.849 222.599 421.461C222.013 421.183 221.375 420.889 220.685 420.559C218.547 419.588 215.994 418.443 213.132 417.246C212.2 416.864 211.235 416.448 210.235 416.049C205.509 414.124 200.163 412.112 194.662 410.377C193.817 410.1 192.955 409.84 192.093 409.597C186.746 408.001 181.314 406.717 176.261 406.058C175.451 405.954 174.64 405.867 173.847 405.781C169.967 405.434 166.363 405.486 163.241 406.128L162.12 408.296C161.913 408.677 161.724 409.042 161.534 409.389C155.05 421.201 154.843 414.592 154.843 414.592C154.843 414.592 141.685 430.654 133.269 437.783C133.183 437.87 133.096 437.939 132.993 438.008C124.595 445.016 114.282 456.828 114.765 462.379C115.248 467.929 119.559 471.069 118.128 471.797C116.696 472.526 108.056 473.254 106.125 470.357C104.211 467.461 102.762 445.987 103.486 441.391C103.969 438.338 107.539 433.88 111.281 425.676C113.023 421.877 114.799 417.281 116.317 411.643C116.438 411.192 116.558 410.724 116.679 410.256C121.473 391.436 109.246 384.914 109.005 365.609C108.66 338.325 138.512 316.365 144.996 319.037C164.897 327.189 204.25 326.27 208.096 323.859C211.925 321.448 218.167 316.868 225.376 301.657C225.376 301.657 280.319 376.224 279.354 384.429L279.371 384.411Z" fill="#BD613F"/>
<g style="mix-blend-mode:multiply" opacity="0.2">
<path d="M229.17 428.503C229.049 428.729 228.721 428.885 228.239 428.937C227.652 425.745 227.359 423.733 227.359 423.733C227.359 423.733 225.6 422.831 222.599 421.444C222.013 421.166 221.375 420.871 220.685 420.542C218.547 419.57 215.994 418.426 213.132 417.229C212.201 416.847 211.235 416.431 210.235 416.032C205.509 414.107 200.163 412.094 194.662 410.36C193.817 410.082 192.955 409.822 192.093 409.579C186.747 407.984 181.314 406.7 176.261 406.041C175.451 405.937 174.64 405.85 173.847 405.763C169.967 405.417 166.363 405.469 163.241 406.11L162.12 408.278C161.913 408.66 161.724 409.024 161.534 409.371C160.758 409.094 160.327 408.938 160.327 408.938C160.327 408.938 164.276 397.438 166.604 392.598C167.984 385.209 168.294 373.657 168.294 373.657C168.294 373.657 169.243 384.238 192.524 393.223C215.788 402.208 227.583 394.194 227.583 394.194C227.583 394.194 231.412 424.34 229.17 428.503Z" fill="#E07E40"/>
</g>
<path d="M272.749 236.82C274.266 229.569 270.093 222.198 270.093 222.198C270.093 222.198 279.198 221.937 283.113 227.783C287.028 233.628 284.889 241.121 284.889 241.121L272.766 236.802L272.749 236.82Z" fill="#9A443E"/>
<path d="M263.609 235.727C258.608 228.823 250.899 228.182 250.899 228.182C250.899 228.182 240.103 230.523 245.415 231.113C250.726 231.703 254.003 236.82 254.038 238.728C254.072 240.636 263.626 235.71 263.626 235.71L263.609 235.727Z" fill="#9A443E"/>
<path d="M315.655 308.404C316.776 317.736 312.499 350.241 311.395 345.748C307.86 370.951 286.89 405.694 281.682 401.757C280.94 405.867 277.37 414.089 267.748 420.438C275.37 384.776 243.621 361.429 241.207 355.462C237.499 354.421 226.583 334.908 222.737 309.583C221.772 303.2 221.254 296.436 221.427 289.515C221.496 286.462 221.703 283.565 222.048 280.825C222.272 278.986 222.548 277.2 222.893 275.5C223.669 271.458 224.755 267.781 226.048 264.468C226.048 264.468 226.048 264.468 226.048 264.451C232.567 247.782 244.811 239.872 255.331 237.271C269.196 233.836 279.285 235.345 287.045 239.942C287.511 240.202 287.959 240.48 288.407 240.792C297.237 246.602 302.98 256.524 308.05 267.521C317.707 288.439 318.259 313.261 315.655 308.421V308.404Z" fill="#F3E8D3"/>
<path d="M230.084 290.642C229.187 297.806 236.016 307.346 236.016 307.346C236.016 307.346 236.603 303.166 238.086 302.281C241.052 308.838 244.932 320.407 242.69 332.514C253.434 322.141 260.022 295.43 253.503 287.971C246.984 280.513 230.084 290.66 230.084 290.66V290.642Z" fill="#9A443E"/>
<path d="M236.016 294.805C246.398 301.969 243.725 319.557 243.725 319.557C243.725 319.557 246.105 313.885 246.984 311.214C247.881 317.77 244.725 329.86 242.794 332.427C252.123 325.749 262.108 299.887 254.4 290.642C246.691 281.397 236.016 294.823 236.016 294.823V294.805Z" fill="#C96D32"/>
<path d="M287.321 297.32C288.149 294.215 287.39 288.058 287.39 288.058C287.39 288.058 282.44 321.17 242.69 332.514C257.331 315.464 269.058 283.062 263.453 273.661C259.09 266.341 233.826 272.447 222.858 275.5C223.634 271.458 224.721 267.781 226.014 264.468C226.014 264.468 226.014 264.468 226.014 264.451C232.533 247.782 244.777 239.872 255.296 237.271C263.177 235.328 269.834 234.964 275.542 235.866C284.251 237.236 291.132 244.157 292.632 252.899C296.168 273.609 286.614 299.887 287.304 297.338L287.321 297.32Z" fill="#9A443E"/>
<path d="M253.02 245.753L251.313 254.842L223.91 281.345C223.91 281.345 222.893 281.484 222.048 280.825C222.806 274.615 224.186 269.186 226.031 264.451C226.031 264.451 226.031 264.451 226.031 264.433C236.085 246.464 255.59 239.63 253.003 245.753H253.02Z" fill="#E07E40"/>
<path d="M246.519 252.639C246.777 254.685 246.139 256.472 245.104 256.593C244.07 256.715 243.018 255.171 242.759 253.107C242.5 251.06 243.138 249.274 244.173 249.152C245.208 249.031 246.26 250.575 246.519 252.639Z" fill="#592724"/>
<path d="M213.442 278.379C213.563 277.529 227.945 269.516 237.844 261.502C247.743 253.489 252.106 247.036 254.279 244.001C256.452 240.965 262.419 244.001 261.643 247.522C261.263 249.274 254.193 256.888 244.777 264.121C238.362 269.047 232.136 275.968 224.91 278.553C221.392 279.801 216.65 278.379 213.425 278.379H213.442Z" fill="#9A443E"/>
<path d="M273.266 276.939C273.266 276.939 275.042 279.437 275.232 289.931C276.508 285.265 277.267 280.426 277.37 275.517C277.612 263.983 272.628 253.593 267.023 248.441C264.367 245.995 260.246 246.221 257.762 248.84C251.433 255.535 237.637 270.036 223.548 277.633C219.978 279.559 217.046 276.87 213.442 278.397C217.891 291.475 224.479 290.035 224.479 290.035C224.479 290.035 225.721 294.163 231.601 295.586C237.482 297.025 243.897 294.875 248.881 291.648C257.435 302.576 252.675 318.551 242.707 332.514C245.76 331.23 248.157 329.114 251.295 326.651C251.295 326.651 251.33 326.617 251.347 326.599C258.245 320.199 261.556 312.411 263.143 305.091C263.695 307.589 263.246 311.613 262.643 315.03C266.609 311.63 268.782 308.3 271.179 298.708C273.576 289.116 273.3 276.957 273.3 276.957L273.266 276.939Z" fill="#E07E40"/>
<path d="M284.406 230.263C282.371 225.389 271.197 225.892 269.196 225.389C267.196 224.886 265.678 220.307 267.834 218.52C269.989 216.734 279.629 219.232 284.406 230.263Z" fill="#E07E40"/>
<path d="M258.435 230.922C252.917 227.054 245.829 226.031 242.173 227.436C238.5 228.841 238.758 235.848 240.155 235.397C241.552 234.946 248.416 229.604 258.435 230.94V230.922Z" fill="#E07E40"/>
<path d="M262.264 254.2C262.522 256.246 261.884 258.033 260.849 258.154C259.815 258.276 258.763 256.715 258.504 254.668C258.245 252.621 258.883 250.835 259.918 250.713C260.953 250.592 262.005 252.136 262.264 254.2Z" fill="#592724"/>
<path d="M213.149 278.05C213.046 279.871 215.857 283.409 217.46 283.288C219.064 283.166 223.772 282.16 224.445 279.142C224.91 277.044 218.926 276.766 215.443 277.148C213.908 277.304 213.149 278.05 213.149 278.05Z" fill="#592724"/>
<g style="mix-blend-mode:screen" opacity="0.2">
<path d="M163.241 406.128L162.12 408.296C155.067 421.582 154.843 414.575 154.843 414.575C154.843 414.575 141.685 430.637 133.269 437.766C133.183 437.852 133.096 437.922 132.993 437.991C124.595 444.999 114.282 456.811 114.765 462.361C115.248 467.912 119.559 471.051 118.128 471.78C116.696 472.508 108.056 473.237 106.125 470.34C104.211 467.443 102.762 445.97 103.486 441.373C103.969 438.321 107.539 433.863 111.281 425.659C113.023 421.86 114.799 417.263 116.317 411.626C123.18 407.984 130.217 394.819 131.32 392.633C121.732 418.46 125.802 425.693 144.047 399.641C139.477 420.871 150.997 404.705 153.411 397.23C147.41 418.478 162.293 403.509 166.604 392.65C166.311 397.334 163.241 406.162 163.241 406.162V406.128Z" fill="#BD613F"/>
</g>
<path d="M133.269 437.748C133.183 437.835 133.096 437.904 132.993 437.974C124.595 444.981 114.282 456.793 114.765 462.344C115.248 467.894 119.559 471.034 118.128 471.762C116.696 472.491 108.056 473.219 106.125 470.323C104.211 467.426 102.762 445.953 103.486 441.356C103.969 438.303 107.539 433.846 111.281 425.641C108.574 436.829 107.66 448.26 118.852 436.777C114.454 447.011 126.785 442.223 133.269 437.748Z" fill="#F3E8D3"/>
<g style="mix-blend-mode:multiply" opacity="0.3">
<path d="M173.847 405.763C174.64 405.833 175.451 405.92 176.261 406.041C176.71 402.485 177.675 396.779 177.675 396.345C177.675 395.859 176.279 401.705 173.847 405.763Z" fill="#AD5534"/>
<path d="M194.662 410.36C195.921 405.59 197.697 398.149 197.697 398.149C197.697 398.149 195.024 405.625 192.093 409.579C192.955 409.84 193.817 410.1 194.662 410.36Z" fill="#AD5534"/>
<path d="M210.235 416.032C211.235 416.431 212.2 416.847 213.132 417.229C212.321 412.094 212.08 405.92 212.08 405.92C212.08 405.92 210.079 411.574 210.217 416.032H210.235Z" fill="#AD5534"/>
<path d="M217.96 398.461C217.546 405.434 218.323 412.788 220.702 420.542C221.392 420.854 222.013 421.166 222.617 421.444C220.168 413.777 218.65 407.29 217.96 398.478V398.461Z" fill="#AD5534"/>
</g>
<path d="M256.814 472.422C256.486 473.532 248.657 474.676 242.656 468.64C232.343 458.268 227.376 423.751 227.376 423.751C224.721 408.417 226.549 391.107 228.894 385.868C227.687 421.461 237.068 414.488 238.534 410.516C245.794 433.724 252.951 446.265 262.195 425.78C261.074 428.364 253.917 445.38 253.71 458.511C253.52 470.011 257.952 468.658 256.831 472.439L256.814 472.422Z" fill="#F3E8D3"/>
<path opacity="0.2" d="M224.479 290.018C227.514 290.191 236.689 288.561 242.725 285.231C250.071 281.189 251.813 276.679 252.278 275.933C253.089 274.598 254.469 275.153 253.089 277.46C251.709 279.767 249.467 282.75 242.932 286.046C236.43 289.324 229.325 290.33 224.479 290.001V290.018Z" fill="#592724"/>
<path d="M242.535 222.059C242.725 221.833 244.001 221.799 246.105 221.92C243.483 222.18 242.138 222.527 242.535 222.059Z" fill="#E07E40"/>
<path d="M315.655 308.404C316.776 317.736 312.499 350.241 311.395 345.748C307.86 370.951 286.89 405.694 281.682 401.757C280.94 405.867 277.37 414.089 267.747 420.438C275.37 384.776 243.621 361.429 241.207 355.462C237.499 354.421 226.583 334.908 222.737 309.583C231.67 336.382 258.694 360.908 261.505 362.209C264.764 363.701 264.178 360.11 264.178 360.11C264.178 360.11 274.852 374.715 276.336 391.124C287.597 385.469 298.272 360.718 299.755 349.079C303.014 357.127 310.429 329.392 308.653 311.804C313.396 317.476 311.016 267.087 287.597 240.549C287.407 240.341 287.217 240.133 287.045 239.925C287.51 240.185 287.959 240.462 288.407 240.774C297.237 246.585 302.979 256.507 308.05 267.504C317.707 288.422 318.259 313.243 315.655 308.404Z" fill="#E8CCAE"/>
</g>
<defs>
<filter id="filter0_d_663_2055" x="0" y="0" width="444" height="564" filterUnits="userSpaceOnUse" color-interpolation-filters="sRGB">
<feFlood flood-opacity="0" result="BackgroundImageFix"/>
<feColorMatrix in="SourceAlpha" type="matrix" values="0 0 0 0 0 0 0 0 0 0 0 0 0 0 0 0 0 0 127 0" result="hardAlpha"/>
<feOffset dx="20" dy="20"/>
<feGaussianBlur stdDeviation="15"/>
<feComposite in2="hardAlpha" operator="out"/>
<feColorMatrix type="matrix" values="0 0 0 0 0 0 0 0 0 0 0 0 0 0 0 0 0 0 0.08 0"/>
<feBlend mode="normal" in2="BackgroundImageFix" result="effect1_dropShadow_663_2055"/>
<feBlend mode="normal" in="SourceGraphic" in2="effect1_dropShadow_663_2055" result="shape"/>
</filter>
<clipPath id="clip0_663_2055">
<rect width="230" height="256" fill="white" transform="translate(87 218)"/>
</clipPath>
</defs>
</svg>
