<svg width="444" height="564" viewBox="0 0 444 564" fill="none" xmlns="http://www.w3.org/2000/svg">
<g filter="url(#filter0_d_663_2098)">
<rect x="10" y="10" width="384" height="504" rx="8" fill="white"/>
</g>
<path d="M196.352 57.818C199.376 57.818 201.662 55.316 201.662 50.276C201.662 45.236 199.376 42.734 196.352 42.734C193.31 42.734 191.024 45.236 191.024 50.276C191.024 55.316 193.31 57.818 196.352 57.818ZM196.352 56.144C194.39 56.144 192.842 54.2 192.842 50.276C192.842 46.37 194.39 44.408 196.352 44.408C198.296 44.408 199.844 46.37 199.844 50.276C199.844 54.2 198.296 56.144 196.352 56.144ZM207.914 57.818C210.938 57.818 213.008 55.748 213.008 52.886C213.008 50.006 210.992 48.044 208.256 48.044C206.6 48.044 205.538 48.764 204.998 49.43L205.25 44.714H212.27V43.076H203.522L203.108 51.374H204.962C205.448 50.474 206.366 49.664 207.95 49.664C209.858 49.664 211.154 51.032 211.154 52.886C211.154 54.776 209.912 56.18 207.914 56.18C205.88 56.18 204.746 54.974 204.692 53.426H202.82C202.928 55.928 204.8 57.818 207.914 57.818Z" fill="#666666"/>
<path d="M166.64 73.8149H163.649V95.2127H166.64V84.1906H169.789V81.7459H166.64V73.8149ZM150.662 90.0249H152.452C156.223 90.0331 159.132 89.9503 162.439 89.3867L162.107 86.884C159.289 87.3729 156.729 87.5387 153.637 87.5635V78.2155H160.665V75.8039H150.662V90.0249ZM189.323 85.3508H169.814V87.7541H189.323V85.3508ZM172.209 76.6243H183.969V78.0746H172.243V83.9834H187.359V81.7376H175.218V80.2127H186.969V74.3122H172.209V76.6243ZM172.276 94.7901H187.433V92.3785H175.267V88.9309H172.276V94.7901ZM202.521 78.6547V75.4641H199.529V78.6547C199.521 82.616 197.814 86.6934 194.209 88.3508L196.04 90.779C198.46 89.5773 200.109 87.3232 201.037 84.5635C201.924 87.1326 203.474 89.2376 205.753 90.3646L207.559 87.9862C204.137 86.3287 202.504 82.4751 202.521 78.6547ZM208.504 95.163H211.496V84.5718H214.645V82.0442H211.496V73.8149H208.504V95.163ZM231.617 73.8481H228.617V86.511H231.617V81.3729H234.501V78.8867H231.617V73.8481ZM215.432 77.279H222.327V79.1271H215.466V85.7403H217.256C221.59 85.7403 224.333 85.6326 227.383 85.0442L227.068 82.6989C224.358 83.163 221.963 83.279 218.449 83.2873V81.3729H225.245V74.884H215.432V77.279ZM217.645 94.9227H231.617V87.3978H217.645V94.9227ZM220.579 92.5276V89.7348H228.684V92.5276H220.579ZM246.7 75.953H235.645V78.3398H243.725C243.717 80.2293 243.667 82.5166 243.178 85.616L246.12 85.8481C246.692 82.3011 246.692 79.674 246.7 77.6685V75.953ZM234.526 88.4171L234.808 90.8039C238.546 90.8204 243.377 90.7459 247.753 90L247.579 87.7873C245.615 88.0359 243.485 88.1851 241.388 88.2762V82.0691H238.446V88.3674C237.054 88.4006 235.728 88.4088 234.526 88.4171ZM248.582 95.163H251.598V84.895H254.507V82.3923H251.598V73.8149H248.582V95.163Z" fill="#2C2827"/>
<path d="M146.717 109.815H143.717V121.749H146.717V116.942H149.585V114.489H146.717V109.815ZM129.555 119.851L130.74 122.238C137.154 120.547 140.726 116.718 140.734 111.075H130.607V113.453H137.469C136.996 116.296 134.345 118.666 129.555 119.851ZM132.753 130.898H146.717V122.552H132.753V130.898ZM135.729 128.552V124.964H143.759V128.552H135.729ZM167.792 109.815H164.809V115.019H161.477V117.456H164.809V122.494H167.792V109.815ZM149.676 120.133L151.226 122.503C153.753 121.633 155.461 119.892 156.389 117.721C157.325 119.635 158.941 121.177 161.295 121.948L162.77 119.594C159.463 118.5 157.939 115.997 157.864 113.519H162.115V111.116H150.546V113.519H154.823C154.756 116.196 153.157 118.972 149.676 120.133ZM153.173 127.077C153.165 129.663 155.958 131.18 160.499 131.188C165.057 131.18 167.842 129.663 167.85 127.077C167.842 124.492 165.057 122.967 160.499 122.967C155.958 122.967 153.165 124.492 153.173 127.077ZM156.149 127.077C156.14 125.851 157.673 125.238 160.499 125.238C163.334 125.238 164.875 125.851 164.883 127.077C164.875 128.296 163.334 128.909 160.499 128.901C157.673 128.909 156.14 128.296 156.149 127.077ZM179.552 110.13C174.629 110.13 171.778 111.414 171.787 113.76C171.778 116.146 174.629 117.423 179.552 117.423C184.466 117.423 187.301 116.146 187.309 113.76C187.301 111.414 184.466 110.13 179.552 110.13ZM169.839 120.804H189.298V118.434H169.839V120.804ZM172.085 124.227H183.969V125.387H172.102V131.014H187.475V128.76H175.035V127.475H186.919V122.03H172.085V124.227ZM174.919 113.76C174.903 112.823 176.428 112.309 179.552 112.318C182.718 112.309 184.226 112.823 184.226 113.76C184.226 114.812 182.718 115.218 179.552 115.227C176.428 115.218 174.903 114.812 174.919 113.76ZM204.278 123.108C199.653 123.116 196.67 124.591 196.67 127.144C196.67 129.663 199.653 131.163 204.278 131.155C208.935 131.163 211.877 129.663 211.894 127.144C211.877 124.591 208.935 123.116 204.278 123.108ZM194.714 121.765H214.081V119.354H204.932V115.608H201.974V119.354H194.714V121.765ZM196.894 113.13H208.786C208.778 114.58 208.72 116.022 208.239 117.953L211.173 118.235C211.786 116.047 211.786 114.215 211.786 112.533V110.785H196.894V113.13ZM199.67 127.144C199.653 125.967 201.344 125.337 204.278 125.337C207.211 125.337 208.919 125.967 208.927 127.144C208.919 128.304 207.211 128.876 204.278 128.884C201.344 128.876 199.653 128.304 199.67 127.144ZM234.178 121.699H214.67V124.102H219.137V131.163H222.203V124.102H226.579V131.163H229.612V124.102H234.178V121.699ZM216.626 115.359C216.617 118.235 219.792 120.058 224.366 120.05C228.949 120.058 232.148 118.235 232.148 115.359C232.148 112.417 228.949 110.536 224.366 110.536C219.792 110.536 216.617 112.417 216.626 115.359ZM219.709 115.359C219.692 113.785 221.507 112.931 224.366 112.923C227.25 112.931 229.057 113.785 229.057 115.359C229.057 116.859 227.25 117.688 224.366 117.696C221.507 117.688 219.692 116.859 219.709 115.359ZM251.54 109.815H248.582V131.163H251.54V120.638H254.689V118.177H251.54V109.815ZM234.601 115.401H247.14V113.006H242.416V110.155H239.432V113.006H234.601V115.401ZM235.463 121.682C235.455 124.666 237.775 126.762 240.924 126.771C244.032 126.762 246.361 124.666 246.369 121.682C246.361 118.707 244.032 116.594 240.924 116.594C237.775 116.594 235.455 118.707 235.463 121.682ZM238.33 121.682C238.322 120.05 239.416 119.039 240.924 119.022C242.416 119.039 243.493 120.05 243.51 121.682C243.493 123.34 242.416 124.326 240.924 124.318C239.416 124.326 238.322 123.34 238.33 121.682ZM272.656 109.815H269.631V131.163H272.656V109.815ZM254.806 125.122L256.364 127.5C263.988 123.903 266.259 118.525 266.267 112.061H255.949V114.406H263.217C262.736 119.146 260.308 122.511 254.806 125.122Z" fill="#FF8A33"/>
<g clip-path="url(#clip0_663_2098)">
<path d="M220.488 247.292C219.267 246.115 216.687 246.877 211.826 248.308C208.163 249.393 201.459 251.354 197.312 256.593C189.871 265.964 192.935 282.811 198.118 284.265C206.273 286.55 225.418 252.07 220.488 247.316V247.292Z" fill="#945856"/>
<path d="M189.755 305.475C189.686 307.322 189.225 310.368 187.106 313.738C184.802 317.384 181.577 319.784 179.573 321.077C180.195 323.523 182.061 329.501 187.659 334.509C194.847 340.948 203.163 341.34 205.398 341.363C206.527 339.609 208.024 337.025 209.43 333.701C210.881 330.216 212.448 326.524 212.655 321.585C212.747 319.207 212.609 315.03 210.605 310.045C203.67 308.522 196.713 306.975 189.778 305.452L189.755 305.475Z" fill="#704341"/>
<path d="M186.323 407.278C185.54 411.086 184.111 415.794 181.439 420.756C174.504 433.542 163.538 439.75 158.516 442.174C156.696 445.22 154.669 449.213 153.01 454.106C151.444 458.745 150.66 462.945 150.269 466.338C150.868 466.338 152.987 466.338 154.853 467.861C157.595 470.123 157.318 473.654 157.295 473.977H144.44C143.173 471.507 141.998 468.646 141.1 465.415C137.367 452.098 140.454 440.304 142.62 434.188C143.334 433.265 144.394 431.811 145.362 429.896C149.67 421.518 148.356 412.978 148.103 410.924C147.274 403.862 149.232 390.061 160.935 360.727C169.39 376.236 177.845 391.746 186.3 407.255L186.323 407.278Z" fill="#E0C9B5"/>
<path d="M271.609 391.353C267.831 398.323 262.301 405.939 254.192 412.471C222.193 438.204 177.983 424.333 172.615 422.556C168.376 421.887 164.091 421.195 159.783 420.41C143.611 417.525 128.221 414.109 113.638 410.324C112.763 405.432 112.164 399.662 112.394 393.246C112.394 392.923 112.394 392.599 112.417 392.276C113.316 372.336 121.517 357.334 126.77 349.418C134.418 350.341 142.044 351.265 149.693 352.188C154.83 351.98 160.359 351.518 166.211 350.664C180.31 348.587 192.336 344.779 201.965 340.856C202.979 339.056 204.039 336.678 204.707 333.84C206.504 326.339 204.615 319.969 203.509 316.992C210.167 317.823 216.802 318.677 223.46 319.507C239.402 321.515 255.367 323.546 271.309 325.554C270.296 331.878 269.282 338.202 268.268 344.525C268.268 350.664 268.476 357.104 268.89 363.82C269.466 373.582 270.434 382.791 271.632 391.353H271.609Z" fill="#F5DBC6"/>
<path d="M226.846 390.73C226.316 397.631 225.971 404.878 225.925 412.471C225.787 432.226 227.583 450.113 230.21 465.738C230.763 465.322 233.09 463.614 235.716 464.214C238.987 464.953 241.614 469.061 240.899 474H223.46C219.635 469.684 215.742 464.607 212.171 458.698C197.312 434.142 196.022 409.032 196.598 394.723C206.688 393.407 216.756 392.069 226.846 390.753V390.73Z" fill="#F5DBC6"/>
<path d="M270.826 390.73C270.296 397.631 269.95 404.878 269.904 412.471C269.766 432.226 271.563 450.113 274.189 465.738C274.742 465.322 277.069 463.614 279.695 464.214C282.966 464.953 285.593 469.061 284.879 474H267.439C263.615 469.684 259.721 464.607 256.15 458.698C241.291 434.142 240.001 409.032 240.577 394.723C250.667 393.407 260.735 392.069 270.826 390.753V390.73Z" fill="#F5DBC6"/>
<path d="M146.974 407.278C146.191 411.086 144.763 415.794 142.09 420.756C135.156 433.542 124.19 439.75 119.167 442.174C117.348 445.22 115.32 449.213 113.661 454.106C112.095 458.745 111.312 462.945 110.92 466.338C111.519 466.338 113.638 466.338 115.504 467.861C118.246 470.123 117.97 473.654 117.946 473.977H105.091C103.824 471.507 102.649 468.646 101.751 465.415C98.0188 452.098 101.106 440.304 103.271 434.188C103.986 433.265 105.045 431.811 106.013 429.896C110.321 421.518 109.008 412.978 108.754 410.924C107.925 403.862 109.883 390.061 121.586 360.727C130.041 376.236 138.496 391.746 146.951 407.255L146.974 407.278Z" fill="#F5DBC6"/>
<path d="M219.082 376.513C213.83 380.691 209.476 377.621 204.569 382.56C198.947 388.237 202.68 394.307 198.118 401.139C193.534 407.993 184.825 409.286 171.924 411.224C163.607 412.471 153.148 413.902 141.698 409.217C135.916 406.839 130.64 404.67 128.406 399.523C126.286 394.677 128.336 390.615 124.789 384.176C123.337 381.568 120.918 378.475 119.559 378.937C118.039 379.444 119.536 383.691 117.555 387.822C116.495 390.038 114.583 391.93 112.486 393.223C112.486 392.9 112.486 392.576 112.509 392.253C113.408 372.313 121.609 357.311 126.862 349.395C134.511 350.318 142.136 351.241 149.785 352.165C154.922 351.957 160.451 351.495 166.303 350.641C180.402 348.564 192.428 344.756 202.058 340.833C203.071 339.033 204.131 336.655 204.799 333.817C206.596 326.316 204.707 319.946 203.601 316.969C210.259 317.8 216.894 318.654 223.552 319.484C224.381 325.854 224.98 333.078 225.211 340.994C225.763 360.404 225.925 371.136 219.175 376.536L219.082 376.513Z" fill="#945856"/>
<path d="M133.221 354.934C128.728 359.642 124.259 364.327 119.766 369.012C118.845 362.85 117.37 353.388 115.504 341.756C112.947 326.062 112.026 321.377 111.703 318.769C111.565 317.615 111.519 316.853 111.542 315.746C111.611 299.659 117.324 297.536 118.868 275.634C119.375 268.225 119.214 261.671 120.388 261.555C121.54 261.417 123.268 267.556 124.074 272.449C125.249 279.557 124.627 285.027 124.374 287.866C123.982 291.882 123.959 296.082 124.051 301.667C124.121 306.283 124.282 311.868 124.374 319.092C124.489 328.324 124.604 334.37 127.115 342.056C128.959 347.71 131.401 352.049 133.221 354.911V354.934Z" fill="#945856"/>
<path d="M124.351 287.889C123.959 291.905 123.936 296.105 124.028 301.69C123.038 302.775 121.679 304.252 119.214 307.483C115.689 312.145 113.339 315.953 111.657 318.792C111.519 317.638 111.473 316.876 111.496 315.769C111.565 299.682 117.278 297.559 118.822 275.657C119.329 268.248 119.167 261.694 120.342 261.578C121.494 261.44 123.222 267.579 124.028 272.472C125.203 279.58 124.581 285.05 124.328 287.889H124.351Z" fill="#F5DBC6"/>
<path d="M273.221 305.498C272.738 311.961 271.586 317.753 270.25 322.715C267.07 323.893 244.309 332.109 226.247 330.055C216.018 328.901 209.061 326.616 209.061 326.616C202.795 324.562 202.104 323.362 197.381 322.715C192.773 322.092 189.594 322.715 186.83 320.431C185.01 318.907 184.226 316.83 183.858 315.376C182.291 315.699 180.264 315.838 178.352 314.915C173.099 312.353 172.846 303.652 172.615 295.851C172.362 287.196 172.201 280.988 176.278 277.942C178.536 276.257 181.462 276.118 187.267 275.865C191.345 275.68 194.732 276.003 197.127 276.326C197.289 274.526 197.519 271.803 197.819 268.525C198.279 263.402 198.51 260.84 198.74 260.263C200.145 256.432 204.5 254.378 213.185 250.385C219.198 247.616 222.285 246.231 226.017 246.023C229.127 245.838 231.822 246.346 234.172 247.085C235.785 247.592 237.259 248.193 238.619 248.77C244.977 251.493 254.561 255.993 266.563 263.009C267.692 265.871 268.89 269.287 269.973 273.164C272.392 281.842 274.166 292.874 273.198 305.475L273.221 305.498Z" fill="#F5DBC6"/>
<path d="M269.996 273.164C269.766 277.896 268.982 283.158 267.278 288.72C265.55 294.282 263.269 298.875 261.08 302.498C255.045 300.698 246.82 298.967 237.029 299.059C231.684 299.105 226.892 299.682 222.815 300.444C220.649 295.32 217.861 292.574 215.719 291.028C212.378 288.604 209.291 288.12 206.32 284.589C204.661 282.627 203.808 280.642 203.348 279.303C207.241 272.841 210.973 267.694 213.899 263.933C222.838 252.416 227.376 249.9 229.703 248.793C231.27 248.054 232.79 247.5 234.195 247.108C235.808 247.616 237.282 248.216 238.642 248.793C245 251.516 254.584 256.016 266.586 263.032C267.715 265.894 268.913 269.31 269.996 273.187V273.164Z" fill="#945856"/>
<path d="M195.077 282.419C194.202 278.242 186.346 277.226 185.678 277.134C184.295 276.972 177.016 276.095 174.804 280.227C173.698 282.281 174.389 284.589 174.689 285.627C175.702 289.043 178.859 292.343 182.36 292.389C182.982 292.389 184.733 291.558 188.212 289.874C192.612 287.727 193.902 287.012 194.639 285.396C194.824 284.981 195.377 283.781 195.1 282.419H195.077Z" fill="#213049"/>
<path d="M304 330.747C301.834 334.047 299.208 337.578 296.052 341.156C288.611 349.603 280.755 355.35 274.35 359.204C271.701 358.419 268.153 356.988 264.582 354.311C256.842 348.541 253.962 340.717 252.971 337.486C252.165 331.324 251.589 324.677 251.451 317.592C250.967 294.859 254.86 275.357 259.399 260.355C260.228 259.917 261.587 259.294 263.361 259.132C263.361 259.132 267.139 258.763 270.388 260.978C274.765 263.933 275.41 270.302 275.571 271.687C276.424 278.426 282.736 294.028 303.977 330.77L304 330.747Z" fill="#945856"/>
<path d="M232.905 280.019C232.537 278.749 231.869 276.995 230.624 275.195C229.864 274.134 226.109 268.756 222.377 269.679C219.497 270.395 218.437 274.434 218.253 275.195C217.424 278.68 218.507 283.365 221.455 284.612C223.275 285.373 225.234 284.589 227.422 283.688C230.095 282.604 231.892 281.034 232.928 280.019H232.905Z" fill="#213049"/>
<path d="M257.763 373.282C258.777 375.636 260.251 379.814 260.182 384.983C259.906 406.447 233.504 422.879 233.182 422.533C232.997 422.349 241.061 417.202 248.087 405.57C255.667 393.038 257.371 380.691 257.763 373.259V373.282Z" fill="#E0C9B5"/>
<path d="M192.866 344.018C192.013 346.626 190.723 350.618 189.249 355.534C186.668 364.05 186.761 364.327 186.023 366.035C183.627 371.482 180.149 372.22 169.897 379.767C157.387 388.976 156.281 392.53 152.158 391.884C150.199 391.584 149.508 390.638 139.671 379.375C132.622 371.297 132.023 370.605 131.216 368.874C129.788 365.897 127.645 359.688 130.018 349.903C136.146 350.618 142.966 351.034 150.384 350.918C167.386 350.618 181.83 347.479 192.912 344.064L192.866 344.018Z" fill="#663D3B"/>
<path d="M229.15 266.679C228.689 267.718 225.026 266.887 224.727 266.817C223.782 266.587 221.064 265.964 220.972 264.671C220.879 263.702 222.239 262.617 223.529 262.386C226.455 261.832 229.68 265.548 229.173 266.702L229.15 266.679Z" fill="#F5DBC6"/>
<path d="M257.371 267.348C255.805 268.133 254.584 269.079 253.616 270.049C244.378 279.234 251.151 298.067 251.727 299.659C253.616 288.881 255.482 278.126 257.371 267.348Z" fill="#663D3B"/>
<path d="M208.393 313.114C207.587 313.784 206.711 314.384 205.79 314.915C204.891 315.469 203.924 315.907 202.933 316.299C200.952 317.084 198.832 317.546 196.667 317.707C196.137 317.707 195.584 317.776 195.054 317.753C194.524 317.753 193.948 317.73 193.441 317.684C192.359 317.592 191.276 317.43 190.239 317.153C188.143 316.646 186.138 315.792 184.295 314.707H184.917C184.111 315.076 183.259 315.284 182.383 315.33C181.946 315.33 181.508 315.33 181.093 315.238C180.817 315.192 180.678 315.145 180.471 315.099C180.287 315.053 180.056 314.961 179.849 314.892C178.259 314.222 177.038 312.953 176.37 311.499C176.854 312.122 177.43 312.676 178.075 313.138C178.697 313.576 179.411 313.899 180.126 314.084C180.31 314.107 180.448 314.153 180.655 314.199C180.84 314.199 181.093 314.268 181.208 314.268C181.577 314.268 181.946 314.268 182.291 314.222C183.005 314.13 183.696 313.899 184.341 313.553L184.618 313.391L184.963 313.553C186.76 314.476 188.673 315.169 190.631 315.63C191.621 315.838 192.612 316.022 193.603 316.115C194.133 316.184 194.593 316.184 195.123 316.207C195.63 316.23 196.137 316.207 196.644 316.207C198.648 316.138 200.675 315.861 202.657 315.307C204.638 314.776 206.573 314.038 208.439 313.091L208.393 313.114Z" fill="#213049"/>
<path d="M191.668 280.827C191.506 281.957 186.876 282.027 186.622 282.027C181.969 282.096 177.015 280.203 177.154 279.003C177.269 277.988 181.001 277.411 183.812 277.596C187.797 277.849 191.829 279.742 191.668 280.827Z" fill="#455982"/>
<path d="M224.911 271.526C225.487 272.218 224.566 273.88 224.105 274.549C222.93 276.28 220.58 277.642 219.682 276.972C218.921 276.395 219.175 274.411 220.073 273.141C221.386 271.295 224.22 270.695 224.911 271.526Z" fill="#455982"/>
<path d="M207.656 394.954C205.905 394.192 205.721 389.691 207.379 386.599C210.121 381.544 217.516 381.06 218.668 382.837C220.35 385.422 210.858 396.361 207.656 394.954Z" fill="#704341"/>
</g>
<path fill-rule="evenodd" clip-rule="evenodd" d="M142.183 194.342L142.077 196.518C141.435 196.738 135.774 199.022 135.664 198.494C135.642 198.449 129.646 191.943 124.17 191.515C118.181 191.054 112.172 195.352 110.401 202.898C108.405 211.488 119.926 220.691 128.461 217.3L130.085 216.645C130.479 217.012 133.209 219.756 133.741 219.947C134.007 220.042 134.002 220.265 133.692 220.605C126.456 228.74 139.338 242.41 149.902 237.758C156.234 234.965 158.127 222.584 152.617 219.743C150.685 218.749 150.22 219.52 151.316 221.903C155.08 230.235 142.765 240.075 137.795 232.698C132.369 224.708 141.725 215.795 148.83 218.27C149.794 218.617 150.296 218.159 149.708 217.497C147.452 214.999 142.9 214.715 138.539 216.828L135.799 218.396C135.514 218.144 132.952 215.873 132.197 215.151L133.643 213.531C136.166 210.684 137.211 207.982 136.998 204.603C136.867 202.041 136.908 201.718 137.514 201.598C138.4 201.428 142.451 200.18 143.127 199.972L144.471 201.769C151.517 211.204 165.086 209.995 168.789 199.578C170.701 194.147 167.439 189.748 163.428 186.807C151.372 178.05 142.539 186.138 142.183 194.342ZM164.568 197.012C161.047 206.819 147.482 206.865 147.249 197.062C147.173 193.093 152.175 181.041 161.535 188.004C164.204 189.976 165.857 193.421 164.568 197.012ZM134.143 201.476C135.436 206.444 130.318 213.801 123.281 214.69C119.191 215.211 115.393 211.258 115.522 206.613C115.603 202.626 118.441 198.691 121.629 196.608C127.369 192.851 133.474 198.947 134.143 201.476Z" fill="#FFB076"/>
<defs>
<filter id="filter0_d_663_2098" x="0" y="0" width="444" height="564" filterUnits="userSpaceOnUse" color-interpolation-filters="sRGB">
<feFlood flood-opacity="0" result="BackgroundImageFix"/>
<feColorMatrix in="SourceAlpha" type="matrix" values="0 0 0 0 0 0 0 0 0 0 0 0 0 0 0 0 0 0 127 0" result="hardAlpha"/>
<feOffset dx="20" dy="20"/>
<feGaussianBlur stdDeviation="15"/>
<feComposite in2="hardAlpha" operator="out"/>
<feColorMatrix type="matrix" values="0 0 0 0 0 0 0 0 0 0 0 0 0 0 0 0 0 0 0.08 0"/>
<feBlend mode="normal" in2="BackgroundImageFix" result="effect1_dropShadow_663_2098"/>
<feBlend mode="normal" in="SourceGraphic" in2="effect1_dropShadow_663_2098" result="shape"/>
</filter>
<clipPath id="clip0_663_2098">
<rect width="204" height="228" fill="white" transform="translate(100 246)"/>
</clipPath>
</defs>
</svg>
