<svg width="320" height="476" viewBox="0 0 320 476" fill="none" xmlns="http://www.w3.org/2000/svg">
<g filter="url(#filter0_d_1281_4093)">
<rect x="8" y="8" width="288" height="444" rx="12" fill="white"/>
</g>
<path d="M37.552 46.616C34.848 46.616 32.816 44.392 32.816 39.912C32.816 35.432 34.848 33.208 37.552 33.208C40.24 33.208 42.272 35.432 42.272 39.912C42.272 44.392 40.24 46.616 37.552 46.616ZM37.552 45.128C39.28 45.128 40.656 43.4 40.656 39.912C40.656 36.44 39.28 34.696 37.552 34.696C35.808 34.696 34.432 36.44 34.432 39.912C34.432 43.4 35.808 45.128 37.552 45.128ZM47.8298 46.616C45.0618 46.616 43.3978 44.936 43.3018 42.712H44.9658C45.0138 44.088 46.0218 45.16 47.8298 45.16C49.6058 45.16 50.7098 43.912 50.7098 42.232C50.7098 40.584 49.5578 39.368 47.8618 39.368C46.4538 39.368 45.6378 40.088 45.2058 40.888H43.5578L43.9258 33.512H51.7018V34.968H45.4618L45.2378 39.16C45.7178 38.568 46.6618 37.928 48.1338 37.928C50.5658 37.928 52.3578 39.672 52.3578 42.232C52.3578 44.776 50.5178 46.616 47.8298 46.616Z" fill="#9D9D9D"/>
<path d="M46.5511 62.0124V68.6215H49.1754V70.6588H46.5511V79.8439H44.058V62.0124H46.5511ZM33.2362 75.5207V63.6699H41.5718V65.6796H35.7155V73.4696C38.2914 73.4489 40.4254 73.3108 42.7735 72.9033L43.0497 74.989C40.2942 75.4586 37.8702 75.5276 34.7279 75.5207H33.2362ZM65.4531 71.6257V73.6285H49.1962V71.6257H65.4531ZM51.1921 64.3536V62.4268H63.4918V67.3439H53.699V68.6146H63.8164V70.4862H51.2197V65.5622H60.9918V64.3536H51.1921ZM51.2473 79.4917V74.6091H53.7404V77.482H63.8785V79.4917H51.2473ZM76.4515 66.0456C76.4377 69.2293 77.7982 72.4406 80.6504 73.8218L79.1449 75.8039C77.2457 74.8646 75.9543 73.1105 75.2153 70.9696C74.4418 73.2693 73.0675 75.1478 71.051 76.1492L69.5247 74.1257C72.5289 72.7445 73.9515 69.3467 73.9584 66.0456V63.3867H76.4515V66.0456ZM81.4377 79.8025V62.0124H83.9308V68.8702H86.5551V70.9765H83.9308V79.8025H81.4377ZM100.699 62.0401V66.2389H103.102V68.3108H100.699V72.5925H98.1988V62.0401H100.699ZM87.2113 64.8992V62.9033H95.388V68.3108H89.7251V69.9061C92.6532 69.8992 94.6491 69.8025 96.9074 69.4157L97.1698 71.3702C94.6284 71.8605 92.3425 71.9503 88.7306 71.9503H87.2389V66.4392H92.9571V64.8992H87.2113ZM89.0552 79.6022V73.3315H100.699V79.6022H89.0552ZM91.4999 77.6064H98.2541V75.279H91.4999V77.6064ZM113.268 63.7942V65.2238C113.261 66.895 113.261 69.0843 112.785 72.0401L110.333 71.8467C110.74 69.2638 110.782 67.3577 110.789 65.7831H104.055V63.7942H113.268ZM103.123 74.1809C104.124 74.174 105.229 74.1671 106.39 74.1395V68.8909H108.841V74.0635C110.588 73.9876 112.363 73.8633 114 73.6561L114.145 75.5C110.499 76.1215 106.472 76.1837 103.358 76.1699L103.123 74.1809ZM114.836 79.8025V62.0124H117.349V69.1602H119.773V71.2459H117.349V79.8025H114.836Z" fill="#2B2B2B"/>
<path d="M46.634 92.0124V95.9075H49.0235V97.9517H46.634V101.957H44.134V92.0124H46.634ZM32.3315 100.376C36.3232 99.3881 38.5331 97.413 38.9268 95.0442H33.2086V93.0622H41.6478C41.6409 97.7652 38.6644 100.956 33.3191 102.365L32.3315 100.376ZM34.9972 109.581V102.627H46.634V109.581H34.9972ZM37.4765 107.627H44.1685V104.637H37.4765V107.627ZM64.1962 92.0124V102.579H61.71V98.3798H58.9338V96.3494H61.71V92.0124H64.1962ZM49.0995 100.61C52.0001 99.6436 53.3329 97.3301 53.3882 95.0994H49.8247V93.0967H59.4655V95.0994H55.9227C55.9849 97.1644 57.2556 99.25 60.0111 100.162L58.7818 102.123C56.8205 101.481 55.4738 100.196 54.6934 98.6008C53.92 100.41 52.4973 101.86 50.391 102.586L49.0995 100.61ZM52.0139 106.398C52.007 104.243 54.3343 102.972 58.1189 102.972C61.9172 102.972 64.2376 104.243 64.2445 106.398C64.2376 108.552 61.9172 109.816 58.1189 109.823C54.3343 109.816 52.007 108.552 52.0139 106.398ZM54.4932 106.398C54.4863 107.413 55.7639 107.924 58.1189 107.917C60.4807 107.924 61.7653 107.413 61.7722 106.398C61.7653 105.376 60.4807 104.865 58.1189 104.865C55.7639 104.865 54.4863 105.376 54.4932 106.398ZM73.996 92.2749C78.0913 92.2749 80.4532 93.3453 80.4601 95.2997C80.4532 97.2887 78.0913 98.3522 73.996 98.3522C69.8938 98.3522 67.5181 97.2887 67.525 95.2997C67.5181 93.3453 69.8938 92.2749 73.996 92.2749ZM65.9021 101.17V99.1948H82.1176V101.17H65.9021ZM67.7736 104.022V102.192H80.1355V106.729H70.2322V107.8H80.5982V109.678H67.7874V104.989H77.6769V104.022H67.7736ZM70.1355 95.2997C70.1217 96.1768 71.3924 96.5152 73.996 96.5221C76.6341 96.5152 77.891 96.1768 77.891 95.2997C77.891 94.5193 76.6341 94.0912 73.996 94.0981C71.3924 94.0912 70.1217 94.5193 70.1355 95.2997ZM94.6008 103.09C98.482 103.097 100.934 104.326 100.947 106.453C100.934 108.552 98.482 109.802 94.6008 109.796C90.7472 109.802 88.261 108.552 88.261 106.453C88.261 104.326 90.7472 103.097 94.6008 103.09ZM86.6311 101.971V99.9613H92.6809V96.8398H95.1463V99.9613H102.771V101.971H86.6311ZM88.4474 94.7749V92.8204H100.858V94.2776C100.858 95.6796 100.858 97.2058 100.347 99.029L97.9019 98.7942C98.3024 97.1851 98.3508 95.9834 98.3577 94.7749H88.4474ZM90.761 106.453C90.7472 107.42 92.156 107.896 94.6008 107.903C97.0455 107.896 98.4682 107.42 98.4751 106.453C98.4682 105.472 97.0455 104.948 94.6008 104.948C92.156 104.948 90.7472 105.472 90.761 106.453ZM119.518 101.916V103.919H115.713V109.802H113.185V103.919H109.539V109.802H106.983V103.919H103.261V101.916H119.518ZM104.891 96.6326C104.884 94.1809 107.529 92.6133 111.341 92.6133C115.16 92.6133 117.826 94.1809 117.826 96.6326C117.826 99.029 115.16 100.548 111.341 100.541C107.529 100.548 104.884 99.029 104.891 96.6326ZM107.46 96.6326C107.446 97.8826 108.959 98.5732 111.341 98.5801C113.744 98.5732 115.25 97.8826 115.25 96.6326C115.25 95.3204 113.744 94.6091 111.341 94.6022C108.959 94.6091 107.446 95.3204 107.46 96.6326ZM133.986 92.0124V98.9807H136.611V101.032H133.986V109.802H131.521V92.0124H133.986ZM119.87 96.6671V94.6713H123.896V92.2956H126.383V94.6713H130.319V96.6671H119.87ZM120.588 101.902C120.582 99.4227 122.515 97.6616 125.14 97.6616C127.729 97.6616 129.67 99.4227 129.677 101.902C129.67 104.388 127.729 106.135 125.14 106.142C122.515 106.135 120.582 104.388 120.588 101.902ZM122.978 101.902C122.971 103.283 123.883 104.105 125.14 104.098C126.383 104.105 127.28 103.283 127.294 101.902C127.28 100.541 126.383 99.6989 125.14 99.6851C123.883 99.6989 122.971 100.541 122.978 101.902ZM151.583 92.0124V109.802H149.062V92.0124H151.583ZM136.707 104.768C141.293 102.593 143.316 99.7887 143.717 95.8384H137.66V93.884H146.258C146.252 99.2707 144.359 103.753 138.006 106.75L136.707 104.768Z" fill="#FF8A33"/>
<g clip-path="url(#clip0_1281_4093)">
<path d="M212.231 258.964C211.358 258.086 209.511 258.654 206.032 259.721C203.41 260.53 198.613 261.992 195.645 265.899C190.319 272.885 192.512 285.447 196.222 286.531C202.058 288.235 215.76 262.526 212.231 258.981V258.964Z" fill="#945856"/>
<path d="M190.237 302.346C190.187 303.722 189.858 305.994 188.341 308.506C186.692 311.225 184.384 313.015 182.949 313.978C183.394 315.802 184.73 320.259 188.736 323.994C193.881 328.795 199.833 329.087 201.432 329.104C202.24 327.797 203.312 325.869 204.317 323.391C205.356 320.793 206.477 318.039 206.626 314.357C206.692 312.584 206.593 309.47 205.158 305.753C200.195 304.617 195.216 303.464 190.253 302.328L190.237 302.346Z" fill="#704341"/>
<path d="M187.78 378.251C187.219 381.09 186.197 384.601 184.285 388.301C179.322 397.834 171.474 402.463 167.879 404.27C166.577 406.541 165.126 409.518 163.939 413.167C162.817 416.625 162.257 419.757 161.977 422.287C162.405 422.287 163.922 422.287 165.258 423.423C167.22 425.109 167.022 427.742 167.005 427.983H157.805C156.898 426.142 156.057 424.008 155.414 421.599C152.743 411.669 154.953 402.876 156.503 398.316C157.014 397.627 157.772 396.543 158.465 395.115C161.548 388.869 160.608 382.501 160.427 380.97C159.833 375.704 161.235 365.414 169.61 343.542C175.661 355.106 181.712 366.67 187.764 378.234L187.78 378.251Z" fill="#E0C9B5"/>
<path d="M248.818 366.377C246.114 371.574 242.157 377.253 236.353 382.123C213.452 401.31 181.811 390.968 177.97 389.643C174.936 389.144 171.869 388.628 168.786 388.043C157.212 385.891 146.198 383.345 135.761 380.523C135.134 376.874 134.706 372.572 134.87 367.788C134.87 367.548 134.87 367.307 134.887 367.066C135.53 352.198 141.4 341.012 145.159 335.11C150.633 335.798 156.09 336.487 161.564 337.175C165.241 337.02 169.198 336.676 173.386 336.039C183.477 334.491 192.083 331.651 198.975 328.726C199.701 327.384 200.459 325.611 200.937 323.494C202.223 317.902 200.871 313.152 200.08 310.932C204.845 311.552 209.593 312.189 214.358 312.808C225.768 314.305 237.194 315.82 248.604 317.317C247.878 322.032 247.153 326.747 246.427 331.462C246.427 336.039 246.576 340.84 246.872 345.848C247.285 353.127 247.977 359.993 248.835 366.377H248.818Z" fill="#F5DBC6"/>
<path d="M216.782 365.913C216.403 371.058 216.156 376.461 216.123 382.123C216.024 396.853 217.31 410.189 219.189 421.839C219.585 421.53 221.25 420.256 223.13 420.704C225.471 421.254 227.351 424.317 226.84 428H214.358C211.621 424.782 208.835 420.996 206.279 416.591C195.645 398.281 194.721 379.559 195.134 368.89C202.355 367.909 209.561 366.911 216.782 365.93V365.913Z" fill="#F5DBC6"/>
<path d="M248.258 365.913C247.878 371.058 247.631 376.461 247.598 382.123C247.499 396.853 248.785 410.189 250.665 421.839C251.06 421.53 252.726 420.256 254.605 420.704C256.947 421.254 258.826 424.317 258.315 428H245.834C243.097 424.782 240.31 420.996 237.755 416.591C227.12 398.281 226.197 379.559 226.609 368.89C233.831 367.909 241.036 366.911 248.258 365.93V365.913Z" fill="#F5DBC6"/>
<path d="M159.619 378.251C159.058 381.09 158.036 384.601 156.123 388.301C151.16 397.834 143.312 402.463 139.718 404.27C138.415 406.541 136.964 409.518 135.777 413.167C134.656 416.625 134.096 419.757 133.815 422.287C134.244 422.287 135.761 422.287 137.096 423.423C139.058 425.109 138.861 427.742 138.844 427.983H129.644C128.737 426.142 127.896 424.008 127.253 421.599C124.582 411.669 126.791 402.876 128.341 398.316C128.852 397.627 129.611 396.543 130.303 395.115C133.387 388.869 132.447 382.501 132.265 380.97C131.672 375.704 133.073 365.414 141.449 343.542C147.5 355.106 153.551 366.67 159.602 378.234L159.619 378.251Z" fill="#F5DBC6"/>
<path d="M211.226 355.312C207.466 358.427 204.35 356.138 200.838 359.821C196.815 364.054 199.486 368.58 196.222 373.674C192.941 378.785 186.708 379.748 177.475 381.194C171.523 382.123 164.037 383.19 155.843 379.697C151.705 377.924 147.929 376.307 146.33 372.469C144.813 368.855 146.28 365.827 143.741 361.026C142.702 359.081 140.971 356.775 139.998 357.119C138.91 357.498 139.982 360.664 138.564 363.745C137.805 365.397 136.437 366.808 134.936 367.771C134.936 367.53 134.936 367.289 134.953 367.048C135.596 352.181 141.466 340.995 145.225 335.093C150.699 335.781 156.156 336.469 161.63 337.158C165.307 337.003 169.264 336.659 173.452 336.022C183.543 334.473 192.149 331.634 199.041 328.709C199.767 327.366 200.525 325.594 201.003 323.477C202.289 317.885 200.937 313.135 200.146 310.915C204.911 311.535 209.659 312.171 214.424 312.791C215.018 317.54 215.447 322.927 215.611 328.829C216.007 343.301 216.123 351.303 211.292 355.33L211.226 355.312Z" fill="#945856"/>
<path d="M149.775 339.223C146.56 342.733 143.362 346.227 140.147 349.72C139.487 345.125 138.432 338.07 137.096 329.397C135.266 317.695 134.607 314.202 134.376 312.258C134.277 311.397 134.244 310.829 134.26 310.003C134.31 298.009 138.399 296.426 139.504 280.095C139.866 274.572 139.751 269.684 140.592 269.598C141.416 269.495 142.653 274.072 143.23 277.721C144.071 283.021 143.626 287.099 143.444 289.216C143.164 292.21 143.147 295.342 143.213 299.506C143.263 302.948 143.378 307.112 143.444 312.498C143.527 319.382 143.609 323.89 145.406 329.621C146.725 333.837 148.473 337.072 149.775 339.206V339.223Z" fill="#945856"/>
<path d="M143.428 289.233C143.147 292.227 143.131 295.359 143.197 299.523C142.488 300.332 141.515 301.434 139.751 303.843C137.228 307.319 135.546 310.158 134.343 312.275C134.244 311.414 134.211 310.846 134.227 310.02C134.277 298.026 138.366 296.443 139.471 280.113C139.833 274.589 139.718 269.702 140.559 269.616C141.383 269.512 142.62 274.09 143.197 277.738C144.038 283.038 143.593 287.116 143.411 289.233H143.428Z" fill="#F5DBC6"/>
<path d="M249.972 302.363C249.626 307.181 248.802 311.5 247.845 315.2C245.57 316.078 229.28 322.204 216.353 320.672C209.033 319.812 204.054 318.108 204.054 318.108C199.569 316.577 199.074 315.682 195.694 315.2C192.397 314.736 190.121 315.2 188.143 313.497C186.84 312.361 186.28 310.812 186.016 309.728C184.895 309.969 183.444 310.072 182.075 309.384C178.316 307.474 178.135 300.986 177.97 295.17C177.788 288.717 177.673 284.088 180.591 281.816C182.207 280.56 184.301 280.457 188.456 280.267C191.374 280.13 193.798 280.371 195.513 280.612C195.628 279.269 195.793 277.239 196.007 274.795C196.337 270.975 196.502 269.065 196.667 268.635C197.673 265.778 200.789 264.247 207.005 261.27C211.308 259.205 213.518 258.172 216.189 258.017C218.414 257.88 220.344 258.258 222.025 258.809C223.179 259.187 224.235 259.635 225.207 260.065C229.758 262.096 236.617 265.451 245.207 270.682C246.015 272.816 246.872 275.363 247.647 278.254C249.379 284.724 250.648 292.95 249.956 302.346L249.972 302.363Z" fill="#F5DBC6"/>
<path d="M247.664 278.254C247.499 281.782 246.939 285.705 245.718 289.852C244.482 294 242.85 297.424 241.283 300.126C236.963 298.783 231.077 297.493 224.07 297.562C220.245 297.596 216.815 298.026 213.897 298.594C212.347 294.774 210.352 292.726 208.819 291.573C206.428 289.766 204.218 289.405 202.092 286.772C200.904 285.309 200.294 283.83 199.965 282.831C202.751 278.013 205.422 274.176 207.516 271.371C213.913 262.784 217.161 260.908 218.827 260.082C219.948 259.532 221.036 259.119 222.042 258.826C223.196 259.205 224.251 259.652 225.224 260.082C229.775 262.113 236.634 265.468 245.224 270.7C246.032 272.833 246.889 275.38 247.664 278.271V278.254Z" fill="#945856"/>
<path d="M194.045 285.155C193.419 282.04 187.797 281.283 187.318 281.214C186.329 281.093 181.119 280.44 179.536 283.52C178.745 285.051 179.239 286.772 179.454 287.547C180.179 290.093 182.438 292.554 184.944 292.589C185.389 292.589 186.642 291.969 189.132 290.713C192.281 289.112 193.205 288.579 193.732 287.374C193.864 287.065 194.26 286.17 194.062 285.155H194.045Z" fill="#213049"/>
<path d="M272 321.189C270.45 323.649 268.571 326.282 266.312 328.949C260.986 335.248 255.364 339.533 250.78 342.406C248.884 341.821 246.345 340.754 243.789 338.758C238.249 334.456 236.188 328.623 235.479 326.213C234.902 321.619 234.49 316.663 234.391 311.38C234.045 294.43 236.831 279.889 240.08 268.704C240.673 268.377 241.646 267.912 242.915 267.791C242.915 267.791 245.619 267.516 247.944 269.168C251.077 271.371 251.539 276.12 251.654 277.153C252.264 282.178 256.782 293.81 271.984 321.206L272 321.189Z" fill="#945856"/>
<path d="M221.118 283.365C220.855 282.418 220.376 281.111 219.486 279.768C218.942 278.977 216.255 274.967 213.583 275.656C211.522 276.189 210.764 279.201 210.632 279.768C210.039 282.367 210.814 285.86 212.924 286.789C214.226 287.357 215.628 286.772 217.194 286.101C219.107 285.292 220.393 284.122 221.135 283.365H221.118Z" fill="#213049"/>
<path d="M238.909 352.903C239.634 354.659 240.69 357.773 240.64 361.628C240.442 377.632 221.547 389.884 221.316 389.626C221.184 389.488 226.955 385.651 231.984 376.978C237.408 367.634 238.629 358.427 238.909 352.886V352.903Z" fill="#E0C9B5"/>
<path d="M192.463 331.083C191.852 333.028 190.929 336.005 189.874 339.67C188.027 346.02 188.093 346.227 187.566 347.5C185.851 351.561 183.361 352.112 176.024 357.739C167.071 364.605 166.28 367.255 163.328 366.773C161.927 366.549 161.432 365.844 154.392 357.446C149.347 351.423 148.918 350.907 148.341 349.617C147.319 347.397 145.785 342.768 147.484 335.471C151.869 336.005 156.75 336.315 162.059 336.229C174.227 336.005 184.565 333.665 192.496 331.118L192.463 331.083Z" fill="#663D3B"/>
<path d="M218.431 273.419C218.101 274.193 215.48 273.573 215.265 273.522C214.589 273.35 212.644 272.885 212.578 271.921C212.512 271.199 213.485 270.39 214.408 270.218C216.502 269.805 218.81 272.575 218.447 273.436L218.431 273.419Z" fill="#F5DBC6"/>
<path d="M238.629 273.918C237.507 274.503 236.634 275.208 235.941 275.931C229.329 282.78 234.177 296.822 234.589 298.009C235.941 289.973 237.277 281.954 238.629 273.918Z" fill="#663D3B"/>
<path d="M203.575 308.042C202.998 308.541 202.372 308.988 201.712 309.384C201.069 309.797 200.377 310.124 199.668 310.416C198.25 311.001 196.733 311.345 195.183 311.466C194.804 311.466 194.408 311.518 194.029 311.5C193.65 311.5 193.237 311.483 192.875 311.449C192.1 311.38 191.325 311.259 190.583 311.053C189.083 310.674 187.648 310.038 186.329 309.229H186.774C186.197 309.504 185.587 309.659 184.961 309.693C184.647 309.693 184.334 309.693 184.037 309.625C183.839 309.59 183.74 309.556 183.592 309.521C183.46 309.487 183.295 309.418 183.147 309.367C182.009 308.868 181.135 307.921 180.657 306.837C181.003 307.302 181.416 307.715 181.877 308.059C182.322 308.386 182.834 308.627 183.345 308.764C183.477 308.781 183.576 308.816 183.724 308.85C183.856 308.85 184.037 308.902 184.12 308.902C184.383 308.902 184.647 308.902 184.895 308.867C185.406 308.799 185.9 308.627 186.362 308.368L186.56 308.248L186.807 308.368C188.093 309.057 189.462 309.573 190.863 309.917C191.572 310.072 192.281 310.21 192.99 310.279C193.369 310.33 193.699 310.33 194.078 310.347C194.441 310.365 194.804 310.347 195.167 310.347C196.601 310.296 198.052 310.089 199.47 309.676C200.888 309.28 202.273 308.73 203.608 308.024L203.575 308.042Z" fill="#213049"/>
<path d="M191.605 283.967C191.49 284.81 188.176 284.862 187.994 284.862C184.664 284.914 181.119 283.503 181.218 282.608C181.3 281.851 183.971 281.42 185.983 281.558C188.835 281.747 191.721 283.158 191.605 283.967Z" fill="#455982"/>
<path d="M215.397 277.032C215.809 277.549 215.15 278.788 214.82 279.287C213.979 280.577 212.297 281.592 211.654 281.093C211.11 280.663 211.292 279.183 211.935 278.237C212.874 276.86 214.902 276.413 215.397 277.032Z" fill="#455982"/>
<path d="M203.048 369.062C201.795 368.494 201.663 365.138 202.85 362.832C204.812 359.064 210.105 358.703 210.929 360.028C212.133 361.955 205.34 370.112 203.048 369.062Z" fill="#704341"/>
</g>
<path fill-rule="evenodd" clip-rule="evenodd" d="M118.165 190.911L118.8 192.995C118.271 193.419 113.714 197.481 113.432 197.022C113.396 196.987 105.554 192.889 100.256 194.338C94.4631 195.927 90.2598 202.003 91.1429 209.703C92.1672 218.463 106.12 223.232 113.008 217.156L114.315 215.99C114.809 216.202 118.306 217.862 118.871 217.862C119.154 217.862 119.224 218.074 119.048 218.498C114.986 228.601 131.729 237.113 140.1 229.166C145.116 224.397 142.714 212.105 136.568 211.292C134.413 211.01 134.236 211.893 136.073 213.765C142.431 220.335 134.166 233.758 126.995 228.495C119.189 222.808 124.982 211.257 132.506 211.187C133.53 211.187 133.848 210.586 133.071 210.162C130.104 208.573 125.724 209.844 122.333 213.306L120.284 215.708C119.931 215.567 116.752 214.295 115.798 213.871L116.611 211.858C118.024 208.325 118.094 205.429 116.752 202.321C115.763 199.954 115.692 199.636 116.222 199.318C116.999 198.859 120.39 196.316 120.955 195.892L122.827 197.128C132.647 203.628 145.01 197.905 144.975 186.849C144.939 181.092 140.383 178.054 135.614 176.641C121.308 172.473 115.727 183.07 118.165 190.911ZM140.135 185.86C140.135 196.28 127.384 200.908 123.852 191.759C122.439 188.05 123.074 175.016 134.236 178.407C137.415 179.361 140.135 182.045 140.135 185.86ZM113.008 200.343C115.904 204.581 113.573 213.235 107.25 216.45C103.577 218.322 98.6667 215.884 97.2184 211.469C95.9468 207.69 97.2891 203.027 99.5851 199.989C103.718 194.514 111.524 198.188 113.008 200.343Z" fill="#FFB076"/>
<defs>
<filter id="filter0_d_1281_4093" x="0" y="0" width="320" height="476" filterUnits="userSpaceOnUse" color-interpolation-filters="sRGB">
<feFlood flood-opacity="0" result="BackgroundImageFix"/>
<feColorMatrix in="SourceAlpha" type="matrix" values="0 0 0 0 0 0 0 0 0 0 0 0 0 0 0 0 0 0 127 0" result="hardAlpha"/>
<feOffset dx="8" dy="8"/>
<feGaussianBlur stdDeviation="8"/>
<feComposite in2="hardAlpha" operator="out"/>
<feColorMatrix type="matrix" values="0 0 0 0 0 0 0 0 0 0 0 0 0 0 0 0 0 0 0.12 0"/>
<feBlend mode="normal" in2="BackgroundImageFix" result="effect1_dropShadow_1281_4093"/>
<feBlend mode="normal" in="SourceGraphic" in2="effect1_dropShadow_1281_4093" result="shape"/>
</filter>
<clipPath id="clip0_1281_4093">
<rect width="146" height="170" fill="white" transform="translate(126 258)"/>
</clipPath>
</defs>
</svg>
