<svg width="444" height="564" viewBox="0 0 444 564" fill="none" xmlns="http://www.w3.org/2000/svg">
<g filter="url(#filter0_d_663_2079)">
<rect x="10" y="10" width="384" height="504" rx="8" fill="white"/>
</g>
<path d="M196.352 57.818C199.376 57.818 201.662 55.316 201.662 50.276C201.662 45.236 199.376 42.734 196.352 42.734C193.31 42.734 191.024 45.236 191.024 50.276C191.024 55.316 193.31 57.818 196.352 57.818ZM196.352 56.144C194.39 56.144 192.842 54.2 192.842 50.276C192.842 46.37 194.39 44.408 196.352 44.408C198.296 44.408 199.844 46.37 199.844 50.276C199.844 54.2 198.296 56.144 196.352 56.144ZM207.932 57.818C210.956 57.818 213.008 55.982 213.008 53.57C213.008 51.572 211.514 50.438 210.056 50.168C211.388 49.844 212.63 48.62 212.63 46.856C212.63 44.588 210.704 42.734 207.734 42.734C204.782 42.734 202.838 44.714 202.838 47.252H204.728C204.728 45.722 205.79 44.354 207.734 44.354C209.642 44.354 210.758 45.506 210.758 46.91C210.758 48.404 209.516 49.448 207.68 49.448H206.096V51.014H207.68C209.858 51.014 211.154 51.968 211.154 53.588C211.154 55.028 209.948 56.18 207.932 56.18C205.898 56.18 204.746 54.974 204.692 53.426H202.82C202.928 55.946 204.836 57.818 207.932 57.818Z" fill="#666666"/>
<path d="M159.134 73.8481H156.134V89.5525H159.134V82.3094H162.002V79.8481H159.134V73.8481ZM142.841 86.1547H153.167V75.3564H150.184V78.4475H145.808V75.3564H142.841V86.1547ZM145.294 94.7901H159.897V92.3785H148.278V87.9448H145.294V94.7901ZM145.808 83.8094V80.7431H150.184V83.8094H145.808ZM180.201 73.8149H177.225V78.3564H173.637V80.7845H177.225V84.1492H173.579V86.5939H177.225V95.2127H180.201V73.8149ZM162.93 77.9834H169.585V81.4807H162.98V90.4309H164.662C167.944 90.4309 170.662 90.3646 173.853 89.8674L173.612 87.4227C170.927 87.8204 168.598 87.953 165.963 87.9779V83.8011H172.518V75.605H162.93V77.9834ZM201.748 83.8923H193.477V82.0691H199.518V79.7238H187.593V77.0967H199.411V74.768H184.61V82.0691H190.543V83.8923H182.256V86.2624H201.748V83.8923ZM184.477 91.268C184.477 93.7624 187.286 95.1796 191.944 95.1878C196.576 95.1796 199.361 93.7624 199.377 91.268C199.361 88.732 196.576 87.3232 191.944 87.3232C187.286 87.3232 184.477 88.732 184.477 91.268ZM187.527 91.268C187.51 90.1657 188.994 89.6022 191.944 89.6022C194.844 89.6022 196.369 90.1657 196.377 91.268C196.369 92.3785 194.844 92.9088 191.944 92.9006C188.994 92.9088 187.51 92.3785 187.527 91.268ZM221.737 82.3011H202.278V84.6464H210.466V86.0138H204.524V88.268H216.408V89.3702H204.541V95.0138H219.913V92.7597H207.474V91.4751H219.358V86.0138H213.466V84.6464H221.737V82.3011ZM204.681 81.174H219.267V74.453H204.681V81.174ZM207.615 78.8619V76.7652H216.275V78.8619H207.615ZM234.284 75.953H223.228V78.3398H231.309C231.3 80.2293 231.251 82.5166 230.762 85.616L233.704 85.8481C234.275 82.3011 234.275 79.674 234.284 77.6685V75.953ZM222.11 88.4171L222.391 90.8039C226.129 90.8204 230.961 90.7459 235.336 90L235.162 87.7873C233.198 88.0359 231.068 88.1851 228.972 88.2762V82.0691H226.03V88.3674C224.637 88.4006 223.311 88.4088 222.11 88.4171ZM236.165 95.163H239.182V84.895H242.09V82.3923H239.182V73.8149H236.165V95.163ZM249.218 75.2486C245.861 75.2486 243.292 77.4282 243.3 80.4862C243.292 83.5525 245.861 85.7238 249.218 85.7238C252.615 85.7238 255.126 83.5525 255.143 80.4862C255.126 77.4282 252.615 75.2486 249.218 75.2486ZM242.414 88.4171L242.753 90.8453C246.491 90.8453 251.555 90.8039 256.278 89.884L256.055 87.7293C251.488 88.3674 246.218 88.4171 242.414 88.4171ZM246.267 80.4862C246.267 78.8204 247.535 77.8343 249.218 77.8343C250.933 77.8343 252.218 78.8204 252.226 80.4862C252.218 82.1768 250.925 83.1381 249.218 83.1381C247.543 83.1381 246.267 82.1768 246.267 80.4862ZM257.264 95.2127H260.24V73.8149H257.264V95.2127Z" fill="#2C2827"/>
<path d="M149.253 122.594H129.795V125.039H138.008V131.18H140.974V125.039H149.253V122.594ZM130.773 119.122L131.858 121.467C135.496 121.036 138.124 119.577 139.516 117.622C140.908 119.561 143.519 121.044 147.132 121.467L148.209 119.122C143.8 118.608 141.405 116.503 141.049 114.638H147.463V112.285H140.974V109.848H138.008V112.285H131.552V114.638H137.958C137.601 116.528 135.19 118.608 130.773 119.122ZM167.792 123.414H153.132V125.785H164.809V131.18H167.792V123.414ZM150.082 116.188C150.066 119.279 152.527 121.492 155.759 121.492C158.494 121.492 160.682 119.859 161.253 117.439H164.809V122.436H167.792V109.815H164.809V114.986H161.262C160.698 112.591 158.502 110.95 155.759 110.967C152.527 110.95 150.066 113.155 150.082 116.188ZM152.916 116.188C152.916 114.522 154.151 113.486 155.759 113.486C157.334 113.486 158.544 114.522 158.56 116.188C158.544 117.928 157.334 118.948 155.759 118.956C154.151 118.948 152.916 117.928 152.916 116.188ZM179.552 110.13C174.629 110.13 171.778 111.414 171.787 113.76C171.778 116.146 174.629 117.423 179.552 117.423C184.466 117.423 187.301 116.146 187.309 113.76C187.301 111.414 184.466 110.13 179.552 110.13ZM169.839 120.804H189.298V118.434H169.839V120.804ZM172.085 124.227H183.969V125.387H172.102V131.014H187.475V128.76H175.035V127.475H186.919V122.03H172.085V124.227ZM174.919 113.76C174.903 112.823 176.428 112.309 179.552 112.318C182.718 112.309 184.226 112.823 184.226 113.76C184.226 114.812 182.718 115.218 179.552 115.227C176.428 115.218 174.903 114.812 174.919 113.76ZM200.664 111.779H195.162V125.851H196.206C198.17 125.851 199.421 125.834 200.921 125.528L200.623 123.083C199.761 123.265 198.99 123.348 198.104 123.381V114.182H200.664V111.779ZM201.684 125.851H202.877C205.421 125.851 206.789 125.826 208.43 125.428L208.198 123.041C207.07 123.298 206.059 123.381 204.675 123.406V114.182H207.526V111.779H201.684V125.851ZM206.656 119.677H209.921V131.163H212.896V109.815H209.921V117.282H206.656V119.677ZM224.408 110.014C219.485 110.022 216.634 111.307 216.642 113.66C216.634 115.765 218.905 117.017 222.883 117.265V118.5H214.695V120.862H234.153V118.5H225.841V117.265C229.869 117.033 232.156 115.782 232.164 113.66C232.156 111.307 229.322 110.022 224.408 110.014ZM216.941 124.26H228.825V125.395H216.957V131.014H232.33V128.76H219.891V127.475H231.775V122.03H216.941V124.26ZM219.775 113.66C219.758 112.699 221.283 112.227 224.408 112.218C227.573 112.227 229.082 112.699 229.082 113.66C229.082 114.696 227.573 115.119 224.408 115.119C221.283 115.119 219.758 114.696 219.775 113.66ZM252.584 109.815H249.609V131.213H252.584V109.815ZM235.844 114.025H242.93V117.481H235.861V126.215H237.775C241.678 126.215 244.844 126.083 248.341 125.461L248.084 123.033C244.968 123.555 242.209 123.729 238.944 123.754V119.834H245.979V111.613H235.844V114.025ZM272.656 109.815H269.631V131.163H272.656V109.815ZM254.806 125.122L256.364 127.5C263.988 123.903 266.259 118.525 266.267 112.061H255.949V114.406H263.217C262.736 119.146 260.308 122.511 254.806 125.122Z" fill="#FF8A33"/>
<g clip-path="url(#clip0_663_2079)">
<path d="M128.053 314.503C114.939 342.75 120.474 366.382 136.321 368.001C152.191 369.599 159.081 357.439 160.703 346.411C162.304 335.383 148.279 312.883 148.279 312.883L128.031 314.481L128.053 314.503Z" fill="#7A5555"/>
<path d="M277.058 474L281.103 468.009C281.103 468.009 277.169 434.503 266.39 418.46C256.921 404.392 249.853 390.479 247.008 378.386C246.608 376.722 246.297 375.058 246.053 373.482C244.563 372.972 243.408 372.395 242.541 371.774C232.294 364.34 263.456 349.806 266.123 358.638C267.234 362.343 267.879 366.404 268.39 370.709C269.212 377.521 269.657 384.91 271.013 392.388C271.88 397.247 273.991 402.883 276.303 408.608C279.814 417.262 283.815 426.027 284.771 432.373C286.371 442.89 286.905 474.022 286.905 474.022H277.08L277.058 474Z" fill="#B38D8D"/>
<g style="mix-blend-mode:multiply" opacity="0.2">
<path d="M276.28 408.586C270.279 398.334 257.032 378.164 246.986 378.386C246.586 376.722 246.275 375.058 246.03 373.482C244.541 372.972 243.385 372.395 242.519 371.774C245.964 369.843 253.298 366.648 262.967 367.425C264.923 367.58 266.723 368.778 268.368 370.709C269.19 377.521 269.635 384.91 270.991 392.388C271.857 397.247 273.969 402.883 276.28 408.608V408.586Z" fill="#8C6161"/>
</g>
<path d="M284.882 463.305C280.681 469.207 259.411 460.775 264.189 447.95C261.122 444.311 263.989 438.63 267.857 434.414C271.746 430.176 276.614 427.402 277.458 429.577C278.414 426.404 285.66 426.027 290.75 428.223C294.217 429.688 296.662 432.351 295.506 436.101C303.13 438.874 297.573 464.459 284.882 463.327V463.305Z" fill="#825353"/>
<g style="mix-blend-mode:multiply" opacity="0.3">
<path d="M284.882 463.305C280.681 469.207 259.411 460.775 264.189 447.95C261.122 444.311 263.989 438.63 267.857 434.414C261.589 450.879 277.458 464.414 290.35 452.365C299.307 444 292.239 435.746 289.838 435.746C292.728 432.129 292.439 429.865 290.75 428.201C294.217 429.666 296.662 432.328 295.506 436.078C303.13 438.852 297.573 464.436 284.882 463.305Z" fill="#8C6161"/>
</g>
<path d="M210.402 390.701C228.627 391.411 242.741 366.914 262.433 373.46C265.301 386.618 274.191 402.417 286.171 418.46C298.151 434.503 304.641 468.009 304.641 468.009L301.041 474H310.865C310.865 474 307.997 442.89 305.597 432.351C303.197 421.811 291.928 404.592 288.816 392.388C285.704 380.183 284.971 368.223 281.392 358.638C277.792 349.074 269.168 347.388 255.01 347.388C240.852 347.388 227.916 351.226 214.024 350.494C200.111 349.784 210.424 390.701 210.424 390.701H210.402Z" fill="#C4A5A5"/>
<path d="M270.324 350.006C287.349 342.817 282.304 313.859 281.103 312.195C279.903 310.509 282.793 310.287 282.793 310.287C282.793 310.287 293.35 335.893 275.125 351.692C271.768 355.287 270.324 350.006 270.324 350.006Z" fill="#C4A5A5"/>
<path d="M281.837 313.149C277.369 327.217 246.541 311.041 257.632 298.305C252.12 296.374 253.321 284.902 260.744 277.957C265.256 273.741 274.991 272.454 282.215 274.762C286.86 276.249 290.483 279.244 290.95 283.948C298.129 285.391 295.995 320.339 281.837 313.149Z" fill="#8C6161"/>
<path d="M309.309 461.951C305.552 467.854 283.66 459.422 287.438 446.596C284.082 442.957 286.527 437.277 290.083 433.061C293.639 428.822 298.307 426.049 299.329 428.223C300.04 425.05 307.264 424.673 312.532 426.87C316.11 428.334 318.755 430.997 317.866 434.747C325.69 437.521 322.089 463.105 309.286 461.973L309.309 461.951Z" fill="#8C6161"/>
<g style="mix-blend-mode:multiply" opacity="0.3">
<path d="M309.309 461.951C305.552 467.854 283.66 459.422 287.438 446.596C284.082 442.957 286.527 437.277 290.083 433.061C285.06 449.525 301.952 463.061 313.954 451.012C322.267 442.646 314.599 434.392 312.198 434.392C314.821 430.775 314.354 428.512 312.532 426.848C316.11 428.312 318.755 430.975 317.866 434.725C325.69 437.498 322.089 463.083 309.286 461.951H309.309Z" fill="#8C6161"/>
</g>
<g style="mix-blend-mode:multiply" opacity="0.3">
<path d="M281.837 313.149C277.369 327.217 246.541 311.041 257.632 298.305C255.899 304.274 282.882 311.064 285.06 297.484C292.017 297.927 290.661 281.618 282.215 274.762C286.86 276.248 290.483 279.244 290.95 283.948C298.129 285.391 295.995 320.339 281.837 313.149Z" fill="#8C6161"/>
</g>
<path d="M162.237 397.158C167.193 390.945 179.04 391.655 179.04 391.655C179.04 391.655 179.462 423.963 178.24 437.365C177.017 450.768 171.728 470.871 170.705 472.558C170.038 473.645 166.882 473.623 164.726 473.467C163.771 473.401 163.371 472.358 163.993 471.493C165.015 470.095 166.393 468.164 167.193 466.788C168.594 464.392 170.105 445.243 169.727 433.993C169.349 422.743 165.015 402.883 162.215 397.136L162.237 397.158Z" fill="#B38D8D"/>
<path d="M170.016 467.277C164.637 471.825 148.812 459.865 156.747 449.104C155.169 445.154 159.348 440.561 163.948 437.476C168.549 434.392 173.572 432.817 173.684 434.969C175.462 432.262 181.818 433.371 185.552 436.389C188.086 438.43 189.42 441.337 187.308 444.533C193.043 448.593 180.64 470.849 170.038 467.254L170.016 467.277Z" fill="#825353"/>
<g style="mix-blend-mode:multiply" opacity="0.3">
<path d="M170.016 467.277C164.637 471.825 148.812 459.865 156.747 449.104C155.169 445.154 159.348 440.561 163.948 437.476C155.525 448.859 163.704 460.331 177.129 455.805C183.508 453.652 184.597 443.601 182.53 443.135C186.086 440.405 186.508 438.275 185.552 436.411C188.086 438.453 189.42 441.359 187.308 444.555C193.043 448.615 180.64 470.871 170.038 467.277H170.016Z" fill="#8C6161"/>
</g>
<path d="M207.045 399.311C202.733 408.164 168.194 415.331 156.458 402.417C153.235 401.507 149.19 397.757 146.434 391.589C145.012 388.393 143.922 384.555 143.478 380.117C142.744 372.75 143.745 363.741 147.812 353.356C147.812 353.356 168.66 335.871 175.862 333.253C181.796 331.078 202.044 331.522 211.802 343.26C213.891 345.768 215.491 348.785 216.38 352.402C217.781 354.355 218.759 357.24 219.292 360.635C221.292 373.038 217.558 392.365 207.023 399.311H207.045Z" fill="#8C6161"/>
<g style="mix-blend-mode:multiply" opacity="0.3">
<path d="M191.398 340.309C191.398 340.309 195.577 365.383 180.952 371.885C166.304 378.408 150.879 368.223 150.879 368.223C150.879 368.223 145.434 371.929 143.5 380.117C142.767 372.75 143.767 363.741 147.834 353.356C147.834 353.356 168.683 335.871 175.884 333.253C181.818 331.078 202.067 331.522 211.824 343.26C202.378 336.936 191.398 340.309 191.398 340.309Z" fill="#8C6161"/>
</g>
<g style="mix-blend-mode:multiply" opacity="0.3">
<path d="M207.045 399.311C202.733 408.164 168.194 415.331 156.458 402.417C153.235 401.507 149.19 397.757 146.434 391.589C154.302 399.355 167.949 398.911 174.661 390.413C177.795 394.851 197.666 393.275 205 381.537C210.157 385.575 218.047 374.192 219.314 360.635C221.315 373.038 217.581 392.365 207.045 399.311Z" fill="#8C6161"/>
</g>
<path d="M125.963 284.281C122.096 294.488 125.119 306.559 125.119 306.559C125.119 306.559 103.982 309.399 93.4019 307.225C82.8221 305.05 82.3331 315.435 97.2692 317.432C112.205 319.451 126.808 315.08 135.343 319.451C143.9 323.8 146.923 335.538 146.923 335.538C146.923 335.538 159.17 301.034 156.48 288.297C153.791 275.561 125.941 284.281 125.941 284.281H125.963Z" fill="#C4A5A5"/>
<path d="M83 307.07C82.8667 309.51 95.0689 310.598 96.9359 308.578C98.8029 306.559 83.5112 298.527 83 307.07Z" fill="#5E3B3B"/>
<path d="M210.201 306.271C201.689 328.815 185.375 328.549 185.375 328.549L179.24 321.204L152.768 289.473C147.256 293.978 124.43 287.987 123.43 285.967C120.674 289.717 104.359 271.456 115.65 257.676C124.185 228.408 159.059 232.913 167.082 236.929C182.085 238.948 192.754 244.007 200.088 250.686C217.136 266.219 216.202 290.538 210.224 306.271H210.201Z" fill="#8C6161"/>
<g style="mix-blend-mode:multiply" opacity="0.3">
<path d="M210.201 306.271C201.689 328.815 185.375 328.549 185.375 328.549L179.24 321.204C178.195 307.535 178.307 288.874 178.307 288.874C184.574 293.046 187.442 300.368 188.508 305.05C188.82 305.25 189.109 305.45 189.375 305.649C195.132 309.865 203.333 307.824 206.001 301.212C208.268 295.62 209.957 288.186 209.668 278.667C209.29 266.041 204.667 256.811 200.044 250.642C217.092 266.175 216.158 290.494 210.179 306.226L210.201 306.271Z" fill="#8C6161"/>
</g>
<path d="M141.722 299.37C141.722 302.055 140.211 304.229 138.366 304.229C136.521 304.229 135.01 302.055 135.01 299.37C135.01 296.685 136.521 294.51 138.366 294.51C140.211 294.51 141.722 296.685 141.722 299.37Z" fill="#5E3B3B"/>
<path d="M141.122 299.325C141.122 300.28 140.566 301.056 139.899 301.056C139.233 301.056 138.677 300.28 138.677 299.325C138.677 298.371 139.233 297.595 139.899 297.595C140.566 297.595 141.122 298.371 141.122 299.325Z" fill="white"/>
<path d="M127.63 299.37C127.63 302.055 126.519 304.229 125.141 304.229C123.763 304.229 122.652 302.055 122.652 299.37C122.652 296.685 123.763 294.51 125.141 294.51C126.519 294.51 127.63 296.685 127.63 299.37Z" fill="#5E3B3B"/>
<path d="M126.919 299.325C126.919 300.28 126.519 301.056 126.008 301.056C125.497 301.056 125.097 300.28 125.097 299.325C125.097 298.371 125.497 297.595 126.008 297.595C126.519 297.595 126.919 298.371 126.919 299.325Z" fill="white"/>
<path d="M152.769 289.496C143.989 308.268 145.234 319.296 146.745 320.294C137.966 351.093 141.989 368.112 167.06 369.111C192.131 370.109 189.131 341.574 186.619 339.067C192.643 331.3 186.619 307.025 184.619 304.007C185.619 300.257 183.619 293.734 179.862 289.229C176.106 284.725 155.791 281.463 152.769 289.473V289.496Z" fill="#8C6161"/>
<path d="M178.996 397.158C191.065 398.734 195.977 394.895 195.977 394.895C195.977 394.895 197.599 423.963 197.043 437.388C196.51 450.79 192.22 470.893 191.287 472.58C190.687 473.667 187.508 473.645 185.352 473.49C184.374 473.423 183.93 472.38 184.53 471.515C185.486 470.117 186.753 468.186 187.486 466.811C188.753 464.414 189.309 445.265 188.375 434.015C187.442 422.765 182.085 402.905 178.996 397.158Z" fill="#C4A5A5"/>
<path d="M190.309 467.277C185.175 471.825 168.727 459.865 176.106 449.104C174.328 445.154 178.284 440.561 182.707 437.476C187.153 434.392 192.109 432.817 192.309 434.969C193.932 432.262 200.355 433.371 204.245 436.389C206.89 438.43 208.357 441.337 206.401 444.533C212.335 448.593 201.066 470.849 190.287 467.254L190.309 467.277Z" fill="#8C6161"/>
<g style="mix-blend-mode:multiply" opacity="0.3">
<path d="M190.309 467.277C185.175 471.825 168.727 459.865 176.106 449.104C174.328 445.154 178.284 440.561 182.707 437.476C174.861 448.859 183.619 460.331 196.799 455.805C203.067 453.652 203.645 443.601 201.555 443.135C204.978 440.405 205.289 438.275 204.245 436.411C206.89 438.453 208.357 441.359 206.401 444.555C212.335 448.615 201.066 470.871 190.287 467.277H190.309Z" fill="#8C6161"/>
</g>
</g>
<path d="M268.515 222.191C266.042 217.994 267.506 213.042 268.604 209.502C272.829 196.006 278.541 183.444 280.359 178.162C282.539 171.92 284.77 169.644 287.433 168.3C289.082 167.451 288.803 166.421 286.973 166.484C284.863 166.571 283.332 167.34 281.392 170.349C276.44 178.079 266.491 205.308 264.548 213.139C263.469 217.5 264.512 221.385 267.236 223.017C269.063 224.188 269.499 223.886 268.515 222.191Z" fill="#FFB076"/>
<path d="M277.387 209.029C276.394 207.361 276.34 207.432 281.692 204.844C291.735 200.013 300.285 197.592 305.115 207.725C307.058 211.8 307.416 212.948 308.544 218.25C308.82 219.551 308.608 219.99 307.91 219.479C307.284 219.022 287.174 211.947 281.361 210.096C278.782 209.268 279.164 210.786 280.905 211.506C285.259 213.307 297.096 217.533 305.193 220.804C312.276 223.695 316.994 226.012 320.865 226.501C328.174 227.421 326.105 226.165 333.474 209.141C335.577 204.258 338.433 195.174 338.283 193.947C337.43 188.107 326.611 182.151 306.236 176.281C299.109 174.219 294.584 173.354 294.362 174.001C294.037 174.944 297.332 176.229 306.814 178.892C313.466 180.76 316.546 181.881 324.092 185.263C331.406 188.535 335.403 190.845 335.931 192.112C336.82 194.257 336.804 195.005 335.82 196.987C334.569 199.48 331.691 207.14 331.173 208.469L330.809 206.987C328.021 195.387 316.754 192.743 304.39 200.814L303.419 201.445L302.132 200.368C297.002 196.01 287.979 197.002 279.304 202.937L276.673 204.714L277.005 203.05C277.346 201.359 281.313 190.276 285.234 180.112C287.575 174.015 287.93 173.685 289.887 173.515C291.249 173.411 291.464 172.611 290.117 172.147C288.203 171.489 287.116 172.109 285.519 174.121C282.844 177.511 273.502 200.005 273.879 205.651C274.019 207.869 274.493 209.118 276.107 209.945C277.748 210.871 278.238 210.497 277.387 209.029ZM305.201 203.535C305.456 203.321 315.297 199.777 316.48 199.491C319.715 198.676 323.474 199.488 325.744 201.475C327.317 202.861 328.212 204.375 329.017 206.852C330.266 210.839 330.268 210.659 328.557 214.229C327.729 215.934 326.495 218.553 325.804 220.034C323.17 225.758 322.446 225.147 310.437 220.107L309.932 217.371C309.41 214.509 307.982 210.34 306.068 206.184C305.477 204.836 305.047 203.633 305.201 203.535Z" fill="#FFB076"/>
<path d="M343.395 197.486C345.633 194.398 344.615 187.989 338.72 184.452C334.903 182.143 326.38 179.058 303.462 170.684C300.058 169.452 296.087 168.115 294.631 167.704C291.952 166.992 290.925 167 291.422 167.744C292.097 168.76 294.996 169.97 307.993 174.595C339.697 185.904 342.126 187.253 342.337 193.293C342.371 194.42 335.899 212.689 333.844 217.256C332.757 219.715 330.643 224.804 329.181 228.611C324.935 239.628 323.09 241.224 317.552 238.835C314.878 237.673 296.225 231.792 281.653 227.016C266.624 222.082 271.39 225.833 273.669 226.919C282.272 230.997 320.121 242.492 323.984 241.953C331.601 240.929 343.166 197.799 343.395 197.486Z" fill="#FFB076"/>
<path d="M298.537 179.297C290.827 179.627 289.965 190.271 297.439 192.815C302.891 194.662 308.754 188.753 306.305 184.835C305.223 183.076 304.774 183.856 304.82 185.56C304.973 190.194 299.013 193.146 295.421 189.92C291.615 186.529 297.596 180.541 302.959 182.387L303.946 182.757C304.637 183.025 305.196 182.103 304.642 181.61C303.365 180.417 300.556 179.209 298.537 179.297Z" fill="#FFB076"/>
<defs>
<filter id="filter0_d_663_2079" x="0" y="0" width="444" height="564" filterUnits="userSpaceOnUse" color-interpolation-filters="sRGB">
<feFlood flood-opacity="0" result="BackgroundImageFix"/>
<feColorMatrix in="SourceAlpha" type="matrix" values="0 0 0 0 0 0 0 0 0 0 0 0 0 0 0 0 0 0 127 0" result="hardAlpha"/>
<feOffset dx="20" dy="20"/>
<feGaussianBlur stdDeviation="15"/>
<feComposite in2="hardAlpha" operator="out"/>
<feColorMatrix type="matrix" values="0 0 0 0 0 0 0 0 0 0 0 0 0 0 0 0 0 0 0.08 0"/>
<feBlend mode="normal" in2="BackgroundImageFix" result="effect1_dropShadow_663_2079"/>
<feBlend mode="normal" in="SourceGraphic" in2="effect1_dropShadow_663_2079" result="shape"/>
</filter>
<clipPath id="clip0_663_2079">
<rect width="239" height="240" fill="white" transform="matrix(-1 0 0 1 322 234)"/>
</clipPath>
</defs>
</svg>
