<svg width="1920" height="914" viewBox="0 0 1920 914" fill="none" xmlns="http://www.w3.org/2000/svg">
<rect y="402" width="1920" height="512" fill="#FFF6F2"/>
<g clip-path="url(#clip0_749_1223)">
<path d="M863.796 15.62H867.072V11.714H869.43C873.246 11.714 875.478 9.59 875.478 6.314C875.478 3.074 873.246 0.95 869.43 0.95H863.796V15.62ZM867.072 8.816V3.848H869.286C871.104 3.848 872.202 4.694 872.202 6.314C872.202 7.952 871.104 8.816 869.286 8.816H867.072ZM882.015 15.872C884.571 15.872 886.641 14.486 887.181 12.47H883.959C883.689 12.974 882.933 13.298 882.015 13.298C880.809 13.298 879.963 12.596 879.711 11.372H887.433C887.487 10.994 887.505 10.652 887.505 10.346C887.505 7.124 885.237 4.82 882.015 4.82C878.793 4.82 876.525 7.142 876.525 10.346C876.525 13.568 878.793 15.872 882.015 15.872ZM879.693 9.302C879.963 8.042 880.755 7.358 882.015 7.358C883.275 7.358 884.103 8.042 884.373 9.302H879.693ZM895.621 5.072H893.533V1.94H890.329V5.072H888.241V7.826H890.329V15.62H893.533V7.826H895.621V5.072ZM902.257 0.95V15.62H912.859V12.722H905.533V0.95H902.257ZM919.407 4.82C916.149 4.82 913.809 7.142 913.809 10.346C913.809 13.55 916.149 15.872 919.407 15.872C922.665 15.872 925.005 13.55 925.005 10.346C925.005 7.142 922.665 4.82 919.407 4.82ZM919.407 7.556C920.919 7.556 921.909 8.726 921.909 10.346C921.909 11.966 920.919 13.136 919.407 13.136C917.895 13.136 916.905 11.966 916.905 10.346C916.905 8.726 917.895 7.556 919.407 7.556ZM931.292 4.82C928.61 4.82 926.468 6.116 926.468 8.168C926.468 10.31 928.124 11.084 930.644 11.462C932.462 11.732 933.182 12.056 933.182 12.56C933.182 13.046 932.426 13.424 931.4 13.424C930.392 13.424 929.6 12.974 929.492 12.29H926.396C926.504 14.504 928.592 15.872 931.346 15.872C934.028 15.872 936.296 14.54 936.296 12.38C936.296 10.562 935.18 9.536 932.066 9.068C930.266 8.78 929.564 8.528 929.564 8.006C929.564 7.538 930.266 7.196 931.238 7.196C932.174 7.196 932.912 7.592 933.02 8.24H936.116C935.99 6.152 933.92 4.82 931.292 4.82ZM943.135 15.872C945.691 15.872 947.761 14.486 948.301 12.47H945.079C944.809 12.974 944.053 13.298 943.135 13.298C941.929 13.298 941.083 12.596 940.831 11.372H948.553C948.607 10.994 948.625 10.652 948.625 10.346C948.625 7.124 946.357 4.82 943.135 4.82C939.913 4.82 937.645 7.142 937.645 10.346C937.645 13.568 939.913 15.872 943.135 15.872ZM940.813 9.302C941.083 8.042 941.875 7.358 943.135 7.358C944.395 7.358 945.223 8.042 945.493 9.302H940.813ZM961.348 0.589999C958.036 0.589999 955.408 2.174 955.408 4.82C955.408 7.574 957.136 8.888 960.322 9.482C962.932 9.968 963.922 10.436 963.922 11.606C963.922 12.56 962.932 13.226 961.6 13.226C959.728 13.226 958.504 12.29 958.324 10.886H954.958C955.102 14.018 957.748 15.98 961.366 15.98C964.642 15.98 967.288 14.27 967.288 11.462C967.288 9.266 966.136 7.592 962.752 6.89C959.89 6.296 958.756 5.918 958.756 4.82C958.756 3.938 959.602 3.326 961.132 3.326C962.698 3.326 963.652 4.1 963.85 5.378H967.234C967.072 2.588 964.624 0.589999 961.348 0.589999ZM976.196 5.072L973.892 11.588L971.606 5.072H968.06L972.218 15.332L970.31 20.012H973.46L979.526 5.072H976.196ZM980.882 15.62H984.086V10.202C984.086 8.564 984.842 7.574 986.102 7.574C987.308 7.574 987.956 8.456 987.956 10.058V15.62H991.16V9.518C991.16 6.602 989.486 4.82 987.038 4.82C985.688 4.82 984.716 5.306 984.086 6.152V5.072H980.882V15.62ZM997.917 15.872C999.303 15.872 1000.31 15.386 1000.94 14.54V15.62H1004.15V0.499999H1000.94V6.152C1000.31 5.306 999.303 4.82 997.917 4.82C994.893 4.82 992.787 7.142 992.787 10.346C992.787 13.55 994.893 15.872 997.917 15.872ZM998.421 13.136C996.891 13.136 995.919 11.966 995.919 10.346C995.919 8.726 996.891 7.556 998.421 7.556C999.987 7.556 1001 8.726 1001 10.346C1001 11.966 999.987 13.136 998.421 13.136ZM1006.56 15.62H1009.77V10.22C1009.77 8.618 1010.79 7.646 1012.5 7.646C1013.13 7.646 1013.69 7.772 1014.14 8.006L1014.11 5C1013.69 4.856 1013.31 4.82 1012.72 4.82C1011.37 4.82 1010.4 5.306 1009.77 6.152V5.072H1006.56V15.62ZM1020.34 4.82C1017.08 4.82 1014.74 7.142 1014.74 10.346C1014.74 13.55 1017.08 15.872 1020.34 15.872C1023.6 15.872 1025.94 13.55 1025.94 10.346C1025.94 7.142 1023.6 4.82 1020.34 4.82ZM1020.34 7.556C1021.85 7.556 1022.84 8.726 1022.84 10.346C1022.84 11.966 1021.85 13.136 1020.34 13.136C1018.83 13.136 1017.84 11.966 1017.84 10.346C1017.84 8.726 1018.83 7.556 1020.34 7.556ZM1027.82 15.62H1031.02V9.896C1031.07 8.402 1031.63 7.574 1032.68 7.574C1033.85 7.574 1034.46 8.456 1034.46 10.058V15.62H1037.66V9.896C1037.72 8.402 1038.27 7.574 1039.32 7.574C1040.49 7.574 1041.1 8.456 1041.1 10.058V15.62H1044.3V9.518C1044.3 6.584 1042.68 4.82 1040.25 4.82C1038.65 4.82 1037.54 5.324 1036.74 6.332C1036.04 5.36 1034.94 4.82 1033.61 4.82C1032.44 4.82 1031.65 5.234 1031.02 6.08V5.072H1027.82V15.62ZM1051.42 15.872C1053.97 15.872 1056.04 14.486 1056.58 12.47H1053.36C1053.09 12.974 1052.33 13.298 1051.42 13.298C1050.21 13.298 1049.36 12.596 1049.11 11.372H1056.83C1056.89 10.994 1056.91 10.652 1056.91 10.346C1056.91 7.124 1054.64 4.82 1051.42 4.82C1048.19 4.82 1045.93 7.142 1045.93 10.346C1045.93 13.568 1048.19 15.872 1051.42 15.872ZM1049.09 9.302C1049.36 8.042 1050.16 7.358 1051.42 7.358C1052.68 7.358 1053.5 8.042 1053.77 9.302H1049.09Z" fill="#FF8A33"/>
<path d="M819.227 40.0311H813.271V70.5041H819.227V40.0311ZM780.432 60.5594L781.071 65.549C786.89 65.549 795.85 65.4627 802.773 64.1506L802.463 59.5925C801.306 59.7307 800.08 59.8688 798.802 59.9724V48.422H801.789V43.4323H781.244V48.422H784.041V60.5421C782.746 60.5594 781.52 60.5594 780.432 60.5594ZM786.285 79.4648L788.461 84.299C795.747 83.3667 800.995 80.4662 803.74 76.4779C806.52 80.4662 811.786 83.3667 819.02 84.299L821.282 79.4648C811.665 78.4116 806.814 73.9054 806.814 69.3819V68.2597H800.633V69.3819C800.615 73.9054 795.833 78.4116 786.285 79.4648ZM789.738 60.4385V48.422H793.226V60.3177C792.052 60.3695 790.895 60.404 789.738 60.4385ZM800.598 56.761H804.863V66.4468H810.646V40.9461H804.863V51.7369H800.598V56.761ZM862.185 74.4406H844.85V67.7244H858.542V62.6657H832.437V57.6588H857.506V42.9316H826.152V47.9385H851.342V52.7728H826.221V67.7244H838.687V74.4406H821.542V79.5338H862.185V74.4406ZM885.632 45.9012V42.7072H878.985V45.9012C878.951 52.3584 873.15 59.3336 863.274 61.0946L865.95 66.2742C873.65 64.7203 879.417 60.3349 882.335 54.672C885.201 60.3695 890.95 64.7376 898.702 66.2742L901.447 61.0946C891.382 59.3854 885.615 52.4275 885.632 45.9012ZM862.255 79.0504H902.897V73.9227H862.255V79.0504ZM952.53 60.5249H911.992V65.549H952.53V60.5249ZM913.77 54.0331L915.859 58.8847C924.267 58.0905 929.844 54.9137 932.192 50.6319C934.574 54.9309 940.22 58.0905 948.628 58.8847L950.804 54.0331C942.275 53.2562 937.751 50.2175 936.715 47.1098H948.87V42.0856H915.669V47.1098H927.72C926.667 50.2348 922.092 53.2562 913.77 54.0331ZM916.619 76.2707C916.619 81.5366 922.472 84.5062 932.175 84.489C941.826 84.5062 947.627 81.5366 947.661 76.2707C947.627 71.0566 941.826 68.0352 932.175 68.0352C922.472 68.0352 916.619 71.0566 916.619 76.2707ZM922.972 76.2707C922.938 73.9572 926.028 72.8695 932.175 72.8522C938.217 72.8695 941.394 73.9572 941.411 76.2707C941.394 78.5843 938.217 79.6547 932.175 79.6374C926.028 79.6547 922.938 78.5843 922.972 76.2707ZM991.119 44.6581H976.012V39.9965H969.849V44.6581H954.638V49.6478H991.119V44.6581ZM952.704 73.8191H969.849V84.5407H976.012V73.8191H993.347V68.7776H952.704V73.8191ZM957.608 59.0228C957.59 63.9088 963.357 66.6022 972.939 66.6022C982.504 66.6022 988.253 63.9088 988.271 59.0228C988.253 54.0677 982.504 51.3916 972.939 51.3916C963.357 51.3916 957.59 54.0677 957.608 59.0228ZM964.082 59.0228C964.065 56.9682 967 56.0014 972.939 56.0014C978.827 56.0014 981.779 56.9682 981.814 59.0228C981.779 61.0256 978.827 61.9924 972.939 61.9751C967 61.9924 964.065 61.0256 964.082 59.0228ZM1029.26 42.1202H998.39V47.1098H1023.04C1023.01 50.5283 1022.92 54.1713 1021.99 58.8847H993.417V63.8225H1010.89V73.3356H1017.11V63.8225H1034.06V58.8847H1028.33C1029.26 53.6706 1029.26 49.6651 1029.26 45.953V42.1202ZM998.131 83.7293H1029.93V78.7051H1004.35V69.3128H998.131V83.7293ZM1071.32 40.0311H1065.02V84.6098H1071.32V40.0311ZM1035.43 58.9883C1035.41 68.7604 1040.38 74.8722 1047.18 74.8722C1053.9 74.8722 1058.87 68.7604 1058.89 58.9883C1058.87 49.3197 1053.9 43.1733 1047.18 43.1733C1040.38 43.1733 1035.41 49.3197 1035.43 58.9883ZM1041.45 58.9883C1041.42 52.4102 1043.73 48.8018 1047.18 48.8018C1050.57 48.8018 1052.86 52.4102 1052.86 58.9883C1052.86 65.6354 1050.57 69.2265 1047.18 69.2265C1043.73 69.2265 1041.42 65.6354 1041.45 58.9883ZM1110.1 40.1001H1103.85V72.8177H1110.1V58.0559H1116.11V52.8764H1110.1V40.1001ZM1076.38 47.8004H1090.74V52.0477H1076.45V66.4296H1080.18C1089.21 66.4296 1094.92 66.2569 1101.28 65.0829L1100.62 60.0414C1094.97 61.0601 1089.98 61.3881 1082.66 61.4227V56.7265H1096.82V42.7935H1076.38V47.8004ZM1081.4 83.7293H1111.79V78.7051H1087.72V70.1934H1081.4V83.7293ZM1123.31 68.8639V69.4164H1129.77V68.8639C1129.78 65.4627 1131.01 63.8743 1133.74 62.2341C1136.96 60.3004 1139.04 57.7452 1139.04 53.7224C1139.04 47.6968 1134.22 44.1575 1127.4 44.1575C1121.17 44.1575 1116.06 47.4551 1115.92 54.3094H1122.86C1122.98 51.4606 1125.09 49.9413 1127.35 49.9413C1129.73 49.9413 1131.63 51.5297 1131.63 53.9468C1131.63 56.2258 1130.01 57.7452 1127.88 59.0918C1124.98 60.922 1123.34 62.7866 1123.31 68.8639ZM1122.57 76.3398C1122.53 78.6015 1124.41 80.4316 1126.67 80.4316C1128.85 80.4316 1130.75 78.6015 1130.77 76.3398C1130.75 74.0953 1128.85 72.2652 1126.67 72.2652C1124.41 72.2652 1122.53 74.0953 1122.57 76.3398Z" fill="#1C1A19"/>
<path d="M630.542 118.754H628.87V130.334H630.542V124.802H632.823V123.403H630.542V118.754ZM618.77 127.723H626.197V119.879H624.544V122.409H620.417V119.879H618.77V127.723ZM620.417 126.393V123.714H624.544V126.393H620.417ZM620.56 134.169H631.213V132.801H622.219V129.184H620.56V134.169ZM646.298 118.742H644.645V122.253H641.649V123.633H644.645V126.542H641.562V127.934H644.645V134.523H646.298V118.742ZM633.718 121.489H639.063V124.559H633.768V130.893H634.955C637.441 130.893 639.455 130.818 641.922 130.433L641.779 129.053C639.529 129.395 637.646 129.488 635.421 129.501V125.883H640.698V120.134H633.718V121.489ZM662.576 126.405H656.199V124.733H660.898V123.397H651.643V120.787H660.805V119.469H649.99V124.733H654.571V126.405H648.2V127.742H662.576V126.405ZM649.897 131.633C649.897 133.454 651.948 134.479 655.36 134.492C658.754 134.479 660.793 133.454 660.805 131.633C660.793 129.805 658.754 128.773 655.36 128.773C651.948 128.773 649.897 129.805 649.897 131.633ZM651.594 131.633C651.581 130.632 652.955 130.06 655.36 130.06C657.741 130.06 659.127 130.632 659.139 131.633C659.127 132.64 657.741 133.193 655.36 133.18C652.955 133.193 651.581 132.64 651.594 131.633ZM677.574 125.262H663.217V126.592H669.538V127.972H664.926V129.246H674.112V130.452H664.957V134.343H676.207V133.05H666.592V131.664H675.753V127.972H671.21V126.592H677.574V125.262ZM665.05 124.099H675.722V119.245H665.05V124.099ZM666.685 122.788V120.563H674.056V122.788H666.685ZM683.361 119.86C680.881 119.86 679.06 121.402 679.072 123.615C679.06 125.834 680.881 127.369 683.361 127.369C685.853 127.369 687.637 125.834 687.65 123.615C687.637 121.402 685.853 119.86 683.361 119.86ZM678.314 129.743L678.519 131.135C681.335 131.135 685.163 131.117 688.731 130.439L688.601 129.221C685.157 129.718 681.186 129.749 678.314 129.743ZM680.719 123.615C680.707 122.229 681.832 121.309 683.361 121.309C684.89 121.309 686.015 122.229 686.021 123.615C686.015 125.007 684.89 125.921 683.361 125.921C681.832 125.921 680.707 125.007 680.719 123.615ZM689.589 134.523H691.255V118.742H689.589V134.523ZM702.562 122.751V120.053H700.902V122.751C700.89 125.641 699.255 128.655 696.837 129.824L697.875 131.166C699.665 130.234 701.045 128.351 701.747 126.113C702.437 128.214 703.767 129.979 705.489 130.868L706.515 129.532C704.178 128.388 702.549 125.535 702.562 122.751ZM707.702 134.492H709.374V126.449H711.897V125.026H709.374V118.742H707.702V134.492ZM720.102 119.923H712.724V126.772H720.102V119.923ZM714.122 131.477C714.122 133.379 716.161 134.479 719.406 134.492C722.625 134.479 724.639 133.379 724.639 131.477C724.639 129.606 722.625 128.488 719.406 128.475C716.161 128.488 714.122 129.606 714.122 131.477ZM714.359 125.423V121.259H718.467V125.423H714.359ZM715.794 131.477C715.782 130.427 717.131 129.824 719.406 129.824C721.674 129.824 723.004 130.427 723.004 131.477C723.004 132.559 721.674 133.143 719.406 133.155C717.131 133.143 715.782 132.559 715.794 131.477ZM722.824 127.99H724.496V123.925H726.777V122.558H724.496V118.742H722.824V127.99ZM734.304 119.003C730.755 119.003 728.673 119.96 728.673 121.706C728.673 123.478 730.755 124.435 734.304 124.448C737.853 124.435 739.923 123.478 739.923 121.706C739.923 119.96 737.853 119.003 734.304 119.003ZM727.138 126.741H741.495V125.405H727.138V126.741ZM728.847 129.202H738.033V130.439H728.878V134.343H740.128V133.05H730.513V131.639H739.674V127.953H728.847V129.202ZM730.419 121.706C730.407 120.787 731.799 120.24 734.304 120.246C736.828 120.24 738.214 120.787 738.214 121.706C738.214 122.689 736.828 123.192 734.304 123.192C731.799 123.192 730.407 122.689 730.419 121.706ZM759.546 118.742H757.961V134.492H759.546V118.742ZM745.916 129.942L746.91 131.129C749.875 129.364 751.553 127.064 752.311 124.416H754.735V126.99H752.044V128.357H754.735V133.727H756.327V119.146H754.735V123.049H752.622C752.746 122.291 752.809 121.501 752.809 120.7H746.693V122.073H751.149C750.863 125.305 749.26 127.959 745.916 129.942ZM774.115 118.742H772.437V134.492H774.115V118.742ZM761.175 130.271L762.057 131.62C767.465 129.041 769.423 125.044 769.435 120.439H761.939V121.769H767.732C767.403 125.442 765.364 128.282 761.175 130.271ZM790.456 131.216H784.035V128.444H789.057V127.077H779.454V124.777H788.691V119.86H777.764V121.222H787.044V123.434H777.795V128.444H782.382V131.216H776.042V132.602H790.456V131.216ZM809.302 127.692H794.888V129.078H801.234V134.498H802.875V129.078H809.302V127.692ZM796.461 122.838C796.461 124.957 798.73 126.3 802.061 126.3C805.393 126.3 807.68 124.957 807.68 122.838C807.68 120.693 805.393 119.345 802.061 119.332C798.73 119.345 796.461 120.693 796.461 122.838ZM798.176 122.838C798.164 121.514 799.724 120.687 802.061 120.687C804.404 120.687 805.958 121.514 805.958 122.838C805.958 124.149 804.404 124.963 802.061 124.963C799.724 124.963 798.164 124.149 798.176 122.838ZM817.096 118.916C813.547 118.916 811.465 119.885 811.465 121.632C811.465 123.391 813.547 124.348 817.096 124.36C820.645 124.348 822.715 123.391 822.715 121.632C822.715 119.885 820.645 118.916 817.096 118.916ZM809.93 126.61H816.251V127.953H811.639V129.202H820.826V130.439H811.67V134.343H822.92V133.05H813.305V131.639H822.467V127.953H817.923V126.61H824.288V125.287H809.93V126.61ZM813.212 121.632C813.199 120.706 814.592 120.177 817.096 120.171C819.62 120.177 821.006 120.706 821.006 121.632C821.006 122.602 819.62 123.099 817.096 123.105C814.592 123.099 813.199 122.602 813.212 121.632ZM837.322 118.742H835.65V127.642H837.322V123.838H839.603V122.459H837.322V118.742ZM824.878 126.53L825.543 127.86C830.23 126.604 832.965 123.764 832.977 119.736H825.605V121.091H831.168C830.858 123.559 828.639 125.541 824.878 126.53ZM827.228 134.28H837.322V128.314H827.228V134.28ZM828.887 132.944V129.687H835.668V132.944H828.887ZM842.791 131.769H840.827L839.889 136.63H841.38L842.791 131.769ZM853.912 121.607V121.57H857.418V120.215H848.716V121.57H852.203V121.607C852.203 123.64 850.643 125.454 848.151 126.157L848.959 127.45C850.91 126.878 852.371 125.641 853.092 124.012C853.807 125.517 855.224 126.679 857.095 127.22L857.903 125.914C855.441 125.237 853.9 123.49 853.912 121.607ZM847.964 129.88L848.169 131.253C850.985 131.253 854.813 131.235 858.381 130.582L858.251 129.333C856.865 129.544 855.385 129.675 853.925 129.756V126.753H852.234V129.83C850.686 129.874 849.213 129.88 847.964 129.88ZM859.239 134.523H860.905V118.742H859.239V134.523ZM867.661 122.216V122.061H870.358V120.731H867.661V118.922H866.082V120.731H863.335V122.061H866.082V122.216C866.07 124.112 864.976 125.921 862.981 126.722L863.776 127.959C865.305 127.331 866.356 126.157 866.909 124.721C867.474 126.039 868.512 127.12 870.004 127.692L870.787 126.418C868.786 125.709 867.661 123.981 867.661 122.216ZM865.616 130.532H874.672V134.492H876.319V129.177H865.616V130.532ZM871.353 128.326H872.95V124.242H874.74V128.388H876.319V118.754H874.74V122.881H872.95V119.034H871.353V128.326ZM890.292 118.742H888.62V127.642H890.292V123.838H892.573V122.459H890.292V118.742ZM877.848 126.53L878.513 127.86C883.2 126.604 885.934 123.764 885.947 119.736H878.575V121.091H884.138C883.827 123.559 881.609 125.541 877.848 126.53ZM880.198 134.28H890.292V128.314H880.198V134.28ZM881.857 132.944V129.687H888.638V132.944H881.857ZM895.761 131.769H893.797L892.859 136.63H894.35L895.761 131.769ZM908.908 120.128V119.27H907.168V120.128C907.168 122.247 904.62 124.186 901.531 124.603L902.202 125.964C904.763 125.554 907.019 124.224 908.044 122.359C909.07 124.211 911.326 125.554 913.899 125.964L914.565 124.603C911.463 124.186 908.908 122.222 908.908 120.128ZM900.853 128.892H907.174V134.492H908.815V128.892H915.211V127.512H900.853V128.892ZM923.894 120.084H916.578V127.543H923.894V126.157H927.331V130.234H928.997V118.754H927.331V121.421H923.894V120.084ZM918.232 126.219V121.433H922.259V126.219H918.232ZM918.71 134.169H929.351V132.801H920.395V129.19H918.71V134.169ZM923.894 124.802V122.794H927.331V124.802H923.894ZM936.381 121.651V121.228H939.781V119.873H931.247V121.228H934.715V121.663C934.703 123.845 933.217 125.883 930.762 126.698L931.614 128.028C933.509 127.369 934.895 126.001 935.579 124.28C936.269 125.778 937.574 126.965 939.371 127.543L940.166 126.238C937.773 125.473 936.381 123.646 936.381 121.651ZM932.888 131.508C932.888 133.379 934.895 134.467 938.171 134.467C941.422 134.467 943.404 133.379 943.404 131.508C943.404 129.656 941.422 128.581 938.171 128.581C934.895 128.581 932.888 129.656 932.888 131.508ZM934.56 131.508C934.547 130.477 935.896 129.898 938.171 129.905C940.44 129.898 941.77 130.477 941.77 131.508C941.77 132.559 940.44 133.149 938.171 133.149C935.896 133.149 934.547 132.559 934.56 131.508ZM941.589 128.195H943.261V124.019H945.543V122.639H943.261V118.742H941.589V128.195ZM949.465 120.003C947.413 120.003 946.077 122.135 946.077 125.541C946.077 128.966 947.413 131.11 949.465 131.104C951.541 131.11 952.889 128.966 952.902 125.541C952.889 122.135 951.541 120.003 949.465 120.003ZM947.631 125.541C947.619 123.037 948.333 121.57 949.465 121.57C950.627 121.57 951.348 123.037 951.348 125.541C951.348 128.052 950.627 129.526 949.465 129.513C948.333 129.526 947.619 128.052 947.631 125.541ZM954.319 133.715H955.904V126.287H957.843V134.492H959.447V118.742H957.843V124.907H955.904V119.046H954.319V133.715ZM963.748 131.769H961.784L960.845 136.63H962.337L963.748 131.769ZM974.564 121.004V119.494H972.855V121.004C972.855 123.26 971.376 125.398 968.914 126.262L969.772 127.574C971.637 126.903 973.023 125.51 973.725 123.745C974.434 125.392 975.801 126.666 977.622 127.307L978.461 125.989C976.037 125.187 974.552 123.186 974.564 121.004ZM971.226 130.302H980.233V134.492H981.905V128.948H971.226V130.302ZM980.233 128.195H981.905V118.742H980.233V128.195ZM991.023 119.052C987.579 119.059 985.392 120.196 985.392 122.092C985.392 123.155 986.082 123.981 987.3 124.497V126.679H983.856V128.021H998.214V126.679H994.733V124.503C995.952 123.981 996.642 123.155 996.642 122.092C996.642 120.196 994.479 119.059 991.023 119.052ZM985.448 130.713H994.771V134.492H996.449V129.383H985.448V130.713ZM987.126 122.092C987.113 120.979 988.599 120.376 991.023 120.376C993.434 120.376 994.932 120.979 994.932 122.092C994.932 123.18 993.434 123.814 991.023 123.814C988.599 123.814 987.113 123.18 987.126 122.092ZM988.978 126.679V124.963C989.593 125.063 990.277 125.119 991.023 125.119C991.769 125.119 992.459 125.063 993.074 124.963V126.679H988.978ZM1013.26 128.003H998.848V129.333H1005.19V134.492H1006.84V129.333H1013.26V128.003ZM1000.64 126.219H1011.46V119.382H1009.79V121.433H1002.3V119.382H1000.64V126.219ZM1002.3 124.876V122.769H1009.79V124.876H1002.3ZM1019.72 122.023V121.346H1023.19V119.997H1014.49V121.346H1018.04V122.023C1018.02 124.186 1016.51 126.225 1014.06 127.058L1014.92 128.382C1016.8 127.717 1018.2 126.362 1018.91 124.646C1019.62 126.225 1020.99 127.468 1022.81 128.065L1023.66 126.753C1021.22 125.989 1019.72 124.075 1019.72 122.023ZM1016.65 134.169H1027.41V132.801H1018.33V129.171H1016.65V134.169ZM1025.28 130.253H1026.95V118.754H1025.28V130.253ZM1047.14 126.138H1032.76V127.518H1047.14V126.138ZM1034.46 131.608C1034.46 133.441 1036.51 134.467 1039.92 134.467C1043.31 134.467 1045.35 133.441 1045.37 131.608C1045.35 129.78 1043.31 128.749 1039.92 128.749C1036.51 128.749 1034.46 129.78 1034.46 131.608ZM1034.55 124.771H1045.46V123.422H1036.2V120.669H1045.37V119.307H1034.55V124.771ZM1036.15 131.608C1036.14 130.607 1037.52 130.048 1039.92 130.035C1042.3 130.048 1043.69 130.607 1043.7 131.608C1043.69 132.621 1042.3 133.168 1039.92 133.168C1037.52 133.168 1036.14 132.621 1036.15 131.608ZM1052.91 119.86C1050.43 119.86 1048.6 121.402 1048.62 123.615C1048.6 125.834 1050.43 127.369 1052.91 127.369C1055.4 127.369 1057.18 125.834 1057.19 123.615C1057.18 121.402 1055.4 119.86 1052.91 119.86ZM1047.86 129.743L1048.06 131.135C1050.88 131.135 1054.71 131.117 1058.28 130.439L1058.14 129.221C1054.7 129.718 1050.73 129.749 1047.86 129.743ZM1050.26 123.615C1050.25 122.229 1051.38 121.309 1052.91 121.309C1054.43 121.309 1055.56 122.229 1055.57 123.615C1055.56 125.007 1054.43 125.921 1052.91 125.921C1051.38 125.921 1050.25 125.007 1050.26 123.615ZM1059.13 134.523H1060.8V118.742H1059.13V134.523ZM1081.01 126.157H1066.65V127.518H1081.01V126.157ZM1067.4 124.019L1067.98 125.33C1070.71 125.019 1072.96 123.869 1073.82 122.198C1074.68 123.876 1076.94 125.019 1079.67 125.33L1080.27 124.019C1077.36 123.708 1075.13 122.421 1074.95 120.892H1079.71V119.519H1067.96V120.892H1072.7C1072.5 122.434 1070.25 123.708 1067.4 124.019ZM1068.35 131.608C1068.35 133.441 1070.4 134.467 1073.81 134.467C1077.2 134.467 1079.24 133.441 1079.25 131.608C1079.24 129.78 1077.2 128.73 1073.81 128.73C1070.4 128.73 1068.35 129.78 1068.35 131.608ZM1070.04 131.608C1070.03 130.595 1071.4 130.048 1073.81 130.035C1076.19 130.048 1077.58 130.595 1077.59 131.608C1077.58 132.608 1076.19 133.149 1073.81 133.149C1071.4 133.149 1070.03 132.608 1070.04 131.608ZM1087.09 121.265V119.562H1085.43V121.122C1085.42 123.465 1084 125.573 1081.54 126.449L1082.44 127.773C1084.28 127.095 1085.61 125.709 1086.29 123.944C1086.98 125.498 1088.27 126.722 1090 127.331L1090.89 126.02C1088.54 125.249 1087.09 123.329 1087.09 121.265ZM1083.67 131.533C1083.67 133.404 1085.68 134.467 1088.95 134.467C1092.19 134.467 1094.18 133.404 1094.18 131.533C1094.18 129.7 1092.19 128.618 1088.95 128.618C1085.68 128.618 1083.67 129.7 1083.67 131.533ZM1085.34 131.533C1085.33 130.532 1086.67 129.942 1088.95 129.942C1091.22 129.942 1092.55 130.532 1092.55 131.533C1092.55 132.577 1091.22 133.143 1088.95 133.155C1086.67 133.143 1085.33 132.577 1085.34 131.533ZM1092.37 128.245H1094.04V124.099H1096.32V122.707H1094.04V118.742H1092.37V128.245ZM1103.85 119.003C1100.3 119.003 1098.22 119.96 1098.22 121.706C1098.22 123.478 1100.3 124.435 1103.85 124.448C1107.4 124.435 1109.47 123.478 1109.47 121.706C1109.47 119.96 1107.4 119.003 1103.85 119.003ZM1096.68 126.741H1111.04V125.405H1096.68V126.741ZM1098.39 129.202H1107.58V130.439H1098.42V134.343H1109.67V133.05H1100.06V131.639H1109.22V127.953H1098.39V129.202ZM1099.96 121.706C1099.95 120.787 1101.34 120.24 1103.85 120.246C1106.37 120.24 1107.76 120.787 1107.76 121.706C1107.76 122.689 1106.37 123.192 1103.85 123.192C1101.34 123.192 1099.95 122.689 1099.96 121.706ZM1123.88 119.736H1116.61V121.091H1122.09C1121.77 123.571 1119.49 125.554 1115.78 126.542L1116.44 127.847C1119.82 126.94 1122.22 125.181 1123.28 122.732H1127.01V124.715H1123.03V126.076H1127.01V127.86H1128.68V118.754H1127.01V121.377H1123.71C1123.82 120.855 1123.88 120.308 1123.88 119.736ZM1117.57 129.917H1121.15V134.479H1122.84V128.556H1117.57V129.917ZM1123.57 129.917H1127.01V134.479H1128.68V128.556H1123.57V129.917ZM1137.74 119.686C1134.44 119.693 1131.93 121.439 1131.93 124.087C1131.93 126.747 1134.44 128.494 1137.74 128.481C1141.04 128.494 1143.56 126.747 1143.56 124.087C1143.56 121.439 1141.04 119.693 1137.74 119.686ZM1130.57 132.453H1144.98V131.073H1130.57V132.453ZM1133.53 124.087C1133.53 122.266 1135.32 121.035 1137.74 121.048C1140.15 121.035 1141.93 122.266 1141.93 124.087C1141.93 125.927 1140.15 127.114 1137.74 127.114C1135.32 127.114 1133.53 125.927 1133.53 124.087ZM1153.61 120.084H1146.29V127.543H1153.61V126.157H1157.05V130.234H1158.71V118.754H1157.05V121.421H1153.61V120.084ZM1147.95 126.219V121.433H1151.98V126.219H1147.95ZM1148.43 134.169H1159.07V132.801H1150.11V129.19H1148.43V134.169ZM1153.61 124.802V122.794H1157.05V124.802H1153.61ZM1166.28 122.751V120.053H1164.59V122.751C1164.58 125.666 1162.95 128.705 1160.52 129.874L1161.57 131.216C1163.38 130.278 1164.75 128.363 1165.45 126.095C1166.14 128.251 1167.5 130.029 1169.29 130.93L1170.3 129.588C1167.89 128.506 1166.28 125.635 1166.28 122.751ZM1168.57 125.33H1172.08V134.523H1173.74V118.742H1172.08V123.975H1168.57V125.33ZM1183.94 119.282C1181.54 119.289 1179.79 120.743 1179.79 122.813C1179.79 124.876 1181.54 126.318 1183.94 126.318C1186.3 126.318 1188.05 124.876 1188.06 122.813C1188.05 120.743 1186.3 119.289 1183.94 119.282ZM1181.42 122.813C1181.41 121.526 1182.48 120.662 1183.94 120.669C1185.38 120.662 1186.45 121.526 1186.45 122.813C1186.45 124.106 1185.38 124.963 1183.94 124.963C1182.48 124.963 1181.41 124.106 1181.42 122.813ZM1182.18 128.811H1190.88V130.203H1182.23V134.293H1193.05V132.956H1183.85V131.446H1192.54V127.487H1182.18V128.811ZM1190.87 126.76H1192.54V118.742H1190.87V126.76ZM1199.91 121.265V119.562H1198.26V121.122C1198.25 123.465 1196.82 125.573 1194.37 126.449L1195.27 127.773C1197.1 127.095 1198.44 125.709 1199.12 123.944C1199.81 125.498 1201.1 126.722 1202.83 127.331L1203.71 126.02C1201.37 125.249 1199.91 123.329 1199.91 121.265ZM1196.49 131.533C1196.49 133.404 1198.51 134.467 1201.78 134.467C1205.02 134.467 1207.01 133.404 1207.01 131.533C1207.01 129.7 1205.02 128.618 1201.78 128.618C1198.51 128.618 1196.49 129.7 1196.49 131.533ZM1198.16 131.533C1198.15 130.532 1199.5 129.942 1201.78 129.942C1204.04 129.942 1205.37 130.532 1205.37 131.533C1205.37 132.577 1204.04 133.143 1201.78 133.155C1199.5 133.143 1198.15 132.577 1198.16 131.533ZM1205.19 128.245H1206.87V124.099H1209.15V122.707H1206.87V118.742H1205.19V128.245ZM1214.32 121.769V119.724H1212.7V121.769C1212.7 123.521 1211.56 125.517 1209.44 126.449L1210.35 127.742C1211.88 127.089 1212.95 125.815 1213.53 124.354C1214.09 125.647 1215.12 126.722 1216.58 127.282L1217.47 125.995C1215.42 125.231 1214.32 123.49 1214.32 121.769ZM1212.32 131.614C1212.31 133.404 1214.37 134.467 1217.67 134.467C1220.94 134.467 1223.01 133.404 1223.01 131.614C1223.01 129.811 1220.94 128.755 1217.67 128.755C1214.37 128.755 1212.31 129.811 1212.32 131.614ZM1213.98 131.614C1213.97 130.607 1215.37 130.023 1217.67 130.023C1219.94 130.023 1221.34 130.607 1221.35 131.614C1221.34 132.615 1219.94 133.193 1217.67 133.18C1215.37 133.193 1213.97 132.615 1213.98 131.614ZM1217.95 127.947H1219.51V124.23H1221.35V128.45H1222.93V118.754H1221.35V122.856H1219.51V119.046H1217.95V127.947ZM1236.91 118.742H1235.25V128.028H1236.91V124.081H1239.16V122.67H1236.91V118.742ZM1224.41 126.523L1224.6 127.723C1227.36 127.723 1231.1 127.704 1234.48 127.139L1234.35 126.064C1233.03 126.244 1231.61 126.356 1230.2 126.424V125.597C1231.98 125.423 1233.09 124.696 1233.1 123.528C1233.09 122.241 1231.62 121.489 1229.35 121.489C1227.07 121.489 1225.59 122.241 1225.61 123.528C1225.59 124.702 1226.72 125.436 1228.53 125.597V126.48C1227.05 126.523 1225.64 126.523 1224.41 126.523ZM1224.82 121.035H1233.9V119.873H1230.2V118.599H1228.53V119.873H1224.82V121.035ZM1226.51 129.843H1235.26V130.912H1226.54V134.343H1237.49V133.18H1228.2V131.974H1236.91V128.693H1226.51V129.843ZM1227.2 123.528C1227.19 122.919 1228.01 122.577 1229.35 122.57C1230.68 122.577 1231.5 122.919 1231.5 123.528C1231.5 124.162 1230.68 124.541 1229.35 124.541C1228.01 124.541 1227.19 124.162 1227.2 123.528ZM1253.08 118.742H1251.48V134.492H1253.08V118.742ZM1239.71 125.541C1239.71 128.966 1241.05 131.11 1243.1 131.104C1245.05 131.11 1246.37 129.209 1246.52 126.132H1248.29V133.715H1249.88V119.046H1248.29V124.777H1246.51C1246.32 121.818 1245.02 120.003 1243.1 120.003C1241.05 120.003 1239.71 122.135 1239.71 125.541ZM1241.27 125.541C1241.26 123.037 1241.97 121.57 1243.1 121.57C1244.26 121.57 1244.99 123.037 1244.99 125.541C1244.99 128.052 1244.26 129.526 1243.1 129.513C1241.97 129.526 1241.26 128.052 1241.27 125.541ZM1262.68 119.923C1260.33 119.929 1258.67 122.073 1258.69 125.448C1258.67 128.842 1260.33 130.986 1262.68 130.986C1264.88 130.986 1266.47 129.078 1266.64 126.008H1269.89V134.523H1271.55V118.742H1269.89V124.646H1266.63C1266.38 121.738 1264.81 119.929 1262.68 119.923ZM1260.28 125.448C1260.28 122.968 1261.25 121.427 1262.68 121.414C1264.1 121.427 1265.08 122.968 1265.08 125.448C1265.08 127.947 1264.1 129.488 1262.68 129.488C1261.25 129.488 1260.28 127.947 1260.28 125.448ZM1286.54 118.742H1284.89V122.253H1281.89V123.633H1284.89V126.542H1281.81V127.934H1284.89V134.523H1286.54V118.742ZM1273.96 121.489H1279.31V124.559H1274.01V130.893H1275.2C1277.69 130.893 1279.7 130.818 1282.17 130.433L1282.02 129.053C1279.77 129.395 1277.89 129.488 1275.67 129.501V125.883H1280.94V120.134H1273.96V121.489ZM1295.61 119.015C1292.17 119.015 1289.98 120.122 1289.98 122.011C1289.98 123.863 1292.17 124.97 1295.61 124.957C1299.07 124.97 1301.23 123.863 1301.23 122.011C1301.23 120.122 1299.07 119.015 1295.61 119.015ZM1288.45 127.4H1294.79V129.053H1290.17V134.293H1301.05V129.053H1296.44V127.4H1302.8V126.039H1288.45V127.4ZM1291.71 122.011C1291.7 120.923 1293.19 120.302 1295.61 120.308C1298.02 120.302 1299.52 120.923 1299.52 122.011C1299.52 123.068 1298.02 123.671 1295.61 123.671C1293.19 123.671 1291.7 123.068 1291.71 122.011ZM1291.81 132.938V130.383H1299.43V132.938H1291.81ZM651.853 148.003C648.304 148.003 646.222 148.96 646.222 150.706C646.222 152.478 648.304 153.435 651.853 153.448C655.402 153.435 657.472 152.478 657.472 150.706C657.472 148.96 655.402 148.003 651.853 148.003ZM644.687 155.741H659.045V154.405H644.687V155.741ZM646.396 158.202H655.583V159.439H646.427V163.343H657.677V162.05H648.062V160.639H657.223V156.953H646.396V158.202ZM647.969 150.706C647.956 149.787 649.348 149.24 651.853 149.246C654.377 149.24 655.763 149.787 655.763 150.706C655.763 151.689 654.377 152.192 651.853 152.192C649.348 152.192 647.956 151.689 647.969 150.706ZM676.337 154.815H666.945V149.115H665.267V156.189H676.337V154.815ZM663.558 161.422H677.972V160.017H663.558V161.422ZM691.64 147.742H689.968V163.492H691.64V147.742ZM678.537 158.979L679.843 159.936C682.658 156.947 683.479 153.317 683.491 149.426H679.171V150.806H681.9C681.72 153.945 680.781 156.63 678.537 158.979ZM683.143 160.086L684.554 160.974C687.345 157.593 687.904 153.367 687.904 149.426H684.032V150.806H686.319C686.176 154.162 685.43 157.363 683.143 160.086ZM706.339 152.354H697.14V148.314H695.487V153.69H706.339V152.354ZM693.566 157.009H707.98V155.673H693.566V157.009ZM695.369 163.119H706.439V161.758H697.028V158.507H695.369V163.119ZM726.82 155.157H712.462V156.518H726.82V155.157ZM713.214 153.019L713.793 154.33C716.527 154.019 718.771 152.869 719.629 151.198C720.493 152.876 722.749 154.019 725.484 154.33L726.087 153.019C723.178 152.708 720.947 151.421 720.76 149.892H725.527V148.519H713.774V149.892H718.516C718.317 151.434 716.067 152.708 713.214 153.019ZM714.159 160.608C714.159 162.441 716.21 163.467 719.623 163.467C723.016 163.467 725.055 162.441 725.067 160.608C725.055 158.78 723.016 157.73 719.623 157.73C716.21 157.73 714.159 158.78 714.159 160.608ZM715.856 160.608C715.844 159.595 717.217 159.048 719.623 159.035C722.003 159.048 723.389 159.595 723.402 160.608C723.389 161.608 722.003 162.149 719.623 162.149C717.217 162.149 715.844 161.608 715.856 160.608ZM732.899 150.265V148.562H731.246V150.122C731.233 152.465 729.81 154.573 727.355 155.449L728.256 156.773C730.09 156.095 731.426 154.709 732.103 152.944C732.793 154.498 734.086 155.722 735.814 156.331L736.703 155.02C734.353 154.249 732.899 152.329 732.899 150.265ZM729.48 160.533C729.48 162.404 731.494 163.467 734.764 163.467C738.008 163.467 739.997 162.404 739.997 160.533C739.997 158.7 738.008 157.618 734.764 157.618C731.494 157.618 729.48 158.7 729.48 160.533ZM731.152 160.533C731.14 159.532 732.489 158.942 734.764 158.942C737.032 158.942 738.362 159.532 738.362 160.533C738.362 161.577 737.032 162.143 734.764 162.155C732.489 162.143 731.14 161.577 731.152 160.533ZM738.182 157.245H739.854V153.099H742.135V151.707H739.854V147.742H738.182V157.245ZM756.872 154.2H742.496V155.536H756.872V154.2ZM744.205 158.059H753.391V159.358H744.236V163.324H755.486V162H745.871V160.589H755.032V156.773H744.205V158.059ZM744.367 153.05H755.157V151.707H746.032V149.544H755.007V148.208H744.367V153.05ZM762.64 148.86C760.16 148.86 758.339 150.402 758.351 152.615C758.339 154.834 760.16 156.369 762.64 156.369C765.133 156.369 766.916 154.834 766.929 152.615C766.916 150.402 765.133 148.86 762.64 148.86ZM757.593 158.743L757.798 160.135C760.614 160.135 764.443 160.117 768.01 159.439L767.88 158.221C764.436 158.718 760.465 158.749 757.593 158.743ZM759.999 152.615C759.986 151.229 761.111 150.309 762.64 150.309C764.169 150.309 765.294 151.229 765.3 152.615C765.294 154.007 764.169 154.921 762.64 154.921C761.111 154.921 759.986 154.007 759.999 152.615ZM768.868 163.523H770.534V147.742H768.868V163.523ZM790.741 155.809H784.37V153.994H782.73V155.809H776.384V157.171H790.741V155.809ZM777.142 153.485L777.658 154.771C780.368 154.523 782.574 153.603 783.55 152.136C784.52 153.603 786.726 154.523 789.455 154.771L789.958 153.485C786.832 153.236 784.669 152.086 784.482 150.576H789.299V149.24H784.37V147.735H782.73V149.24H777.825V150.576H782.618C782.419 152.086 780.262 153.236 777.142 153.485ZM778.08 160.838C778.08 162.541 780.107 163.467 783.544 163.467C786.975 163.467 788.976 162.541 788.988 160.838C788.976 159.135 786.975 158.209 783.544 158.209C780.107 158.209 778.08 159.135 778.08 160.838ZM779.777 160.838C779.765 159.936 781.12 159.458 783.544 159.458C785.949 159.458 787.31 159.936 787.323 160.838C787.31 161.739 785.949 162.211 783.544 162.199C781.12 162.211 779.765 161.739 779.777 160.838ZM797.249 151.023V150.93H800.736V149.594H797.268V147.742H795.583V149.594H792.09V150.93H795.583V151.023C795.583 153.056 794.073 154.958 791.649 155.698L792.475 157.003C794.359 156.406 795.757 155.119 796.46 153.485C797.193 154.958 798.604 156.102 800.45 156.617L801.239 155.318C798.797 154.647 797.243 152.901 797.249 151.023ZM793.812 160.558C793.806 162.41 795.832 163.467 799.169 163.467C802.476 163.467 804.502 162.41 804.515 160.558C804.502 158.724 802.476 157.655 799.169 157.662C795.832 157.655 793.806 158.724 793.812 160.558ZM795.49 160.558C795.49 159.557 796.826 158.967 799.169 158.967C801.494 158.967 802.861 159.557 802.861 160.558C802.861 161.59 801.494 162.168 799.169 162.168C796.826 162.168 795.49 161.59 795.49 160.558ZM802.793 157.363H804.465V147.754H802.793V157.363ZM819.463 147.742H817.785V163.523H819.463V147.742ZM806.958 154.448C806.958 157.842 808.654 159.986 811.029 159.986C813.378 159.986 815.094 157.842 815.094 154.448C815.094 151.073 813.378 148.929 811.029 148.923C808.654 148.929 806.958 151.073 806.958 154.448ZM808.567 154.448C808.567 151.968 809.574 150.427 811.029 150.414C812.483 150.427 813.478 151.968 813.478 154.448C813.478 156.947 812.483 158.488 811.029 158.488C809.574 158.488 808.567 156.947 808.567 154.448ZM829.352 149.252H822.049V159.557H829.352V157.121H832.913V163.523H834.567V147.742H832.913V151.452H829.352V149.252ZM823.702 158.227V150.564H827.723V158.227H823.702ZM829.352 155.772V152.814H832.913V155.772H829.352ZM848.565 149.252H841.175V159.601H848.565V149.252ZM842.828 158.258V150.576H846.943V158.258H842.828ZM851.673 163.523H853.351V147.742H851.673V163.523ZM867.908 148.481H857.124V149.83H866.248C866.248 150.961 866.229 152.273 865.863 154.038H855.321V155.393H861.667V158.078H856.794V159.421H866.298V163.492H867.976V158.078H863.327V155.393H869.735V154.038H867.541C867.908 152.211 867.908 150.825 867.908 149.656V148.481ZM882.248 149.128V148.27H880.507V149.128C880.507 151.247 877.959 153.186 874.87 153.603L875.541 154.964C878.102 154.554 880.358 153.224 881.384 151.359C882.409 153.211 884.665 154.554 887.239 154.964L887.904 153.603C884.802 153.186 882.248 151.222 882.248 149.128ZM874.192 157.892H880.514V163.492H882.154V157.892H888.55V156.512H874.192V157.892ZM894.337 148.86C891.857 148.86 890.036 150.402 890.048 152.615C890.036 154.834 891.857 156.369 894.337 156.369C896.829 156.369 898.613 154.834 898.626 152.615C898.613 150.402 896.829 148.86 894.337 148.86ZM889.29 158.743L889.495 160.135C892.311 160.135 896.139 160.117 899.707 159.439L899.576 158.221C896.133 158.718 892.161 158.749 889.29 158.743ZM891.695 152.615C891.683 151.229 892.808 150.309 894.337 150.309C895.866 150.309 896.991 151.229 896.997 152.615C896.991 154.007 895.866 154.921 894.337 154.921C892.808 154.921 891.683 154.007 891.695 152.615ZM900.565 163.523H902.23V147.742H900.565V163.523ZM909.683 151.751V149.053H908.023V151.751C908.011 154.641 906.376 157.655 903.958 158.824L904.996 160.166C906.786 159.234 908.166 157.351 908.869 155.113C909.559 157.214 910.889 158.979 912.61 159.868L913.636 158.532C911.299 157.388 909.67 154.535 909.683 151.751ZM914.823 163.492H916.495V155.449H919.019V154.026H916.495V147.742H914.823V163.492ZM928.124 149.258H924.6V147.599H922.941V149.258H919.261V150.601H928.124V149.258ZM920.144 154.119C920.131 155.822 921.61 156.947 923.755 156.947C925.88 156.947 927.385 155.822 927.397 154.119C927.385 152.41 925.88 151.266 923.755 151.266C921.61 151.266 920.131 152.41 920.144 154.119ZM921.704 154.119C921.691 153.149 922.505 152.534 923.755 152.534C924.985 152.534 925.831 153.149 925.843 154.119C925.831 155.082 924.985 155.71 923.755 155.71C922.505 155.71 921.691 155.082 921.704 154.119ZM921.996 163.293H932.369V157.718H930.716V159.203H923.655V157.718H921.996V163.293ZM923.655 161.975V160.477H930.716V161.975H923.655ZM928.155 155.76H930.704V157.077H932.369V147.742H930.704V151.316H928.174V152.677H930.704V154.398H928.155V155.76ZM947.28 147.742H945.615V163.492H947.28V147.742ZM934.34 159.209L934.576 160.602C937.46 160.602 941.27 160.558 944.763 159.98L944.639 158.724C943.253 158.905 941.78 159.017 940.325 159.085V157.562C942.146 157.307 943.334 156.226 943.334 154.703C943.334 152.925 941.767 151.757 939.468 151.757C937.18 151.757 935.633 152.925 935.645 154.703C935.633 156.238 936.826 157.326 938.66 157.568V159.147C937.118 159.191 935.639 159.203 934.34 159.209ZM934.669 150.955H944.285V149.619H940.331V147.773H938.66V149.619H934.669V150.955ZM937.218 154.703C937.205 153.696 938.144 153.05 939.468 153.05C940.816 153.05 941.742 153.696 941.742 154.703C941.742 155.704 940.816 156.325 939.468 156.319C938.144 156.325 937.205 155.704 937.218 154.703ZM961.545 147.742H959.873V163.473H961.545V155.418H963.988V154.019H961.545V147.742ZM949.282 159.278L950.214 160.57C955.404 158.016 957.412 153.951 957.424 149.407H950.071V150.787H955.727C955.373 154.461 953.235 157.307 949.282 159.278ZM981.653 147.742H980.068V163.492H981.653V147.742ZM967.911 159.16L968.942 160.396C970.478 159.439 971.547 157.68 972.106 155.623C972.653 157.525 973.685 159.128 975.195 160.03L976.19 158.799C973.977 157.525 972.889 154.834 972.889 152.136V150.874H975.605V149.513H968.395V150.874H971.279V152.136C971.279 154.939 970.142 157.805 967.911 159.16ZM974.431 154.678H976.886V162.696H978.458V148.077H976.886V153.323H974.431V154.678ZM995.538 147.735H993.866V159.309H995.538V153.833H997.82V152.441H995.538V147.735ZM983.4 152.739C983.387 155.032 985.215 156.661 987.595 156.661C989.969 156.661 991.772 155.032 991.784 152.739C991.772 150.439 989.969 148.823 987.595 148.823C985.215 148.823 983.387 150.439 983.4 152.739ZM985.034 152.739C985.022 151.266 986.153 150.278 987.595 150.278C989.049 150.278 990.15 151.266 990.162 152.739C990.15 154.2 989.049 155.2 987.595 155.2C986.153 155.2 985.022 154.2 985.034 152.739ZM985.556 163.169H996.21V161.801H987.216V158.103H985.556V163.169ZM1010.45 147.742H1008.8V163.492H1010.45V155.511H1012.97V154.125H1010.45V147.742ZM998.093 151.57H1007.42V150.209H1003.64V147.947H1001.98V150.209H998.093V151.57ZM998.901 156.4C998.895 158.557 1000.55 160.055 1002.82 160.061C1005.07 160.055 1006.73 158.557 1006.73 156.4C1006.73 154.249 1005.07 152.733 1002.82 152.733C1000.55 152.733 998.895 154.249 998.901 156.4ZM1000.5 156.4C1000.49 155.045 1001.47 154.113 1002.82 154.113C1004.15 154.113 1005.13 155.045 1005.14 156.4C1005.13 157.761 1004.15 158.675 1002.82 158.669C1001.47 158.675 1000.49 157.761 1000.5 156.4ZM1025.94 152.354H1016.75V148.314H1015.09V153.69H1025.94V152.354ZM1013.17 157.009H1027.59V155.673H1013.17V157.009ZM1014.97 163.119H1026.04V161.758H1016.63V158.507H1014.97V163.119ZM1044.65 148.481H1033.87V149.83H1042.99C1042.99 150.961 1042.97 152.385 1042.6 154.305H1032.07V155.666H1046.48V154.305H1044.28C1044.65 152.267 1044.65 150.756 1044.65 149.581V148.481ZM1033.59 159.172H1043.08V163.529H1044.74V157.848H1033.59V159.172ZM1061.44 155.772H1055.08V154.075H1059.58V148.115H1057.92V149.811H1050.62V148.115H1048.96V154.075H1053.42V155.772H1047.08V157.133H1061.44V155.772ZM1048.68 159.868H1058V163.492H1059.68V158.532H1048.68V159.868ZM1050.62 152.733V151.067H1057.92V152.733H1050.62ZM1064.52 148.556H1062.85V155.809H1070.12V152.913H1073.56V156.344H1075.23V147.742H1073.56V151.521H1070.12V148.556H1068.47V150.849H1064.52V148.556ZM1064.52 154.461V152.155H1068.47V154.461H1064.52ZM1064.96 163.274H1075.22V157.084H1073.56V158.849H1066.62V157.084H1064.96V163.274ZM1066.62 161.913V160.154H1073.56V161.913H1066.62ZM1091.48 155.965H1077.12V157.301H1091.48V155.965ZM1078.65 151.421C1078.65 153.41 1080.86 154.61 1084.28 154.61C1087.7 154.61 1089.9 153.41 1089.9 151.421C1089.9 149.445 1087.7 148.258 1084.28 148.27C1080.86 148.258 1078.65 149.445 1078.65 151.421ZM1078.93 163.169H1089.86V161.801H1080.6V158.581H1078.93V163.169ZM1080.39 151.421C1080.37 150.29 1081.87 149.606 1084.28 149.606C1086.7 149.606 1088.19 150.29 1088.19 151.421C1088.19 152.584 1086.7 153.249 1084.28 153.249C1081.87 153.249 1080.37 152.584 1080.39 151.421ZM1108.26 147.742H1106.59V163.523H1108.26V155.225H1110.78V153.839H1108.26V147.742ZM1096.65 159.613H1097.92C1100.84 159.619 1102.94 159.539 1105.4 159.11L1105.2 157.686C1102.94 158.097 1100.96 158.209 1098.32 158.221V150.613H1104.02V149.258H1096.65V159.613ZM1118.17 148.071C1114.73 148.071 1112.54 149.196 1112.54 151.098C1112.54 152.969 1114.73 154.081 1118.17 154.081C1121.63 154.081 1123.79 152.969 1123.79 151.098C1123.79 149.196 1121.63 148.071 1118.17 148.071ZM1111.01 156.642H1125.36V155.294H1111.01V156.642ZM1112.73 163.293H1123.61V158.053H1112.73V163.293ZM1114.27 151.098C1114.26 150.01 1115.75 149.389 1118.17 149.395C1120.58 149.389 1122.08 150.01 1122.08 151.098C1122.08 152.148 1120.58 152.764 1118.17 152.77C1115.75 152.764 1114.26 152.148 1114.27 151.098ZM1114.37 161.938V159.383H1121.99V161.938H1114.37ZM1142.15 147.742H1140.47V163.523H1142.15V155.225H1144.67V153.839H1142.15V147.742ZM1130.54 159.613H1131.81C1134.73 159.619 1136.83 159.539 1139.29 159.11L1139.09 157.686C1136.83 158.097 1134.85 158.209 1132.21 158.221V150.613H1137.91V149.258H1130.54V159.613ZM1158.01 147.742H1156.35V150.849H1153.04V152.223H1156.35V158.637H1158.01V147.742ZM1144.87 155.455L1145.76 156.785C1147.6 156.102 1148.94 154.734 1149.62 152.988C1150.31 154.548 1151.6 155.791 1153.33 156.419L1154.2 155.132C1151.85 154.318 1150.43 152.347 1150.44 150.253V148.525H1148.77V150.141C1148.77 152.497 1147.34 154.591 1144.87 155.455ZM1146.73 162.124L1147.36 163.417C1149.82 163.026 1151.89 161.826 1152.85 160.154C1153.8 161.845 1155.86 163.019 1158.34 163.417L1158.98 162.124C1155.97 161.671 1153.71 160.011 1153.72 158.003V157.575H1152V158.003C1152 159.943 1149.67 161.671 1146.73 162.124ZM1176.03 147.742H1174.36V163.473H1176.03V155.418H1178.48V154.019H1176.03V147.742ZM1163.77 159.278L1164.7 160.57C1169.89 158.016 1171.9 153.951 1171.91 149.407H1164.56V150.787H1170.22C1169.86 154.461 1167.72 157.307 1163.77 159.278ZM1184.57 152.391V150.706H1188.17V149.327H1179.29V150.706H1182.88V152.391C1182.87 155.095 1181.11 158.059 1178.74 159.166L1179.71 160.483C1181.54 159.595 1183.02 157.68 1183.75 155.443C1184.49 157.531 1185.95 159.271 1187.81 160.092L1188.73 158.774C1186.3 157.742 1184.57 155.02 1184.57 152.391ZM1190.15 163.492H1191.83V147.742H1190.15V163.492ZM1206.07 147.742H1204.4V163.473H1206.07V155.418H1208.51V154.019H1206.07V147.742ZM1193.8 159.278L1194.74 160.57C1199.93 158.016 1201.93 153.951 1201.95 149.407H1194.59V150.787H1200.25C1199.9 154.461 1197.76 157.307 1193.8 159.278ZM1218.13 158.146V157.394H1216.52V158.146C1216.5 159.675 1215.41 161.31 1213.39 162.044L1214.22 163.262C1215.71 162.721 1216.75 161.677 1217.32 160.434C1217.8 161.727 1218.76 162.839 1220.28 163.405C1221.72 162.808 1222.66 161.646 1223.16 160.384C1223.71 161.677 1224.76 162.727 1226.32 163.262L1227.14 162.044C1225.09 161.366 1224.01 159.787 1224.02 158.146V157.394H1222.38V158.146C1222.38 159.352 1221.67 160.856 1220.23 161.789C1218.8 160.931 1218.13 159.501 1218.13 158.146ZM1212.99 152.347C1212.99 154.529 1214.76 156.046 1217.18 156.046C1219.59 156.046 1221.36 154.529 1221.36 152.347C1221.36 150.147 1219.59 148.631 1217.18 148.631C1214.76 148.631 1212.99 150.147 1212.99 152.347ZM1214.62 152.347C1214.61 150.968 1215.68 150.035 1217.18 150.048C1218.66 150.035 1219.73 150.968 1219.73 152.347C1219.73 153.721 1218.66 154.653 1217.18 154.66C1215.68 154.653 1214.61 153.721 1214.62 152.347ZM1224.06 156.717H1225.73V147.754H1224.06V156.717ZM1231.11 157.189H1229.46V163.293H1240.19V157.189H1238.51V158.861H1231.11V157.189ZM1227.69 156.189H1242.04V154.821H1227.69V156.189ZM1228.46 152.534L1229.08 153.845C1231.61 153.485 1233.85 152.285 1234.87 150.601C1235.88 152.279 1238.1 153.485 1240.65 153.845L1241.25 152.534C1238.23 152.155 1235.72 150.402 1235.72 148.581V147.91H1234.01V148.581C1234.01 150.458 1231.51 152.13 1228.46 152.534ZM1231.11 161.956V160.154H1238.51V161.956H1231.11ZM1255.77 147.742H1254.11V163.492H1255.77V147.742ZM1243.67 159.489H1244.98C1247.47 159.495 1250 159.302 1252.78 158.724L1252.57 157.32C1250.03 157.842 1247.61 158.035 1245.31 158.053V149.277H1243.67V159.489ZM1269.99 147.742H1268.32V163.523H1269.99V155.225H1272.51V153.839H1269.99V147.742ZM1258.38 159.613H1259.65C1262.57 159.619 1264.67 159.539 1267.13 159.11L1266.93 157.686C1264.67 158.097 1262.69 158.209 1260.05 158.221V150.613H1265.75V149.258H1258.38V159.613ZM1274.53 162.118C1275.2 162.118 1275.77 161.559 1275.77 160.875C1275.77 160.191 1275.2 159.632 1274.53 159.632C1273.84 159.632 1273.26 160.191 1273.28 160.875C1273.26 161.559 1273.84 162.118 1274.53 162.118Z" fill="#666666"/>
</g>
<defs>
<clipPath id="clip0_749_1223">
<rect width="689" height="170" fill="white" transform="translate(616)"/>
</clipPath>
</defs>
</svg>
