<svg width="22" height="30" viewBox="0 0 22 30" fill="none" xmlns="http://www.w3.org/2000/svg">
<path fill-rule="evenodd" clip-rule="evenodd" d="M8.94373 0.199578C4.60129 0.801064 0.494827 3.57716 0.101491 9.22188C-0.181712 13.4323 -0.15023 13.4631 3.97194 12.6457C7.44903 11.9517 7.26022 12.1368 7.26022 9.54575C7.26022 7.3403 7.88954 6.09106 9.60449 5.22738C13.412 3.33039 16.1496 8.32734 16.1496 9.90046C16.1496 11.6278 14.8909 12.5378 10.9261 13.6636C7.68499 14.589 6.64658 15.8999 6.52071 19.185C6.48925 20.1566 6.37917 20.9277 6.26904 21.0511C5.7813 21.6372 7.48047 22.177 9.28982 22.0227C14.7179 21.5446 14.6392 21.5909 14.3403 19.5859C14.1515 18.3367 14.2773 18.1516 15.5675 17.7661C18.6827 16.8407 20.4606 15.0825 21.4046 11.998C23.8747 4.03984 18.4467 -1.09593 8.94373 0.199578ZM14.0256 1.12494C17.5656 1.63389 20.8697 6.1219 20.2561 9.62286C19.6897 12.8616 17.896 14.8512 14.3245 16.1621C12.5938 16.7944 12.0432 17.5964 12.0274 19.478V20.5267C10.1079 20.7118 9.98208 20.7118 8.7234 20.8969C8.94367 16.3472 8.62906 15.8845 14.3718 13.9104C17.9747 12.6766 18.7614 9.73082 16.4171 6.30697C12.6568 0.816483 2.98071 4.45624 4.82153 10.6716C4.9002 10.9646 4.94741 11.2268 4.91595 11.2577C4.86875 11.3039 2.82335 11.7512 2.66601 11.7512C2.65028 11.7512 2.54016 9.85419 2.44576 9.20644C1.61189 3.63883 7.63782 0.230423 14.0256 1.12494ZM8.04689 23.7809C5.21487 25.0456 5.1047 28.4386 7.85806 29.4102C13.349 31.3535 18.3209 28.161 15.2214 24.6909C14.3088 23.6421 9.6517 23.056 8.04689 23.7809ZM12.0747 24.7063C13.3333 24.8914 14.4347 25.8784 14.4347 26.8038C14.4347 28.5157 10.1552 29.364 8.61331 27.9605C7.8581 27.2665 7.60637 24.0431 12.0747 24.7063Z" fill="white"/>
</svg>
