<svg width="566" height="169" viewBox="0 0 566 169" fill="none" xmlns="http://www.w3.org/2000/svg">
<path d="M33.4766 39.3359V43.3984H19.6875V53.6328H14.7656V43.3984H1.05469V39.3359H33.4766ZM2.69531 33.5156C10.0781 32.6953 14.082 29.2188 14.6875 26.0547H3.98438V22.1484H14.7656V18.0859H19.6875V22.1484H30.5078V26.0547H19.8438C20.3906 29.1797 24.3945 32.6953 31.7578 33.5156L29.9609 37.4219C23.9258 36.7383 19.5703 34.2578 17.2656 31.0352C14.9414 34.2969 10.5664 36.7383 4.49219 37.4219L2.69531 33.5156ZM63.5859 40.7031V53.6328H58.625V44.6484H39.1719V40.7031H63.5859ZM34.0938 28.6328C34.0547 23.5938 38.1562 19.9219 43.5469 19.9609C48.1172 19.9219 51.7695 22.6562 52.6875 26.6406H58.625V18.0469H63.5859V39.0625H58.625V30.7422H52.668C51.7305 34.7852 48.0781 37.4805 43.5469 37.5C38.1562 37.4805 34.0547 33.8086 34.0938 28.6328ZM38.8203 28.6328C38.8008 31.543 40.8516 33.2422 43.5469 33.2422C46.1641 33.2422 48.1758 31.543 48.1953 28.6328C48.1758 25.8594 46.1641 24.1406 43.5469 24.1406C40.8516 24.1406 38.8008 25.8594 38.8203 28.6328ZM103.961 18.0859V36.2891H99.2344V29.1406H96.2656V35.9766H91.6172V18.7109H96.2656V25.1562H99.2344V18.0859H103.961ZM73.5703 27.5781C73.5508 22.7734 76.9688 19.6484 81.7344 19.6875C86.5 19.6484 89.957 22.7734 89.9766 27.5781C89.957 32.1875 86.5 35.4297 81.7344 35.4297C76.9688 35.4297 73.5508 32.1875 73.5703 27.5781ZM78.0234 27.5781C78.0039 30.0195 79.5469 31.4648 81.7344 31.4844C83.9023 31.4648 85.4258 30.0195 85.4453 27.5781C85.4258 25.0195 83.9023 23.4961 81.7344 23.4766C79.5469 23.4961 78.0039 25.0195 78.0234 27.5781ZM79.625 41.4453V37.5391H103.961V47.0703H84.7031V49.2969H105.172V53.2031H79.6641V43.3984H98.9609V41.4453H79.625ZM112.508 20.0781V24.8047H119.5V20.0781H124.422V26.4844H130.984V18.0469H135.945V38.6328H130.984V30.5469H124.422V37.1094H107.508V20.0781H112.508ZM112.039 53.2031V40.0391H135.945V53.2031H112.039ZM112.508 33.125H119.5V28.6719H112.508V33.125ZM117.039 49.2188H131.062V44.0234H117.039V49.2188Z" fill="#FF8A33"/>
<path d="M159.211 26.0938C159.23 32.7734 161.926 39.2773 167.844 41.8359L164.797 45.8203C160.852 43.9062 158.195 40.3516 156.711 35.957C155.188 40.625 152.453 44.4531 148.391 46.4453L145.266 42.3828C151.359 39.6289 154.133 32.7734 154.172 26.0938V20.7812H159.211V26.0938ZM163.859 33.2422V29.2188H170.852V18.0469H175.773V53.6719H170.852V33.2422H163.859ZM208.109 18.0469V53.6719H203.07V18.0469H208.109ZM180.102 45.3516V20.8594H185.102V29.5312H192.758V20.8594H197.68V45.3516H180.102ZM185.102 41.3281H192.758V33.3984H185.102V41.3281ZM229.625 22.7344C229.605 27.9492 234.234 33.5156 242.281 34.8828L240.094 39.0234C233.883 37.793 229.293 34.2969 226.988 29.7461C224.645 34.2578 220.035 37.7734 213.883 39.0234L211.734 34.8828C219.645 33.4766 224.273 27.8906 224.312 22.7344V20.1562H229.625V22.7344ZM210.914 49.2188V45.1172H243.453V49.2188H210.914Z" fill="#1C1A19"/>
<path d="M273.208 53.9827C270.608 51.9847 270.448 48.7267 270.368 46.3867C270.088 37.4587 271.008 28.7827 271.008 25.2547C271.028 21.0787 271.988 19.2607 273.448 17.9107C274.348 17.0647 273.928 16.5067 272.728 16.9207C271.348 17.4067 270.508 18.1807 269.908 20.3767C268.388 26.0107 268.008 44.3167 268.508 49.3927C268.788 52.2187 270.368 54.3247 272.548 54.7387C274.028 55.0627 274.248 54.7927 273.208 53.9827Z" fill="#FF8A33"/>
<path d="M276.087 44.2985C275.047 43.5065 275.027 43.5605 277.987 40.9145C283.547 35.9645 288.667 32.7605 294.187 37.8185C296.407 39.8525 296.908 40.4645 298.868 43.3985C299.348 44.1185 299.307 44.4245 298.727 44.2625C298.207 44.1185 283.248 44.0285 278.968 44.1185C277.068 44.1545 277.667 44.9825 278.987 45.0545C282.287 45.2345 291.107 45.3245 297.227 45.6125C302.587 45.8825 306.247 46.2965 308.927 45.7925C313.987 44.8385 312.327 44.5145 313.327 32.8325C313.607 29.4845 313.427 23.4725 313.047 22.7705C311.147 19.4585 302.607 18.1265 287.747 18.8105C282.547 19.0445 279.347 19.4585 279.347 19.8905C279.347 20.5205 281.827 20.6105 288.727 20.2505C293.567 19.9985 295.867 20.0345 301.647 20.5025C307.247 20.9525 310.428 21.5105 311.068 22.1585C312.148 23.2565 312.307 23.7065 312.107 25.0925C311.847 26.8385 311.687 32.0045 311.647 32.9045L311.068 32.0945C306.568 25.7405 298.487 26.4785 292.127 33.8405L291.627 34.4165L290.527 34.0385C286.127 32.4905 280.368 34.9385 275.968 40.2665L274.627 41.8685L274.468 40.8065C274.308 39.7265 274.407 32.2925 274.687 25.4165C274.847 21.2945 275.008 21.0245 276.268 20.5205C277.148 20.1785 277.107 19.6565 276.107 19.6565C274.687 19.6565 274.107 20.2505 273.507 21.7805C272.507 24.3545 271.447 39.7085 272.987 43.0025C273.587 44.2985 274.187 44.9465 275.447 45.1085C276.747 45.3245 276.987 45.0005 276.087 44.2985ZM293.287 35.2985C293.407 35.1185 299.127 30.9785 299.847 30.5645C301.807 29.4125 304.487 29.1245 306.447 29.8445C307.807 30.3485 308.747 31.0685 309.847 32.3825C311.587 34.5065 311.547 34.3985 311.227 36.8825C311.067 38.0705 310.847 39.8885 310.727 40.9145C310.287 44.8745 309.667 44.6585 300.547 44.1185L299.587 42.5885C298.587 40.9865 296.688 38.7905 294.468 36.7025C293.768 36.0185 293.207 35.3885 293.287 35.2985Z" fill="#FF8A33"/>
<path d="M317.248 23.8326C318.028 21.5286 315.888 17.9106 311.168 17.0106C308.108 16.4166 301.748 16.3266 284.628 16.0386C282.088 16.0026 279.148 16.0206 278.088 16.0746C276.148 16.2006 275.468 16.4166 275.968 16.7586C276.648 17.2266 278.848 17.3526 288.528 17.4426C312.148 17.6766 314.068 17.9826 315.588 21.5466C315.868 22.2126 315.748 34.4526 315.428 37.6026C315.268 39.2946 315.028 42.7686 314.928 45.3426C314.628 52.7946 313.768 54.1266 309.548 53.8386C307.508 53.6946 293.788 54.0186 283.028 54.1626C271.928 54.3066 275.948 55.5666 277.708 55.7466C284.348 56.4126 312.088 55.4946 314.528 54.3786C319.348 52.2006 317.168 24.0666 317.248 23.8326Z" fill="#FF8A33"/>
<path d="M283.328 22.1947C278.288 23.9767 280.148 30.5107 285.688 30.4927C289.728 30.4747 292.268 25.7407 289.748 23.9047C288.628 23.0767 288.508 23.6347 288.928 24.6427C290.088 27.3787 286.808 30.3667 283.688 29.1787C280.388 27.9367 282.988 23.1307 286.968 23.1307L287.708 23.1487C288.228 23.1667 288.388 22.5007 287.908 22.3207C286.788 21.8707 284.648 21.7267 283.328 22.1947Z" fill="#FF8A33"/>
<path d="M14.942 98.2327V99.6126H8.57113V104.517H6.93025V99.6126H0.584254V98.2327H14.942ZM1.42334 95.8149C4.41298 95.4358 6.81837 93.7638 6.92403 91.9924H1.93923V90.6499H6.93025V88.7417H8.57113V90.6499H13.5746V91.9924H8.59599C8.68923 93.7514 11.0698 95.4358 14.0718 95.8149L13.4627 97.145C10.933 96.797 8.78246 95.6098 7.76312 94C6.73757 95.6285 4.56837 96.7907 2.03246 97.145L1.42334 95.8149ZM28.728 98.8667V104.517H27.0622V100.197H18.0498V98.8667H28.728ZM15.8309 93.4157C15.8184 91.1968 17.5836 89.6119 19.9517 89.6243C22.0401 89.6119 23.6624 90.8736 23.9918 92.7258H27.0622V88.7417H28.728V98.0276H27.0622V94.1119H23.9918C23.6624 95.9827 22.0401 97.2445 19.9517 97.2383C17.5836 97.2445 15.8184 95.6657 15.8309 93.4157ZM17.4158 93.4157C17.4158 94.8639 18.5035 95.8211 19.9517 95.8211C21.3751 95.8211 22.4566 94.8639 22.4566 93.4157C22.4566 92.011 21.3751 91.0352 19.9517 91.0352C18.5035 91.0352 17.4158 92.011 17.4158 93.4157ZM47.4935 88.7417V104.492H45.8277V88.7417H47.4935ZM34.5529 100.209C35.8519 100.203 37.3312 100.191 38.8726 100.147V98.5684C37.0391 98.326 35.8457 97.2383 35.8581 95.703C35.8457 93.9254 37.3933 92.7569 39.6806 92.7569C41.9804 92.7569 43.5467 93.9254 43.5467 95.703C43.5467 97.2258 42.3595 98.3073 40.5384 98.5622V100.085C41.9928 100.017 43.4659 99.9047 44.8519 99.7244L44.9762 100.98C41.4831 101.558 37.673 101.602 34.7891 101.602L34.5529 100.209ZM34.8823 91.9551V90.6188H38.8726V88.7728H40.5446V90.6188H44.4976V91.9551H34.8823ZM37.4306 95.703C37.4182 96.7037 38.3567 97.3253 39.6806 97.3191C41.0294 97.3253 41.9555 96.7037 41.9555 95.703C41.9555 94.6961 41.0294 94.0497 39.6806 94.0497C38.3567 94.0497 37.4182 94.6961 37.4306 95.703ZM54.9086 91.2652C54.9086 93.3287 56.363 95.2493 58.7125 96.02L57.8237 97.3315C56.0958 96.7224 54.8029 95.4979 54.113 93.9441C53.4355 95.7093 52.0992 97.0953 50.2656 97.7728L49.3644 96.4489C51.8195 95.5725 53.2429 93.4655 53.2553 91.1222V89.5622H54.9086V91.2652ZM51.4901 101.533C51.4901 99.6996 53.5039 98.6181 56.7732 98.6181C60.0177 98.6181 62.0067 99.6996 62.0067 101.533C62.0067 103.404 60.0177 104.467 56.7732 104.467C53.5039 104.467 51.4901 103.404 51.4901 101.533ZM53.1621 101.533C53.1496 102.577 54.4984 103.143 56.7732 103.155C59.0419 103.143 60.372 102.577 60.372 101.533C60.372 100.532 59.0419 99.942 56.7732 99.942C54.4984 99.942 53.1496 100.532 53.1621 101.533ZM60.1917 98.2452V88.7417H61.8637V92.7072H64.1448V94.0994H61.8637V98.2452H60.1917ZM74.0408 92.7507C74.0346 95.6347 75.6506 98.5062 78.056 99.5877L77.0491 100.93C75.2528 100.029 73.8979 98.2514 73.2079 96.0946C72.5118 98.3633 71.1382 100.278 69.3295 101.216L68.2729 99.8736C70.7093 98.7051 72.3378 95.6657 72.3502 92.7507V90.0532H74.0408V92.7507ZM76.3281 95.3301V93.9751H79.8399V88.7417H81.4932V104.523H79.8399V95.3301H76.3281ZM96.4228 88.7417V104.523H94.7446V88.7417H96.4228ZM84.2467 100.756V90.0532H85.9124V94.0994H90.1638V90.0532H91.8109V100.756H84.2467ZM85.9124 99.3764H90.1638V95.4233H85.9124V99.3764ZM106.392 90.9793C106.392 93.5401 109.121 95.9703 112.142 96.511L111.383 97.9033C108.86 97.3564 106.548 95.7093 105.522 93.4965C104.484 95.6968 102.178 97.3501 99.6549 97.9033L98.909 96.511C101.905 95.9517 104.621 93.5401 104.633 90.9793V89.7921H106.392V90.9793ZM98.3932 102.422V101.036H112.807V102.422H98.3932ZM127.799 95.9703V97.2507H113.385V95.9703H127.799ZM115.094 99.5566V98.3508H126.027V101.825H116.779V103.124H126.518V104.305H115.113V100.713H124.374V99.5566H115.094ZM115.194 90.3267V89.1519H125.984V92.558H116.89V93.7576H126.257V94.9323H115.237V91.4579H124.318V90.3267H115.194ZM145.787 88.7417V104.492H144.202V88.7417H145.787ZM132.045 100.16C134.276 98.8046 135.414 95.9392 135.414 93.136V91.8743H132.53V90.5131H139.74V91.8743H137.023V93.136C137.023 95.8336 138.111 98.5249 140.324 99.799L139.329 101.03C137.819 100.128 136.787 98.5249 136.24 96.6229C135.681 98.6802 134.612 100.439 133.077 101.396L132.045 100.16ZM138.565 95.6782V94.3232H141.02V89.0773H142.592V103.696H141.02V95.6782H138.565ZM154.402 98.643C157.808 98.643 159.959 99.7182 159.971 101.564C159.959 103.392 157.808 104.467 154.402 104.467C151.021 104.467 148.858 103.392 148.858 101.564C148.858 99.7182 151.021 98.643 154.402 98.643ZM147.316 97.3377V95.9827H153.059V93.0304H154.7V95.9827H161.637V97.3377H147.316ZM148.988 90.855V89.5124H159.853V90.8363C159.853 92.0919 159.853 93.3971 159.412 95.0193L157.771 94.8515C158.193 93.2293 158.193 92.0794 158.193 90.855H148.988ZM150.523 101.564C150.511 102.577 152.015 103.168 154.402 103.168C156.801 103.168 158.299 102.577 158.311 101.564C158.299 100.526 156.801 99.9109 154.402 99.9047C152.015 99.9109 150.511 100.526 150.523 101.564ZM174.584 88.7417V95.125H177.107V96.511H174.584V104.492H172.93V88.7417H174.584ZM162.227 92.5704V91.2093H166.112V88.9468H167.778V91.2093H171.557V92.5704H162.227ZM163.035 97.3999C163.029 95.2493 164.682 93.7327 166.957 93.7327C169.207 93.7327 170.861 95.2493 170.867 97.3999C170.861 99.5566 169.207 101.055 166.957 101.061C164.682 101.055 163.029 99.5566 163.035 97.3999ZM164.633 97.3999C164.62 98.761 165.608 99.6747 166.957 99.6685C168.287 99.6747 169.263 98.761 169.276 97.3999C169.263 96.0449 168.287 95.1126 166.957 95.1126C165.608 95.1126 164.62 96.0449 164.633 97.3999ZM190.079 93.3536V94.6899H179.227V89.3135H180.88V93.3536H190.079ZM177.306 98.009V96.6727H191.72V98.009H177.306ZM179.109 104.119V99.5069H180.768V102.758H190.178V104.119H179.109ZM196.283 95.1312L197.694 90.2707H199.185L198.247 95.1312H196.283ZM214.256 98.2327V99.6126H207.885V104.517H206.244V99.6126H199.898V98.2327H214.256ZM200.737 95.8149C203.727 95.4358 206.133 93.7638 206.238 91.9924H201.253V90.6499H206.244V88.7417H207.885V90.6499H212.889V91.9924H207.91C208.003 93.7514 210.384 95.4358 213.386 95.8149L212.777 97.145C210.247 96.797 208.097 95.6098 207.077 94C206.052 95.6285 203.883 96.7907 201.347 97.145L200.737 95.8149ZM228.042 98.8667V104.517H226.376V100.197H217.364V98.8667H228.042ZM215.145 93.4157C215.133 91.1968 216.898 89.6119 219.266 89.6243C221.354 89.6119 222.976 90.8736 223.306 92.7258H226.376V88.7417H228.042V98.0276H226.376V94.1119H223.306C222.976 95.9827 221.354 97.2445 219.266 97.2383C216.898 97.2445 215.133 95.6657 215.145 93.4157ZM216.73 93.4157C216.73 94.8639 217.818 95.8211 219.266 95.8211C220.689 95.8211 221.771 94.8639 221.771 93.4157C221.771 92.011 220.689 91.0352 219.266 91.0352C217.818 91.0352 216.73 92.011 216.73 93.4157ZM246.876 88.7417V104.492H245.198V88.7417H246.876ZM233.935 100.271C238.125 98.2825 240.163 95.442 240.493 91.7686H234.7V90.4385H242.196C242.183 95.0442 240.225 99.0407 234.818 101.62L233.935 100.271ZM263.192 97.3377V98.6989H248.778V97.3377H255.167V95.846H250.63V91.837H259.711V90.4323H250.587V89.1084H261.377V93.0739H252.284V94.5345H261.7V95.846H256.808V97.3377H263.192ZM250.394 101.135V99.7928H261.464V104.367H259.786V101.135H250.394ZM266.803 90.2769L265.392 95.1374H263.9L264.839 90.2769H266.803ZM268.393 101.769L266.982 106.63H265.49L266.429 101.769H268.393ZM278.942 92.7507C278.929 95.5352 280.558 98.3881 282.895 99.5318L281.869 100.868C280.148 99.9793 278.818 98.2141 278.128 96.1133C277.425 98.3508 276.045 100.234 274.255 101.166L273.217 99.8239C275.635 98.6554 277.27 95.6409 277.282 92.7507V90.0532H278.942V92.7507ZM284.082 104.492V88.7417H285.754V95.0256H288.277V96.4489H285.754V104.492H284.082ZM294.331 92.0235C294.331 94.0746 295.836 95.989 298.272 96.7535L297.42 98.0649C295.606 97.4682 294.232 96.2251 293.517 94.6464C292.809 96.3619 291.41 97.7169 289.533 98.3819L288.669 97.058C291.124 96.2251 292.635 94.1865 292.647 92.0235V91.346H289.104V89.9972H297.8V91.346H294.331V92.0235ZM291.261 104.169V99.1713H292.939V102.801H302.026V104.169H291.261ZM299.894 100.253V88.7541H301.566V100.253H299.894ZM312.288 90.4261V91.4019C312.276 92.7258 312.276 94.7583 311.834 97.5739L310.181 97.4434C310.585 94.9261 310.616 93.0863 310.622 91.7749H304.227V90.4261H312.288ZM303.363 99.7431C304.345 99.7369 305.445 99.7244 306.588 99.6996V94.9323H308.235V99.6499C309.907 99.5815 311.623 99.4696 313.195 99.2769L313.289 100.526C310.007 101.055 306.346 101.123 303.549 101.11L303.363 99.7431ZM314.103 104.492V88.7417H315.775V95.2431H318.193V96.6664H315.775V104.492H314.103ZM334.764 88.7417V92.4586H337.045V93.8384H334.764V97.6423H333.092V88.7417H334.764ZM322.321 96.5297C326.081 95.5414 328.3 93.5587 328.611 91.0912H323.048V89.7362H330.419C330.407 93.7638 327.672 96.6043 322.986 97.8598L322.321 96.5297ZM324.67 104.28V98.3135H334.764V104.28H324.67ZM326.33 102.944H333.111V99.6872H326.33V102.944ZM350.533 88.7417V98.1146H348.867V94.1305H345.927V92.7569H348.867V88.7417H350.533ZM337.412 96.6975C339.848 95.8398 341.346 93.7141 341.346 91.5387V91.1906H337.928V89.8294H346.431V91.1906H343.037V91.5262C343.037 93.5214 344.46 95.4606 346.835 96.2624L345.983 97.5925C344.212 96.9772 342.913 95.7155 342.229 94.1616C341.539 95.9206 340.159 97.3315 338.276 98.0214L337.412 96.6975ZM339.935 101.527C339.923 99.6499 341.949 98.5559 345.256 98.5559C348.556 98.5559 350.576 99.6499 350.583 101.527C350.576 103.398 348.556 104.479 345.256 104.492C341.949 104.479 339.923 103.398 339.935 101.527ZM341.589 101.527C341.576 102.584 342.95 103.193 345.256 103.18C347.556 103.193 348.923 102.584 348.929 101.527C348.923 100.458 347.556 99.8488 345.256 99.8488C342.95 99.8488 341.576 100.458 341.589 101.527ZM363.176 90.5007V91.8432H358.471V94.6464H362.915V95.9703H358.471V99.2831C360.603 99.2707 362.008 99.2023 363.667 98.9164L363.816 100.296C361.97 100.626 360.441 100.694 357.924 100.694H356.88V90.5007H363.176ZM364.73 103.715V89.0463H366.327V94.9945H368.217V88.7417H369.82V104.492H368.217V96.3557H366.327V103.715H364.73ZM383.768 90.3453V92.0235C383.768 94.0684 383.768 96.2749 383.19 99.6436L381.493 99.4945C382.115 96.3308 382.115 94.0124 382.121 92.0235V91.7065H372.829V90.3453H383.768ZM371.294 102.26V100.881H385.651V102.26H371.294ZM400.699 95.9703V97.2507H386.285V95.9703H400.699ZM387.995 99.5566V98.3508H398.928V101.825H389.679V103.124H399.419V104.305H388.013V100.713H397.274V99.5566H387.995ZM388.094 90.3267V89.1519H398.884V92.558H389.791V93.7576H399.158V94.9323H388.138V91.4579H397.218V90.3267H388.094ZM419.539 97.0207V98.3508H405.15V97.0207H411.502V95.6533H407.027V89.1706H417.786V90.4945H408.706V91.7686H417.382V93.0117H408.706V94.3543H417.892V95.6533H413.174V97.0207H419.539ZM406.878 101.925C406.878 100.278 408.848 99.3702 412.342 99.3826C415.804 99.3702 417.774 100.278 417.786 101.925C417.774 103.59 415.804 104.467 412.342 104.467C408.848 104.467 406.878 103.59 406.878 101.925ZM408.556 101.925C408.544 102.782 409.862 103.211 412.342 103.199C414.803 103.211 416.108 102.782 416.121 101.925C416.108 101.079 414.803 100.632 412.342 100.632C409.862 100.632 408.544 101.079 408.556 101.925ZM427.974 91.3522V92.701H420.161V91.3522H423.256V89.2079H424.909V91.3522H427.974ZM420.67 97.2693C420.658 95.1499 422.1 93.6457 424.083 93.6457C426.072 93.6457 427.495 95.1499 427.507 97.2693C427.495 99.4199 426.072 100.93 424.083 100.93C422.1 100.93 420.658 99.4199 420.67 97.2693ZM422.137 97.2693C422.137 98.6057 422.945 99.5069 424.083 99.4945C425.214 99.5069 426.028 98.6057 426.028 97.2693C426.028 95.9579 425.214 95.0442 424.083 95.038C422.945 95.0442 422.137 95.9579 422.137 97.2693ZM428.707 103.752V89.096H430.279V95.3052H432.094V88.7417H433.686V104.492H432.094V96.6664H430.279V103.752H428.707ZM12.9593 117.754V122.403H15.2403V123.802H12.9593V129.334H11.2873V117.754H12.9593ZM1.18715 126.723V118.879H2.83425V121.409H6.96133V118.879H8.61464V126.723H1.18715ZM2.83425 125.393H6.96133V122.714H2.83425V125.393ZM2.97721 133.169V128.184H4.63674V131.801H13.6305V133.169H2.97721ZM28.7155 117.742V133.523H27.0622V126.934H23.9793V125.542H27.0622V122.633H24.0664V121.253H27.0622V117.742H28.7155ZM16.1354 120.489V119.134H23.1154V124.883H17.8385V128.501C20.0636 128.488 21.9469 128.395 24.1969 128.053L24.3398 129.433C21.8723 129.818 19.8585 129.893 17.3723 129.893H16.1851V123.559H21.4807V120.489H16.1354ZM48.8484 125.405V126.742H34.4721V125.405H40.8429V123.733H36.2621V118.469H47.077V119.787H37.9154V122.397H47.1703V123.733H42.4714V125.405H48.8484ZM36.1689 130.633C36.1689 128.805 38.22 127.773 41.6323 127.773C45.0259 127.773 47.0646 128.805 47.077 130.633C47.0646 132.454 45.0259 133.479 41.6323 133.492C38.22 133.479 36.1689 132.454 36.1689 130.633ZM37.8657 130.633C37.8533 131.64 39.2269 132.193 41.6323 132.18C44.0128 132.193 45.3989 131.64 45.4113 130.633C45.3989 129.632 44.0128 129.06 41.6323 129.06C39.2269 129.06 37.8533 129.632 37.8657 130.633ZM63.8464 124.262V125.592H57.4818V126.972H62.0253V130.664H52.8637V132.05H62.479V133.343H51.229V129.452H60.3844V128.246H51.198V126.972H55.8098V125.592H49.4887V124.262H63.8464ZM51.3223 123.099V118.245H61.9942V123.099H51.3223ZM52.9569 121.788H60.3285V119.563H52.9569V121.788ZM73.2754 119.426V120.402C73.2629 121.726 73.2629 123.758 72.8216 126.574L71.1683 126.443C71.5723 123.926 71.6034 122.086 71.6096 120.775H65.2139V119.426H73.2754ZM64.35 128.743C65.332 128.737 66.4321 128.724 67.5758 128.7V123.932H69.2229V128.65C70.8949 128.581 72.6103 128.47 74.1828 128.277L74.2761 129.526C70.9943 130.055 67.3334 130.123 64.5364 130.11L64.35 128.743ZM75.0903 133.492V117.742H76.7623V124.243H79.1801V125.666H76.7623V133.492H75.0903ZM95.7515 117.742V121.825H98.0326V123.242H95.7515V127.233H94.0796V117.742H95.7515ZM83.3952 120.682V119.333H87.2612V117.63H88.9207V119.333H92.7681V120.682H83.3952ZM84.2529 124.181C84.2467 122.497 85.7881 121.365 88.0878 121.365C90.3565 121.365 91.8979 122.497 91.9041 124.181C91.8979 125.884 90.3565 126.997 88.0878 127.003C85.7881 126.997 84.2467 125.884 84.2529 124.181ZM85.6825 133.293V128.059H95.7515V133.293H85.6825ZM85.8627 124.181C85.8503 125.151 86.7453 125.735 88.0878 125.741C89.418 125.735 90.313 125.151 90.3254 124.181C90.313 123.236 89.418 122.64 88.0878 122.64C86.7453 122.64 85.8503 123.236 85.8627 124.181ZM87.3233 131.938H94.0982V129.39H87.3233V131.938ZM102.284 119.613C102.278 123.131 101.837 126.785 99.6425 129.862L98.331 129.135C100.177 126.673 100.73 123.939 100.836 120.974H98.7164V119.613H102.284ZM101.874 130.073C103.906 127.326 104.285 124.026 104.354 120.974H102.775V119.613H105.796C105.79 120.943 105.758 122.378 105.591 123.839H107.437V118.146H109.015V132.727H107.437V125.2H105.392C105.044 127.158 104.385 129.104 103.167 130.819L101.874 130.073ZM110.414 133.492V117.742H112.017V133.492H110.414ZM119.004 128.153C118.991 129.514 119.669 130.95 121.098 131.826C122.54 130.875 123.224 129.346 123.236 128.153V127.195H124.871V128.153C124.871 129.775 125.94 131.385 128.029 132.056L127.165 133.299C125.617 132.752 124.573 131.695 124.026 130.403C123.522 131.664 122.578 132.839 121.117 133.442C119.625 132.876 118.674 131.758 118.183 130.465C117.618 131.702 116.573 132.752 115.094 133.299L114.274 132.056C116.294 131.347 117.381 129.682 117.388 128.153V127.195H119.004V128.153ZM113.646 122.323C113.646 120.135 115.393 118.568 117.761 118.568C119.041 118.568 120.16 119.047 120.899 119.849H124.871V117.742H126.537V126.68H124.871V124.734H120.943C120.203 125.561 119.066 126.052 117.761 126.052C115.393 126.052 113.646 124.51 113.646 122.323ZM115.25 122.323C115.237 123.715 116.306 124.647 117.761 124.653C119.19 124.647 120.253 123.715 120.259 122.323C120.253 120.93 119.19 119.973 117.761 119.973C116.306 119.973 115.237 120.93 115.25 122.323ZM121.683 121.198C121.794 121.546 121.857 121.925 121.857 122.323C121.857 122.695 121.801 123.044 121.707 123.373H124.871V121.198H121.683ZM136.581 118.985V120.346H131.006V125.629C133.641 125.623 135.4 125.53 137.414 125.138L137.588 126.499C135.4 126.885 133.504 126.99 130.565 126.99H129.346V118.985H136.581ZM131.292 133.249V128.339H132.976V131.888H141.964V133.249H131.292ZM135.593 123.379V122.043H139.888V117.754H141.554V129.234H139.888V123.379H135.593ZM159.772 119.345V121.023C159.772 123.068 159.772 125.275 159.194 128.644L157.497 128.494C158.119 125.331 158.119 123.012 158.125 121.023V120.706H148.833V119.345H159.772ZM147.298 131.26V129.881H161.655V131.26H147.298ZM174.689 117.742V120.912H176.97V122.304H174.689V125.642H173.017V117.742H174.689ZM163.029 124.977V118.438H164.707V123.572C166.82 123.566 169.046 123.392 171.47 122.913L171.675 124.293C169.021 124.834 166.64 124.977 164.316 124.977H163.029ZM164.502 127.68V126.356H174.689V130.372H166.199V131.938H175.224V133.293H164.539V129.085H173.011V127.68H164.502ZM182.459 118.86C184.951 118.86 186.735 120.402 186.747 122.615C186.735 124.834 184.951 126.369 182.459 126.369C179.979 126.369 178.158 124.834 178.17 122.615C178.158 120.402 179.979 118.86 182.459 118.86ZM177.412 128.743C180.283 128.749 184.255 128.718 187.698 128.221L187.829 129.439C184.261 130.117 180.432 130.135 177.617 130.135L177.412 128.743ZM179.817 122.615C179.805 124.007 180.93 124.921 182.459 124.921C183.988 124.921 185.113 124.007 185.119 122.615C185.113 121.229 183.988 120.309 182.459 120.309C180.93 120.309 179.805 121.229 179.817 122.615ZM188.687 133.523V117.742H190.352V133.523H188.687ZM210.56 127.233V128.613H204.189V133.517H202.548V128.613H196.202V127.233H210.56ZM197.041 124.815C200.031 124.436 202.436 122.764 202.542 120.992H197.557V119.65H202.548V117.742H204.189V119.65H209.192V120.992H204.214C204.307 122.751 206.688 124.436 209.69 124.815L209.081 126.145C206.551 125.797 204.4 124.61 203.381 123C202.355 124.628 200.186 125.791 197.65 126.145L197.041 124.815ZM224.346 127.867V133.517H222.68V129.197H213.668V127.867H224.346ZM211.449 122.416C211.436 120.197 213.201 118.612 215.57 118.624C217.658 118.612 219.28 119.874 219.61 121.726H222.68V117.742H224.346V127.028H222.68V123.112H219.61C219.28 124.983 217.658 126.244 215.57 126.238C213.201 126.244 211.436 124.666 211.449 122.416ZM213.034 122.416C213.034 123.864 214.121 124.821 215.57 124.821C216.993 124.821 218.074 123.864 218.074 122.416C218.074 121.011 216.993 120.035 215.57 120.035C214.121 120.035 213.034 121.011 213.034 122.416ZM233.402 118.003C236.951 118.003 239.021 118.96 239.021 120.706C239.021 122.478 236.951 123.435 233.402 123.448C229.853 123.435 227.771 122.478 227.771 120.706C227.771 118.96 229.853 118.003 233.402 118.003ZM226.235 125.741V124.405H240.593V125.741H226.235ZM227.945 128.202V126.953H238.772V130.639H229.61V132.05H239.226V133.343H227.976V129.439H237.131V128.202H227.945ZM229.517 120.706C229.505 121.689 230.897 122.192 233.402 122.192C235.925 122.192 237.311 121.689 237.311 120.706C237.311 119.787 235.925 119.24 233.402 119.246C230.897 119.24 229.505 119.787 229.517 120.706ZM258.196 117.742V133.492H256.518V117.742H258.196ZM245.256 129.271C249.445 127.282 251.484 124.442 251.813 120.769H246.02V119.439H253.516C253.504 124.044 251.546 128.041 246.138 130.62L245.256 129.271ZM274.512 126.338V127.699H260.098V126.338H266.488V124.846H261.951V120.837H271.031V119.432H261.907V118.108H272.697V122.074H263.604V123.535H273.02V124.846H268.129V126.338H274.512ZM261.714 130.135V128.793H272.784V133.367H271.106V130.135H261.714ZM282.915 120.352V121.701H275.103V120.352H278.198V118.208H279.851V120.352H282.915ZM275.612 126.269C275.6 124.15 277.042 122.646 279.024 122.646C281.013 122.646 282.437 124.15 282.449 126.269C282.437 128.42 281.013 129.93 279.024 129.93C277.042 129.93 275.6 128.42 275.612 126.269ZM277.079 126.269C277.079 127.606 277.887 128.507 279.024 128.494C280.156 128.507 280.97 127.606 280.97 126.269C280.97 124.958 280.156 124.044 279.024 124.038C277.887 124.044 277.079 124.958 277.079 126.269ZM283.649 132.752V118.096H285.221V124.305H287.036V117.742H288.627V133.492H287.036V125.666H285.221V132.752H283.649ZM308.425 130.16V131.54H294.011V130.16H300.351V126.928H295.652V118.817H297.324V121.533H305.056V118.817H306.715V126.928H302.004V130.16H308.425ZM297.324 125.573H305.056V122.876H297.324V125.573ZM313.826 122.043C313.826 124.566 314.876 127.245 316.99 128.532L316.051 129.825C314.578 128.936 313.584 127.357 313.043 125.536C312.465 127.531 311.383 129.234 309.854 130.166L308.81 128.923C311.041 127.593 312.21 124.802 312.21 122.117V119.177H313.826V122.043ZM315.274 124.666V123.28H317.729V118.046H319.302V132.715H317.729V124.666H315.274ZM320.968 133.492V117.742H322.571V133.492H320.968ZM338.458 130.148V131.528H324.044V130.148H327.494V126.027C326.195 125.318 325.405 124.187 325.405 122.776C325.405 120.296 327.836 118.668 331.211 118.655C334.598 118.668 337.035 120.296 337.035 122.776C337.035 124.169 336.27 125.281 335.002 125.996V130.148H338.458ZM327.028 122.776C327.028 124.461 328.743 125.561 331.211 125.561C333.666 125.561 335.406 124.461 335.406 122.776C335.406 121.073 333.666 119.992 331.211 120.004C328.743 119.992 327.028 121.073 327.028 122.776ZM329.135 130.148H333.318V126.636C332.671 126.785 331.963 126.866 331.211 126.866C330.465 126.866 329.769 126.785 329.135 126.642V130.148ZM340.851 132.118C340.161 132.118 339.589 131.559 339.602 130.875C339.589 130.191 340.161 129.632 340.851 129.632C341.522 129.632 342.094 130.191 342.094 130.875C342.094 131.559 341.522 132.118 340.851 132.118ZM359.286 117.742V121.825H361.567V123.242H359.286V127.233H357.614V117.742H359.286ZM346.929 120.682V119.333H350.795V117.63H352.455V119.333H356.302V120.682H346.929ZM347.787 124.181C347.781 122.497 349.322 121.365 351.622 121.365C353.891 121.365 355.432 122.497 355.438 124.181C355.432 125.884 353.891 126.997 351.622 127.003C349.322 126.997 347.781 125.884 347.787 124.181ZM349.217 133.293V128.059H359.286V133.293H349.217ZM349.397 124.181C349.384 125.151 350.279 125.735 351.622 125.741C352.952 125.735 353.847 125.151 353.859 124.181C353.847 123.236 352.952 122.64 351.622 122.64C350.279 122.64 349.384 123.236 349.397 124.181ZM350.857 131.938H357.632V129.39H350.857V131.938ZM365.818 119.613C365.812 123.131 365.371 126.785 363.177 129.862L361.865 129.135C363.711 126.673 364.264 123.939 364.37 120.974H362.25V119.613H365.818ZM365.408 130.073C367.44 127.326 367.819 124.026 367.888 120.974H366.309V119.613H369.33C369.324 120.943 369.293 122.378 369.125 123.839H370.971V118.146H372.549V132.727H370.971V125.2H368.926C368.578 127.158 367.919 129.104 366.701 130.819L365.408 130.073ZM373.948 133.492V117.742H375.552V133.492H373.948ZM395.51 123.926V125.306H393.068V133.473H391.396V117.742H393.068V123.926H395.51ZM381.395 129.526V119.277H383.055V128.14C385.255 128.122 387.542 127.935 390.035 127.425L390.227 128.836C387.536 129.371 385.056 129.526 382.688 129.526H381.395ZM408.588 122.925V124.274H397.642V118.512H399.308V122.925H408.588ZM395.815 127.842V126.462H410.229V127.842H403.777V133.492H402.118V127.842H395.815ZM423.573 119.258V120.8C423.567 122.751 423.567 124.927 422.97 128.159L421.292 127.972C421.895 124.927 421.895 122.695 421.908 120.8V120.613H412.342V119.258H423.573ZM410.832 131.366V129.986H416.289V124.43H417.942V129.986H425.189V131.366H410.832ZM442.768 117.754V126.493H441.096V117.754H442.768ZM429.753 124.883C432.214 124.075 433.718 122.03 433.718 119.855V118.32H435.427V119.855C435.415 121.937 436.931 123.858 439.355 124.604L438.541 125.921C436.695 125.325 435.309 124.088 434.588 122.49C433.88 124.206 432.469 125.567 430.579 126.207L429.753 124.883ZM432.052 133.293V131.938H434.296V128.7H432.201V127.357H442.861V128.7H440.785V131.938H443.016V133.293H432.052ZM435.949 131.938H439.132V128.7H435.949V131.938ZM459.077 125.965V127.301H444.719V125.965H459.077ZM446.255 121.421C446.255 119.445 448.461 118.258 451.886 118.27C455.298 118.258 457.505 119.445 457.505 121.421C457.505 123.41 455.298 124.61 451.886 124.61C448.461 124.61 446.255 123.41 446.255 121.421ZM446.528 133.169V128.581H448.206V131.801H457.461V133.169H446.528ZM447.989 121.421C447.976 122.584 449.474 123.249 451.886 123.249C454.298 123.249 455.795 122.584 455.795 121.421C455.795 120.29 454.298 119.606 451.886 119.606C449.474 119.606 447.976 120.29 447.989 121.421ZM476.68 117.742V133.492H475.002V117.742H476.68ZM463.74 129.271C467.929 127.282 469.968 124.442 470.297 120.769H464.504V119.439H472C471.988 124.044 470.03 128.041 464.622 130.62L463.74 129.271ZM491.734 127.867V133.517H490.069V129.197H481.056V127.867H491.734ZM478.837 122.416C478.825 120.197 480.59 118.612 482.958 118.624C485.047 118.612 486.669 119.874 486.998 121.726H490.069V117.742H491.734V127.028H490.069V123.112H486.998C486.669 124.983 485.047 126.244 482.958 126.238C480.59 126.244 478.825 124.666 478.837 122.416ZM480.422 122.416C480.422 123.864 481.51 124.821 482.958 124.821C484.381 124.821 485.463 123.864 485.463 122.416C485.463 121.011 484.381 120.035 482.958 120.035C481.51 120.035 480.422 121.011 480.422 122.416ZM506.67 117.742V133.523H504.992V117.742H506.67ZM494.165 124.448C494.165 121.073 495.861 118.929 498.236 118.923C500.585 118.929 502.301 121.073 502.301 124.448C502.301 127.842 500.585 129.986 498.236 129.986C495.861 129.986 494.165 127.842 494.165 124.448ZM495.774 124.448C495.774 126.947 496.781 128.488 498.236 128.488C499.69 128.488 500.685 126.947 500.685 124.448C500.685 121.968 499.69 120.427 498.236 120.414C496.781 120.427 495.774 121.968 495.774 124.448ZM517.952 128.146C517.952 129.501 518.63 130.931 520.053 131.789C521.495 130.856 522.21 129.352 522.21 128.146V127.394H523.851V128.146C523.838 129.787 524.92 131.366 526.971 132.044L526.144 133.262C524.59 132.727 523.534 131.677 522.987 130.384C522.49 131.646 521.545 132.808 520.103 133.405C518.586 132.839 517.629 131.727 517.144 130.434C516.579 131.677 515.534 132.721 514.049 133.262L513.216 132.044C515.236 131.31 516.33 129.675 516.342 128.146V127.394H517.952V128.146ZM512.812 122.347C512.812 120.147 514.59 118.631 517.008 118.631C519.419 118.631 521.191 120.147 521.191 122.347C521.191 124.529 519.419 126.046 517.008 126.046C514.59 126.046 512.812 124.529 512.812 122.347ZM514.447 122.347C514.434 123.721 515.51 124.653 517.008 124.66C518.487 124.653 519.556 123.721 519.556 122.347C519.556 120.968 518.487 120.035 517.008 120.048C515.51 120.035 514.434 120.968 514.447 122.347ZM523.888 126.717V117.754H525.56V126.717H523.888ZM539.781 117.742V123.839H542.305V125.225H539.781V133.523H538.109V117.742H539.781ZM528.177 129.613V119.258H535.542V120.613H529.843V128.221C532.484 128.209 534.467 128.097 536.723 127.686L536.922 129.11C534.461 129.539 532.366 129.619 529.445 129.613H528.177ZM550.553 119.084V120.421H553.99V117.754H555.655V129.234H553.99V125.157H550.553V126.543H543.237V119.084H550.553ZM544.89 125.219H548.918V120.433H544.89V125.219ZM545.369 133.169V128.19H547.053V131.801H556.01V133.169H545.369ZM550.553 123.802H553.99V121.794H550.553V123.802ZM560.373 130.769L558.962 135.63H557.47L558.409 130.769H560.373ZM7.68854 156.643C11.0946 156.643 13.2452 157.718 13.2576 159.564C13.2452 161.392 11.0946 162.467 7.68854 162.467C4.30732 162.467 2.14434 161.392 2.14434 159.564C2.14434 157.718 4.30732 156.643 7.68854 156.643ZM0.602901 155.338V153.983H6.34599V151.03H7.98688V153.983H14.9233V155.338H0.602901ZM2.27486 148.855V147.512H13.1395V148.836C13.1395 150.092 13.1395 151.397 12.6982 153.019L11.0573 152.852C11.48 151.229 11.48 150.079 11.48 148.855H2.27486ZM3.81008 159.564C3.79765 160.577 5.3018 161.168 7.68854 161.168C10.0877 161.168 11.5856 160.577 11.5981 159.564C11.5856 158.526 10.0877 157.911 7.68854 157.905C5.3018 157.911 3.79765 158.526 3.81008 159.564ZM29.9897 155.642V157.01H26.3412V162.492H24.6506V157.01H20.884V162.492H19.1686V157.01H15.576V155.642H29.9897ZM17.1485 150.819C17.1485 148.693 19.4172 147.345 22.7487 147.332C26.0802 147.345 28.3675 148.693 28.3675 150.819C28.3675 152.92 26.0802 154.25 22.7487 154.238C19.4172 154.25 17.1485 152.92 17.1485 150.819ZM18.864 150.819C18.8516 152.112 20.4117 152.907 22.7487 152.914C25.0919 152.907 26.6458 152.112 26.6458 150.819C26.6458 149.495 25.0919 148.687 22.7487 148.687C20.4117 148.687 18.8516 149.495 18.864 150.819ZM44.0367 146.754V154.959H42.458V151.478H40.6182V154.785H39.0644V147.046H40.6182V150.117H42.458V146.754H44.0367ZM30.7543 150.956C30.7418 148.861 32.2398 147.481 34.3592 147.494C36.4663 147.481 37.9767 148.861 37.9767 150.956C37.9767 153.001 36.4663 154.43 34.3592 154.424C32.2398 154.43 30.7418 153.001 30.7543 150.956ZM32.2522 150.956C32.2398 152.224 33.1348 153.081 34.3592 153.094C35.565 153.081 36.4539 152.224 36.4601 150.956C36.4539 149.669 35.565 148.787 34.3592 148.787C33.1348 148.787 32.2398 149.669 32.2522 150.956ZM33.4767 156.935V155.599H44.0367V159.483H35.1797V160.956H44.6396V162.293H33.5077V158.222H42.3834V156.935H33.4767ZM48.052 147.637V150.011H51.9988V147.637H53.6521V150.651H57.0955V146.742H58.7612V155.872H57.0955V152.031H53.6521V155.064H46.38V147.637H48.052ZM48.052 153.715H51.9988V151.329H48.052V153.715ZM48.3628 162.293V156.606H58.7612V162.293H48.3628ZM50.0347 160.938H57.1266V157.936H50.0347V160.938ZM67.8173 147.003C71.3663 147.003 73.436 147.96 73.436 149.706C73.436 151.478 71.3663 152.435 67.8173 152.448C64.2682 152.435 62.186 151.478 62.186 149.706C62.186 147.96 64.2682 147.003 67.8173 147.003ZM60.6508 154.741V153.405H75.0086V154.741H60.6508ZM62.3601 157.202V155.953H73.1874V159.639H64.0258V161.05H73.6411V162.343H62.3911V158.439H71.5465V157.202H62.3601ZM63.9326 149.706C63.9202 150.689 65.3124 151.192 67.8173 151.192C70.3407 151.192 71.7268 150.689 71.7268 149.706C71.7268 148.787 70.3407 148.24 67.8173 148.246C65.3124 148.24 63.9202 148.787 63.9326 149.706ZM93.8797 155.021V156.351H79.4909V155.021H85.8431V153.653H81.368V147.171H92.127V148.494H83.0462V149.769H91.723V151.012H83.0462V152.354H92.2326V153.653H87.5151V155.021H93.8797ZM81.2188 159.925C81.2188 158.278 83.1891 157.37 86.6822 157.383C90.1442 157.37 92.1145 158.278 92.127 159.925C92.1145 161.59 90.1442 162.467 86.6822 162.467C83.1891 162.467 81.2188 161.59 81.2188 159.925ZM82.897 159.925C82.8846 160.782 84.2022 161.211 86.6822 161.199C89.1435 161.211 90.4488 160.782 90.4612 159.925C90.4488 159.079 89.1435 158.632 86.6822 158.632C84.2022 158.632 82.8846 159.079 82.897 159.925ZM102.314 149.352V150.701H94.5013V149.352H97.5966V147.208H99.25V149.352H102.314ZM95.011 155.269C94.9986 153.15 96.4406 151.646 98.4233 151.646C100.412 151.646 101.836 153.15 101.848 155.269C101.836 157.42 100.412 158.93 98.4233 158.93C96.4406 158.93 94.9986 157.42 95.011 155.269ZM96.4779 155.269C96.4779 156.606 97.2859 157.507 98.4233 157.494C99.5545 157.507 100.369 156.606 100.369 155.269C100.369 153.958 99.5545 153.044 98.4233 153.038C97.2859 153.044 96.4779 153.958 96.4779 155.269ZM103.048 161.752V147.096H104.62V153.305H106.435V146.742H108.026V162.492H106.435V154.666H104.62V161.752H103.048ZM125.785 146.742V150.459H128.066V151.838H125.785V155.642H124.113V146.742H125.785ZM113.341 154.53C117.102 153.541 119.321 151.559 119.631 149.091H114.069V147.736H121.44C121.428 151.764 118.693 154.604 114.006 155.86L113.341 154.53ZM115.691 162.28V156.314H125.785V162.28H115.691ZM117.35 160.944H124.131V157.687H117.35V160.944ZM141.554 146.742V156.115H139.888V152.131H136.948V150.757H139.888V146.742H141.554ZM128.433 154.698C130.869 153.84 132.367 151.714 132.367 149.539V149.191H128.949V147.829H137.451V149.191H134.058V149.526C134.058 151.521 135.481 153.461 137.855 154.262L137.004 155.593C135.232 154.977 133.933 153.715 133.25 152.162C132.56 153.921 131.18 155.331 129.297 156.021L128.433 154.698ZM130.956 159.527C130.944 157.65 132.97 156.556 136.277 156.556C139.577 156.556 141.597 157.65 141.603 159.527C141.597 161.398 139.577 162.479 136.277 162.492C132.97 162.479 130.944 161.398 130.956 159.527ZM132.609 159.527C132.597 160.584 133.971 161.193 136.277 161.18C138.576 161.193 139.944 160.584 139.95 159.527C139.944 158.458 138.576 157.849 136.277 157.849C133.971 157.849 132.597 158.458 132.609 159.527ZM150.61 147.003C154.159 147.003 156.228 147.96 156.228 149.706C156.228 151.478 154.159 152.435 150.61 152.448C147.06 152.435 144.978 151.478 144.978 149.706C144.978 147.96 147.06 147.003 150.61 147.003ZM143.443 154.741V153.405H157.801V154.741H143.443ZM145.152 157.202V155.953H155.98V159.639H146.818V161.05H156.433V162.343H145.183V158.439H154.339V157.202H145.152ZM146.725 149.706C146.712 150.689 148.105 151.192 150.61 151.192C153.133 151.192 154.519 150.689 154.519 149.706C154.519 148.787 153.133 148.24 150.61 148.246C148.105 148.24 146.712 148.787 146.725 149.706ZM169.419 156.643C172.825 156.643 174.975 157.718 174.988 159.564C174.975 161.392 172.825 162.467 169.419 162.467C166.037 162.467 163.874 161.392 163.874 159.564C163.874 157.718 166.037 156.643 169.419 156.643ZM162.333 155.338V153.983H168.076V151.03H169.717V153.983H176.653V155.338H162.333ZM164.005 148.855V147.512H174.869V148.836C174.869 150.092 174.869 151.397 174.428 153.019L172.787 152.852C173.21 151.229 173.21 150.079 173.21 148.855H164.005ZM165.54 159.564C165.528 160.577 167.032 161.168 169.419 161.168C171.818 161.168 173.316 160.577 173.328 159.564C173.316 158.526 171.818 157.911 169.419 157.905C167.032 157.911 165.528 158.526 165.54 159.564ZM191.72 155.642V157.01H188.071V162.492H186.381V157.01H182.614V162.492H180.899V157.01H177.306V155.642H191.72ZM178.879 150.819C178.879 148.693 181.147 147.345 184.479 147.332C187.81 147.345 190.097 148.693 190.097 150.819C190.097 152.92 187.81 154.25 184.479 154.238C181.147 154.25 178.879 152.92 178.879 150.819ZM180.594 150.819C180.582 152.112 182.142 152.907 184.479 152.914C186.822 152.907 188.376 152.112 188.376 150.819C188.376 149.495 186.822 148.687 184.479 148.687C182.142 148.687 180.582 149.495 180.594 150.819ZM200.123 149.352V150.701H192.31V149.352H195.406V147.208H197.059V149.352H200.123ZM192.82 155.269C192.807 153.15 194.249 151.646 196.232 151.646C198.221 151.646 199.644 153.15 199.657 155.269C199.644 157.42 198.221 158.93 196.232 158.93C194.249 158.93 192.807 157.42 192.82 155.269ZM194.287 155.269C194.287 156.606 195.095 157.507 196.232 157.494C197.363 157.507 198.178 156.606 198.178 155.269C198.178 153.958 197.363 153.044 196.232 153.038C195.095 153.044 194.287 153.958 194.287 155.269ZM200.857 161.752V147.096H202.429V153.305H204.244V146.742H205.835V162.492H204.244V154.666H202.429V161.752H200.857ZM221.778 159.16V160.54H207.364V159.16H213.704V155.928H209.005V147.817H210.677V150.533H218.409V147.817H220.069V155.928H215.357V159.16H221.778ZM210.677 154.573H218.409V151.876H210.677V154.573ZM227.179 151.043C227.179 153.566 228.23 156.245 230.343 157.532L229.404 158.825C227.931 157.936 226.937 156.357 226.396 154.536C225.818 156.531 224.736 158.234 223.207 159.166L222.163 157.923C224.395 156.593 225.563 153.802 225.563 151.117V148.177H227.179V151.043ZM228.627 153.666V152.28H231.082V147.046H232.655V161.715H231.082V153.666H228.627ZM234.321 162.492V146.742H235.924V162.492H234.321ZM251.811 159.148V160.528H237.397V159.148H240.847V155.027C239.548 154.318 238.759 153.187 238.759 151.776C238.759 149.296 241.189 147.668 244.564 147.655C247.951 147.668 250.388 149.296 250.388 151.776C250.388 153.169 249.623 154.281 248.355 154.996V159.148H251.811ZM240.381 151.776C240.381 153.461 242.096 154.561 244.564 154.561C247.019 154.561 248.759 153.461 248.759 151.776C248.759 150.073 247.019 148.992 244.564 149.004C242.096 148.992 240.381 150.073 240.381 151.776ZM242.488 159.148H246.671V155.636C246.025 155.785 245.316 155.866 244.564 155.866C243.818 155.866 243.122 155.785 242.488 155.642V159.148ZM254.204 161.118C253.514 161.118 252.942 160.559 252.955 159.875C252.942 159.191 253.514 158.632 254.204 158.632C254.875 158.632 255.447 159.191 255.447 159.875C255.447 160.559 254.875 161.118 254.204 161.118Z" fill="#666666"/>
</svg>
