<svg width="204" height="53" viewBox="0 0 204 53" fill="none" xmlns="http://www.w3.org/2000/svg">
<path d="M33.991 18.6112H31.7535V23.5711H27.384V25.3798H31.7535V34.6595H33.991V18.6112ZM21.299 30.8867H22.6478C25.047 30.893 27.5021 30.7624 30.0877 30.2217L29.8515 28.3881C27.6761 28.8108 25.5877 28.9786 23.5552 29.0159V20.3329H21.299V30.8867ZM40.6665 19.6865C38.1492 19.6865 36.2224 21.3211 36.2287 23.6146C36.2224 25.9144 38.1492 27.5428 40.6665 27.5428C43.2148 27.5428 45.0981 25.9144 45.1106 23.6146C45.0981 21.3211 43.2148 19.6865 40.6665 19.6865ZM35.5636 29.5628L35.8184 31.384C38.6216 31.384 42.4193 31.3529 45.9621 30.663L45.7943 29.047C42.3695 29.5256 38.4165 29.5628 35.5636 29.5628ZM38.4538 23.6146C38.4538 22.3653 39.4048 21.6257 40.6665 21.6257C41.9531 21.6257 42.9165 22.3653 42.9227 23.6146C42.9165 24.8826 41.9469 25.6036 40.6665 25.6036C39.411 25.6036 38.4538 24.8826 38.4538 23.6146ZM46.7017 34.6595H48.9331V18.6112H46.7017V34.6595ZM59.2916 19.6865C56.7743 19.6865 54.8475 21.3211 54.8537 23.6146C54.8475 25.9144 56.7743 27.5428 59.2916 27.5428C61.8399 27.5428 63.7232 25.9144 63.7356 23.6146C63.7232 21.3211 61.8399 19.6865 59.2916 19.6865ZM54.1887 29.5628L54.4435 31.384C57.2467 31.384 61.0443 31.3529 64.5872 30.663L64.4193 29.047C60.9946 29.5256 57.0416 29.5628 54.1887 29.5628ZM57.0789 23.6146C57.0789 22.3653 58.0298 21.6257 59.2916 21.6257C60.5782 21.6257 61.5416 22.3653 61.5478 23.6146C61.5416 24.8826 60.572 25.6036 59.2916 25.6036C58.0361 25.6036 57.0789 24.8826 57.0789 23.6146ZM65.3268 34.6595H67.5582V18.6112H65.3268V34.6595ZM77.6584 20.0718H69.9325V30.8059H77.6584V20.0718ZM72.1639 29.0283V21.8184H75.4829V29.0283H72.1639ZM80.2564 34.6595H82.5251V18.6112H80.2564V34.6595ZM102.393 30.9365H96.1529V27.9717H100.771V19.6367H98.5334V22.1291H91.5597V19.6367H89.3097V27.9717H93.934V30.9365H87.762V32.7576H102.393V30.9365ZM91.5597 26.1816V23.9068H98.5334V26.1816H91.5597ZM116.254 18.6112H114.022V24.3854H111.449V26.2189H114.022V34.6595H116.254V18.6112ZM103.301 21.7686H108.36V24.1678H103.338V30.9302H104.656C107.335 30.9302 109.51 30.8432 111.884 30.4454L111.704 28.6243C109.641 28.9786 107.776 29.0594 105.576 29.078V25.9517H110.554V19.9599H103.301V21.7686ZM130.413 18.6112H128.169V34.5849H130.413V26.5981H132.675V24.7459H130.413V18.6112ZM117.621 30.1036L118.883 31.8191C124.259 29.1775 126.13 25.038 126.143 20.2521H118.523V22.0856H123.855C123.433 25.6533 121.4 28.2017 117.621 30.1036ZM146.25 18.6112H143.981V34.6222H146.25V18.6112ZM132.862 30.0912L134.03 31.875C139.748 29.1775 141.451 25.1436 141.458 20.2956H133.719V22.0546H139.17C138.81 25.6098 136.989 28.1333 132.862 30.0912Z" fill="#FF8A33"/>
<path d="M170.552 19L178 26M178 26L170.552 33M178 26H161" stroke="#FF8A33" stroke-width="2" stroke-linecap="round" stroke-linejoin="round"/>
<rect x="0.5" y="0.5" width="203" height="52" rx="7.5" stroke="#FF8A33"/>
</svg>
