<svg width="566" height="169" viewBox="0 0 566 169" fill="none" xmlns="http://www.w3.org/2000/svg">
<path d="M21.2707 21.4282V25.4061H14.1713C14.1989 29.5497 16.7127 33.5552 22.3757 35.2403L20.0138 39.1354C16.0635 37.9475 13.3425 35.558 11.768 32.5193C10.1934 36.0829 7.30663 38.9282 3.05249 40.3232L0.524862 36.3867C6.40884 34.5221 9.0884 29.9227 9.14365 25.4061H1.87845V21.4282H21.2707ZM5.42818 47.6851C5.41436 43.3481 10.0829 40.8204 17.5967 40.8343C25.0138 40.8204 29.5994 43.3481 29.5994 47.6851C29.5994 52.0221 25.0138 54.605 17.5967 54.5912C10.0829 54.605 5.41436 52.0221 5.42818 47.6851ZM10.4144 47.6851C10.4006 49.7155 12.942 50.7238 17.5967 50.7099C22.2238 50.7238 24.6823 49.7155 24.6823 47.6851C24.6823 45.6823 22.2238 44.7017 17.5967 44.7155C12.942 44.7017 10.4006 45.6823 10.4144 47.6851ZM24.268 40.1436V19.0249H29.268V27.2983H34.047V31.3591H29.268V40.1436H24.268ZM46.7554 22.5055V36.1243H39.4211V42.4227C42.2941 42.3536 45.1117 42.1326 48.3576 41.6215L48.7305 45.6409C44.4902 46.3867 40.9957 46.5387 36.9488 46.5525H34.6283V32.2155H41.9073V26.4834H34.5869V22.5055H46.7554ZM48.4129 40.6271V36.6077H52.2803V31.7873H48.4129V27.8094H52.2803V19.6326H56.9902V52.8646H52.2803V40.6271H48.4129ZM59.6421 54.605V19.0249H64.3521V54.605H59.6421ZM103.381 19.0249V40.1575H98.4091V31.7597H92.8566V27.6989H98.4091V19.0249H103.381ZM73.1881 36.221C78.9892 34.2873 81.655 29.6602 81.7655 25.1989H74.6384V21.1934H93.9201V25.1989H86.8345C86.9588 29.3287 89.5003 33.5 95.0113 35.3232L92.5527 39.2459C88.6301 37.9613 85.9367 35.3923 84.376 32.2017C82.829 35.8204 79.9837 38.721 75.771 40.1713L73.1881 36.221ZM79.0168 47.7956C79.003 43.4862 83.6577 40.9448 91.2268 40.9448C98.8235 40.9448 103.464 43.4862 103.478 47.7956C103.464 52.105 98.8235 54.6326 91.2268 54.6464C83.6577 54.6326 79.003 52.105 79.0168 47.7956ZM83.9754 47.7956C83.9616 49.826 86.5168 50.8481 91.2268 50.8343C95.9505 50.8481 98.5196 49.826 98.5334 47.7956C98.5196 45.7514 95.9505 44.7293 91.2268 44.7293C86.5168 44.7293 83.9616 45.7514 83.9754 47.7956ZM138.507 46.4144V50.4613H105.993V46.4144H119.709V39.826H109.432V21.3039H114.432V26.8425H129.93V21.3039H134.902V39.826H124.64V46.4144H138.507ZM114.432 35.8481H129.93V30.7928H114.432V35.8481Z" fill="#FF8A33"/>
<path d="M159.235 27.0912C159.222 33.7762 161.915 40.2818 167.826 42.837L164.815 46.8011C160.851 44.895 158.199 41.3591 156.722 36.9669C155.188 41.6215 152.454 45.4475 148.393 47.4503L145.271 43.4033C151.349 40.6409 154.139 33.7762 154.166 27.0912V21.7735H159.235V27.0912ZM163.876 34.2459V30.2265H170.838V19.0249H175.768V54.6878H170.838V34.2459H163.876ZM208.104 19.0249V54.6878H203.063V19.0249H208.104ZM180.121 46.3591V21.884H185.107V30.5166H192.772V21.884H197.676V46.3591H180.121ZM185.107 42.3122H192.772V34.3978H185.107V42.3122ZM229.625 23.721C229.611 28.942 234.224 34.5083 242.277 35.8757L240.08 40.0193C233.879 38.7901 229.279 35.2956 226.986 30.7376C224.652 35.268 220.039 38.7762 213.879 40.0193L211.738 35.8757C219.638 34.4669 224.279 28.8867 224.307 23.721V21.1657H229.625V23.721ZM210.923 50.2403V46.1381H243.437V50.2403H210.923Z" fill="#1C1A19"/>
<path fill-rule="evenodd" clip-rule="evenodd" d="M273.649 15.053C272.443 15.8098 272.467 16.1882 273.98 19.0028C275.754 22.2904 275.707 21.9356 276.866 20.7767L276.369 19.2866C274.997 15.2185 275.47 13.9413 273.649 15.053ZM297.987 15.0766C296.662 15.3841 296.237 15.9517 296.426 17.1343C296.591 18.2933 296.426 18.3642 294.865 17.9148C293.73 17.5837 291.956 17.5837 291.341 17.9148C290.631 18.2932 290.962 18.6243 292.05 18.6243C295.669 18.6243 298.602 21.2261 299.926 25.2232C301.984 31.4909 299.855 34.8258 299.855 34.8494L296.473 41.7321L295.432 40.3366C294.297 38.8229 293.446 38.3972 292.831 39.0121C292.5 39.3432 292.547 39.4851 293.375 40.4785C295.385 42.891 295.598 43.2457 295.598 44.2391C295.598 44.8067 295.882 45.8001 296.308 46.6989C297.821 49.8919 297.514 51.3582 295.007 52.9192C288.834 56.7508 264.283 36.5523 269.321 31.7747C269.865 31.2543 270.409 31.0651 272.159 30.7813C274.879 30.3319 276.393 29.4805 276.771 29.3386C276.913 29.3859 282.448 31.0888 285.144 33.6668C286.137 34.6129 287.769 34.8021 287.769 33.9506C287.769 33.2411 282.093 29.8589 279.444 28.9838C277.528 28.3452 277.528 28.6054 279.278 26.2875C282.992 21.2734 285.617 19.0501 287.769 19.0501C288.644 19.0501 288.715 18.648 287.888 18.3405C286.279 17.7256 283.89 18.4351 281.809 20.1854C280.485 21.2733 279.68 22.1721 275.967 26.524C274.099 28.7236 272.963 29.4568 271.45 29.4805C264.449 29.5751 265.608 37.7349 273.649 44.9014C277.623 48.4255 283.417 52.6118 285.12 53.1558C285.593 53.3213 286.421 53.6761 286.942 53.9836C290.135 55.8047 293.611 55.923 296 54.5749C300.234 52.1624 298.318 49.135 298.271 45.4454C298.247 43.2221 299.028 41.4955 301.818 35.5353C304.018 30.8522 304.018 26.1692 301.818 22.9526C301.109 21.9119 301.298 21.6281 302.835 21.368C305.366 20.9186 305.39 19.3103 302.906 16.6613C301.724 15.3605 299.642 14.6982 297.987 15.0766ZM301.984 17.7729C302.93 19.0265 301.96 19.7596 300.943 20.2327C299.524 20.9186 297.585 19.3576 298.673 18.3642C299.004 18.0567 299.193 17.5837 299.098 17.1816C298.886 16.3302 301.085 16.5667 301.984 17.7729ZM266.554 19.3339C266.057 19.5231 265.277 20.4455 265.277 20.824C265.277 20.9186 265.726 21.2024 266.27 21.4389C266.814 21.6754 268.257 22.4086 269.463 23.0945C271.781 24.3954 272.443 24.5373 272.798 23.9223C272.987 23.5912 272.609 23.2364 270.622 21.8173C269.297 20.8712 268.091 19.8779 267.926 19.6178C267.642 19.0501 267.358 19.0028 266.554 19.3339ZM264.047 26.9498C262.817 28.0614 263.03 28.1796 266.199 28.2269C271.331 28.2979 271.119 27.2099 265.868 26.5476C264.804 26.4057 264.567 26.4531 264.047 26.9498ZM270.362 35.2751C270.622 35.8428 271.048 36.5996 271.71 37.6166C272.561 38.9648 272.963 39.1777 273.484 38.5864C273.72 38.3026 273.649 38.0897 273.2 37.4511C270.835 34.2108 271 33.8797 273.555 34.7311C277.268 35.9374 281.123 38.8938 279.775 39.2959C276.014 40.3839 277.528 45.5163 282.022 46.9117C284.269 47.6213 286.847 46.1549 286.847 44.1445V43.1748C286.871 43.1984 292.996 49.064 292.996 49.9865C292.996 50.6014 289.969 50.5068 288.739 49.8445C288.171 49.5371 287.06 49.8445 287.131 50.2703C287.296 51.169 293.588 52.186 294.841 51.5001C298.862 49.3478 283.134 34.5892 274.548 32.91C272.23 32.4842 269.345 33.0046 270.362 35.2751ZM283.89 40.6441C285.026 41.5428 285.073 41.3299 284.576 42.276C284.269 42.8909 284.222 43.2221 284.434 44.0026C284.837 45.6345 284.529 45.7055 282.542 44.4993C279.988 42.9383 278.853 40.6204 280.65 40.6204C281.147 40.6204 281.762 40.4548 282.022 40.2656C282.637 39.7689 282.85 39.8163 283.89 40.6441ZM312.249 42.4179C311.729 42.6071 310.286 42.891 309.056 43.0329C305.343 43.4823 305.201 44.1681 308.819 44.1681C311.634 44.1681 313.36 43.837 314.188 43.1275C315.347 42.1341 314.188 41.7084 312.249 42.4179ZM302.717 46.2022C301.937 46.5097 302.244 46.8171 305.579 49.0404C308.275 50.8379 309.694 51.3819 310.83 51.0035C312.438 50.4832 311.539 49.2059 309.079 48.4964C308.346 48.2835 306.833 47.6449 305.721 47.0773C303.758 46.0839 303.356 45.9657 302.717 46.2022ZM301.038 51.0035C300.754 51.1691 300.825 51.4765 301.322 52.7774C301.322 52.801 302.646 56.4907 302.646 56.5143C302.977 57.8152 303.947 57.2002 305.272 56.0649C305.887 55.5446 305.342 54.2201 303.9 52.5881C302.883 51.4292 302.433 50.1284 301.038 51.0035Z" fill="#FF8A33"/>
<path d="M6.07873 91.6506C6.07873 93.6457 7.47099 95.4731 9.86395 96.2376L9.06837 97.5428C7.2721 96.9648 5.96685 95.7776 5.27693 94.2797C4.59323 96.0014 3.20718 97.3688 1.31146 98.0276L0.459945 96.6975C2.91506 95.8833 4.40055 93.8446 4.41298 91.663V91.2279H0.944751V89.8729H9.47859V91.2279H6.07873V91.6506ZM2.58564 101.508C2.58564 99.6561 4.59323 98.5808 7.86878 98.5808C11.1195 98.5808 13.1022 99.6561 13.1022 101.508C13.1022 103.379 11.1195 104.467 7.86878 104.467C4.59323 104.467 2.58564 103.379 2.58564 101.508ZM4.2576 101.508C4.24517 102.559 5.59392 103.149 7.86878 103.149C10.1374 103.149 11.4675 102.559 11.4675 101.508C11.4675 100.477 10.1374 99.8985 7.86878 99.9047C5.59392 99.8985 4.24517 100.477 4.2576 101.508ZM11.2873 98.1954V88.7417H12.9593V92.6388H15.2403V94.0186H12.9593V98.1954H11.2873ZM21.5305 90.4137V96.0635H17.7079V99.3702C19.2494 99.3515 20.7535 99.2583 22.5498 98.9662L22.6803 100.334C20.6106 100.682 18.9635 100.75 17.1175 100.756H16.0981V94.7272H19.9144V91.7624H16.0733V90.4137H21.5305ZM22.3633 98.0525V96.6913H24.3398V94.1367H22.3633V92.7818H24.3398V89.0401H25.9248V103.684H24.3398V98.0525H22.3633ZM27.5222 104.492V88.7417H29.1071V104.492H27.5222ZM47.5991 88.7417V98.1146H45.9334V94.1305H42.9935V92.7569H45.9334V88.7417H47.5991ZM34.4783 96.6975C36.9147 95.8398 38.4127 93.7141 38.4127 91.5387V91.1906H34.9942V89.8294H43.4969V91.1906H40.1033V91.5262C40.1033 93.5214 41.5266 95.4606 43.9009 96.2624L43.0494 97.5925C41.278 96.9772 39.979 95.7155 39.2953 94.1616C38.6054 95.9206 37.2255 97.3315 35.3422 98.0214L34.4783 96.6975ZM37.0018 101.527C36.9893 99.6499 39.0156 98.5559 42.3222 98.5559C45.6226 98.5559 47.6426 99.6499 47.6489 101.527C47.6426 103.398 45.6226 104.479 42.3222 104.492C39.0156 104.479 36.9893 103.398 37.0018 101.527ZM38.6551 101.527C38.6426 102.584 40.0163 103.193 42.3222 103.18C44.6219 103.193 45.9893 102.584 45.9955 101.527C45.9893 100.458 44.6219 99.8488 42.3222 99.8488C40.0163 99.8488 38.6426 100.458 38.6551 101.527ZM63.9024 101.16V102.54H49.4887V101.16H55.8285V97.9282H51.1296V89.817H52.8016V92.5331H60.5336V89.817H62.1931V97.9282H57.4818V101.16H63.9024ZM52.8016 96.5732H60.5336V93.8757H52.8016V96.5732ZM74.0408 92.7507C74.0346 95.6347 75.6506 98.5062 78.056 99.5877L77.0491 100.93C75.2528 100.029 73.8979 98.2514 73.2079 96.0946C72.5118 98.3633 71.1382 100.278 69.3295 101.216L68.2729 99.8736C70.7093 98.7051 72.3378 95.6657 72.3502 92.7507V90.0532H74.0408V92.7507ZM76.3281 95.3301V93.9751H79.8399V88.7417H81.4932V104.523H79.8399V95.3301H76.3281ZM96.4228 88.7417V104.523H94.7446V88.7417H96.4228ZM84.2467 100.756V90.0532H85.9124V94.0994H90.1638V90.0532H91.8109V100.756H84.2467ZM85.9124 99.3764H90.1638V95.4233H85.9124V99.3764ZM106.392 90.9793C106.392 93.5401 109.121 95.9703 112.142 96.511L111.383 97.9033C108.86 97.3564 106.548 95.7093 105.522 93.4965C104.484 95.6968 102.178 97.3501 99.6549 97.9033L98.909 96.511C101.905 95.9517 104.621 93.5401 104.633 90.9793V89.7921H106.392V90.9793ZM98.3932 102.422V101.036H112.807V102.422H98.3932ZM127.799 95.9703V97.2507H113.385V95.9703H127.799ZM115.094 99.5566V98.3508H126.027V101.825H116.779V103.124H126.518V104.305H115.113V100.713H124.374V99.5566H115.094ZM115.194 90.3267V89.1519H125.984V92.558H116.89V93.7576H126.257V94.9323H115.237V91.4579H124.318V90.3267H115.194ZM145.787 88.7417V104.492H144.202V88.7417H145.787ZM132.045 100.16C134.276 98.8046 135.414 95.9392 135.414 93.136V91.8743H132.53V90.5131H139.74V91.8743H137.023V93.136C137.023 95.8336 138.111 98.5249 140.324 99.799L139.329 101.03C137.819 100.128 136.787 98.5249 136.24 96.6229C135.681 98.6802 134.612 100.439 133.077 101.396L132.045 100.16ZM138.565 95.6782V94.3232H141.02V89.0773H142.592V103.696H141.02V95.6782H138.565ZM154.402 98.643C157.808 98.643 159.959 99.7182 159.971 101.564C159.959 103.392 157.808 104.467 154.402 104.467C151.021 104.467 148.858 103.392 148.858 101.564C148.858 99.7182 151.021 98.643 154.402 98.643ZM147.316 97.3377V95.9827H153.059V93.0304H154.7V95.9827H161.637V97.3377H147.316ZM148.988 90.855V89.5124H159.853V90.8363C159.853 92.0919 159.853 93.3971 159.412 95.0193L157.771 94.8515C158.193 93.2293 158.193 92.0794 158.193 90.855H148.988ZM150.523 101.564C150.511 102.577 152.015 103.168 154.402 103.168C156.801 103.168 158.299 102.577 158.311 101.564C158.299 100.526 156.801 99.9109 154.402 99.9047C152.015 99.9109 150.511 100.526 150.523 101.564ZM174.584 88.7417V95.125H177.107V96.511H174.584V104.492H172.93V88.7417H174.584ZM162.227 92.5704V91.2093H166.112V88.9468H167.778V91.2093H171.557V92.5704H162.227ZM163.035 97.3999C163.029 95.2493 164.682 93.7327 166.957 93.7327C169.207 93.7327 170.861 95.2493 170.867 97.3999C170.861 99.5566 169.207 101.055 166.957 101.061C164.682 101.055 163.029 99.5566 163.035 97.3999ZM164.633 97.3999C164.62 98.761 165.608 99.6747 166.957 99.6685C168.287 99.6747 169.263 98.761 169.276 97.3999C169.263 96.0449 168.287 95.1126 166.957 95.1126C165.608 95.1126 164.62 96.0449 164.633 97.3999ZM190.079 93.3536V94.6899H179.227V89.3135H180.88V93.3536H190.079ZM177.306 98.009V96.6727H191.72V98.009H177.306ZM179.109 104.119V99.5069H180.768V102.758H190.178V104.119H179.109ZM196.283 95.1312L197.694 90.2707H199.185L198.247 95.1312H196.283ZM205.393 91.6506C205.393 93.6457 206.785 95.4731 209.178 96.2376L208.383 97.5428C206.586 96.9648 205.281 95.7776 204.591 94.2797C203.907 96.0014 202.521 97.3688 200.626 98.0276L199.774 96.6975C202.229 95.8833 203.715 93.8446 203.727 91.663V91.2279H200.259V89.8729H208.793V91.2279H205.393V91.6506ZM201.9 101.508C201.9 99.6561 203.907 98.5808 207.183 98.5808C210.434 98.5808 212.416 99.6561 212.416 101.508C212.416 103.379 210.434 104.467 207.183 104.467C203.907 104.467 201.9 103.379 201.9 101.508ZM203.572 101.508C203.559 102.559 204.908 103.149 207.183 103.149C209.452 103.149 210.782 102.559 210.782 101.508C210.782 100.477 209.452 99.8985 207.183 99.9047C204.908 99.8985 203.559 100.477 203.572 101.508ZM210.601 98.1954V88.7417H212.273V92.6388H214.554V94.0186H212.273V98.1954H210.601ZM220.845 90.4137V96.0635H217.022V99.3702C218.564 99.3515 220.068 99.2583 221.864 98.9662L221.994 100.334C219.925 100.682 218.278 100.75 216.432 100.756H215.412V94.7272H219.229V91.7624H215.387V90.4137H220.845ZM221.677 98.0525V96.6913H223.654V94.1367H221.677V92.7818H223.654V89.0401H225.239V103.684H223.654V98.0525H221.677ZM226.836 104.492V88.7417H228.421V104.492H226.836ZM246.913 88.7417V98.1146H245.248V94.1305H242.308V92.7569H245.248V88.7417H246.913ZM233.792 96.6975C236.229 95.8398 237.727 93.7141 237.727 91.5387V91.1906H234.308V89.8294H242.811V91.1906H239.417V91.5262C239.417 93.5214 240.841 95.4606 243.215 96.2624L242.364 97.5925C240.592 96.9772 239.293 95.7155 238.609 94.1616C237.919 95.9206 236.54 97.3315 234.656 98.0214L233.792 96.6975ZM236.316 101.527C236.303 99.6499 238.33 98.5559 241.636 98.5559C244.937 98.5559 246.957 99.6499 246.963 101.527C246.957 103.398 244.937 104.479 241.636 104.492C238.33 104.479 236.303 103.398 236.316 101.527ZM237.969 101.527C237.957 102.584 239.33 103.193 241.636 103.18C243.936 103.193 245.303 102.584 245.31 101.527C245.303 100.458 243.936 99.8488 241.636 99.8488C239.33 99.8488 237.957 100.458 237.969 101.527ZM263.217 101.16V102.54H248.803V101.16H255.143V97.9282H250.444V89.817H252.116V92.5331H259.848V89.817H261.507V97.9282H256.796V101.16H263.217ZM252.116 96.5732H259.848V93.8757H252.116V96.5732ZM266.803 90.2769L265.392 95.1374H263.9L264.839 90.2769H266.803ZM268.393 101.769L266.982 106.63H265.49L266.429 101.769H268.393ZM278.979 91.6506C278.979 93.6457 280.371 95.4731 282.764 96.2376L281.969 97.5428C280.172 96.9648 278.867 95.7776 278.177 94.2797C277.494 96.0014 276.108 97.3688 274.212 98.0276L273.36 96.6975C275.815 95.8833 277.301 93.8446 277.313 91.663V91.2279H273.845V89.8729H282.379V91.2279H278.979V91.6506ZM275.486 101.508C275.486 99.6561 277.494 98.5808 280.769 98.5808C284.02 98.5808 286.003 99.6561 286.003 101.508C286.003 103.379 284.02 104.467 280.769 104.467C277.494 104.467 275.486 103.379 275.486 101.508ZM277.158 101.508C277.146 102.559 278.494 103.149 280.769 103.149C283.038 103.149 284.368 102.559 284.368 101.508C284.368 100.477 283.038 99.8985 280.769 99.9047C278.494 99.8985 277.146 100.477 277.158 101.508ZM284.188 98.1954V88.7417H285.86V92.6388H288.141V94.0186H285.86V98.1954H284.188ZM294.431 90.4137V96.0635H290.608V99.3702C292.15 99.3515 293.654 99.2583 295.45 98.9662L295.581 100.334C293.511 100.682 291.864 100.75 290.018 100.756H288.999V94.7272H292.815V91.7624H288.974V90.4137H294.431ZM295.264 98.0525V96.6913H297.24V94.1367H295.264V92.7818H297.24V89.0401H298.825V103.684H297.24V98.0525H295.264ZM300.423 104.492V88.7417H302.007V104.492H300.423ZM309.106 91.1222C309.106 92.8999 310.541 94.6837 312.872 95.3985L312.083 96.7162C310.293 96.1568 308.969 94.9883 308.279 93.5401C307.577 95.1436 306.184 96.4675 304.338 97.0767L303.506 95.7652C305.892 94.9634 307.434 93.0242 307.434 91.0974V90.855H304.003V89.4938H312.506V90.855H309.106V91.1222ZM306.334 98.9102V97.5615H316.633V101.502H308.024V103.006H317.192V104.324H306.365V100.247H314.979V98.9102H306.334ZM312.033 93.5214V92.1664H314.979V88.7417H316.633V96.8467H314.979V93.5214H312.033ZM323.93 93.8011C323.93 96.2376 325.409 98.7983 327.765 99.9296L326.814 101.198C325.092 100.377 323.799 98.7362 323.134 96.797C322.444 98.8854 321.07 100.638 319.268 101.477L318.329 100.191C320.735 99.0905 322.282 96.3992 322.295 93.8011V92.7693H318.808V91.4268H322.282V89.0525H323.954V91.4268H327.385V92.7693H323.93V93.8011ZM329.132 104.492V88.7417H330.804V95.0877H333.327V96.5048H330.804V104.492H329.132ZM336.379 101.769L334.968 106.63H333.477L334.415 101.769H336.379ZM346.966 91.6506C346.966 93.6457 348.358 95.4731 350.751 96.2376L349.955 97.5428C348.159 96.9648 346.854 95.7776 346.164 94.2797C345.48 96.0014 344.094 97.3688 342.198 98.0276L341.347 96.6975C343.802 95.8833 345.288 93.8446 345.3 91.663V91.2279H341.832V89.8729H350.366V91.2279H346.966V91.6506ZM343.473 101.508C343.473 99.6561 345.48 98.5808 348.756 98.5808C352.006 98.5808 353.989 99.6561 353.989 101.508C353.989 103.379 352.006 104.467 348.756 104.467C345.48 104.467 343.473 103.379 343.473 101.508ZM345.145 101.508C345.132 102.559 346.481 103.149 348.756 103.149C351.024 103.149 352.355 102.559 352.355 101.508C352.355 100.477 351.024 99.8985 348.756 99.9047C346.481 99.8985 345.132 100.477 345.145 101.508ZM352.174 98.1954V88.7417H353.846V92.6388H356.127V94.0186H353.846V98.1954H352.174ZM362.417 90.4137V96.0635H358.595V99.3702C360.136 99.3515 361.64 99.2583 363.437 98.9662L363.567 100.334C361.498 100.682 359.85 100.75 358.004 100.756H356.985V94.7272H360.801V91.7624H356.96V90.4137H362.417ZM363.25 98.0525V96.6913H365.227V94.1367H363.25V92.7818H365.227V89.0401H366.812V103.684H365.227V98.0525H363.25ZM368.409 104.492V88.7417H369.994V104.492H368.409ZM388.449 88.7417V104.492H386.771V88.7417H388.449ZM375.508 100.271C379.697 98.2825 381.736 95.442 382.065 91.7686H376.273V90.4385H383.769C383.756 95.0442 381.798 99.0407 376.391 101.62L375.508 100.271ZM399.139 89.9351V90.8239C399.127 91.8743 399.127 93.4406 398.742 95.4669L397.088 95.3239C397.43 93.5711 397.486 92.3032 397.499 91.3149H391.196V89.9351H399.139ZM390.245 96.828C391.215 96.8218 392.315 96.8156 393.471 96.7907V93.4779H395.124V96.7348C396.815 96.6664 398.549 96.5421 400.134 96.3184L400.233 97.5366C396.945 98.1146 393.185 98.1768 390.401 98.183L390.245 96.828ZM392.638 104.169V99.5069H394.304V102.801H403.335V104.169H392.638ZM401.135 100.576V88.7417H402.831V93.7576H405.001V95.1685H402.831V100.576H401.135ZM421.622 88.7355V93.4406H423.903V94.8329H421.622V100.309H419.95V88.7355H421.622ZM409.483 93.739C409.471 91.4392 411.298 89.8232 413.678 89.8232C416.053 89.8232 417.855 91.4392 417.868 93.739C417.855 96.0325 416.053 97.6609 413.678 97.6609C411.298 97.6609 409.471 96.0325 409.483 93.739ZM411.118 93.739C411.105 95.1996 412.236 96.2003 413.678 96.2003C415.133 96.2003 416.233 95.1996 416.245 93.739C416.233 92.2659 415.133 91.2776 413.678 91.2776C412.236 91.2776 411.105 92.2659 411.118 93.739ZM411.64 104.169V99.1029H413.299V102.801H422.293V104.169H411.64ZM437.751 88.7417V104.492H436.135V96.4302H434.127V103.684H432.561V89.0649H434.127V95.0442H436.135V88.7417H437.751ZM424.997 100.489V90.6001H426.669V99.0221C428.123 98.9972 429.708 98.8854 431.492 98.5373L431.679 99.9917C429.516 100.383 427.713 100.489 426.016 100.489H424.997ZM6.07873 120.651C6.07873 122.646 7.47099 124.473 9.86395 125.238L9.06837 126.543C7.2721 125.965 5.96685 124.778 5.27693 123.28C4.59323 125.001 3.20718 126.369 1.31146 127.028L0.459945 125.698C2.91506 124.883 4.40055 122.845 4.41298 120.663V120.228H0.944751V118.873H9.47859V120.228H6.07873V120.651ZM2.58564 130.508C2.58564 128.656 4.59323 127.581 7.86878 127.581C11.1195 127.581 13.1022 128.656 13.1022 130.508C13.1022 132.379 11.1195 133.467 7.86878 133.467C4.59323 133.467 2.58564 132.379 2.58564 130.508ZM4.2576 130.508C4.24517 131.559 5.59392 132.149 7.86878 132.149C10.1374 132.149 11.4675 131.559 11.4675 130.508C11.4675 129.477 10.1374 128.898 7.86878 128.905C5.59392 128.898 4.24517 129.477 4.2576 130.508ZM11.2873 127.195V117.742H12.9593V121.639H15.2403V123.019H12.9593V127.195H11.2873ZM21.5305 119.414V125.064H17.7079V128.37C19.2494 128.352 20.7535 128.258 22.5498 127.966L22.6803 129.334C20.6106 129.682 18.9635 129.75 17.1175 129.756H16.0981V123.727H19.9144V120.762H16.0733V119.414H21.5305ZM22.3633 127.052V125.691H24.3398V123.137H22.3633V121.782H24.3398V118.04H25.9248V132.684H24.3398V127.052H22.3633ZM27.5222 133.492V117.742H29.1071V133.492H27.5222ZM43.2359 118.935V119.824C43.2234 120.874 43.2234 122.441 42.8381 124.467L41.1848 124.324C41.5266 122.571 41.5826 121.303 41.595 120.315H35.2925V118.935H43.2359ZM34.3415 125.828C35.3112 125.822 36.4113 125.816 37.5674 125.791V122.478H39.2207V125.735C40.9113 125.666 42.6454 125.542 44.2304 125.318L44.3298 126.537C41.0418 127.115 37.2815 127.177 34.4969 127.183L34.3415 125.828ZM36.7345 133.169V128.507H38.4002V131.801H47.4313V133.169H36.7345ZM45.231 129.576V117.742H46.9279V122.758H49.0971V124.169H46.9279V129.576H45.231ZM56.9846 118.854V123.597H51.7946V125.934C54.4176 125.927 55.9714 125.847 57.8174 125.53L57.9915 126.891C55.9466 127.245 54.2684 127.295 51.2788 127.295H50.1165V122.31H55.3064V120.197H50.0854V118.854H56.9846ZM52.267 133.113V128.494H53.9328V131.733H63.0633V133.113H52.267ZM58.0101 125.213V123.852H60.95V121.67H58.0101V120.321H60.95V117.754H62.6158V129.352H60.95V125.213H58.0101ZM73.7425 127.873H75.6382L76.8626 129.464C77.6955 128.662 78.2114 127.376 78.2114 125.635C78.2114 122.54 76.5829 120.862 74.3951 120.862C72.2073 120.862 70.5788 122.54 70.5788 125.635C70.5788 128.731 72.2073 130.409 74.3951 130.409C74.7991 130.409 75.1907 130.353 75.5512 130.235L73.7425 127.873ZM68.6582 125.635C68.6582 121.564 71.0823 119.097 74.3951 119.097C77.6893 119.097 80.132 121.564 80.132 125.635C80.132 127.979 79.324 129.794 78.0063 130.906L79.7218 133.144H77.7452L76.6637 131.733C75.9738 132.025 75.2093 132.174 74.3951 132.174C71.0823 132.174 68.6582 129.7 68.6582 125.635ZM85.3262 132.18C82.7717 132.18 81.1929 130.664 81.1929 128.619C81.1929 127.102 82.1936 126.17 83.6481 125.163C82.84 124.187 82.2496 123.286 82.2496 122.148C82.2496 120.39 83.5238 119.134 85.4692 119.134C87.4271 119.134 88.6329 120.421 88.6329 121.912C88.6329 123.124 87.9927 124.007 86.9423 124.778L86.0659 125.424L88.608 128.451C88.9374 127.817 89.1363 127.059 89.1363 126.207H90.8269C90.8269 127.972 90.3173 129.11 89.7641 129.837L91.579 132H89.4657L88.608 130.993C87.7441 131.795 86.4761 132.18 85.3262 132.18ZM83.0638 128.569C83.0638 129.663 83.9588 130.595 85.3387 130.595C86.1156 130.595 86.8988 130.297 87.5576 129.756L84.7109 126.425L84.3877 126.661C83.3932 127.394 83.0638 128.171 83.0638 128.569ZM84.0086 122.18C84.0086 122.82 84.4623 123.472 85.0341 124.181L85.8235 123.628C86.5072 123.174 86.9236 122.714 86.9236 121.956C86.9236 121.365 86.3642 120.7 85.5065 120.7C84.6239 120.706 84.0086 121.44 84.0086 122.18ZM93.5097 132H91.4586L96.0332 119.271H98.277L102.852 132H100.794L99.632 128.637H94.672L93.5097 132ZM95.2314 127.015H99.0726L97.2017 121.595H97.1023L95.2314 127.015ZM117.603 124.97V126.251H103.19V124.97H117.603ZM104.899 128.557V127.351H115.832V130.825H106.583V132.124H116.323V133.305H104.918V129.713H114.179V128.557H104.899ZM104.998 119.327V118.152H115.788V121.558H106.695V122.758H116.062V123.932H105.042V120.458H114.123V119.327H104.998ZM135.592 117.742V133.492H134.007V117.742H135.592ZM121.849 129.16C124.081 127.805 125.218 124.939 125.218 122.136V120.874H122.334V119.513H129.544V120.874H126.828V122.136C126.828 124.834 127.916 127.525 130.128 128.799L129.134 130.03C127.624 129.128 126.592 127.525 126.045 125.623C125.486 127.68 124.416 129.439 122.881 130.396L121.849 129.16ZM128.369 124.678V123.323H130.825V118.077H132.397V132.696H130.825V124.678H128.369ZM144.207 127.643C147.613 127.643 149.763 128.718 149.776 130.564C149.763 132.392 147.613 133.467 144.207 133.467C140.825 133.467 138.662 132.392 138.662 130.564C138.662 128.718 140.825 127.643 144.207 127.643ZM137.121 126.338V124.983H142.864V122.03H144.505V124.983H151.441V126.338H137.121ZM138.793 119.855V118.512H149.658V119.836C149.658 121.092 149.658 122.397 149.216 124.019L147.575 123.852C147.998 122.229 147.998 121.079 147.998 119.855H138.793ZM140.328 130.564C140.316 131.577 141.82 132.168 144.207 132.168C146.606 132.168 148.104 131.577 148.116 130.564C148.104 129.526 146.606 128.911 144.207 128.905C141.82 128.911 140.316 129.526 140.328 130.564ZM164.388 117.742V124.125H166.912V125.511H164.388V133.492H162.735V117.742H164.388ZM152.032 121.57V120.209H155.917V117.947H157.582V120.209H161.361V121.57H152.032ZM152.84 126.4C152.834 124.249 154.487 122.733 156.762 122.733C159.012 122.733 160.665 124.249 160.671 126.4C160.665 128.557 159.012 130.055 156.762 130.061C154.487 130.055 152.834 128.557 152.84 126.4ZM154.437 126.4C154.425 127.761 155.413 128.675 156.762 128.669C158.092 128.675 159.068 127.761 159.08 126.4C159.068 125.045 158.092 124.113 156.762 124.113C155.413 124.113 154.425 125.045 154.437 126.4ZM175.054 119.252V121.452H178.616V117.742H180.269V133.523H178.616V127.121H175.054V129.557H167.751V119.252H175.054ZM169.404 128.227H173.426V120.564H169.404V128.227ZM175.054 125.772H178.616V122.814H175.054V125.772ZM184.98 130.769L183.569 135.63H182.078L183.016 130.769H184.98ZM195.567 120.651C195.567 122.646 196.959 124.473 199.352 125.238L198.556 126.543C196.76 125.965 195.455 124.778 194.765 123.28C194.081 125.001 192.695 126.369 190.799 127.028L189.948 125.698C192.403 124.883 193.889 122.845 193.901 120.663V120.228H190.433V118.873H198.967V120.228H195.567V120.651ZM192.074 130.508C192.074 128.656 194.081 127.581 197.357 127.581C200.607 127.581 202.59 128.656 202.59 130.508C202.59 132.379 200.607 133.467 197.357 133.467C194.081 133.467 192.074 132.379 192.074 130.508ZM193.746 130.508C193.733 131.559 195.082 132.149 197.357 132.149C199.625 132.149 200.956 131.559 200.956 130.508C200.956 129.477 199.625 128.898 197.357 128.905C195.082 128.898 193.733 129.477 193.746 130.508ZM200.775 127.195V117.742H202.447V121.639H204.728V123.019H202.447V127.195H200.775ZM211.018 119.414V125.064H207.196V128.37C208.737 128.352 210.241 128.258 212.038 127.966L212.168 129.334C210.099 129.682 208.451 129.75 206.605 129.756H205.586V123.727H209.402V120.762H205.561V119.414H211.018ZM211.851 127.052V125.691H213.828V123.137H211.851V121.782H213.828V118.04H215.413V132.684H213.828V127.052H211.851ZM217.01 133.492V117.742H218.595V133.492H217.01ZM229.548 120.122C229.548 121.9 230.984 123.684 233.314 124.398L232.525 125.716C230.735 125.157 229.411 123.988 228.721 122.54C228.019 124.144 226.626 125.468 224.78 126.077L223.948 124.765C226.334 123.963 227.876 122.024 227.876 120.097V119.855H224.445V118.494H232.948V119.855H229.548V120.122ZM226.776 127.91V126.561H237.075V130.502H228.466V132.006H237.634V133.324H226.807V129.247H235.421V127.91H226.776ZM232.475 122.521V121.166H235.421V117.742H237.075V125.847H235.421V122.521H232.475ZM244.372 122.801C244.372 125.238 245.851 127.798 248.207 128.93L247.256 130.198C245.534 129.377 244.241 127.736 243.576 125.797C242.886 127.885 241.513 129.638 239.71 130.477L238.772 129.191C241.177 128.09 242.725 125.399 242.737 122.801V121.769H239.25V120.427H242.725V118.052H244.397V120.427H247.828V121.769H244.372V122.801ZM249.574 133.492V117.742H251.246V124.088H253.769V125.505H251.246V133.492H249.574ZM258.723 118.736C261.141 118.749 262.944 120.278 262.956 122.49C262.944 124.442 261.545 125.859 259.562 126.17V128.662C260.955 128.6 262.353 128.494 263.658 128.32L263.776 129.57C260.451 130.154 256.79 130.179 254.049 130.148L253.794 128.774C255.019 128.768 256.43 128.762 257.897 128.724V126.17C255.858 125.872 254.466 124.454 254.478 122.49C254.466 120.278 256.243 118.749 258.723 118.736ZM256.107 122.49C256.094 123.889 257.207 124.821 258.723 124.809C260.209 124.821 261.309 123.889 261.321 122.49C261.309 121.086 260.209 120.172 258.723 120.16C257.207 120.172 256.094 121.086 256.107 122.49ZM264.609 133.492V117.742H266.275V124.137H268.699V125.548H266.275V133.492H264.609ZM278.359 120.651C278.359 122.646 279.751 124.473 282.144 125.238L281.349 126.543C279.552 125.965 278.247 124.778 277.557 123.28C276.873 125.001 275.487 126.369 273.592 127.028L272.74 125.698C275.195 124.883 276.681 122.845 276.693 120.663V120.228H273.225V118.873H281.759V120.228H278.359V120.651ZM274.866 130.508C274.866 128.656 276.873 127.581 280.149 127.581C283.4 127.581 285.382 128.656 285.382 130.508C285.382 132.379 283.4 133.467 280.149 133.467C276.873 133.467 274.866 132.379 274.866 130.508ZM276.538 130.508C276.525 131.559 277.874 132.149 280.149 132.149C282.418 132.149 283.748 131.559 283.748 130.508C283.748 129.477 282.418 128.898 280.149 128.905C277.874 128.898 276.525 129.477 276.538 130.508ZM283.568 127.195V117.742H285.239V121.639H287.521V123.019H285.239V127.195H283.568ZM293.811 119.414V125.064H289.988V128.37C291.53 128.352 293.034 128.258 294.83 127.966L294.961 129.334C292.891 129.682 291.244 129.75 289.398 129.756H288.378V123.727H292.195V120.762H288.354V119.414H293.811ZM294.644 127.052V125.691H296.62V123.137H294.644V121.782H296.62V118.04H298.205V132.684H296.62V127.052H294.644ZM299.802 133.492V117.742H301.387V133.492H299.802ZM319.842 117.742V133.492H318.164V117.742H319.842ZM306.901 129.271C311.091 127.282 313.129 124.442 313.459 120.769H307.666V119.439H315.162C315.149 124.044 313.192 128.041 307.784 130.62L306.901 129.271ZM330.533 118.935V119.824C330.52 120.874 330.52 122.441 330.135 124.467L328.482 124.324C328.824 122.571 328.879 121.303 328.892 120.315H322.589V118.935H330.533ZM321.638 125.828C322.608 125.822 323.708 125.816 324.864 125.791V122.478H326.518V125.735C328.208 125.666 329.942 125.542 331.527 125.318L331.627 126.537C328.339 127.115 324.578 127.177 321.794 127.183L321.638 125.828ZM324.031 133.169V128.507H325.697V131.801H334.728V133.169H324.031ZM332.528 129.576V117.742H334.225V122.758H336.394V124.169H334.225V129.576H332.528ZM350.329 117.742V133.492H348.725V117.742H350.329ZM336.96 124.541C336.96 121.135 338.296 119.003 340.347 119.003C342.261 119.003 343.56 120.818 343.759 123.777H345.537V118.046H347.128V132.715H345.537V125.132H343.766C343.61 128.209 342.299 130.11 340.347 130.104C338.296 130.11 336.96 127.966 336.96 124.541ZM338.513 124.541C338.501 127.052 339.216 128.526 340.347 128.513C341.509 128.526 342.23 127.052 342.23 124.541C342.23 122.037 341.509 120.57 340.347 120.57C339.216 120.57 338.501 122.037 338.513 124.541ZM369.163 117.742V133.492H367.578V125.349H365.539V132.684H363.998V118.065H365.539V123.988H367.578V117.742H369.163ZM356.185 129.706V119.637H362.077V120.992H357.857V128.296C359.79 128.277 361.244 128.19 362.923 127.867L363.059 129.247C361.157 129.638 359.529 129.694 357.229 129.706H356.185ZM383.048 117.754V122.82H385.329V124.212H383.048V129.545H381.376V117.754H383.048ZM370.692 120.936V119.594H374.558V117.748H376.218V119.594H380.065V120.936H370.692ZM371.55 124.678C371.544 122.869 373.097 121.695 375.385 121.695C377.641 121.695 379.195 122.869 379.201 124.678C379.195 126.456 377.641 127.618 375.385 127.618C373.097 127.618 371.544 126.456 371.55 124.678ZM373.066 133.169V128.606H374.726V131.801H383.72V133.169H373.066ZM373.16 124.678C373.147 125.698 374.042 126.325 375.385 126.319C376.715 126.325 377.61 125.698 377.622 124.678C377.61 123.634 376.715 122.988 375.385 122.988C374.042 122.988 373.147 123.634 373.16 124.678ZM402.672 117.742V127.115H401.006V123.131H398.066V121.757H401.006V117.742H402.672ZM389.551 125.698C391.987 124.84 393.485 122.714 393.485 120.539V120.191H390.067V118.829H398.569V120.191H395.176V120.526C395.176 122.521 396.599 124.461 398.973 125.262L398.122 126.593C396.35 125.977 395.051 124.715 394.368 123.162C393.678 124.921 392.298 126.331 390.415 127.021L389.551 125.698ZM392.074 130.527C392.062 128.65 394.088 127.556 397.395 127.556C400.695 127.556 402.715 128.65 402.721 130.527C402.715 132.398 400.695 133.479 397.395 133.492C394.088 133.479 392.062 132.398 392.074 130.527ZM393.728 130.527C393.715 131.584 395.089 132.193 397.395 132.18C399.694 132.193 401.062 131.584 401.068 130.527C401.062 129.458 399.694 128.849 397.395 128.849C395.089 128.849 393.715 129.458 393.728 130.527ZM418.975 130.16V131.54H404.561V130.16H410.901V126.928H406.202V118.817H407.874V121.533H415.606V118.817H417.266V126.928H412.554V130.16H418.975ZM407.874 125.573H415.606V122.876H407.874V125.573ZM436.939 117.742V133.492H435.354V117.742H436.939ZM423.196 129.16C425.428 127.805 426.565 124.939 426.565 122.136V120.874H423.681V119.513H430.891V120.874H428.175V122.136C428.175 124.834 429.262 127.525 431.475 128.799L430.481 130.03C428.97 129.128 427.939 127.525 427.392 125.623C426.832 127.68 425.763 129.439 424.228 130.396L423.196 129.16ZM429.716 124.678V123.323H432.171V118.077H433.744V132.696H432.171V124.678H429.716ZM445.553 127.643C448.959 127.643 451.11 128.718 451.122 130.564C451.11 132.392 448.959 133.467 445.553 133.467C442.172 133.467 440.009 132.392 440.009 130.564C440.009 128.718 442.172 127.643 445.553 127.643ZM438.468 126.338V124.983H444.211V122.03H445.852V124.983H452.788V126.338H438.468ZM440.14 119.855V118.512H451.004V119.836C451.004 121.092 451.004 122.397 450.563 124.019L448.922 123.852C449.345 122.229 449.345 121.079 449.345 119.855H440.14ZM441.675 130.564C441.662 131.577 443.167 132.168 445.553 132.168C447.952 132.168 449.45 131.577 449.463 130.564C449.45 129.526 447.952 128.911 445.553 128.905C443.167 128.911 441.662 129.526 441.675 130.564ZM465.63 118.742V125.225H458.134V118.742H465.63ZM459.172 132.162C462.056 131.876 464.3 130.434 464.393 129.023H459.819V127.755H464.431V126.294H466.096V127.755H470.727V129.023H466.128C466.221 130.403 468.421 131.832 471.299 132.162L470.727 133.448C468.259 133.15 466.221 132.087 465.27 130.701C464.306 132.106 462.237 133.144 459.757 133.448L459.172 132.162ZM459.775 123.907H463.983V120.073H459.775V123.907ZM468.713 126.748V117.742H470.36V126.748H468.713ZM14.942 156.233V157.613H8.57113V162.517H6.93025V157.613H0.584254V156.233H14.942ZM1.42334 153.815C4.41298 153.436 6.81837 151.764 6.92403 149.992H1.93923V148.65H6.93025V146.742H8.57113V148.65H13.5746V149.992H8.59599C8.68923 151.751 11.0698 153.436 14.0718 153.815L13.4627 155.145C10.933 154.797 8.78246 153.61 7.76312 152C6.73757 153.628 4.56837 154.791 2.03246 155.145L1.42334 153.815ZM21.1202 150.483C21.1202 152.472 22.5995 154.3 25.0173 155.052L24.2031 156.369C22.3944 155.804 21.0332 154.61 20.3184 153.075C19.6285 154.722 18.2673 156.009 16.4151 156.631L15.5947 155.325C18.0001 154.548 19.4607 152.609 19.4607 150.483V150.11H16.036V148.768H19.4607V146.841H21.1451V148.768H24.5387V150.11H21.1202V150.483ZM18.5035 162.169V157.451H20.1693V160.801H29.1444V162.169H18.5035ZM24.0042 152.883V151.521H27.0622V146.754H28.728V158.489H27.0622V152.883H24.0042ZM37.784 147.003C41.333 147.003 43.4028 147.96 43.4028 149.706C43.4028 151.478 41.333 152.435 37.784 152.448C34.2349 152.435 32.1528 151.478 32.1528 149.706C32.1528 147.96 34.2349 147.003 37.784 147.003ZM30.6175 154.741V153.405H44.9753V154.741H30.6175ZM32.3268 157.202V155.953H43.1541V159.639H33.9925V161.05H43.6079V162.343H32.3579V158.439H41.5133V157.202H32.3268ZM33.8993 149.706C33.8869 150.689 35.2791 151.192 37.784 151.192C40.3075 151.192 41.6935 150.689 41.6935 149.706C41.6935 148.787 40.3075 148.24 37.784 148.246C35.2791 148.24 33.8869 148.787 33.8993 149.706ZM63.8464 155.021V156.351H49.4576V155.021H55.8098V153.653H51.3347V147.171H62.0937V148.494H53.0129V149.769H61.6897V151.012H53.0129V152.354H62.1993V153.653H57.4818V155.021H63.8464ZM51.1855 159.925C51.1855 158.278 53.1558 157.37 56.6489 157.383C60.1109 157.37 62.0812 158.278 62.0937 159.925C62.0812 161.59 60.1109 162.467 56.6489 162.467C53.1558 162.467 51.1855 161.59 51.1855 159.925ZM52.8637 159.925C52.8513 160.782 54.169 161.211 56.6489 161.199C59.1103 161.211 60.4155 160.782 60.4279 159.925C60.4155 159.079 59.1103 158.632 56.6489 158.632C54.169 158.632 52.8513 159.079 52.8637 159.925ZM72.2809 149.352V150.701H64.4681V149.352H67.5634V147.208H69.2167V149.352H72.2809ZM64.9777 155.269C64.9653 153.15 66.4073 151.646 68.39 151.646C70.379 151.646 71.8023 153.15 71.8147 155.269C71.8023 157.42 70.379 158.93 68.39 158.93C66.4073 158.93 64.9653 157.42 64.9777 155.269ZM66.4446 155.269C66.4446 156.606 67.2526 157.507 68.39 157.494C69.5212 157.507 70.3355 156.606 70.3355 155.269C70.3355 153.958 69.5212 153.044 68.39 153.038C67.2526 153.044 66.4446 153.958 66.4446 155.269ZM73.0143 161.752V147.096H74.5868V153.305H76.4018V146.742H77.9929V162.492H76.4018V154.666H74.5868V161.752H73.0143ZM96.5036 146.742V156.115H94.8378V152.131H91.8979V150.757H94.8378V146.742H96.5036ZM83.3827 154.698C85.8192 153.84 87.3171 151.714 87.3171 149.539V149.191H83.8986V147.829H92.4014V149.191H89.0077V149.526C89.0077 151.521 90.4311 153.461 92.8054 154.262L91.9539 155.593C90.1825 154.977 88.8834 153.715 88.1997 152.162C87.5098 153.921 86.13 155.331 84.2467 156.021L83.3827 154.698ZM85.9062 159.527C85.8938 157.65 87.92 156.556 91.2267 156.556C94.5271 156.556 96.5471 157.65 96.5533 159.527C96.5471 161.398 94.5271 162.479 91.2267 162.492C87.92 162.479 85.8938 161.398 85.9062 159.527ZM87.5595 159.527C87.5471 160.584 88.9207 161.193 91.2267 161.18C93.5264 161.193 94.8938 160.584 94.9 159.527C94.8938 158.458 93.5264 157.849 91.2267 157.849C88.9207 157.849 87.5471 158.458 87.5595 159.527ZM112.807 159.16V160.54H98.3932V159.16H104.733V155.928H100.034V147.817H101.706V150.533H109.438V147.817H111.098V155.928H106.386V159.16H112.807ZM101.706 154.573H109.438V151.876H101.706V154.573ZM125.264 147.68V149.066H119.62V150.782H124.959V152.124H119.62V153.945C122.516 153.952 124.238 153.89 126.233 153.51L126.426 154.84C124.263 155.226 122.417 155.288 119.179 155.276H117.948V147.68H125.264ZM119.57 162.293V156.773H129.639V162.293H119.57ZM121.211 160.938H127.986V158.085H121.211V160.938ZM127.967 155.99V146.742H129.639V150.577H131.92V151.975H129.639V155.99H127.967ZM137.092 149.706C137.092 151.484 138.179 153.256 140.218 154.064L139.329 155.35C137.881 154.766 136.862 153.672 136.296 152.348C135.712 153.821 134.637 155.089 133.114 155.754L132.206 154.455C134.338 153.529 135.476 151.497 135.476 149.706V147.693H137.092V149.706ZM134.997 158.445V157.09H145.7V162.492H144.053V158.445H134.997ZM140.728 156.189V147.034H142.282V150.769H144.121V146.754H145.7V156.276H144.121V152.155H142.282V156.189H140.728ZM156.933 150.751C156.92 153.628 158.654 156.525 161.097 157.6L160.09 158.93C158.281 158.066 156.852 156.295 156.112 154.138C155.385 156.444 153.937 158.352 152.053 159.266L151.022 157.874C153.502 156.767 155.242 153.759 155.254 150.751V148.053H156.933V150.751ZM162.52 162.523V146.742H164.198V162.523H162.52ZM178.544 146.742V151.397H180.825V152.796H178.544V158.191H176.853V146.742H178.544ZM166.15 155.126C169.842 154.02 172.129 151.919 172.453 149.327H166.809V147.941H174.268C174.268 152.075 171.458 155.07 166.859 156.456L166.15 155.126ZM168.543 162.169V157.016H170.221V160.801H179.196V162.169H168.543ZM188.352 147.003C191.901 147.003 193.971 147.96 193.971 149.706C193.971 151.478 191.901 152.435 188.352 152.448C184.803 152.435 182.721 151.478 182.721 149.706C182.721 147.96 184.803 147.003 188.352 147.003ZM181.185 154.741V153.405H195.543V154.741H181.185ZM182.895 157.202V155.953H193.722V159.639H184.56V161.05H194.176V162.343H182.926V158.439H192.081V157.202H182.895ZM184.467 149.706C184.455 150.689 185.847 151.192 188.352 151.192C190.875 151.192 192.261 150.689 192.261 149.706C192.261 148.787 190.875 148.24 188.352 148.246C185.847 148.24 184.455 148.787 184.467 149.706ZM212.432 146.735V151.298H214.725V152.684H212.432V158.141H210.76V146.735H212.432ZM200.759 155.406V148.072H207.795V149.433H202.412V154.032C205.476 154.032 207.198 153.939 209.181 153.529L209.374 154.89C207.235 155.307 205.377 155.412 202.008 155.406H200.759ZM202.45 162.169V156.966H204.109V160.801H213.103V162.169H202.45ZM229.431 154.61V155.953H223.06V157.606H227.666V162.454H225.988V158.955H216.664V157.606H221.419V155.953H215.073V154.61H229.431ZM215.838 152.572C218.977 152.298 221.133 151.136 221.307 149.576H216.515V148.258H221.419V146.698H223.06V148.258H227.989V149.576H223.172C223.334 151.136 225.484 152.298 228.642 152.572L228.113 153.834C225.397 153.585 223.203 152.671 222.24 151.186C221.264 152.671 219.07 153.585 216.366 153.834L215.838 152.572ZM237.865 149.352V150.701H230.053V149.352H233.148V147.208H234.801V149.352H237.865ZM230.562 155.269C230.55 153.15 231.992 151.646 233.975 151.646C235.964 151.646 237.387 153.15 237.399 155.269C237.387 157.42 235.964 158.93 233.975 158.93C231.992 158.93 230.55 157.42 230.562 155.269ZM232.029 155.269C232.029 156.606 232.837 157.507 233.975 157.494C235.106 157.507 235.92 156.606 235.92 155.269C235.92 153.958 235.106 153.044 233.975 153.038C232.837 153.044 232.029 153.958 232.029 155.269ZM238.599 161.752V147.096H240.171V153.305H241.986V146.742H243.577V162.492H241.986V154.666H240.171V161.752H238.599ZM263.375 159.16V160.54H248.961V159.16H255.301V155.928H250.602V147.817H252.274V150.533H260.006V147.817H261.665V155.928H256.954V159.16H263.375ZM252.274 154.573H260.006V151.876H252.274V154.573ZM268.776 151.043C268.776 153.566 269.826 156.245 271.94 157.532L271.001 158.825C269.528 157.936 268.534 156.357 267.993 154.536C267.415 156.531 266.333 158.234 264.804 159.166L263.76 157.923C265.991 156.593 267.16 153.802 267.16 151.117V148.177H268.776V151.043ZM270.224 153.666V152.28H272.679V147.046H274.252V161.715H272.679V153.666H270.224ZM275.918 162.492V146.742H277.521V162.492H275.918ZM293.408 159.148V160.528H278.994V159.148H282.444V155.027C281.145 154.318 280.356 153.187 280.356 151.776C280.356 149.296 282.786 147.668 286.161 147.655C289.548 147.668 291.985 149.296 291.985 151.776C291.985 153.169 291.22 154.281 289.952 154.996V159.148H293.408ZM281.978 151.776C281.978 153.461 283.693 154.561 286.161 154.561C288.616 154.561 290.356 153.461 290.356 151.776C290.356 150.073 288.616 148.992 286.161 149.004C283.693 148.992 281.978 150.073 281.978 151.776ZM284.085 159.148H288.268V155.636C287.621 155.785 286.913 155.866 286.161 155.866C285.415 155.866 284.719 155.785 284.085 155.642V159.148ZM295.801 161.118C295.111 161.118 294.539 160.559 294.552 159.875C294.539 159.191 295.111 158.632 295.801 158.632C296.472 158.632 297.044 159.191 297.044 159.875C297.044 160.559 296.472 161.118 295.801 161.118Z" fill="#666666"/>
</svg>
