<svg width="204" height="53" viewBox="0 0 204 53" fill="none" xmlns="http://www.w3.org/2000/svg">
<path d="M27.6823 28.5808C24.2141 28.587 21.9765 29.6934 21.9765 31.6077C21.9765 33.4972 24.2141 34.6222 27.6823 34.616C31.1754 34.6222 33.3819 33.4972 33.3943 31.6077C33.3819 29.6934 31.1754 28.587 27.6823 28.5808ZM20.5097 27.5739H35.0352V25.7652H28.1733V22.9558H25.9544V25.7652H20.5097V27.5739ZM22.1443 21.0974H31.0635C31.0573 22.1851 31.0138 23.2666 30.6533 24.7148L32.8536 24.9261C33.3135 23.2852 33.3135 21.9116 33.3135 20.6499V19.3384H22.1443V21.0974ZM24.2265 31.6077C24.2141 30.7251 25.482 30.2528 27.6823 30.2528C29.8826 30.2528 31.163 30.7251 31.1692 31.6077C31.163 32.4779 29.8826 32.9068 27.6823 32.913C25.482 32.9068 24.2141 32.4779 24.2265 31.6077ZM50.1078 27.5242H35.4766V29.3267H38.8267V34.6222H41.1264V29.3267H44.4082V34.6222H46.6831V29.3267H50.1078V27.5242ZM36.9434 22.7693C36.9372 24.9261 39.3177 26.2935 42.7487 26.2873C46.1858 26.2935 48.585 24.9261 48.585 22.7693C48.585 20.5628 46.1858 19.1519 42.7487 19.1519C39.3177 19.1519 36.9372 20.5628 36.9434 22.7693ZM39.2556 22.7693C39.2432 21.5884 40.6043 20.9482 42.7487 20.942C44.9117 20.9482 46.2666 21.5884 46.2666 22.7693C46.2666 23.8943 44.9117 24.5159 42.7487 24.5221C40.6043 24.5159 39.2432 23.8943 39.2556 22.7693ZM67.8627 18.636H65.737V21.8122H64.3945V18.9157H62.3123V26.6851H64.3945V23.6084H65.737V26.828H67.8627V18.636ZM54.1887 22.9061C54.1825 24.982 55.7115 26.4427 57.862 26.4427C60.0064 26.4427 61.5602 24.982 61.5602 22.9061C61.5602 20.7493 60.0064 19.3446 57.862 19.3508C55.7115 19.3446 54.1825 20.7493 54.1887 22.9061ZM56.1901 22.9061C56.1838 21.7624 56.8738 21.0725 57.862 21.0725C58.8316 21.0725 59.5216 21.7624 59.5278 22.9061C59.5216 24.0062 58.8316 24.6651 57.862 24.6651C56.8738 24.6651 56.1838 24.0062 56.1901 22.9061ZM56.9111 29.1526H65.6127V30.029H56.9297V34.442H68.3972V32.6768H59.1921V31.6823H67.8627V27.3874H56.9111V29.1526ZM72.0644 19.5311H69.8144V27.201H77.4346V24.2424H80.3807V27.8847H82.6183V18.6112H80.3807V22.4088H77.4346V19.5311H75.2157V21.663H72.0644V19.5311ZM71.8655 34.442H82.6183V28.5249H71.8655V34.442ZM72.0644 25.4171V23.4095H75.2157V25.4171H72.0644ZM74.1093 32.6457V30.3025H80.4242V32.6457H74.1093ZM102.393 30.9365H96.1529V27.9717H100.771V19.6367H98.5334V22.1291H91.5597V19.6367H89.3097V27.9717H93.934V30.9365H87.762V32.7576H102.393V30.9365ZM91.5597 26.1816V23.9068H98.5334V26.1816H91.5597ZM116.254 18.6112H114.022V24.3854H111.449V26.2189H114.022V34.6595H116.254V18.6112ZM103.301 21.7686H108.36V24.1678H103.338V30.9302H104.656C107.335 30.9302 109.51 30.8432 111.884 30.4454L111.704 28.6243C109.641 28.9786 107.776 29.0594 105.576 29.078V25.9517H110.554V19.9599H103.301V21.7686ZM130.413 18.6112H128.169V34.5849H130.413V26.5981H132.675V24.7459H130.413V18.6112ZM117.621 30.1036L118.883 31.8191C124.259 29.1775 126.13 25.038 126.143 20.2521H118.523V22.0856H123.855C123.433 25.6533 121.4 28.2017 117.621 30.1036ZM146.25 18.6112H143.981V34.6222H146.25V18.6112ZM132.862 30.0912L134.03 31.875C139.748 29.1775 141.451 25.1436 141.458 20.2956H133.719V22.0546H139.17C138.81 25.6098 136.989 28.1333 132.862 30.0912Z" fill="#FF8A33"/>
<path d="M170.552 19L178 26M178 26L170.552 33M178 26H161" stroke="#FF8A33" stroke-width="2" stroke-linecap="round" stroke-linejoin="round"/>
<rect x="0.5" y="0.5" width="203" height="52" rx="7.5" stroke="#FF8A33"/>
</svg>
