<svg width="566" height="140" viewBox="0 0 566 140" fill="none" xmlns="http://www.w3.org/2000/svg">
<path d="M31.0912 19.0249V54.6878H26.1188V34.0663H16.4088V30.047H26.1188V19.0249H31.0912ZM2.88674 46.3039V22.8508H7.90055V42.1464C12.4171 42.0635 17.058 41.6906 21.8923 40.7514L22.4171 44.826C16.6713 46.0276 11.2155 46.3177 5.88398 46.3039H2.88674ZM45.1256 21.4144C50.7885 21.4144 54.9736 25.047 55.0013 30.1436C54.9736 35.2541 50.7885 38.8729 45.1256 38.8729C39.5316 38.8729 35.2499 35.2541 35.2637 30.1436C35.2499 25.047 39.5316 21.4144 45.1256 21.4144ZM33.7858 43.3619C40.1256 43.3619 48.9101 43.279 56.5206 42.2155L56.8935 45.8066C49.0206 47.3398 40.5814 47.4088 34.3521 47.4088L33.7858 43.3619ZM40.2084 30.1436C40.2084 32.9613 42.3355 34.5635 45.1256 34.5635C47.9709 34.5635 50.1256 32.9613 50.1394 30.1436C50.1256 27.3674 47.9847 25.7238 45.1256 25.7238C42.3217 25.7238 40.2084 27.3674 40.2084 30.1436ZM58.5372 54.6878V19.0249H63.4957V54.6878H58.5372ZM84.9146 21.4144C90.5776 21.4144 94.7627 25.047 94.7903 30.1436C94.7627 35.2541 90.5776 38.8729 84.9146 38.8729C79.3207 38.8729 75.0389 35.2541 75.0527 30.1436C75.0389 25.047 79.3207 21.4144 84.9146 21.4144ZM73.5748 43.3619C79.9146 43.3619 88.6992 43.279 96.3097 42.2155L96.6826 45.8066C88.8097 47.3398 80.3704 47.4088 74.1411 47.4088L73.5748 43.3619ZM79.9975 30.1436C79.9975 32.9613 82.1246 34.5635 84.9146 34.5635C87.7599 34.5635 89.9146 32.9613 89.9284 30.1436C89.9146 27.3674 87.7737 25.7238 84.9146 25.7238C82.1108 25.7238 79.9975 27.3674 79.9975 30.1436ZM98.3262 54.6878V19.0249H103.285V54.6878H98.3262ZM124.93 22.2707V46.1243H107.761V22.2707H124.93ZM112.72 42.174H120.095V26.1519H112.72V42.174ZM130.703 54.6878V19.0249H135.745V54.6878H130.703Z" fill="#FF8A33"/>
<path d="M159.235 27.0912C159.222 33.7762 161.915 40.2818 167.826 42.837L164.815 46.8011C160.851 44.895 158.199 41.3591 156.722 36.9669C155.188 41.6215 152.454 45.4475 148.393 47.4503L145.271 43.4033C151.349 40.6409 154.139 33.7762 154.166 27.0912V21.7735H159.235V27.0912ZM163.876 34.2459V30.2265H170.838V19.0249H175.768V54.6878H170.838V34.2459H163.876ZM208.104 19.0249V54.6878H203.063V19.0249H208.104ZM180.121 46.3591V21.884H185.107V30.5166H192.772V21.884H197.676V46.3591H180.121ZM185.107 42.3122H192.772V34.3978H185.107V42.3122ZM229.625 23.721C229.611 28.942 234.224 34.5083 242.277 35.8757L240.08 40.0193C233.879 38.7901 229.279 35.2956 226.986 30.7376C224.652 35.268 220.039 38.7762 213.879 40.0193L211.738 35.8757C219.638 34.4669 224.279 28.8867 224.307 23.721V21.1657H229.625V23.721ZM210.923 50.2403V46.1381H243.437V50.2403H210.923Z" fill="#1C1A19"/>
<path fill-rule="evenodd" clip-rule="evenodd" d="M299.615 14.742C297.486 15.1914 295.988 16.3976 293.202 19.969C292.414 20.986 291.626 21.8138 291.442 21.8138C290.89 21.8138 289.366 22.6652 288.761 23.8478C288.446 24.4629 287.841 25.267 287.421 25.6691C285.949 27.3956 287.947 27.4666 284.583 31.3691C279.485 37.3293 277.435 40.2858 277.251 41.8941C277.04 43.8809 273.361 54.4295 274.097 56.2507C274.596 57.5278 276.278 57.7881 278.722 57.1257C283.111 55.9431 290.969 50.7398 292.467 49.581C294.385 48.0908 299.772 39.5289 300.429 39.5053C301.165 39.4816 302.689 38.8193 302.952 38.5828C304.161 37.4949 307.604 32.2679 307.919 30.9197C308.05 30.3521 307.866 29.8318 307.866 29.1695C307.866 28.7674 308.524 27.8451 309.811 26.4022C312.387 23.5404 312.413 23.4695 310.889 20.6312C308.156 15.688 304.476 13.7486 299.615 14.742ZM303.057 15.9246C305.317 16.4213 307.472 18.1242 308.76 20.3711C309.995 22.5707 309.759 23.1147 305.738 27.5377C305.633 27.6322 305.317 27.0173 304.844 26.3786C303.031 23.8716 300.035 22.0504 296.014 21.672C294.464 21.53 294.096 22.0739 296.803 18.7628C297.749 17.6039 298.301 16.9652 298.721 16.5632C299.431 15.9246 300.955 15.4752 303.057 15.9246ZM296.908 23.3512C300.561 24.4156 301.848 25.1014 303.977 28.6727C305.344 30.967 305.212 30.7069 303.662 32.3861C303.057 33.0484 303.005 33.0484 302.821 32.6227C302.19 31.0379 301.665 30.1865 300.167 28.8857C297.407 26.757 296.645 27.3247 298.879 29.6426C301.428 32.3152 301.954 33.8526 300.981 35.8393C300.403 36.9983 299.983 37.4002 299.851 36.9036C298.196 31.3927 294.543 29.0513 290.443 28.7201C288.735 28.5782 288.498 28.2235 289.445 27.2774C290.023 26.7097 290.864 26.9699 292.913 27.2065C293.833 27.3247 293.886 26.1895 292.861 25.9529C291.521 25.6453 291.074 25.2434 292.099 23.8243C293.045 22.5707 293.938 22.4761 296.908 23.3512ZM294.438 24.4865C293.938 24.7703 293.807 25.3616 295.515 25.9056C297.144 26.426 297.985 26.0474 297.985 25.3852C297.985 25.1251 297.775 24.723 297.066 24.5812C296.12 24.3682 294.727 24.3209 294.438 24.4865ZM291.862 30.1865C292.151 30.3521 292.178 30.3757 291.205 31.6766C288.814 34.8696 287.841 36.0994 287.132 36.8327C286.738 37.2348 285.844 38.441 285.135 39.5053C282.848 43.0058 280.851 44.1175 279.984 42.3671C279.669 41.7523 279.747 41.0427 280.141 40.4986C281.271 38.9376 287.395 30.2575 288.893 29.9027C290.128 29.5952 291.415 29.9264 291.862 30.1865ZM294.937 31.5819C296.882 33.4031 297.144 34.5622 295.62 36.2414C292.782 39.3871 288.314 44.8033 286.527 45.9623C285.319 46.7428 284.74 44.4721 285.082 43.0531C285.529 41.1372 287.316 38.5592 291.258 33.8999C293.518 31.18 293.912 30.636 294.937 31.5819ZM297.644 37.424C297.723 37.9442 298.038 38.6537 297.407 39.4344C296.96 40.0019 295.515 42.1542 294.359 43.8808C292.362 46.9082 289.734 48.9186 289.523 48.3984C289.261 47.7598 290.758 44.7323 292.151 43.0058C295.646 38.7722 297.302 35.3426 297.644 37.424ZM283.032 44.9924C283.111 46.861 284.346 47.6651 286.396 47.1684C287.71 46.861 287.71 46.8372 287.184 47.9489C286.948 48.4455 286.817 49.1551 286.869 49.5337C287 50.2906 286.711 50.385 284.688 51.5441C284.399 51.7095 284.031 51.6386 283.847 51.3785C282.796 49.9356 281.324 49.2024 279.668 48.9659C278.013 48.7294 278.118 48.9897 278.617 46.6245L279.038 44.6141C279.379 44.6141 280.641 44.8742 281.823 44.4011C282.323 44.212 282.848 44.0228 282.848 44.0228C282.848 44.0228 283.032 44.472 283.032 44.9924Z" fill="#FF8A33"/>
<path d="M5.71202 89.8605C8.20442 89.8605 9.98826 91.4019 10.0007 93.6146C9.98826 95.8336 8.20442 97.3688 5.71202 97.3688C3.23204 97.3688 1.41091 95.8336 1.42334 93.6146C1.41091 91.4019 3.23204 89.8605 5.71202 89.8605ZM0.665055 99.7431C3.5366 99.7493 7.50829 99.7182 10.9517 99.221L11.0822 100.439C7.5145 101.117 3.68577 101.135 0.870166 101.135L0.665055 99.7431ZM3.07044 93.6146C3.05801 95.0069 4.18301 95.9206 5.71202 95.9206C7.24102 95.9206 8.36602 95.0069 8.37224 93.6146C8.36602 92.2286 7.24102 91.3087 5.71202 91.3087C4.18301 91.3087 3.05801 92.2286 3.07044 93.6146ZM11.9399 104.523V88.7417H13.6057V104.523H11.9399ZM23.8613 90.2521V100.601H16.4711V90.2521H23.8613ZM18.1244 99.2583H22.239V91.576H18.1244V99.2583ZM26.969 104.523V88.7417H28.6472V104.523H26.969ZM47.5618 88.7417V104.492H45.8837V88.7417H47.5618ZM34.6212 100.271C38.8105 98.2825 40.8491 95.442 41.1786 91.7686H35.3857V90.4385H42.8816C42.8692 95.0442 40.9113 99.0407 35.5038 101.62L34.6212 100.271ZM63.8775 97.3377V98.6989H49.4638V97.3377H55.8533V95.846H51.3161V91.837H60.3969V90.4323H51.2725V89.1084H62.0626V93.0739H52.9694V94.5345H62.3858V95.846H57.4942V97.3377H63.8775ZM51.0799 101.135V99.7928H62.1496V104.367H60.4714V101.135H51.0799ZM74.0408 92.7507C74.0346 95.6347 75.6506 98.5062 78.056 99.5877L77.0491 100.93C75.2528 100.029 73.8979 98.2514 73.2079 96.0946C72.5118 98.3633 71.1382 100.278 69.3295 101.216L68.2729 99.8736C70.7093 98.7051 72.3378 95.6657 72.3502 92.7507V90.0532H74.0408V92.7507ZM76.3281 95.3301V93.9751H79.8399V88.7417H81.4932V104.523H79.8399V95.3301H76.3281ZM96.4228 88.7417V104.523H94.7446V88.7417H96.4228ZM84.2467 100.756V90.0532H85.9124V94.0994H90.1638V90.0532H91.8109V100.756H84.2467ZM85.9124 99.3764H90.1638V95.4233H85.9124V99.3764ZM106.392 90.9793C106.392 93.5401 109.121 95.9703 112.142 96.511L111.383 97.9033C108.86 97.3564 106.548 95.7093 105.522 93.4965C104.484 95.6968 102.178 97.3501 99.6549 97.9033L98.909 96.511C101.905 95.9517 104.621 93.5401 104.633 90.9793V89.7921H106.392V90.9793ZM98.3932 102.422V101.036H112.807V102.422H98.3932ZM127.799 95.9703V97.2507H113.385V95.9703H127.799ZM115.094 99.5566V98.3508H126.027V101.825H116.779V103.124H126.518V104.305H115.113V100.713H124.374V99.5566H115.094ZM115.194 90.3267V89.1519H125.984V92.558H116.89V93.7576H126.257V94.9323H115.237V91.4579H124.318V90.3267H115.194ZM145.787 88.7417V104.492H144.202V88.7417H145.787ZM132.045 100.16C134.276 98.8046 135.414 95.9392 135.414 93.136V91.8743H132.53V90.5131H139.74V91.8743H137.023V93.136C137.023 95.8336 138.111 98.5249 140.324 99.799L139.329 101.03C137.819 100.128 136.787 98.5249 136.24 96.6229C135.681 98.6802 134.612 100.439 133.077 101.396L132.045 100.16ZM138.565 95.6782V94.3232H141.02V89.0773H142.592V103.696H141.02V95.6782H138.565ZM154.402 98.643C157.808 98.643 159.959 99.7182 159.971 101.564C159.959 103.392 157.808 104.467 154.402 104.467C151.021 104.467 148.858 103.392 148.858 101.564C148.858 99.7182 151.021 98.643 154.402 98.643ZM147.316 97.3377V95.9827H153.059V93.0304H154.7V95.9827H161.637V97.3377H147.316ZM148.988 90.855V89.5124H159.853V90.8363C159.853 92.0919 159.853 93.3971 159.412 95.0193L157.771 94.8515C158.193 93.2293 158.193 92.0794 158.193 90.855H148.988ZM150.523 101.564C150.511 102.577 152.015 103.168 154.402 103.168C156.801 103.168 158.299 102.577 158.311 101.564C158.299 100.526 156.801 99.9109 154.402 99.9047C152.015 99.9109 150.511 100.526 150.523 101.564ZM174.584 88.7417V95.125H177.107V96.511H174.584V104.492H172.93V88.7417H174.584ZM162.227 92.5704V91.2093H166.112V88.9468H167.778V91.2093H171.557V92.5704H162.227ZM163.035 97.3999C163.029 95.2493 164.682 93.7327 166.957 93.7327C169.207 93.7327 170.861 95.2493 170.867 97.3999C170.861 99.5566 169.207 101.055 166.957 101.061C164.682 101.055 163.029 99.5566 163.035 97.3999ZM164.633 97.3999C164.62 98.761 165.608 99.6747 166.957 99.6685C168.287 99.6747 169.263 98.761 169.276 97.3999C169.263 96.0449 168.287 95.1126 166.957 95.1126C165.608 95.1126 164.62 96.0449 164.633 97.3999ZM190.079 93.3536V94.6899H179.227V89.3135H180.88V93.3536H190.079ZM177.306 98.009V96.6727H191.72V98.009H177.306ZM179.109 104.119V99.5069H180.768V102.758H190.178V104.119H179.109ZM196.283 95.1312L197.694 90.2707H199.185L198.247 95.1312H196.283ZM213.044 88.7417V104.523H211.378V95.1996H206.673V93.8322H211.378V88.7417H213.044ZM200.744 100.738V90.482H202.422V99.3329C204.678 99.308 206.798 99.1651 209.097 98.7113L209.29 100.085C206.76 100.607 204.479 100.738 201.993 100.738H200.744ZM220.043 89.8605C222.535 89.8605 224.319 91.4019 224.331 93.6146C224.319 95.8336 222.535 97.3688 220.043 97.3688C217.563 97.3688 215.742 95.8336 215.754 93.6146C215.742 91.4019 217.563 89.8605 220.043 89.8605ZM214.996 99.7431C217.867 99.7493 221.839 99.7182 225.282 99.221L225.413 100.439C221.845 101.117 218.017 101.135 215.201 101.135L214.996 99.7431ZM217.401 93.6146C217.389 95.0069 218.514 95.9206 220.043 95.9206C221.572 95.9206 222.697 95.0069 222.703 93.6146C222.697 92.2286 221.572 91.3087 220.043 91.3087C218.514 91.3087 217.389 92.2286 217.401 93.6146ZM226.271 104.523V88.7417H227.936V104.523H226.271ZM238.914 89.8605C241.406 89.8605 243.19 91.4019 243.203 93.6146C243.19 95.8336 241.406 97.3688 238.914 97.3688C236.434 97.3688 234.613 95.8336 234.625 93.6146C234.613 91.4019 236.434 89.8605 238.914 89.8605ZM233.867 99.7431C236.739 99.7493 240.71 99.7182 244.154 99.221L244.284 100.439C240.716 101.117 236.888 101.135 234.072 101.135L233.867 99.7431ZM236.272 93.6146C236.26 95.0069 237.385 95.9206 238.914 95.9206C240.443 95.9206 241.568 95.0069 241.574 93.6146C241.568 92.2286 240.443 91.3087 238.914 91.3087C237.385 91.3087 236.26 92.2286 236.272 93.6146ZM245.142 104.523V88.7417H246.808V104.523H245.142ZM257.063 90.2521V100.601H249.673V90.2521H257.063ZM251.326 99.2583H255.441V91.576H251.326V99.2583ZM260.171 104.523V88.7417H261.849V104.523H260.171ZM266.803 90.2769L265.392 95.1374H263.9L264.839 90.2769H266.803ZM268.393 101.769L266.982 106.63H265.49L266.429 101.769H268.393ZM290.883 88.7417V104.492H289.279V96.2873H287.34V103.715H285.755V89.0463H287.34V94.9075H289.279V88.7417H290.883ZM277.867 100.34V90.5131H283.984V100.34H277.867ZM279.44 99.0159H282.417V91.837H279.44V99.0159ZM296.819 89.2825C299.187 89.2887 300.933 90.7431 300.946 92.8128C300.933 94.8764 299.187 96.3184 296.819 96.3184C294.419 96.3184 292.673 94.8764 292.673 92.8128C292.673 90.7431 294.419 89.2887 296.819 89.2825ZM294.301 92.8128C294.289 94.1057 295.364 94.9634 296.819 94.9634C298.261 94.9634 299.33 94.1057 299.33 92.8128C299.33 91.5262 298.261 90.6623 296.819 90.6685C295.364 90.6623 294.289 91.5262 294.301 92.8128ZM295.06 98.8108V97.4869H305.421V101.446H296.732V102.956H305.937V104.293H295.109V100.203H303.761V98.8108H295.06ZM303.749 96.7597V88.7417H305.421V96.7597H303.749ZM316.075 93.0055C316.069 95.6285 317.15 98.2638 319.295 99.4137L318.3 100.738C316.821 99.9047 315.814 98.4068 315.261 96.6105C314.683 98.5684 313.601 100.234 312.072 101.142L311.009 99.9233C313.259 98.6119 314.459 95.8025 314.459 93.1174V90.1775H316.075V93.0055ZM319.68 103.715V89.0463H321.277V95.0131H323.167V88.7417H324.77V104.492H323.167V96.3743H321.277V103.715H319.68ZM340.632 96.7286V98.0711H326.219V96.7286H332.608V95.3985H328.071V91.576H337.152V90.3391H328.027V89.0463H338.818V92.8004H329.724V94.1057H339.141V95.3985H334.249V96.7286H340.632ZM328.121 104.293V98.7921H329.78V100.166H337.195V98.7921H338.836V104.293H328.121ZM329.78 102.975H337.195V101.446H329.78V102.975ZM354.798 88.7417V104.492H353.213V88.7417H354.798ZM341.198 99.942C344.542 97.9593 346.146 95.3052 346.425 92.0732H341.944V90.6996H348.091C348.085 92.241 347.867 93.7079 347.389 95.0753H349.894V89.1457H351.472V103.727H349.894V96.4116H346.811C345.872 98.2327 344.374 99.8363 342.162 101.129L341.198 99.942ZM373.638 88.7417V104.492H372.053V88.7417H373.638ZM359.895 100.16C362.127 98.8046 363.264 95.9392 363.264 93.136V91.8743H360.38V90.5131H367.59V91.8743H364.874V93.136C364.874 95.8336 365.962 98.5249 368.174 99.799L367.18 101.03C365.669 100.128 364.638 98.5249 364.091 96.6229C363.531 98.6802 362.462 100.439 360.927 101.396L359.895 100.16ZM366.415 95.6782V94.3232H368.87V89.0773H370.443V103.696H368.87V95.6782H366.415ZM382.252 98.643C385.658 98.643 387.809 99.7182 387.821 101.564C387.809 103.392 385.658 104.467 382.252 104.467C378.871 104.467 376.708 103.392 376.708 101.564C376.708 99.7182 378.871 98.643 382.252 98.643ZM375.167 97.3377V95.9827H380.91V93.0304H382.551V95.9827H389.487V97.3377H375.167ZM376.839 90.855V89.5124H387.703V90.8363C387.703 92.0919 387.703 93.3971 387.262 95.0193L385.621 94.8515C386.044 93.2293 386.044 92.0794 386.044 90.855H376.839ZM378.374 101.564C378.361 102.577 379.866 103.168 382.252 103.168C384.652 103.168 386.149 102.577 386.162 101.564C386.149 100.526 384.652 99.9109 382.252 99.9047C379.866 99.9109 378.361 100.526 378.374 101.564ZM399.544 95.4109V96.7721H396.231V99.6934C397.685 99.6312 399.152 99.538 400.532 99.3826L400.663 100.613C397.188 101.129 393.453 101.179 390.451 101.179L390.246 99.7928C391.576 99.7928 393.049 99.7866 394.559 99.7493V96.7721H391.389V90.2086H399.476V91.5511H393.036V95.4109H399.544ZM401.52 104.523V88.7417H403.186V104.523H401.52ZM417.929 93.3536V94.6899H407.077V89.3135H408.73V93.3536H417.929ZM405.156 98.009V96.6727H419.57V98.009H405.156ZM406.959 104.119V99.5069H408.619V102.758H418.029V104.119H406.959ZM13.6243 117.742V125.89H11.9772V117.742H13.6243ZM0.752072 124.641C3.20097 123.876 4.71754 121.974 4.72997 119.942H1.18715V118.587H9.8826V119.942H6.41436C6.41436 121.863 7.91851 123.64 10.3674 124.336L9.55939 125.623C7.70097 125.07 6.3087 123.883 5.60014 122.366C4.89779 124.038 3.46202 125.349 1.52279 125.959L0.752072 124.641ZM3.28798 127.898V126.611H13.6492V130.508H4.95995V132.025H14.1651V133.343H3.33771V129.29H11.9896V127.898H3.28798ZM29.9897 125.704V127.065H23.7432V130.117H22.0898V127.065H15.576V125.704H29.9897ZM17.3723 133.169V128.625H19.038V131.801H28.3923V133.169H17.3723ZM17.4282 124.075V118.481H28.1251V124.075H17.4282ZM19.0629 122.758H26.478V119.799H19.0629V122.758ZM44.161 117.742V133.492H42.5575V117.742H44.161ZM30.7916 124.541C30.7916 121.135 32.1279 119.003 34.179 119.003C36.0934 119.003 37.3924 120.818 37.5913 123.777H39.3689V118.046H40.9601V132.715H39.3689V125.132H37.5975C37.4421 128.209 36.1307 130.11 34.179 130.104C32.1279 130.11 30.7916 127.966 30.7916 124.541ZM32.3454 124.541C32.333 127.052 33.0478 128.526 34.179 128.513C35.3413 128.526 36.0623 127.052 36.0623 124.541C36.0623 122.037 35.3413 120.57 34.179 120.57C33.0478 120.57 32.333 122.037 32.3454 124.541ZM61.8637 117.742V121.34H64.1448V122.733H61.8637V126.151H60.1917V117.742H61.8637ZM50.1911 125.666V118.749H57.1772V120.11H51.8444V124.293C54.9086 124.287 56.6303 124.193 58.613 123.771L58.8057 125.132C56.6676 125.573 54.8091 125.666 51.4404 125.666H50.1911ZM51.7636 133.256V126.965H53.4231V128.756H60.1917V126.965H61.8637V133.256H51.7636ZM53.4231 131.894H60.1917V130.092H53.4231V131.894ZM71.6718 118.003C75.2208 118.003 77.2906 118.96 77.2906 120.706C77.2906 122.478 75.2208 123.435 71.6718 123.448C68.1228 123.435 66.0406 122.478 66.0406 120.706C66.0406 118.96 68.1228 118.003 71.6718 118.003ZM64.5053 125.741V124.405H78.8631V125.741H64.5053ZM66.2146 128.202V126.953H77.0419V130.639H67.8803V132.05H77.4957V133.343H66.2457V129.439H75.4011V128.202H66.2146ZM67.7871 120.706C67.7747 121.689 69.1669 122.192 71.6718 122.192C74.1953 122.192 75.5813 121.689 75.5813 120.706C75.5813 119.787 74.1953 119.24 71.6718 119.246C69.1669 119.24 67.7747 119.787 67.7871 120.706ZM95.6459 117.742V124.125H98.1693V125.511H95.6459V133.492H93.9925V117.742H95.6459ZM83.2895 121.57V120.209H87.1742V117.947H88.8399V120.209H92.6189V121.57H83.2895ZM84.0975 126.4C84.0913 124.249 85.7446 122.733 88.0195 122.733C90.2695 122.733 91.9228 124.249 91.929 126.4C91.9228 128.557 90.2695 130.055 88.0195 130.061C85.7446 130.055 84.0913 128.557 84.0975 126.4ZM85.6949 126.4C85.6825 127.761 86.6707 128.675 88.0195 128.669C89.3496 128.675 90.3254 127.761 90.3378 126.4C90.3254 125.045 89.3496 124.113 88.0195 124.113C86.6707 124.113 85.6825 125.045 85.6949 126.4ZM106.312 119.252V121.452H109.873V117.742H111.526V133.523H109.873V127.121H106.312V129.557H99.0085V119.252H106.312ZM100.662 128.227H104.683V120.564H100.662V128.227ZM106.312 125.772H109.873V122.814H106.312V125.772ZM129.639 117.754V122.403H131.92V123.802H129.639V129.334H127.967V117.754H129.639ZM117.867 126.723V118.879H119.514V121.409H123.641V118.879H125.295V126.723H117.867ZM119.514 125.393H123.641V122.714H119.514V125.393ZM119.657 133.169V128.184H121.317V131.801H130.311V133.169H119.657ZM145.396 117.742V133.523H143.742V126.934H140.659V125.542H143.742V122.633H140.746V121.253H143.742V117.742H145.396ZM132.816 120.489V119.134H139.795V124.883H134.519V128.501C136.744 128.488 138.627 128.395 140.877 128.053L141.02 129.433C138.552 129.818 136.539 129.893 134.052 129.893H132.865V123.559H138.161V120.489H132.816ZM165.529 125.405V126.742H151.152V125.405H157.523V123.733H152.942V118.469H163.757V119.787H154.596V122.397H163.85V123.733H159.151V125.405H165.529ZM152.849 130.633C152.849 128.805 154.9 127.773 158.312 127.773C161.706 127.773 163.745 128.805 163.757 130.633C163.745 132.454 161.706 133.479 158.312 133.492C154.9 133.479 152.849 132.454 152.849 130.633ZM154.546 130.633C154.533 131.64 155.907 132.193 158.312 132.18C160.693 132.193 162.079 131.64 162.091 130.633C162.079 129.632 160.693 129.06 158.312 129.06C155.907 129.06 154.533 129.632 154.546 130.633ZM180.527 124.262V125.592H174.162V126.972H178.705V130.664H169.544V132.05H179.159V133.343H167.909V129.452H177.065V128.246H167.878V126.972H172.49V125.592H166.169V124.262H180.527ZM168.002 123.099V118.245H178.674V123.099H168.002ZM169.637 121.788H177.009V119.563H169.637V121.788ZM186.313 118.86C188.806 118.86 190.589 120.402 190.602 122.615C190.589 124.834 188.806 126.369 186.313 126.369C183.833 126.369 182.012 124.834 182.025 122.615C182.012 120.402 183.833 118.86 186.313 118.86ZM181.266 128.743C184.138 128.749 188.109 128.718 191.553 128.221L191.683 129.439C188.116 130.117 184.287 130.135 181.471 130.135L181.266 128.743ZM183.672 122.615C183.659 124.007 184.784 124.921 186.313 124.921C187.842 124.921 188.967 124.007 188.973 122.615C188.967 121.229 187.842 120.309 186.313 120.309C184.784 120.309 183.659 121.229 183.672 122.615ZM192.541 133.523V117.742H194.207V133.523H192.541ZM205.184 118.86C207.677 118.86 209.461 120.402 209.473 122.615C209.461 124.834 207.677 126.369 205.184 126.369C202.704 126.369 200.883 124.834 200.896 122.615C200.883 120.402 202.704 118.86 205.184 118.86ZM200.137 128.743C203.009 128.749 206.981 128.718 210.424 128.221L210.555 129.439C206.987 130.117 203.158 130.135 200.343 130.135L200.137 128.743ZM202.543 122.615C202.53 124.007 203.655 124.921 205.184 124.921C206.713 124.921 207.838 124.007 207.845 122.615C207.838 121.229 206.713 120.309 205.184 120.309C203.655 120.309 202.53 121.229 202.543 122.615ZM211.412 133.523V117.742H213.078V133.523H211.412ZM223.334 119.252V129.601H215.943V119.252H223.334ZM217.597 128.258H221.711V120.576H217.597V128.258ZM226.441 133.523V117.742H228.12V133.523H226.441ZM244.479 124.97V126.251H230.065V124.97H244.479ZM231.774 128.557V127.351H242.707V130.825H233.459V132.124H243.198V133.305H231.793V129.713H241.054V128.557H231.774ZM231.874 119.327V118.152H242.664V121.558H233.571V122.758H242.937V123.932H231.917V120.458H240.998V119.327H231.874ZM258.34 124.411V125.772H255.027V128.693C256.482 128.631 257.949 128.538 259.328 128.383L259.459 129.613C255.985 130.129 252.249 130.179 249.247 130.179L249.042 128.793C250.372 128.793 251.845 128.787 253.355 128.749V125.772H250.186V119.209H258.272V120.551H251.833V124.411H258.34ZM260.317 133.523V117.742H261.982V133.523H260.317ZM268.826 122.006C268.82 124.628 269.901 127.264 272.045 128.414L271.051 129.738C269.572 128.905 268.565 127.407 268.012 125.61C267.433 127.568 266.352 129.234 264.823 130.142L263.76 128.923C266.01 127.612 267.21 124.802 267.21 122.117V119.177H268.826V122.006ZM272.431 132.715V118.046H274.028V124.013H275.918V117.742H277.521V133.492H275.918V125.374H274.028V132.715H272.431ZM287.006 119.439C287.006 120.309 286.931 121.154 286.782 121.981H290.456V117.723H292.109V133.485H290.456V127.568H286.223V126.207H290.456V123.317H286.459C285.57 126.238 283.525 128.78 279.821 130.595L278.945 129.259C282.991 127.264 284.998 124.411 285.322 120.769H279.653V119.439H287.006ZM312.279 130.16V131.54H297.866V130.16H304.205V126.928H299.506V118.817H301.178V121.533H308.91V118.817H310.57V126.928H305.859V130.16H312.279ZM301.178 125.573H308.91V122.876H301.178V125.573ZM317.68 122.043C317.68 124.566 318.731 127.245 320.844 128.532L319.906 129.825C318.433 128.936 317.438 127.357 316.897 125.536C316.319 127.531 315.238 129.234 313.709 130.166L312.665 128.923C314.896 127.593 316.064 124.802 316.064 122.117V119.177H317.68V122.043ZM319.129 124.666V123.28H321.584V118.046H323.156V132.715H321.584V124.666H319.129ZM324.822 133.492V117.742H326.426V133.492H324.822ZM342.312 130.148V131.528H327.899V130.148H331.348V126.027C330.049 125.318 329.26 124.187 329.26 122.776C329.26 120.296 331.69 118.668 335.065 118.655C338.453 118.668 340.889 120.296 340.889 122.776C340.889 124.169 340.125 125.281 338.857 125.996V130.148H342.312ZM330.882 122.776C330.882 124.461 332.598 125.561 335.065 125.561C337.52 125.561 339.261 124.461 339.261 122.776C339.261 121.073 337.52 119.992 335.065 120.004C332.598 119.992 330.882 121.073 330.882 122.776ZM332.989 130.148H337.172V126.636C336.526 126.785 335.817 126.866 335.065 126.866C334.319 126.866 333.623 126.785 332.989 126.642V130.148ZM344.705 132.118C344.016 132.118 343.444 131.559 343.456 130.875C343.444 130.191 344.016 129.632 344.705 129.632C345.377 129.632 345.949 130.191 345.949 130.875C345.949 131.559 345.377 132.118 344.705 132.118Z" fill="#666666"/>
</svg>
