<svg width="566" height="173" viewBox="0 0 566 173" fill="none" xmlns="http://www.w3.org/2000/svg">
<path d="M38.864 18.0311H32.6485V31.8087H20.5111V36.8329H32.6485V62.6098H38.864V18.0311ZM3.60843 52.1298H7.35497C14.0193 52.1471 20.8391 51.7845 28.0214 50.2825L27.3653 45.1892C21.3225 46.3633 15.5214 46.8294 9.87569 46.933V22.8135H3.60843V52.1298ZM56.407 21.018C49.4145 21.018 44.0623 25.5587 44.0796 31.9296C44.0623 38.3177 49.4145 42.8412 56.407 42.8412C63.4857 42.8412 68.717 38.3177 68.7516 31.9296C68.717 25.5587 63.4857 21.018 56.407 21.018ZM42.2322 48.4523L42.9401 53.511C50.7267 53.511 61.2757 53.4247 71.1169 51.5083L70.6507 47.0193C61.1376 48.3488 50.157 48.4523 42.2322 48.4523ZM50.2605 31.9296C50.2605 28.4593 52.9021 26.4047 56.407 26.4047C59.9808 26.4047 62.657 28.4593 62.6742 31.9296C62.657 35.4517 59.9636 37.4544 56.407 37.4544C52.9194 37.4544 50.2605 35.4517 50.2605 31.9296ZM73.1715 62.6098H79.3697V18.0311H73.1715V62.6098ZM106.143 21.018C99.1509 21.018 93.7987 25.5587 93.8159 31.9296C93.7987 38.3177 99.1509 42.8412 106.143 42.8412C113.222 42.8412 118.453 38.3177 118.488 31.9296C118.453 25.5587 113.222 21.018 106.143 21.018ZM91.9686 48.4523L92.6764 53.511C100.463 53.511 111.012 53.4247 120.853 51.5083L120.387 47.0193C110.874 48.3488 99.8933 48.4523 91.9686 48.4523ZM99.9969 31.9296C99.9969 28.4593 102.638 26.4047 106.143 26.4047C109.717 26.4047 112.393 28.4593 112.411 31.9296C112.393 35.4517 109.7 37.4544 106.143 37.4544C102.656 37.4544 99.9969 35.4517 99.9969 31.9296ZM122.908 62.6098H129.106V18.0311H122.908V62.6098ZM156.162 22.0884H134.701V51.9054H156.162V22.0884ZM140.9 46.9675V26.9399H150.119V46.9675H140.9ZM163.379 62.6098H169.681V18.0311H163.379V62.6098Z" fill="#FF8A33"/>
<path d="M199.044 28.1139V21.4668H192.708V28.1139C192.673 36.4703 189.186 45.0511 181.589 48.5041L185.491 53.5628C190.567 51.0594 193.985 46.2769 195.902 40.4586C197.749 45.9489 201.064 50.3688 206.019 52.7514L209.783 47.7963C202.394 44.6022 199.027 36.4703 199.044 28.1139ZM204.845 37.0573H213.547V62.6098H219.711V18.0311H213.547V32.0331H204.845V37.0573ZM260.13 18.0311H253.828V62.6098H260.13V18.0311ZM225.151 52.1989H247.095V21.605H240.966V32.3957H231.383V21.605H225.151V52.1989ZM231.383 47.1402V37.2472H240.966V47.1402H231.383ZM287.031 23.9012V20.7072H280.384V23.9012C280.349 30.3584 274.548 37.3336 264.672 39.0946L267.348 44.2742C275.049 42.7203 280.815 38.3349 283.733 32.672C286.599 38.3695 292.348 42.7376 300.1 44.2742L302.846 39.0946C292.78 37.3854 287.013 30.4275 287.031 23.9012ZM263.654 57.0504H304.296V51.9227H263.654V57.0504Z" fill="#1C1A19"/>
<path fill-rule="evenodd" clip-rule="evenodd" d="M360.615 16.3801C358.486 16.8794 356.988 18.2197 354.202 22.1879C353.414 23.3179 352.626 24.2377 352.442 24.2377C351.89 24.2377 350.366 25.1837 349.761 26.4977C349.446 27.1811 348.841 28.0745 348.421 28.5213C346.949 30.4397 348.947 30.5185 345.583 34.8547C340.485 41.4771 338.435 44.7621 338.251 46.5491C338.04 48.7567 334.361 60.4773 335.097 62.5009C335.596 63.9199 337.278 64.2091 339.722 63.4731C344.111 62.1591 351.969 56.3777 353.467 55.0901C355.385 53.4343 360.772 43.9211 361.429 43.8949C362.165 43.8685 363.689 43.1327 363.952 42.8699C365.161 41.6611 368.604 35.8533 368.919 34.3553C369.05 33.7247 368.866 33.1465 368.866 32.4107C368.866 31.9639 369.524 30.9391 370.811 29.3359C373.387 26.1561 373.413 26.0773 371.889 22.9237C369.156 17.4313 365.476 15.2764 360.615 16.3801ZM364.057 17.6941C366.317 18.246 368.472 20.1381 369.76 22.6347C370.995 25.0787 370.759 25.6831 366.738 30.5975C366.633 30.7025 366.317 30.0193 365.844 29.3097C364.031 26.5241 361.035 24.5005 357.014 24.0801C355.464 23.9223 355.096 24.5267 357.803 20.8477C358.749 19.5599 359.301 18.8504 359.721 18.4036C360.431 17.6941 361.955 17.1948 364.057 17.6941ZM357.908 25.9459C361.561 27.1285 362.848 27.8905 364.977 31.8587C366.344 34.4079 366.212 34.1189 364.662 35.9847C364.057 36.7205 364.005 36.7205 363.821 36.2475C363.19 34.4867 362.665 33.5407 361.167 32.0953C358.407 29.7301 357.645 30.3609 359.879 32.9363C362.428 35.9059 362.954 37.6141 361.981 39.8215C361.403 41.1093 360.983 41.5559 360.851 41.0041C359.196 34.8809 355.543 32.2793 351.443 31.9113C349.735 31.7537 349.498 31.3595 350.445 30.3083C351.023 29.6775 351.864 29.9667 353.913 30.2295C354.833 30.3609 354.886 29.0995 353.861 28.8367C352.521 28.4949 352.074 28.0483 353.099 26.4715C354.045 25.0787 354.938 24.9735 357.908 25.9459ZM355.438 27.2073C354.938 27.5227 354.807 28.1797 356.515 28.7841C358.144 29.3623 358.985 28.9417 358.985 28.2059C358.985 27.9169 358.775 27.4701 358.066 27.3125C357.12 27.0759 355.727 27.0233 355.438 27.2073ZM352.862 33.5407C353.151 33.7247 353.178 33.7509 352.205 35.1963C349.814 38.7441 348.841 40.1105 348.132 40.9253C347.738 41.3721 346.844 42.7123 346.135 43.8949C343.848 47.7843 341.851 49.0195 340.984 47.0747C340.669 46.3915 340.747 45.6031 341.141 44.9985C342.271 43.2641 348.395 33.6195 349.893 33.2253C351.128 32.8837 352.415 33.2517 352.862 33.5407ZM355.937 35.0911C357.882 37.1147 358.144 38.4025 356.62 40.2683C353.782 43.7635 349.314 49.7815 347.527 51.0693C346.319 51.9365 345.74 49.4135 346.082 47.8369C346.529 45.7081 348.316 42.8437 352.258 37.6667C354.518 34.6445 354.912 34.0401 355.937 35.0911ZM358.644 41.5823C358.723 42.1603 359.038 42.9487 358.407 43.8161C357.96 44.4467 356.515 46.8381 355.359 48.7565C353.362 52.1203 350.734 54.3541 350.523 53.7761C350.261 53.0665 351.758 49.7027 353.151 47.7843C356.646 43.0803 358.302 39.2697 358.644 41.5823ZM344.032 49.9917C344.111 52.0679 345.346 52.9613 347.396 52.4095C348.71 52.0679 348.71 52.0415 348.184 53.2767C347.948 53.8285 347.817 54.6169 347.869 55.0375C348 55.8785 347.711 55.9835 345.688 57.2713C345.399 57.4551 345.031 57.3763 344.847 57.0873C343.796 55.4841 342.324 54.6695 340.668 54.4067C339.013 54.1439 339.118 54.4331 339.617 51.8051L340.038 49.5713C340.379 49.5713 341.641 49.8603 342.823 49.3347C343.323 49.1245 343.848 48.9143 343.848 48.9143C343.848 48.9143 344.032 49.4135 344.032 49.9917Z" fill="#FF8A33"/>
<path d="M12.8536 92.7417H11.1816V108.473H12.8536V100.418H15.2963V99.0193H12.8536V92.7417ZM0.59047 104.278L1.52279 105.57C6.71271 103.016 8.7203 98.951 8.73274 94.4075H1.37983V95.7873H7.03591C6.68163 99.4606 4.54351 102.307 0.59047 104.278ZM30.3129 98.9261H27.8702V92.7417H26.1983V108.473H27.8702V100.306H30.3129V98.9261ZM16.1976 104.526H17.4904C19.8585 104.526 22.3385 104.371 25.0298 103.836L24.8371 102.425C22.3447 102.935 20.0574 103.122 17.8571 103.14V94.2769H16.1976V104.526ZM42.8869 92.7417H41.2149V108.523H42.8869V100.225H45.4104V98.8391H42.8869V92.7417ZM31.2826 104.613H32.5505C35.4718 104.619 37.5664 104.539 40.0278 104.11L39.8289 102.686C37.5726 103.097 35.5899 103.209 32.9483 103.221V95.6133H38.6479V94.2583H31.2826V104.613ZM53.6024 94.3018H46.2309V104.539H53.6024V94.3018ZM47.8655 103.19V95.6257H51.9367V103.19H47.8655ZM56.2316 108.492H57.9035V100.325H60.427V98.9137H57.9035V92.7417H56.2316V108.492ZM72.9202 92.7417H71.2482V108.492H72.9202V100.256H75.4436V98.8391H72.9202V92.7417ZM61.2475 104.756H68.7185V94.0532H67.0652V98.0994H62.907V94.0532H61.2475V104.756ZM62.907 103.376V99.4233H67.0652V103.376H62.907ZM81.1246 96.7507V94.0532H79.4651V96.7507C79.4527 99.6409 77.818 102.655 75.4002 103.824L76.4382 105.166C78.2282 104.234 79.6081 102.351 80.3104 100.113C81.0003 102.214 82.3304 103.979 84.0521 104.868L85.0777 103.532C82.7407 102.388 81.1122 99.5352 81.1246 96.7507ZM86.2648 108.492H87.9368V100.449H90.4603V99.0256H87.9368V92.7417H86.2648V108.492ZM94.8982 93.9227C92.5425 93.9289 90.8643 96.0732 90.8768 99.4482C90.8643 102.842 92.5425 104.986 94.8982 104.986C97.2539 104.986 98.932 102.842 98.9445 99.4482C98.932 96.0732 97.2539 93.9289 94.8982 93.9227ZM92.4679 99.4482C92.4679 96.9682 93.4624 95.4268 94.8982 95.4144C96.365 95.4268 97.3347 96.9682 97.3409 99.4482C97.3347 101.947 96.365 103.488 94.8982 103.488C93.4624 103.488 92.4679 101.947 92.4679 99.4482ZM101.281 108.492H102.953V100.325H105.477V98.9137H102.953V92.7417H101.281V108.492ZM111.189 97.3909V95.7065H114.608V94.3267H105.987V95.7065H109.536V97.3909C109.523 100.051 107.789 103.022 105.402 104.166L106.391 105.483C108.181 104.595 109.654 102.649 110.375 100.405C111.09 102.463 112.488 104.24 114.259 105.092L115.204 103.774C112.817 102.649 111.177 99.8709 111.189 97.3909ZM116.298 108.492H117.97V100.399H120.494V98.9883H117.97V92.7417H116.298V108.492ZM128.897 94.3391H121.706V95.7003H127.231C127.169 96.5953 127.032 97.4468 126.79 98.261L120.898 98.6464L121.134 100.088L126.286 99.6036C125.348 101.599 123.651 103.296 120.798 104.694L121.718 105.95C127.461 103.115 128.891 98.9945 128.897 94.3391ZM131.315 108.473H132.987V100.405H135.429V99.0318H132.987V92.7417H131.315V108.473ZM143.814 94.1278H136.399V104.769H137.667C140.57 104.762 142.67 104.675 145.107 104.278L144.939 102.916C142.658 103.296 140.713 103.395 138.083 103.407V99.8833H143.503V98.5532H138.083V95.5076H143.814V94.1278ZM146.331 108.492H148.003V100.362H150.527V98.951H148.003V92.7417H146.331V108.492ZM159.769 94.3577H150.937V95.7251H152.559V103.277C151.851 103.283 151.173 103.283 150.546 103.283L150.744 104.682C153.504 104.669 157.221 104.613 160.515 104.066L160.428 102.848C159.689 102.941 158.924 103.01 158.141 103.066V95.7251H159.769V94.3577ZM154.182 103.246V95.7251H156.537V103.165C155.748 103.202 154.952 103.227 154.182 103.246ZM161.348 108.492H163.02V100.331H165.543V98.951H163.02V92.7417H161.348V108.492ZM178.037 92.7417H176.383V108.492H178.037V100.511H180.56V99.125H178.037V92.7417ZM165.68 96.5704H175.01V95.2093H171.231V92.9468H169.565V95.2093H165.68V96.5704ZM166.488 101.4C166.482 103.557 168.135 105.055 170.41 105.061C172.66 105.055 174.314 103.557 174.32 101.4C174.314 99.2493 172.66 97.7327 170.41 97.7327C168.135 97.7327 166.482 99.2493 166.488 101.4ZM168.086 101.4C168.073 100.045 169.061 99.1126 170.41 99.1126C171.74 99.1126 172.716 100.045 172.729 101.4C172.716 102.761 171.74 103.675 170.41 103.669C169.061 103.675 168.073 102.761 168.086 101.4ZM193.053 92.7417H191.381V108.473H193.053V100.418H195.496V99.0193H193.053V92.7417ZM180.79 104.278L181.722 105.57C186.912 103.016 188.92 98.951 188.932 94.4075H181.58V95.7873H187.236C186.881 99.4606 184.743 102.307 180.79 104.278ZM210.513 98.9261H208.07V92.7417H206.398V108.473H208.07V100.306H210.513V98.9261ZM196.397 104.526H197.69C200.058 104.526 202.538 104.371 205.229 103.836L205.037 102.425C202.544 102.935 200.257 103.122 198.057 103.14V94.2769H196.397V104.526ZM223.087 92.7417H221.415V108.523H223.087V100.225H225.61V98.8391H223.087V92.7417ZM211.482 104.613H212.75C215.672 104.619 217.766 104.539 220.227 104.11L220.029 102.686C217.772 103.097 215.79 103.209 213.148 103.221V95.6133H218.848V94.2583H211.482V104.613ZM233.802 94.3018H226.431V104.539H233.802V94.3018ZM228.065 103.19V95.6257H232.136V103.19H228.065ZM236.431 108.492H238.103V100.325H240.627V98.9137H238.103V92.7417H236.431V108.492ZM253.12 92.7417H251.448V108.492H253.12V100.256H255.643V98.8391H253.12V92.7417ZM241.447 104.756H248.918V94.0532H247.265V98.0994H243.107V94.0532H241.447V104.756ZM243.107 103.376V99.4233H247.265V103.376H243.107ZM261.324 96.7507V94.0532H259.665V96.7507C259.652 99.6409 258.018 102.655 255.6 103.824L256.638 105.166C258.428 104.234 259.808 102.351 260.51 100.113C261.2 102.214 262.53 103.979 264.252 104.868L265.277 103.532C262.94 102.388 261.312 99.5352 261.324 96.7507ZM266.465 108.492H268.136V100.449H270.66V99.0256H268.136V92.7417H266.465V108.492ZM275.098 93.9227C272.742 93.9289 271.064 96.0732 271.076 99.4482C271.064 102.842 272.742 104.986 275.098 104.986C277.454 104.986 279.132 102.842 279.144 99.4482C279.132 96.0732 277.454 93.9289 275.098 93.9227ZM272.668 99.4482C272.668 96.9682 273.662 95.4268 275.098 95.4144C276.565 95.4268 277.534 96.9682 277.541 99.4482C277.534 101.947 276.565 103.488 275.098 103.488C273.662 103.488 272.668 101.947 272.668 99.4482ZM281.481 108.492H283.153V100.325H285.677V98.9137H283.153V92.7417H281.481V108.492ZM291.389 97.3909V95.7065H294.807V94.3267H286.186V95.7065H289.735V97.3909C289.723 100.051 287.989 103.022 285.602 104.166L286.59 105.483C288.38 104.595 289.853 102.649 290.574 100.405C291.289 102.463 292.688 104.24 294.459 105.092L295.404 103.774C293.017 102.649 291.376 99.8709 291.389 97.3909ZM296.498 108.492H298.17V100.399H300.693V98.9883H298.17V92.7417H296.498V108.492ZM309.097 94.3391H301.905V95.7003H307.431C307.369 96.5953 307.232 97.4468 306.99 98.261L301.097 98.6464L301.334 100.088L306.486 99.6036C305.548 101.599 303.851 103.296 300.998 104.694L301.918 105.95C307.661 103.115 309.09 98.9945 309.097 94.3391ZM311.514 108.473H313.186V100.405H315.629V99.0318H313.186V92.7417H311.514V108.473ZM324.014 94.1278H316.599V104.769H317.867C320.769 104.762 322.87 104.675 325.307 104.278L325.139 102.916C322.858 103.296 320.912 103.395 318.283 103.407V99.8833H323.703V98.5532H318.283V95.5076H324.014V94.1278ZM326.531 108.492H328.203V100.362H330.727V98.951H328.203V92.7417H326.531V108.492ZM339.969 94.3577H331.137V95.7251H332.759V103.277C332.05 103.283 331.373 103.283 330.745 103.283L330.944 104.682C333.704 104.669 337.421 104.613 340.715 104.066L340.628 102.848C339.888 102.941 339.124 103.01 338.341 103.066V95.7251H339.969V94.3577ZM334.381 103.246V95.7251H336.737V103.165C335.948 103.202 335.152 103.227 334.381 103.246ZM341.548 108.492H343.22V100.331H345.743V98.951H343.22V92.7417H341.548V108.492ZM358.236 92.7417H356.583V108.492H358.236V100.511H360.76V99.125H358.236V92.7417ZM345.88 96.5704H355.209V95.2093H351.43V92.9468H349.765V95.2093H345.88V96.5704ZM346.688 101.4C346.682 103.557 348.335 105.055 350.61 105.061C352.86 105.055 354.513 103.557 354.519 101.4C354.513 99.2493 352.86 97.7327 350.61 97.7327C348.335 97.7327 346.682 99.2493 346.688 101.4ZM348.285 101.4C348.273 100.045 349.261 99.1126 350.61 99.1126C351.94 99.1126 352.916 100.045 352.928 101.4C352.916 102.761 351.94 103.675 350.61 103.669C349.261 103.675 348.273 102.761 348.285 101.4ZM373.253 92.7417H371.581V108.473H373.253V100.418H375.696V99.0193H373.253V92.7417ZM360.99 104.278L361.922 105.57C367.112 103.016 369.12 98.951 369.132 94.4075H361.779V95.7873H367.435C367.081 99.4606 364.943 102.307 360.99 104.278ZM390.712 98.9261H388.27V92.7417H386.598V108.473H388.27V100.306H390.712V98.9261ZM376.597 104.526H377.89C380.258 104.526 382.738 104.371 385.429 103.836L385.236 102.425C382.744 102.935 380.457 103.122 378.256 103.14V94.2769H376.597V104.526ZM403.286 92.7417H401.614V108.523H403.286V100.225H405.81V98.8391H403.286V92.7417ZM391.682 104.613H392.95C395.871 104.619 397.966 104.539 400.427 104.11L400.228 102.686C397.972 103.097 395.989 103.209 393.348 103.221V95.6133H399.047V94.2583H391.682V104.613ZM414.002 94.3018H406.63V104.539H414.002V94.3018ZM408.265 103.19V95.6257H412.336V103.19H408.265ZM416.631 108.492H418.303V100.325H420.826V98.9137H418.303V92.7417H416.631V108.492ZM433.32 92.7417H431.648V108.492H433.32V100.256H435.843V98.8391H433.32V92.7417ZM421.647 104.756H429.118V94.0532H427.465V98.0994H423.306V94.0532H421.647V104.756ZM423.306 103.376V99.4233H427.465V103.376H423.306ZM441.524 96.7507V94.0532H439.864V96.7507C439.852 99.6409 438.217 102.655 435.8 103.824L436.838 105.166C438.628 104.234 440.007 102.351 440.71 100.113C441.4 102.214 442.73 103.979 444.451 104.868L445.477 103.532C443.14 102.388 441.512 99.5352 441.524 96.7507ZM446.664 108.492H448.336V100.449H450.86V99.0256H448.336V92.7417H446.664V108.492ZM455.298 93.9227C452.942 93.9289 451.264 96.0732 451.276 99.4482C451.264 102.842 452.942 104.986 455.298 104.986C457.653 104.986 459.331 102.842 459.344 99.4482C459.331 96.0732 457.653 93.9289 455.298 93.9227ZM452.867 99.4482C452.867 96.9682 453.862 95.4268 455.298 95.4144C456.764 95.4268 457.734 96.9682 457.74 99.4482C457.734 101.947 456.764 103.488 455.298 103.488C453.862 103.488 452.867 101.947 452.867 99.4482ZM461.681 108.492H463.353V100.325H465.876V98.9137H463.353V92.7417H461.681V108.492ZM471.588 97.3909V95.7065H475.007V94.3267H466.386V95.7065H469.935V97.3909C469.923 100.051 468.189 103.022 465.802 104.166L466.79 105.483C468.58 104.595 470.053 102.649 470.774 100.405C471.489 102.463 472.887 104.24 474.659 105.092L475.604 103.774C473.217 102.649 471.576 99.8709 471.588 97.3909ZM476.697 108.492H478.369V100.399H480.893V98.9883H478.369V92.7417H476.697V108.492ZM489.296 94.3391H482.105V95.7003H487.631C487.568 96.5953 487.432 97.4468 487.189 98.261L481.297 98.6464L481.533 100.088L486.686 99.6036C485.747 101.599 484.05 103.296 481.198 104.694L482.117 105.95C487.861 103.115 489.29 98.9945 489.296 94.3391ZM491.714 108.473H493.386V100.405H495.829V99.0318H493.386V92.7417H491.714V108.473ZM504.213 94.1278H496.798V104.769H498.066C500.969 104.762 503.07 104.675 505.506 104.278L505.338 102.916C503.057 103.296 501.112 103.395 498.483 103.407V99.8833H503.903V98.5532H498.483V95.5076H504.213V94.1278ZM506.731 108.492H508.403V100.362H510.926V98.951H508.403V92.7417H506.731V108.492ZM520.169 94.3577H511.336V95.7251H512.959V103.277C512.25 103.283 511.573 103.283 510.945 103.283L511.144 104.682C513.903 104.669 517.62 104.613 520.915 104.066L520.828 102.848C520.088 102.941 519.323 103.01 518.54 103.066V95.7251H520.169V94.3577ZM514.581 103.246V95.7251H516.937V103.165C516.147 103.202 515.352 103.227 514.581 103.246ZM521.747 108.492H523.419V100.331H525.943V98.951H523.419V92.7417H521.747V108.492ZM538.436 92.7417H536.783V108.492H538.436V100.511H540.959V99.125H538.436V92.7417ZM526.08 96.5704H535.409V95.2093H531.63V92.9468H529.964V95.2093H526.08V96.5704ZM526.888 101.4C526.881 103.557 528.535 105.055 530.81 105.061C533.06 105.055 534.713 103.557 534.719 101.4C534.713 99.2493 533.06 97.7327 530.81 97.7327C528.535 97.7327 526.881 99.2493 526.888 101.4ZM528.485 101.4C528.473 100.045 529.461 99.1126 530.81 99.1126C532.14 99.1126 533.116 100.045 533.128 101.4C533.116 102.761 532.14 103.675 530.81 103.669C529.461 103.675 528.473 102.761 528.485 101.4ZM553.453 92.7417H551.781V108.473H553.453V100.418H555.895V99.0193H553.453V92.7417ZM541.19 104.278L542.122 105.57C547.312 103.016 549.319 98.951 549.332 94.4075H541.979V95.7873H547.635C547.281 99.4606 545.143 102.307 541.19 104.278ZM15.2963 127.926H12.8536V121.742H11.1816V137.473H12.8536V129.306H15.2963V127.926ZM1.18094 133.526H2.47376C4.84185 133.526 7.32182 133.371 10.0131 132.836L9.82044 131.425C7.32804 131.935 5.04075 132.122 2.84047 132.14V123.277H1.18094V133.526ZM27.8702 121.742H26.1983V137.523H27.8702V129.225H30.3937V127.839H27.8702V121.742ZM16.266 133.613H17.5339C20.4552 133.619 22.5498 133.539 25.0111 133.11L24.8122 131.686C22.556 132.097 20.5733 132.209 17.9317 132.221V124.613H23.6313V123.258H16.266V133.613ZM38.5858 123.302H31.2142V133.539H38.5858V123.302ZM32.8489 132.19V124.626H36.92V132.19H32.8489ZM41.2149 137.492H42.8869V129.325H45.4104V127.914H42.8869V121.742H41.2149V137.492ZM57.9035 121.742H56.2316V137.492H57.9035V129.256H60.427V127.839H57.9035V121.742ZM46.2309 133.756H53.7019V123.053H52.0485V127.099H47.8904V123.053H46.2309V133.756ZM47.8904 132.376V128.423H52.0485V132.376H47.8904ZM66.108 125.751V123.053H64.4485V125.751C64.436 128.641 62.8014 131.655 60.3836 132.824L61.4215 134.166C63.2116 133.234 64.5914 131.351 65.2938 129.113C65.9837 131.214 67.3138 132.979 69.0355 133.868L70.061 132.532C67.724 131.388 66.0956 128.535 66.108 125.751ZM71.2482 137.492H72.9202V129.449H75.4436V128.026H72.9202V121.742H71.2482V137.492ZM79.8815 122.923C77.5259 122.929 75.8477 125.073 75.8601 128.448C75.8477 131.842 77.5259 133.986 79.8815 133.986C82.2372 133.986 83.9154 131.842 83.9278 128.448C83.9154 125.073 82.2372 122.929 79.8815 122.923ZM77.4513 128.448C77.4513 125.968 78.4458 124.427 79.8815 124.414C81.3484 124.427 82.318 125.968 82.3242 128.448C82.318 130.947 81.3484 132.488 79.8815 132.488C78.4458 132.488 77.4513 130.947 77.4513 128.448ZM86.2648 137.492H87.9368V129.325H90.4603V127.914H87.9368V121.742H86.2648V137.492ZM96.1724 126.391V124.706H99.5909V123.327H90.97V124.706H94.519V126.391C94.5066 129.051 92.7725 132.022 90.3858 133.166L91.374 134.483C93.1641 133.595 94.6371 131.649 95.3581 129.405C96.0729 131.463 97.4714 133.24 99.2428 134.092L100.188 132.774C97.8008 131.649 96.1599 128.871 96.1724 126.391ZM101.281 137.492H102.953V129.399H105.477V127.988H102.953V121.742H101.281V137.492ZM113.88 123.339H106.689V124.7H112.215C112.152 125.595 112.016 126.447 111.773 127.261L105.881 127.646L106.117 129.088L111.27 128.604C110.331 130.599 108.634 132.296 105.782 133.694L106.701 134.95C112.445 132.115 113.874 127.994 113.88 123.339ZM116.298 137.473H117.97V129.405H120.413V128.032H117.97V121.742H116.298V137.473ZM128.797 123.128H121.382V133.769H122.65C125.553 133.762 127.654 133.675 130.09 133.278L129.922 131.916C127.641 132.296 125.696 132.395 123.067 132.407V128.883H128.487V127.553H123.067V124.508H128.797V123.128ZM131.315 137.492H132.987V129.362H135.51V127.951H132.987V121.742H131.315V137.492ZM144.753 123.358H135.92V124.725H137.543V132.277C136.834 132.283 136.157 132.283 135.529 132.283L135.728 133.682C138.487 133.669 142.204 133.613 145.499 133.066L145.412 131.848C144.672 131.941 143.907 132.01 143.124 132.066V124.725H144.753V123.358ZM139.165 132.246V124.725H141.521V132.165C140.731 132.202 139.936 132.227 139.165 132.246ZM146.331 137.492H148.003V129.331H150.527V127.951H148.003V121.742H146.331V137.492ZM163.02 121.742H161.367V137.492H163.02V129.511H165.543V128.125H163.02V121.742ZM150.664 125.57H159.993V124.209H156.214V121.947H154.548V124.209H150.664V125.57ZM151.472 130.4C151.465 132.557 153.119 134.055 155.394 134.061C157.644 134.055 159.297 132.557 159.303 130.4C159.297 128.249 157.644 126.733 155.394 126.733C153.119 126.733 151.465 128.249 151.472 130.4ZM153.069 130.4C153.057 129.045 154.045 128.113 155.394 128.113C156.724 128.113 157.7 129.045 157.712 130.4C157.7 131.761 156.724 132.675 155.394 132.669C154.045 132.675 153.057 131.761 153.069 130.4ZM178.037 121.742H176.365V137.473H178.037V129.418H180.479V128.019H178.037V121.742ZM165.774 133.278L166.706 134.57C171.896 132.016 173.903 127.951 173.916 123.407H166.563V124.787H172.219C171.865 128.461 169.727 131.307 165.774 133.278ZM195.496 127.926H193.053V121.742H191.381V137.473H193.053V129.306H195.496V127.926ZM181.381 133.526H182.673C185.042 133.526 187.522 133.371 190.213 132.836L190.02 131.425C187.528 131.935 185.24 132.122 183.04 132.14V123.277H181.381V133.526ZM208.07 121.742H206.398V137.523H208.07V129.225H210.593V127.839H208.07V121.742ZM196.466 133.613H197.734C200.655 133.619 202.749 133.539 205.211 133.11L205.012 131.686C202.756 132.097 200.773 132.209 198.131 132.221V124.613H203.831V123.258H196.466V133.613ZM218.785 123.302H211.414V133.539H218.785V123.302ZM213.049 132.19V124.626H217.12V132.19H213.049ZM221.415 137.492H223.087V129.325H225.61V127.914H223.087V121.742H221.415V137.492ZM238.103 121.742H236.431V137.492H238.103V129.256H240.627V127.839H238.103V121.742ZM226.431 133.756H233.902V123.053H232.248V127.099H228.09V123.053H226.431V133.756ZM228.09 132.376V128.423H232.248V132.376H228.09ZM246.308 125.751V123.053H244.648V125.751C244.636 128.641 243.001 131.655 240.583 132.824L241.621 134.166C243.411 133.234 244.791 131.351 245.493 129.113C246.183 131.214 247.513 132.979 249.235 133.868L250.261 132.532C247.924 131.388 246.295 128.535 246.308 125.751ZM251.448 137.492H253.12V129.449H255.643V128.026H253.12V121.742H251.448V137.492ZM260.081 122.923C257.726 122.929 256.047 125.073 256.06 128.448C256.047 131.842 257.726 133.986 260.081 133.986C262.437 133.986 264.115 131.842 264.127 128.448C264.115 125.073 262.437 122.929 260.081 122.923ZM257.651 128.448C257.651 125.968 258.645 124.427 260.081 124.414C261.548 124.427 262.518 125.968 262.524 128.448C262.518 130.947 261.548 132.488 260.081 132.488C258.645 132.488 257.651 130.947 257.651 128.448ZM266.465 137.492H268.136V129.325H270.66V127.914H268.136V121.742H266.465V137.492ZM276.372 126.391V124.706H279.791V123.327H271.17V124.706H274.719V126.391C274.706 129.051 272.972 132.022 270.585 133.166L271.574 134.483C273.364 133.595 274.837 131.649 275.558 129.405C276.273 131.463 277.671 133.24 279.442 134.092L280.387 132.774C278 131.649 276.36 128.871 276.372 126.391ZM281.481 137.492H283.153V129.399H285.677V127.988H283.153V121.742H281.481V137.492ZM294.08 123.339H286.889V124.7H292.414C292.352 125.595 292.215 126.447 291.973 127.261L286.081 127.646L286.317 129.088L291.469 128.604C290.531 130.599 288.834 132.296 285.981 133.694L286.901 134.95C292.644 132.115 294.074 127.994 294.08 123.339ZM296.498 137.473H298.17V129.405H300.612V128.032H298.17V121.742H296.498V137.473ZM308.997 123.128H301.582V133.769H302.85C305.753 133.762 307.854 133.675 310.29 133.278L310.122 131.916C307.841 132.296 305.896 132.395 303.267 132.407V128.883H308.686V127.553H303.267V124.508H308.997V123.128ZM311.514 137.492H313.186V129.362H315.71V127.951H313.186V121.742H311.514V137.492ZM324.952 123.358H316.12V124.725H317.742V132.277C317.034 132.283 316.356 132.283 315.729 132.283L315.927 133.682C318.687 133.669 322.404 133.613 325.698 133.066L325.611 131.848C324.872 131.941 324.107 132.01 323.324 132.066V124.725H324.952V123.358ZM319.365 132.246V124.725H321.72V132.165C320.931 132.202 320.135 132.227 319.365 132.246ZM326.531 137.492H328.203V129.331H330.727V127.951H328.203V121.742H326.531V137.492ZM343.22 121.742H341.566V137.492H343.22V129.511H345.743V128.125H343.22V121.742ZM330.863 125.57H340.193V124.209H336.414V121.947H334.748V124.209H330.863V125.57ZM331.671 130.4C331.665 132.557 333.318 134.055 335.593 134.061C337.843 134.055 339.497 132.557 339.503 130.4C339.497 128.249 337.843 126.733 335.593 126.733C333.318 126.733 331.665 128.249 331.671 130.4ZM333.269 130.4C333.256 129.045 334.245 128.113 335.593 128.113C336.923 128.113 337.899 129.045 337.912 130.4C337.899 131.761 336.923 132.675 335.593 132.669C334.245 132.675 333.256 131.761 333.269 130.4ZM358.236 121.742H356.564V137.473H358.236V129.418H360.679V128.019H358.236V121.742ZM345.973 133.278L346.906 134.57C352.095 132.016 354.103 127.951 354.115 123.407H346.763V124.787H352.419C352.064 128.461 349.926 131.307 345.973 133.278ZM375.696 127.926H373.253V121.742H371.581V137.473H373.253V129.306H375.696V127.926ZM361.58 133.526H362.873C365.241 133.526 367.721 133.371 370.413 132.836L370.22 131.425C367.727 131.935 365.44 132.122 363.24 132.14V123.277H361.58V133.526ZM388.27 121.742H386.598V137.523H388.27V129.225H390.793V127.839H388.27V121.742ZM376.665 133.613H377.933C380.855 133.619 382.949 133.539 385.41 133.11L385.212 131.686C382.955 132.097 380.973 132.209 378.331 132.221V124.613H384.031V123.258H376.665V133.613ZM398.985 123.302H391.614V133.539H398.985V123.302ZM393.248 132.19V124.626H397.319V132.19H393.248ZM401.614 137.492H403.286V129.325H405.81V127.914H403.286V121.742H401.614V137.492ZM418.303 121.742H416.631V137.492H418.303V129.256H420.826V127.839H418.303V121.742ZM406.63 133.756H414.101V123.053H412.448V127.099H408.29V123.053H406.63V133.756ZM408.29 132.376V128.423H412.448V132.376H408.29ZM426.507 125.751V123.053H424.848V125.751C424.835 128.641 423.201 131.655 420.783 132.824L421.821 134.166C423.611 133.234 424.991 131.351 425.693 129.113C426.383 131.214 427.713 132.979 429.435 133.868L430.46 132.532C428.123 131.388 426.495 128.535 426.507 125.751ZM431.648 137.492H433.32V129.449H435.843V128.026H433.32V121.742H431.648V137.492ZM440.281 122.923C437.925 122.929 436.247 125.073 436.26 128.448C436.247 131.842 437.925 133.986 440.281 133.986C442.637 133.986 444.315 131.842 444.327 128.448C444.315 125.073 442.637 122.929 440.281 122.923ZM437.851 128.448C437.851 125.968 438.845 124.427 440.281 124.414C441.748 124.427 442.717 125.968 442.724 128.448C442.717 130.947 441.748 132.488 440.281 132.488C438.845 132.488 437.851 130.947 437.851 128.448ZM446.664 137.492H448.336V129.325H450.86V127.914H448.336V121.742H446.664V137.492ZM456.572 126.391V124.706H459.99V123.327H451.369V124.706H454.918V126.391C454.906 129.051 453.172 132.022 450.785 133.166L451.773 134.483C453.563 133.595 455.036 131.649 455.757 129.405C456.472 131.463 457.871 133.24 459.642 134.092L460.587 132.774C458.2 131.649 456.559 128.871 456.572 126.391ZM461.681 137.492H463.353V129.399H465.876V127.988H463.353V121.742H461.681V137.492ZM474.28 123.339H467.088V124.7H472.614C472.552 125.595 472.415 126.447 472.173 127.261L466.28 127.646L466.517 129.088L471.669 128.604C470.731 130.599 469.034 132.296 466.181 133.694L467.101 134.95C472.844 132.115 474.273 127.994 474.28 123.339ZM476.697 137.473H478.369V129.405H480.812V128.032H478.369V121.742H476.697V137.473ZM489.197 123.128H481.782V133.769H483.05C485.952 133.762 488.053 133.675 490.49 133.278L490.322 131.916C488.041 132.296 486.095 132.395 483.466 132.407V128.883H488.886V127.553H483.466V124.508H489.197V123.128ZM491.714 137.492H493.386V129.362H495.91V127.951H493.386V121.742H491.714V137.492ZM505.152 123.358H496.32V124.725H497.942V132.277C497.234 132.283 496.556 132.283 495.928 132.283L496.127 133.682C498.887 133.669 502.604 133.613 505.898 133.066L505.811 131.848C505.071 131.941 504.307 132.01 503.524 132.066V124.725H505.152V123.358ZM499.564 132.246V124.725H501.92V132.165C501.131 132.202 500.335 132.227 499.564 132.246ZM506.731 137.492H508.403V129.331H510.926V127.951H508.403V121.742H506.731V137.492ZM523.419 121.742H521.766V137.492H523.419V129.511H525.943V128.125H523.419V121.742ZM511.063 125.57H520.392V124.209H516.613V121.947H514.948V124.209H511.063V125.57ZM511.871 130.4C511.865 132.557 513.518 134.055 515.793 134.061C518.043 134.055 519.696 132.557 519.703 130.4C519.696 128.249 518.043 126.733 515.793 126.733C513.518 126.733 511.865 128.249 511.871 130.4ZM513.468 130.4C513.456 129.045 514.444 128.113 515.793 128.113C517.123 128.113 518.099 129.045 518.111 130.4C518.099 131.761 517.123 132.675 515.793 132.669C514.444 132.675 513.456 131.761 513.468 130.4ZM538.436 121.742H536.764V137.473H538.436V129.418H540.879V128.019H538.436V121.742ZM526.173 133.278L527.105 134.57C532.295 132.016 534.303 127.951 534.315 123.407H526.962V124.787H532.618C532.264 128.461 530.126 131.307 526.173 133.278ZM555.895 127.926H553.453V121.742H551.781V137.473H553.453V129.306H555.895V127.926ZM541.78 133.526H543.073C545.441 133.526 547.921 133.371 550.612 132.836L550.42 131.425C547.927 131.935 545.64 132.122 543.44 132.14V123.277H541.78V133.526ZM12.8536 150.742H11.1816V166.523H12.8536V158.225H15.3771V156.839H12.8536V150.742ZM1.24931 162.613H2.51727C5.43854 162.619 7.53315 162.539 9.99448 162.11L9.79558 160.686C7.53936 161.097 5.55663 161.209 2.91506 161.221V153.613H8.61464V152.258H1.24931V162.613ZM23.5691 152.302H16.1976V162.539H23.5691V152.302ZM17.8322 161.19V153.626H21.9034V161.19H17.8322ZM26.1983 166.492H27.8702V158.325H30.3937V156.914H27.8702V150.742H26.1983V166.492ZM42.8869 150.742H41.2149V166.492H42.8869V158.256H45.4104V156.839H42.8869V150.742ZM31.2142 162.756H38.6852V152.053H37.0319V156.099H32.8738V152.053H31.2142V162.756ZM32.8738 161.376V157.423H37.0319V161.376H32.8738ZM51.0914 154.751V152.053H49.4318V154.751C49.4194 157.641 47.7847 160.655 45.3669 161.824L46.4049 163.166C48.195 162.234 49.5748 160.351 50.2771 158.113C50.9671 160.214 52.2972 161.979 54.0188 162.868L55.0444 161.532C52.7074 160.388 51.0789 157.535 51.0914 154.751ZM56.2316 166.492H57.9035V158.449H60.427V157.026H57.9035V150.742H56.2316V166.492ZM64.8649 151.923C62.5092 151.929 60.8311 154.073 60.8435 157.448C60.8311 160.842 62.5092 162.986 64.8649 162.986C67.2206 162.986 68.8987 160.842 68.9112 157.448C68.8987 154.073 67.2206 151.929 64.8649 151.923ZM62.4347 157.448C62.4347 154.968 63.4291 153.427 64.8649 153.414C66.3318 153.427 67.3014 154.968 67.3076 157.448C67.3014 159.947 66.3318 161.488 64.8649 161.488C63.4291 161.488 62.4347 159.947 62.4347 157.448ZM71.2482 166.492H72.9202V158.325H75.4436V156.914H72.9202V150.742H71.2482V166.492ZM81.1557 155.391V153.706H84.5742V152.327H75.9534V153.706H79.5024V155.391C79.49 158.051 77.7559 161.022 75.3691 162.166L76.3574 163.483C78.1474 162.595 79.6205 160.649 80.3415 158.405C81.0563 160.463 82.4548 162.24 84.2262 163.092L85.1709 161.774C82.7842 160.649 81.1433 157.871 81.1557 155.391ZM86.2648 166.492H87.9368V158.399H90.4603V156.988H87.9368V150.742H86.2648V166.492ZM98.8637 152.339H91.6724V153.7H97.1979C97.1358 154.595 96.999 155.447 96.7566 156.261L90.8643 156.646L91.1005 158.088L96.2532 157.604C95.3146 159.599 93.6178 161.296 90.7649 162.694L91.6848 163.95C97.4279 161.115 98.8574 156.994 98.8637 152.339ZM101.281 166.473H102.953V158.405H105.396V157.032H102.953V150.742H101.281V166.473ZM113.781 152.128H106.366V162.769H107.634C110.536 162.762 112.637 162.675 115.074 162.278L114.906 160.916C112.625 161.296 110.679 161.395 108.05 161.407V157.883H113.47V156.553H108.05V153.508H113.781V152.128ZM116.298 166.492H117.97V158.362H120.494V156.951H117.97V150.742H116.298V166.492ZM129.736 152.358H120.904V153.725H122.526V161.277C121.818 161.283 121.14 161.283 120.512 161.283L120.711 162.682C123.471 162.669 127.188 162.613 130.482 162.066L130.395 160.848C129.655 160.941 128.891 161.01 128.108 161.066V153.725H129.736V152.358ZM124.148 161.246V153.725H126.504V161.165C125.715 161.202 124.919 161.227 124.148 161.246ZM131.315 166.492H132.987V158.331H135.51V156.951H132.987V150.742H131.315V166.492ZM148.003 150.742H146.35V166.492H148.003V158.511H150.527V157.125H148.003V150.742ZM135.647 154.57H144.976V153.209H141.197V150.947H139.532V153.209H135.647V154.57ZM136.455 159.4C136.449 161.557 138.102 163.055 140.377 163.061C142.627 163.055 144.28 161.557 144.287 159.4C144.28 157.249 142.627 155.733 140.377 155.733C138.102 155.733 136.449 157.249 136.455 159.4ZM138.052 159.4C138.04 158.045 139.028 157.113 140.377 157.113C141.707 157.113 142.683 158.045 142.695 159.4C142.683 160.761 141.707 161.675 140.377 161.669C139.028 161.675 138.04 160.761 138.052 159.4Z" fill="#666666"/>
</svg>
