<svg width="204" height="53" viewBox="0 0 204 53" fill="none" xmlns="http://www.w3.org/2000/svg">
<path d="M29.5718 19.6927H20.8453V21.4827H24.1146C24.0898 23.5152 22.884 25.5849 20.2362 26.424L21.3736 28.1954C23.288 27.5677 24.587 26.2873 25.2956 24.6837C26.0041 26.0511 27.2286 27.1264 29.0062 27.6609L30.0691 25.9081C27.5207 25.1499 26.3895 23.3474 26.3771 21.4827H29.5718V19.6927ZM22.4427 31.5083C22.4365 33.4599 24.5373 34.6222 27.9185 34.616C31.2562 34.6222 33.3198 33.4599 33.3198 31.5083C33.3198 29.5566 31.2562 28.4192 27.9185 28.4254C24.5373 28.4192 22.4365 29.5566 22.4427 31.5083ZM24.6865 31.5083C24.6802 30.607 25.8239 30.1657 27.9185 30.172C30.0007 30.1657 31.107 30.607 31.107 31.5083C31.107 32.422 30.0007 32.8757 27.9185 32.8695C25.8239 32.8757 24.6802 32.422 24.6865 31.5083ZM30.9206 28.1146H33.1706V24.1616H35.3211V22.3343H33.1706V18.6112H30.9206V28.1146ZM41.3999 20.1775H35.9241V21.9675H39.2183V24.547H35.9427V30.9986H36.9869C38.8081 30.9924 40.3806 30.924 42.2887 30.5884L42.1209 28.7797C40.6603 29.0097 39.3923 29.1091 38.0995 29.1402V26.3059H41.3999V20.1775ZM42.1458 28.3322H43.8861V33.8391H46.0056V18.8847H43.8861V22.5642H42.1458V24.3543H43.8861V26.5235H42.1458V28.3322ZM47.199 34.6222H49.3184V18.6112H47.199V34.6222ZM63.2571 19.2327H54.5803V21.0228H57.8123C57.7439 22.7196 56.4884 24.5594 53.9711 25.3674L55.0713 27.1077C56.9297 26.5546 58.2287 25.3425 58.9559 23.8695C59.6583 25.1934 60.9014 26.2562 62.6914 26.7721L63.7232 25.0069C61.2867 24.3046 60.1245 22.6264 60.0747 21.0228H63.2571V19.2327ZM56.9483 29.1526H65.3641V30.0663H56.967V34.4606H68.0678V32.7203H59.217V31.7072H67.5954V27.3812H56.9483V29.1526ZM62.8468 23.6768H65.3641V26.7659H67.5954V18.6112H65.3641V21.9054H62.8468V23.6768ZM74.9173 23.6333V23.0117H78.1867V21.2279H74.936V18.9779H72.6798V21.2279H69.3856V23.0117H72.6922V23.6333C72.686 26.0325 71.4429 28.761 68.8262 29.9109L70.0568 31.645C71.8718 30.8557 73.1335 29.2334 73.8234 27.3128C74.4947 29.0905 75.6818 30.5946 77.3911 31.3715L78.6404 29.6747C76.0921 28.4751 74.9111 25.9081 74.9173 23.6333ZM79.5106 34.6222H81.7544V26.7099H84.1162V24.8329H81.7544V18.6112H79.5106V34.6222ZM102.393 30.9365H96.1529V27.9717H100.771V19.6367H98.5334V22.1291H91.5597V19.6367H89.3097V27.9717H93.934V30.9365H87.762V32.7576H102.393V30.9365ZM91.5597 26.1816V23.9068H98.5334V26.1816H91.5597ZM116.254 18.6112H114.022V24.3854H111.449V26.2189H114.022V34.6595H116.254V18.6112ZM103.301 21.7686H108.36V24.1678H103.338V30.9302H104.656C107.335 30.9302 109.51 30.8432 111.884 30.4454L111.704 28.6243C109.641 28.9786 107.776 29.0594 105.576 29.078V25.9517H110.554V19.9599H103.301V21.7686ZM130.413 18.6112H128.169V34.5849H130.413V26.5981H132.675V24.7459H130.413V18.6112ZM117.621 30.1036L118.883 31.8191C124.259 29.1775 126.13 25.038 126.143 20.2521H118.523V22.0856H123.855C123.433 25.6533 121.4 28.2017 117.621 30.1036ZM146.25 18.6112H143.981V34.6222H146.25V18.6112ZM132.862 30.0912L134.03 31.875C139.748 29.1775 141.451 25.1436 141.458 20.2956H133.719V22.0546H139.17C138.81 25.6098 136.989 28.1333 132.862 30.0912Z" fill="#FF8A33"/>
<path d="M170.552 19L178 26M178 26L170.552 33M178 26H161" stroke="#FF8A33" stroke-width="2" stroke-linecap="round" stroke-linejoin="round"/>
<rect x="0.5" y="0.5" width="203" height="52" rx="7.5" stroke="#FF8A33"/>
</svg>
