<svg width="566" height="177" viewBox="0 0 566 177" fill="none" xmlns="http://www.w3.org/2000/svg">
<path d="M41.8681 44.654H1.32942V49.7472H18.4392V62.5407H24.6202V49.7472H41.8681V44.654ZM3.36671 37.4199L5.62845 42.3059C13.2079 41.4081 18.6809 38.3695 21.5815 34.2949C24.482 38.3349 29.9206 41.4254 37.4482 42.3059L39.6927 37.4199C30.5076 36.3494 25.518 31.9641 24.7756 28.0794H38.1388V23.1761H24.6202V18.1001H18.4392V23.1761H4.98964V28.0794H18.3356C17.5932 32.0159 12.5691 36.3494 3.36671 37.4199ZM79.4905 46.3633H48.9484V51.3011H73.275V62.5407H79.4905V46.3633ZM42.5948 31.308C42.5603 37.7479 47.688 42.3577 54.4215 42.3577C60.119 42.3577 64.677 38.9565 65.8683 33.9151H73.275V44.326H79.4905V18.0311H73.275V28.8046H65.8855C64.7115 23.8149 60.1362 20.3964 54.4215 20.4309C47.688 20.3964 42.5603 24.9889 42.5948 31.308ZM48.4995 31.308C48.4995 27.8377 51.072 25.6796 54.4215 25.6796C57.7018 25.6796 60.2226 27.8377 60.2571 31.308C60.2226 34.9337 57.7018 37.0573 54.4215 37.0746C51.072 37.0573 48.4995 34.9337 48.4995 31.308ZM129.106 18.0311H122.804V62.5062H129.106V18.0311ZM91.9168 49.9199L95.1626 54.875C111.047 47.3819 115.777 36.1768 115.795 22.7099H94.2994V27.596H109.441C108.44 37.4717 103.381 44.4814 91.9168 49.9199ZM173.082 41.8916H155.851V38.663H168.99V33.8805H143.697V30.9282H168.179V18.9116H137.429V23.7286H161.929V26.4392H137.498V38.663H149.688V41.8916H132.44V46.8639H173.082V41.8916ZM136.98 54.288H162.136V62.299H168.42V49.3847H136.98V54.288Z" fill="#FF8A33"/>
<path d="M199.044 28.1139V21.4668H192.708V28.1139C192.673 36.4703 189.186 45.0511 181.589 48.5041L185.491 53.5628C190.567 51.0594 193.985 46.2769 195.902 40.4586C197.749 45.9489 201.064 50.3688 206.019 52.7514L209.783 47.7963C202.394 44.6022 199.027 36.4703 199.044 28.1139ZM204.845 37.0573H213.547V62.6098H219.711V18.0311H213.547V32.0331H204.845V37.0573ZM260.13 18.0311H253.828V62.6098H260.13V18.0311ZM225.151 52.1989H247.095V21.605H240.966V32.3957H231.383V21.605H225.151V52.1989ZM231.383 47.1402V37.2472H240.966V47.1402H231.383ZM287.031 23.9012V20.7072H280.384V23.9012C280.349 30.3584 274.548 37.3336 264.672 39.0946L267.348 44.2742C275.049 42.7203 280.815 38.3349 283.733 32.672C286.599 38.3695 292.348 42.7376 300.1 44.2742L302.846 39.0946C292.78 37.3854 287.013 30.4275 287.031 23.9012ZM263.654 57.0504H304.296V51.9227H263.654V57.0504Z" fill="#1C1A19"/>
<path d="M334.208 59.9808C331.608 57.7608 331.448 54.1408 331.368 51.5408C331.088 41.6208 332.008 31.9808 332.008 28.0608C332.028 23.4208 332.988 21.4008 334.448 19.9008C335.348 18.9608 334.928 18.3408 333.728 18.8008C332.348 19.3408 331.508 20.2008 330.908 22.6408C329.388 28.9008 329.008 49.2408 329.508 54.8808C329.788 58.0208 331.368 60.3608 333.548 60.8208C335.028 61.1808 335.248 60.8808 334.208 59.9808Z" fill="#FF8A33"/>
<path d="M337.087 49.2204C336.047 48.3404 336.027 48.4004 338.987 45.4604C344.547 39.9604 349.667 36.4004 355.187 42.0204C357.407 44.2804 357.908 44.9604 359.868 48.2204C360.348 49.0204 360.307 49.3604 359.727 49.1804C359.207 49.0204 344.248 48.9204 339.968 49.0204C338.068 49.0604 338.667 49.9804 339.987 50.0604C343.287 50.2604 352.107 50.3604 358.227 50.6804C363.587 50.9804 367.247 51.4404 369.927 50.8804C374.987 49.8204 373.327 49.4604 374.327 36.4804C374.607 32.7604 374.427 26.0804 374.047 25.3004C372.147 21.6204 363.607 20.1404 348.747 20.9004C343.547 21.1604 340.347 21.6204 340.347 22.1004C340.347 22.8004 342.827 22.9004 349.727 22.5004C354.567 22.2204 356.867 22.2604 362.647 22.7804C368.247 23.2804 371.428 23.9004 372.068 24.6204C373.148 25.8404 373.307 26.3404 373.107 27.8804C372.847 29.8204 372.687 35.5604 372.647 36.5604L372.068 35.6604C367.568 28.6004 359.487 29.4204 353.127 37.6004L352.627 38.2404L351.527 37.8204C347.127 36.1004 341.368 38.8204 336.968 44.7404L335.627 46.5204L335.468 45.3404C335.308 44.1404 335.407 35.8804 335.687 28.2404C335.847 23.6604 336.008 23.3604 337.268 22.8004C338.148 22.4204 338.107 21.8404 337.107 21.8404C335.687 21.8404 335.107 22.5004 334.507 24.2004C333.507 27.0604 332.447 44.1204 333.987 47.7804C334.587 49.2204 335.187 49.9404 336.447 50.1204C337.747 50.3604 337.987 50.0004 337.087 49.2204ZM354.287 39.2204C354.407 39.0204 360.127 34.4204 360.847 33.9604C362.807 32.6804 365.487 32.3604 367.447 33.1604C368.807 33.7204 369.747 34.5204 370.847 35.9804C372.587 38.3404 372.547 38.2204 372.227 40.9804C372.067 42.3004 371.847 44.3204 371.727 45.4604C371.287 49.8604 370.667 49.6204 361.547 49.0204L360.587 47.3204C359.587 45.5404 357.688 43.1004 355.468 40.7804C354.768 40.0204 354.207 39.3204 354.287 39.2204Z" fill="#FF8A33"/>
<path d="M378.248 26.4806C379.028 23.9206 376.888 19.9006 372.168 18.9006C369.108 18.2406 362.748 18.1406 345.628 17.8206C343.088 17.7806 340.148 17.8006 339.088 17.8606C337.148 18.0006 336.468 18.2406 336.968 18.6206C337.648 19.1406 339.848 19.2806 349.528 19.3806C373.148 19.6406 375.068 19.9806 376.588 23.9406C376.868 24.6806 376.748 38.2806 376.428 41.7806C376.268 43.6606 376.028 47.5206 375.928 50.3806C375.628 58.6606 374.768 60.1406 370.548 59.8206C368.508 59.6606 354.788 60.0206 344.028 60.1806C332.928 60.3406 336.948 61.7406 338.708 61.9406C345.348 62.6806 373.088 61.6606 375.528 60.4206C380.348 58.0006 378.168 26.7406 378.248 26.4806Z" fill="#FF8A33"/>
<path d="M344.328 24.6607C339.288 26.6407 341.148 33.9007 346.688 33.8807C350.728 33.8607 353.268 28.6007 350.748 26.5607C349.628 25.6407 349.508 26.2607 349.928 27.3807C351.088 30.4207 347.808 33.7407 344.688 32.4207C341.388 31.0407 343.988 25.7007 347.968 25.7007L348.708 25.7207C349.228 25.7407 349.388 25.0007 348.908 24.8007C347.788 24.3007 345.648 24.1407 344.328 24.6607Z" fill="#FF8A33"/>
<path d="M12.8536 96.7417H11.1816V112.473H12.8536V104.418H15.2963V103.019H12.8536V96.7417ZM0.59047 108.278L1.52279 109.57C6.71271 107.016 8.7203 102.951 8.73274 98.4075H1.37983V99.7873H7.03591C6.68163 103.461 4.54351 106.307 0.59047 108.278ZM30.3129 102.926H27.8702V96.7417H26.1983V112.473H27.8702V104.306H30.3129V102.926ZM16.1976 108.526H17.4904C19.8585 108.526 22.3385 108.371 25.0298 107.836L24.8371 106.425C22.3447 106.935 20.0574 107.122 17.8571 107.14V98.2769H16.1976V108.526ZM42.8869 96.7417H41.2149V112.523H42.8869V104.225H45.4104V102.839H42.8869V96.7417ZM31.2826 108.613H32.5505C35.4718 108.619 37.5664 108.539 40.0278 108.11L39.8289 106.686C37.5726 107.097 35.5899 107.209 32.9483 107.221V99.6133H38.6479V98.2583H31.2826V108.613ZM53.6024 98.3018H46.2309V108.539H53.6024V98.3018ZM47.8655 107.19V99.6257H51.9367V107.19H47.8655ZM56.2316 112.492H57.9035V104.325H60.427V102.914H57.9035V96.7417H56.2316V112.492ZM72.9202 96.7417H71.2482V112.492H72.9202V104.256H75.4436V102.839H72.9202V96.7417ZM61.2475 108.756H68.7185V98.0532H67.0652V102.099H62.907V98.0532H61.2475V108.756ZM62.907 107.376V103.423H67.0652V107.376H62.907ZM81.1246 100.751V98.0532H79.4651V100.751C79.4527 103.641 77.818 106.655 75.4002 107.824L76.4382 109.166C78.2282 108.234 79.6081 106.351 80.3104 104.113C81.0003 106.214 82.3304 107.979 84.0521 108.868L85.0777 107.532C82.7407 106.388 81.1122 103.535 81.1246 100.751ZM86.2648 112.492H87.9368V104.449H90.4603V103.026H87.9368V96.7417H86.2648V112.492ZM94.8982 97.9227C92.5425 97.9289 90.8643 100.073 90.8768 103.448C90.8643 106.842 92.5425 108.986 94.8982 108.986C97.2539 108.986 98.932 106.842 98.9445 103.448C98.932 100.073 97.2539 97.9289 94.8982 97.9227ZM92.4679 103.448C92.4679 100.968 93.4624 99.4268 94.8982 99.4144C96.365 99.4268 97.3347 100.968 97.3409 103.448C97.3347 105.947 96.365 107.488 94.8982 107.488C93.4624 107.488 92.4679 105.947 92.4679 103.448ZM101.281 112.492H102.953V104.325H105.477V102.914H102.953V96.7417H101.281V112.492ZM111.189 101.391V99.7065H114.608V98.3267H105.987V99.7065H109.536V101.391C109.523 104.051 107.789 107.022 105.402 108.166L106.391 109.483C108.181 108.595 109.654 106.649 110.375 104.405C111.09 106.463 112.488 108.24 114.259 109.092L115.204 107.774C112.817 106.649 111.177 103.871 111.189 101.391ZM116.298 112.492H117.97V104.399H120.494V102.988H117.97V96.7417H116.298V112.492ZM128.897 98.3391H121.706V99.7003H127.231C127.169 100.595 127.032 101.447 126.79 102.261L120.898 102.646L121.134 104.088L126.286 103.604C125.348 105.599 123.651 107.296 120.798 108.694L121.718 109.95C127.461 107.115 128.891 102.994 128.897 98.3391ZM131.315 112.473H132.987V104.405H135.429V103.032H132.987V96.7417H131.315V112.473ZM143.814 98.1278H136.399V108.769H137.667C140.57 108.762 142.67 108.675 145.107 108.278L144.939 106.916C142.658 107.296 140.713 107.395 138.083 107.407V103.883H143.503V102.553H138.083V99.5076H143.814V98.1278ZM146.331 112.492H148.003V104.362H150.527V102.951H148.003V96.7417H146.331V112.492ZM159.769 98.3577H150.937V99.7251H152.559V107.277C151.851 107.283 151.173 107.283 150.546 107.283L150.744 108.682C153.504 108.669 157.221 108.613 160.515 108.066L160.428 106.848C159.689 106.941 158.924 107.01 158.141 107.066V99.7251H159.769V98.3577ZM154.182 107.246V99.7251H156.537V107.165C155.748 107.202 154.952 107.227 154.182 107.246ZM161.348 112.492H163.02V104.331H165.543V102.951H163.02V96.7417H161.348V112.492ZM178.037 96.7417H176.383V112.492H178.037V104.511H180.56V103.125H178.037V96.7417ZM165.68 100.57H175.01V99.2093H171.231V96.9468H169.565V99.2093H165.68V100.57ZM166.488 105.4C166.482 107.557 168.135 109.055 170.41 109.061C172.66 109.055 174.314 107.557 174.32 105.4C174.314 103.249 172.66 101.733 170.41 101.733C168.135 101.733 166.482 103.249 166.488 105.4ZM168.086 105.4C168.073 104.045 169.061 103.113 170.41 103.113C171.74 103.113 172.716 104.045 172.729 105.4C172.716 106.761 171.74 107.675 170.41 107.669C169.061 107.675 168.073 106.761 168.086 105.4ZM193.053 96.7417H191.381V112.473H193.053V104.418H195.496V103.019H193.053V96.7417ZM180.79 108.278L181.722 109.57C186.912 107.016 188.92 102.951 188.932 98.4075H181.58V99.7873H187.236C186.881 103.461 184.743 106.307 180.79 108.278ZM210.513 102.926H208.07V96.7417H206.398V112.473H208.07V104.306H210.513V102.926ZM196.397 108.526H197.69C200.058 108.526 202.538 108.371 205.229 107.836L205.037 106.425C202.544 106.935 200.257 107.122 198.057 107.14V98.2769H196.397V108.526ZM223.087 96.7417H221.415V112.523H223.087V104.225H225.61V102.839H223.087V96.7417ZM211.482 108.613H212.75C215.672 108.619 217.766 108.539 220.227 108.11L220.029 106.686C217.772 107.097 215.79 107.209 213.148 107.221V99.6133H218.848V98.2583H211.482V108.613ZM233.802 98.3018H226.431V108.539H233.802V98.3018ZM228.065 107.19V99.6257H232.136V107.19H228.065ZM236.431 112.492H238.103V104.325H240.627V102.914H238.103V96.7417H236.431V112.492ZM253.12 96.7417H251.448V112.492H253.12V104.256H255.643V102.839H253.12V96.7417ZM241.447 108.756H248.918V98.0532H247.265V102.099H243.107V98.0532H241.447V108.756ZM243.107 107.376V103.423H247.265V107.376H243.107ZM261.324 100.751V98.0532H259.665V100.751C259.652 103.641 258.018 106.655 255.6 107.824L256.638 109.166C258.428 108.234 259.808 106.351 260.51 104.113C261.2 106.214 262.53 107.979 264.252 108.868L265.277 107.532C262.94 106.388 261.312 103.535 261.324 100.751ZM266.465 112.492H268.136V104.449H270.66V103.026H268.136V96.7417H266.465V112.492ZM275.098 97.9227C272.742 97.9289 271.064 100.073 271.076 103.448C271.064 106.842 272.742 108.986 275.098 108.986C277.454 108.986 279.132 106.842 279.144 103.448C279.132 100.073 277.454 97.9289 275.098 97.9227ZM272.668 103.448C272.668 100.968 273.662 99.4268 275.098 99.4144C276.565 99.4268 277.534 100.968 277.541 103.448C277.534 105.947 276.565 107.488 275.098 107.488C273.662 107.488 272.668 105.947 272.668 103.448ZM281.481 112.492H283.153V104.325H285.677V102.914H283.153V96.7417H281.481V112.492ZM291.389 101.391V99.7065H294.807V98.3267H286.186V99.7065H289.735V101.391C289.723 104.051 287.989 107.022 285.602 108.166L286.59 109.483C288.38 108.595 289.853 106.649 290.574 104.405C291.289 106.463 292.688 108.24 294.459 109.092L295.404 107.774C293.017 106.649 291.376 103.871 291.389 101.391ZM296.498 112.492H298.17V104.399H300.693V102.988H298.17V96.7417H296.498V112.492ZM309.097 98.3391H301.905V99.7003H307.431C307.369 100.595 307.232 101.447 306.99 102.261L301.097 102.646L301.334 104.088L306.486 103.604C305.548 105.599 303.851 107.296 300.998 108.694L301.918 109.95C307.661 107.115 309.09 102.994 309.097 98.3391ZM311.514 112.473H313.186V104.405H315.629V103.032H313.186V96.7417H311.514V112.473ZM324.014 98.1278H316.599V108.769H317.867C320.769 108.762 322.87 108.675 325.307 108.278L325.139 106.916C322.858 107.296 320.912 107.395 318.283 107.407V103.883H323.703V102.553H318.283V99.5076H324.014V98.1278ZM326.531 112.492H328.203V104.362H330.727V102.951H328.203V96.7417H326.531V112.492ZM339.969 98.3577H331.137V99.7251H332.759V107.277C332.05 107.283 331.373 107.283 330.745 107.283L330.944 108.682C333.704 108.669 337.421 108.613 340.715 108.066L340.628 106.848C339.888 106.941 339.124 107.01 338.341 107.066V99.7251H339.969V98.3577ZM334.381 107.246V99.7251H336.737V107.165C335.948 107.202 335.152 107.227 334.381 107.246ZM341.548 112.492H343.22V104.331H345.743V102.951H343.22V96.7417H341.548V112.492ZM358.236 96.7417H356.583V112.492H358.236V104.511H360.76V103.125H358.236V96.7417ZM345.88 100.57H355.209V99.2093H351.43V96.9468H349.765V99.2093H345.88V100.57ZM346.688 105.4C346.682 107.557 348.335 109.055 350.61 109.061C352.86 109.055 354.513 107.557 354.519 105.4C354.513 103.249 352.86 101.733 350.61 101.733C348.335 101.733 346.682 103.249 346.688 105.4ZM348.285 105.4C348.273 104.045 349.261 103.113 350.61 103.113C351.94 103.113 352.916 104.045 352.928 105.4C352.916 106.761 351.94 107.675 350.61 107.669C349.261 107.675 348.273 106.761 348.285 105.4ZM373.253 96.7417H371.581V112.473H373.253V104.418H375.696V103.019H373.253V96.7417ZM360.99 108.278L361.922 109.57C367.112 107.016 369.12 102.951 369.132 98.4075H361.779V99.7873H367.435C367.081 103.461 364.943 106.307 360.99 108.278ZM390.712 102.926H388.27V96.7417H386.598V112.473H388.27V104.306H390.712V102.926ZM376.597 108.526H377.89C380.258 108.526 382.738 108.371 385.429 107.836L385.236 106.425C382.744 106.935 380.457 107.122 378.256 107.14V98.2769H376.597V108.526ZM403.286 96.7417H401.614V112.523H403.286V104.225H405.81V102.839H403.286V96.7417ZM391.682 108.613H392.95C395.871 108.619 397.966 108.539 400.427 108.11L400.228 106.686C397.972 107.097 395.989 107.209 393.348 107.221V99.6133H399.047V98.2583H391.682V108.613ZM414.002 98.3018H406.63V108.539H414.002V98.3018ZM408.265 107.19V99.6257H412.336V107.19H408.265ZM416.631 112.492H418.303V104.325H420.826V102.914H418.303V96.7417H416.631V112.492ZM433.32 96.7417H431.648V112.492H433.32V104.256H435.843V102.839H433.32V96.7417ZM421.647 108.756H429.118V98.0532H427.465V102.099H423.306V98.0532H421.647V108.756ZM423.306 107.376V103.423H427.465V107.376H423.306ZM441.524 100.751V98.0532H439.864V100.751C439.852 103.641 438.217 106.655 435.8 107.824L436.838 109.166C438.628 108.234 440.007 106.351 440.71 104.113C441.4 106.214 442.73 107.979 444.451 108.868L445.477 107.532C443.14 106.388 441.512 103.535 441.524 100.751ZM446.664 112.492H448.336V104.449H450.86V103.026H448.336V96.7417H446.664V112.492ZM455.298 97.9227C452.942 97.9289 451.264 100.073 451.276 103.448C451.264 106.842 452.942 108.986 455.298 108.986C457.653 108.986 459.331 106.842 459.344 103.448C459.331 100.073 457.653 97.9289 455.298 97.9227ZM452.867 103.448C452.867 100.968 453.862 99.4268 455.298 99.4144C456.764 99.4268 457.734 100.968 457.74 103.448C457.734 105.947 456.764 107.488 455.298 107.488C453.862 107.488 452.867 105.947 452.867 103.448ZM461.681 112.492H463.353V104.325H465.876V102.914H463.353V96.7417H461.681V112.492ZM471.588 101.391V99.7065H475.007V98.3267H466.386V99.7065H469.935V101.391C469.923 104.051 468.189 107.022 465.802 108.166L466.79 109.483C468.58 108.595 470.053 106.649 470.774 104.405C471.489 106.463 472.887 108.24 474.659 109.092L475.604 107.774C473.217 106.649 471.576 103.871 471.588 101.391ZM476.697 112.492H478.369V104.399H480.893V102.988H478.369V96.7417H476.697V112.492ZM489.296 98.3391H482.105V99.7003H487.631C487.568 100.595 487.432 101.447 487.189 102.261L481.297 102.646L481.533 104.088L486.686 103.604C485.747 105.599 484.05 107.296 481.198 108.694L482.117 109.95C487.861 107.115 489.29 102.994 489.296 98.3391ZM491.714 112.473H493.386V104.405H495.829V103.032H493.386V96.7417H491.714V112.473ZM504.213 98.1278H496.798V108.769H498.066C500.969 108.762 503.07 108.675 505.506 108.278L505.338 106.916C503.057 107.296 501.112 107.395 498.483 107.407V103.883H503.903V102.553H498.483V99.5076H504.213V98.1278ZM506.731 112.492H508.403V104.362H510.926V102.951H508.403V96.7417H506.731V112.492ZM520.169 98.3577H511.336V99.7251H512.959V107.277C512.25 107.283 511.573 107.283 510.945 107.283L511.144 108.682C513.903 108.669 517.62 108.613 520.915 108.066L520.828 106.848C520.088 106.941 519.323 107.01 518.54 107.066V99.7251H520.169V98.3577ZM514.581 107.246V99.7251H516.937V107.165C516.147 107.202 515.352 107.227 514.581 107.246ZM521.747 112.492H523.419V104.331H525.943V102.951H523.419V96.7417H521.747V112.492ZM538.436 96.7417H536.783V112.492H538.436V104.511H540.959V103.125H538.436V96.7417ZM526.08 100.57H535.409V99.2093H531.63V96.9468H529.964V99.2093H526.08V100.57ZM526.888 105.4C526.881 107.557 528.535 109.055 530.81 109.061C533.06 109.055 534.713 107.557 534.719 105.4C534.713 103.249 533.06 101.733 530.81 101.733C528.535 101.733 526.881 103.249 526.888 105.4ZM528.485 105.4C528.473 104.045 529.461 103.113 530.81 103.113C532.14 103.113 533.116 104.045 533.128 105.4C533.116 106.761 532.14 107.675 530.81 107.669C529.461 107.675 528.473 106.761 528.485 105.4ZM12.8536 125.742H11.1816V141.473H12.8536V133.418H15.2963V132.019H12.8536V125.742ZM0.59047 137.278L1.52279 138.57C6.71271 136.016 8.7203 131.951 8.73274 127.407H1.37983V128.787H7.03591C6.68163 132.461 4.54351 135.307 0.59047 137.278ZM30.3129 131.926H27.8702V125.742H26.1983V141.473H27.8702V133.306H30.3129V131.926ZM16.1976 137.526H17.4904C19.8585 137.526 22.3385 137.371 25.0298 136.836L24.8371 135.425C22.3447 135.935 20.0574 136.122 17.8571 136.14V127.277H16.1976V137.526ZM42.8869 125.742H41.2149V141.523H42.8869V133.225H45.4104V131.839H42.8869V125.742ZM31.2826 137.613H32.5505C35.4718 137.619 37.5664 137.539 40.0278 137.11L39.8289 135.686C37.5726 136.097 35.5899 136.209 32.9483 136.221V128.613H38.6479V127.258H31.2826V137.613ZM53.6024 127.302H46.2309V137.539H53.6024V127.302ZM47.8655 136.19V128.626H51.9367V136.19H47.8655ZM56.2316 141.492H57.9035V133.325H60.427V131.914H57.9035V125.742H56.2316V141.492ZM72.9202 125.742H71.2482V141.492H72.9202V133.256H75.4436V131.839H72.9202V125.742ZM61.2475 137.756H68.7185V127.053H67.0652V131.099H62.907V127.053H61.2475V137.756ZM62.907 136.376V132.423H67.0652V136.376H62.907ZM81.1246 129.751V127.053H79.4651V129.751C79.4527 132.641 77.818 135.655 75.4002 136.824L76.4382 138.166C78.2282 137.234 79.6081 135.351 80.3104 133.113C81.0003 135.214 82.3304 136.979 84.0521 137.868L85.0777 136.532C82.7407 135.388 81.1122 132.535 81.1246 129.751ZM86.2648 141.492H87.9368V133.449H90.4603V132.026H87.9368V125.742H86.2648V141.492ZM94.8982 126.923C92.5425 126.929 90.8643 129.073 90.8768 132.448C90.8643 135.842 92.5425 137.986 94.8982 137.986C97.2539 137.986 98.932 135.842 98.9445 132.448C98.932 129.073 97.2539 126.929 94.8982 126.923ZM92.4679 132.448C92.4679 129.968 93.4624 128.427 94.8982 128.414C96.365 128.427 97.3347 129.968 97.3409 132.448C97.3347 134.947 96.365 136.488 94.8982 136.488C93.4624 136.488 92.4679 134.947 92.4679 132.448ZM101.281 141.492H102.953V133.325H105.477V131.914H102.953V125.742H101.281V141.492ZM111.189 130.391V128.706H114.608V127.327H105.987V128.706H109.536V130.391C109.523 133.051 107.789 136.022 105.402 137.166L106.391 138.483C108.181 137.595 109.654 135.649 110.375 133.405C111.09 135.463 112.488 137.24 114.259 138.092L115.204 136.774C112.817 135.649 111.177 132.871 111.189 130.391ZM116.298 141.492H117.97V133.399H120.494V131.988H117.97V125.742H116.298V141.492ZM128.897 127.339H121.706V128.7H127.231C127.169 129.595 127.032 130.447 126.79 131.261L120.898 131.646L121.134 133.088L126.286 132.604C125.348 134.599 123.651 136.296 120.798 137.694L121.718 138.95C127.461 136.115 128.891 131.994 128.897 127.339ZM131.315 141.473H132.987V133.405H135.429V132.032H132.987V125.742H131.315V141.473ZM143.814 127.128H136.399V137.769H137.667C140.57 137.762 142.67 137.675 145.107 137.278L144.939 135.916C142.658 136.296 140.713 136.395 138.083 136.407V132.883H143.503V131.553H138.083V128.508H143.814V127.128ZM146.331 141.492H148.003V133.362H150.527V131.951H148.003V125.742H146.331V141.492ZM159.769 127.358H150.937V128.725H152.559V136.277C151.851 136.283 151.173 136.283 150.546 136.283L150.744 137.682C153.504 137.669 157.221 137.613 160.515 137.066L160.428 135.848C159.689 135.941 158.924 136.01 158.141 136.066V128.725H159.769V127.358ZM154.182 136.246V128.725H156.537V136.165C155.748 136.202 154.952 136.227 154.182 136.246ZM161.348 141.492H163.02V133.331H165.543V131.951H163.02V125.742H161.348V141.492ZM178.037 125.742H176.383V141.492H178.037V133.511H180.56V132.125H178.037V125.742ZM165.68 129.57H175.01V128.209H171.231V125.947H169.565V128.209H165.68V129.57ZM166.488 134.4C166.482 136.557 168.135 138.055 170.41 138.061C172.66 138.055 174.314 136.557 174.32 134.4C174.314 132.249 172.66 130.733 170.41 130.733C168.135 130.733 166.482 132.249 166.488 134.4ZM168.086 134.4C168.073 133.045 169.061 132.113 170.41 132.113C171.74 132.113 172.716 133.045 172.729 134.4C172.716 135.761 171.74 136.675 170.41 136.669C169.061 136.675 168.073 135.761 168.086 134.4ZM193.053 125.742H191.381V141.473H193.053V133.418H195.496V132.019H193.053V125.742ZM180.79 137.278L181.722 138.57C186.912 136.016 188.92 131.951 188.932 127.407H181.58V128.787H187.236C186.881 132.461 184.743 135.307 180.79 137.278ZM210.513 131.926H208.07V125.742H206.398V141.473H208.07V133.306H210.513V131.926ZM196.397 137.526H197.69C200.058 137.526 202.538 137.371 205.229 136.836L205.037 135.425C202.544 135.935 200.257 136.122 198.057 136.14V127.277H196.397V137.526ZM223.087 125.742H221.415V141.523H223.087V133.225H225.61V131.839H223.087V125.742ZM211.482 137.613H212.75C215.672 137.619 217.766 137.539 220.227 137.11L220.029 135.686C217.772 136.097 215.79 136.209 213.148 136.221V128.613H218.848V127.258H211.482V137.613ZM233.802 127.302H226.431V137.539H233.802V127.302ZM228.065 136.19V128.626H232.136V136.19H228.065ZM236.431 141.492H238.103V133.325H240.627V131.914H238.103V125.742H236.431V141.492ZM253.12 125.742H251.448V141.492H253.12V133.256H255.643V131.839H253.12V125.742ZM241.447 137.756H248.918V127.053H247.265V131.099H243.107V127.053H241.447V137.756ZM243.107 136.376V132.423H247.265V136.376H243.107ZM261.324 129.751V127.053H259.665V129.751C259.652 132.641 258.018 135.655 255.6 136.824L256.638 138.166C258.428 137.234 259.808 135.351 260.51 133.113C261.2 135.214 262.53 136.979 264.252 137.868L265.277 136.532C262.94 135.388 261.312 132.535 261.324 129.751ZM266.465 141.492H268.136V133.449H270.66V132.026H268.136V125.742H266.465V141.492ZM275.098 126.923C272.742 126.929 271.064 129.073 271.076 132.448C271.064 135.842 272.742 137.986 275.098 137.986C277.454 137.986 279.132 135.842 279.144 132.448C279.132 129.073 277.454 126.929 275.098 126.923ZM272.668 132.448C272.668 129.968 273.662 128.427 275.098 128.414C276.565 128.427 277.534 129.968 277.541 132.448C277.534 134.947 276.565 136.488 275.098 136.488C273.662 136.488 272.668 134.947 272.668 132.448ZM281.481 141.492H283.153V133.325H285.677V131.914H283.153V125.742H281.481V141.492ZM291.389 130.391V128.706H294.807V127.327H286.186V128.706H289.735V130.391C289.723 133.051 287.989 136.022 285.602 137.166L286.59 138.483C288.38 137.595 289.853 135.649 290.574 133.405C291.289 135.463 292.688 137.24 294.459 138.092L295.404 136.774C293.017 135.649 291.376 132.871 291.389 130.391ZM296.498 141.492H298.17V133.399H300.693V131.988H298.17V125.742H296.498V141.492ZM309.097 127.339H301.905V128.7H307.431C307.369 129.595 307.232 130.447 306.99 131.261L301.097 131.646L301.334 133.088L306.486 132.604C305.548 134.599 303.851 136.296 300.998 137.694L301.918 138.95C307.661 136.115 309.09 131.994 309.097 127.339ZM311.514 141.473H313.186V133.405H315.629V132.032H313.186V125.742H311.514V141.473ZM324.014 127.128H316.599V137.769H317.867C320.769 137.762 322.87 137.675 325.307 137.278L325.139 135.916C322.858 136.296 320.912 136.395 318.283 136.407V132.883H323.703V131.553H318.283V128.508H324.014V127.128ZM326.531 141.492H328.203V133.362H330.727V131.951H328.203V125.742H326.531V141.492ZM339.969 127.358H331.137V128.725H332.759V136.277C332.05 136.283 331.373 136.283 330.745 136.283L330.944 137.682C333.704 137.669 337.421 137.613 340.715 137.066L340.628 135.848C339.888 135.941 339.124 136.01 338.341 136.066V128.725H339.969V127.358ZM334.381 136.246V128.725H336.737V136.165C335.948 136.202 335.152 136.227 334.381 136.246ZM341.548 141.492H343.22V133.331H345.743V131.951H343.22V125.742H341.548V141.492ZM358.236 125.742H356.583V141.492H358.236V133.511H360.76V132.125H358.236V125.742ZM345.88 129.57H355.209V128.209H351.43V125.947H349.765V128.209H345.88V129.57ZM346.688 134.4C346.682 136.557 348.335 138.055 350.61 138.061C352.86 138.055 354.513 136.557 354.519 134.4C354.513 132.249 352.86 130.733 350.61 130.733C348.335 130.733 346.682 132.249 346.688 134.4ZM348.285 134.4C348.273 133.045 349.261 132.113 350.61 132.113C351.94 132.113 352.916 133.045 352.928 134.4C352.916 135.761 351.94 136.675 350.61 136.669C349.261 136.675 348.273 135.761 348.285 134.4ZM373.253 125.742H371.581V141.473H373.253V133.418H375.696V132.019H373.253V125.742ZM360.99 137.278L361.922 138.57C367.112 136.016 369.12 131.951 369.132 127.407H361.779V128.787H367.435C367.081 132.461 364.943 135.307 360.99 137.278ZM390.712 131.926H388.27V125.742H386.598V141.473H388.27V133.306H390.712V131.926ZM376.597 137.526H377.89C380.258 137.526 382.738 137.371 385.429 136.836L385.236 135.425C382.744 135.935 380.457 136.122 378.256 136.14V127.277H376.597V137.526ZM403.286 125.742H401.614V141.523H403.286V133.225H405.81V131.839H403.286V125.742ZM391.682 137.613H392.95C395.871 137.619 397.966 137.539 400.427 137.11L400.228 135.686C397.972 136.097 395.989 136.209 393.348 136.221V128.613H399.047V127.258H391.682V137.613ZM414.002 127.302H406.63V137.539H414.002V127.302ZM408.265 136.19V128.626H412.336V136.19H408.265ZM416.631 141.492H418.303V133.325H420.826V131.914H418.303V125.742H416.631V141.492ZM433.32 125.742H431.648V141.492H433.32V133.256H435.843V131.839H433.32V125.742ZM421.647 137.756H429.118V127.053H427.465V131.099H423.306V127.053H421.647V137.756ZM423.306 136.376V132.423H427.465V136.376H423.306ZM441.524 129.751V127.053H439.864V129.751C439.852 132.641 438.217 135.655 435.8 136.824L436.838 138.166C438.628 137.234 440.007 135.351 440.71 133.113C441.4 135.214 442.73 136.979 444.451 137.868L445.477 136.532C443.14 135.388 441.512 132.535 441.524 129.751ZM446.664 141.492H448.336V133.449H450.86V132.026H448.336V125.742H446.664V141.492ZM455.298 126.923C452.942 126.929 451.264 129.073 451.276 132.448C451.264 135.842 452.942 137.986 455.298 137.986C457.653 137.986 459.331 135.842 459.344 132.448C459.331 129.073 457.653 126.929 455.298 126.923ZM452.867 132.448C452.867 129.968 453.862 128.427 455.298 128.414C456.764 128.427 457.734 129.968 457.74 132.448C457.734 134.947 456.764 136.488 455.298 136.488C453.862 136.488 452.867 134.947 452.867 132.448ZM461.681 141.492H463.353V133.325H465.876V131.914H463.353V125.742H461.681V141.492ZM471.588 130.391V128.706H475.007V127.327H466.386V128.706H469.935V130.391C469.923 133.051 468.189 136.022 465.802 137.166L466.79 138.483C468.58 137.595 470.053 135.649 470.774 133.405C471.489 135.463 472.887 137.24 474.659 138.092L475.604 136.774C473.217 135.649 471.576 132.871 471.588 130.391ZM476.697 141.492H478.369V133.399H480.893V131.988H478.369V125.742H476.697V141.492ZM489.296 127.339H482.105V128.7H487.631C487.568 129.595 487.432 130.447 487.189 131.261L481.297 131.646L481.533 133.088L486.686 132.604C485.747 134.599 484.05 136.296 481.198 137.694L482.117 138.95C487.861 136.115 489.29 131.994 489.296 127.339ZM491.714 141.473H493.386V133.405H495.829V132.032H493.386V125.742H491.714V141.473ZM504.213 127.128H496.798V137.769H498.066C500.969 137.762 503.07 137.675 505.506 137.278L505.338 135.916C503.057 136.296 501.112 136.395 498.483 136.407V132.883H503.903V131.553H498.483V128.508H504.213V127.128ZM506.731 141.492H508.403V133.362H510.926V131.951H508.403V125.742H506.731V141.492ZM520.169 127.358H511.336V128.725H512.959V136.277C512.25 136.283 511.573 136.283 510.945 136.283L511.144 137.682C513.903 137.669 517.62 137.613 520.915 137.066L520.828 135.848C520.088 135.941 519.323 136.01 518.54 136.066V128.725H520.169V127.358ZM514.581 136.246V128.725H516.937V136.165C516.147 136.202 515.352 136.227 514.581 136.246ZM521.747 141.492H523.419V133.331H525.943V131.951H523.419V125.742H521.747V141.492ZM538.436 125.742H536.783V141.492H538.436V133.511H540.959V132.125H538.436V125.742ZM526.08 129.57H535.409V128.209H531.63V125.947H529.964V128.209H526.08V129.57ZM526.888 134.4C526.881 136.557 528.535 138.055 530.81 138.061C533.06 138.055 534.713 136.557 534.719 134.4C534.713 132.249 533.06 130.733 530.81 130.733C528.535 130.733 526.881 132.249 526.888 134.4ZM528.485 134.4C528.473 133.045 529.461 132.113 530.81 132.113C532.14 132.113 533.116 133.045 533.128 134.4C533.116 135.761 532.14 136.675 530.81 136.669C529.461 136.675 528.473 135.761 528.485 134.4ZM12.8536 154.742H11.1816V170.473H12.8536V162.418H15.2963V161.019H12.8536V154.742ZM0.59047 166.278L1.52279 167.57C6.71271 165.016 8.7203 160.951 8.73274 156.407H1.37983V157.787H7.03591C6.68163 161.461 4.54351 164.307 0.59047 166.278ZM30.3129 160.926H27.8702V154.742H26.1983V170.473H27.8702V162.306H30.3129V160.926ZM16.1976 166.526H17.4904C19.8585 166.526 22.3385 166.371 25.0298 165.836L24.8371 164.425C22.3447 164.935 20.0574 165.122 17.8571 165.14V156.277H16.1976V166.526ZM42.8869 154.742H41.2149V170.523H42.8869V162.225H45.4104V160.839H42.8869V154.742ZM31.2826 166.613H32.5505C35.4718 166.619 37.5664 166.539 40.0278 166.11L39.8289 164.686C37.5726 165.097 35.5899 165.209 32.9483 165.221V157.613H38.6479V156.258H31.2826V166.613ZM53.6024 156.302H46.2309V166.539H53.6024V156.302ZM47.8655 165.19V157.626H51.9367V165.19H47.8655ZM56.2316 170.492H57.9035V162.325H60.427V160.914H57.9035V154.742H56.2316V170.492ZM72.9202 154.742H71.2482V170.492H72.9202V162.256H75.4436V160.839H72.9202V154.742ZM61.2475 166.756H68.7185V156.053H67.0652V160.099H62.907V156.053H61.2475V166.756ZM62.907 165.376V161.423H67.0652V165.376H62.907ZM81.1246 158.751V156.053H79.4651V158.751C79.4527 161.641 77.818 164.655 75.4002 165.824L76.4382 167.166C78.2282 166.234 79.6081 164.351 80.3104 162.113C81.0003 164.214 82.3304 165.979 84.0521 166.868L85.0777 165.532C82.7407 164.388 81.1122 161.535 81.1246 158.751ZM86.2648 170.492H87.9368V162.449H90.4603V161.026H87.9368V154.742H86.2648V170.492ZM94.8982 155.923C92.5425 155.929 90.8643 158.073 90.8768 161.448C90.8643 164.842 92.5425 166.986 94.8982 166.986C97.2539 166.986 98.932 164.842 98.9445 161.448C98.932 158.073 97.2539 155.929 94.8982 155.923ZM92.4679 161.448C92.4679 158.968 93.4624 157.427 94.8982 157.414C96.365 157.427 97.3347 158.968 97.3409 161.448C97.3347 163.947 96.365 165.488 94.8982 165.488C93.4624 165.488 92.4679 163.947 92.4679 161.448ZM101.281 170.492H102.953V162.325H105.477V160.914H102.953V154.742H101.281V170.492ZM111.189 159.391V157.706H114.608V156.327H105.987V157.706H109.536V159.391C109.523 162.051 107.789 165.022 105.402 166.166L106.391 167.483C108.181 166.595 109.654 164.649 110.375 162.405C111.09 164.463 112.488 166.24 114.259 167.092L115.204 165.774C112.817 164.649 111.177 161.871 111.189 159.391ZM116.298 170.492H117.97V162.399H120.494V160.988H117.97V154.742H116.298V170.492ZM128.897 156.339H121.706V157.7H127.231C127.169 158.595 127.032 159.447 126.79 160.261L120.898 160.646L121.134 162.088L126.286 161.604C125.348 163.599 123.651 165.296 120.798 166.694L121.718 167.95C127.461 165.115 128.891 160.994 128.897 156.339ZM131.315 170.473H132.987V162.405H135.429V161.032H132.987V154.742H131.315V170.473ZM143.814 156.128H136.399V166.769H137.667C140.57 166.762 142.67 166.675 145.107 166.278L144.939 164.916C142.658 165.296 140.713 165.395 138.083 165.407V161.883H143.503V160.553H138.083V157.508H143.814V156.128ZM146.331 170.492H148.003V162.362H150.527V160.951H148.003V154.742H146.331V170.492ZM159.769 156.358H150.937V157.725H152.559V165.277C151.851 165.283 151.173 165.283 150.546 165.283L150.744 166.682C153.504 166.669 157.221 166.613 160.515 166.066L160.428 164.848C159.689 164.941 158.924 165.01 158.141 165.066V157.725H159.769V156.358ZM154.182 165.246V157.725H156.537V165.165C155.748 165.202 154.952 165.227 154.182 165.246ZM161.348 170.492H163.02V162.331H165.543V160.951H163.02V154.742H161.348V170.492ZM178.037 154.742H176.383V170.492H178.037V162.511H180.56V161.125H178.037V154.742ZM165.68 158.57H175.01V157.209H171.231V154.947H169.565V157.209H165.68V158.57ZM166.488 163.4C166.482 165.557 168.135 167.055 170.41 167.061C172.66 167.055 174.314 165.557 174.32 163.4C174.314 161.249 172.66 159.733 170.41 159.733C168.135 159.733 166.482 161.249 166.488 163.4ZM168.086 163.4C168.073 162.045 169.061 161.113 170.41 161.113C171.74 161.113 172.716 162.045 172.729 163.4C172.716 164.761 171.74 165.675 170.41 165.669C169.061 165.675 168.073 164.761 168.086 163.4Z" fill="#666666"/>
</svg>
