<svg width="566" height="177" viewBox="0 0 566 177" fill="none" xmlns="http://www.w3.org/2000/svg">
<path d="M26.5884 21.0352H2.34807V26.0076H11.4296C11.3605 31.6533 8.01105 37.4026 0.656077 39.7334L3.81561 44.654C9.13329 42.9102 12.7417 39.3536 14.7099 34.8992C16.6782 38.6975 20.0794 41.6844 25.0173 43.1692L27.9696 38.3004C20.8909 36.1941 17.7486 31.1872 17.7141 26.0076H26.5884V21.0352ZM6.78522 53.8564C6.76796 59.2776 12.6036 62.5062 21.9959 62.489C31.2673 62.5062 36.9993 59.2776 36.9993 53.8564C36.9993 48.4351 31.2673 45.2756 21.9959 45.2928C12.6036 45.2756 6.76796 48.4351 6.78522 53.8564ZM13.018 53.8564C13.0007 51.3529 16.1775 50.1271 21.9959 50.1443C27.7797 50.1271 30.8529 51.3529 30.8529 53.8564C30.8529 56.3943 27.7797 57.6547 21.9959 57.6374C16.1775 57.6547 13.0007 56.3943 13.018 53.8564ZM30.3349 44.4296H36.5849V33.4489H42.5587V28.3729H36.5849V18.0311H30.3349V44.4296ZM58.4442 22.3819H43.2336V27.3543H52.3842V34.5193H43.2854V52.4406H46.186C51.2447 52.4233 55.6128 52.2334 60.9132 51.3011L60.447 46.2769C56.3897 46.9157 52.8676 47.192 49.2764 47.2783V39.4054H58.4442V22.3819ZM60.5161 45.0338H65.3503V60.3308H71.2378V18.7907H65.3503V29.0117H60.5161V33.9841H65.3503V40.0097H60.5161V45.0338ZM74.5527 62.5062H80.4401V18.0311H74.5527V62.5062ZM129.227 18.0311H123.011V28.8736H116.071V33.9496H123.011V44.4468H129.227V18.0311ZM91.4851 39.5262L94.7137 44.4641C99.9796 42.6512 103.536 39.0256 105.47 34.5021C107.421 38.4903 110.788 41.7017 115.691 43.3073L118.764 38.404C111.875 36.125 108.699 30.9109 108.543 25.7486H117.4V20.7417H93.298V25.7486H102.207C102.069 31.3253 98.7365 37.1091 91.4851 39.5262ZM98.771 53.9945C98.7538 59.3812 104.572 62.5407 114.033 62.558C123.529 62.5407 129.33 59.3812 129.348 53.9945C129.33 48.6077 123.529 45.4309 114.033 45.4309C104.572 45.4309 98.7538 48.6077 98.771 53.9945ZM104.969 53.9945C104.952 51.4392 108.146 50.1616 114.033 50.1616C119.938 50.1616 123.149 51.4392 123.167 53.9945C123.149 56.5325 119.938 57.8101 114.033 57.7928C108.146 57.8101 104.952 56.5325 104.969 53.9945ZM173.134 52.268H155.8V44.0325H168.628V20.8798H162.412V27.8032H143.041V20.8798H136.791V44.0325H149.636V52.268H132.492V57.3267H173.134V52.268ZM143.041 39.0601V32.741H162.412V39.0601H143.041Z" fill="#FF8A33"/>
<path d="M199.044 28.1139V21.4668H192.708V28.1139C192.673 36.4703 189.186 45.0511 181.589 48.5041L185.491 53.5628C190.567 51.0594 193.985 46.2769 195.902 40.4586C197.749 45.9489 201.064 50.3688 206.019 52.7514L209.783 47.7963C202.394 44.6022 199.027 36.4703 199.044 28.1139ZM204.845 37.0573H213.547V62.6098H219.711V18.0311H213.547V32.0331H204.845V37.0573ZM260.13 18.0311H253.828V62.6098H260.13V18.0311ZM225.151 52.1989H247.095V21.605H240.966V32.3957H231.383V21.605H225.151V52.1989ZM231.383 47.1402V37.2472H240.966V47.1402H231.383ZM287.031 23.9012V20.7072H280.384V23.9012C280.349 30.3584 274.548 37.3336 264.672 39.0946L267.348 44.2742C275.049 42.7203 280.815 38.3349 283.733 32.672C286.599 38.3695 292.348 42.7376 300.1 44.2742L302.846 39.0946C292.78 37.3854 287.013 30.4275 287.031 23.9012ZM263.654 57.0504H304.296V51.9227H263.654V57.0504Z" fill="#1C1A19"/>
<path fill-rule="evenodd" clip-rule="evenodd" d="M336.944 16.7254C335.603 17.5664 335.63 17.9868 337.312 21.1141C339.283 24.767 339.23 24.3728 340.518 23.0851L339.966 21.4294C338.442 16.9093 338.967 15.4903 336.944 16.7254ZM363.985 16.7517C362.514 17.0933 362.041 17.7241 362.251 19.038C362.435 20.3257 362.251 20.4045 360.517 19.9052C359.255 19.5373 357.284 19.5373 356.601 19.9052C355.812 20.3257 356.18 20.6936 357.389 20.6936C361.41 20.6936 364.669 23.5844 366.14 28.0257C368.427 34.9898 366.061 38.6952 366.061 38.7214L362.304 46.3688L361.147 44.8183C359.886 43.1364 358.94 42.6634 358.256 43.3467C357.889 43.7146 357.941 43.8723 358.861 44.976C361.095 47.6565 361.331 48.0507 361.331 49.1544C361.331 49.7852 361.646 50.8889 362.12 51.8876C363.801 55.4353 363.46 57.0646 360.674 58.7991C353.815 63.0564 326.537 40.6136 332.135 35.3051C332.739 34.7269 333.343 34.5167 335.288 34.2014C338.31 33.7021 339.992 32.756 340.413 32.5983C340.57 32.6508 346.72 34.543 349.716 37.4075C350.819 38.4587 352.633 38.6689 352.633 37.7228C352.633 36.9344 346.326 33.1764 343.382 32.2041C341.254 31.4945 341.253 31.7836 343.198 29.2082C347.324 23.637 350.241 21.1666 352.633 21.1666C353.605 21.1666 353.684 20.7199 352.764 20.3783C350.977 19.695 348.323 20.4834 346.01 22.4281C344.538 23.6369 343.645 24.6356 339.519 29.471C337.443 31.915 336.182 32.7297 334.5 32.756C326.721 32.8611 328.009 41.9276 336.944 49.8903C341.359 53.806 347.797 58.4574 349.689 59.0619C350.215 59.2458 351.135 59.64 351.713 59.9816C355.261 62.0052 359.124 62.1366 361.778 60.6386C366.482 57.9581 364.353 54.5944 364.301 50.4947C364.275 48.0244 365.142 46.106 368.243 39.4835C370.687 34.2802 370.687 29.0768 368.243 25.5028C367.454 24.3465 367.665 24.0311 369.373 23.7421C372.185 23.2428 372.211 21.4558 369.452 18.5124C368.138 17.0671 365.825 16.3312 363.985 16.7517ZM368.427 19.7476C369.478 21.1404 368.4 21.955 367.27 22.4806C365.694 23.2427 363.539 21.5083 364.747 20.4046C365.115 20.0629 365.326 19.5373 365.221 19.0906C364.984 18.1445 367.428 18.4073 368.427 19.7476ZM329.06 21.482C328.508 21.6922 327.641 22.7171 327.641 23.1376C327.641 23.2427 328.14 23.5581 328.744 23.8209C329.349 24.0837 330.952 24.8984 332.292 25.6605C334.868 27.1059 335.603 27.2635 335.998 26.5803C336.208 26.2124 335.787 25.8181 333.58 24.2414C332.108 23.1902 330.768 22.0865 330.584 21.7974C330.269 21.1667 329.953 21.1141 329.06 21.482ZM326.274 29.9441C324.908 31.1792 325.144 31.3106 328.666 31.3632C334.368 31.442 334.132 30.2331 328.298 29.4973C327.115 29.3396 326.852 29.3922 326.274 29.9441ZM333.291 39.1945C333.58 39.8252 334.053 40.6661 334.789 41.7962C335.735 43.2941 336.182 43.5306 336.76 42.8736C337.022 42.5583 336.944 42.3218 336.444 41.6122C333.816 38.0119 334 37.644 336.839 38.59C340.964 39.9303 345.248 43.2153 343.75 43.662C339.572 44.8709 341.254 50.5736 346.247 52.1241C348.743 52.9124 351.608 51.2831 351.608 49.0494V47.9719C351.634 47.9981 358.44 54.5155 358.44 55.5404C358.44 56.2237 355.077 56.1185 353.71 55.3827C353.079 55.0411 351.844 55.3827 351.923 55.8557C352.107 56.8544 359.097 57.9844 360.49 57.2223C364.958 54.8308 347.482 38.4324 337.942 36.5665C335.367 36.0935 332.161 36.6716 333.291 39.1945ZM348.323 45.16C349.584 46.1586 349.637 45.922 349.085 46.9732C348.743 47.6565 348.691 48.0244 348.927 48.8916C349.374 50.7049 349.032 50.7838 346.825 49.4435C343.987 47.7091 342.725 45.1336 344.722 45.1336C345.274 45.1336 345.958 44.9497 346.247 44.7395C346.93 44.1876 347.166 44.2402 348.323 45.16ZM379.832 47.1309C379.254 47.3412 377.651 47.6565 376.284 47.8142C372.158 48.3135 372.001 49.0756 376.022 49.0756C379.149 49.0756 381.067 48.7077 381.987 47.9193C383.275 46.8156 381.987 46.3425 379.832 47.1309ZM369.241 51.3357C368.374 51.6773 368.716 52.0189 372.421 54.4892C375.417 56.4865 376.994 57.0909 378.255 56.6704C380.042 56.0923 379.044 54.6732 376.311 53.8848C375.496 53.6483 373.814 52.9387 372.579 52.308C370.398 51.2043 369.951 51.0729 369.241 51.3357ZM367.375 56.6704C367.06 56.8544 367.139 57.196 367.691 58.6414C367.691 58.6677 369.163 62.7673 369.163 62.7936C369.53 64.239 370.608 63.5557 372.08 62.2943C372.763 61.7161 372.158 60.2445 370.555 58.4312C369.425 57.1435 368.926 55.6981 367.375 56.6704Z" fill="#FF8A33"/>
<path d="M12.9593 96.7541H11.2873V108.334H12.9593V102.802H15.2403V101.403H12.9593V96.7541ZM1.18715 105.723H8.61464V97.8791H6.96133V100.409H2.83425V97.8791H1.18715V105.723ZM2.83425 104.393V101.714H6.96133V104.393H2.83425ZM2.97721 112.169H13.6305V110.801H4.63674V107.184H2.97721V112.169ZM28.7155 96.7417H27.0622V100.253H24.0664V101.633H27.0622V104.542H23.9793V105.934H27.0622V112.523H28.7155V96.7417ZM16.1354 99.489H21.4807V102.559H16.1851V108.893H17.3723C19.8585 108.893 21.8723 108.818 24.3398 108.433L24.1969 107.053C21.9469 107.395 20.0636 107.488 17.8385 107.501V103.883H23.1154V98.134H16.1354V99.489ZM44.9939 104.405H38.6168V102.733H43.3157V101.397H34.0609V98.7866H43.2225V97.4689H32.4076V102.733H36.9884V104.405H30.6175V105.742H44.9939V104.405ZM32.3144 109.633C32.3144 111.454 34.3655 112.479 37.7778 112.492C41.1714 112.479 43.2101 111.454 43.2225 109.633C43.2101 107.805 41.1714 106.773 37.7778 106.773C34.3655 106.773 32.3144 107.805 32.3144 109.633ZM34.0112 109.633C33.9988 108.632 35.3724 108.06 37.7778 108.06C40.1583 108.06 41.5443 108.632 41.5568 109.633C41.5443 110.64 40.1583 111.193 37.7778 111.18C35.3724 111.193 33.9988 110.64 34.0112 109.633ZM59.9919 103.262H45.6342V104.592H51.9553V105.972H47.3434V107.246H56.5299V108.452H47.3745V112.343H58.6245V111.05H49.0092V109.664H58.1708V105.972H53.6273V104.592H59.9919V103.262ZM47.4677 102.099H58.1397V97.2452H47.4677V102.099ZM49.1024 100.788V98.5628H56.474V100.788H49.1024ZM65.7786 97.8605C63.2986 97.8605 61.4775 99.4019 61.4899 101.615C61.4775 103.834 63.2986 105.369 65.7786 105.369C68.271 105.369 70.0548 103.834 70.0673 101.615C70.0548 99.4019 68.271 97.8605 65.7786 97.8605ZM60.7316 107.743L60.9367 109.135C63.7523 109.135 67.5811 109.117 71.1487 108.439L71.0182 107.221C67.5749 107.718 63.6032 107.749 60.7316 107.743ZM63.137 101.615C63.1246 100.229 64.2496 99.3087 65.7786 99.3087C67.3076 99.3087 68.4326 100.229 68.4388 101.615C68.4326 103.007 67.3076 103.921 65.7786 103.921C64.2496 103.921 63.1246 103.007 63.137 101.615ZM72.0065 112.523H73.6722V96.7417H72.0065V112.523ZM84.9792 100.751V98.0532H83.3196V100.751C83.3072 103.641 81.6725 106.655 79.2547 107.824L80.2927 109.166C82.0828 108.234 83.4626 106.351 84.1649 104.113C84.8549 106.214 86.185 107.979 87.9067 108.868L88.9322 107.532C86.5952 106.388 84.9667 103.535 84.9792 100.751ZM90.1194 112.492H91.7913V104.449H94.3148V103.026H91.7913V96.7417H90.1194V112.492ZM102.519 97.9227H95.1415V104.772H102.519V97.9227ZM96.54 109.477C96.54 111.379 98.5787 112.479 101.823 112.492C105.043 112.479 107.057 111.379 107.057 109.477C107.057 107.606 105.043 106.488 101.823 106.475C98.5787 106.488 96.54 107.606 96.54 109.477ZM96.7762 103.423V99.259H100.885V103.423H96.7762ZM98.212 109.477C98.1995 108.427 99.5483 107.824 101.823 107.824C104.092 107.824 105.422 108.427 105.422 109.477C105.422 110.559 104.092 111.143 101.823 111.155C99.5483 111.143 98.1995 110.559 98.212 109.477ZM105.242 105.99H106.914V101.925H109.195V100.558H106.914V96.7417H105.242V105.99ZM116.722 97.0028C113.173 97.0028 111.09 97.9599 111.09 99.7065C111.09 101.478 113.173 102.435 116.722 102.448C120.271 102.435 122.34 101.478 122.34 99.7065C122.34 97.9599 120.271 97.0028 116.722 97.0028ZM109.555 104.741H123.913V103.405H109.555V104.741ZM111.265 107.202H120.451V108.439H111.296V112.343H122.546V111.05H112.93V109.639H122.092V105.953H111.265V107.202ZM112.837 99.7065C112.825 98.7866 114.217 98.2396 116.722 98.2459C119.245 98.2396 120.631 98.7866 120.631 99.7065C120.631 100.689 119.245 101.192 116.722 101.192C114.217 101.192 112.825 100.689 112.837 99.7065ZM141.964 96.7417H140.379V112.492H141.964V96.7417ZM128.333 107.942L129.328 109.129C132.292 107.364 133.971 105.064 134.729 102.416H137.153V104.99H134.462V106.357H137.153V111.727H138.744V97.1457H137.153V101.049H135.04C135.164 100.291 135.226 99.5014 135.226 98.6996H129.11V100.073H133.567C133.281 103.305 131.677 105.959 128.333 107.942ZM156.533 96.7417H154.855V112.492H156.533V96.7417ZM143.592 108.271L144.475 109.62C149.882 107.041 151.84 103.044 151.853 98.4385H144.357V99.7686H150.15C149.82 103.442 147.781 106.282 143.592 108.271ZM172.873 109.216H166.453V106.444H171.475V105.077H161.872V102.777H171.108V97.8605H160.181V99.2217H169.461V101.434H160.212V106.444H164.8V109.216H158.46V110.602H172.873V109.216ZM191.72 105.692H177.306V107.078H183.652V112.498H185.293V107.078H191.72V105.692ZM178.879 100.838C178.879 102.957 181.147 104.3 184.479 104.3C187.81 104.3 190.097 102.957 190.097 100.838C190.097 98.6934 187.81 97.3446 184.479 97.3322C181.147 97.3446 178.879 98.6934 178.879 100.838ZM180.594 100.838C180.582 99.5138 182.142 98.6872 184.479 98.6872C186.822 98.6872 188.376 99.5138 188.376 100.838C188.376 102.149 186.822 102.963 184.479 102.963C182.142 102.963 180.582 102.149 180.594 100.838ZM199.514 96.9157C195.965 96.9157 193.883 97.8854 193.883 99.6319C193.883 101.391 195.965 102.348 199.514 102.36C203.063 102.348 205.133 101.391 205.133 99.6319C205.133 97.8854 203.063 96.9157 199.514 96.9157ZM192.348 104.61H198.669V105.953H194.057V107.202H203.243V108.439H194.088V112.343H205.338V111.05H195.723V109.639H204.884V105.953H200.341V104.61H206.705V103.287H192.348V104.61ZM195.629 99.6319C195.617 98.7058 197.009 98.1775 199.514 98.1713C202.037 98.1775 203.423 98.7058 203.423 99.6319C203.423 100.602 202.037 101.099 199.514 101.105C197.009 101.099 195.617 100.602 195.629 99.6319ZM219.739 96.7417H218.067V105.642H219.739V101.838H222.02V100.459H219.739V96.7417ZM207.296 104.53L207.961 105.86C212.647 104.604 215.382 101.764 215.395 97.7362H208.023V99.0912H213.586C213.275 101.559 211.056 103.541 207.296 104.53ZM209.645 112.28H219.739V106.314H209.645V112.28ZM211.305 110.944V107.687H218.086V110.944H211.305ZM225.209 109.769H223.245L222.306 114.63H223.798L225.209 109.769ZM236.33 99.607V99.5698H239.835V98.2148H231.134V99.5698H234.621V99.607C234.621 101.64 233.06 103.454 230.568 104.157L231.376 105.45C233.328 104.878 234.788 103.641 235.509 102.012C236.224 103.517 237.641 104.679 239.512 105.22L240.32 103.914C237.859 103.237 236.317 101.49 236.33 99.607ZM230.382 107.88L230.587 109.253C233.402 109.253 237.231 109.235 240.799 108.582L240.668 107.333C239.282 107.544 237.803 107.675 236.342 107.756V104.753H234.652V107.83C233.104 107.874 231.631 107.88 230.382 107.88ZM241.656 112.523H243.322V96.7417H241.656V112.523ZM250.079 100.216V100.061H252.776V98.7307H250.079V96.922H248.5V98.7307H245.753V100.061H248.5V100.216C248.487 102.112 247.393 103.921 245.398 104.722L246.194 105.959C247.723 105.331 248.773 104.157 249.326 102.721C249.892 104.039 250.93 105.12 252.422 105.692L253.205 104.418C251.204 103.709 250.079 101.981 250.079 100.216ZM248.034 108.532H257.09V112.492H258.737V107.177H248.034V108.532ZM253.77 106.326H255.368V102.242H257.158V106.388H258.737V96.7541H257.158V100.881H255.368V97.0338H253.77V106.326ZM272.709 96.7417H271.037V105.642H272.709V101.838H274.99V100.459H272.709V96.7417ZM260.266 104.53L260.931 105.86C265.617 104.604 268.352 101.764 268.364 97.7362H260.993V99.0912H266.556C266.245 101.559 264.026 103.541 260.266 104.53ZM262.615 112.28H272.709V106.314H262.615V112.28ZM264.275 110.944V107.687H271.056V110.944H264.275ZM278.179 109.769H276.215L275.276 114.63H276.768L278.179 109.769ZM291.326 98.1278V97.27H289.586V98.1278C289.586 100.247 287.037 102.186 283.948 102.603L284.62 103.964C287.18 103.554 289.436 102.224 290.462 100.359C291.488 102.211 293.744 103.554 296.317 103.964L296.982 102.603C293.881 102.186 291.326 100.222 291.326 98.1278ZM283.271 106.892H289.592V112.492H291.233V106.892H297.628V105.512H283.271V106.892ZM306.312 98.0843H298.996V105.543H306.312V104.157H309.749V108.234H311.414V96.7541H309.749V99.4206H306.312V98.0843ZM300.649 104.219V99.433H304.677V104.219H300.649ZM301.128 112.169H311.769V110.801H302.812V107.19H301.128V112.169ZM306.312 102.802V100.794H309.749V102.802H306.312ZM318.798 99.6506V99.2279H322.198V97.8729H313.665V99.2279H317.133V99.663C317.12 101.845 315.635 103.883 313.18 104.698L314.031 106.028C315.927 105.369 317.313 104.001 317.997 102.28C318.687 103.778 319.992 104.965 321.788 105.543L322.584 104.238C320.191 103.473 318.798 101.646 318.798 99.6506ZM315.305 109.508C315.305 111.379 317.313 112.467 320.589 112.467C323.839 112.467 325.822 111.379 325.822 109.508C325.822 107.656 323.839 106.581 320.589 106.581C317.313 106.581 315.305 107.656 315.305 109.508ZM316.977 109.508C316.965 108.477 318.314 107.898 320.589 107.905C322.857 107.898 324.187 108.477 324.187 109.508C324.187 110.559 322.857 111.149 320.589 111.149C318.314 111.149 316.965 110.559 316.977 109.508ZM324.007 106.195H325.679V102.019H327.96V100.639H325.679V96.7417H324.007V106.195ZM331.882 98.0035C329.831 98.0035 328.495 100.135 328.495 103.541C328.495 106.966 329.831 109.11 331.882 109.104C333.958 109.11 335.307 106.966 335.319 103.541C335.307 100.135 333.958 98.0035 331.882 98.0035ZM330.049 103.541C330.036 101.037 330.751 99.5698 331.882 99.5698C333.044 99.5698 333.765 101.037 333.765 103.541C333.765 106.052 333.044 107.526 331.882 107.513C330.751 107.526 330.036 106.052 330.049 103.541ZM336.736 111.715H338.321V104.287H340.261V112.492H341.864V96.7417H340.261V102.907H338.321V97.0463H336.736V111.715ZM346.165 109.769H344.201L343.263 114.63H344.754L346.165 109.769ZM356.982 99.0041V97.4938H355.272V99.0041C355.272 101.26 353.793 103.398 351.332 104.262L352.19 105.574C354.054 104.903 355.44 103.51 356.143 101.745C356.851 103.392 358.219 104.666 360.04 105.307L360.879 103.989C358.455 103.187 356.969 101.186 356.982 99.0041ZM353.644 108.302H362.65V112.492H364.322V106.948H353.644V108.302ZM362.65 106.195H364.322V96.7417H362.65V106.195ZM373.44 97.0525C369.997 97.0587 367.809 98.1961 367.809 100.092C367.809 101.155 368.499 101.981 369.717 102.497V104.679H366.274V106.021H380.632V104.679H377.151V102.503C378.369 101.981 379.059 101.155 379.059 100.092C379.059 98.1961 376.896 97.0587 373.44 97.0525ZM367.865 108.713H377.188V112.492H378.866V107.383H367.865V108.713ZM369.543 100.092C369.531 98.9793 371.016 98.3764 373.44 98.3764C375.852 98.3764 377.35 98.9793 377.35 100.092C377.35 101.18 375.852 101.814 373.44 101.814C371.016 101.814 369.531 101.18 369.543 100.092ZM371.395 104.679V102.963C372.011 103.063 372.695 103.119 373.44 103.119C374.186 103.119 374.876 103.063 375.491 102.963V104.679H371.395ZM395.679 106.003H381.266V107.333H387.612V112.492H389.253V107.333H395.679V106.003ZM383.062 104.219H393.877V97.3819H392.211V99.433H384.715V97.3819H383.062V104.219ZM384.715 102.876V100.769H392.211V102.876H384.715ZM402.137 100.023V99.346H405.606V97.9972H396.91V99.346H400.453V100.023C400.441 102.186 398.93 104.225 396.475 105.058L397.339 106.382C399.216 105.717 400.615 104.362 401.323 102.646C402.038 104.225 403.411 105.468 405.226 106.065L406.078 104.753C403.641 103.989 402.137 102.075 402.137 100.023ZM399.067 112.169H409.832V110.801H400.745V107.171H399.067V112.169ZM407.7 108.253H409.372V96.7541H407.7V108.253ZM429.555 104.138H415.178V105.518H429.555V104.138ZM416.875 109.608C416.875 111.441 418.926 112.467 422.339 112.467C425.732 112.467 427.771 111.441 427.783 109.608C427.771 107.78 425.732 106.749 422.339 106.749C418.926 106.749 416.875 107.78 416.875 109.608ZM416.968 102.771H427.877V101.422H418.622V98.6685H427.783V97.3073H416.968V102.771ZM418.572 109.608C418.56 108.607 419.933 108.048 422.339 108.035C424.719 108.048 426.105 108.607 426.118 109.608C426.105 110.621 424.719 111.168 422.339 111.168C419.933 111.168 418.56 110.621 418.572 109.608ZM435.323 97.8605C432.843 97.8605 431.022 99.4019 431.034 101.615C431.022 103.834 432.843 105.369 435.323 105.369C437.815 105.369 439.599 103.834 439.611 101.615C439.599 99.4019 437.815 97.8605 435.323 97.8605ZM430.276 107.743L430.481 109.135C433.297 109.135 437.125 109.117 440.693 108.439L440.562 107.221C437.119 107.718 433.147 107.749 430.276 107.743ZM432.681 101.615C432.669 100.229 433.794 99.3087 435.323 99.3087C436.852 99.3087 437.977 100.229 437.983 101.615C437.977 103.007 436.852 103.921 435.323 103.921C433.794 103.921 432.669 103.007 432.681 101.615ZM441.551 112.523H443.216V96.7417H441.551V112.523ZM463.424 104.157H449.066V105.518H463.424V104.157ZM449.818 102.019L450.396 103.33C453.131 103.019 455.375 101.869 456.233 100.198C457.097 101.876 459.353 103.019 462.088 103.33L462.691 102.019C459.782 101.708 457.55 100.421 457.364 98.8923H462.131V97.5186H450.378V98.8923H455.12C454.921 100.434 452.671 101.708 449.818 102.019ZM450.763 109.608C450.763 111.441 452.814 112.467 456.226 112.467C459.62 112.467 461.659 111.441 461.671 109.608C461.659 107.78 459.62 106.73 456.226 106.73C452.814 106.73 450.763 107.78 450.763 109.608ZM452.46 109.608C452.447 108.595 453.821 108.048 456.226 108.035C458.607 108.048 459.993 108.595 460.005 109.608C459.993 110.608 458.607 111.149 456.226 111.149C453.821 111.149 452.447 110.608 452.46 109.608ZM469.503 99.2652V97.5622H467.849V99.1222C467.837 101.465 466.414 103.573 463.959 104.449L464.86 105.773C466.693 105.095 468.03 103.709 468.707 101.944C469.397 103.498 470.69 104.722 472.418 105.331L473.307 104.02C470.957 103.249 469.503 101.329 469.503 99.2652ZM466.084 109.533C466.084 111.404 468.098 112.467 471.367 112.467C474.612 112.467 476.601 111.404 476.601 109.533C476.601 107.7 474.612 106.618 471.367 106.618C468.098 106.618 466.084 107.7 466.084 109.533ZM467.756 109.533C467.744 108.532 469.093 107.942 471.367 107.942C473.636 107.942 474.966 108.532 474.966 109.533C474.966 110.577 473.636 111.143 471.367 111.155C469.093 111.143 467.744 110.577 467.756 109.533ZM474.786 106.245H476.458V102.099H478.739V100.707H476.458V96.7417H474.786V106.245ZM486.266 97.0028C482.717 97.0028 480.635 97.9599 480.635 99.7065C480.635 101.478 482.717 102.435 486.266 102.448C489.815 102.435 491.885 101.478 491.885 99.7065C491.885 97.9599 489.815 97.0028 486.266 97.0028ZM479.099 104.741H493.457V103.405H479.099V104.741ZM480.809 107.202H489.995V108.439H480.84V112.343H492.09V111.05H482.474V109.639H491.636V105.953H480.809V107.202ZM482.381 99.7065C482.369 98.7866 483.761 98.2396 486.266 98.2459C488.789 98.2396 490.175 98.7866 490.175 99.7065C490.175 100.689 488.789 101.192 486.266 101.192C483.761 101.192 482.369 100.689 482.381 99.7065ZM506.299 97.7362H499.027V99.0912H504.509C504.186 101.571 501.911 103.554 498.201 104.542L498.859 105.847C502.234 104.94 504.64 103.181 505.696 100.732H509.432V102.715H505.448V104.076H509.432V105.86H511.098V96.7541H509.432V99.3771H506.132C506.237 98.855 506.299 98.308 506.299 97.7362ZM499.991 107.917H503.571V112.479H505.255V106.556H499.991V107.917ZM505.989 107.917H509.432V112.479H511.098V106.556H505.989V107.917ZM520.154 97.6865C516.86 97.6927 514.349 99.4392 514.349 102.087C514.349 104.747 516.86 106.494 520.154 106.481C523.46 106.494 525.978 104.747 525.978 102.087C525.978 99.4392 523.46 97.6927 520.154 97.6865ZM512.987 110.453H527.401V109.073H512.987V110.453ZM515.952 102.087C515.946 100.266 517.742 99.0352 520.154 99.0477C522.565 99.0352 524.349 100.266 524.349 102.087C524.349 103.927 522.565 105.114 520.154 105.114C517.742 105.114 515.946 103.927 515.952 102.087ZM536.028 98.0843H528.712V105.543H536.028V104.157H539.465V108.234H541.131V96.7541H539.465V99.4206H536.028V98.0843ZM530.366 104.219V99.433H534.393V104.219H530.366ZM530.844 112.169H541.485V110.801H532.529V107.19H530.844V112.169ZM536.028 102.802V100.794H539.465V102.802H536.028ZM548.702 100.751V98.0532H547.011V100.751C546.998 103.666 545.37 106.705 542.934 107.874L543.99 109.216C545.799 108.278 547.173 106.363 547.869 104.095C548.559 106.251 549.914 108.029 551.71 108.93L552.717 107.588C550.311 106.506 548.695 103.635 548.702 100.751ZM550.989 103.33H554.501V112.523H556.154V96.7417H554.501V101.975H550.989V103.33ZM5.04696 126.282C2.64779 126.289 0.901243 127.743 0.901243 129.813C0.901243 131.876 2.64779 133.318 5.04696 133.318C7.41506 133.318 9.1616 131.876 9.17403 129.813C9.1616 127.743 7.41506 126.289 5.04696 126.282ZM2.5297 129.813C2.51727 128.526 3.59254 127.662 5.04696 127.669C6.48895 127.662 7.55801 128.526 7.55801 129.813C7.55801 131.106 6.48895 131.963 5.04696 131.963C3.59254 131.963 2.51727 131.106 2.5297 129.813ZM3.28798 135.811H11.9896V137.203H3.33771V141.293H14.1651V139.956H4.95995V138.446H13.6492V134.487H3.28798V135.811ZM11.9772 133.76H13.6492V125.742H11.9772V133.76ZM21.0208 128.265V126.562H19.3675V128.122C19.355 130.465 17.9317 132.573 15.4766 133.449L16.3778 134.773C18.2114 134.095 19.5477 132.709 20.2252 130.944C20.9151 132.498 22.2079 133.722 23.9358 134.331L24.8247 133.02C22.4752 132.249 21.0208 130.329 21.0208 128.265ZM17.6023 138.533C17.6023 140.404 19.6161 141.467 22.8854 141.467C26.1299 141.467 28.1189 140.404 28.1189 138.533C28.1189 136.7 26.1299 135.618 22.8854 135.618C19.6161 135.618 17.6023 136.7 17.6023 138.533ZM19.2742 138.533C19.2618 137.532 20.6106 136.942 22.8854 136.942C25.1541 136.942 26.4842 137.532 26.4842 138.533C26.4842 139.577 25.1541 140.143 22.8854 140.155C20.6106 140.143 19.2618 139.577 19.2742 138.533ZM26.3039 135.245H27.9759V131.099H30.257V129.707H27.9759V125.742H26.3039V135.245ZM35.4283 128.769V126.724H33.8123V128.769C33.8123 130.521 32.6749 132.517 30.5492 133.449L31.4566 134.742C32.9856 134.089 34.0609 132.815 34.6389 131.354C35.2046 132.647 36.2301 133.722 37.6907 134.282L38.5796 132.995C36.5284 132.231 35.4283 130.49 35.4283 128.769ZM33.4331 138.614C33.4207 140.404 35.478 141.467 38.7784 141.467C42.054 141.467 44.1238 140.404 44.1238 138.614C44.1238 136.811 42.054 135.755 38.7784 135.755C35.478 135.755 33.4207 136.811 33.4331 138.614ZM35.0927 138.614C35.0802 137.607 36.4787 137.023 38.7784 137.023C41.0533 137.023 42.4518 137.607 42.458 138.614C42.4518 139.615 41.0533 140.193 38.7784 140.18C36.4787 140.193 35.0802 139.615 35.0927 138.614ZM39.0644 134.947H40.6182V131.23H42.458V135.45H44.0367V125.754H42.458V129.856H40.6182V126.046H39.0644V134.947ZM58.0216 125.742H56.3559V135.028H58.0216V131.081H60.2654V129.67H58.0216V125.742ZM45.5223 133.523L45.7088 134.723C48.4684 134.723 52.2101 134.704 55.5914 134.139L55.4608 133.064C54.1369 133.244 52.7198 133.356 51.3089 133.424V132.597C53.0927 132.423 54.1991 131.696 54.2115 130.528C54.1991 129.241 52.7322 128.489 50.4574 128.489C48.1825 128.489 46.7032 129.241 46.7157 130.528C46.7032 131.702 47.8345 132.436 49.6432 132.597V133.48C48.1639 133.523 46.7467 133.523 45.5223 133.523ZM45.9263 128.035H55.0133V126.873H51.3089V125.599H49.6432V126.873H45.9263V128.035ZM47.6231 136.843H56.3683V137.912H47.6542V141.343H58.5996V140.18H49.3137V138.974H58.0216V135.693H47.6231V136.843ZM48.3068 130.528C48.3006 129.919 49.1211 129.577 50.4574 129.57C51.7937 129.577 52.6141 129.919 52.6141 130.528C52.6141 131.162 51.7937 131.541 50.4574 131.541C49.1211 131.541 48.3006 131.162 48.3068 130.528ZM74.1943 125.742H72.5907V141.492H74.1943V125.742ZM60.8248 132.541C60.8248 135.966 62.1612 138.11 64.2123 138.104C66.1639 138.11 67.4754 136.209 67.6308 133.132H69.4022V140.715H70.9934V126.046H69.4022V131.777H67.6246C67.4257 128.818 66.1266 127.003 64.2123 127.003C62.1612 127.003 60.8248 129.135 60.8248 132.541ZM62.3787 132.541C62.3663 130.037 63.0811 128.57 64.2123 128.57C65.3746 128.57 66.0956 130.037 66.0956 132.541C66.0956 135.052 65.3746 136.526 64.2123 136.513C63.0811 136.526 62.3663 135.052 62.3787 132.541ZM83.792 126.923C81.4364 126.929 79.783 129.073 79.7955 132.448C79.783 135.842 81.4364 137.986 83.792 137.986C85.9861 137.986 87.5772 136.078 87.7513 133.008H91.002V141.523H92.6553V125.742H91.002V131.646H87.7388C87.4902 128.738 85.9239 126.929 83.792 126.923ZM81.3866 132.448C81.3866 129.968 82.3625 128.427 83.792 128.414C85.2091 128.427 86.1912 129.968 86.1912 132.448C86.1912 134.947 85.2091 136.488 83.792 136.488C82.3625 136.488 81.3866 134.947 81.3866 132.448ZM107.653 125.742H106V129.253H103.004V130.633H106V133.542H102.917V134.934H106V141.523H107.653V125.742ZM95.0732 128.489H100.418V131.559H95.1229V137.893H96.31C98.7962 137.893 100.81 137.818 103.278 137.433L103.135 136.053C100.885 136.395 99.0013 136.488 96.7762 136.501V132.883H102.053V127.134H95.0732V128.489ZM116.722 126.015C113.278 126.015 111.09 127.122 111.09 129.011C111.09 130.863 113.278 131.97 116.722 131.957C120.178 131.97 122.34 130.863 122.34 129.011C122.34 127.122 120.178 126.015 116.722 126.015ZM109.555 134.4H115.901V136.053H111.277V141.293H122.16V136.053H117.548V134.4H123.913V133.039H109.555V134.4ZM112.825 129.011C112.812 127.923 114.298 127.302 116.722 127.308C119.133 127.302 120.631 127.923 120.631 129.011C120.631 130.068 119.133 130.671 116.722 130.671C114.298 130.671 112.812 130.068 112.825 129.011ZM112.924 139.938V137.383H120.538V139.938H112.924ZM131.738 126.003C128.189 126.003 126.107 126.96 126.107 128.706C126.107 130.478 128.189 131.435 131.738 131.448C135.287 131.435 137.357 130.478 137.357 128.706C137.357 126.96 135.287 126.003 131.738 126.003ZM124.572 133.741H138.93V132.405H124.572V133.741ZM126.281 136.202H135.468V137.439H126.312V141.343H137.562V140.05H127.947V138.639H137.109V134.953H126.281V136.202ZM127.854 128.706C127.841 127.787 129.234 127.24 131.738 127.246C134.262 127.24 135.648 127.787 135.648 128.706C135.648 129.689 134.262 130.192 131.738 130.192C129.234 130.192 127.841 129.689 127.854 128.706ZM156.222 132.815H146.831V127.115H145.152V134.189H156.222V132.815ZM143.443 139.422H157.857V138.017H143.443V139.422ZM171.525 125.742H169.853V141.492H171.525V125.742ZM158.422 136.979L159.728 137.936C162.543 134.947 163.364 131.317 163.376 127.426H159.056V128.806H161.785C161.605 131.945 160.666 134.63 158.422 136.979ZM163.028 138.086L164.439 138.974C167.23 135.593 167.789 131.367 167.789 127.426H163.917V128.806H166.204C166.061 132.162 165.315 135.363 163.028 138.086ZM186.224 130.354H177.025V126.314H175.372V131.69H186.224V130.354ZM173.451 135.009H187.865V133.673H173.451V135.009ZM175.254 141.119H186.324V139.758H176.914V136.507H175.254V141.119ZM206.705 133.157H192.348V134.518H206.705V133.157ZM193.1 131.019L193.678 132.33C196.412 132.019 198.656 130.869 199.514 129.198C200.378 130.876 202.634 132.019 205.369 132.33L205.972 131.019C203.063 130.708 200.832 129.421 200.645 127.892H205.412V126.519H193.659V127.892H198.401C198.203 129.434 195.953 130.708 193.1 131.019ZM194.044 138.608C194.044 140.441 196.095 141.467 199.508 141.467C202.901 141.467 204.94 140.441 204.953 138.608C204.94 136.78 202.901 135.73 199.508 135.73C196.095 135.73 194.044 136.78 194.044 138.608ZM195.741 138.608C195.729 137.595 197.102 137.048 199.508 137.035C201.888 137.048 203.274 137.595 203.287 138.608C203.274 139.608 201.888 140.149 199.508 140.149C197.102 140.149 195.729 139.608 195.741 138.608ZM212.784 128.265V126.562H211.131V128.122C211.118 130.465 209.695 132.573 207.24 133.449L208.141 134.773C209.975 134.095 211.311 132.709 211.988 130.944C212.678 132.498 213.971 133.722 215.699 134.331L216.588 133.02C214.238 132.249 212.784 130.329 212.784 128.265ZM209.366 138.533C209.366 140.404 211.379 141.467 214.649 141.467C217.893 141.467 219.882 140.404 219.882 138.533C219.882 136.7 217.893 135.618 214.649 135.618C211.379 135.618 209.366 136.7 209.366 138.533ZM211.038 138.533C211.025 137.532 212.374 136.942 214.649 136.942C216.917 136.942 218.247 137.532 218.247 138.533C218.247 139.577 216.917 140.143 214.649 140.155C212.374 140.143 211.025 139.577 211.038 138.533ZM218.067 135.245H219.739V131.099H222.02V129.707H219.739V125.742H218.067V135.245ZM236.757 132.2H222.381V133.536H236.757V132.2ZM224.09 136.059H233.277V137.358H224.121V141.324H235.371V140H225.756V138.589H234.917V134.773H224.09V136.059ZM224.252 131.05H235.042V129.707H225.917V127.544H234.893V126.208H224.252V131.05ZM242.525 126.86C240.045 126.86 238.224 128.402 238.237 130.615C238.224 132.834 240.045 134.369 242.525 134.369C245.018 134.369 246.801 132.834 246.814 130.615C246.801 128.402 245.018 126.86 242.525 126.86ZM237.478 136.743L237.683 138.135C240.499 138.135 244.328 138.117 247.895 137.439L247.765 136.221C244.321 136.718 240.35 136.749 237.478 136.743ZM239.884 130.615C239.871 129.229 240.996 128.309 242.525 128.309C244.054 128.309 245.179 129.229 245.185 130.615C245.179 132.007 244.054 132.921 242.525 132.921C240.996 132.921 239.871 132.007 239.884 130.615ZM248.753 141.523H250.419V125.742H248.753V141.523ZM270.626 133.809H264.256V131.994H262.615V133.809H256.269V135.171H270.626V133.809ZM257.027 131.485L257.543 132.771C260.253 132.523 262.459 131.603 263.435 130.136C264.405 131.603 266.611 132.523 269.34 132.771L269.843 131.485C266.717 131.236 264.554 130.086 264.367 128.576H269.184V127.24H264.256V125.735H262.615V127.24H257.711V128.576H262.503C262.304 130.086 260.147 131.236 257.027 131.485ZM257.965 138.838C257.965 140.541 259.992 141.467 263.429 141.467C266.86 141.467 268.861 140.541 268.874 138.838C268.861 137.135 266.86 136.209 263.429 136.209C259.992 136.209 257.965 137.135 257.965 138.838ZM259.662 138.838C259.65 137.936 261.005 137.458 263.429 137.458C265.834 137.458 267.195 137.936 267.208 138.838C267.195 139.739 265.834 140.211 263.429 140.199C261.005 140.211 259.65 139.739 259.662 138.838ZM277.134 129.023V128.93H280.621V127.594H277.153V125.742H275.468V127.594H271.975V128.93H275.468V129.023C275.468 131.056 273.958 132.958 271.534 133.698L272.361 135.003C274.244 134.406 275.642 133.119 276.345 131.485C277.078 132.958 278.489 134.102 280.335 134.617L281.124 133.318C278.682 132.647 277.128 130.901 277.134 129.023ZM273.697 138.558C273.691 140.41 275.717 141.467 279.055 141.467C282.361 141.467 284.387 140.41 284.4 138.558C284.387 136.724 282.361 135.655 279.055 135.662C275.717 135.655 273.691 136.724 273.697 138.558ZM275.375 138.558C275.375 137.557 276.711 136.967 279.055 136.967C281.379 136.967 282.747 137.557 282.747 138.558C282.747 139.59 281.379 140.168 279.055 140.168C276.711 140.168 275.375 139.59 275.375 138.558ZM282.678 135.363H284.35V125.754H282.678V135.363ZM299.348 125.742H297.67V141.523H299.348V125.742ZM286.843 132.448C286.843 135.842 288.539 137.986 290.914 137.986C293.263 137.986 294.979 135.842 294.979 132.448C294.979 129.073 293.263 126.929 290.914 126.923C288.539 126.929 286.843 129.073 286.843 132.448ZM288.452 132.448C288.452 129.968 289.459 128.427 290.914 128.414C292.368 128.427 293.363 129.968 293.363 132.448C293.363 134.947 292.368 136.488 290.914 136.488C289.459 136.488 288.452 134.947 288.452 132.448ZM309.237 127.252H301.934V137.557H309.237V135.121H312.799V141.523H314.452V125.742H312.799V129.452H309.237V127.252ZM303.587 136.227V128.564H307.609V136.227H303.587ZM309.237 133.772V130.814H312.799V133.772H309.237ZM328.45 127.252H321.06V137.601H328.45V127.252ZM322.713 136.258V128.576H326.828V136.258H322.713ZM331.558 141.523H333.236V125.742H331.558V141.523ZM347.793 126.481H337.009V127.83H346.133C346.133 128.961 346.115 130.273 345.748 132.038H335.206V133.393H341.552V136.078H336.679V137.421H346.183V141.492H347.861V136.078H343.212V133.393H349.62V132.038H347.426C347.793 130.211 347.793 128.825 347.793 127.656V126.481ZM362.133 127.128V126.27H360.392V127.128C360.392 129.247 357.844 131.186 354.755 131.603L355.426 132.964C357.987 132.554 360.243 131.224 361.269 129.359C362.294 131.211 364.551 132.554 367.124 132.964L367.789 131.603C364.687 131.186 362.133 129.222 362.133 127.128ZM354.078 135.892H360.399V141.492H362.04V135.892H368.435V134.512H354.078V135.892ZM374.222 126.86C371.742 126.86 369.921 128.402 369.933 130.615C369.921 132.834 371.742 134.369 374.222 134.369C376.714 134.369 378.498 132.834 378.511 130.615C378.498 128.402 376.714 126.86 374.222 126.86ZM369.175 136.743L369.38 138.135C372.196 138.135 376.024 138.117 379.592 137.439L379.462 136.221C376.018 136.718 372.047 136.749 369.175 136.743ZM371.58 130.615C371.568 129.229 372.693 128.309 374.222 128.309C375.751 128.309 376.876 129.229 376.882 130.615C376.876 132.007 375.751 132.921 374.222 132.921C372.693 132.921 371.568 132.007 371.58 130.615ZM380.45 141.523H382.116V125.742H380.45V141.523ZM389.568 129.751V127.053H387.908V129.751C387.896 132.641 386.261 135.655 383.844 136.824L384.882 138.166C386.672 137.234 388.051 135.351 388.754 133.113C389.444 135.214 390.774 136.979 392.495 137.868L393.521 136.532C391.184 135.388 389.556 132.535 389.568 129.751ZM394.708 141.492H396.38V133.449H398.904V132.026H396.38V125.742H394.708V141.492ZM408.009 127.258H404.485V125.599H402.826V127.258H399.146V128.601H408.009V127.258ZM400.029 132.119C400.016 133.822 401.496 134.947 403.64 134.947C405.766 134.947 407.27 133.822 407.282 132.119C407.27 130.41 405.766 129.266 403.64 129.266C401.496 129.266 400.016 130.41 400.029 132.119ZM401.589 132.119C401.576 131.149 402.391 130.534 403.64 130.534C404.871 130.534 405.716 131.149 405.728 132.119C405.716 133.082 404.871 133.71 403.64 133.71C402.391 133.71 401.576 133.082 401.589 132.119ZM401.881 141.293H412.255V135.718H410.601V137.203H403.54V135.718H401.881V141.293ZM403.54 139.975V138.477H410.601V139.975H403.54ZM408.04 133.76H410.589V135.077H412.255V125.742H410.589V129.316H408.059V130.677H410.589V132.398H408.04V133.76ZM427.166 125.742H425.5V141.492H427.166V125.742ZM414.225 137.209L414.461 138.602C417.345 138.602 421.155 138.558 424.648 137.98L424.524 136.724C423.138 136.905 421.665 137.017 420.21 137.085V135.562C422.032 135.307 423.219 134.226 423.219 132.703C423.219 130.925 421.652 129.757 419.353 129.757C417.065 129.757 415.518 130.925 415.53 132.703C415.518 134.238 416.711 135.326 418.545 135.568V137.147C417.003 137.191 415.524 137.203 414.225 137.209ZM414.554 128.955H424.17V127.619H420.217V125.773H418.545V127.619H414.554V128.955ZM417.103 132.703C417.09 131.696 418.029 131.05 419.353 131.05C420.701 131.05 421.628 131.696 421.628 132.703C421.628 133.704 420.701 134.325 419.353 134.319C418.029 134.325 417.09 133.704 417.103 132.703ZM441.43 125.742H439.758V141.473H441.43V133.418H443.873V132.019H441.43V125.742ZM429.167 137.278L430.099 138.57C435.289 136.016 437.297 131.951 437.309 127.407H429.956V128.787H435.612C435.258 132.461 433.12 135.307 429.167 137.278ZM461.538 125.742H459.953V141.492H461.538V125.742ZM447.796 137.16L448.827 138.396C450.363 137.439 451.432 135.68 451.991 133.623C452.538 135.525 453.57 137.128 455.08 138.03L456.075 136.799C453.862 135.525 452.774 132.834 452.774 130.136V128.874H455.49V127.513H448.281V128.874H451.165V130.136C451.165 132.939 450.027 135.805 447.796 137.16ZM454.316 132.678H456.771V140.696H458.343V126.077H456.771V131.323H454.316V132.678ZM475.424 125.735H473.752V137.309H475.424V131.833H477.705V130.441H475.424V125.735ZM463.285 130.739C463.272 133.032 465.1 134.661 467.48 134.661C469.854 134.661 471.657 133.032 471.669 130.739C471.657 128.439 469.854 126.823 467.48 126.823C465.1 126.823 463.272 128.439 463.285 130.739ZM464.919 130.739C464.907 129.266 466.038 128.278 467.48 128.278C468.935 128.278 470.035 129.266 470.047 130.739C470.035 132.2 468.935 133.2 467.48 133.2C466.038 133.2 464.907 132.2 464.919 130.739ZM465.442 141.169H476.095V139.801H467.101V136.103H465.442V141.169ZM490.335 125.742H488.681V141.492H490.335V133.511H492.858V132.125H490.335V125.742ZM477.978 129.57H487.308V128.209H483.529V125.947H481.863V128.209H477.978V129.57ZM478.786 134.4C478.78 136.557 480.433 138.055 482.708 138.061C484.958 138.055 486.611 136.557 486.618 134.4C486.611 132.249 484.958 130.733 482.708 130.733C480.433 130.733 478.78 132.249 478.786 134.4ZM480.384 134.4C480.371 133.045 481.359 132.113 482.708 132.113C484.038 132.113 485.014 133.045 485.027 134.4C485.014 135.761 484.038 136.675 482.708 136.669C481.359 136.675 480.371 135.761 480.384 134.4ZM505.83 130.354H496.631V126.314H494.978V131.69H505.83V130.354ZM493.057 135.009H507.471V133.673H493.057V135.009ZM494.859 141.119H505.929V139.758H496.519V136.507H494.859V141.119ZM524.539 126.481H513.755V127.83H522.88C522.88 128.961 522.855 130.385 522.488 132.305H511.953V133.666H526.367V132.305H524.166C524.539 130.267 524.539 128.756 524.539 127.581V126.481ZM513.476 137.172H522.961V141.529H524.626V135.848H513.476V137.172ZM541.327 133.772H534.969V132.075H539.463V126.115H537.803V127.811H530.506V126.115H528.847V132.075H533.309V133.772H526.97V135.133H541.327V133.772ZM528.561 137.868H537.884V141.492H539.562V136.532H528.561V137.868ZM530.506 130.733V129.067H537.803V130.733H530.506ZM544.404 126.556H542.732V133.809H550.004V130.913H553.448V134.344H555.113V125.742H553.448V129.521H550.004V126.556H548.351V128.849H544.404V126.556ZM544.404 132.461V130.155H548.351V132.461H544.404ZM544.845 141.274H555.101V135.084H553.448V136.849H546.505V135.084H544.845V141.274ZM546.505 139.913V138.154H553.448V139.913H546.505ZM14.942 162.965H0.584254V164.301H14.942V162.965ZM2.11948 158.421C2.11948 160.41 4.32597 161.61 7.75069 161.61C11.163 161.61 13.3695 160.41 13.3695 158.421C13.3695 156.445 11.163 155.258 7.75069 155.27C4.32597 155.258 2.11948 156.445 2.11948 158.421ZM2.39296 170.169H13.326V168.801H4.07113V165.581H2.39296V170.169ZM3.85359 158.421C3.84116 157.29 5.33909 156.606 7.75069 156.606C10.1623 156.606 11.6602 157.29 11.6602 158.421C11.6602 159.584 10.1623 160.249 7.75069 160.249C5.33909 160.249 3.84116 159.584 3.85359 158.421ZM31.7248 154.742H30.0528V170.523H31.7248V162.225H34.2482V160.839H31.7248V154.742ZM20.1205 166.613H21.3884C24.3097 166.619 26.4043 166.539 28.8656 166.11L28.6668 164.686C26.4105 165.097 24.4278 165.209 21.7862 165.221V157.613H27.4858V156.258H20.1205V166.613ZM41.6385 155.071C38.1951 155.071 36.0073 156.196 36.0073 158.098C36.0073 159.969 38.1951 161.081 41.6385 161.081C45.0943 161.081 47.2573 159.969 47.2573 158.098C47.2573 156.196 45.0943 155.071 41.6385 155.071ZM34.4721 163.642H48.8298V162.294H34.4721V163.642ZM36.1938 170.293H47.077V165.053H36.1938V170.293ZM37.7414 158.098C37.729 157.01 39.2145 156.389 41.6385 156.395C44.0501 156.389 45.548 157.01 45.548 158.098C45.548 159.148 44.0501 159.764 41.6385 159.77C39.2145 159.764 37.729 159.148 37.7414 158.098ZM37.8409 168.938V166.383H45.4548V168.938H37.8409ZM65.6126 154.742H63.9406V170.523H65.6126V162.225H68.1361V160.839H65.6126V154.742ZM54.0083 166.613H55.2762C58.1975 166.619 60.2921 166.539 62.7535 166.11L62.5546 164.686C60.2983 165.097 58.3156 165.209 55.674 165.221V157.613H61.3736V156.258H54.0083V166.613ZM81.4807 154.742H79.815V157.849H76.5021V159.223H79.815V165.637H81.4807V154.742ZM68.335 162.455L69.23 163.785C71.0698 163.102 72.4062 161.734 73.0899 159.988C73.7798 161.548 75.0664 162.791 76.7943 163.419L77.6707 162.132C75.3212 161.318 73.8916 159.347 73.9041 157.253V155.525H72.2383V157.141C72.2321 159.497 70.8026 161.591 68.335 162.455ZM70.1934 169.124L70.8274 170.417C73.2887 170.026 75.3523 168.826 76.3157 167.154C77.2666 168.845 79.3302 170.019 81.8102 170.417L82.4504 169.124C79.4358 168.671 77.1734 167.011 77.1858 165.003V164.575H75.4704V165.003C75.4642 166.943 73.1396 168.671 70.1934 169.124ZM99.5004 154.742H97.8284V170.473H99.5004V162.418H101.943V161.019H99.5004V154.742ZM87.2373 166.278L88.1696 167.57C93.3595 165.016 95.3671 160.951 95.3795 156.407H88.0266V157.787H93.6827C93.3284 161.461 91.1903 164.307 87.2373 166.278ZM108.041 159.391V157.706H111.633V156.327H102.757V157.706H106.35V159.391C106.337 162.095 104.578 165.059 102.204 166.166L103.18 167.483C105.007 166.595 106.487 164.68 107.22 162.443C107.953 164.531 109.42 166.271 111.279 167.092L112.192 165.774C109.768 164.742 108.041 162.02 108.041 159.391ZM113.616 170.492H115.294V154.742H113.616V170.492ZM129.534 154.742H127.862V170.473H129.534V162.418H131.976V161.019H129.534V154.742ZM117.271 166.278L118.203 167.57C123.393 165.016 125.4 160.951 125.413 156.407H118.06V157.787H123.716C123.362 161.461 121.224 164.307 117.271 166.278ZM141.593 165.146V164.394H139.983V165.146C139.97 166.675 138.877 168.31 136.857 169.044L137.689 170.262C139.175 169.721 140.219 168.677 140.785 167.434C141.269 168.727 142.227 169.839 143.743 170.405C145.185 169.808 146.13 168.646 146.627 167.384C147.174 168.677 148.231 169.727 149.785 170.262L150.611 169.044C148.56 168.366 147.479 166.787 147.491 165.146V164.394H145.85V165.146C145.85 166.352 145.136 167.856 143.694 168.789C142.27 167.931 141.593 166.501 141.593 165.146ZM136.452 159.347C136.452 161.529 138.23 163.046 140.648 163.046C143.06 163.046 144.831 161.529 144.831 159.347C144.831 157.147 143.06 155.631 140.648 155.631C138.23 155.631 136.452 157.147 136.452 159.347ZM138.087 159.347C138.075 157.968 139.15 157.035 140.648 157.048C142.127 157.035 143.196 157.968 143.196 159.347C143.196 160.721 142.127 161.653 140.648 161.66C139.15 161.653 138.075 160.721 138.087 159.347ZM147.528 163.717H149.2V154.754H147.528V163.717ZM154.577 164.189H152.93V170.293H163.651V164.189H161.979V165.861H154.577V164.189ZM151.152 163.189H165.51V161.821H151.152V163.189ZM151.923 159.534L152.544 160.845C155.08 160.485 157.318 159.285 158.337 157.601C159.344 159.279 161.569 160.485 164.118 160.845L164.721 159.534C161.7 159.155 159.189 157.402 159.189 155.581V154.91H157.473V155.581C157.473 157.458 154.975 159.13 151.923 159.534ZM154.577 168.956V167.154H161.979V168.956H154.577ZM179.234 154.742H177.58V170.492H179.234V154.742ZM167.132 166.489H168.45C170.936 166.495 173.466 166.302 176.25 165.724L176.033 164.32C173.497 164.842 171.079 165.035 168.773 165.053V156.277H167.132V166.489ZM193.455 154.742H191.783V170.523H193.455V162.225H195.978V160.839H193.455V154.742ZM181.85 166.613H183.118C186.04 166.619 188.134 166.539 190.596 166.11L190.397 164.686C188.141 165.097 186.158 165.209 183.516 165.221V157.613H189.216V156.258H181.85V166.613ZM197.992 169.118C198.663 169.118 199.235 168.559 199.235 167.875C199.235 167.191 198.663 166.632 197.992 166.632C197.302 166.632 196.73 167.191 196.743 167.875C196.73 168.559 197.302 169.118 197.992 169.118Z" fill="#666666"/>
</svg>
