<svg width="22" height="22" viewBox="0 0 22 22" fill="none" xmlns="http://www.w3.org/2000/svg">
<path d="M10.5339 7.21875C9.78607 7.21875 9.05501 7.44052 8.43318 7.856C7.81136 8.27149 7.32671 8.86204 7.04052 9.55297C6.75432 10.2439 6.67944 11.0042 6.82534 11.7377C6.97124 12.4712 7.33137 13.1449 7.86019 13.6737C8.389 14.2026 9.06276 14.5627 9.79625 14.7086C10.5297 14.8545 11.29 14.7796 11.9809 14.4934C12.6719 14.2072 13.2624 13.7226 13.6779 13.1007C14.0934 12.4789 14.3152 11.7479 14.3152 11C14.314 9.99749 13.9153 9.03638 13.2064 8.32751C12.4975 7.61863 11.5364 7.21989 10.5339 7.21875V7.21875ZM10.5339 13.4062C10.058 13.4062 9.5928 13.2651 9.19709 13.0007C8.80139 12.7363 8.49297 12.3605 8.31085 11.9208C8.12873 11.4811 8.08107 10.9973 8.17392 10.5306C8.26677 10.0638 8.49594 9.63504 8.83246 9.29852C9.16898 8.962 9.59773 8.73283 10.0645 8.63998C10.5313 8.54714 11.0151 8.59479 11.4548 8.77691C11.8944 8.95904 12.2702 9.26745 12.5347 9.66315C12.7991 10.0589 12.9402 10.5241 12.9402 11C12.9395 11.6379 12.6857 12.2496 12.2346 12.7007C11.7835 13.1518 11.1719 13.4055 10.5339 13.4062V13.4062Z" fill="#F4F4F4"/>
<path d="M19.9675 13.8495L18.6024 12.7258C18.8444 11.5879 18.8444 10.4119 18.6024 9.274L19.9675 8.15024C20.1249 8.02124 20.2313 7.8404 20.2676 7.64011C20.3038 7.43983 20.2676 7.23317 20.1654 7.05715L18.7641 4.63015C18.6628 4.45356 18.5019 4.31882 18.3103 4.25008C18.1187 4.18134 17.9088 4.1831 17.7184 4.25503L16.0614 4.8758C15.1983 4.09595 14.18 3.50742 13.0734 3.1488L12.7827 1.40552C12.7498 1.20461 12.6464 1.02199 12.491 0.890395C12.3357 0.758799 12.1386 0.686827 11.935 0.687381H9.13247C8.92889 0.686834 8.73178 0.758803 8.57644 0.890389C8.42111 1.02198 8.31771 1.20458 8.28478 1.40547L7.99423 3.1488C6.88761 3.50741 5.86932 4.09594 5.00618 4.8758L3.34909 4.25495C3.15865 4.18306 2.94884 4.18133 2.75724 4.25008C2.56564 4.31882 2.40479 4.45355 2.30349 4.63011L0.902236 7.05728C0.80004 7.23331 0.763848 7.43997 0.800144 7.64025C0.83644 7.84053 0.942852 8.02135 1.10032 8.15032L2.46531 9.274C2.22331 10.4119 2.22331 11.5879 2.46531 12.7258L1.10019 13.8495C0.942748 13.9785 0.836366 14.1594 0.800094 14.3596C0.763822 14.5599 0.800031 14.7666 0.902236 14.9426L2.30353 17.3696C2.40484 17.5462 2.56572 17.6809 2.75735 17.7497C2.94897 17.8184 3.15881 17.8167 3.34926 17.7447L5.00622 17.124C5.86937 17.9038 6.88765 18.4924 7.99427 18.851L8.28483 20.5942C8.31775 20.7951 8.42113 20.9777 8.57646 21.1093C8.73178 21.2409 8.92889 21.3129 9.13247 21.3124H11.935C12.1386 21.3129 12.3357 21.241 12.491 21.1094C12.6463 20.9778 12.7497 20.7952 12.7827 20.5943L13.0733 18.851C14.1799 18.4923 15.1982 17.9038 16.0613 17.124L17.7184 17.7448C17.9088 17.8167 18.1186 17.8184 18.3102 17.7497C18.5018 17.6809 18.6627 17.5462 18.764 17.3697L20.1651 14.9425C20.2674 14.7665 20.3036 14.5599 20.2674 14.3596C20.2312 14.1594 20.1249 13.9785 19.9675 13.8495V13.8495ZM17.7917 16.3039L15.7245 15.5294L15.4115 15.8446C14.5503 16.7126 13.473 17.3352 12.2909 17.6481L11.8612 17.7614L11.4983 19.9374H9.56946L9.20672 17.7614L8.77703 17.6481C7.59491 17.3352 6.51767 16.7126 5.65643 15.8446L5.3434 15.5294L3.27587 16.3039L2.31161 14.6334L4.01442 13.2316L3.8984 12.8031C3.57935 11.6221 3.57935 10.3777 3.8984 9.1967L4.01442 8.76821L2.31161 7.3664L3.27609 5.69586L5.34327 6.47033L5.6563 6.1552C6.51754 5.28713 7.59479 4.66454 8.7769 4.35167L9.20659 4.2384L9.56929 2.06238H11.4983L11.8611 4.2384L12.2908 4.35167C13.4729 4.66454 14.5501 5.28713 15.4114 6.1552L15.7244 6.47033L17.7916 5.69586L18.7561 7.36636L17.0533 8.76821L17.1693 9.1967C17.4884 10.3777 17.4884 11.6221 17.1693 12.8031L17.0533 13.2316L18.7561 14.6334L17.7917 16.3039Z" fill="#F4F4F4"/>
</svg>
