<svg width="853" height="390" viewBox="0 0 853 390" fill="none" xmlns="http://www.w3.org/2000/svg">
<path d="M0 120H853V374C853 382.837 845.837 390 837 390H16C7.16346 390 0 382.837 0 374V120Z" fill="#FFF6F2"/>
<path d="M0 16C0 7.16344 7.16344 0 16 0H837C845.837 0 853 7.16344 853 16V120H0V16Z" fill="#FFECDE"/>
<path d="M374.48 46.26V34.85H376.51L380.444 41.234L384.378 34.85H386.408V46.26H383.86V40.002L381.214 44.384H379.674L377.028 40.002V46.26H374.48ZM393.717 38.056H396.307L391.589 49.676H389.139L390.623 46.036L387.389 38.056H390.147L391.925 43.124L393.717 38.056ZM401.076 46.26V34.85H405.458C408.426 34.85 410.162 36.502 410.162 39.022C410.162 41.57 408.426 43.222 405.458 43.222H403.624V46.26H401.076ZM403.624 40.968H405.346C406.76 40.968 407.614 40.296 407.614 39.022C407.614 37.762 406.76 37.104 405.346 37.104H403.624V40.968ZM415.106 46.456C412.6 46.456 410.836 44.664 410.836 42.158C410.836 39.666 412.6 37.86 415.106 37.86C417.612 37.86 419.376 39.652 419.376 42.158C419.376 42.396 419.362 42.662 419.32 42.956H413.314C413.51 43.908 414.168 44.454 415.106 44.454C415.82 44.454 416.408 44.202 416.618 43.81H419.124C418.704 45.378 417.094 46.456 415.106 46.456ZM413.3 41.346H416.94C416.73 40.366 416.086 39.834 415.106 39.834C414.126 39.834 413.51 40.366 413.3 41.346ZM425.549 38.056V40.198H423.925V46.26H421.433V40.198H419.809V38.056H421.433V35.62H423.925V38.056H425.549ZM434.868 34.57C437.416 34.57 439.32 36.124 439.446 38.294H436.814C436.66 37.3 435.918 36.698 434.7 36.698C433.51 36.698 432.852 37.174 432.852 37.86C432.852 38.714 433.734 39.008 435.96 39.47C438.592 40.016 439.488 41.318 439.488 43.026C439.488 45.21 437.43 46.54 434.882 46.54C432.068 46.54 430.01 45.014 429.898 42.578H432.516C432.656 43.67 433.608 44.398 435.064 44.398C436.1 44.398 436.87 43.88 436.87 43.138C436.87 42.228 436.1 41.864 434.07 41.486C431.592 41.024 430.248 40.002 430.248 37.86C430.248 35.802 432.292 34.57 434.868 34.57ZM445.801 38.056V40.198H444.177V46.26H441.685V40.198H440.061V38.056H441.685V35.62H444.177V38.056H445.801ZM450.22 46.456C447.868 46.456 446.23 44.65 446.23 42.158C446.23 39.666 447.868 37.86 450.22 37.86C451.298 37.86 452.082 38.238 452.572 38.896V38.056H455.064V46.26H452.572V45.42C452.082 46.078 451.298 46.456 450.22 46.456ZM450.612 44.328C451.83 44.328 452.614 43.418 452.614 42.158C452.614 40.898 451.83 39.988 450.612 39.988C449.422 39.988 448.666 40.898 448.666 42.158C448.666 43.418 449.422 44.328 450.612 44.328ZM456.805 46.26V38.056H459.297V38.84C459.787 38.182 460.403 37.86 461.313 37.86C462.349 37.86 463.203 38.28 463.749 39.036C464.365 38.252 465.233 37.86 466.479 37.86C468.369 37.86 469.629 39.232 469.629 41.514V46.26H467.137V41.934C467.137 40.688 466.661 40.002 465.751 40.002C464.939 40.002 464.505 40.646 464.463 41.808V46.26H461.971V41.934C461.971 40.688 461.495 40.002 460.585 40.002C459.773 40.002 459.339 40.646 459.297 41.808V46.26H456.805ZM471.171 49.676V38.056H473.663V38.896C474.153 38.238 474.937 37.86 476.015 37.86C478.367 37.86 480.005 39.666 480.005 42.158C480.005 44.65 478.367 46.456 476.015 46.456C474.937 46.456 474.153 46.078 473.663 45.42V49.676H471.171ZM475.623 44.328C476.813 44.328 477.569 43.418 477.569 42.158C477.569 40.898 476.813 39.988 475.623 39.988C474.405 39.988 473.621 40.898 473.621 42.158C473.621 43.418 474.405 44.328 475.623 44.328Z" fill="#FF8A33"/>
<path d="M375.729 62.8453V76.9503H365.477V62.8453H375.729ZM368.427 74.5801H372.753V65.1906H368.427V74.5801ZM378.637 82.163V60.8149H381.629V68.8702H384.778V71.3646H381.629V82.163H378.637ZM402.679 60.8149V82.2127H399.654V60.8149H402.679ZM385.45 69.9144C385.441 65.2735 387.828 62.3232 391.093 62.3232C394.317 62.3232 396.704 65.2735 396.712 69.9144C396.704 74.605 394.317 77.5387 391.093 77.5387C387.828 77.5387 385.441 74.605 385.45 69.9144ZM388.342 69.9144C388.325 73.105 389.436 74.8287 391.093 74.8287C392.718 74.8287 393.82 73.105 393.82 69.9144C393.82 66.7569 392.718 65.0249 391.093 65.0249C389.436 65.0249 388.325 66.7569 388.342 69.9144ZM423.281 60.8149V75.442H420.422V60.8149H423.281ZM404.66 70.6685C405.182 70.6685 405.77 70.6685 406.392 70.6602V64.8425H405.049V62.4475H414.911V64.8425H413.477V70.3867C414.091 70.337 414.679 70.2707 415.234 70.2044L415.383 72.3923C412.06 73.0221 407.759 73.0635 404.966 73.0635L404.66 70.6685ZM407.469 79.7431C412.052 79.2376 414.348 77.0746 414.356 74.9033V74.3646H417.323V74.9033C417.323 77.0746 419.651 79.2376 424.267 79.7431L423.182 82.0635C419.709 81.616 417.182 80.2238 415.848 78.3094C414.53 80.2238 412.011 81.616 408.513 82.0635L407.469 79.7431ZM409.127 70.6105C409.682 70.5939 410.237 70.5773 410.801 70.5525V64.8425H409.127V70.6105ZM414.339 68.8453V66.4337H416.386V61.2541H419.162V73.4945H416.386V68.8453H414.339ZM440.905 63.6326C440.896 66.7652 443.664 70.105 448.496 70.9254L447.178 73.4116C443.457 72.674 440.698 70.5773 439.322 67.8425C437.921 70.5608 435.153 72.6657 431.457 73.4116L430.173 70.9254C434.913 70.0801 437.698 66.732 437.714 63.6326V62.0994H440.905V63.6326ZM429.684 79.5442V77.0829H449.192V79.5442H429.684ZM458.88 62.116V64.4696H453.319V66.1271H458.673V68.4392H453.319V70.1878C455.681 70.1547 457.43 70.0387 459.41 69.7072L459.7 72.0773C457.206 72.5249 455.126 72.5912 451.894 72.5746H450.444V62.116H458.88ZM453.468 81.9227V74.2238H468.029V81.9227H453.468ZM456.444 79.5276H465.071V76.5691H456.444V79.5276ZM460.554 73.2044V61.221H463.339V65.9282H465.195V60.8481H468.029V73.395H465.195V68.3729H463.339V73.2044H460.554ZM489.236 77.1989V79.6768H469.728V77.1989H489.236ZM471.253 65.0994V62.6961H487.612V65.0994H484.604V71.5552H487.513V73.9171H471.344V71.5552H474.203V65.0994H471.253ZM477.187 71.5552H481.654V65.0994H477.187V71.5552Z" fill="#2C2827"/>
</svg>
