<svg width="23" height="23" viewBox="0 0 23 23" fill="none" xmlns="http://www.w3.org/2000/svg">
<path d="M0.390698 22.6056L0.394777 22.6097C0.502917 22.7186 0.631525 22.8051 0.773205 22.8642C0.914884 22.9232 1.06684 22.9537 1.22034 22.9538C1.3495 22.9538 1.47777 22.9325 1.60003 22.8908L8.25656 20.6327L21.03 7.8593C21.8109 7.07836 22.2495 6.0192 22.2495 4.91483C22.2494 3.81046 21.8107 2.75134 21.0297 1.97047C20.2488 1.18959 19.1896 0.750928 18.0853 0.750977C16.9809 0.751025 15.9218 1.18978 15.1409 1.97072L2.36746 14.7442L0.109589 21.4005C0.038466 21.6075 0.0271135 21.8303 0.0768332 22.0435C0.126553 22.2566 0.235332 22.4515 0.390698 22.6056ZM16.2016 3.03136C16.7019 2.53492 17.3785 2.25695 18.0833 2.2583C18.788 2.25965 19.4636 2.54023 19.9619 3.03859C20.4602 3.53694 20.7408 4.21247 20.7421 4.91724C20.7435 5.62202 20.4655 6.2986 19.969 6.79885L18.2893 8.47857L14.5218 4.71108L16.2016 3.03136ZM3.67575 15.5572L13.4612 5.77172L17.2287 9.53921L7.44318 19.3246L1.74159 21.2588L3.67575 15.5572Z" fill="#666666"/>
</svg>
