<svg width="36" height="36" viewBox="0 0 36 36" fill="none" xmlns="http://www.w3.org/2000/svg">
<path fill-rule="evenodd" clip-rule="evenodd" d="M18.1052 9.67468L18.5118 11.0003C18.173 11.2699 15.2592 13.8538 15.0785 13.5617C15.0559 13.5393 10.0411 10.9329 6.65284 11.8541C2.94833 12.8652 0.260352 16.7298 0.825064 21.6279C1.48013 27.2001 10.4027 30.2333 14.8074 26.3687L15.6432 25.6273C15.9595 25.7621 18.1956 26.8181 18.557 26.8181C18.7377 26.8181 18.7829 26.9529 18.6699 27.2225C16.0723 33.6485 26.7793 39.0634 32.1328 34.008C35.3404 30.9748 33.8043 23.1557 29.8739 22.639C28.496 22.4592 28.383 23.0209 29.5576 24.2118C33.6235 28.3909 28.3378 36.9289 23.7523 33.5811C18.7603 29.9637 22.4649 22.6165 27.2763 22.5716C27.9313 22.5716 28.1345 22.1896 27.6376 21.92C25.7402 20.9089 22.9391 21.7178 20.7706 23.9197L19.4605 25.4475C19.2347 25.3577 17.2016 24.5488 16.5918 24.2792L17.1115 22.9985C18.015 20.7516 18.0601 18.9092 17.2017 16.932C16.5692 15.4266 16.524 15.2244 16.8629 15.0222C17.3598 14.7301 19.5284 13.1124 19.8898 12.8427L21.087 13.6291C27.3665 17.7633 35.2725 14.1234 35.25 7.09081C35.2274 3.42846 32.3135 1.49617 29.264 0.597435C20.1157 -2.05384 16.5466 4.68669 18.1052 9.67468ZM32.1553 6.46169C32.1553 13.0899 24.0009 16.0333 21.7421 10.2139C20.8386 7.85474 21.245 -0.436114 28.383 1.72086C30.4159 2.3275 32.1553 4.0351 32.1553 6.46169ZM14.8074 15.6738C16.6597 18.37 15.1689 23.8747 11.1255 25.9194C8.77633 27.1102 5.63645 25.5599 4.71032 22.7513C3.89714 20.3472 4.75554 17.3814 6.22379 15.4491C8.86664 11.9665 13.8587 14.3032 14.8074 15.6738Z" fill="#666666"/>
</svg>
