<svg width="28" height="30" viewBox="0 0 28 30" fill="none" xmlns="http://www.w3.org/2000/svg">
<path fill-rule="evenodd" clip-rule="evenodd" d="M14.0841 8.33984L14.4094 9.40035C14.1383 9.61605 11.8073 11.6831 11.6628 11.4495C11.6447 11.4315 7.63284 9.34643 4.92222 10.0834C1.95862 10.8923 -0.191767 13.9839 0.260002 17.9024C0.784054 22.3601 7.92208 24.7867 11.4459 21.6951L12.1145 21.1019C12.3675 21.2098 14.1564 22.0546 14.4455 22.0546C14.5901 22.0546 14.6263 22.1624 14.5359 22.3781C12.4578 27.5189 21.0234 31.8508 25.3062 27.8065C27.8722 25.3799 26.6434 19.1247 23.4991 18.7113C22.3968 18.5675 22.3064 19.0168 23.246 19.9695C26.4988 23.3128 22.2702 30.1432 18.6018 27.465C14.6082 24.571 17.5719 18.6933 21.421 18.6574C21.945 18.6574 22.1076 18.3518 21.71 18.1361C20.1921 17.3272 17.9512 17.9743 16.2164 19.7358L15.1684 20.9581C14.9877 20.8862 13.3613 20.2391 12.8734 20.0234L13.2891 18.9989C14.012 17.2014 14.048 15.7275 13.3613 14.1457C12.8553 12.9414 12.8192 12.7796 13.0902 12.6178C13.4878 12.3842 15.2227 11.09 15.5118 10.8743L16.4695 11.5034C21.4932 14.8108 27.818 11.8988 27.7999 6.27275C27.7818 3.34286 25.4507 1.79704 23.0112 1.07805C15.6925 -1.04298 12.8373 4.34945 14.0841 8.33984ZM25.3242 5.76945C25.3242 11.072 18.8007 13.4267 16.9936 8.77124C16.2708 6.88389 16.596 0.251207 22.3063 1.97678C23.9327 2.4621 25.3242 3.82818 25.3242 5.76945ZM11.4459 13.1391C12.9277 15.2961 11.735 19.6999 8.50037 21.3356C6.62102 22.2883 4.10911 21.048 3.36821 18.8011C2.71766 16.8778 3.40438 14.5052 4.57898 12.9594C6.69326 10.1733 10.6869 12.0426 11.4459 13.1391Z" fill="#666666"/>
</svg>
