<svg width="38" height="36" viewBox="0 0 38 36" fill="none" xmlns="http://www.w3.org/2000/svg">
<path d="M8.47149 24.1152L8.4733 24.1168C8.62235 24.2468 8.73865 24.3713 8.80793 24.4877C8.87204 24.5954 8.93248 24.7634 8.82745 24.9148C8.73589 25.0468 8.57052 25.0804 8.44048 25.0887C8.29604 25.098 8.11435 25.0807 7.90198 25.0414C7.46576 24.978 7.12942 24.817 6.85247 24.5381C6.58119 24.265 6.37832 23.8899 6.18453 23.4217C6.05208 23.1046 5.95269 22.6572 5.87792 22.1256C5.80267 21.5905 5.75071 20.9575 5.71822 20.2623C5.65324 18.8717 5.66571 17.2224 5.72867 15.5917C5.79165 13.9606 5.90526 12.345 6.04317 11.0212C6.18012 9.70655 6.34312 8.6563 6.51111 8.1726L6.5113 8.17204C6.70365 7.62333 6.9039 7.20603 7.19337 6.92926C7.49425 6.64156 7.86825 6.52625 8.35447 6.52625C8.52961 6.52625 8.68263 6.55132 8.80189 6.60675C8.92191 6.66254 9.03256 6.76344 9.05238 6.91685C9.07127 7.06303 8.99811 7.18981 8.91035 7.28109C8.82016 7.3749 8.69205 7.4568 8.53711 7.52427C8.33745 7.61365 8.20832 7.68174 8.11098 7.77156C8.01925 7.85621 7.94416 7.97158 7.88269 8.17575C7.75353 8.60468 7.70211 9.35524 7.65082 10.8334L7.65081 10.8337C7.56178 13.2795 7.50139 15.8245 7.47597 17.8538C7.46325 18.8685 7.4593 19.7535 7.46486 20.4323C7.47046 21.1171 7.48579 21.578 7.50925 21.7553C7.50926 21.7554 7.50927 21.7554 7.50927 21.7555L7.54569 22.026L8.10458 21.2785C8.10468 21.2784 8.10478 21.2783 8.10489 21.2781C9.51977 19.3616 11.1599 17.9536 12.8117 17.1647C14.4635 16.3757 16.1384 16.2015 17.6027 16.7776C17.603 16.7777 17.6033 16.7778 17.6035 16.7779L18.1633 16.9931L18.3901 16.7008C20.4335 14.0547 22.7753 12.5698 24.9977 12.3413C27.2335 12.1113 29.3031 13.1576 30.7689 15.4726C30.769 15.4728 30.7692 15.473 30.7693 15.4732L30.7916 15.508C30.835 14.22 30.9279 11.5899 31.0637 10.5698M8.47149 24.1152L31.262 10.5958M8.47149 24.1152C8.46229 24.1074 8.45329 24.0997 8.44449 24.0922C8.37209 24.0306 8.31305 23.9804 8.2637 23.9339C8.20824 23.8816 8.17564 23.8436 8.15687 23.8131C8.14027 23.7862 8.13687 23.7691 8.13688 23.7543C8.1369 23.7367 8.14205 23.7042 8.17037 23.6481C8.23051 23.5289 8.36551 23.3586 8.6201 23.0872C8.85031 22.8417 9.16392 22.5282 9.57965 22.1126C9.61628 22.076 9.6537 22.0385 9.69193 22.0003M8.47149 24.1152L9.69193 22.0003M31.0637 10.5698C31.0637 10.5697 31.0637 10.5695 31.0637 10.5694L31.262 10.5958M31.0637 10.5698C31.0637 10.5699 31.0636 10.5701 31.0636 10.5702L31.262 10.5958M31.0637 10.5698C31.1266 10.0815 31.1273 9.79196 31.0459 9.5351C30.964 9.27674 30.7918 9.028 30.4504 8.63965M31.262 10.5958C31.3892 9.60922 31.2875 9.28888 30.6003 8.50728C30.1931 8.04601 28.1695 7.6488 24.6061 7.32847C20.9282 6.99533 19.4647 6.9697 16.3849 7.14909C11.9943 7.40535 10.4162 7.34129 10.4162 6.89283C10.4162 6.58531 12.4524 6.29061 15.7613 6.12404C25.217 5.63714 30.6511 6.58531 31.8601 8.94293C32.1019 9.44265 32.2165 13.7222 32.0384 16.1055C31.8795 18.1821 31.8261 19.7545 31.7854 20.9556L31.7854 20.9559V20.956C31.6629 24.5644 31.6542 24.8215 29.2386 25.331C27.9144 25.6095 26.2143 25.4941 23.9238 25.3386H23.9237L23.9235 25.3386C23.2642 25.2939 22.5559 25.2458 21.7936 25.2028M30.4504 8.63965L30.6001 8.50749L30.4501 8.63934C30.4502 8.63944 30.4503 8.63955 30.4504 8.63965ZM30.4504 8.63965C30.3848 8.56536 30.2248 8.46772 29.9263 8.36208C29.6365 8.25954 29.2446 8.15885 28.7482 8.06127C27.756 7.86624 26.3672 7.6876 24.5882 7.52767L24.5881 7.52766C20.9186 7.19528 19.4651 7.17002 16.3965 7.34875C14.2017 7.47685 12.7002 7.52557 11.7456 7.48505C11.2708 7.4649 10.9155 7.42226 10.6738 7.34964C10.5534 7.31347 10.4446 7.26514 10.3627 7.1952C10.2746 7.11998 10.2162 7.01732 10.2162 6.89283C10.2162 6.73925 10.3376 6.6492 10.4062 6.60748C10.4897 6.55666 10.6009 6.51348 10.7281 6.47498C10.9852 6.39709 11.355 6.32453 11.8194 6.25762C12.7508 6.12342 14.094 6.00772 15.751 5.9243M15.751 5.9243L15.7612 6.12361L15.7512 5.92429C15.7511 5.92429 15.751 5.9243 15.751 5.9243ZM15.751 5.9243C20.4847 5.68055 24.2244 5.79511 26.9377 6.26978C28.2943 6.50712 29.403 6.8359 30.2537 7.26043C31.1041 7.68486 31.71 8.21181 32.0381 8.85167L32.0402 8.8558L32.0402 8.85582C32.0853 8.94908 32.1167 9.09932 32.1422 9.26618C32.1691 9.4421 32.1932 9.66466 32.2144 9.92131C32.2568 10.4351 32.2883 11.0954 32.3067 11.8128C32.3434 13.2467 32.3276 14.9196 32.2378 16.1204L32.2378 16.1208C32.0792 18.1933 32.026 19.7624 31.9852 20.9631L31.9851 20.9665L31.9845 20.9843C31.9443 22.1693 31.9157 23.012 31.8039 23.6182C31.6895 24.2391 31.4812 24.6498 31.0573 24.9378C30.6553 25.2109 30.077 25.3585 29.2798 25.5267L29.2797 25.5267C28.4013 25.7115 27.3718 25.7263 26.1469 25.6733C25.4708 25.6441 24.7248 25.5935 23.9058 25.5379C23.246 25.4931 22.5389 25.4452 21.7827 25.4025M21.7827 25.4025C21.7828 25.4026 21.783 25.4026 21.7831 25.4026L21.7936 25.2028M21.7827 25.4025C19.8386 25.3002 17.4647 25.233 15.3121 25.1753C15.1299 25.1705 14.9493 25.1656 14.7706 25.1609C12.8409 25.1095 11.1399 25.0641 10.1749 25.0053C9.94402 24.9912 9.73752 24.9399 9.57635 24.8648C9.42765 24.7956 9.27238 24.6844 9.22162 24.5228C9.19286 24.4312 9.20173 24.3329 9.25395 24.2454C9.30238 24.1643 9.37877 24.1076 9.45987 24.0676C9.62011 23.9887 9.85775 23.946 10.1702 23.9394M21.7827 25.4025C21.7826 25.4025 21.7825 25.4025 21.7824 25.4025L21.7936 25.2028M21.7936 25.2028C19.6823 25.0917 17.0659 25.022 14.7781 24.961L14.7777 24.961C12.8459 24.9095 11.1484 24.8643 10.1871 24.8056C9.34718 24.7544 8.96544 24.165 10.1744 24.1393M22.8372 23.6268C23.1426 24.1393 23.1172 24.3572 22.7481 24.2419M22.8372 23.6268C21.59 21.5383 21.2718 21.1026 19.8592 19.6547M22.8372 23.6268L22.6654 23.7292C22.6654 23.7293 22.6655 23.7293 22.6655 23.7294M22.8372 23.6268L22.6655 23.7294M22.7481 24.2419L7.93452 24.8441C8.76174 24.9978 8.91448 24.7672 8.34179 24.2675L8.3145 24.2442C8.11081 24.0709 7.97391 23.9544 7.94335 23.8147C7.88072 23.5282 8.26501 23.1441 9.43705 21.9723L9.5508 21.8586C13.0887 18.335 16.3467 16.0542 19.8592 19.6547M22.7481 24.2419C22.4172 24.1393 12.8979 24.0753 10.1744 24.1393M22.7481 24.2419L9.69193 22.0003M19.8592 19.6547L19.716 19.7944C18.8558 18.9127 18.0231 18.403 17.2106 18.1773C16.4 17.9521 15.5937 18.0051 14.7773 18.275C13.1314 18.8191 11.4622 20.2372 9.69193 22.0003M19.8592 19.6547L19.716 19.7944C20.4211 20.5171 20.8462 20.9803 21.2501 21.5203C21.655 22.0618 22.0415 22.6844 22.6655 23.7294M22.6655 23.7294C22.7387 23.8522 22.7881 23.951 22.8173 24.027C22.8214 24.0377 22.825 24.0477 22.8282 24.057M22.8282 24.057C22.8218 24.0552 22.815 24.0532 22.8077 24.051L22.8073 24.0508C22.7765 24.0413 22.7393 24.0366 22.713 24.0336C22.6811 24.03 22.6416 24.0267 22.596 24.0236C22.5045 24.0173 22.3816 24.0113 22.2322 24.0055C21.9331 23.994 21.522 23.9833 21.0308 23.9736C20.0481 23.9542 18.7412 23.9386 17.36 23.9281C14.5989 23.9073 11.5357 23.9073 10.1702 23.9394M22.8282 24.057C22.8362 24.0806 22.8412 24.0999 22.8442 24.1151C22.848 24.1346 22.8474 24.1429 22.8474 24.1429C22.8474 24.1429 22.8474 24.1428 22.8475 24.1425C22.848 24.1387 22.8516 24.1207 22.8686 24.1013C22.886 24.0813 22.9052 24.0742 22.9128 24.0723C22.9137 24.0721 22.9136 24.0721 22.9123 24.0721C22.907 24.0721 22.8821 24.0722 22.8282 24.057ZM10.1702 23.9394L10.1744 24.1393M10.1702 23.9394C10.17 23.9394 10.1699 23.9394 10.1697 23.9394L10.1744 24.1393M19.517 17.9154C19.5402 17.8947 19.5679 17.8703 19.6 17.8425C19.7062 17.7504 19.8552 17.6246 20.0344 17.4755C20.3926 17.1774 20.8682 16.7884 21.3562 16.394C22.3388 15.5996 23.3516 14.799 23.5689 14.6592L23.5706 14.6581C24.7689 13.8703 26.4047 13.6789 27.584 14.1633C28.4069 14.5045 28.9783 14.9892 29.6632 15.9042C29.6848 15.9338 29.706 15.9627 29.7268 15.991C29.9726 16.3265 30.1542 16.5743 30.2887 16.7832C30.4334 17.0078 30.5159 17.1757 30.5616 17.3433C30.6522 17.6755 30.6107 18.0354 30.5139 18.8742C30.5105 18.9038 30.507 18.9341 30.5035 18.9649C30.4015 19.8122 30.2614 21.1073 30.185 21.8378L30.1849 21.8388C30.1145 22.5475 30.039 23.0348 29.887 23.377C29.7441 23.6987 29.5332 23.8928 29.1571 24.0091C28.7622 24.1314 28.1897 24.166 27.3329 24.1416C26.6268 24.1215 25.7463 24.0623 24.6386 23.9879C24.4421 23.9747 24.2386 23.961 24.0276 23.947L23.47 22.9528C23.4699 22.9527 23.4699 22.9527 23.4699 22.9527L23.4697 22.9524L23.2953 23.0502M19.517 17.9154L19.2865 17.8609C19.2356 17.925 19.592 18.3734 20.0374 18.8603M19.517 17.9154C19.5445 17.9587 19.5838 18.0141 19.6347 18.0805C19.7678 18.2547 19.9635 18.4831 20.1837 18.7239M19.517 17.9154L20.1837 18.7239M23.2953 23.0502C22.659 21.9099 21.45 20.3466 20.0374 18.8603M23.2953 23.0502L23.9061 24.1393L23.2953 23.0502ZM20.0374 18.8603L20.185 18.7253C20.1845 18.7249 20.1841 18.7244 20.1837 18.7239M20.0374 18.8603L20.1824 18.7225C20.1828 18.723 20.1833 18.7235 20.1837 18.7239M4.28556 32.8335L4.28657 32.8344C4.48526 33.0063 4.63672 33.1603 4.7283 33.2935C4.77372 33.3595 4.81334 33.4331 4.83005 33.5107C4.84792 33.5938 4.84077 33.6924 4.77528 33.7772C4.71529 33.8549 4.62936 33.8904 4.55683 33.9076C4.4822 33.9252 4.39728 33.9294 4.30809 33.9259C4.12974 33.9188 3.89734 33.8789 3.61642 33.8107C1.85876 33.438 0.645025 31.5732 0.431478 29.1784L0.431469 29.1783C0.242803 27.0501 0.220778 22.1683 0.387677 17.2382C0.55442 12.3128 0.910657 7.30433 1.48633 4.93344L1.48647 4.93288C1.71476 4.00453 1.99355 3.35528 2.36106 2.88338C2.73219 2.40683 3.18212 2.126 3.7229 1.91439L3.72419 1.91389L3.72419 1.91389C3.96419 1.82189 4.18098 1.77741 4.36312 1.78503C4.54346 1.79258 4.72069 1.8544 4.82309 2.00891C4.92547 2.1634 4.91351 2.35095 4.85002 2.52082C4.7859 2.69237 4.65992 2.87622 4.48018 3.06395L4.47904 3.06514C3.43232 4.14053 2.72061 5.59775 2.70569 9.04607C2.70569 9.04621 2.70569 9.04635 2.70569 9.0465L2.50569 9.04564L4.28556 32.8335ZM4.28556 32.8335C2.41301 31.2347 2.28622 28.6159 2.22572 26.6498L4.28556 32.8335ZM35.9408 5.95552L35.754 6.02719C35.4733 5.29589 35.1859 4.76441 34.6572 4.35352C34.1237 3.93896 33.3219 3.62974 31.9756 3.4021C29.2782 2.94602 24.5093 2.8331 15.6436 2.73551C12.0148 2.69802 9.78208 2.65302 8.39239 2.56828C7.69804 2.52594 7.20673 2.4733 6.85387 2.40492C6.50373 2.33706 6.26878 2.25005 6.10457 2.12457L35.9408 5.95552ZM35.9408 5.95552C34.8008 2.98552 33.3608 2.73052 15.6458 2.53552L35.236 33.494M35.9408 5.95552L35.7537 6.0263C35.7536 6.02599 35.7536 6.02611 35.7538 6.02671C35.7545 6.02938 35.7578 6.04156 35.7623 6.06837C35.7673 6.09825 35.7725 6.13818 35.7777 6.18875C35.788 6.28972 35.7975 6.4252 35.806 6.5923C35.823 6.92605 35.8357 7.37761 35.8444 7.91437C35.8617 8.98742 35.8626 10.3947 35.8495 11.8675C35.8233 14.8165 35.7407 18.0144 35.6216 19.3173L35.6215 19.3186C35.5012 20.732 35.321 23.6304 35.2459 25.7785M35.2459 25.7785C35.2459 25.7785 35.2459 25.7784 35.2459 25.7783L35.4458 25.7855L35.2459 25.7785ZM35.2459 25.7785C35.1897 27.3292 35.1075 28.5541 34.9675 29.5166C34.8273 30.4814 34.6311 31.1656 34.3571 31.645C34.0882 32.1157 33.7426 32.3925 33.2823 32.5438C32.8115 32.6986 32.2097 32.7255 31.426 32.6661M31.426 32.6661C31.4259 32.6661 31.4259 32.6661 31.4259 32.6661L31.4108 32.8652L31.4264 32.6661C31.4262 32.6661 31.4261 32.6661 31.426 32.6661ZM31.426 32.6661C30.6479 32.6052 27.6788 32.6432 23.9147 32.7106C22.603 32.734 21.1928 32.7611 19.7416 32.789C17.018 32.8413 14.15 32.8964 11.5178 32.9355C9.43405 32.9656 8.05212 33.0538 7.17273 33.1731C6.73401 33.2326 6.41201 33.3009 6.18763 33.3769C6.07556 33.4149 5.98045 33.4573 5.90528 33.5061C5.83205 33.5537 5.76081 33.6185 5.72392 33.7082C5.68299 33.8077 5.69678 33.9068 5.7394 33.988C5.77815 34.0619 5.83913 34.1195 5.89818 34.1637C6.01701 34.2527 6.18403 34.3283 6.35901 34.3911C6.71362 34.5184 7.16489 34.6152 7.50813 34.6543L7.50856 34.6543C10.0162 34.9338 16.4779 34.8803 22.5274 34.6422C25.5554 34.5231 28.4864 34.3575 30.7761 34.1633C31.9207 34.0663 32.9073 33.9619 33.6666 33.8522C34.0462 33.7974 34.3713 33.741 34.6322 33.6829C34.8883 33.6259 35.0977 33.5642 35.236 33.494M35.236 33.494C35.2358 33.4941 35.2357 33.4942 35.2355 33.4943L35.1458 33.3156L35.2364 33.4938C35.2363 33.4939 35.2361 33.494 35.236 33.494ZM37.3841 7.89529C37.9924 5.83286 36.275 2.74436 32.6675 1.97993C32.6677 1.97996 32.6678 1.97999 32.668 1.98002L37.3841 7.89529ZM37.3841 7.89529C37.3819 7.90273 37.3797 7.91017 37.3774 7.91758M37.3841 7.89529C37.3841 7.89277 37.3841 7.8905 37.3841 7.88844C37.3842 7.88347 37.3843 7.88143 37.3843 7.88143L37.3843 7.88153C37.3843 7.88163 37.3842 7.88212 37.3842 7.88293C37.3841 7.88416 37.3839 7.88612 37.3836 7.88861C37.3833 7.89054 37.382 7.90233 37.3774 7.91758M37.3774 7.91758C37.3773 7.91817 37.3771 7.91875 37.3769 7.91934L37.377 7.91882C37.3772 7.91841 37.3773 7.91799 37.3774 7.91758ZM30.9817 15.8051C30.9765 15.9596 30.9723 16.08 30.9693 16.1567L30.7797 15.8605L30.9817 15.8051ZM12.7208 1.36536L12.7208 1.36552L12.7208 1.36536ZM14.578 14.45L14.5783 14.45L17.2207 9.64654L17.345 9.48987C17.3448 9.48969 17.3446 9.48953 17.3444 9.48936C17.1569 9.34072 16.9927 9.23848 16.8522 9.1935C16.7808 9.17067 16.7008 9.15769 16.6205 9.17351C16.5335 9.19068 16.4608 9.23915 16.4121 9.31131C16.3672 9.37774 16.3498 9.45311 16.3441 9.51987C16.3382 9.58796 16.3433 9.66075 16.3547 9.73396C16.3776 9.88025 16.4293 10.0516 16.5004 10.2346L16.5008 10.2357C16.8424 11.1003 16.5356 12.0167 15.8884 12.6301C15.2424 13.2423 14.2822 13.5273 13.3508 13.1467L13.35 13.1464C12.8692 12.9522 12.6198 12.6292 12.5326 12.2595C12.4433 11.8806 12.5195 11.4281 12.744 10.9834C13.1939 10.0921 14.201 9.30682 15.4082 9.3057L15.885 9.31814C15.8854 9.31815 15.8858 9.31817 15.8862 9.31818C16.1644 9.32794 16.3496 9.13531 16.3969 8.92469C16.4442 8.71394 16.3584 8.46062 16.0998 8.35517C15.706 8.1858 15.1504 8.07952 14.5892 8.05532C14.0272 8.03108 13.4341 8.08801 12.9697 8.26471C11.2253 8.9267 10.6651 10.4877 11.0325 11.8737C11.3984 13.2539 12.6802 14.4566 14.578 14.45Z" fill="#666666" stroke="#666666" stroke-width="0.4"/>
</svg>
