<svg width="30" height="28" viewBox="0 0 30 28" fill="none" xmlns="http://www.w3.org/2000/svg">
<path d="M6.47353 19.0137C5.94411 18.5627 5.93393 18.5935 7.44074 17.0866C10.2711 14.2677 12.8775 12.4431 15.6874 15.3235C16.8175 16.4819 17.0721 16.8304 18.0699 18.5012C18.3142 18.9112 18.2938 19.0855 17.9986 18.9932C17.7339 18.9112 10.1184 18.86 7.93965 18.9112C6.97245 18.9317 7.27784 19.4033 7.94979 19.4443C9.62968 19.5468 14.1196 19.598 17.235 19.762C19.9635 19.9158 21.8267 20.1515 23.1909 19.8645C25.7668 19.3213 24.9217 19.1367 25.4308 12.4841C25.5733 10.5775 25.4817 7.15387 25.2882 6.7541C24.321 4.868 19.9737 4.10946 12.4091 4.49898C9.76201 4.63224 8.13303 4.868 8.13303 5.11402C8.13303 5.47278 9.39553 5.52404 12.908 5.31903C15.3718 5.17552 16.5426 5.19602 19.485 5.46253C22.3357 5.7188 23.9545 6.03656 24.2803 6.40558C24.8301 7.03086 24.9115 7.28713 24.8097 8.07642C24.6773 9.07072 24.5959 12.0126 24.5755 12.5252L24.2803 12.0639C21.9896 8.44544 17.8764 8.86571 14.6388 13.0582L14.3843 13.3862L13.8243 13.1709C11.5845 12.2894 8.65233 13.6835 6.41248 16.7176L5.73033 17.6299L5.6489 17.0251C5.56745 16.4101 5.61832 12.1766 5.76085 8.26093C5.8423 5.91356 5.92379 5.7598 6.5652 5.47278C7.01317 5.27802 6.99273 4.98076 6.48367 4.98076C5.76081 4.98076 5.46556 5.31903 5.16013 6.19032C4.65107 7.65615 4.11151 16.3999 4.89546 18.2757C5.20089 19.0137 5.50631 19.3828 6.14772 19.475C6.80949 19.598 6.93168 19.4135 6.47353 19.0137ZM15.2293 13.8885C15.2904 13.786 18.2022 11.4283 18.5687 11.1926C19.5664 10.5365 20.9307 10.3725 21.9284 10.7826C22.6208 11.0696 23.0993 11.4796 23.6592 12.2279C24.545 13.4374 24.5247 13.3759 24.3618 14.7905C24.2803 15.4671 24.1683 16.5024 24.1072 17.0866C23.8833 19.3418 23.5676 19.2188 18.925 18.9112L18.4363 18.0399C17.9273 17.1276 16.9601 15.8771 15.83 14.688C15.4737 14.2985 15.1886 13.9397 15.2293 13.8885Z" fill="#666666"/>
<path d="M3.12465 25.9883C1.56465 24.6563 1.46874 22.4843 1.42074 20.9243C1.25274 14.9723 1.80465 9.18826 1.80465 6.83627C1.81665 4.05227 2.39267 2.84027 3.26867 1.94027C3.80867 1.37627 3.55672 1.00427 2.83672 1.28027C2.00872 1.60427 1.50465 2.12026 1.14465 3.58426C0.232648 7.34026 0.00464784 19.5443 0.304648 22.9283C0.472648 24.8123 1.42067 26.2163 2.72867 26.4923C3.61667 26.7083 3.74865 26.5283 3.12465 25.9883Z" fill="#666666"/>
<path d="M29.5487 5.88818C30.0167 4.35218 28.7328 1.94018 25.9008 1.34018C24.0648 0.944176 20.2487 0.884173 9.97674 0.692173C8.45274 0.668173 6.68871 0.680175 6.05271 0.716175C4.88871 0.800175 4.48076 0.944173 4.78076 1.17217C5.18876 1.48417 6.50874 1.56818 12.3167 1.62818C26.4887 1.78418 27.6407 1.98817 28.5527 4.36417C28.7207 4.80817 28.6487 12.9682 28.4567 15.0682C28.3607 16.1962 28.2167 18.5122 28.1567 20.2282C27.9767 25.1962 27.4607 26.0842 24.9287 25.8922C23.7047 25.7962 15.4727 26.0122 9.01674 26.1082C2.35674 26.2042 4.76867 27.0442 5.82467 27.1642C9.80867 27.6082 26.4527 26.9962 27.9167 26.2522C30.8087 24.8002 29.5007 6.04418 29.5487 5.88818Z" fill="#666666"/>
<path d="M10.2327 6.36108C7.60751 7.35724 8.57631 11.0098 11.4619 10.9997C13.5663 10.9897 14.8893 8.34333 13.5767 7.31699C12.9933 6.85413 12.9308 7.16606 13.1496 7.72954C13.7538 9.25899 12.0453 10.9293 10.4202 10.2652C8.70132 9.57091 10.0556 6.88432 12.1287 6.88432L12.5141 6.89438C12.7849 6.90444 12.8682 6.53214 12.6182 6.43152C12.0349 6.17996 10.9203 6.09947 10.2327 6.36108Z" fill="#666666"/>
</svg>
