<svg width="35" height="35" viewBox="0 0 35 35" fill="none" xmlns="http://www.w3.org/2000/svg">
<path fill-rule="evenodd" clip-rule="evenodd" d="M11.3173 1.26762C10.6731 1.75611 11.1294 3.14016 12.1494 3.81862C13.0084 4.38852 16.6857 4.57849 19.3699 4.22569C26.7247 3.22158 30.751 5.25695 30.3484 9.73476C29.7847 16.3022 29.6773 20.9429 30.08 23.1682C30.5363 25.7463 30.4827 25.5564 29.6237 24.905C28.7916 24.2809 26.8858 23.0054 25.8121 22.3269C24.9263 21.7841 23.3962 20.9971 23.101 22.0013C22.6178 23.6567 21.1683 26.2077 19.8799 27.9445C16.9541 31.8796 11.3173 32.7751 6.48566 31.9339C4.44565 31.5811 4.39197 30.8755 4.4725 29.3286C4.74092 23.7924 5.11666 9.02917 5.76087 5.90827C6.08298 4.33425 6.45879 4.06286 7.66669 3.71007C9.78723 3.11302 8.3378 2.08177 5.84148 2.38029C4.09673 2.5974 3.10357 3.24871 2.4862 5.55546C1.54672 9.16485 1.65409 15.7323 1.00987 29.1658C0.848821 32.3138 2.67409 33.3993 5.30463 33.6707C6.86148 33.8335 9.22357 33.8878 13.1962 33.9421C18.1352 33.9964 20.6046 34.0778 22.2688 33.8335C24.1478 33.5622 24.98 32.8837 27.2079 31.3911C34.2406 26.6148 33.9721 27.049 33.9989 20.7529C34.0526 6.31534 32.0663 2.62454 23.96 2.2446C21.5979 2.13605 19.3163 1.86466 18.4573 1.62042C16.2026 0.996237 11.9615 0.779134 11.3173 1.26762ZM16.0951 8.97489C14.1356 9.13772 13.4647 10.6032 15.1289 11.0645C16.4979 11.4445 23.3694 11.5259 25.651 11.2816C27.0468 11.1188 26.4831 10.1147 25.3557 9.6262C23.6915 8.89347 20.2825 8.62209 16.0951 8.97489ZM12.7131 14.5111C8.09625 14.7282 9.30412 16.0037 11.3441 16.4108C15.4778 17.2249 26.4563 17.3335 26.4563 16.2479C26.4563 14.7553 21.1953 14.104 12.7131 14.5111ZM12.7399 23.6024C14.6456 23.5481 18.4573 23.2225 19.1552 23.0054C20.3631 22.6254 18.6989 21.3228 16.6052 21.0243C13.7868 20.6172 12.6056 20.5086 11.9346 20.5629C8.39141 20.7529 9.94826 23.6838 12.7399 23.6024ZM30.0531 26.6419C29.731 26.8861 26.6441 30.0342 22.9399 31.6082C21.5441 32.2052 20.8194 32.1238 21.732 30.9297C22.4567 29.6 24.9531 23.9824 25.5705 23.9824C25.9195 24.0095 30.0531 26.6419 30.0531 26.6419Z" fill="#666666" stroke="white" stroke-width="0.6"/>
</svg>
