<svg width="28" height="28" viewBox="0 0 28 28" fill="none" xmlns="http://www.w3.org/2000/svg">
<path fill-rule="evenodd" clip-rule="evenodd" d="M9.05386 1.0139C8.53849 1.40469 8.90356 2.51193 9.71957 3.0547C10.4067 3.51062 13.3486 3.6626 15.496 3.38036C21.3798 2.57707 24.6009 4.20537 24.2788 7.78762C23.8278 13.0416 23.7419 16.7541 24.064 18.5344C24.4291 20.5969 24.3862 20.4449 23.699 19.9238C23.0333 19.4245 21.5087 18.4041 20.6497 17.8613C19.9411 17.4271 18.717 16.7975 18.4808 17.6008C18.0943 18.9252 16.9347 20.966 15.904 22.3554C13.5633 25.5035 9.05386 26.2199 5.18858 25.5469C3.55657 25.2647 3.51362 24.7002 3.57805 23.4627C3.79278 19.0337 4.09337 7.22314 4.60874 4.72642C4.86643 3.4672 5.16708 3.2501 6.1334 2.96786C7.82983 2.49022 6.67029 1.66522 4.67323 1.90404C3.27743 2.07772 2.4829 2.59877 1.98901 4.44418C1.23742 7.33169 1.32332 12.5857 0.807948 23.3324C0.679105 25.8508 2.13932 26.7193 4.24375 26.9364C5.48923 27.0666 7.37891 27.1101 10.557 27.1535C14.5082 27.1969 16.4837 27.262 17.8151 27.0666C19.3183 26.8495 19.9841 26.3068 21.7664 25.1127C27.3925 21.2916 27.1777 21.639 27.1992 16.6021C27.2422 5.05207 25.6531 2.09943 19.168 1.79549C17.2783 1.70864 15.4531 1.49153 14.7659 1.29614C12.9621 0.796794 9.56923 0.623112 9.05386 1.0139ZM12.8762 7.17971C11.3086 7.30998 10.7718 8.48235 12.1032 8.85143C13.1983 9.15538 18.6956 9.22051 20.5208 9.02512C21.6375 8.89485 21.1865 8.09156 20.2846 7.70077C18.9532 7.11458 16.2261 6.89748 12.8762 7.17971ZM10.1705 11.6087C6.47705 11.7824 7.44335 12.8028 9.07536 13.1284C12.3823 13.7797 21.1651 13.8666 21.1651 12.9982C21.1651 11.8041 16.9563 11.283 10.1705 11.6087ZM10.1919 18.8817C11.7166 18.8383 14.7659 18.5778 15.3242 18.4041C16.2906 18.1001 14.9592 17.058 13.2842 16.8192C11.0295 16.4936 10.0846 16.4067 9.54772 16.4501C6.71318 16.6021 7.95866 18.9469 10.1919 18.8817ZM24.0425 21.3133C23.7848 21.5087 21.3153 24.0271 18.352 25.2864C17.2353 25.764 16.6555 25.6989 17.3856 24.7436C17.9654 23.6798 19.9626 19.1857 20.4565 19.1857C20.7356 19.2074 24.0425 21.3133 24.0425 21.3133Z" fill="#666666"/>
</svg>
