<svg width="30" height="36" viewBox="0 0 30 36" fill="none" xmlns="http://www.w3.org/2000/svg">
<path fill-rule="evenodd" clip-rule="evenodd" d="M19.9609 0.285016C18.3645 0.659506 17.2411 1.66472 15.1518 4.64087C14.5605 5.48837 13.9692 6.17822 13.8312 6.17822C13.4173 6.17822 12.2742 6.88772 11.8209 7.87322C11.5843 8.38577 11.131 9.05582 10.8157 9.39092C9.712 10.8297 11.2099 10.8888 8.68705 14.141C4.8634 19.1078 3.3259 21.5715 3.1879 22.9118C3.03025 24.5675 0.271004 33.3579 0.822854 34.8756C1.19725 35.9399 2.45875 36.1568 4.29175 35.6048C7.5832 34.6193 13.4766 30.2832 14.6001 29.3175C16.0389 28.0757 20.0793 20.9408 20.572 20.9211C21.1239 20.9013 22.267 20.3495 22.4641 20.1524C23.3709 19.2458 25.9528 14.8899 26.1892 13.7664C26.2878 13.2935 26.1498 12.8598 26.1498 12.308C26.1498 11.9729 26.6427 11.2043 27.6084 10.0019C29.5399 7.61702 29.5596 7.55792 28.4164 5.19272C26.3667 1.07339 23.6073 -0.542789 19.9609 0.285016ZM22.543 1.2705C24.238 1.68441 25.8543 3.10352 26.82 4.97597C27.7464 6.80897 27.5689 7.26227 24.5535 10.9481C24.4746 11.0268 24.238 10.5144 23.8833 9.98222C22.5232 7.89302 20.2764 6.37532 17.2608 6.06002C16.098 5.94167 15.822 6.39497 17.8521 3.63572C18.5617 2.6699 18.9756 2.13773 19.2909 1.80266C19.8231 1.2705 20.9662 0.896026 22.543 1.2705ZM17.931 7.45937C20.6706 8.34632 21.6363 8.91782 23.2329 11.894C24.2577 13.8059 24.1591 13.5891 22.9963 14.9885C22.5429 15.5403 22.5036 15.5403 22.3656 15.1856C21.8926 13.865 21.4984 13.1555 20.3749 12.0714C18.3054 10.2975 17.7339 10.7706 19.4092 12.7022C21.321 14.9294 21.7152 16.2105 20.9859 17.8661C20.5524 18.8319 20.2369 19.1669 20.1384 18.753C18.8967 14.1606 16.1571 12.2094 13.0824 11.9334C11.8012 11.8152 11.6238 11.5196 12.3334 10.7312C12.7669 10.2581 13.3977 10.475 14.935 10.6721C15.6249 10.7706 15.6643 9.82457 14.8956 9.62747C13.8904 9.37112 13.5553 9.03617 14.3239 7.85356C15.0336 6.80897 15.7038 6.73007 17.931 7.45937ZM16.0782 8.40541C15.7038 8.64196 15.6051 9.13472 16.8862 9.58802C18.1083 10.0217 18.739 9.70622 18.739 9.15437C18.739 8.93762 18.5814 8.60252 18.0492 8.48431C17.3397 8.30686 16.2951 8.26742 16.0782 8.40541ZM14.1466 13.1555C14.3634 13.2935 14.3832 13.3131 13.6539 14.3972C11.8603 17.058 11.131 18.0828 10.5988 18.6939C10.3032 19.029 9.6331 20.0342 9.1009 20.9211C7.3861 23.8382 5.88836 24.7646 5.2378 23.306C5.00141 22.7936 5.06035 22.2023 5.356 21.7488C6.2035 20.448 10.7961 13.2146 11.9194 12.9189C12.8458 12.6627 13.8115 12.9387 14.1466 13.1555ZM16.4527 14.3183C17.9112 15.836 18.1083 16.8018 16.9651 18.2012C14.8365 20.8226 11.4858 25.3361 10.1455 26.3019C9.2389 26.9523 8.80525 25.0601 9.0616 23.8776C9.39655 22.281 10.7368 20.1327 13.6933 16.25C15.3883 13.9833 15.684 13.53 16.4527 14.3183ZM18.4828 19.1867C18.5419 19.6202 18.7785 20.2115 18.3054 20.862C17.9703 21.335 16.8862 23.1285 16.0191 24.5673C14.5212 27.0902 12.5502 28.7655 12.3925 28.332C12.1954 27.7998 13.3188 25.277 14.3634 23.8382C16.9848 20.3102 18.2265 17.4522 18.4828 19.1867ZM7.5241 25.4937C7.5832 27.0509 8.5096 27.7209 10.047 27.3071C11.0325 27.0509 11.0325 27.0311 10.6383 27.9575C10.461 28.3713 10.3624 28.9626 10.4017 29.2781C10.5003 29.9088 10.2835 29.9876 8.76595 30.9534C8.54905 31.0913 8.27305 31.0322 8.1352 30.8154C7.3468 29.613 6.24295 29.0021 5.00125 28.805C3.75955 28.6079 3.83845 28.8248 4.21285 26.8538L4.5283 25.1784C4.7845 25.1784 5.73055 25.3952 6.6175 25.001C6.99205 24.8433 7.38625 24.6857 7.38625 24.6857C7.38625 24.6857 7.5241 25.0601 7.5241 25.4937Z" fill="#666666"/>
</svg>
