<svg width="20" height="24" viewBox="0 0 20 24" fill="none" xmlns="http://www.w3.org/2000/svg">
<path fill-rule="evenodd" clip-rule="evenodd" d="M13.3073 0.189807C12.243 0.439467 11.4941 1.10961 10.1012 3.09371C9.70697 3.65871 9.31277 4.11861 9.22077 4.11861C8.94487 4.11861 8.18277 4.59161 7.88057 5.24861C7.72287 5.59031 7.42067 6.03701 7.21047 6.26041C6.47467 7.21961 7.47327 7.25901 5.79137 9.42711C3.24227 12.7383 2.21727 14.3808 2.12527 15.2743C2.02017 16.3781 0.180669 22.2384 0.548569 23.2502C0.798169 23.9597 1.63917 24.1043 2.86117 23.7363C5.05547 23.0793 8.98437 20.1886 9.73337 19.5448C10.6926 18.7169 13.3862 13.9603 13.7147 13.9472C14.0826 13.934 14.8447 13.5661 14.9761 13.4347C15.5806 12.8303 17.3019 9.92641 17.4595 9.17741C17.5252 8.86211 17.4332 8.57301 17.4332 8.20511C17.4332 7.98171 17.7618 7.46931 18.4056 6.66771C19.6933 5.07781 19.7064 5.03841 18.9443 3.46161C17.5778 0.715387 15.7382 -0.362063 13.3073 0.189807ZM15.0287 0.846797C16.1587 1.12274 17.2362 2.06881 17.88 3.31711C18.4976 4.53911 18.3793 4.84131 16.369 7.29851C16.3164 7.35101 16.1587 7.00941 15.9222 6.65461C15.0155 5.26181 13.5176 4.25001 11.5072 4.03981C10.732 3.96091 10.548 4.26311 11.9014 2.42361C12.3745 1.77973 12.6504 1.42495 12.8606 1.20157C13.2154 0.846797 13.9775 0.597147 15.0287 0.846797ZM11.954 4.97271C13.7804 5.56401 14.4242 5.94501 15.4886 7.92911C16.1718 9.20371 16.1061 9.05921 15.3309 9.99211C15.0286 10.36 15.0024 10.36 14.9104 10.1235C14.5951 9.24311 14.3323 8.77011 13.5833 8.04741C12.2036 6.86481 11.8226 7.18021 12.9395 8.46791C14.214 9.95271 14.4768 10.8068 13.9906 11.9105C13.7016 12.5544 13.4913 12.7777 13.4256 12.5018C12.5978 9.44021 10.7714 8.13941 8.72157 7.95541C7.86747 7.87661 7.74917 7.67951 8.22227 7.15391C8.51127 6.83851 8.93177 6.98311 9.95667 7.11451C10.4166 7.18021 10.4429 6.54951 9.93037 6.41811C9.26027 6.24721 9.03687 6.02391 9.54927 5.23551C10.0224 4.53911 10.4692 4.48651 11.954 4.97271ZM10.7188 5.60341C10.4692 5.76111 10.4034 6.08961 11.2575 6.39181C12.0722 6.68091 12.4927 6.47061 12.4927 6.10271C12.4927 5.95821 12.3876 5.73481 12.0328 5.65601C11.5598 5.53771 10.8634 5.51141 10.7188 5.60341ZM9.43107 8.77011C9.57557 8.86211 9.58877 8.87521 9.10257 9.59791C7.90687 11.3718 7.42067 12.055 7.06587 12.4624C6.86877 12.6858 6.42207 13.3559 6.06727 13.9472C4.92407 15.8919 3.92557 16.5095 3.49187 15.5371C3.33427 15.1955 3.37357 14.8013 3.57067 14.499C4.13567 13.6318 7.19737 8.80951 7.94627 8.61241C8.56387 8.44161 9.20767 8.62561 9.43107 8.77011ZM10.9685 9.54531C11.9408 10.5571 12.0722 11.201 11.3101 12.1339C9.89097 13.8815 7.65717 16.8905 6.76367 17.5344C6.15927 17.968 5.87017 16.7065 6.04107 15.9182C6.26437 14.8538 7.15787 13.4216 9.12887 10.8331C10.2589 9.32201 10.456 9.01981 10.9685 9.54531ZM12.3219 12.7909C12.3613 13.0799 12.519 13.4741 12.2036 13.9078C11.9802 14.2231 11.2575 15.4188 10.6794 16.378C9.68077 18.0599 8.36677 19.1768 8.26167 18.8878C8.13027 18.533 8.87917 16.8511 9.57557 15.8919C11.3232 13.5399 12.151 11.6346 12.3219 12.7909ZM5.01607 16.9956C5.05547 18.0337 5.67307 18.4804 6.69797 18.2045C7.35497 18.0337 7.35497 18.0205 7.09217 18.6381C6.97397 18.914 6.90827 19.3082 6.93447 19.5185C7.00017 19.939 6.85567 19.9915 5.84397 20.6354C5.69937 20.7273 5.51537 20.6879 5.42347 20.5434C4.89787 19.7418 4.16197 19.3345 3.33417 19.2031C2.50637 19.0717 2.55897 19.2163 2.80857 17.9023L3.01887 16.7854C3.18967 16.7854 3.82037 16.9299 4.41167 16.6671C4.66137 16.562 4.92417 16.4569 4.92417 16.4569C4.92417 16.4569 5.01607 16.7065 5.01607 16.9956Z" fill="#F4F4F4"/>
</svg>
