<svg width="1920" height="339" viewBox="0 0 1920 339" fill="none" xmlns="http://www.w3.org/2000/svg">
<rect width="1920" height="339" fill="#FFF6F2"/>
<g clip-path="url(#clip0_947_1632)">
<path d="M900.112 48.1462C899.377 48.7472 899.491 50.0852 900.366 51.1371C901.24 52.1889 902.547 52.553 903.279 51.952C904.011 51.3509 903.9 50.0129 903.025 48.9611C902.15 47.9092 900.844 47.5451 900.112 48.1462Z" fill="#FF8A33"/>
<path d="M869.405 54.7925C869.279 54.7983 869.154 54.8156 869.035 54.8358L864.842 50.848C864.416 50.4434 863.739 50.4579 863.328 50.8798C862.92 51.3017 862.935 51.9721 863.36 52.3795L867.268 56.0958C867.043 56.4945 866.918 56.9569 866.938 57.4482C866.956 57.8643 867.075 58.2544 867.268 58.5925L865.407 60.6298C865.014 61.0661 865.049 61.7365 865.489 62.1266C865.713 62.326 865.999 62.4156 866.279 62.3954C866.544 62.3752 866.807 62.2596 866.999 62.0457L869.008 59.8437C869.204 59.8813 869.408 59.9015 869.615 59.8929C871.035 59.8351 872.14 58.6474 872.082 57.2401C872.023 55.8328 870.825 54.7376 869.405 54.7954V54.7925Z" fill="#FF8A33"/>
<path d="M922.427 57.7951C922.392 57.0843 921.998 50.7846 918.537 48.4815C917.59 47.8515 916.012 47.262 913.866 48.0162C913.44 48.1665 913.105 48.3168 912.837 48.4381C912.761 48.4728 912.674 48.5104 912.601 48.5422C912.504 48.4642 912.356 48.3312 912.143 48.1087C911.77 47.7215 911.452 47.2013 911.114 46.6523C910.737 46.0368 910.315 45.3403 909.731 44.7133C908.609 43.4967 907.343 42.4708 905.973 41.6646C902.555 39.6504 898.692 39.4626 895.103 41.1329C894.312 41.4999 893.516 41.8495 892.747 42.1905C889.819 43.4793 887.052 44.6988 884.76 46.6985L884.358 46.2997C876.966 38.9685 864.938 38.9685 857.543 46.294C850.152 53.6195 850.152 65.5396 857.543 72.8651L882.433 97.532C882.745 97.8412 883.156 97.9972 883.567 97.9972C883.979 97.9972 884.381 97.8441 884.696 97.5377L903.751 78.8931C904.118 78.5521 904.946 77.8037 905.99 76.8645C909.991 73.261 917.432 66.5568 920.433 63.3001C922.036 61.5576 922.538 60.1676 922.427 57.7922V57.7951ZM859.815 48.5422C862.885 45.4993 866.918 43.9764 870.95 43.9764C874.983 43.9764 879.016 45.4993 882.089 48.5422L882.529 48.9785C882.553 49.0016 882.579 49.0277 882.605 49.0479C881.194 51.01 880.278 53.3767 879.829 56.2144C879.578 57.798 879.482 59.3671 879.535 60.8958C871.665 64.4444 866.685 72.3392 864.877 75.6335L859.815 70.6169C853.674 64.5311 853.674 54.628 859.815 48.5422ZM918.065 61.1588C915.169 64.3057 907.798 70.9463 903.836 74.5152C902.725 75.515 901.92 76.2403 901.541 76.5958C901.532 76.6045 901.523 76.6131 901.512 76.6218L883.576 94.1683L867.253 77.9915C868.268 76.0178 872.726 68.0017 879.893 64.2595C880.453 67.2561 881.625 69.9494 883.343 72.03C885.568 74.7232 888.545 76.2201 891.945 76.3617C892.064 76.3675 892.184 76.3704 892.303 76.3704C896.216 76.3704 899.66 73.7205 900.943 69.6749C901.742 67.1521 901.614 64.3346 900.579 61.7483C899.424 58.8557 897.167 56.2867 894.053 54.3217C893.306 53.8506 892.315 54.0674 891.837 54.8071C891.361 55.5469 891.58 56.5294 892.327 57.0033C898.018 60.5982 898.925 65.4125 897.878 68.7212C896.983 71.5416 894.706 73.287 892.076 73.183C889.615 73.0819 887.451 71.9866 885.821 70.013C883.226 66.8718 882.168 61.8986 882.99 56.7086C884.142 49.4496 888.51 47.525 894.041 45.0889C894.826 44.7422 895.636 44.3867 896.455 44.0053C899.054 42.7974 901.85 42.9361 904.325 44.3925C905.428 45.0398 906.445 45.8692 907.358 46.8546C907.725 47.2505 908.034 47.7591 908.361 48.2937C908.755 48.9381 909.198 49.6663 909.819 50.3049C911.396 51.9376 912.455 52.0185 913.846 51.4608C913.881 52.2064 914.519 53.0184 915.511 53.4605C916.569 53.9344 917.68 53.8304 918.237 53.2727C918.8 54.6598 919.144 56.4167 919.217 57.9396C919.29 59.4683 919.083 60.0405 918.056 61.1559L918.065 61.1588Z" fill="#FF8A33"/>
<path d="M956.392 69.1144C956.334 63.936 959.993 60.1677 965.216 60.1475C970.196 60.1302 974.167 64.1729 974.121 69.1086C974.118 69.4843 974.094 69.8946 974.042 70.3367C974.022 70.5043 973.882 70.6315 973.713 70.6315H961.959C961.734 70.6315 961.58 70.8453 961.644 71.0592C962.151 72.7526 963.455 73.7149 965.257 73.7149C966.653 73.7149 967.817 73.2554 968.312 72.5272C968.371 72.4405 968.473 72.3885 968.581 72.3885H973.15C973.377 72.3885 973.538 72.611 973.465 72.8219C972.421 75.8099 969.199 77.8327 965.259 77.8327C960.375 77.8327 956.451 73.9547 956.395 69.1144H956.392ZM968.639 67.3199C968.858 67.3199 969.021 67.1118 968.96 66.9037C968.438 65.1525 967.149 64.2076 965.259 64.2076C963.37 64.2076 962.131 65.1525 961.615 66.9037C961.553 67.1118 961.717 67.317 961.935 67.317H968.642L968.639 67.3199Z" fill="#FF8A33"/>
<path d="M1067.98 60.8812L1058.76 83.3807C1058.71 83.4992 1058.59 83.5801 1058.46 83.5801H1054.23C1054.01 83.5801 1053.85 83.3518 1053.94 83.1438L1056.69 76.454C1056.72 76.376 1056.72 76.2922 1056.69 76.2142L1050.42 60.8841C1050.34 60.676 1050.49 60.4478 1050.72 60.4478H1055.55C1055.69 60.4478 1055.81 60.5316 1055.86 60.6616L1059.05 69.6891C1059.15 69.9723 1059.56 69.9723 1059.66 69.6891L1062.88 60.6616C1062.93 60.5344 1063.05 60.4506 1063.18 60.4506H1067.68C1067.91 60.4506 1068.06 60.6789 1067.98 60.887L1067.98 60.8812Z" fill="#FF8A33"/>
<path d="M1034.97 68.9898C1034.97 74.1076 1031.2 77.8151 1025.95 77.8151C1020.7 77.8151 1016.93 74.1076 1016.93 68.9898C1016.93 63.8721 1020.7 60.1646 1025.95 60.1646C1031.2 60.1646 1034.97 63.8721 1034.97 68.9898ZM1021.92 68.9898C1021.92 71.5761 1023.52 73.4458 1025.95 73.4458C1028.39 73.4458 1029.99 71.5761 1029.99 68.9898C1029.99 66.4035 1028.39 64.5338 1025.95 64.5338C1023.52 64.5338 1021.92 66.4006 1021.92 68.9898Z" fill="#FF8A33"/>
<path d="M937.086 54.7407C937.086 54.5644 937.229 54.4229 937.407 54.4229H946.041C952.106 54.4229 955.652 57.7692 955.652 62.8725C955.652 67.9757 952.106 71.377 946.041 71.377H942.615C942.437 71.377 942.294 71.5186 942.294 71.6948V77.2114C942.294 77.3876 942.151 77.5292 941.973 77.5292H937.407C937.229 77.5292 937.086 77.3876 937.086 77.2114V54.7407ZM945.811 66.8112C948.7 66.8112 950.444 65.4501 950.444 62.8696C950.444 60.289 948.7 58.9858 945.811 58.9858H942.612C942.434 58.9858 942.291 59.1274 942.291 59.3036V66.4933C942.291 66.6696 942.434 66.8112 942.612 66.8112H945.811Z" fill="#FF8A33"/>
<path d="M986.373 61.2138H983.752C983.574 61.2138 983.431 61.0722 983.431 60.8959V59.6475V57.7779C983.431 57.6045 983.288 57.4629 983.11 57.4629H978.745C978.567 57.4629 978.424 57.6045 978.424 57.7808V59.6475V60.9797C978.424 61.1069 978.319 61.2109 978.191 61.2109H975.482C975.304 61.2109 975.162 61.3525 975.162 61.5288V65.1583C975.162 65.3345 975.304 65.4761 975.482 65.4761H978.104C978.282 65.4761 978.424 65.6177 978.424 65.794V77.2085C978.424 77.3848 978.567 77.5264 978.745 77.5264H983.11C983.288 77.5264 983.431 77.3848 983.431 77.2085V65.794C983.431 65.6177 983.574 65.4761 983.752 65.4761H986.373C986.551 65.4761 986.694 65.3345 986.694 65.1583V61.5288C986.694 61.3525 986.551 61.2109 986.373 61.2109V61.2138Z" fill="#FF8A33"/>
<path d="M1008.47 60.8239C1006.13 60.8239 1004.46 61.5058 1003.24 62.8698C1003.1 63.0172 1002.87 63.0114 1002.75 62.8611C1001.65 61.5492 1000.03 60.8239 998.092 60.8239C996.588 60.8239 995.483 61.2573 994.59 62.1445C994.389 62.3439 994.045 62.2052 994.045 61.922V61.344V60.7632C994.045 60.5869 993.902 60.4453 993.724 60.4453H989.359C989.181 60.4453 989.039 60.5869 989.039 60.7632V77.2116C989.039 77.3879 989.181 77.5295 989.359 77.5295H993.724C993.902 77.5295 994.045 77.3879 994.045 77.2116V68.6869C994.13 66.3722 995.002 65.092 996.631 65.092C998.46 65.092 999.416 66.4589 999.416 68.9383V77.2116C999.416 77.3879 999.559 77.5295 999.737 77.5295H1004.1C1004.28 77.5295 1004.42 77.3879 1004.42 77.2116V68.6869C1004.51 66.3722 1005.38 65.092 1007.01 65.092C1008.84 65.092 1009.79 66.4589 1009.79 68.9383V77.2116C1009.79 77.3879 1009.94 77.5295 1010.11 77.5295H1014.48C1014.66 77.5295 1014.8 77.3879 1014.8 77.2116V68.1002C1014.8 63.5576 1012.27 60.8268 1008.47 60.8268V60.8239Z" fill="#FF8A33"/>
<path d="M1048.74 61.312C1048.74 61.1733 1048.64 61.0491 1048.51 61.0086C1047.95 60.8468 1047.39 60.8034 1046.57 60.8034C1044.82 60.8034 1043.47 61.3236 1042.5 62.2541C1042.3 62.4477 1041.96 62.3032 1041.96 62.0258V61.1011V60.1821C1041.96 60.0059 1041.82 59.8643 1041.64 59.8643H1037.28C1037.1 59.8643 1036.96 60.0059 1036.96 60.1821V77.2085C1036.96 77.3848 1037.1 77.5264 1037.28 77.5264H1041.64C1041.82 77.5264 1041.96 77.3848 1041.96 77.2085V69.1634C1041.96 66.684 1043.57 65.1785 1046.24 65.1785C1047.03 65.1785 1047.74 65.3028 1048.36 65.5397C1048.57 65.6206 1048.8 65.4646 1048.79 65.2392L1048.75 61.3091L1048.74 61.312Z" fill="#FF8A33"/>
</g>
<path d="M710.55 121.89V119.492H709.047V121.89C709.036 124.481 707.589 127.182 705.423 128.221L706.362 129.414C707.97 128.58 709.191 126.878 709.81 124.862C710.423 126.779 711.627 128.359 713.224 129.16L714.119 127.967C711.981 127.006 710.544 124.453 710.55 121.89ZM712.583 124.182H715.705V132.354H717.174V118.326H715.705V122.978H712.583V124.182ZM730.445 118.326H728.953V132.354H730.445V118.326ZM719.622 129.006H726.346V119.492H724.882V123.088H721.103V119.492H719.622V129.006ZM721.103 127.779V124.265H724.882V127.779H721.103ZM739.307 120.315V119.26H737.743V120.315C737.732 122.591 735.318 124.735 732.655 125.232L733.318 126.47C735.561 125.978 737.611 124.508 738.534 122.552C739.445 124.519 741.5 125.983 743.743 126.47L744.418 125.232C741.732 124.751 739.307 122.591 739.307 120.315ZM732.197 130.486H745.009V129.254H732.197V130.486ZM749.043 124.006H750.789L751.623 119.685H750.297L749.043 124.006ZM764.24 118.326H762.826V127.939H764.24V118.326ZM752.168 124.939L752.334 126.16C754.19 126.16 757.091 126.133 759.323 125.735L759.262 124.63C758.815 124.685 758.334 124.735 757.831 124.768V120.702H758.969V119.492H752.422V120.702H753.527V124.934C753.036 124.939 752.577 124.939 752.168 124.939ZM754.013 131.105L754.549 132.26C756.748 131.95 758.616 130.961 759.483 129.536C760.361 130.961 762.24 131.95 764.422 132.26L764.98 131.105C762.328 130.779 760.218 129.37 760.218 127.702V127.287H758.743V127.702C758.743 129.37 756.654 130.779 754.013 131.105ZM754.897 124.906V120.702H756.489V124.851C755.953 124.878 755.417 124.895 754.897 124.906ZM758.516 123.365H760.212V126.652H761.599V118.63H760.212V122.149H758.516V123.365ZM778.417 129.354H772.71V126.116H776.881V119.448H767.063V126.116H771.24V129.354H765.605V130.58H778.417V129.354ZM768.516 124.939V120.646H775.428V124.939H768.516ZM790.566 118.326H789.096V132.354H790.566V118.326ZM779.726 120.801H784.782V123.514H779.743V128.994H780.942C783.406 128.994 785.516 128.901 787.997 128.492L787.859 127.265C785.516 127.652 783.533 127.757 781.268 127.768V124.707H786.284V119.586H779.726V120.801ZM794.063 119.685H792.682V123.724H794.063V119.685ZM806.356 122.425H798.179V118.834H796.709V123.613H806.356V122.425ZM795.002 126.564H807.814V125.376H795.002V126.564ZM796.604 131.994H806.444V130.785H798.079V127.895H796.604V131.994ZM822.798 118.337H821.312V128.63H822.798V123.713H824.826V122.47H822.798V118.337ZM812.334 126.309H818.937V119.337H817.467V121.586H813.798V119.337H812.334V126.309ZM813.798 125.127V122.746H817.467V125.127H813.798ZM813.925 132.039H823.395V130.823H815.401V127.608H813.925V132.039ZM836.804 118.326H835.334V121.448H832.671V122.674H835.334V125.26H832.594V126.497H835.334V132.354H836.804V118.326ZM825.622 120.768H830.373V123.497H825.666V129.127H826.721C828.931 129.127 830.721 129.061 832.914 128.718L832.787 127.492C830.787 127.796 829.113 127.878 827.135 127.89V124.674H831.826V119.564H825.622V120.768ZM850.158 118.337H848.682V121.166H845.716C845.854 120.608 845.926 120.022 845.926 119.414H839.428V120.619H844.307C844.008 122.994 841.887 124.89 838.71 125.917L839.345 127.094C842.196 126.199 844.301 124.552 845.296 122.37H848.682V124.298H845.108V125.519H848.682V128.735H850.158V118.337ZM841.141 132.039H850.517V130.823H842.649V127.702H841.141V132.039ZM859.638 119.823H852.473V121.022H858.158C858.152 122.188 858.125 123.823 857.765 126.061L859.235 126.177C859.627 123.674 859.627 121.867 859.638 120.691V119.823ZM851.705 128.105L851.87 129.32C854.357 129.331 857.611 129.271 860.528 128.801L860.445 127.691C859.047 127.862 857.522 127.961 856.036 128.022V123.829H854.572V128.066C853.555 128.088 852.578 128.099 851.705 128.105ZM861.252 132.326H862.738V125.37H864.887V124.105H862.738V118.326H861.252V132.326ZM879.617 118.326H878.131V126.762H879.617V123.215H881.645V121.956H879.617V118.326ZM868.634 120.939H876.965V119.74H873.545V118.227H872.07V119.74H868.634V120.939ZM869.396 124.05C869.391 125.564 870.761 126.552 872.805 126.558C874.822 126.552 876.192 125.564 876.197 124.05C876.192 122.552 874.822 121.547 872.805 121.547C870.761 121.547 869.391 122.552 869.396 124.05ZM870.667 132.149H879.617V127.497H870.667V132.149ZM870.827 124.05C870.816 123.21 871.612 122.68 872.805 122.68C873.987 122.68 874.783 123.21 874.794 124.05C874.783 124.912 873.987 125.431 872.805 125.436C871.612 125.431 870.816 124.912 870.827 124.05ZM872.125 130.945V128.68H878.148V130.945H872.125ZM885.424 119.989H882.253V121.199H884.137C884.043 123.834 883.551 126.265 881.91 128.453L883.076 129.099C885.026 126.365 885.418 123.116 885.424 119.989ZM885.059 129.287L886.208 129.95C887.291 128.425 887.877 126.696 888.186 124.956H890.004V131.646H891.407V118.685H890.004V123.746H888.363C888.512 122.448 888.54 121.171 888.545 119.989H885.86V121.199H887.264C887.203 123.912 886.866 126.845 885.059 129.287ZM892.65 132.326H894.076V118.326H892.65V132.326ZM906.313 118.337H904.827V128.818H906.313V124.077H908.341V122.84H906.313V118.337ZM895.33 121.166H903.661V119.972H900.242V118.331H898.766V119.972H895.33V121.166ZM896.092 124.492C896.087 126.072 897.468 127.105 899.501 127.105C901.507 127.105 902.888 126.072 902.894 124.492C902.888 122.884 901.507 121.84 899.501 121.84C897.468 121.84 896.087 122.884 896.092 124.492ZM897.44 132.039H906.91V130.823H898.916V127.983H897.44V132.039ZM897.523 124.492C897.512 123.564 898.308 122.989 899.501 122.989C900.684 122.989 901.479 123.564 901.49 124.492C901.479 125.398 900.684 125.956 899.501 125.95C898.308 125.956 897.512 125.398 897.523 124.492ZM919.231 119.304V118.685H917.707V119.304C917.707 121.099 915.475 122.751 912.817 123.155L913.386 124.32C915.613 123.956 917.585 122.807 918.475 121.21C919.37 122.785 921.331 123.934 923.546 124.298L924.126 123.122C921.475 122.74 919.231 121.044 919.231 119.304ZM912.066 126.58H917.856V129.287H919.325V126.58H924.878V125.37H912.066V126.58ZM913.662 132.039H923.458V130.823H915.143V127.972H913.662V132.039ZM936.436 118.326H934.933V128.503H936.436V123.707H938.464V122.464H936.436V118.326ZM925.419 125.779L926.049 126.961C930.138 125.729 932.635 123.066 932.635 119.392H926.005V120.624H931.022C930.734 122.928 928.701 124.796 925.419 125.779ZM927.546 132.039H937.016V130.823H929.038V127.459H927.546V132.039ZM945.154 118.558C942 118.558 940.149 119.409 940.149 120.961C940.149 122.536 942 123.387 945.154 123.398C948.309 123.387 950.149 122.536 950.149 120.961C950.149 119.409 948.309 118.558 945.154 118.558ZM938.784 125.436H951.546V124.249H938.784V125.436ZM940.303 127.624H948.469V128.724H940.331V132.193H950.331V131.044H941.784V129.79H949.928V126.514H940.303V127.624ZM941.701 120.961C941.69 120.144 942.928 119.657 945.154 119.663C947.397 119.657 948.629 120.144 948.629 120.961C948.629 121.834 947.397 122.282 945.154 122.282C942.928 122.282 941.69 121.834 941.701 120.961ZM961.929 119.177C958.951 119.182 956.768 120.657 956.768 122.895C956.768 124.989 958.597 126.381 961.194 126.597V129.354H955.558V130.58H968.371V129.354H962.663V126.602C965.271 126.381 967.105 124.989 967.105 122.895C967.105 120.657 964.923 119.182 961.929 119.177ZM958.21 122.895C958.21 121.376 959.774 120.376 961.929 120.381C964.1 120.376 965.658 121.376 965.658 122.895C965.658 124.464 964.1 125.436 961.929 125.448C959.774 125.436 958.21 124.464 958.21 122.895ZM980.835 118.337H979.431V121.912H977.719V118.597H976.332V126.641H977.719V123.122H979.431V127.834H980.835V118.337ZM969.492 120.591H973.387V122.315H969.525V126.448H970.454C972.525 126.448 973.973 126.392 975.708 126.039L975.558 124.862C974.017 125.171 972.702 125.254 970.962 125.271V123.414H974.807V119.387H969.492V120.591ZM970.652 131.105L971.244 132.26C973.382 131.923 975.233 130.884 976.105 129.414C976.967 130.884 978.813 131.923 980.962 132.26L981.553 131.105C978.912 130.735 976.84 129.238 976.84 127.514V127.182H975.36V127.514C975.349 129.238 973.277 130.735 970.652 131.105ZM995.034 125.138H989.365V123.652H993.542V122.464H985.315V120.144H993.459V118.972H983.846V123.652H987.918V125.138H982.255V126.326H995.034V125.138ZM983.763 129.785C983.763 131.403 985.586 132.315 988.619 132.326C991.636 132.315 993.448 131.403 993.459 129.785C993.448 128.16 991.636 127.243 988.619 127.243C985.586 127.243 983.763 128.16 983.763 129.785ZM985.271 129.785C985.26 128.895 986.481 128.387 988.619 128.387C990.735 128.387 991.967 128.895 991.978 129.785C991.967 130.68 990.735 131.171 988.619 131.16C986.481 131.171 985.26 130.68 985.271 129.785ZM1006.6 118.32H1005.12V128.608H1006.6V123.74H1008.63V122.503H1006.6V118.32ZM995.813 122.768C995.802 124.807 997.426 126.254 999.542 126.254C1001.65 126.254 1003.25 124.807 1003.27 122.768C1003.25 120.724 1001.65 119.287 999.542 119.287C997.426 119.287 995.802 120.724 995.813 122.768ZM997.266 122.768C997.255 121.459 998.26 120.58 999.542 120.58C1000.83 120.58 1001.81 121.459 1001.82 122.768C1001.81 124.066 1000.83 124.956 999.542 124.956C998.26 124.956 997.255 124.066 997.266 122.768ZM997.73 132.039H1007.2V130.823H999.205V127.536H997.73V132.039ZM1024.01 118.326H1022.52V132.326H1024.01V118.326ZM1012.51 128.575L1013.29 129.773C1018.1 127.481 1019.84 123.928 1019.85 119.834H1013.19V121.017H1018.34C1018.05 124.282 1016.23 126.807 1012.51 128.575ZM1037.39 127.326H1027.9V128.508H1035.91V132.348H1037.39V127.326ZM1025.93 122.481C1025.92 124.481 1027.49 125.884 1029.59 125.878C1031.45 125.884 1032.89 124.762 1033.18 123.099H1035.91V126.58H1037.39V118.326H1035.91V121.867H1033.18C1032.89 120.221 1031.45 119.099 1029.59 119.11C1027.49 119.099 1025.92 120.508 1025.93 122.481ZM1027.34 122.481C1027.34 121.232 1028.31 120.365 1029.59 120.365C1030.86 120.365 1031.82 121.232 1031.82 122.481C1031.82 123.768 1030.86 124.619 1029.59 124.619C1028.31 124.619 1027.34 123.768 1027.34 122.481ZM1049.98 118.326H1048.51V132.326H1049.98V125.232H1052.22V124H1049.98V118.326ZM1039 121.729H1047.29V120.519H1043.93V118.508H1042.45V120.519H1039V121.729ZM1039.71 126.022C1039.71 127.939 1041.18 129.271 1043.2 129.276C1045.2 129.271 1046.67 127.939 1046.68 126.022C1046.67 124.11 1045.2 122.762 1043.2 122.762C1041.18 122.762 1039.71 124.11 1039.71 126.022ZM1041.13 126.022C1041.12 124.818 1042 123.989 1043.2 123.989C1044.38 123.989 1045.25 124.818 1045.26 126.022C1045.25 127.232 1044.38 128.044 1043.2 128.039C1042 128.044 1041.12 127.232 1041.13 126.022ZM1063.75 119.674H1053.76V120.878H1062.27V121.044C1062.26 122.729 1062.26 124.713 1061.72 127.42L1063.21 127.586C1063.74 124.713 1063.74 122.779 1063.75 121.044V119.674ZM1052.42 130.436H1065.18V129.21H1058.74V124.271H1057.27V129.21H1052.42V130.436ZM1072.99 119.376C1070.9 119.381 1069.43 121.287 1069.44 124.287C1069.43 127.304 1070.9 129.21 1072.99 129.21C1074.35 129.21 1075.44 128.392 1076.04 126.983H1079.4V132.354H1080.87V118.326H1079.4V121.37H1075.93C1075.31 120.105 1074.27 119.381 1072.99 119.376ZM1070.85 124.287C1070.85 122.083 1071.72 120.713 1072.99 120.702C1074.25 120.713 1075.12 122.083 1075.12 124.287C1075.12 126.508 1074.25 127.878 1072.99 127.878C1071.72 127.878 1070.85 126.508 1070.85 124.287ZM1076.35 122.591H1079.4V125.773H1076.39C1076.48 125.315 1076.53 124.818 1076.53 124.287C1076.53 123.674 1076.47 123.105 1076.35 122.591ZM1094.2 118.326H1092.73V123.591H1090.16V124.823H1092.73V132.354H1094.2V118.326ZM1083.02 120.801H1087.89V123.387H1083.06V129.022H1084.16C1086.63 129.017 1088.48 128.934 1090.57 128.564L1090.46 127.337C1088.49 127.696 1086.77 127.768 1084.53 127.773V124.597H1089.34V119.586H1083.02V120.801ZM1108.68 125.657H1095.87V126.851H1101.66V129.425H1103.13V126.851H1108.68V125.657ZM1097.47 132.039H1107.26V130.823H1098.94V128.199H1097.47V132.039ZM1097.56 124.42H1107V118.773H1105.52V120.459H1099.04V118.773H1097.56V124.42ZM1099.04 123.232V121.58H1105.52V123.232H1099.04ZM1113.8 119.32C1111.59 119.32 1109.98 120.691 1109.99 122.657C1109.98 124.63 1111.59 125.994 1113.8 125.994C1116.01 125.994 1117.6 124.63 1117.61 122.657C1117.6 120.691 1116.01 119.32 1113.8 119.32ZM1109.31 128.105L1109.49 129.343C1112 129.343 1115.4 129.326 1118.57 128.724L1118.46 127.641C1115.39 128.083 1111.86 128.11 1109.31 128.105ZM1111.45 122.657C1111.44 121.425 1112.44 120.608 1113.8 120.608C1115.16 120.608 1116.16 121.425 1116.16 122.657C1116.16 123.895 1115.16 124.707 1113.8 124.707C1112.44 124.707 1111.44 123.895 1111.45 122.657ZM1119.33 132.354H1120.81V118.326H1119.33V132.354ZM1126.09 124.006H1127.83L1128.67 119.685H1127.34L1126.09 124.006ZM1141.28 118.326H1139.87V127.939H1141.28V118.326ZM1129.21 124.939L1129.38 126.16C1131.23 126.16 1134.13 126.133 1136.37 125.735L1136.31 124.63C1135.86 124.685 1135.38 124.735 1134.87 124.768V120.702H1136.01V119.492H1129.47V120.702H1130.57V124.934C1130.08 124.939 1129.62 124.939 1129.21 124.939ZM1131.06 131.105L1131.59 132.26C1133.79 131.95 1135.66 130.961 1136.53 129.536C1137.41 130.961 1139.28 131.95 1141.47 132.26L1142.02 131.105C1139.37 130.779 1137.26 129.37 1137.26 127.702V127.287H1135.79V127.702C1135.79 129.37 1133.7 130.779 1131.06 131.105ZM1131.94 124.906V120.702H1133.53V124.851C1133 124.878 1132.46 124.895 1131.94 124.906ZM1135.56 123.365H1137.26V126.652H1138.64V118.63H1137.26V122.149H1135.56V123.365ZM1155.46 129.414H1149.75V126.95H1154.22V125.735H1145.68V123.691H1153.89V119.32H1144.18V120.53H1152.43V122.497H1144.21V126.95H1148.28V129.414H1142.65V130.646H1155.46V129.414ZM1163.11 120.315V119.26H1161.54V120.315C1161.53 122.591 1159.12 124.735 1156.46 125.232L1157.12 126.47C1159.36 125.978 1161.41 124.508 1162.33 122.552C1163.25 124.519 1165.3 125.983 1167.54 126.47L1168.22 125.232C1165.53 124.751 1163.11 122.591 1163.11 120.315ZM1156 130.486H1168.81V129.254H1156V130.486ZM1185.53 124.917H1172.77V126.127H1185.53V124.917ZM1173.44 123.017L1173.95 124.182C1176.38 123.906 1178.38 122.884 1179.14 121.398C1179.91 122.89 1181.91 123.906 1184.35 124.182L1184.88 123.017C1182.3 122.74 1180.31 121.597 1180.15 120.238H1184.38V119.017H1173.94V120.238H1178.15C1177.98 121.608 1175.98 122.74 1173.44 123.017ZM1174.28 129.762C1174.28 131.392 1176.1 132.304 1179.14 132.304C1182.15 132.304 1183.96 131.392 1183.98 129.762C1183.96 128.138 1182.15 127.204 1179.14 127.204C1176.1 127.204 1174.28 128.138 1174.28 129.762ZM1175.79 129.762C1175.78 128.862 1177 128.376 1179.14 128.365C1181.25 128.376 1182.48 128.862 1182.49 129.762C1182.48 130.652 1181.25 131.133 1179.14 131.133C1177 131.133 1175.78 130.652 1175.79 129.762ZM1198.16 119.878H1193.22V118.271H1191.75V119.878H1186.77V121.088H1198.16V119.878ZM1186.12 128.602H1191.75V132.348H1193.22V128.602H1198.93V127.387H1186.12V128.602ZM1187.83 124.166C1187.83 125.669 1189.57 126.508 1192.49 126.514C1195.4 126.508 1197.14 125.669 1197.15 124.166C1197.14 122.641 1195.4 121.807 1192.49 121.807C1189.57 121.807 1187.83 122.641 1187.83 124.166ZM1189.37 124.166C1189.36 123.365 1190.48 122.923 1192.49 122.923C1194.49 122.923 1195.61 123.365 1195.62 124.166C1195.61 124.956 1194.49 125.398 1192.49 125.387C1190.48 125.398 1189.36 124.956 1189.37 124.166ZM1210.65 119.039H1201.07V120.249H1209.18C1209.18 121.403 1209.17 122.691 1208.82 124.431H1199.47V125.619H1205.19V128.873H1206.66V125.619H1212.28V124.431H1210.32C1210.65 122.669 1210.65 121.354 1210.65 120.188V119.039ZM1201.04 132.039H1210.93V130.823H1202.52V127.608H1201.04V132.039ZM1214.58 119.685H1213.2V123.724H1214.58V119.685ZM825.838 144.983H816.252V146.182H824.363C824.363 147.188 824.341 148.453 824.015 150.16H814.65V151.37H827.462V150.16H825.506C825.838 148.348 825.838 147.006 825.838 145.961V144.983ZM816.004 154.486H824.434V158.359H825.915V153.309H816.004V154.486ZM840.761 151.464H835.109V149.956H839.103V144.657H837.628V146.166H831.142V144.657H829.667V149.956H833.633V151.464H827.998V152.674H840.761V151.464ZM829.412 155.105H837.7V158.326H839.191V153.917H829.412V155.105ZM831.142 148.762V147.282H837.628V148.762H831.142ZM853.385 144.326H851.959V158.326H853.385V144.326ZM841.501 150.37C841.501 153.414 842.689 155.32 844.512 155.315C846.247 155.32 847.413 153.63 847.551 150.895H849.125V157.635H850.54V144.597H849.125V149.691H847.545C847.368 147.061 846.214 145.448 844.512 145.448C842.689 145.448 841.501 147.343 841.501 150.37ZM842.882 150.37C842.871 148.144 843.506 146.84 844.512 146.84C845.545 146.84 846.186 148.144 846.186 150.37C846.186 152.602 845.545 153.912 844.512 153.901C843.506 153.912 842.871 152.602 842.882 150.37ZM869.458 150.79H861.192V146.613H869.336V145.414H859.712V151.978H863.756V155.387H858.121V156.613H870.933V155.387H865.226V151.978H869.458V150.79ZM877.839 144.569C874.778 144.569 872.833 145.552 872.833 147.232C872.833 148.878 874.778 149.862 877.839 149.851C880.911 149.862 882.833 148.878 882.833 147.232C882.833 145.552 880.911 144.569 877.839 144.569ZM871.469 152.022H877.11V153.492H872.999V158.149H882.673V153.492H878.574V152.022H884.231V150.812H871.469V152.022ZM874.375 147.232C874.364 146.265 875.684 145.713 877.839 145.718C879.983 145.713 881.314 146.265 881.314 147.232C881.314 148.171 879.983 148.707 877.839 148.707C875.684 148.707 874.364 148.171 874.375 147.232ZM874.463 156.945V154.674H881.231V156.945H874.463ZM896.414 144.326H894.922V158.354H896.414V144.326ZM885.298 150.287C885.298 153.304 886.806 155.21 888.916 155.21C891.005 155.21 892.53 153.304 892.53 150.287C892.53 147.287 891.005 145.381 888.916 145.376C886.806 145.381 885.298 147.287 885.298 150.287ZM886.728 150.287C886.728 148.083 887.623 146.713 888.916 146.702C890.209 146.713 891.093 148.083 891.093 150.287C891.093 152.508 890.209 153.878 888.916 153.878C887.623 153.878 886.728 152.508 886.728 150.287ZM909.74 147.878H904.464V146.055H909.591V144.928H902.939V149.028H905.536V150.337C904.182 150.376 902.867 150.387 901.669 150.387L901.851 151.552C904.514 151.552 907.834 151.47 910.812 151.022L910.74 150C909.558 150.133 908.298 150.221 907.033 150.276V149.028H909.74V147.878ZM903.84 153.575H911.762V154.691H903.862V158.193H913.674V157H905.326V155.801H913.221V152.403H903.84V153.575ZM911.751 151.818H913.221V144.337H911.751V151.818ZM925.526 145.558V144.796H923.979V145.558C923.979 147.442 921.714 149.166 918.968 149.536L919.564 150.746C921.841 150.381 923.846 149.199 924.758 147.541C925.669 149.188 927.675 150.381 929.962 150.746L930.553 149.536C927.797 149.166 925.526 147.42 925.526 145.558ZM918.366 153.348H923.984V158.326H925.443V153.348H931.128V152.122H918.366V153.348ZM939.991 153.575V152.906H938.56V153.575C938.549 154.934 937.576 156.387 935.781 157.039L936.521 158.122C937.842 157.641 938.77 156.713 939.273 155.608C939.704 156.757 940.554 157.746 941.902 158.249C943.184 157.718 944.024 156.685 944.466 155.564C944.952 156.713 945.891 157.646 947.273 158.122L948.007 157.039C946.184 156.436 945.223 155.033 945.234 153.575V152.906H943.775V153.575C943.775 154.646 943.14 155.983 941.858 156.812C940.593 156.05 939.991 154.779 939.991 153.575ZM935.422 148.42C935.422 150.359 937.002 151.707 939.151 151.707C941.295 151.707 942.869 150.359 942.869 148.42C942.869 146.464 941.295 145.116 939.151 145.116C937.002 145.116 935.422 146.464 935.422 148.42ZM936.875 148.42C936.864 147.193 937.82 146.365 939.151 146.376C940.466 146.365 941.416 147.193 941.416 148.42C941.416 149.641 940.466 150.47 939.151 150.475C937.82 150.47 936.864 149.641 936.875 148.42ZM945.267 152.304H946.753V144.337H945.267V152.304ZM959.825 150.79H951.56V146.613H959.704V145.414H950.079V151.978H954.123V155.387H948.488V156.613H961.3V155.387H955.593V151.978H959.825V150.79ZM974.626 151.967H968.952V150.641H973.3V149.475H964.93V148.177H973.013V144.652H963.422V145.829H971.532V147.077H963.461V150.641H967.494V151.967H961.814V153.177H974.626V151.967ZM963.251 155.343H971.599V158.215H973.09V154.149H963.251V155.343ZM989.611 144.326H988.124V152.762H989.611V149.215H991.638V147.956H989.611V144.326ZM978.627 146.939H986.959V145.74H983.539V144.227H982.064V145.74H978.627V146.939ZM979.39 150.05C979.384 151.564 980.754 152.552 982.798 152.558C984.815 152.552 986.185 151.564 986.191 150.05C986.185 148.552 984.815 147.547 982.798 147.547C980.754 147.547 979.384 148.552 979.39 150.05ZM980.66 158.149H989.611V153.497H980.66V158.149ZM980.821 150.05C980.809 149.21 981.605 148.68 982.798 148.68C983.981 148.68 984.776 149.21 984.787 150.05C984.776 150.912 983.981 151.431 982.798 151.436C981.605 151.431 980.809 150.912 980.821 150.05ZM982.119 156.945V154.68H988.141V156.945H982.119ZM995.417 145.989H992.246V147.199H994.13C994.036 149.834 993.544 152.265 991.903 154.453L993.069 155.099C995.02 152.365 995.412 149.116 995.417 145.989ZM995.053 155.287L996.202 155.95C997.285 154.425 997.87 152.696 998.18 150.956H999.997V157.646H1001.4V144.685H999.997V149.746H998.357C998.506 148.448 998.533 147.171 998.539 145.989H995.854V147.199H997.257C997.196 149.912 996.859 152.845 995.053 155.287ZM1002.64 158.326H1004.07V144.326H1002.64V158.326ZM1020.09 150.586H1011.77V145.481H1010.25V151.807H1014.37V155.365H1008.73V156.58H1021.55V155.365H1015.85V151.807H1020.09V150.586ZM1028.74 145.171H1022.63V146.354H1027.27V148.122H1022.66V152.387H1023.67C1026.46 152.381 1027.9 152.337 1029.61 152.05L1029.46 150.84C1027.89 151.133 1026.57 151.188 1024.13 151.193V149.249H1028.74V145.171ZM1024.24 154.856H1032.27V158.343H1033.75V153.657H1024.24V154.856ZM1029.63 150.492H1032.27V152.945H1033.75V144.337H1032.27V146.376H1029.63V147.564H1032.27V149.293H1029.63V150.492ZM1046.34 144.326H1044.87V158.326H1046.34V151.232H1048.58V150H1046.34V144.326ZM1035.35 147.729H1043.64V146.519H1040.29V144.508H1038.81V146.519H1035.35V147.729ZM1036.07 152.022C1036.06 153.939 1037.53 155.271 1039.56 155.276C1041.56 155.271 1043.03 153.939 1043.03 152.022C1043.03 150.11 1041.56 148.762 1039.56 148.762C1037.53 148.762 1036.06 150.11 1036.07 152.022ZM1037.49 152.022C1037.48 150.818 1038.36 149.989 1039.56 149.989C1040.74 149.989 1041.61 150.818 1041.62 152.022C1041.61 153.232 1040.74 154.044 1039.56 154.039C1038.36 154.044 1037.48 153.232 1037.49 152.022ZM1054.98 145.337H1049.51V146.547H1053.44C1053.18 148.773 1051.64 150.486 1048.87 151.597L1049.62 152.702C1051.55 151.884 1052.96 150.785 1053.85 149.409H1056.46V152.177H1057.87V144.63H1056.46V148.21H1054.46C1054.81 147.343 1054.98 146.381 1054.98 145.337ZM1049.54 157.166L1050.29 158.26C1051.61 157.762 1052.53 156.823 1053.03 155.707C1053.46 156.862 1054.3 157.862 1055.64 158.37C1056.94 157.834 1057.77 156.796 1058.21 155.669C1058.69 156.823 1059.64 157.773 1061.02 158.26L1061.74 157.166C1059.93 156.58 1058.95 155.138 1058.97 153.691V152.845H1057.52V153.691C1057.51 154.74 1056.89 156.094 1055.61 156.934C1054.34 156.166 1053.74 154.906 1053.76 153.691V152.845H1052.34V153.691C1052.34 155.044 1051.33 156.53 1049.54 157.166ZM1059.3 152.392H1060.71V144.337H1059.3V152.392ZM1065.17 152.724H1063.71V158.149H1073.24V152.724H1071.75V154.21H1065.17V152.724ZM1062.13 151.834H1074.89V150.619H1062.13V151.834ZM1062.81 148.586L1063.36 149.751C1065.62 149.431 1067.61 148.365 1068.51 146.867C1069.41 148.359 1071.39 149.431 1073.65 149.751L1074.19 148.586C1071.5 148.249 1069.27 146.691 1069.27 145.072V144.475H1067.74V145.072C1067.74 146.74 1065.52 148.227 1062.81 148.586ZM1065.17 156.961V155.359H1071.75V156.961H1065.17ZM1087.09 144.326H1085.62V158.326H1087.09V144.326ZM1076.33 154.768H1077.5C1079.71 154.773 1081.96 154.602 1084.44 154.088L1084.24 152.84C1081.99 153.304 1079.84 153.475 1077.79 153.492V145.691H1076.33V154.768ZM1099.73 144.326H1098.24V158.354H1099.73V150.978H1101.97V149.746H1099.73V144.326ZM1089.41 154.878H1090.54C1093.14 154.884 1095 154.812 1097.19 154.431L1097.01 153.166C1095 153.53 1093.24 153.63 1090.89 153.641V146.878H1095.96V145.674H1089.41V154.878ZM1103.76 157.105C1104.36 157.105 1104.87 156.608 1104.87 156C1104.87 155.392 1104.36 154.895 1103.76 154.895C1103.15 154.895 1102.64 155.392 1102.65 156C1102.64 156.608 1103.15 157.105 1103.76 157.105Z" fill="#8F8F8F"/>
<path d="M743.069 210.89V208.492H741.566V210.89C741.555 213.481 740.108 216.182 737.942 217.221L738.881 218.414C740.489 217.58 741.71 215.878 742.329 213.862C742.942 215.779 744.146 217.359 745.743 218.16L746.638 216.967C744.5 216.006 743.064 213.453 743.069 210.89ZM745.102 213.182H748.224V221.354H749.693V207.326H748.224V211.978H745.102V213.182ZM763.124 207.326H761.632V221.354H763.124V207.326ZM752.301 218.006H759.025V208.492H757.561V212.088H753.782V208.492H752.301V218.006ZM753.782 216.779V213.265H757.561V216.779H753.782ZM772.146 209.315V208.26H770.583V209.315C770.571 211.591 768.157 213.735 765.494 214.232L766.157 215.47C768.4 214.978 770.45 213.508 771.373 211.552C772.284 213.519 774.339 214.983 776.583 215.47L777.257 214.232C774.571 213.751 772.146 211.591 772.146 209.315ZM765.036 219.486H777.848V218.254H765.036V219.486ZM793.727 207.326H792.235V221.354H793.727V207.326ZM782.611 213.287C782.611 216.304 784.119 218.21 786.229 218.21C788.318 218.21 789.843 216.304 789.843 213.287C789.843 210.287 788.318 208.381 786.229 208.376C784.119 208.381 782.611 210.287 782.611 213.287ZM784.042 213.287C784.042 211.083 784.937 209.713 786.229 209.702C787.522 209.713 788.406 211.083 788.406 213.287C788.406 215.508 787.522 216.878 786.229 216.878C784.937 216.878 784.042 215.508 784.042 213.287ZM808.401 214.155H805.307V212.282C806.389 211.84 807.003 211.133 807.003 210.204C807.003 208.541 805.075 207.575 802.008 207.569C798.931 207.575 797.003 208.541 797.003 210.204C797.003 211.133 797.616 211.84 798.699 212.276V214.155H795.638V215.359H808.401V214.155ZM797.146 218.801C797.146 220.414 798.964 221.298 802.003 221.298C805.019 221.298 806.831 220.414 806.843 218.801C806.831 217.199 805.019 216.309 802.003 216.32C798.964 216.309 797.146 217.199 797.146 218.801ZM798.544 210.204C798.533 209.265 799.831 208.724 802.008 208.724C804.174 208.724 805.483 209.265 805.483 210.204C805.483 211.144 804.174 211.663 802.008 211.663C799.831 211.663 798.533 211.144 798.544 210.204ZM798.655 218.801C798.644 217.934 799.865 217.459 802.003 217.448C804.119 217.459 805.351 217.934 805.362 218.801C805.351 219.674 804.119 220.171 802.003 220.16C799.865 220.171 798.644 219.674 798.655 218.801ZM800.191 214.155V212.674C800.738 212.757 801.345 212.801 802.008 212.801C802.671 212.801 803.284 212.757 803.831 212.669V214.155H800.191ZM823.639 207.326H822.152V221.309H823.639V214.149H825.81V212.906H823.639V207.326ZM812.738 217.58L813.567 218.729C818.18 216.459 819.965 212.845 819.976 208.807H813.44V210.033H818.467C818.152 213.298 816.252 215.829 812.738 217.58ZM837.837 207.326H836.346V221.354H837.837V207.326ZM826.721 213.287C826.721 216.304 828.23 218.21 830.34 218.21C832.428 218.21 833.953 216.304 833.953 213.287C833.953 210.287 832.428 208.381 830.34 208.376C828.23 208.381 826.721 210.287 826.721 213.287ZM828.152 213.287C828.152 211.083 829.047 209.713 830.34 209.702C831.633 209.713 832.517 211.083 832.517 213.287C832.517 215.508 831.633 216.878 830.34 216.878C829.047 216.878 828.152 215.508 828.152 213.287ZM851.086 213.972H842.804V209.801H850.964V208.586H841.34V215.182H851.086V213.972ZM839.749 219.481H852.561V218.249H839.749V219.481Z" fill="#8F8F8F"/>
<rect x="893.5" y="206" width="1" height="16" fill="#8F8F8F"/>
<path d="M946.616 207.326H945.124V221.354H946.616V207.326ZM935.5 213.287C935.5 216.304 937.008 218.21 939.119 218.21C941.207 218.21 942.732 216.304 942.732 213.287C942.732 210.287 941.207 208.381 939.119 208.376C937.008 208.381 935.5 210.287 935.5 213.287ZM936.931 213.287C936.931 211.083 937.826 209.713 939.119 209.702C940.412 209.713 941.296 211.083 941.296 213.287C941.296 215.508 940.412 216.878 939.119 216.878C937.826 216.878 936.931 215.508 936.931 213.287ZM961.29 214.155H958.196V212.282C959.279 211.84 959.892 211.133 959.892 210.204C959.892 208.541 957.964 207.575 954.898 207.569C951.82 207.575 949.892 208.541 949.892 210.204C949.892 211.133 950.505 211.84 951.588 212.276V214.155H948.527V215.359H961.29V214.155ZM950.036 218.801C950.036 220.414 951.853 221.298 954.892 221.298C957.909 221.298 959.721 220.414 959.732 218.801C959.721 217.199 957.909 216.309 954.892 216.32C951.853 216.309 950.036 217.199 950.036 218.801ZM951.434 210.204C951.422 209.265 952.721 208.724 954.898 208.724C957.063 208.724 958.373 209.265 958.373 210.204C958.373 211.144 957.063 211.663 954.898 211.663C952.721 211.663 951.422 211.144 951.434 210.204ZM951.544 218.801C951.533 217.934 952.754 217.459 954.892 217.448C957.008 217.459 958.24 217.934 958.251 218.801C958.24 219.674 957.008 220.171 954.892 220.16C952.754 220.171 951.533 219.674 951.544 218.801ZM953.08 214.155V212.674C953.627 212.757 954.235 212.801 954.898 212.801C955.561 212.801 956.174 212.757 956.721 212.669V214.155H953.08ZM975.019 209.381H973.036V207.326H971.549V215.624H973.036V213.619H975.019V212.376H973.036V210.591H975.019V209.381ZM962.246 211.481C962.234 213.459 963.826 214.829 965.975 214.829C968.113 214.829 969.688 213.459 969.699 211.481C969.688 209.519 968.113 208.138 965.975 208.144C963.826 208.138 962.234 209.519 962.246 211.481ZM963.699 211.481C963.688 210.232 964.66 209.414 965.975 209.414C967.284 209.414 968.246 210.232 968.257 211.481C968.246 212.746 967.279 213.575 965.975 213.564C964.66 213.575 963.688 212.746 963.699 211.481ZM963.781 217.459H971.549V221.326H973.036V216.249H963.781V217.459ZM983.334 208.387H976.273V209.613H981.875C981.864 210.492 981.814 211.619 981.511 213.177L982.98 213.304C983.323 211.503 983.323 210.11 983.334 209.177V208.387ZM975.428 214.514L975.566 215.718C978.041 215.713 981.383 215.657 984.306 215.144L984.218 214.061C982.809 214.26 981.267 214.37 979.765 214.431V211.536H978.295V214.481C977.267 214.503 976.29 214.508 975.428 214.514ZM977.555 221.039H987.063V219.823H979.035V216.895H977.555V221.039ZM985.107 217.845H986.616V213.039H988.544V211.785H986.616V207.326H985.107V217.845Z" fill="#8F8F8F"/>
<rect x="1029.5" y="206" width="1" height="16" fill="#8F8F8F"/>
<path d="M1083.01 207.326H1081.57V212.856H1079.85V207.702H1078.46V220.652H1079.85V214.066H1081.57V221.326H1083.01V207.326ZM1070.96 217.32L1071.83 218.365C1075.83 216.099 1077.05 212.79 1077.06 209.11H1071.56V210.32H1075.62C1075.39 213.171 1074.09 215.552 1070.96 217.32ZM1096.14 207.337H1094.65V217.514H1096.14V207.337ZM1084.81 211.751C1084.81 213.807 1086.43 215.238 1088.54 215.232C1090.65 215.238 1092.26 213.807 1092.26 211.751C1092.26 209.724 1090.65 208.287 1088.54 208.287C1086.43 208.287 1084.81 209.724 1084.81 211.751ZM1086.26 211.751C1086.25 210.459 1087.23 209.58 1088.54 209.58C1089.82 209.58 1090.8 210.459 1090.8 211.751C1090.8 213.066 1089.82 213.939 1088.54 213.939C1087.23 213.939 1086.25 213.066 1086.26 211.751ZM1086.98 221.039H1096.55V219.823H1088.47V216.481H1086.98V221.039ZM1109.7 207.326H1108.22V210.895H1105.61V212.116H1108.22V215.657H1109.7V207.326ZM1098.04 214.398L1098.81 215.575C1100.48 214.961 1101.71 213.707 1102.32 212.144C1102.93 213.525 1104.09 214.646 1105.66 215.193L1106.42 214.011C1104.31 213.298 1103.04 211.575 1103.04 209.801V209.503H1106.06V208.293H1098.5V209.503H1101.54V209.812C1101.54 211.746 1100.21 213.635 1098.04 214.398ZM1100.28 218.691C1100.27 220.354 1102.07 221.315 1105.01 221.326C1107.95 221.315 1109.74 220.354 1109.75 218.691C1109.74 217.022 1107.95 216.05 1105.01 216.05C1102.07 216.05 1100.27 217.022 1100.28 218.691ZM1101.75 218.691C1101.74 217.74 1102.96 217.199 1105.01 217.199C1107.06 217.199 1108.27 217.74 1108.28 218.691C1108.27 219.63 1107.06 220.171 1105.01 220.16C1102.96 220.171 1101.74 219.63 1101.75 218.691ZM1124.36 218.365H1118.65V215.492H1122.84V208.282H1121.36V210.696H1114.49V208.282H1113V215.492H1117.18V218.365H1111.54V219.591H1124.36V218.365ZM1114.49 214.287V211.89H1121.36V214.287H1114.49ZM1140.32 207.326H1138.83V212.867H1135.94V214.077H1138.83V221.354H1140.32V207.326ZM1128.63 217.503L1129.45 218.646C1131.06 217.901 1132.28 216.337 1132.89 214.475C1133.52 216.232 1134.75 217.702 1136.36 218.409L1137.17 217.26C1135.03 216.309 1133.6 214.044 1133.6 211.823V210.906H1136.67V209.713H1133.63V207.602H1132.15V209.713H1129.03V210.906H1132.14V211.823C1132.14 214.133 1130.75 216.525 1128.63 217.503ZM1153.76 207.326H1152.29V221.354H1153.76V207.326ZM1142.92 209.801H1147.97V212.514H1142.94V217.994H1144.14C1146.6 217.994 1148.71 217.901 1151.19 217.492L1151.05 216.265C1148.71 216.652 1146.73 216.757 1144.46 216.768V213.707H1149.48V208.586H1142.92V209.801ZM1162.13 216.05C1159.22 216.05 1157.43 217.011 1157.43 218.674C1157.43 220.348 1159.22 221.315 1162.13 221.326C1165.02 221.315 1166.78 220.348 1166.78 218.674C1166.78 217.011 1165.02 216.05 1162.13 216.05ZM1156.19 214.696H1162.79V208.199H1161.32V210.221H1157.65V208.199H1156.19V214.696ZM1157.65 213.514V211.381H1161.32V213.514H1157.65ZM1158.92 218.674C1158.91 217.74 1160.11 217.221 1162.13 217.21C1164.15 217.221 1165.33 217.74 1165.33 218.674C1165.33 219.608 1164.15 220.144 1162.13 220.144C1160.11 220.144 1158.91 219.608 1158.92 218.674ZM1165.17 215.691H1166.65V212.011H1168.68V210.757H1166.65V207.326H1165.17V215.691ZM1174.36 210.166V210.083H1177.46V208.901H1174.38V207.271H1172.88V208.901H1169.78V210.083H1172.88V210.166C1172.88 211.956 1171.54 213.613 1169.39 214.287L1170.1 215.431C1171.78 214.906 1173.03 213.785 1173.65 212.343C1174.31 213.657 1175.56 214.674 1177.21 215.149L1177.91 213.989C1175.74 213.387 1174.36 211.834 1174.36 210.166ZM1171.57 221.149H1180.78V216.265H1171.57V221.149ZM1173.04 219.945V217.47H1179.32V219.945H1173.04ZM1179.29 215.602H1180.78V207.337H1179.29V215.602Z" fill="#8F8F8F"/>
<path d="M827.102 252.713H820.55V261.812H827.102V252.713ZM822.003 260.613V253.89H825.622V260.613H822.003ZM829.439 265.326H830.925V258.066H833.169V256.812H830.925V251.326H829.439V265.326ZM839.715 252.956H834.262V254.166H838.268C838.218 254.867 838.113 255.547 837.936 256.199L833.577 256.464L833.771 257.751L837.516 257.365C836.826 258.923 835.599 260.287 833.566 261.42L834.411 262.453C836.627 261.221 837.975 259.696 838.754 257.989H841.201V264.646H842.605V251.685H841.201V256.779H839.213C839.572 255.569 839.71 254.282 839.715 252.956ZM844.152 265.326H845.561V251.326H844.152V265.326ZM854.571 252.343H847.831V259.061H848.991C852.052 259.072 853.787 259.011 855.815 258.68L855.66 257.492C853.754 257.818 852.124 257.856 849.323 257.851V256.254H854.174V255.077H849.323V253.53H854.571V252.343ZM849.19 262.718C849.19 264.365 850.98 265.304 853.958 265.304C856.886 265.304 858.715 264.365 858.715 262.718C858.715 261.088 856.886 260.138 853.958 260.144C850.98 260.138 849.19 261.088 849.19 262.718ZM850.665 262.718C850.665 261.829 851.87 261.304 853.958 261.304C856.002 261.304 857.24 261.829 857.24 262.718C857.24 263.635 856.002 264.149 853.958 264.149C851.87 264.149 850.665 263.635 850.665 262.718ZM857.163 259.945H858.649V251.337H857.163V259.945ZM876.135 251.326H874.727V265.326H876.135V251.326ZM863.92 261.475L864.837 262.575C866.202 261.724 867.152 260.16 867.649 258.331C868.135 260.022 869.053 261.448 870.395 262.249L871.279 261.155C869.312 260.022 868.345 257.63 868.345 255.232V254.11H870.76V252.901H864.351V254.11H866.914V255.232C866.914 257.724 865.903 260.271 863.92 261.475ZM869.716 257.492H871.898V264.619H873.296V251.624H871.898V256.287H869.716V257.492ZM889.682 252.834H884.743V251.271H883.273V252.834H878.284V254.017H889.682V252.834ZM877.638 261.486H880.854V265.348H882.334V261.486H885.715V265.348H887.207V261.486H890.45V260.276H877.638V261.486ZM879.351 257.077C879.345 258.58 881.091 259.42 884.008 259.425C886.914 259.42 888.66 258.58 888.666 257.077C888.66 255.569 886.914 254.735 884.008 254.735C881.091 254.735 879.345 255.569 879.351 257.077ZM880.892 257.077C880.881 256.287 881.997 255.867 884.008 255.856C886.008 255.867 887.124 256.287 887.135 257.077C887.124 257.856 886.008 258.287 884.008 258.287C881.997 258.287 880.881 257.856 880.892 257.077ZM907.523 258.403H894.71V259.613H900.5V262.326H901.97V259.613H907.523V258.403ZM896.307 265.039H906.103V263.823H897.788V261H896.307V265.039ZM896.357 256.956H905.865V251.983H896.357V256.956ZM897.81 255.785V253.155H904.401V255.785H897.81ZM912.799 252.32C910.594 252.32 908.975 253.691 908.986 255.657C908.975 257.63 910.594 258.994 912.799 258.994C915.014 258.994 916.6 257.63 916.611 255.657C916.6 253.691 915.014 252.32 912.799 252.32ZM908.312 261.105L908.495 262.343C910.997 262.343 914.401 262.326 917.572 261.724L917.456 260.641C914.395 261.083 910.865 261.11 908.312 261.105ZM910.451 255.657C910.439 254.425 911.439 253.608 912.799 253.608C914.158 253.608 915.158 254.425 915.163 255.657C915.158 256.895 914.158 257.707 912.799 257.707C911.439 257.707 910.439 256.895 910.451 255.657ZM918.335 265.354H919.815V251.326H918.335V265.354ZM923.34 264.105C923.937 264.105 924.445 263.608 924.445 263C924.445 262.392 923.937 261.895 923.34 261.895C922.727 261.895 922.218 262.392 922.229 263C922.218 263.608 922.727 264.105 923.34 264.105ZM922.24 256.823C922.229 257.431 922.738 257.928 923.351 257.928C923.948 257.928 924.456 257.431 924.456 256.823C924.456 256.215 923.948 255.718 923.351 255.718C922.738 255.718 922.229 256.215 922.24 256.823ZM934.493 257.829H936.096C935.941 256.37 934.759 255.403 932.875 255.403C930.902 255.403 929.587 256.442 929.587 257.95C929.587 259.127 930.388 259.945 931.913 260.276L933.239 260.569C934.145 260.773 934.549 261.127 934.549 261.674C934.549 262.387 933.852 262.834 932.77 262.834C931.77 262.834 931.19 262.453 931.046 261.68H929.339C929.549 263.265 930.753 264.171 932.786 264.171C934.957 264.171 936.256 263.077 936.256 261.541C936.256 260.348 935.493 259.602 933.941 259.243L932.582 258.934C931.654 258.718 931.25 258.359 931.256 257.856C931.25 257.215 931.935 256.718 932.886 256.718C933.808 256.718 934.339 257.155 934.493 257.829ZM937.505 261.602C937.505 263.265 938.759 264.188 940.372 264.188C941.776 264.188 942.56 263.481 942.881 262.84H942.947V264H944.571V258.365C944.571 255.901 942.593 255.403 941.24 255.403C939.24 255.403 937.925 256.425 937.77 257.829H939.433C939.604 257.199 940.201 256.751 941.179 256.751C942.317 256.751 942.908 257.304 942.908 258.26V258.95C942.544 258.961 941.251 259.028 940.676 259.066C939.151 259.177 937.505 259.674 937.505 261.602ZM939.14 261.624C939.14 260.79 939.825 260.376 940.914 260.298C941.317 260.271 942.533 260.188 942.914 260.166V260.939C942.914 261.945 942.107 262.856 940.743 262.856C939.809 262.856 939.14 262.442 939.14 261.624ZM946.59 264H948.259V258.773C948.259 257.63 949.06 256.845 949.994 256.845C950.911 256.845 951.541 257.448 951.541 258.37V264H953.193V258.591C953.193 257.575 953.817 256.845 954.894 256.845C955.767 256.845 956.48 257.326 956.48 258.475V264H958.148V258.309C958.148 256.37 957.06 255.403 955.524 255.403C954.298 255.403 953.38 255.989 952.977 256.901H952.889C952.524 255.961 951.734 255.403 950.607 255.403C949.485 255.403 948.651 255.961 948.298 256.901H948.193V255.514H946.59V264ZM964.931 257.829H966.533C966.378 256.37 965.196 255.403 963.312 255.403C961.34 255.403 960.025 256.442 960.025 257.95C960.025 259.127 960.826 259.945 962.351 260.276L963.677 260.569C964.583 260.773 964.986 261.127 964.986 261.674C964.986 262.387 964.29 262.834 963.207 262.834C962.207 262.834 961.627 262.453 961.483 261.68H959.776C959.986 263.265 961.191 264.171 963.224 264.171C965.395 264.171 966.693 263.077 966.693 261.541C966.693 260.348 965.931 259.602 964.378 259.243L963.019 258.934C962.091 258.718 961.688 258.359 961.693 257.856C961.688 257.215 962.373 256.718 963.323 256.718C964.246 256.718 964.776 257.155 964.931 257.829ZM968.34 264H970.009V255.514H968.34V264ZM968.13 253.221C968.13 253.768 968.606 254.21 969.186 254.21C969.755 254.21 970.23 253.768 970.23 253.221C970.23 252.674 969.755 252.232 969.186 252.232C968.606 252.232 968.13 252.674 968.13 253.221ZM975.629 264.171C978.021 264.171 979.585 262.42 979.585 259.796C979.585 257.155 978.021 255.403 975.629 255.403C973.231 255.403 971.662 257.155 971.662 259.796C971.662 262.42 973.231 264.171 975.629 264.171ZM973.342 259.79C973.342 258.171 974.082 256.79 975.635 256.79C977.171 256.79 977.905 258.171 977.905 259.79C977.905 261.414 977.171 262.779 975.635 262.779C974.082 262.779 973.342 261.414 973.342 259.79ZM982.899 258.967C982.899 257.613 983.723 256.845 984.872 256.845C985.993 256.845 986.662 257.58 986.662 258.807V264H988.33V258.602C988.33 256.508 987.181 255.403 985.441 255.403C984.165 255.403 983.33 255.994 982.938 256.901H982.833V255.514H981.231V264H982.899V258.967ZM995.919 262.464C997.052 262.464 997.549 261.691 997.748 261.304H997.831C997.942 262.017 998.704 262.536 999.71 262.536C1001.38 262.541 1002.6 261.149 1002.6 258.751C1002.61 255.359 1000.07 252.829 996.361 252.829C992.704 252.829 990.113 255.519 990.124 259.227C990.124 263.155 992.439 265.624 996.301 265.624C997.345 265.624 998.284 265.486 999.107 265.254V264.006C998.19 264.254 997.411 264.331 996.301 264.343C993.107 264.37 991.428 262.32 991.428 259.227C991.439 256.365 993.361 254.122 996.361 254.11C999.284 254.11 1001.31 255.967 1001.3 258.79C1001.29 260.309 1000.7 261.331 999.815 261.331C999.356 261.331 999.124 261.055 999.107 260.486V256.116H997.748V257.05H997.676C997.477 256.652 996.991 255.989 995.925 255.983C994.444 255.989 993.279 257.166 993.279 259.215C993.279 261.265 994.411 262.464 995.919 262.464ZM994.743 259.21C994.737 258.099 995.279 257.271 996.256 257.271C997.262 257.271 997.77 258.039 997.776 259.21C997.77 260.398 997.251 261.182 996.256 261.182C995.284 261.182 994.737 260.337 994.743 259.21ZM1004.4 267.182H1006.07V262.68H1006.17C1006.47 263.227 1007.08 264.166 1008.62 264.166C1010.68 264.166 1012.17 262.519 1012.17 259.773C1012.17 257.017 1010.66 255.403 1008.61 255.403C1007.04 255.403 1006.46 256.359 1006.17 256.89H1006.03V255.514H1004.4V267.182ZM1006.04 259.757C1006.04 257.989 1006.81 256.823 1008.25 256.823C1009.73 256.823 1010.48 258.077 1010.48 259.757C1010.48 261.459 1009.72 262.746 1008.25 262.746C1006.83 262.746 1006.04 261.53 1006.04 259.757ZM1017.49 264.171C1019.35 264.171 1020.65 263.254 1021.03 261.867H1019.34C1019.06 262.392 1018.44 262.801 1017.5 262.801C1016.1 262.801 1015.15 261.878 1015.1 260.26H1021.14V259.669C1021.14 256.602 1019.3 255.403 1017.37 255.403C1015.01 255.403 1013.44 257.204 1013.44 259.812C1013.44 262.448 1014.98 264.171 1017.49 264.171ZM1015.11 259.011C1015.18 257.818 1016.05 256.773 1017.39 256.773C1018.66 256.773 1019.49 257.724 1019.5 259.011H1015.11ZM1026.76 255.514H1025.03V253.481H1023.36V255.514H1022.12V256.845H1023.36V261.845C1023.36 263.392 1024.53 264.11 1025.84 264.11C1026.3 264.11 1026.66 264.077 1026.88 264.039V262.602C1026.66 262.613 1026.29 262.635 1026.05 262.635C1025.51 262.63 1025.03 262.459 1025.03 261.503V256.845H1026.76V255.514ZM1028.39 264H1030.06V258.773C1030.06 257.63 1030.86 256.845 1031.79 256.845C1032.71 256.845 1033.34 257.448 1033.34 258.37V264H1034.99V258.591C1034.99 257.575 1035.61 256.845 1036.69 256.845C1037.56 256.845 1038.28 257.326 1038.28 258.475V264H1039.95V258.309C1039.95 256.37 1038.86 255.403 1037.32 255.403C1036.09 255.403 1035.18 255.989 1034.77 256.901H1034.69C1034.32 255.961 1033.53 255.403 1032.4 255.403C1031.28 255.403 1030.45 255.961 1030.09 256.901H1029.99V255.514H1028.39V264ZM1045.55 264.171C1047.94 264.171 1049.51 262.42 1049.51 259.796C1049.51 257.155 1047.94 255.403 1045.55 255.403C1043.15 255.403 1041.58 257.155 1041.58 259.796C1041.58 262.42 1043.15 264.171 1045.55 264.171ZM1043.26 259.79C1043.26 258.171 1044 256.79 1045.56 256.79C1047.09 256.79 1047.83 258.171 1047.83 259.79C1047.83 261.414 1047.09 262.779 1045.56 262.779C1044 262.779 1043.26 261.414 1043.26 259.79ZM1051.15 264H1052.82V258.829C1052.82 257.718 1053.68 256.917 1054.85 256.917C1055.19 256.917 1055.58 256.983 1055.72 257.017V255.425C1055.55 255.403 1055.21 255.387 1055 255.387C1054.01 255.387 1053.16 255.95 1052.85 256.867H1052.77V255.514H1051.15V264ZM1058.26 267.182C1059.66 267.182 1060.52 266.47 1061.01 265.127L1064.51 255.514H1062.72L1060.57 262.094H1060.49L1058.35 255.514H1056.56L1059.67 264.116L1059.46 264.669C1059.07 265.74 1058.63 265.773 1058.12 265.773C1057.88 265.773 1057.56 265.768 1057.37 265.751L1057.36 267.149C1057.58 267.171 1057.92 267.182 1058.26 267.182ZM1066.43 264.105C1067.03 264.105 1067.54 263.608 1067.54 263C1067.54 262.392 1067.03 261.895 1066.43 261.895C1065.82 261.895 1065.31 262.392 1065.32 263C1065.31 263.608 1065.82 264.105 1066.43 264.105ZM1073.14 264.171C1075.15 264.171 1076.45 262.961 1076.63 261.309H1075.01C1074.8 262.227 1074.09 262.757 1073.15 262.757C1071.76 262.757 1070.86 261.608 1070.86 259.757C1070.86 257.945 1071.77 256.801 1073.15 256.801C1074.21 256.801 1074.84 257.464 1075.01 258.26H1076.63C1076.46 256.541 1075.06 255.403 1073.13 255.403C1070.73 255.403 1069.18 257.204 1069.18 259.796C1069.18 262.354 1070.68 264.171 1073.14 264.171ZM1081.8 264.171C1084.19 264.171 1085.76 262.42 1085.76 259.796C1085.76 257.155 1084.19 255.403 1081.8 255.403C1079.4 255.403 1077.83 257.155 1077.83 259.796C1077.83 262.42 1079.4 264.171 1081.8 264.171ZM1079.51 259.79C1079.51 258.171 1080.25 256.79 1081.81 256.79C1083.34 256.79 1084.08 258.171 1084.08 259.79C1084.08 261.414 1083.34 262.779 1081.81 262.779C1080.25 262.779 1079.51 261.414 1079.51 259.79ZM1087.4 264H1089.07V258.773C1089.07 257.63 1089.87 256.845 1090.81 256.845C1091.72 256.845 1092.35 257.448 1092.35 258.37V264H1094.01V258.591C1094.01 257.575 1094.63 256.845 1095.71 256.845C1096.58 256.845 1097.29 257.326 1097.29 258.475V264H1098.96V258.309C1098.96 256.37 1097.87 255.403 1096.34 255.403C1095.11 255.403 1094.19 255.989 1093.79 256.901H1093.7C1093.34 255.961 1092.55 255.403 1091.42 255.403C1090.3 255.403 1089.46 255.961 1089.11 256.901H1089.01V255.514H1087.4V264Z" fill="#8F8F8F"/>
<path d="M835.368 287.243H836.782C836.362 284.901 834.506 283.53 832.218 283.53C829.312 283.53 827.213 285.762 827.213 289.343C827.213 292.923 829.312 295.155 832.218 295.155C834.517 295.155 836.373 293.762 836.782 291.453H835.368C835.036 293 833.71 293.84 832.218 293.84C830.174 293.84 828.583 292.26 828.583 289.343C828.583 286.425 830.174 284.845 832.218 284.845C833.71 284.845 835.047 285.685 835.368 287.243ZM842.576 295H849.924V293.751H844.532V293.663L847.118 290.989C849.129 288.923 849.715 287.939 849.726 286.68C849.715 284.912 848.256 283.53 846.201 283.53C844.157 283.53 842.61 284.878 842.621 286.878H843.958C843.958 285.608 844.808 284.757 846.157 284.757C847.427 284.757 848.4 285.508 848.411 286.68C848.4 287.718 847.759 288.481 846.422 289.906L842.565 293.972L842.576 295ZM855.669 295.155C858.177 295.155 859.624 293.044 859.624 289.343C859.624 285.674 858.155 283.53 855.669 283.53C853.182 283.53 851.713 285.674 851.713 289.343C851.713 293.044 853.16 295.155 855.669 295.155ZM853.083 289.343C853.083 286.414 854.044 284.757 855.669 284.757C857.293 284.757 858.254 286.414 858.254 289.343C858.254 292.271 857.304 293.906 855.669 293.906C854.033 293.906 853.083 292.271 853.083 289.343ZM861.498 295H868.846V293.751H863.454V293.663L866.04 290.989C868.051 288.923 868.636 287.939 868.647 286.68C868.636 284.912 867.178 283.53 865.123 283.53C863.078 283.53 861.531 284.878 861.542 286.878H862.879C862.879 285.608 863.73 284.757 865.078 284.757C866.349 284.757 867.321 285.508 867.333 286.68C867.321 287.718 866.681 288.481 865.344 289.906L861.487 293.972L861.498 295ZM874.801 295.155C877.055 295.155 878.745 293.785 878.734 291.928C878.745 290.481 877.85 289.431 876.381 289.21V289.122C877.563 288.79 878.314 287.851 878.303 286.569C878.314 284.945 876.999 283.53 874.845 283.53C872.834 283.53 871.165 284.735 871.099 286.525H872.458C872.513 285.42 873.618 284.757 874.823 284.757C876.115 284.757 876.944 285.508 876.944 286.635C876.944 287.807 875.983 288.58 874.602 288.58H873.684V289.818H874.602C876.37 289.818 877.353 290.691 877.353 291.917C877.353 293.099 876.27 293.906 874.778 293.906C873.43 293.906 872.359 293.232 872.281 292.16H870.856C870.933 293.95 872.546 295.155 874.801 295.155ZM884.967 295H886.371V290.89H888.835C891.465 290.89 892.669 289.287 892.669 287.276C892.669 285.265 891.465 283.685 888.813 283.685H884.967V295ZM886.371 289.641V284.934H888.757C890.57 284.934 891.277 285.928 891.277 287.276C891.277 288.624 890.57 289.641 888.768 289.641H886.371ZM897.938 295.177C899.684 295.177 900.943 294.304 901.341 293.011H899.905C899.595 293.541 898.954 293.983 897.938 293.983C896.429 293.983 895.385 293 895.324 291.21H901.474V290.646C901.474 287.497 899.595 286.403 897.805 286.403C895.507 286.403 893.971 288.215 893.971 290.823C893.971 293.431 895.485 295.177 897.938 295.177ZM895.324 290.061C895.413 288.757 896.341 287.597 897.816 287.597C899.208 287.597 900.104 288.646 900.104 290.061H895.324ZM906.925 286.514H905.135V284.481H903.787V286.514H902.505V287.641H903.787V292.912C903.787 294.403 904.98 295.11 906.107 295.11C906.505 295.11 906.837 295.077 907.047 295.044V293.796C906.848 293.807 906.494 293.829 906.251 293.829C905.677 293.829 905.135 293.652 905.135 292.558V287.641H906.925V286.514ZM908.65 295H909.998V289.707C909.998 288.47 910.893 287.608 911.899 287.608C912.882 287.608 913.567 288.249 913.567 289.21V295H914.926V289.486C914.926 288.403 915.6 287.608 916.783 287.608C917.711 287.608 918.495 288.094 918.495 289.343V295H919.843V289.32C919.843 287.331 918.76 286.403 917.247 286.403C916.031 286.403 915.136 286.967 914.705 287.851H914.617C914.208 286.934 913.457 286.403 912.341 286.403C911.236 286.403 910.418 286.934 910.064 287.851H909.954V286.514H908.65V295ZM925.463 295.177C927.773 295.177 929.32 293.431 929.32 290.801C929.32 288.149 927.773 286.403 925.463 286.403C923.154 286.403 921.596 288.149 921.596 290.801C921.596 293.431 923.154 295.177 925.463 295.177ZM922.944 290.801C922.944 289.11 923.74 287.597 925.463 287.597C927.176 287.597 927.972 289.11 927.972 290.801C927.972 292.492 927.176 293.983 925.463 293.983C923.74 293.983 922.944 292.492 922.944 290.801ZM931.072 295H932.42V289.652C932.42 288.514 933.326 287.674 934.552 287.674C934.895 287.674 935.26 287.74 935.359 287.762V286.403C935.204 286.392 934.862 286.381 934.663 286.381C933.657 286.381 932.773 286.956 932.464 287.807H932.376V286.514H931.072V295ZM937.793 298.182C938.997 298.182 939.826 297.552 940.323 296.227L943.915 286.514H942.456L940.136 293.254H940.047L937.727 286.514H936.268L939.406 295.055L939.163 295.707C938.71 296.945 938.246 296.978 937.705 296.978C937.495 296.978 937.185 296.967 937.053 296.956L937.042 298.149C937.218 298.171 937.506 298.182 937.793 298.182ZM946.637 293.939H945.134L944.272 298.193H945.432L946.637 293.939ZM953.679 295L954.806 291.818H959.358L960.485 295H961.966L957.822 283.685H956.342L952.198 295H953.679ZM955.242 290.58L957.038 285.508H957.126L958.922 290.58H955.242ZM964.67 283.685H963.322V295H964.67V283.685ZM968.154 283.685H966.806V295H968.154V283.685ZM974.483 295H975.886V290.602H978.35C978.439 290.602 978.533 290.602 978.616 290.597L980.991 295H982.627L980.074 290.343C981.511 289.845 982.185 288.669 982.185 287.166C982.185 285.155 980.98 283.685 978.328 283.685H974.483V295ZM975.886 289.331V284.934H978.273C980.085 284.934 980.792 285.818 980.792 287.166C980.792 288.514 980.085 289.331 978.284 289.331H975.886ZM984.041 295H985.389V286.514H984.041V295ZM983.775 284.215C983.775 284.713 984.206 285.11 984.726 285.11C985.234 285.11 985.665 284.713 985.665 284.215C985.665 283.718 985.234 283.32 984.726 283.32C984.206 283.32 983.775 283.718 983.775 284.215ZM990.972 298.359C993.039 298.359 994.652 297.42 994.652 295.232V286.514H993.348V287.862H993.227C992.928 287.409 992.398 286.403 990.751 286.403C988.619 286.403 987.127 288.028 987.127 290.646C987.127 293.309 988.674 294.867 990.729 294.867C992.376 294.867 992.917 293.906 993.205 293.431H993.315V295.155C993.315 296.558 992.42 297.188 990.972 297.188C989.768 297.188 988.961 296.757 988.785 295.884H987.37C987.525 297.464 988.917 298.359 990.972 298.359ZM988.486 290.691C988.486 288.978 989.293 287.608 990.928 287.608C992.497 287.608 993.337 288.867 993.337 290.691C993.337 292.558 992.475 293.674 990.928 293.674C989.315 293.674 988.486 292.448 988.486 290.691ZM998.139 289.906C998.139 288.436 999.078 287.608 1000.35 287.608C1001.56 287.608 1002.29 288.37 1002.29 289.707V295H1003.64V289.608C1003.64 287.431 1002.48 286.403 1000.75 286.403C999.409 286.403 998.647 286.967 998.249 287.851H998.139V283.685H996.791V295H998.139V289.906ZM1009.5 286.514H1007.71V284.481H1006.37V286.514H1005.08V287.641H1006.37V292.912C1006.37 294.403 1007.56 295.11 1008.69 295.11C1009.08 295.11 1009.41 295.077 1009.62 295.044V293.796C1009.43 293.807 1009.07 293.829 1008.83 293.829C1008.25 293.829 1007.71 293.652 1007.71 292.558V287.641H1009.5V286.514ZM1015.79 288.724H1017.12C1016.94 287.343 1015.83 286.403 1014.08 286.403C1012.21 286.403 1010.94 287.453 1010.94 288.901C1010.94 290.039 1011.72 290.845 1013.2 291.188L1014.49 291.486C1015.45 291.707 1015.88 292.105 1015.88 292.702C1015.88 293.497 1015.12 294.006 1013.91 294.006C1012.84 294.006 1012.23 293.608 1012.08 292.779H1010.67C1010.9 294.326 1012.03 295.177 1013.93 295.177C1016.07 295.177 1017.26 294.094 1017.26 292.624C1017.26 291.442 1016.52 290.691 1015.01 290.326L1013.73 290.017C1012.74 289.773 1012.29 289.387 1012.29 288.823C1012.29 288.116 1013.03 287.552 1014.08 287.552C1015.07 287.552 1015.61 288.017 1015.79 288.724ZM1023.2 295H1024.61V290.602H1027.07C1027.16 290.602 1027.25 290.602 1027.33 290.597L1029.71 295H1031.35L1028.79 290.343C1030.23 289.845 1030.9 288.669 1030.9 287.166C1030.9 285.155 1029.7 283.685 1027.05 283.685H1023.2V295ZM1024.61 289.331V284.934H1026.99C1028.8 284.934 1029.51 285.818 1029.51 287.166C1029.51 288.514 1028.8 289.331 1027 289.331H1024.61ZM1036.23 295.177C1037.98 295.177 1039.24 294.304 1039.64 293.011H1038.2C1037.89 293.541 1037.25 293.983 1036.23 293.983C1034.73 293.983 1033.68 293 1033.62 291.21H1039.77V290.646C1039.77 287.497 1037.89 286.403 1036.1 286.403C1033.8 286.403 1032.27 288.215 1032.27 290.823C1032.27 293.431 1033.78 295.177 1036.23 295.177ZM1033.62 290.061C1033.71 288.757 1034.64 287.597 1036.11 287.597C1037.51 287.597 1038.4 288.646 1038.4 290.061H1033.62ZM1046.23 288.724H1047.55C1047.38 287.343 1046.27 286.403 1044.51 286.403C1042.65 286.403 1041.38 287.453 1041.38 288.901C1041.38 290.039 1042.16 290.845 1043.64 291.188L1044.92 291.486C1045.89 291.707 1046.32 292.105 1046.32 292.702C1046.32 293.497 1045.55 294.006 1044.35 294.006C1043.28 294.006 1042.67 293.608 1042.51 292.779H1041.11C1041.33 294.326 1042.47 295.177 1044.37 295.177C1046.5 295.177 1047.7 294.094 1047.7 292.624C1047.7 291.442 1046.96 290.691 1045.44 290.326L1044.17 290.017C1043.18 289.773 1042.72 289.387 1042.72 288.823C1042.72 288.116 1043.47 287.552 1044.51 287.552C1045.51 287.552 1046.05 288.017 1046.23 288.724ZM1053.02 295.177C1054.76 295.177 1056.02 294.304 1056.42 293.011H1054.98C1054.67 293.541 1054.03 293.983 1053.02 293.983C1051.51 293.983 1050.46 293 1050.4 291.21H1056.55V290.646C1056.55 287.497 1054.67 286.403 1052.88 286.403C1050.58 286.403 1049.05 288.215 1049.05 290.823C1049.05 293.431 1050.56 295.177 1053.02 295.177ZM1050.4 290.061C1050.49 288.757 1051.42 287.597 1052.89 287.597C1054.29 287.597 1055.18 288.646 1055.18 290.061H1050.4ZM1058.29 295H1059.64V289.652C1059.64 288.514 1060.54 287.674 1061.77 287.674C1062.11 287.674 1062.48 287.74 1062.58 287.762V286.403C1062.42 286.392 1062.08 286.381 1061.88 286.381C1060.88 286.381 1059.99 286.956 1059.68 287.807H1059.59V286.514H1058.29V295ZM1071.13 286.514H1069.67L1067.35 293.243H1067.27L1064.95 286.514H1063.49L1066.61 295H1068L1071.13 286.514ZM1075.88 295.177C1077.62 295.177 1078.88 294.304 1079.28 293.011H1077.84C1077.53 293.541 1076.89 293.983 1075.88 293.983C1074.37 293.983 1073.32 293 1073.26 291.21H1079.41V290.646C1079.41 287.497 1077.53 286.403 1075.74 286.403C1073.44 286.403 1071.91 288.215 1071.91 290.823C1071.91 293.431 1073.42 295.177 1075.88 295.177ZM1073.26 290.061C1073.35 288.757 1074.28 287.597 1075.75 287.597C1077.15 287.597 1078.04 288.646 1078.04 290.061H1073.26ZM1084.35 295.177C1085.98 295.177 1086.53 294.171 1086.83 293.696H1086.97V295H1088.28V283.685H1086.93V287.862H1086.83C1086.54 287.409 1086.02 286.403 1084.38 286.403C1082.24 286.403 1080.75 288.094 1080.75 290.779C1080.75 293.475 1082.24 295.177 1084.35 295.177ZM1082.11 290.757C1082.11 288.978 1082.92 287.608 1084.55 287.608C1086.12 287.608 1086.96 288.867 1086.96 290.757C1086.96 292.657 1086.1 293.972 1084.55 293.972C1082.94 293.972 1082.11 292.558 1082.11 290.757ZM1091.56 295.088C1092.12 295.088 1092.57 294.635 1092.57 294.083C1092.57 293.53 1092.12 293.077 1091.56 293.077C1091.01 293.077 1090.55 293.53 1090.56 294.083C1090.55 294.635 1091.01 295.088 1091.56 295.088Z" fill="#B5B5B5"/>
<defs>
<clipPath id="clip0_947_1632">
<rect width="216" height="58" fill="white" transform="translate(852 40)"/>
</clipPath>
</defs>
</svg>
