<svg width="92" height="24" viewBox="0 0 92 24" fill="none" xmlns="http://www.w3.org/2000/svg">
<path d="M12.1245 5.32597V19.326H10.6439V5.32597H12.1245ZM0.621785 15.5193C1.77648 15.5138 3.0914 15.5028 4.46156 15.4641V14.0608C2.83173 13.8453 1.77096 12.8785 1.78201 11.5138C1.77096 9.9337 3.14665 8.89503 5.1798 8.89503C7.22399 8.89503 8.61626 9.9337 8.61626 11.5138C8.61626 12.8674 7.56101 13.8287 5.94223 14.0552V15.4088C7.23504 15.3481 8.54444 15.2486 9.77648 15.0884L9.88698 16.2044C6.78201 16.7182 3.39527 16.7569 0.831729 16.7569L0.621785 15.5193ZM0.914602 8.18232V6.99447H4.46156V5.35359H5.94775V6.99447H9.46156V8.18232H0.914602ZM3.1798 11.5138C3.16875 12.4033 4.003 12.9558 5.1798 12.9503C6.37869 12.9558 7.2019 12.4033 7.2019 11.5138C7.2019 10.6188 6.37869 10.0442 5.1798 10.0442C4.003 10.0442 3.16875 10.6188 3.1798 11.5138ZM25.7045 5.33702V15.9558H24.2128V14.6133H21.3951V13.5635H24.2128V5.33702H25.7045ZM13.9863 11.7293C16.5774 11.7127 20.0691 11.6851 23.0526 11.3094L23.152 12.3812C21.9476 12.5801 20.6934 12.7072 19.4559 12.7845V15.5193H17.9752V12.8674C16.6161 12.9171 15.3122 12.9282 14.1741 12.9227L13.9863 11.7293ZM15.0802 8.33702C15.0802 6.86188 16.4946 5.87293 18.5719 5.87293C20.6161 5.87293 22.036 6.86188 22.047 8.33702C22.036 9.83425 20.6161 10.779 18.5719 10.779C16.4946 10.779 15.0802 9.83425 15.0802 8.33702ZM15.9255 19.0387V14.9171H17.4062V17.8232H26.036V19.0387H15.9255ZM16.489 8.33702C16.4835 9.17127 17.3288 9.69061 18.5719 9.69061C19.7653 9.69061 20.6216 9.17127 20.6327 8.33702C20.6216 7.50829 19.7653 6.97237 18.5719 6.9779C17.3288 6.97237 16.4835 7.50829 16.489 8.33702ZM38.263 5.9779V7.17127H33.2464V8.46961H37.9922V9.60221H33.2464V11C35.8762 10.9945 37.3735 10.9448 39.1856 10.663L39.3293 11.8287C37.39 12.1436 35.7712 12.1934 32.8541 12.1934H31.7602V5.9779H38.263ZM33.0972 14.4144V13.2486H42.1525V16.6851H34.5889V18.0221H42.6276V19.1934H33.1304V15.5856H40.6773V14.4144H33.0972ZM40.6663 12.6077V5.32597H42.1525V8.28177H44.1801V9.49724H42.1525V12.6077H40.6663ZM53.1081 11.9724V13.1547H50.0805V15.2541C51.3622 15.1878 52.6551 15.0773 53.8761 14.9006L53.9921 15.9834C50.8208 16.5801 47.4175 16.5801 44.9147 16.6077L44.7324 15.3702C45.865 15.3702 47.202 15.3646 48.6109 15.3204V13.1547H45.7711V6.55249H53.0473V7.75691H47.2683V9.25414H52.7656V10.4088H47.2683V11.9724H53.1081ZM54.7545 19.3536V5.32597H56.2352V19.3536H54.7545Z" fill="#919191"/>
<path d="M72.5 22.125C72.4978 22.4206 72.6129 22.7051 72.8201 22.916C73.0273 23.1269 73.3097 23.247 73.6053 23.25H86.3948C86.6904 23.247 86.9728 23.1269 87.18 22.916C87.3872 22.7051 87.5023 22.4206 87.5 22.125V7.125H72.5V22.125ZM74 8.625H86V21.75H74V8.625Z" fill="#919191"/>
<path d="M77.375 10.125H75.875V19.5H77.375V10.125Z" fill="#919191"/>
<path d="M80.75 10.125H79.25V19.5H80.75V10.125Z" fill="#919191"/>
<path d="M84.125 10.125H82.625V19.5H84.125V10.125Z" fill="#919191"/>
<path d="M83.375 4.125V1.875C83.375 1.24416 82.9303 0.75 82.3625 0.75H77.6375C77.0698 0.75 76.625 1.24416 76.625 1.875V4.125H71V5.625H89V4.125H83.375ZM78.125 2.25H81.875V4.125H78.125V2.25Z" fill="#919191"/>
</svg>
